<?xml version="1.0" encoding="UTF-8" standalone="no"?>
<!-- Created with Inkscape (http://www.inkscape.org/) -->

<svg
   xmlns:dc="http://purl.org/dc/elements/1.1/"
   xmlns:cc="http://creativecommons.org/ns#"
   xmlns:rdf="http://www.w3.org/1999/02/22-rdf-syntax-ns#"
   xmlns:svg="http://www.w3.org/2000/svg"
   xmlns="http://www.w3.org/2000/svg"
   xmlns:sodipodi="http://sodipodi.sourceforge.net/DTD/sodipodi-0.dtd"
   xmlns:inkscape="http://www.inkscape.org/namespaces/inkscape"
   id="svg2"
   version="1.1"
   inkscape:version="0.48.4 r9939"
   width="530.52081"
   height="537.76392"
   xml:space="preserve"
   sodipodi:docname="new_total_algorithm.svg"><metadata
     id="metadata8"><rdf:RDF><cc:Work
         rdf:about=""><dc:format>image/svg+xml</dc:format><dc:type
           rdf:resource="http://purl.org/dc/dcmitype/StillImage" /><dc:title></dc:title></cc:Work></rdf:RDF></metadata><defs
     id="defs6"><clipPath
       clipPathUnits="userSpaceOnUse"
       id="clipPath24"><path
         d="m 119.055,659.428 416.697,0 0,98.271 -416.697,0 0,-98.271 z"
         id="path26"
         inkscape:connector-curvature="0" /></clipPath><clipPath
       clipPathUnits="userSpaceOnUse"
       id="clipPath140"><path
         d="m 119.055,513.342 416.701,0 0,96.283 -416.701,0 0,-96.283 z"
         id="path142"
         inkscape:connector-curvature="0" /></clipPath><clipPath
       id="clipPath3890"
       clipPathUnits="userSpaceOnUse"><path
         inkscape:connector-curvature="0"
         id="path3892"
         d="m 28.3,354 158.8,0 0,107.8 -158.8,0 0,-107.8 z" /></clipPath><clipPath
       id="clipPath3940"
       clipPathUnits="userSpaceOnUse"><path
         inkscape:connector-curvature="0"
         id="path3942"
         d="m 275,354 158.8,0 0,107.8 -158.8,0 0,-107.8 z" /></clipPath><clipPath
       id="clipPath3954"
       clipPathUnits="userSpaceOnUse"><path
         inkscape:connector-curvature="0"
         id="path3956"
         d="m 521.6,354 158.8,0 0,107.8 -158.8,0 0,-107.8 z" /></clipPath></defs><sodipodi:namedview
     pagecolor="#ffffff"
     bordercolor="#666666"
     borderopacity="1"
     objecttolerance="10"
     gridtolerance="10"
     guidetolerance="10"
     inkscape:pageopacity="0"
     inkscape:pageshadow="2"
     inkscape:window-width="1280"
     inkscape:window-height="948"
     id="namedview4"
     showgrid="false"
     fit-margin-top="0"
     fit-margin-left="0"
     fit-margin-right="0"
     fit-margin-bottom="0"
     inkscape:zoom="0.89702926"
     inkscape:cx="251.88559"
     inkscape:cy="193.31385"
     inkscape:window-x="0"
     inkscape:window-y="24"
     inkscape:window-maximized="1"
     inkscape:current-layer="g10" /><g
     id="g10"
     inkscape:groupmode="layer"
     inkscape:label="PhD Fred"
     transform="matrix(1.25,0,0,-1.25,-418.56767,1590.4718)"><path
       inkscape:connector-curvature="0"
       d="m 334.85414,1272.3774 424.41665,0 0,-430.21113 -424.41665,0 0,430.21113 z"
       style="fill:#ffffff;fill-opacity:1;fill-rule:evenodd;stroke:none"
       id="path4402" /><g
       id="g20"
       transform="matrix(0.9820324,0,0,0.9820324,230.42391,385.20152)"><g
         id="g22"
         clip-path="url(#clipPath24)"><g
           id="g28"
           transform="translate(215.2107,691.2007)"><path
             d="m 0,0 c 0,-16.34 -21.357,-29.591 -47.702,-29.591 -26.345,0 -47.704,13.251 -47.704,29.591 0,16.343 21.359,29.591 47.704,29.591 C -21.357,29.591 0,16.343 0,0 z"
             style="fill:none;stroke:#000000;stroke-width:1.51499999;stroke-linecap:square;stroke-linejoin:bevel;stroke-miterlimit:4;stroke-opacity:1;stroke-dasharray:none"
             id="path30"
             inkscape:connector-curvature="0" /></g><g
           id="g32"
           transform="translate(353.5954,691.2007)"><path
             d="m 0,0 c 0,-16.34 -21.356,-29.591 -47.702,-29.591 -26.345,0 -47.701,13.251 -47.701,29.591 0,16.343 21.356,29.591 47.701,29.591 C -21.356,29.591 0,16.343 0,0 z"
             style="fill:none;stroke:#000000;stroke-width:1.51499999;stroke-linecap:square;stroke-linejoin:bevel;stroke-miterlimit:4;stroke-opacity:1;stroke-dasharray:none"
             id="path34"
             inkscape:connector-curvature="0" /></g><g
           id="g36"
           transform="translate(487.9409,691.2007)"><path
             d="m 0,0 c 0,-16.34 -21.357,-29.591 -47.702,-29.591 -26.345,0 -47.704,13.251 -47.704,29.591 0,16.343 21.359,29.591 47.704,29.591 C -21.357,29.591 0,16.343 0,0 z"
             style="fill:none;stroke:#000000;stroke-width:1.51499999;stroke-linecap:square;stroke-linejoin:bevel;stroke-miterlimit:4;stroke-opacity:1;stroke-dasharray:none"
             id="path38"
             inkscape:connector-curvature="0" /></g><g
           id="g40"
           transform="translate(216.0093,690.3718)"><path
             d="M 0,0 40.404,0"
             style="fill:none;stroke:#000000;stroke-width:0.505;stroke-linecap:butt;stroke-linejoin:miter;stroke-miterlimit:4;stroke-opacity:1;stroke-dasharray:none"
             id="path42"
             inkscape:connector-curvature="0" /></g><g
           id="g44"
           transform="translate(251.0154,692.6115)"><path
             d="M 0,0 6.069,-2.232 0,-4.464 C 0.97,-3.147 0.965,-1.342 0,0"
             style="fill:#000000;fill-opacity:1;fill-rule:evenodd;stroke:none"
             id="path46"
             inkscape:connector-curvature="0" /></g><g
           id="g48"
           transform="translate(352.3745,690.3718)"><path
             d="M 0,0 40.404,0"
             style="fill:none;stroke:#000000;stroke-width:0.505;stroke-linecap:butt;stroke-linejoin:miter;stroke-miterlimit:4;stroke-opacity:1;stroke-dasharray:none"
             id="path50"
             inkscape:connector-curvature="0" /></g><g
           id="g52"
           transform="translate(387.3805,692.6115)"><path
             d="M 0,0 6.069,-2.232 0,-4.464 C 0.97,-3.147 0.965,-1.342 0,0"
             style="fill:#000000;fill-opacity:1;fill-rule:evenodd;stroke:none"
             id="path54"
             inkscape:connector-curvature="0" /></g><g
           id="g56"
           transform="translate(177.2501,720.0861)"><path
             d="m 0,0 c 4.412,8.967 16.293,13.11 26.543,9.25 10.248,-3.859 14.981,-14.256 10.572,-23.226 -0.683,-1.39 -1.572,-2.7 -2.637,-3.894"
             style="fill:none;stroke:#000000;stroke-width:0.53399998;stroke-linecap:square;stroke-linejoin:bevel;stroke-miterlimit:4;stroke-opacity:1;stroke-dasharray:none"
             id="path58"
             inkscape:connector-curvature="0" /></g><g
           id="g60"
           transform="translate(179.6074,724.8754)"><path
             d="M 0,0 -0.974,2.858 -2.358,-4.79 2.858,0.974 0,0 z"
             style="fill:#000000;fill-opacity:1;fill-rule:evenodd;stroke:#000000;stroke-width:0.53399998;stroke-linecap:butt;stroke-linejoin:miter;stroke-miterlimit:4;stroke-opacity:1;stroke-dasharray:none"
             id="path62"
             inkscape:connector-curvature="0" /></g><g
           id="g64"
           transform="translate(488.7396,690.3718)"><path
             d="M 0,0 40.404,0"
             style="fill:none;stroke:#000000;stroke-width:0.505;stroke-linecap:butt;stroke-linejoin:miter;stroke-miterlimit:4;stroke-opacity:1;stroke-dasharray:none"
             id="path66"
             inkscape:connector-curvature="0" /></g><g
           id="g68"
           transform="translate(523.7457,692.6115)"><path
             d="M 0,0 6.07,-2.232 0,-4.464 C 0.97,-3.147 0.965,-1.342 0,0"
             style="fill:#000000;fill-opacity:1;fill-rule:evenodd;stroke:none"
             id="path70"
             inkscape:connector-curvature="0" /></g><g
           id="g72"
           transform="translate(449.9803,720.0861)"><path
             d="m 0,0 c 4.412,8.967 16.293,13.11 26.543,9.25 10.248,-3.859 14.981,-14.256 10.572,-23.226 -0.683,-1.39 -1.572,-2.7 -2.637,-3.894"
             style="fill:none;stroke:#000000;stroke-width:0.53399998;stroke-linecap:square;stroke-linejoin:bevel;stroke-miterlimit:4;stroke-opacity:1;stroke-dasharray:none"
             id="path74"
             inkscape:connector-curvature="0" /></g><g
           id="g76"
           transform="translate(452.3377,724.8753)"><path
             d="M 0,0 -0.974,2.858 -2.358,-4.789 2.858,0.974 0,0 z"
             style="fill:#000000;fill-opacity:1;fill-rule:evenodd;stroke:none"
             id="path78"
             inkscape:connector-curvature="0" /></g><g
           id="g80"
           transform="translate(452.3378,724.8753)"><path
             d="M 0,0 -0.974,2.858 -2.358,-4.789 2.858,0.974 0,0 z"
             style="fill:none;stroke:#000000;stroke-width:0.53399998;stroke-linecap:butt;stroke-linejoin:miter;stroke-miterlimit:4;stroke-opacity:1;stroke-dasharray:none"
             id="path82"
             inkscape:connector-curvature="0" /></g></g></g><text
       xml:space="preserve"
       style="font-size:11.19999981px;font-style:normal;font-weight:normal;text-align:center;line-height:125%;letter-spacing:0px;word-spacing:0px;text-anchor:middle;fill:#000000;fill-opacity:1;stroke:none;font-family:Sans;-inkscape-font-specification:Sans"
       x="531.54224"
       y="-1067.0659"
       id="text3383-9"
       sodipodi:linespacing="125%"
       transform="scale(1,-1)"><tspan
         sodipodi:role="line"
         x="531.54224"
         y="-1067.0659"
         id="tspan3408">Variational</tspan><tspan
         sodipodi:role="line"
         x="531.54224"
         y="-1053.0659"
         id="tspan4843">Bayes</tspan></text>
<text
       xml:space="preserve"
       style="font-size:11.19999981px;font-style:normal;font-weight:normal;text-align:center;line-height:125%;letter-spacing:0px;word-spacing:0px;text-anchor:middle;fill:#000000;fill-opacity:1;stroke:none;font-family:Sans;-inkscape-font-specification:Sans"
       x="662.33557"
       y="-1067.0657"
       id="text3383-3"
       sodipodi:linespacing="125%"
       transform="scale(1,-1)"><tspan
         sodipodi:role="line"
         id="tspan3385-7"
         x="662.33557"
         y="-1067.0657">Variational</tspan><tspan
         sodipodi:role="line"
         x="662.33557"
         y="-1053.0657"
         id="tspan4845">Bayes</tspan></text>
<text
       xml:space="preserve"
       style="font-size:11.19999981px;font-style:normal;font-weight:normal;text-align:center;line-height:125%;letter-spacing:0px;word-spacing:0px;text-anchor:middle;fill:#000000;fill-opacity:1;stroke:none;font-family:Sans;-inkscape-font-specification:Sans"
       x="689.82062"
       y="-1126.3771"
       id="text3383-9-0-8"
       sodipodi:linespacing="125%"
       transform="scale(1,-1)"><tspan
         sodipodi:role="line"
         id="tspan3385-4-7-3"
         x="689.82062"
         y="-1126.3771">update</tspan><tspan
         sodipodi:role="line"
         x="689.82062"
         y="-1112.3771"
         id="tspan3408-5-1">proposal</tspan></text>
<text
       xml:space="preserve"
       style="font-size:11.19999981px;font-style:normal;font-weight:normal;line-height:125%;letter-spacing:0px;word-spacing:0px;fill:#000000;fill-opacity:1;stroke:none;font-family:Sans;-inkscape-font-specification:Sans"
       x="375.0871"
       y="-1060.6659"
       id="text3383"
       sodipodi:linespacing="125%"
       transform="scale(1,-1)"><tspan
         sodipodi:role="line"
         id="tspan3385"
         x="375.0871"
         y="-1060.6659">MCMC</tspan></text>
<text
       xml:space="preserve"
       style="font-size:11.19999981px;font-style:normal;font-weight:normal;text-align:center;line-height:125%;letter-spacing:0px;word-spacing:0px;text-anchor:middle;fill:#000000;fill-opacity:1;stroke:none;font-family:Sans;-inkscape-font-specification:Sans"
       x="419.24423"
       y="-1126.3768"
       id="text3383-9-0"
       sodipodi:linespacing="125%"
       transform="scale(1,-1)"><tspan
         sodipodi:role="line"
         id="tspan3385-4-7"
         x="419.24423"
         y="-1126.3768">update</tspan><tspan
         sodipodi:role="line"
         x="419.24423"
         y="-1112.3768"
         id="tspan3408-5">proposal</tspan></text>
</g></svg>