<?xml version="1.0" encoding="utf-8" standalone="no"?>
<!DOCTYPE svg PUBLIC "-//W3C//DTD SVG 1.1//EN"
  "http://www.w3.org/Graphics/SVG/1.1/DTD/svg11.dtd">
<!-- Created with matplotlib (http://matplotlib.org/) -->
<svg height="432pt" version="1.1" viewBox="0 0 432 432" width="432pt" xmlns="http://www.w3.org/2000/svg" xmlns:xlink="http://www.w3.org/1999/xlink">
 <defs>
  <style type="text/css">
*{stroke-linecap:butt;stroke-linejoin:round;}
  </style>
 </defs>
 <g id="figure_1">
  <g id="patch_1">
   <path d="
M0 432
L432 432
L432 0
L0 0
z
" style="fill:#ffffff;"/>
  </g>
  <g id="axes_1">
   <g id="patch_2">
    <path d="
M55.2375 381.779
L416.052 381.779
L416.052 19.26
L55.2375 19.26
z
" style="fill:#ffffff;"/>
   </g>
   <g id="PathCollection_1">
    <defs>
     <path d="
M55.2375 -50.2211
L62.6011 -50.2211
L69.9646 -50.2211
L77.3282 -50.2211
L84.6917 -50.2211
L92.0553 -50.2211
L99.4188 -50.2211
L106.782 -50.2211
L114.146 -50.2211
L121.509 -50.2211
L128.873 -50.2211
L136.237 -50.2211
L143.6 -50.2211
L150.964 -50.2211
L158.327 -50.2211
L165.691 -50.2211
L173.054 -50.2211
L180.418 -50.2211
L187.781 -50.2211
L195.145 -50.2211
L202.509 -50.2211
L209.872 -50.2211
L217.236 -50.2211
L224.599 -50.2211
L231.963 -50.2211
L239.326 -50.2211
L246.69 -50.2211
L254.053 -50.2211
L261.417 -50.2211
L268.781 -50.2211
L276.144 -50.2211
L283.508 -50.2211
L290.871 -50.2211
L298.235 -50.2211
L305.598 -50.2211
L312.962 -50.2211
L320.325 -50.2211
L327.689 -50.2211
L335.053 -50.2211
L342.416 -50.2211
L349.78 -50.2211
L357.143 -50.2211
L364.507 -50.2211
L371.87 -50.2211
L379.234 -50.2211
L386.597 -50.2211
L393.961 -50.2211
L401.325 -50.2211
L408.688 -50.2211
L416.052 -50.2211
L416.052 -57.6195
L416.052 -65.0178
L416.052 -72.4162
L416.052 -79.8145
L416.052 -87.2128
L416.052 -94.6112
L416.052 -102.01
L416.052 -109.408
L416.052 -116.806
L416.052 -124.205
L416.052 -131.603
L416.052 -139.001
L416.052 -146.4
L416.052 -153.798
L416.052 -161.196
L416.052 -168.595
L416.052 -175.993
L416.052 -183.391
L416.052 -190.79
L416.052 -198.188
L416.052 -205.586
L416.052 -212.985
L416.052 -220.383
L416.052 -227.781
L416.052 -235.18
L416.052 -242.578
L416.052 -249.976
L416.052 -257.375
L416.052 -264.773
L416.052 -272.171
L416.052 -279.57
L416.052 -286.968
L416.052 -294.366
L416.052 -301.765
L416.052 -309.163
L416.052 -316.562
L416.052 -323.96
L416.052 -331.358
L416.052 -338.757
L416.052 -346.155
L416.052 -353.553
L416.052 -360.952
L416.052 -368.35
L416.052 -375.748
L416.052 -383.147
L416.052 -390.545
L416.052 -397.943
L416.052 -405.342
L416.052 -412.74
L408.688 -412.74
L401.325 -412.74
L393.961 -412.74
L386.597 -412.74
L379.234 -412.74
L371.87 -412.74
L364.507 -412.74
L357.143 -412.74
L349.78 -412.74
L342.416 -412.74
L335.053 -412.74
L327.689 -412.74
L320.325 -412.74
L312.962 -412.74
L305.598 -412.74
L298.235 -412.74
L290.871 -412.74
L283.508 -412.74
L276.144 -412.74
L268.781 -412.74
L261.417 -412.74
L254.053 -412.74
L246.69 -412.74
L239.326 -412.74
L231.963 -412.74
L224.599 -412.74
L217.236 -412.74
L209.872 -412.74
L202.509 -412.74
L195.145 -412.74
L187.781 -412.74
L180.418 -412.74
L173.054 -412.74
L165.691 -412.74
L158.327 -412.74
L150.964 -412.74
L143.6 -412.74
L136.237 -412.74
L128.873 -412.74
L121.509 -412.74
L114.146 -412.74
L106.782 -412.74
L99.4188 -412.74
L92.0553 -412.74
L84.6917 -412.74
L77.3282 -412.74
L69.9646 -412.74
L62.6011 -412.74
L55.2375 -412.74
L55.2375 -405.342
L55.2375 -397.943
L55.2375 -390.545
L55.2375 -383.147
L55.2375 -375.748
L55.2375 -368.35
L55.2375 -360.952
L55.2375 -353.553
L55.2375 -346.155
L55.2375 -338.757
L55.2375 -331.358
L55.2375 -323.96
L55.2375 -316.562
L55.2375 -309.163
L55.2375 -301.765
L55.2375 -294.366
L55.2375 -286.968
L55.2375 -279.57
L55.2375 -272.171
L55.2375 -264.773
L55.2375 -257.375
L55.2375 -249.976
L55.2375 -242.578
L55.2375 -235.18
L55.2375 -227.781
L55.2375 -220.383
L55.2375 -212.985
L55.2375 -205.586
L55.2375 -198.188
L55.2375 -190.79
L55.2375 -183.391
L55.2375 -175.993
L55.2375 -168.595
L55.2375 -161.196
L55.2375 -153.798
L55.2375 -146.4
L55.2375 -139.001
L55.2375 -131.603
L55.2375 -124.205
L55.2375 -116.806
L55.2375 -109.408
L55.2375 -102.01
L55.2375 -94.6112
L55.2375 -87.2128
L55.2375 -79.8145
L55.2375 -72.4162
L55.2375 -65.0178
L55.2375 -57.6195
L55.2375 -50.2211
M276.144 -77.8228
L272.886 -79.8145
L268.781 -80.6411
L261.417 -84.9024
L258.615 -87.2128
L254.053 -89.5333
L249.057 -94.6112
L246.69 -96.9035
L240.417 -102.01
L239.326 -102.739
L232.035 -109.408
L231.963 -109.461
L225.173 -116.806
L224.599 -117.42
L217.701 -124.205
L217.236 -124.564
L209.872 -128.188
L206.385 -131.603
L202.852 -139.001
L202.509 -139.402
L195.145 -145.502
L194.208 -146.4
L187.896 -153.798
L187.781 -153.985
L180.418 -159.683
L179.023 -161.196
L173.054 -168.595
L173.054 -168.595
L166.017 -175.993
L165.691 -176.414
L158.58 -183.391
L158.327 -183.635
L150.964 -189.631
L149.83 -190.79
L143.847 -198.188
L143.6 -198.421
L136.331 -205.586
L136.237 -205.69
L128.873 -211.357
L127.27 -212.985
L121.509 -219.559
L120.549 -220.383
L114.146 -227.561
L113.96 -227.781
L107.552 -235.18
L106.782 -236.172
L101.622 -242.578
L99.4188 -245.436
L94.7784 -249.976
L92.0553 -255.821
L90.7387 -257.375
L86.6783 -264.773
L84.6917 -270.528
L83.2944 -272.171
L78.6782 -279.57
L84.6917 -283.325
L91.3198 -279.57
L92.0553 -279.219
L99.4188 -277.922
L106.782 -273.947
L108.722 -272.171
L114.146 -268.095
L119.652 -264.773
L121.509 -263.999
L128.168 -257.375
L128.873 -256.879
L136.237 -253.296
L139.609 -249.976
L143.6 -245.249
L146.197 -242.578
L150.964 -236.237
L152.103 -235.18
L158.327 -230.484
L161.022 -227.781
L165.691 -222.525
L167.693 -220.383
L173.054 -213.897
L173.901 -212.985
L179.988 -205.586
L180.418 -205.112
L187.781 -199.667
L189.23 -198.188
L195.145 -193.977
L198.405 -190.79
L202.085 -183.391
L202.509 -182.614
L209.872 -176.208
L210.063 -175.993
L217.236 -173.732
L222.056 -168.595
L224.599 -163.747
L228.104 -161.196
L231.963 -156.66
L233.685 -153.798
L239.326 -147.718
L241.207 -146.4
L246.69 -140.687
L248.356 -139.001
L254.053 -131.698
L254.112 -131.603
L261.044 -124.205
L261.417 -123.73
L268.781 -117.119
L269.074 -116.806
L273.012 -109.408
L276.144 -105.604
L279.64 -102.01
L281.785 -94.6112
L283.508 -92.3311
L287.582 -87.2128
L288.637 -79.8145
L283.508 -74.4098
L276.144 -77.8228
M379.234 -180.486
L376.909 -183.391
L371.87 -184.61
L365.554 -190.79
L364.507 -192.044
L357.143 -194.336
L352.644 -198.188
L349.78 -200.335
L344.361 -205.586
L342.416 -207.034
L335.053 -212.497
L334.526 -212.985
L327.689 -217.191
L324.383 -220.383
L320.325 -227.055
L319.513 -227.781
L312.962 -230.9
L308.774 -235.18
L305.598 -241.994
L305.119 -242.578
L298.235 -246.381
L294.315 -249.976
L290.871 -256.938
L290.431 -257.375
L283.904 -264.773
L283.508 -265.052
L277.233 -272.171
L276.144 -272.732
L269.363 -279.57
L268.781 -281.414
L262.774 -286.968
L261.417 -288.128
L254.053 -288.594
L248.052 -294.366
L246.69 -299.754
L244.484 -301.765
L240.34 -309.163
L239.326 -309.875
L231.963 -314.433
L229.764 -316.562
L224.599 -322.507
L223.009 -323.96
L218.504 -331.358
L217.236 -332.827
L210.532 -338.757
L209.872 -339.488
L204.101 -346.155
L202.509 -351.111
L200.351 -353.553
L196.081 -360.952
L195.145 -363.313
L191.741 -368.35
L187.781 -371.138
L181.481 -375.748
L187.781 -381.387
L188.76 -383.147
L195.145 -387.574
L199.879 -383.147
L202.509 -380.583
L209.872 -377.988
L212.232 -375.748
L217.236 -368.774
L219.014 -368.35
L224.599 -367.337
L230.368 -360.952
L231.963 -360.106
L237.906 -353.553
L239.326 -352.493
L245.897 -346.155
L246.69 -345.377
L254.053 -339.27
L254.628 -338.757
L261.417 -333.248
L263.087 -331.358
L267.983 -323.96
L268.781 -322.694
L276.144 -317.383
L277.002 -316.562
L281.816 -309.163
L283.508 -307.128
L288.996 -301.765
L290.871 -299.102
L298.235 -295.502
L299.38 -294.366
L305.097 -286.968
L305.598 -286.179
L312.962 -279.665
L313.043 -279.57
L319.626 -272.171
L320.325 -271.438
L327.689 -267.621
L330.358 -264.773
L335.053 -259.559
L337.248 -257.375
L342.416 -250.839
L343.34 -249.976
L349.261 -242.578
L349.78 -241.934
L356.854 -235.18
L357.143 -234.749
L364.507 -228.426
L365.11 -227.781
L369.726 -220.383
L371.87 -218.338
L378.051 -212.985
L379.234 -211.944
L384.284 -205.586
L386.283 -198.188
L386.597 -196.631
L389.407 -190.79
L387.576 -183.391
L386.597 -181.797
L379.234 -180.486" id="C0_0_d3baeb097a"/>
    </defs>
    <g clip-path="url(#p6a79b58fda)">
     <use style="fill:#ffffff;" x="0.0" xlink:href="#C0_0_d3baeb097a" y="432.0"/>
    </g>
   </g>
   <g id="PathCollection_2">
    <defs>
     <path d="
M276.144 -77.8228
L283.508 -74.4098
L288.637 -79.8145
L287.582 -87.2128
L283.508 -92.3311
L281.785 -94.6112
L279.64 -102.01
L276.144 -105.604
L273.012 -109.408
L269.074 -116.806
L268.781 -117.119
L261.417 -123.73
L261.044 -124.205
L254.112 -131.603
L254.053 -131.698
L248.356 -139.001
L246.69 -140.687
L241.207 -146.4
L239.326 -147.718
L233.685 -153.798
L231.963 -156.66
L228.104 -161.196
L224.599 -163.747
L222.056 -168.595
L217.236 -173.732
L210.063 -175.993
L209.872 -176.208
L202.509 -182.614
L202.085 -183.391
L198.405 -190.79
L195.145 -193.977
L189.23 -198.188
L187.781 -199.667
L180.418 -205.112
L179.988 -205.586
L173.901 -212.985
L173.054 -213.897
L167.693 -220.383
L165.691 -222.525
L161.022 -227.781
L158.327 -230.484
L152.103 -235.18
L150.964 -236.237
L146.197 -242.578
L143.6 -245.249
L139.609 -249.976
L136.237 -253.296
L128.873 -256.879
L128.168 -257.375
L121.509 -263.999
L119.652 -264.773
L114.146 -268.095
L108.722 -272.171
L106.782 -273.947
L99.4188 -277.922
L92.0553 -279.219
L91.3198 -279.57
L84.6917 -283.325
L78.6782 -279.57
L83.2944 -272.171
L84.6917 -270.528
L86.6783 -264.773
L90.7387 -257.375
L92.0553 -255.821
L94.7784 -249.976
L99.4188 -245.436
L101.622 -242.578
L106.782 -236.172
L107.552 -235.18
L113.96 -227.781
L114.146 -227.561
L120.549 -220.383
L121.509 -219.559
L127.27 -212.985
L128.873 -211.357
L136.237 -205.69
L136.331 -205.586
L143.6 -198.421
L143.847 -198.188
L149.83 -190.79
L150.964 -189.631
L158.327 -183.635
L158.58 -183.391
L165.691 -176.414
L166.017 -175.993
L173.054 -168.595
L173.054 -168.595
L179.023 -161.196
L180.418 -159.683
L187.781 -153.985
L187.896 -153.798
L194.208 -146.4
L195.145 -145.502
L202.509 -139.402
L202.852 -139.001
L206.385 -131.603
L209.872 -128.188
L217.236 -124.564
L217.701 -124.205
L224.599 -117.42
L225.173 -116.806
L231.963 -109.461
L232.035 -109.408
L239.326 -102.739
L240.417 -102.01
L246.69 -96.9035
L249.057 -94.6112
L254.053 -89.5333
L258.615 -87.2128
L261.417 -84.9024
L268.781 -80.6411
L272.886 -79.8145
L276.144 -77.8228
M254.053 -100.441
L252.455 -102.01
L246.69 -106.456
L242.992 -109.408
L239.326 -112.064
L233.57 -116.806
L231.963 -118.062
L226.1 -124.205
L224.599 -125.468
L217.366 -131.603
L217.236 -131.717
L209.872 -138.685
L209.633 -139.001
L203.214 -146.4
L202.509 -147.012
L195.397 -153.798
L195.145 -154.088
L189.805 -161.196
L187.781 -162.842
L182.445 -168.595
L180.418 -172.254
L173.977 -175.993
L173.054 -176.635
L167.571 -183.391
L165.691 -185.166
L159.942 -190.79
L158.327 -192.276
L151.825 -198.188
L150.964 -198.916
L144.045 -205.586
L143.6 -206.055
L137.128 -212.985
L136.237 -213.738
L129.058 -220.383
L128.873 -220.586
L122.83 -227.781
L121.509 -229.346
L116.43 -235.18
L114.146 -239.967
L111.919 -242.578
L106.782 -249.432
L106.326 -249.976
L106.782 -257.375
L114.146 -255.241
L121.509 -252.893
L125.553 -249.976
L128.873 -248.437
L134.069 -242.578
L136.237 -240.557
L143.369 -235.18
L143.6 -235.002
L150.909 -227.781
L150.964 -227.708
L157.412 -220.383
L158.327 -219.61
L164.641 -212.985
L165.691 -211.508
L171.026 -205.586
L173.054 -203.308
L177.888 -198.188
L180.418 -195.686
L184.691 -190.79
L187.781 -187.35
L195.145 -184.348
L195.902 -183.391
L199.117 -175.993
L202.509 -173.868
L208.688 -168.595
L209.872 -167.754
L217.236 -162.623
L218.302 -161.196
L224.599 -154.84
L225.607 -153.798
L231.285 -146.4
L231.963 -145.672
L238.933 -139.001
L239.326 -138.509
L245.104 -131.603
L246.69 -130.226
L252.245 -124.205
L254.053 -120.596
L257.282 -116.806
L260.255 -109.408
L261.417 -106.393
L264.781 -102.01
L261.417 -99.6946
L254.053 -100.441" id="C1_0_d462ef8f87"/>
     <path d="
M379.234 -180.486
L386.597 -181.797
L387.576 -183.391
L389.407 -190.79
L386.597 -196.631
L386.283 -198.188
L384.284 -205.586
L379.234 -211.944
L378.051 -212.985
L371.87 -218.338
L369.726 -220.383
L365.11 -227.781
L364.507 -228.426
L357.143 -234.749
L356.854 -235.18
L349.78 -241.934
L349.261 -242.578
L343.34 -249.976
L342.416 -250.839
L337.248 -257.375
L335.053 -259.559
L330.358 -264.773
L327.689 -267.621
L320.325 -271.438
L319.626 -272.171
L313.043 -279.57
L312.962 -279.665
L305.598 -286.179
L305.097 -286.968
L299.38 -294.366
L298.235 -295.502
L290.871 -299.102
L288.996 -301.765
L283.508 -307.128
L281.816 -309.163
L277.002 -316.562
L276.144 -317.383
L268.781 -322.694
L267.983 -323.96
L263.087 -331.358
L261.417 -333.248
L254.628 -338.757
L254.053 -339.27
L246.69 -345.377
L245.897 -346.155
L239.326 -352.493
L237.906 -353.553
L231.963 -360.106
L230.368 -360.952
L224.599 -367.337
L219.014 -368.35
L217.236 -368.774
L212.232 -375.748
L209.872 -377.988
L202.509 -380.583
L199.879 -383.147
L195.145 -387.574
L188.76 -383.147
L187.781 -381.387
L181.481 -375.748
L187.781 -371.138
L191.741 -368.35
L195.145 -363.313
L196.081 -360.952
L200.351 -353.553
L202.509 -351.111
L204.101 -346.155
L209.872 -339.488
L210.532 -338.757
L217.236 -332.827
L218.504 -331.358
L223.009 -323.96
L224.599 -322.507
L229.764 -316.562
L231.963 -314.433
L239.326 -309.875
L240.34 -309.163
L244.484 -301.765
L246.69 -299.754
L248.052 -294.366
L254.053 -288.594
L261.417 -288.128
L262.774 -286.968
L268.781 -281.414
L269.363 -279.57
L276.144 -272.732
L277.233 -272.171
L283.508 -265.052
L283.904 -264.773
L290.431 -257.375
L290.871 -256.938
L294.315 -249.976
L298.235 -246.381
L305.119 -242.578
L305.598 -241.994
L308.774 -235.18
L312.962 -230.9
L319.513 -227.781
L320.325 -227.055
L324.383 -220.383
L327.689 -217.191
L334.526 -212.985
L335.053 -212.497
L342.416 -207.034
L344.361 -205.586
L349.78 -200.335
L352.644 -198.188
L357.143 -194.336
L364.507 -192.044
L365.554 -190.79
L371.87 -184.61
L376.909 -183.391
L379.234 -180.486
M364.507 -202.607
L359.968 -205.586
L357.143 -207.273
L349.78 -210.655
L346.965 -212.985
L342.416 -215.39
L335.876 -220.383
L335.053 -220.988
L329.245 -227.781
L327.689 -229.393
L321.393 -235.18
L320.325 -236.141
L312.962 -241.373
L312.008 -242.578
L306.168 -249.976
L305.598 -250.543
L299.12 -257.375
L298.235 -258.648
L293.301 -264.773
L290.871 -267.474
L284.45 -272.171
L283.508 -273.478
L276.144 -276.305
L272.906 -279.57
L272.314 -286.968
L268.781 -290.525
L264.526 -294.366
L261.417 -297.599
L254.053 -294.79
L249.199 -301.765
L248.716 -309.163
L246.69 -311.108
L240.211 -316.562
L239.326 -317.554
L233.299 -323.96
L231.963 -325.262
L225.992 -331.358
L224.599 -338.739
L224.587 -338.757
L217.236 -341.508
L212.876 -346.155
L215.191 -353.553
L209.872 -357.457
L207.881 -360.952
L209.872 -364.422
L217.236 -362.316
L218.911 -360.952
L224.599 -354.027
L225.313 -353.553
L231.963 -350.378
L237.197 -346.155
L239.326 -344.293
L244.94 -338.757
L246.69 -336.694
L251.7 -331.358
L254.053 -329.902
L260.706 -323.96
L261.417 -322.988
L266.097 -316.562
L268.781 -312.108
L271.877 -309.163
L276.144 -306.407
L280.345 -301.765
L283.498 -294.366
L283.508 -294.357
L290.871 -290.052
L297.169 -286.968
L298.235 -285.617
L301.722 -279.57
L305.598 -276.894
L311.674 -272.171
L312.962 -271.361
L319.357 -264.773
L320.325 -263.756
L327.689 -258.113
L328.396 -257.375
L334.418 -249.976
L335.053 -249.321
L342.219 -242.578
L342.416 -242.297
L348.434 -235.18
L349.78 -233.181
L353.937 -227.781
L357.143 -224.845
L361.218 -220.383
L363.025 -212.985
L364.507 -210.418
L366.982 -205.586
L364.507 -202.607" id="C1_1_aab65cf9ca"/>
    </defs>
    <g clip-path="url(#p6a79b58fda)">
     <use style="fill:#0000ff;fill-opacity:0.5;" x="0.0" xlink:href="#C1_0_d462ef8f87" y="432.0"/>
    </g>
    <g clip-path="url(#p6a79b58fda)">
     <use style="fill:#0000ff;fill-opacity:0.5;" x="0.0" xlink:href="#C1_1_aab65cf9ca" y="432.0"/>
    </g>
   </g>
   <g id="PathCollection_3">
    <defs>
     <path d="
M254.053 -100.441
L261.417 -99.6946
L264.781 -102.01
L261.417 -106.393
L260.255 -109.408
L257.282 -116.806
L254.053 -120.596
L252.245 -124.205
L246.69 -130.226
L245.104 -131.603
L239.326 -138.509
L238.933 -139.001
L231.963 -145.672
L231.285 -146.4
L225.607 -153.798
L224.599 -154.84
L218.302 -161.196
L217.236 -162.623
L209.872 -167.754
L208.688 -168.595
L202.509 -173.868
L199.117 -175.993
L195.902 -183.391
L195.145 -184.348
L187.781 -187.35
L184.691 -190.79
L180.418 -195.686
L177.888 -198.188
L173.054 -203.308
L171.026 -205.586
L165.691 -211.508
L164.641 -212.985
L158.327 -219.61
L157.412 -220.383
L150.964 -227.708
L150.909 -227.781
L143.6 -235.002
L143.369 -235.18
L136.237 -240.557
L134.069 -242.578
L128.873 -248.437
L125.553 -249.976
L121.509 -252.893
L114.146 -255.241
L106.782 -257.375
L106.326 -249.976
L106.782 -249.432
L111.919 -242.578
L114.146 -239.967
L116.43 -235.18
L121.509 -229.346
L122.83 -227.781
L128.873 -220.586
L129.058 -220.383
L136.237 -213.738
L137.128 -212.985
L143.6 -206.055
L144.045 -205.586
L150.964 -198.916
L151.825 -198.188
L158.327 -192.276
L159.942 -190.79
L165.691 -185.166
L167.571 -183.391
L173.054 -176.635
L173.977 -175.993
L180.418 -172.254
L182.445 -168.595
L187.781 -162.842
L189.805 -161.196
L195.145 -154.088
L195.397 -153.798
L202.509 -147.012
L203.214 -146.4
L209.633 -139.001
L209.872 -138.685
L217.236 -131.717
L217.366 -131.603
L224.599 -125.468
L226.1 -124.205
L231.963 -118.062
L233.57 -116.806
L239.326 -112.064
L242.992 -109.408
L246.69 -106.456
L252.455 -102.01
L254.053 -100.441" id="C2_0_ac372b5eef"/>
     <path d="
M364.507 -202.607
L366.982 -205.586
L364.507 -210.418
L363.025 -212.985
L361.218 -220.383
L357.143 -224.845
L353.937 -227.781
L349.78 -233.181
L348.434 -235.18
L342.416 -242.297
L342.219 -242.578
L335.053 -249.321
L334.418 -249.976
L328.396 -257.375
L327.689 -258.113
L320.325 -263.756
L319.357 -264.773
L312.962 -271.361
L311.674 -272.171
L305.598 -276.894
L301.722 -279.57
L298.235 -285.617
L297.169 -286.968
L290.871 -290.052
L283.508 -294.357
L283.498 -294.366
L280.345 -301.765
L276.144 -306.407
L271.877 -309.163
L268.781 -312.108
L266.097 -316.562
L261.417 -322.988
L260.706 -323.96
L254.053 -329.902
L251.7 -331.358
L246.69 -336.694
L244.94 -338.757
L239.326 -344.293
L237.197 -346.155
L231.963 -350.378
L225.313 -353.553
L224.599 -354.027
L218.911 -360.952
L217.236 -362.316
L209.872 -364.422
L207.881 -360.952
L209.872 -357.457
L215.191 -353.553
L212.876 -346.155
L217.236 -341.508
L224.587 -338.757
L224.599 -338.739
L225.992 -331.358
L231.963 -325.262
L233.299 -323.96
L239.326 -317.554
L240.211 -316.562
L246.69 -311.108
L248.716 -309.163
L249.199 -301.765
L254.053 -294.79
L261.417 -297.599
L264.526 -294.366
L268.781 -290.525
L272.314 -286.968
L272.906 -279.57
L276.144 -276.305
L283.508 -273.478
L284.45 -272.171
L290.871 -267.474
L293.301 -264.773
L298.235 -258.648
L299.12 -257.375
L305.598 -250.543
L306.168 -249.976
L312.008 -242.578
L312.962 -241.373
L320.325 -236.141
L321.393 -235.18
L327.689 -229.393
L329.245 -227.781
L335.053 -220.988
L335.876 -220.383
L342.416 -215.39
L346.965 -212.985
L349.78 -210.655
L357.143 -207.273
L359.968 -205.586
L364.507 -202.607" id="C2_1_7941dc3191"/>
    </defs>
    <g clip-path="url(#p6a79b58fda)">
     <use style="fill:#0000ff;" x="0.0" xlink:href="#C2_0_ac372b5eef" y="432.0"/>
    </g>
    <g clip-path="url(#p6a79b58fda)">
     <use style="fill:#0000ff;" x="0.0" xlink:href="#C2_1_7941dc3191" y="432.0"/>
    </g>
   </g>
   <g id="line2d_1">
    <path clip-path="url(#p6a79b58fda)" d="
M110.378 200.519" style="fill:none;stroke:#fa8072;stroke-linecap:square;"/>
    <defs>
     <path d="
M-7.5 0
L7.5 0
M0 7.5
L0 -7.5" id="m415119b0dc" style="stroke:#fa8072;stroke-width:3;"/>
    </defs>
    <g clip-path="url(#p6a79b58fda)">
     <use style="fill:#fa8072;stroke:#fa8072;stroke-width:3;" x="110.378403486" xlink:href="#m415119b0dc" y="200.5194375"/>
    </g>
   </g>
   <g id="matplotlib.axis_1">
    <g id="xtick_1">
     <g id="line2d_2">
      <path clip-path="url(#p6a79b58fda)" d="
M55.2375 381.779
L55.2375 19.26" style="fill:none;stroke:#000000;stroke-dasharray:1.000000,3.000000;stroke-dashoffset:0.0;stroke-width:0.5;"/>
     </g>
     <g id="line2d_3">
      <defs>
       <path d="
M0 0
L0 -4" id="m93b0483c22" style="stroke:#000000;stroke-width:0.5;"/>
      </defs>
      <g>
       <use style="stroke:#000000;stroke-width:0.5;" x="55.2375" xlink:href="#m93b0483c22" y="381.778875"/>
      </g>
     </g>
     <g id="line2d_4">
      <defs>
       <path d="
M0 0
L0 4" id="m741efc42ff" style="stroke:#000000;stroke-width:0.5;"/>
      </defs>
      <g>
       <use style="stroke:#000000;stroke-width:0.5;" x="55.2375" xlink:href="#m741efc42ff" y="19.26"/>
      </g>
     </g>
     <g id="text_1">
      <!-- −6 -->
      <defs>
       <path d="
M33.0156 40.375
Q26.375 40.375 22.4844 35.8281
Q18.6094 31.2969 18.6094 23.3906
Q18.6094 15.5312 22.4844 10.9531
Q26.375 6.39062 33.0156 6.39062
Q39.6562 6.39062 43.5312 10.9531
Q47.4062 15.5312 47.4062 23.3906
Q47.4062 31.2969 43.5312 35.8281
Q39.6562 40.375 33.0156 40.375
M52.5938 71.2969
L52.5938 62.3125
Q48.875 64.0625 45.0938 64.9844
Q41.3125 65.9219 37.5938 65.9219
Q27.8281 65.9219 22.6719 59.3281
Q17.5312 52.7344 16.7969 39.4062
Q19.6719 43.6562 24.0156 45.9219
Q28.375 48.1875 33.5938 48.1875
Q44.5781 48.1875 50.9531 41.5156
Q57.3281 34.8594 57.3281 23.3906
Q57.3281 12.1562 50.6875 5.35938
Q44.0469 -1.42188 33.0156 -1.42188
Q20.3594 -1.42188 13.6719 8.26562
Q6.98438 17.9688 6.98438 36.375
Q6.98438 53.6562 15.1875 63.9375
Q23.3906 74.2188 37.2031 74.2188
Q40.9219 74.2188 44.7031 73.4844
Q48.4844 72.75 52.5938 71.2969" id="DejaVuSans-36"/>
       <path d="
M10.5938 35.5
L73.1875 35.5
L73.1875 27.2031
L10.5938 27.2031
z
" id="DejaVuSans-2212"/>
      </defs>
      <g transform="translate(47.405625 394.897)scale(0.12 -0.12)">
       <use xlink:href="#DejaVuSans-2212"/>
       <use x="83.7890625" xlink:href="#DejaVuSans-36"/>
      </g>
     </g>
    </g>
    <g id="xtick_2">
     <g id="line2d_5">
      <path clip-path="url(#p6a79b58fda)" d="
M115.373 381.779
L115.373 19.26" style="fill:none;stroke:#000000;stroke-dasharray:1.000000,3.000000;stroke-dashoffset:0.0;stroke-width:0.5;"/>
     </g>
     <g id="line2d_6">
      <g>
       <use style="stroke:#000000;stroke-width:0.5;" x="115.373203125" xlink:href="#m93b0483c22" y="381.778875"/>
      </g>
     </g>
     <g id="line2d_7">
      <g>
       <use style="stroke:#000000;stroke-width:0.5;" x="115.373203125" xlink:href="#m741efc42ff" y="19.26"/>
      </g>
     </g>
     <g id="text_2">
      <!-- −4 -->
      <defs>
       <path d="
M37.7969 64.3125
L12.8906 25.3906
L37.7969 25.3906
z

M35.2031 72.9062
L47.6094 72.9062
L47.6094 25.3906
L58.0156 25.3906
L58.0156 17.1875
L47.6094 17.1875
L47.6094 0
L37.7969 0
L37.7969 17.1875
L4.89062 17.1875
L4.89062 26.7031
z
" id="DejaVuSans-34"/>
      </defs>
      <g transform="translate(107.500078125 394.897)scale(0.12 -0.12)">
       <use xlink:href="#DejaVuSans-2212"/>
       <use x="83.7890625" xlink:href="#DejaVuSans-34"/>
      </g>
     </g>
    </g>
    <g id="xtick_3">
     <g id="line2d_8">
      <path clip-path="url(#p6a79b58fda)" d="
M175.509 381.779
L175.509 19.26" style="fill:none;stroke:#000000;stroke-dasharray:1.000000,3.000000;stroke-dashoffset:0.0;stroke-width:0.5;"/>
     </g>
     <g id="line2d_9">
      <g>
       <use style="stroke:#000000;stroke-width:0.5;" x="175.50890625" xlink:href="#m93b0483c22" y="381.778875"/>
      </g>
     </g>
     <g id="line2d_10">
      <g>
       <use style="stroke:#000000;stroke-width:0.5;" x="175.50890625" xlink:href="#m741efc42ff" y="19.26"/>
      </g>
     </g>
     <g id="text_3">
      <!-- −2 -->
      <defs>
       <path d="
M19.1875 8.29688
L53.6094 8.29688
L53.6094 0
L7.32812 0
L7.32812 8.29688
Q12.9375 14.1094 22.625 23.8906
Q32.3281 33.6875 34.8125 36.5312
Q39.5469 41.8438 41.4219 45.5312
Q43.3125 49.2188 43.3125 52.7812
Q43.3125 58.5938 39.2344 62.25
Q35.1562 65.9219 28.6094 65.9219
Q23.9688 65.9219 18.8125 64.3125
Q13.6719 62.7031 7.8125 59.4219
L7.8125 69.3906
Q13.7656 71.7812 18.9375 73
Q24.125 74.2188 28.4219 74.2188
Q39.75 74.2188 46.4844 68.5469
Q53.2188 62.8906 53.2188 53.4219
Q53.2188 48.9219 51.5312 44.8906
Q49.8594 40.875 45.4062 35.4062
Q44.1875 33.9844 37.6406 27.2188
Q31.1094 20.4531 19.1875 8.29688" id="DejaVuSans-32"/>
      </defs>
      <g transform="translate(167.90015625 394.897)scale(0.12 -0.12)">
       <use xlink:href="#DejaVuSans-2212"/>
       <use x="83.7890625" xlink:href="#DejaVuSans-32"/>
      </g>
     </g>
    </g>
    <g id="xtick_4">
     <g id="line2d_11">
      <path clip-path="url(#p6a79b58fda)" d="
M235.645 381.779
L235.645 19.26" style="fill:none;stroke:#000000;stroke-dasharray:1.000000,3.000000;stroke-dashoffset:0.0;stroke-width:0.5;"/>
     </g>
     <g id="line2d_12">
      <g>
       <use style="stroke:#000000;stroke-width:0.5;" x="235.644609375" xlink:href="#m93b0483c22" y="381.778875"/>
      </g>
     </g>
     <g id="line2d_13">
      <g>
       <use style="stroke:#000000;stroke-width:0.5;" x="235.644609375" xlink:href="#m741efc42ff" y="19.26"/>
      </g>
     </g>
     <g id="text_4">
      <!-- 0 -->
      <defs>
       <path d="
M31.7812 66.4062
Q24.1719 66.4062 20.3281 58.9062
Q16.5 51.4219 16.5 36.375
Q16.5 21.3906 20.3281 13.8906
Q24.1719 6.39062 31.7812 6.39062
Q39.4531 6.39062 43.2812 13.8906
Q47.125 21.3906 47.125 36.375
Q47.125 51.4219 43.2812 58.9062
Q39.4531 66.4062 31.7812 66.4062
M31.7812 74.2188
Q44.0469 74.2188 50.5156 64.5156
Q56.9844 54.8281 56.9844 36.375
Q56.9844 17.9688 50.5156 8.26562
Q44.0469 -1.42188 31.7812 -1.42188
Q19.5312 -1.42188 13.0625 8.26562
Q6.59375 17.9688 6.59375 36.375
Q6.59375 54.8281 13.0625 64.5156
Q19.5312 74.2188 31.7812 74.2188" id="DejaVuSans-30"/>
      </defs>
      <g transform="translate(232.621171875 394.897)scale(0.12 -0.12)">
       <use xlink:href="#DejaVuSans-30"/>
      </g>
     </g>
    </g>
    <g id="xtick_5">
     <g id="line2d_14">
      <path clip-path="url(#p6a79b58fda)" d="
M295.78 381.779
L295.78 19.26" style="fill:none;stroke:#000000;stroke-dasharray:1.000000,3.000000;stroke-dashoffset:0.0;stroke-width:0.5;"/>
     </g>
     <g id="line2d_15">
      <g>
       <use style="stroke:#000000;stroke-width:0.5;" x="295.7803125" xlink:href="#m93b0483c22" y="381.778875"/>
      </g>
     </g>
     <g id="line2d_16">
      <g>
       <use style="stroke:#000000;stroke-width:0.5;" x="295.7803125" xlink:href="#m741efc42ff" y="19.26"/>
      </g>
     </g>
     <g id="text_5">
      <!-- 2 -->
      <g transform="translate(293.0034375 394.897)scale(0.12 -0.12)">
       <use xlink:href="#DejaVuSans-32"/>
      </g>
     </g>
    </g>
    <g id="xtick_6">
     <g id="line2d_17">
      <path clip-path="url(#p6a79b58fda)" d="
M355.916 381.779
L355.916 19.26" style="fill:none;stroke:#000000;stroke-dasharray:1.000000,3.000000;stroke-dashoffset:0.0;stroke-width:0.5;"/>
     </g>
     <g id="line2d_18">
      <g>
       <use style="stroke:#000000;stroke-width:0.5;" x="355.916015625" xlink:href="#m93b0483c22" y="381.778875"/>
      </g>
     </g>
     <g id="line2d_19">
      <g>
       <use style="stroke:#000000;stroke-width:0.5;" x="355.916015625" xlink:href="#m741efc42ff" y="19.26"/>
      </g>
     </g>
     <g id="text_6">
      <!-- 4 -->
      <g transform="translate(352.728515625 394.897)scale(0.12 -0.12)">
       <use xlink:href="#DejaVuSans-34"/>
      </g>
     </g>
    </g>
    <g id="xtick_7">
     <g id="line2d_20">
      <path clip-path="url(#p6a79b58fda)" d="
M416.052 381.779
L416.052 19.26" style="fill:none;stroke:#000000;stroke-dasharray:1.000000,3.000000;stroke-dashoffset:0.0;stroke-width:0.5;"/>
     </g>
     <g id="line2d_21">
      <g>
       <use style="stroke:#000000;stroke-width:0.5;" x="416.05171875" xlink:href="#m93b0483c22" y="381.778875"/>
      </g>
     </g>
     <g id="line2d_22">
      <g>
       <use style="stroke:#000000;stroke-width:0.5;" x="416.05171875" xlink:href="#m741efc42ff" y="19.26"/>
      </g>
     </g>
     <g id="text_7">
      <!-- 6 -->
      <g transform="translate(413.03109375 394.897)scale(0.12 -0.12)">
       <use xlink:href="#DejaVuSans-36"/>
      </g>
     </g>
    </g>
    <g id="xtick_8">
     <g id="line2d_23">
      <defs>
       <path d="
M0 0
L0 -2" id="m177f7580d0" style="stroke:#000000;stroke-width:0.5;"/>
      </defs>
      <g>
       <use style="stroke:#000000;stroke-width:0.5;" x="70.2714257813" xlink:href="#m177f7580d0" y="381.778875"/>
      </g>
     </g>
     <g id="line2d_24">
      <defs>
       <path d="
M0 0
L0 2" id="m5284c7e2a0" style="stroke:#000000;stroke-width:0.5;"/>
      </defs>
      <g>
       <use style="stroke:#000000;stroke-width:0.5;" x="70.2714257813" xlink:href="#m5284c7e2a0" y="19.26"/>
      </g>
     </g>
    </g>
    <g id="xtick_9">
     <g id="line2d_25">
      <g>
       <use style="stroke:#000000;stroke-width:0.5;" x="85.3053515625" xlink:href="#m177f7580d0" y="381.778875"/>
      </g>
     </g>
     <g id="line2d_26">
      <g>
       <use style="stroke:#000000;stroke-width:0.5;" x="85.3053515625" xlink:href="#m5284c7e2a0" y="19.26"/>
      </g>
     </g>
    </g>
    <g id="xtick_10">
     <g id="line2d_27">
      <g>
       <use style="stroke:#000000;stroke-width:0.5;" x="100.339277344" xlink:href="#m177f7580d0" y="381.778875"/>
      </g>
     </g>
     <g id="line2d_28">
      <g>
       <use style="stroke:#000000;stroke-width:0.5;" x="100.339277344" xlink:href="#m5284c7e2a0" y="19.26"/>
      </g>
     </g>
    </g>
    <g id="xtick_11">
     <g id="line2d_29">
      <g>
       <use style="stroke:#000000;stroke-width:0.5;" x="130.407128906" xlink:href="#m177f7580d0" y="381.778875"/>
      </g>
     </g>
     <g id="line2d_30">
      <g>
       <use style="stroke:#000000;stroke-width:0.5;" x="130.407128906" xlink:href="#m5284c7e2a0" y="19.26"/>
      </g>
     </g>
    </g>
    <g id="xtick_12">
     <g id="line2d_31">
      <g>
       <use style="stroke:#000000;stroke-width:0.5;" x="145.441054688" xlink:href="#m177f7580d0" y="381.778875"/>
      </g>
     </g>
     <g id="line2d_32">
      <g>
       <use style="stroke:#000000;stroke-width:0.5;" x="145.441054688" xlink:href="#m5284c7e2a0" y="19.26"/>
      </g>
     </g>
    </g>
    <g id="xtick_13">
     <g id="line2d_33">
      <g>
       <use style="stroke:#000000;stroke-width:0.5;" x="160.474980469" xlink:href="#m177f7580d0" y="381.778875"/>
      </g>
     </g>
     <g id="line2d_34">
      <g>
       <use style="stroke:#000000;stroke-width:0.5;" x="160.474980469" xlink:href="#m5284c7e2a0" y="19.26"/>
      </g>
     </g>
    </g>
    <g id="xtick_14">
     <g id="line2d_35">
      <g>
       <use style="stroke:#000000;stroke-width:0.5;" x="190.542832031" xlink:href="#m177f7580d0" y="381.778875"/>
      </g>
     </g>
     <g id="line2d_36">
      <g>
       <use style="stroke:#000000;stroke-width:0.5;" x="190.542832031" xlink:href="#m5284c7e2a0" y="19.26"/>
      </g>
     </g>
    </g>
    <g id="xtick_15">
     <g id="line2d_37">
      <g>
       <use style="stroke:#000000;stroke-width:0.5;" x="205.576757813" xlink:href="#m177f7580d0" y="381.778875"/>
      </g>
     </g>
     <g id="line2d_38">
      <g>
       <use style="stroke:#000000;stroke-width:0.5;" x="205.576757813" xlink:href="#m5284c7e2a0" y="19.26"/>
      </g>
     </g>
    </g>
    <g id="xtick_16">
     <g id="line2d_39">
      <g>
       <use style="stroke:#000000;stroke-width:0.5;" x="220.610683594" xlink:href="#m177f7580d0" y="381.778875"/>
      </g>
     </g>
     <g id="line2d_40">
      <g>
       <use style="stroke:#000000;stroke-width:0.5;" x="220.610683594" xlink:href="#m5284c7e2a0" y="19.26"/>
      </g>
     </g>
    </g>
    <g id="xtick_17">
     <g id="line2d_41">
      <g>
       <use style="stroke:#000000;stroke-width:0.5;" x="250.678535156" xlink:href="#m177f7580d0" y="381.778875"/>
      </g>
     </g>
     <g id="line2d_42">
      <g>
       <use style="stroke:#000000;stroke-width:0.5;" x="250.678535156" xlink:href="#m5284c7e2a0" y="19.26"/>
      </g>
     </g>
    </g>
    <g id="xtick_18">
     <g id="line2d_43">
      <g>
       <use style="stroke:#000000;stroke-width:0.5;" x="265.712460937" xlink:href="#m177f7580d0" y="381.778875"/>
      </g>
     </g>
     <g id="line2d_44">
      <g>
       <use style="stroke:#000000;stroke-width:0.5;" x="265.712460937" xlink:href="#m5284c7e2a0" y="19.26"/>
      </g>
     </g>
    </g>
    <g id="xtick_19">
     <g id="line2d_45">
      <g>
       <use style="stroke:#000000;stroke-width:0.5;" x="280.746386719" xlink:href="#m177f7580d0" y="381.778875"/>
      </g>
     </g>
     <g id="line2d_46">
      <g>
       <use style="stroke:#000000;stroke-width:0.5;" x="280.746386719" xlink:href="#m5284c7e2a0" y="19.26"/>
      </g>
     </g>
    </g>
    <g id="xtick_20">
     <g id="line2d_47">
      <g>
       <use style="stroke:#000000;stroke-width:0.5;" x="310.814238281" xlink:href="#m177f7580d0" y="381.778875"/>
      </g>
     </g>
     <g id="line2d_48">
      <g>
       <use style="stroke:#000000;stroke-width:0.5;" x="310.814238281" xlink:href="#m5284c7e2a0" y="19.26"/>
      </g>
     </g>
    </g>
    <g id="xtick_21">
     <g id="line2d_49">
      <g>
       <use style="stroke:#000000;stroke-width:0.5;" x="325.848164063" xlink:href="#m177f7580d0" y="381.778875"/>
      </g>
     </g>
     <g id="line2d_50">
      <g>
       <use style="stroke:#000000;stroke-width:0.5;" x="325.848164063" xlink:href="#m5284c7e2a0" y="19.26"/>
      </g>
     </g>
    </g>
    <g id="xtick_22">
     <g id="line2d_51">
      <g>
       <use style="stroke:#000000;stroke-width:0.5;" x="340.882089844" xlink:href="#m177f7580d0" y="381.778875"/>
      </g>
     </g>
     <g id="line2d_52">
      <g>
       <use style="stroke:#000000;stroke-width:0.5;" x="340.882089844" xlink:href="#m5284c7e2a0" y="19.26"/>
      </g>
     </g>
    </g>
    <g id="xtick_23">
     <g id="line2d_53">
      <g>
       <use style="stroke:#000000;stroke-width:0.5;" x="370.949941406" xlink:href="#m177f7580d0" y="381.778875"/>
      </g>
     </g>
     <g id="line2d_54">
      <g>
       <use style="stroke:#000000;stroke-width:0.5;" x="370.949941406" xlink:href="#m5284c7e2a0" y="19.26"/>
      </g>
     </g>
    </g>
    <g id="xtick_24">
     <g id="line2d_55">
      <g>
       <use style="stroke:#000000;stroke-width:0.5;" x="385.983867187" xlink:href="#m177f7580d0" y="381.778875"/>
      </g>
     </g>
     <g id="line2d_56">
      <g>
       <use style="stroke:#000000;stroke-width:0.5;" x="385.983867187" xlink:href="#m5284c7e2a0" y="19.26"/>
      </g>
     </g>
    </g>
    <g id="xtick_25">
     <g id="line2d_57">
      <g>
       <use style="stroke:#000000;stroke-width:0.5;" x="401.017792969" xlink:href="#m177f7580d0" y="381.778875"/>
      </g>
     </g>
     <g id="line2d_58">
      <g>
       <use style="stroke:#000000;stroke-width:0.5;" x="401.017792969" xlink:href="#m5284c7e2a0" y="19.26"/>
      </g>
     </g>
    </g>
    <g id="text_8">
     <!-- $\mathcal{C}_{10}$ -->
     <defs>
      <path d="
M9.28125 0
L9.28125 3.51562
Q21.7812 3.51562 21.7812 6.6875
L21.7812 59.1875
Q16.6094 56.6875 8.6875 56.6875
L8.6875 60.2031
Q20.9531 60.2031 27.2031 66.6094
L28.6094 66.6094
Q28.9531 66.6094 29.2656 66.3281
Q29.5938 66.0625 29.5938 65.7188
L29.5938 6.6875
Q29.5938 3.51562 42.0938 3.51562
L42.0938 0
z
" id="Cmr10-31"/>
      <path d="
M25 -2.20312
Q12.75 -2.20312 8.32812 7.875
Q3.90625 17.9688 3.90625 31.8906
Q3.90625 40.5781 5.48438 48.2344
Q7.07812 55.9062 11.7812 61.25
Q16.5 66.6094 25 66.6094
Q31.5938 66.6094 35.7812 63.375
Q39.9844 60.1562 42.1875 55.0469
Q44.3906 49.9531 45.1875 44.1094
Q46 38.2812 46 31.8906
Q46 23.2969 44.4062 15.7969
Q42.8281 8.29688 38.1875 3.04688
Q33.5469 -2.20312 25 -2.20312
M25 0.390625
Q30.5625 0.390625 33.2969 6.09375
Q36.0312 11.8125 36.6719 18.75
Q37.3125 25.6875 37.3125 33.5
Q37.3125 41.0156 36.6719 47.3594
Q36.0312 53.7188 33.3125 58.8594
Q30.6094 64.0156 25 64.0156
Q19.3438 64.0156 16.6094 58.8281
Q13.875 53.6562 13.2344 47.3281
Q12.5938 41.0156 12.5938 33.5
Q12.5938 27.9375 12.8594 23
Q13.1406 18.0625 14.3125 12.8125
Q15.4844 7.5625 18.0938 3.96875
Q20.7031 0.390625 25 0.390625" id="Cmr10-30"/>
      <path d="
M19.6719 -2.39062
Q14.9375 -2.39062 11.4375 -0.5625
Q7.95312 1.26562 5.64062 4.5625
Q3.32812 7.85938 2.26562 11.8125
Q1.21875 15.7656 1.21875 20.3125
Q1.21875 29.25 4.51562 38.3594
Q7.8125 47.4688 13.7656 54.7188
Q19.7344 61.9688 27.9062 66.2344
Q36.0781 70.5156 45.5156 70.5156
L46.0938 70.5156
Q49.3594 70.5156 51.3906 68.8438
Q53.4219 67.1875 53.4219 64.0156
Q53.4219 61.2344 51.8125 57.4688
Q50.2031 53.7188 47.9062 49.6094
Q46.8281 47.7969 44.6562 46.4844
Q42.4844 45.1719 40.1875 44.9219
L39.7031 44.9219
Q39.0156 45.2656 39.0156 45.6094
Q39.0156 46.0469 40.5938 49.1719
Q42.1875 52.2969 43.3281 55.0469
Q44.4844 57.8125 44.4844 59.8125
Q44.4844 62.25 42.9375 63.4219
Q41.4062 64.5938 38.8125 64.5938
Q31.4531 64.5938 26.4375 61.0781
Q21.4375 57.5625 17.3906 50.6875
Q14.0156 44.875 12.0625 38.1094
Q10.1094 31.3438 10.1094 24.6094
Q10.1094 19.0938 11.8594 14.2344
Q13.625 9.375 17.4219 6.4375
Q21.2344 3.51562 27 3.51562
Q33.0625 3.51562 37.7969 8.01562
Q38.4219 8.6875 40.4062 11.2969
Q42.3906 13.9219 44.0938 15.1406
Q45.7969 16.3594 48.4844 16.6094
L49.0312 16.6094
Q49.7031 16.2656 49.7031 15.8281
Q49.7031 15.4375 49.4219 14.9844
Q46.5781 10.2969 41.7969 6.29688
Q37.0156 2.29688 31.2969 -0.046875
Q25.5938 -2.39062 20.3125 -2.39062
z
" id="Cmsy10-43"/>
     </defs>
     <g transform="translate(228.264609375 410.912625)scale(0.12 -0.12)">
      <use transform="translate(0.0 0.484375)" xlink:href="#Cmsy10-43"/>
      <use transform="translate(52.587890625 -25.025)scale(0.7)" xlink:href="#Cmr10-31"/>
      <use transform="translate(87.587890625 -25.025)scale(0.7)" xlink:href="#Cmr10-30"/>
     </g>
    </g>
   </g>
   <g id="matplotlib.axis_2">
    <g id="ytick_1">
     <g id="line2d_59">
      <path clip-path="url(#p6a79b58fda)" d="
M55.2375 381.779
L416.052 381.779" style="fill:none;stroke:#000000;stroke-dasharray:1.000000,3.000000;stroke-dashoffset:0.0;stroke-width:0.5;"/>
     </g>
     <g id="line2d_60">
      <defs>
       <path d="
M0 0
L4 0" id="m728421d6d4" style="stroke:#000000;stroke-width:0.5;"/>
      </defs>
      <g>
       <use style="stroke:#000000;stroke-width:0.5;" x="55.2375" xlink:href="#m728421d6d4" y="381.778875"/>
      </g>
     </g>
     <g id="line2d_61">
      <defs>
       <path d="
M0 0
L-4 0" id="mcb0005524f" style="stroke:#000000;stroke-width:0.5;"/>
      </defs>
      <g>
       <use style="stroke:#000000;stroke-width:0.5;" x="416.05171875" xlink:href="#mcb0005524f" y="381.778875"/>
      </g>
     </g>
     <g id="text_9">
      <!-- −6 -->
      <g transform="translate(35.57375 385.090125)scale(0.12 -0.12)">
       <use xlink:href="#DejaVuSans-2212"/>
       <use x="83.7890625" xlink:href="#DejaVuSans-36"/>
      </g>
     </g>
    </g>
    <g id="ytick_2">
     <g id="line2d_62">
      <path clip-path="url(#p6a79b58fda)" d="
M55.2375 321.359
L416.052 321.359" style="fill:none;stroke:#000000;stroke-dasharray:1.000000,3.000000;stroke-dashoffset:0.0;stroke-width:0.5;"/>
     </g>
     <g id="line2d_63">
      <g>
       <use style="stroke:#000000;stroke-width:0.5;" x="55.2375" xlink:href="#m728421d6d4" y="321.3590625"/>
      </g>
     </g>
     <g id="line2d_64">
      <g>
       <use style="stroke:#000000;stroke-width:0.5;" x="416.05171875" xlink:href="#mcb0005524f" y="321.3590625"/>
      </g>
     </g>
     <g id="text_10">
      <!-- −4 -->
      <g transform="translate(35.49125 324.6703125)scale(0.12 -0.12)">
       <use xlink:href="#DejaVuSans-2212"/>
       <use x="83.7890625" xlink:href="#DejaVuSans-34"/>
      </g>
     </g>
    </g>
    <g id="ytick_3">
     <g id="line2d_65">
      <path clip-path="url(#p6a79b58fda)" d="
M55.2375 260.939
L416.052 260.939" style="fill:none;stroke:#000000;stroke-dasharray:1.000000,3.000000;stroke-dashoffset:0.0;stroke-width:0.5;"/>
     </g>
     <g id="line2d_66">
      <g>
       <use style="stroke:#000000;stroke-width:0.5;" x="55.2375" xlink:href="#m728421d6d4" y="260.93925"/>
      </g>
     </g>
     <g id="line2d_67">
      <g>
       <use style="stroke:#000000;stroke-width:0.5;" x="416.05171875" xlink:href="#mcb0005524f" y="260.93925"/>
      </g>
     </g>
     <g id="text_11">
      <!-- −2 -->
      <g transform="translate(36.02 264.2505)scale(0.12 -0.12)">
       <use xlink:href="#DejaVuSans-2212"/>
       <use x="83.7890625" xlink:href="#DejaVuSans-32"/>
      </g>
     </g>
    </g>
    <g id="ytick_4">
     <g id="line2d_68">
      <path clip-path="url(#p6a79b58fda)" d="
M55.2375 200.519
L416.052 200.519" style="fill:none;stroke:#000000;stroke-dasharray:1.000000,3.000000;stroke-dashoffset:0.0;stroke-width:0.5;"/>
     </g>
     <g id="line2d_69">
      <g>
       <use style="stroke:#000000;stroke-width:0.5;" x="55.2375" xlink:href="#m728421d6d4" y="200.5194375"/>
      </g>
     </g>
     <g id="line2d_70">
      <g>
       <use style="stroke:#000000;stroke-width:0.5;" x="416.05171875" xlink:href="#mcb0005524f" y="200.5194375"/>
      </g>
     </g>
     <g id="text_12">
      <!-- 0 -->
      <g transform="translate(45.190625 203.8306875)scale(0.12 -0.12)">
       <use xlink:href="#DejaVuSans-30"/>
      </g>
     </g>
    </g>
    <g id="ytick_5">
     <g id="line2d_71">
      <path clip-path="url(#p6a79b58fda)" d="
M55.2375 140.1
L416.052 140.1" style="fill:none;stroke:#000000;stroke-dasharray:1.000000,3.000000;stroke-dashoffset:0.0;stroke-width:0.5;"/>
     </g>
     <g id="line2d_72">
      <g>
       <use style="stroke:#000000;stroke-width:0.5;" x="55.2375" xlink:href="#m728421d6d4" y="140.099625"/>
      </g>
     </g>
     <g id="line2d_73">
      <g>
       <use style="stroke:#000000;stroke-width:0.5;" x="416.05171875" xlink:href="#mcb0005524f" y="140.099625"/>
      </g>
     </g>
     <g id="text_13">
      <!-- 2 -->
      <g transform="translate(45.68375 143.410875)scale(0.12 -0.12)">
       <use xlink:href="#DejaVuSans-32"/>
      </g>
     </g>
    </g>
    <g id="ytick_6">
     <g id="line2d_74">
      <path clip-path="url(#p6a79b58fda)" d="
M55.2375 79.6798
L416.052 79.6798" style="fill:none;stroke:#000000;stroke-dasharray:1.000000,3.000000;stroke-dashoffset:0.0;stroke-width:0.5;"/>
     </g>
     <g id="line2d_75">
      <g>
       <use style="stroke:#000000;stroke-width:0.5;" x="55.2375" xlink:href="#m728421d6d4" y="79.6798125"/>
      </g>
     </g>
     <g id="line2d_76">
      <g>
       <use style="stroke:#000000;stroke-width:0.5;" x="416.05171875" xlink:href="#mcb0005524f" y="79.6798125"/>
      </g>
     </g>
     <g id="text_14">
      <!-- 4 -->
      <g transform="translate(44.8625 82.9910625)scale(0.12 -0.12)">
       <use xlink:href="#DejaVuSans-34"/>
      </g>
     </g>
    </g>
    <g id="ytick_7">
     <g id="line2d_77">
      <path clip-path="url(#p6a79b58fda)" d="
M55.2375 19.26
L416.052 19.26" style="fill:none;stroke:#000000;stroke-dasharray:1.000000,3.000000;stroke-dashoffset:0.0;stroke-width:0.5;"/>
     </g>
     <g id="line2d_78">
      <g>
       <use style="stroke:#000000;stroke-width:0.5;" x="55.2375" xlink:href="#m728421d6d4" y="19.26"/>
      </g>
     </g>
     <g id="line2d_79">
      <g>
       <use style="stroke:#000000;stroke-width:0.5;" x="416.05171875" xlink:href="#mcb0005524f" y="19.26"/>
      </g>
     </g>
     <g id="text_15">
      <!-- 6 -->
      <g transform="translate(45.19625 22.57125)scale(0.12 -0.12)">
       <use xlink:href="#DejaVuSans-36"/>
      </g>
     </g>
    </g>
    <g id="ytick_8">
     <g id="line2d_80">
      <defs>
       <path d="
M0 0
L2 0" id="mf0c55a9a47" style="stroke:#000000;stroke-width:0.5;"/>
      </defs>
      <g>
       <use style="stroke:#000000;stroke-width:0.5;" x="55.2375" xlink:href="#mf0c55a9a47" y="366.673921875"/>
      </g>
     </g>
     <g id="line2d_81">
      <defs>
       <path d="
M0 0
L-2 0" id="ma4f294b3af" style="stroke:#000000;stroke-width:0.5;"/>
      </defs>
      <g>
       <use style="stroke:#000000;stroke-width:0.5;" x="416.05171875" xlink:href="#ma4f294b3af" y="366.673921875"/>
      </g>
     </g>
    </g>
    <g id="ytick_9">
     <g id="line2d_82">
      <g>
       <use style="stroke:#000000;stroke-width:0.5;" x="55.2375" xlink:href="#mf0c55a9a47" y="351.56896875"/>
      </g>
     </g>
     <g id="line2d_83">
      <g>
       <use style="stroke:#000000;stroke-width:0.5;" x="416.05171875" xlink:href="#ma4f294b3af" y="351.56896875"/>
      </g>
     </g>
    </g>
    <g id="ytick_10">
     <g id="line2d_84">
      <g>
       <use style="stroke:#000000;stroke-width:0.5;" x="55.2375" xlink:href="#mf0c55a9a47" y="336.464015625"/>
      </g>
     </g>
     <g id="line2d_85">
      <g>
       <use style="stroke:#000000;stroke-width:0.5;" x="416.05171875" xlink:href="#ma4f294b3af" y="336.464015625"/>
      </g>
     </g>
    </g>
    <g id="ytick_11">
     <g id="line2d_86">
      <g>
       <use style="stroke:#000000;stroke-width:0.5;" x="55.2375" xlink:href="#mf0c55a9a47" y="306.254109375"/>
      </g>
     </g>
     <g id="line2d_87">
      <g>
       <use style="stroke:#000000;stroke-width:0.5;" x="416.05171875" xlink:href="#ma4f294b3af" y="306.254109375"/>
      </g>
     </g>
    </g>
    <g id="ytick_12">
     <g id="line2d_88">
      <g>
       <use style="stroke:#000000;stroke-width:0.5;" x="55.2375" xlink:href="#mf0c55a9a47" y="291.14915625"/>
      </g>
     </g>
     <g id="line2d_89">
      <g>
       <use style="stroke:#000000;stroke-width:0.5;" x="416.05171875" xlink:href="#ma4f294b3af" y="291.14915625"/>
      </g>
     </g>
    </g>
    <g id="ytick_13">
     <g id="line2d_90">
      <g>
       <use style="stroke:#000000;stroke-width:0.5;" x="55.2375" xlink:href="#mf0c55a9a47" y="276.044203125"/>
      </g>
     </g>
     <g id="line2d_91">
      <g>
       <use style="stroke:#000000;stroke-width:0.5;" x="416.05171875" xlink:href="#ma4f294b3af" y="276.044203125"/>
      </g>
     </g>
    </g>
    <g id="ytick_14">
     <g id="line2d_92">
      <g>
       <use style="stroke:#000000;stroke-width:0.5;" x="55.2375" xlink:href="#mf0c55a9a47" y="245.834296875"/>
      </g>
     </g>
     <g id="line2d_93">
      <g>
       <use style="stroke:#000000;stroke-width:0.5;" x="416.05171875" xlink:href="#ma4f294b3af" y="245.834296875"/>
      </g>
     </g>
    </g>
    <g id="ytick_15">
     <g id="line2d_94">
      <g>
       <use style="stroke:#000000;stroke-width:0.5;" x="55.2375" xlink:href="#mf0c55a9a47" y="230.72934375"/>
      </g>
     </g>
     <g id="line2d_95">
      <g>
       <use style="stroke:#000000;stroke-width:0.5;" x="416.05171875" xlink:href="#ma4f294b3af" y="230.72934375"/>
      </g>
     </g>
    </g>
    <g id="ytick_16">
     <g id="line2d_96">
      <g>
       <use style="stroke:#000000;stroke-width:0.5;" x="55.2375" xlink:href="#mf0c55a9a47" y="215.624390625"/>
      </g>
     </g>
     <g id="line2d_97">
      <g>
       <use style="stroke:#000000;stroke-width:0.5;" x="416.05171875" xlink:href="#ma4f294b3af" y="215.624390625"/>
      </g>
     </g>
    </g>
    <g id="ytick_17">
     <g id="line2d_98">
      <g>
       <use style="stroke:#000000;stroke-width:0.5;" x="55.2375" xlink:href="#mf0c55a9a47" y="185.414484375"/>
      </g>
     </g>
     <g id="line2d_99">
      <g>
       <use style="stroke:#000000;stroke-width:0.5;" x="416.05171875" xlink:href="#ma4f294b3af" y="185.414484375"/>
      </g>
     </g>
    </g>
    <g id="ytick_18">
     <g id="line2d_100">
      <g>
       <use style="stroke:#000000;stroke-width:0.5;" x="55.2375" xlink:href="#mf0c55a9a47" y="170.30953125"/>
      </g>
     </g>
     <g id="line2d_101">
      <g>
       <use style="stroke:#000000;stroke-width:0.5;" x="416.05171875" xlink:href="#ma4f294b3af" y="170.30953125"/>
      </g>
     </g>
    </g>
    <g id="ytick_19">
     <g id="line2d_102">
      <g>
       <use style="stroke:#000000;stroke-width:0.5;" x="55.2375" xlink:href="#mf0c55a9a47" y="155.204578125"/>
      </g>
     </g>
     <g id="line2d_103">
      <g>
       <use style="stroke:#000000;stroke-width:0.5;" x="416.05171875" xlink:href="#ma4f294b3af" y="155.204578125"/>
      </g>
     </g>
    </g>
    <g id="ytick_20">
     <g id="line2d_104">
      <g>
       <use style="stroke:#000000;stroke-width:0.5;" x="55.2375" xlink:href="#mf0c55a9a47" y="124.994671875"/>
      </g>
     </g>
     <g id="line2d_105">
      <g>
       <use style="stroke:#000000;stroke-width:0.5;" x="416.05171875" xlink:href="#ma4f294b3af" y="124.994671875"/>
      </g>
     </g>
    </g>
    <g id="ytick_21">
     <g id="line2d_106">
      <g>
       <use style="stroke:#000000;stroke-width:0.5;" x="55.2375" xlink:href="#mf0c55a9a47" y="109.88971875"/>
      </g>
     </g>
     <g id="line2d_107">
      <g>
       <use style="stroke:#000000;stroke-width:0.5;" x="416.05171875" xlink:href="#ma4f294b3af" y="109.88971875"/>
      </g>
     </g>
    </g>
    <g id="ytick_22">
     <g id="line2d_108">
      <g>
       <use style="stroke:#000000;stroke-width:0.5;" x="55.2375" xlink:href="#mf0c55a9a47" y="94.784765625"/>
      </g>
     </g>
     <g id="line2d_109">
      <g>
       <use style="stroke:#000000;stroke-width:0.5;" x="416.05171875" xlink:href="#ma4f294b3af" y="94.784765625"/>
      </g>
     </g>
    </g>
    <g id="ytick_23">
     <g id="line2d_110">
      <g>
       <use style="stroke:#000000;stroke-width:0.5;" x="55.2375" xlink:href="#mf0c55a9a47" y="64.574859375"/>
      </g>
     </g>
     <g id="line2d_111">
      <g>
       <use style="stroke:#000000;stroke-width:0.5;" x="416.05171875" xlink:href="#ma4f294b3af" y="64.574859375"/>
      </g>
     </g>
    </g>
    <g id="ytick_24">
     <g id="line2d_112">
      <g>
       <use style="stroke:#000000;stroke-width:0.5;" x="55.2375" xlink:href="#mf0c55a9a47" y="49.46990625"/>
      </g>
     </g>
     <g id="line2d_113">
      <g>
       <use style="stroke:#000000;stroke-width:0.5;" x="416.05171875" xlink:href="#ma4f294b3af" y="49.46990625"/>
      </g>
     </g>
    </g>
    <g id="ytick_25">
     <g id="line2d_114">
      <g>
       <use style="stroke:#000000;stroke-width:0.5;" x="55.2375" xlink:href="#mf0c55a9a47" y="34.364953125"/>
      </g>
     </g>
     <g id="line2d_115">
      <g>
       <use style="stroke:#000000;stroke-width:0.5;" x="416.05171875" xlink:href="#ma4f294b3af" y="34.364953125"/>
      </g>
     </g>
    </g>
    <g id="text_16">
     <!-- $\mathcal{C}_{10}^{\prime}$ -->
     <defs>
      <path d="
M3.51562 5.42188
Q2.875 5.60938 2.875 6.39062
L15.0938 51.8125
Q15.6719 53.6562 17.0781 54.7812
Q18.5 55.9062 20.3125 55.9062
Q22.6562 55.9062 24.4375 54.3594
Q26.2188 52.8281 26.2188 50.4844
Q26.2188 49.4688 25.6875 48.1875
L7.625 4.98438
Q7.28125 4.29688 6.6875 4.29688
Q6.15625 4.29688 5 4.78125
Q3.85938 5.28125 3.51562 5.42188" id="Cmsy10-30"/>
     </defs>
     <g transform="translate(27.13125 207.8994375)rotate(-90.0)scale(0.12 -0.12)">
      <use transform="translate(0.0 0.859375)" xlink:href="#Cmsy10-43"/>
      <use transform="translate(52.587890625 45.865625)scale(0.7)" xlink:href="#Cmsy10-30"/>
      <use transform="translate(52.587890625 -24.65)scale(0.7)" xlink:href="#Cmr10-31"/>
      <use transform="translate(87.587890625 -24.65)scale(0.7)" xlink:href="#Cmr10-30"/>
     </g>
    </g>
   </g>
   <g id="patch_3">
    <path d="
M55.2375 19.26
L416.052 19.26" style="fill:none;stroke:#000000;"/>
   </g>
   <g id="patch_4">
    <path d="
M416.052 381.779
L416.052 19.26" style="fill:none;stroke:#000000;"/>
   </g>
   <g id="patch_5">
    <path d="
M55.2375 381.779
L416.052 381.779" style="fill:none;stroke:#000000;"/>
   </g>
   <g id="patch_6">
    <path d="
M55.2375 381.779
L55.2375 19.26" style="fill:none;stroke:#000000;"/>
   </g>
  </g>
 </g>
 <defs>
  <clipPath id="p6a79b58fda">
   <rect height="362.518875" width="360.81421875" x="55.2375" y="19.26"/>
  </clipPath>
 </defs>
</svg>
