<?xml version="1.0" encoding="utf-8" standalone="no"?>
<!DOCTYPE svg PUBLIC "-//W3C//DTD SVG 1.1//EN"
  "http://www.w3.org/Graphics/SVG/1.1/DTD/svg11.dtd">
<!-- Created with matplotlib (http://matplotlib.org/) -->
<svg height="432pt" version="1.1" viewBox="0 0 432 432" width="432pt" xmlns="http://www.w3.org/2000/svg" xmlns:xlink="http://www.w3.org/1999/xlink">
 <defs>
  <style type="text/css">
*{stroke-linecap:butt;stroke-linejoin:round;}
  </style>
 </defs>
 <g id="figure_1">
  <g id="patch_1">
   <path d="
M0 432
L432 432
L432 0
L0 0
z
" style="fill:#ffffff;"/>
  </g>
  <g id="axes_1">
   <g id="patch_2">
    <path d="
M86.3213 355.317
L409.365 355.317
L409.365 26.91
L86.3213 26.91
z
" style="fill:#ffffff;"/>
   </g>
   <g id="PathCollection_1">
    <defs>
     <path d="
M265.79 -76.6828
L269.053 -76.6828
L272.316 -76.6828
L275.579 -76.6828
L278.842 -76.6828
L282.105 -76.6828
L285.368 -76.6828
L288.631 -76.6828
L291.895 -76.6828
L295.158 -76.6828
L298.421 -76.6828
L301.684 -76.6828
L304.947 -76.6828
L308.21 -76.6828
L311.473 -76.6828
L314.736 -76.6828
L317.999 -76.6828
L321.262 -76.6828
L324.525 -76.6828
L327.788 -76.6828
L331.051 -76.6828
L334.314 -76.6828
L337.577 -76.6828
L340.841 -76.6828
L344.104 -76.6828
L347.367 -76.6828
L350.63 -76.6828
L350.63 -80.0001
L347.367 -83.3173
L347.367 -83.3173
L347.367 -83.3173
L350.63 -86.6345
L350.63 -89.9518
L350.63 -89.9518
L353.893 -93.269
L353.893 -96.5863
L353.893 -99.9035
L353.893 -103.221
L353.893 -106.538
L350.63 -109.855
L350.63 -109.855
L350.63 -113.172
L350.63 -116.49
L347.367 -119.807
L347.367 -119.807
L344.104 -123.124
L344.104 -123.124
L344.104 -126.441
L340.841 -129.759
L340.841 -129.759
L337.577 -133.076
L337.577 -133.076
L334.314 -136.393
L331.051 -136.393
L331.051 -133.076
L331.051 -133.076
L334.314 -129.759
L331.051 -129.367
L330.216 -129.759
L327.788 -130.411
L324.525 -132.499
L321.262 -133.076
L321.262 -133.076
L321.262 -133.077
L324.525 -136.363
L327.788 -136.393
L324.525 -139.71
L324.525 -139.71
L321.262 -143.028
L321.262 -143.028
L317.999 -146.345
L317.999 -146.345
L314.736 -149.662
L314.736 -149.662
L314.736 -152.979
L311.473 -156.297
L311.473 -156.297
L308.21 -159.614
L308.21 -159.614
L304.947 -162.931
L301.684 -162.931
L301.684 -162.931
L298.421 -166.248
L295.158 -166.248
L295.158 -166.248
L291.895 -169.566
L291.895 -169.566
L288.631 -172.883
L288.631 -172.883
L288.631 -176.2
L288.631 -179.517
L285.368 -182.835
L285.368 -182.835
L285.368 -186.152
L282.105 -189.469
L278.842 -189.469
L278.842 -189.469
L275.579 -192.786
L272.316 -192.786
L269.053 -192.786
L265.79 -192.786
L265.79 -192.786
L262.527 -196.104
L262.527 -196.104
L259.264 -199.421
L259.264 -199.421
L256.001 -202.738
L256.001 -202.738
L252.738 -206.055
L249.475 -206.055
L246.212 -206.055
L246.212 -206.055
L246.212 -209.373
L242.949 -212.69
L242.949 -212.69
L239.685 -216.007
L239.685 -216.007
L236.422 -219.324
L236.422 -219.324
L233.159 -222.642
L229.896 -222.642
L229.896 -219.324
L226.633 -219.324
L226.633 -219.324
L226.426 -222.642
L226.586 -225.959
L226.633 -229.276
L223.37 -232.593
L223.37 -232.593
L220.107 -235.911
L216.844 -235.911
L216.844 -235.911
L213.581 -239.228
L213.581 -239.228
L210.318 -242.545
L210.318 -242.545
L207.055 -245.862
L207.055 -245.862
L203.792 -249.18
L203.792 -249.18
L200.529 -252.497
L197.266 -252.497
L197.266 -252.497
L194.002 -255.814
L194.002 -255.814
L190.739 -259.131
L190.739 -259.131
L187.476 -262.448
L187.476 -262.448
L184.213 -265.766
L180.95 -265.766
L180.95 -265.766
L180.95 -269.083
L180.95 -272.4
L177.687 -275.717
L177.687 -275.717
L174.424 -279.035
L174.424 -279.035
L171.161 -282.352
L167.898 -282.352
L167.898 -282.352
L164.635 -285.669
L164.635 -285.669
L161.372 -288.986
L161.372 -288.986
L158.109 -292.304
L158.109 -292.304
L154.846 -295.621
L151.583 -295.621
L151.583 -295.621
L148.32 -298.938
L148.32 -298.938
L145.056 -302.255
L145.056 -302.255
L145.056 -305.573
L141.793 -308.89
L141.793 -308.89
L138.53 -312.207
L135.267 -312.207
L135.267 -312.207
L132.004 -315.524
L132.004 -315.524
L128.741 -318.842
L128.741 -318.842
L125.478 -322.159
L125.478 -322.159
L122.215 -325.476
L118.952 -325.476
L115.689 -325.476
L112.426 -325.476
L112.426 -325.476
L109.163 -328.793
L109.163 -328.793
L105.9 -332.111
L102.637 -332.111
L99.3735 -332.111
L99.3735 -332.111
L96.1105 -335.428
L92.8474 -335.428
L92.8474 -335.428
L89.5843 -338.745
L89.5843 -338.745
L86.3212 -342.062
L86.3212 -338.745
L86.3212 -335.428
L86.3212 -332.111
L86.3212 -328.793
L86.3212 -325.476
L86.3212 -322.159
L86.3212 -318.842
L86.3212 -315.524
L86.3212 -312.207
L86.3212 -308.89
L86.3212 -305.573
L86.3212 -302.255
L86.3212 -298.938
L86.3212 -295.621
L86.3212 -292.304
L86.3212 -288.986
L86.3212 -285.669
L86.3212 -282.352
L86.3212 -279.035
L86.3212 -275.717
L86.3212 -272.4
L86.3212 -269.083
L86.3212 -265.766
L86.3212 -262.448
L86.3212 -259.131
L86.3212 -255.814
L89.5843 -255.814
L92.8474 -255.814
L92.8474 -255.814
L96.1105 -252.497
L96.1105 -252.497
L99.3735 -249.18
L99.3735 -249.18
L102.637 -245.862
L102.637 -245.862
L105.9 -242.545
L105.9 -242.545
L109.163 -239.228
L109.163 -239.228
L109.163 -235.911
L112.426 -232.593
L112.426 -232.593
L115.689 -229.276
L115.689 -229.276
L118.952 -225.959
L118.952 -225.959
L122.215 -222.642
L122.215 -222.642
L125.478 -219.324
L128.741 -219.324
L128.741 -219.324
L132.004 -216.007
L132.004 -216.007
L135.267 -212.69
L135.267 -212.69
L135.267 -209.373
L135.267 -206.055
L138.53 -202.738
L138.53 -202.738
L141.793 -199.421
L145.056 -199.421
L148.32 -199.421
L148.32 -199.421
L151.583 -196.104
L151.583 -196.104
L151.583 -192.786
L154.846 -189.469
L154.846 -189.469
L158.109 -186.152
L158.109 -186.152
L158.109 -182.835
L158.109 -179.517
L161.372 -176.2
L164.635 -176.2
L164.635 -176.2
L167.898 -172.883
L171.161 -172.883
L171.161 -172.883
L174.424 -169.566
L174.424 -169.566
L177.687 -166.248
L177.687 -166.248
L177.687 -162.931
L180.95 -159.614
L180.95 -159.614
L184.213 -156.297
L184.213 -156.297
L184.213 -152.979
L187.476 -149.662
L187.476 -149.662
L190.739 -146.345
L190.739 -146.345
L194.002 -143.028
L197.266 -143.028
L197.266 -143.028
L200.529 -139.71
L203.792 -139.71
L203.792 -139.71
L207.055 -136.393
L210.318 -136.393
L210.318 -136.393
L210.318 -133.076
L213.581 -129.759
L213.581 -129.759
L213.581 -126.441
L216.844 -123.124
L220.107 -123.124
L223.37 -123.124
L223.37 -123.124
L226.633 -119.807
L226.633 -119.807
L226.633 -116.49
L226.633 -113.172
L229.896 -109.855
L229.896 -109.855
L233.159 -106.538
L233.226 -109.855
L236.422 -109.855
L236.533 -109.855
L236.422 -106.543
L233.159 -106.538
L236.422 -103.221
L236.431 -106.538
L239.685 -106.607
L239.688 -106.538
L239.748 -103.221
L239.685 -99.9035
L242.949 -96.5863
L242.949 -96.5863
L246.212 -93.269
L249.475 -93.269
L249.475 -93.269
L252.738 -89.9518
L256.001 -89.9518
L256.001 -89.9518
L256.001 -86.6345
L259.264 -83.3173
L259.264 -83.3173
L262.527 -80.0001
L262.527 -80.0001
L265.79 -76.6828
L265.79 -76.6828
M288.631 -98.7851
L287.216 -99.9035
L285.368 -100.925
L282.105 -102.97
L281.566 -103.221
L278.842 -103.919
L275.579 -105.391
L274.069 -106.538
L272.316 -107.648
L269.381 -109.855
L269.053 -110.052
L265.79 -111.931
L264.085 -113.172
L262.527 -114.027
L259.777 -116.49
L259.264 -116.954
L256.556 -119.807
L256.001 -120.399
L252.9 -123.124
L252.738 -123.257
L249.475 -125.791
L248.782 -126.441
L246.212 -128.215
L244.369 -129.759
L242.949 -130.914
L240.695 -133.076
L239.685 -134.116
L237.593 -136.393
L236.422 -137.601
L234.398 -139.71
L233.159 -140.868
L230.961 -143.028
L229.896 -143.866
L226.916 -146.345
L226.633 -146.543
L223.468 -149.662
L223.37 -149.791
L220.804 -152.979
L220.107 -153.96
L217.983 -156.297
L216.844 -157.557
L214.677 -159.614
L213.581 -160.546
L211.062 -162.931
L210.318 -163.592
L207.055 -166.248
L207.055 -166.248
L203.992 -169.566
L203.792 -169.915
L201.698 -172.883
L200.529 -174.054
L198.3 -176.2
L197.266 -177.395
L195.459 -179.517
L194.002 -181.272
L192.213 -182.835
L190.739 -183.819
L188.082 -186.152
L187.476 -186.688
L185.014 -189.469
L184.213 -190.554
L182.03 -192.786
L180.95 -193.891
L178.661 -196.104
L177.687 -197.069
L175.408 -199.421
L174.424 -200.409
L172.067 -202.738
L171.161 -203.514
L168.513 -206.055
L167.898 -206.636
L165.354 -209.373
L164.635 -210.13
L162.14 -212.69
L161.372 -213.516
L159.09 -216.007
L158.109 -217.087
L155.658 -219.324
L154.846 -220
L152.164 -222.642
L151.583 -223.278
L149.14 -225.959
L148.32 -226.837
L145.845 -229.276
L145.056 -230.109
L142.462 -232.593
L141.793 -233.304
L139.461 -235.911
L138.53 -237.104
L136.796 -239.228
L135.267 -241.326
L134.176 -242.545
L132.004 -245.364
L131.589 -245.862
L129.225 -249.18
L128.741 -249.93
L126.758 -252.497
L125.478 -254.14
L123.992 -255.814
L122.215 -258.197
L121.392 -259.131
L119.116 -262.448
L118.952 -262.737
L116.789 -265.766
L115.689 -268.522
L115.435 -269.083
L114.289 -272.4
L112.579 -275.717
L112.426 -275.925
L109.264 -279.035
L109.163 -279.283
L108.185 -282.352
L108.934 -285.669
L109.163 -285.992
L112.426 -287.623
L115.689 -288.014
L118.952 -287.214
L121.097 -285.669
L122.215 -284.945
L125.478 -283.792
L128.741 -283.001
L129.976 -282.352
L132.004 -281.397
L134.692 -279.035
L135.267 -278.4
L138.016 -275.717
L138.53 -275.426
L141.793 -274.068
L144.527 -272.4
L145.056 -272.098
L148.32 -269.791
L149.088 -269.083
L151.583 -267.166
L153.158 -265.766
L154.846 -264.53
L157.298 -262.448
L158.109 -261.94
L161.115 -259.131
L161.372 -258.848
L164.064 -255.814
L164.635 -255.118
L167.278 -252.497
L167.898 -252.025
L171.014 -249.18
L171.161 -249.036
L174.109 -245.862
L174.424 -245.526
L177.546 -242.545
L177.687 -242.41
L180.95 -239.563
L181.286 -239.228
L184.144 -235.911
L184.213 -235.835
L187.302 -232.593
L187.476 -232.405
L190.192 -229.276
L190.739 -228.575
L193.152 -225.959
L194.002 -225.022
L196.2 -222.642
L197.266 -221.261
L199.101 -219.324
L200.529 -217.826
L202.518 -216.007
L203.792 -214.999
L206.169 -212.69
L207.055 -211.772
L209.327 -209.373
L210.318 -208.618
L213.428 -206.055
L213.581 -205.934
L216.306 -202.738
L216.844 -201.751
L219.137 -199.421
L220.107 -198.346
L222.447 -196.104
L223.37 -195.273
L225.791 -192.786
L226.633 -192.243
L229.896 -190.386
L231.073 -189.469
L233.159 -188.124
L235.149 -186.152
L236.422 -184.585
L238.399 -182.835
L239.685 -181.274
L241.259 -179.517
L242.949 -176.673
L243.226 -176.2
L246.06 -172.883
L246.212 -172.704
L248.952 -169.566
L249.475 -168.991
L252.421 -166.248
L252.738 -165.963
L256.001 -163.365
L256.575 -162.931
L259.264 -160.41
L259.998 -159.614
L262.019 -156.297
L262.527 -155.655
L264.636 -152.979
L265.79 -151.705
L267.552 -149.662
L269.053 -147.618
L270.244 -146.345
L272.316 -144.257
L273.725 -143.028
L275.579 -141.256
L277.024 -139.71
L278.842 -136.517
L278.922 -136.393
L281.017 -133.076
L282.105 -131.648
L283.806 -129.759
L285.368 -127.942
L286.696 -126.441
L288.631 -123.334
L288.761 -123.124
L290.089 -119.807
L291.194 -116.49
L291.895 -115.057
L293.184 -113.172
L294.426 -109.855
L294.927 -106.538
L294.709 -103.221
L292.966 -99.9035
L291.895 -98.7794
L288.631 -98.7851
M301.684 -89.8081
L301.428 -89.9518
L301.684 -90.1555
L301.762 -89.9518
L301.684 -89.8081
M337.577 -99.7602
L337.434 -99.9035
L334.314 -102.678
L331.051 -103.149
L329.919 -103.221
L327.788 -106.265
L324.525 -106.525
L324.523 -106.538
L324.525 -108.141
L327.788 -109.85
L331.051 -109.855
L334.314 -109.855
L337.577 -106.538
L337.577 -106.538
L340.841 -103.221
L340.841 -103.221
L344.104 -99.9035
L340.841 -98.9012
L337.577 -99.7602
M340.841 -113.172
L340.841 -116.49
L340.841 -116.95
L344.104 -116.49
L340.841 -113.172
M92.8474 -259.131
L89.5843 -262.448
L89.5843 -265.766
L92.8474 -265.783
L92.856 -265.766
L93.0113 -262.448
L92.8474 -259.131" id="C0_0_ea55755a9f"/>
     <path d="
M409.365 -136.393
L409.365 -139.71
L409.365 -143.028
L409.365 -146.345
L409.365 -149.662
L409.365 -152.979
L409.365 -156.297
L409.365 -159.614
L409.365 -162.931
L409.365 -166.248
L409.365 -169.566
L409.365 -172.883
L409.365 -176.2
L409.365 -179.517
L409.365 -182.835
L409.365 -186.152
L409.365 -189.469
L409.365 -192.786
L409.365 -196.104
L409.365 -199.421
L409.365 -202.738
L409.365 -206.055
L409.365 -209.373
L409.365 -212.69
L409.365 -212.69
L406.102 -216.007
L406.102 -216.007
L406.102 -219.324
L402.839 -222.642
L399.576 -222.642
L399.576 -222.642
L399.576 -225.959
L396.313 -229.276
L393.05 -229.258
L393.048 -229.276
L393.05 -232.593
L393.05 -235.911
L389.787 -239.228
L389.787 -239.228
L386.524 -242.545
L386.524 -242.545
L386.524 -245.862
L383.26 -249.18
L383.26 -249.18
L379.997 -252.497
L376.734 -252.497
L376.734 -252.497
L373.471 -255.814
L373.471 -255.814
L370.208 -259.131
L370.208 -259.131
L366.945 -262.448
L366.945 -262.448
L363.682 -265.766
L363.682 -265.766
L360.419 -269.083
L360.419 -269.083
L357.156 -272.4
L357.156 -272.4
L353.893 -275.717
L353.893 -275.717
L353.893 -279.035
L350.63 -282.352
L350.63 -282.352
L347.367 -285.669
L344.104 -285.669
L344.104 -285.669
L340.841 -288.986
L340.841 -288.986
L340.841 -292.304
L337.577 -295.621
L337.577 -295.621
L334.314 -298.938
L331.051 -298.938
L331.051 -298.938
L331.051 -302.255
L327.788 -305.573
L324.525 -305.573
L324.525 -305.573
L324.525 -308.89
L321.262 -312.207
L321.262 -312.207
L317.999 -315.524
L317.999 -315.524
L314.736 -318.842
L314.736 -318.842
L314.736 -322.159
L311.473 -325.476
L311.473 -325.476
L308.21 -328.793
L304.947 -328.793
L304.947 -328.793
L301.684 -332.111
L298.421 -332.111
L298.421 -332.111
L295.158 -335.428
L295.158 -335.428
L295.158 -338.745
L291.895 -342.062
L291.895 -342.062
L288.631 -345.38
L288.631 -345.38
L285.368 -348.697
L285.368 -348.697
L282.105 -352.014
L282.105 -352.014
L282.105 -355.331
L278.842 -358.649
L275.579 -358.649
L275.579 -358.649
L272.316 -361.966
L272.316 -361.966
L269.053 -365.283
L269.053 -365.283
L269.053 -368.6
L265.79 -371.918
L265.79 -371.918
L262.527 -375.235
L259.264 -375.235
L256.001 -375.235
L256.001 -375.235
L252.738 -378.552
L252.738 -378.552
L249.475 -381.869
L249.475 -381.869
L249.475 -385.187
L246.212 -388.504
L246.212 -388.504
L242.949 -391.821
L239.685 -391.821
L239.685 -391.821
L236.422 -395.138
L233.159 -395.138
L233.159 -395.138
L233.159 -398.456
L229.896 -401.773
L226.633 -401.773
L226.633 -401.773
L223.37 -405.09
L222.686 -405.09
L220.107 -405.09
L216.844 -405.09
L213.581 -405.09
L210.318 -405.09
L207.055 -405.09
L203.792 -405.09
L200.529 -405.09
L197.266 -405.09
L194.002 -405.09
L190.739 -405.09
L187.476 -405.09
L184.213 -405.09
L180.95 -405.09
L177.687 -405.09
L174.424 -405.09
L171.161 -405.09
L167.898 -405.09
L164.635 -405.09
L161.372 -405.09
L158.109 -405.09
L154.846 -405.09
L151.583 -405.09
L148.337 -405.09
L148.325 -401.773
L148.32 -399.363
L145.056 -398.456
L145.056 -395.138
L148.32 -391.821
L148.32 -391.821
L151.583 -388.504
L154.846 -388.504
L158.109 -388.504
L158.109 -388.504
L161.372 -385.187
L161.372 -385.187
L164.635 -381.869
L164.635 -381.869
L164.635 -378.552
L167.898 -375.235
L167.898 -375.235
L167.898 -371.918
L171.161 -368.6
L174.424 -368.6
L174.424 -368.6
L174.424 -365.283
L177.687 -361.966
L177.687 -361.966
L177.687 -358.649
L177.687 -355.331
L180.95 -352.014
L180.95 -352.014
L184.213 -348.697
L184.213 -348.697
L187.476 -345.38
L190.739 -345.38
L190.739 -345.38
L194.002 -342.062
L194.002 -342.062
L194.002 -338.745
L197.266 -335.428
L197.266 -335.428
L200.529 -332.111
L200.529 -332.111
L200.529 -328.793
L200.529 -325.476
L203.792 -322.159
L203.792 -322.159
L207.055 -318.842
L207.055 -318.842
L210.318 -315.524
L213.581 -315.524
L216.844 -315.524
L216.844 -315.524
L220.107 -312.207
L220.107 -312.207
L223.37 -308.89
L223.37 -308.89
L223.37 -305.573
L226.633 -302.255
L226.633 -302.255
L229.896 -298.938
L229.896 -298.938
L233.159 -295.621
L233.159 -295.621
L236.422 -292.304
L236.422 -292.304
L236.422 -288.986
L239.685 -285.669
L242.949 -285.669
L242.949 -285.669
L246.212 -282.352
L246.212 -282.352
L249.475 -279.035
L249.475 -279.035
L252.738 -275.717
L252.738 -275.717
L256.001 -272.4
L256.001 -272.4
L256.001 -269.083
L259.264 -265.766
L262.527 -265.766
L265.79 -265.766
L269.053 -265.766
L269.053 -265.766
L272.316 -262.448
L272.316 -262.448
L272.316 -259.131
L275.579 -255.814
L275.579 -255.814
L278.842 -252.497
L278.842 -252.497
L282.105 -249.18
L285.368 -249.18
L285.368 -249.18
L285.368 -245.862
L285.368 -242.545
L288.631 -239.228
L288.631 -239.228
L291.895 -235.911
L295.158 -235.911
L295.158 -235.911
L298.421 -232.593
L298.421 -232.593
L298.421 -229.276
L301.684 -225.959
L304.947 -225.959
L304.947 -225.959
L304.947 -222.642
L308.21 -219.324
L308.21 -219.324
L308.21 -216.007
L311.473 -212.69
L311.473 -212.69
L314.736 -209.373
L317.999 -209.373
L317.999 -209.373
L321.262 -206.055
L324.525 -206.063
L324.528 -206.055
L327.788 -202.738
L327.788 -202.738
L331.051 -199.421
L331.051 -199.421
L334.314 -196.104
L337.577 -196.104
L337.577 -196.104
L340.841 -192.786
L340.841 -192.786
L340.841 -189.469
L344.104 -186.152
L344.104 -186.152
L347.367 -182.835
L350.63 -182.835
L350.63 -182.835
L353.893 -179.517
L353.893 -179.517
L353.893 -176.2
L357.156 -172.883
L357.156 -172.883
L360.419 -169.566
L360.419 -169.566
L363.682 -166.248
L366.945 -166.248
L370.208 -166.248
L373.471 -166.248
L373.471 -166.248
L376.734 -162.931
L376.734 -162.931
L379.997 -159.614
L379.997 -159.614
L383.26 -156.297
L383.26 -156.297
L386.524 -152.979
L386.524 -152.979
L386.524 -149.662
L389.787 -146.345
L393.05 -146.345
L393.05 -146.345
L396.313 -143.028
L399.576 -143.028
L402.839 -143.028
L402.839 -143.028
L406.102 -139.71
L406.102 -139.71
L409.365 -136.393
M379.997 -192.683
L379.689 -192.786
L376.734 -193.771
L373.471 -195.395
L371.586 -196.104
L370.208 -196.311
L366.945 -196.937
L364.22 -199.421
L363.682 -200.144
L361.877 -202.738
L360.419 -204.487
L358.444 -206.055
L357.156 -206.769
L353.893 -208.805
L353.063 -209.373
L350.63 -210.635
L347.676 -212.69
L347.367 -212.927
L344.104 -215.985
L344.083 -216.007
L340.841 -218.839
L340.268 -219.324
L337.577 -220.861
L335.359 -222.642
L334.314 -223.44
L331.684 -225.959
L331.051 -226.519
L327.788 -229.199
L327.698 -229.276
L324.595 -232.593
L324.525 -232.687
L321.75 -235.911
L321.262 -236.464
L318.005 -239.228
L317.999 -239.232
L314.736 -240.094
L312.651 -242.545
L311.494 -245.862
L311.473 -245.889
L308.766 -249.18
L308.21 -249.706
L305.526 -252.497
L304.947 -253.104
L301.684 -255.428
L301.089 -255.814
L298.421 -257.477
L296.881 -259.131
L295.228 -262.448
L295.158 -262.582
L292.748 -265.766
L291.895 -266.491
L288.631 -268.641
L288.163 -269.083
L285.368 -271.787
L284.875 -272.4
L283.087 -275.717
L282.105 -276.982
L279.992 -279.035
L278.842 -279.74
L275.867 -282.352
L275.579 -282.683
L273.008 -285.669
L272.316 -287.163
L269.208 -288.986
L269.053 -289.023
L265.79 -289.128
L262.527 -290.669
L261.09 -292.304
L259.887 -295.621
L259.264 -297.624
L258.399 -298.938
L256.16 -302.255
L256.001 -302.511
L253.415 -305.573
L252.738 -306.547
L250.829 -308.89
L249.475 -310.201
L246.765 -312.207
L246.212 -312.584
L243.328 -315.524
L242.949 -316.086
L240.907 -318.842
L239.685 -320.086
L237.586 -322.159
L236.422 -323.389
L234.583 -325.476
L233.159 -327.352
L231.804 -328.793
L229.896 -330.324
L227.829 -332.111
L226.633 -333.358
L225.043 -335.428
L223.37 -337.982
L222.718 -338.745
L220.107 -341.825
L219.88 -342.062
L218.03 -345.38
L216.884 -348.697
L216.844 -348.795
L214.808 -352.014
L213.581 -353.832
L212.475 -355.331
L210.626 -358.649
L210.318 -359.278
L208.314 -361.966
L207.055 -363.552
L205.64 -365.283
L203.792 -367.2
L201.758 -368.6
L200.529 -369.544
L198.971 -371.918
L200.179 -375.235
L200.529 -375.723
L203.792 -378.454
L203.963 -378.552
L207.055 -381.137
L210.318 -381.748
L213.581 -380.445
L215.631 -378.552
L216.844 -377.433
L219.698 -375.235
L220.107 -374.946
L223.37 -373.146
L225.029 -371.918
L226.633 -371.113
L229.595 -368.6
L229.896 -368.367
L233.159 -366.046
L234.704 -365.283
L236.422 -364.454
L239.261 -361.966
L239.685 -361.661
L242.949 -359.099
L243.498 -358.649
L246.212 -356.991
L248.271 -355.331
L249.475 -354.033
L250.962 -352.014
L252.738 -350.077
L254.106 -348.697
L256.001 -346.73
L257.223 -345.38
L259.264 -343.029
L260.153 -342.062
L262.527 -339.941
L264.133 -338.745
L265.79 -337.676
L268.569 -335.428
L269.053 -335.043
L271.955 -332.111
L272.316 -331.77
L274.965 -328.793
L275.579 -327.848
L277.434 -325.476
L278.842 -323.669
L280.469 -322.159
L282.105 -320.667
L283.945 -318.842
L285.368 -316.873
L286.394 -315.524
L288.631 -312.389
L288.786 -312.207
L291.895 -309.129
L292.131 -308.89
L294.969 -305.573
L295.158 -305.351
L298.354 -302.255
L298.421 -302.207
L301.684 -300.405
L303.459 -298.938
L304.947 -297.67
L306.699 -295.621
L308.21 -293.549
L309.651 -292.304
L311.473 -290.833
L313.605 -288.986
L314.736 -287.819
L316.797 -285.669
L317.999 -284.624
L320.031 -282.352
L321.262 -280.965
L322.994 -279.035
L324.525 -277.471
L326.65 -275.717
L327.788 -275.016
L331.021 -272.4
L331.051 -272.372
L333.74 -269.083
L334.314 -268.295
L336.704 -265.766
L337.577 -265.018
L340.451 -262.448
L340.841 -262.096
L343.57 -259.131
L344.104 -258.372
L346.322 -255.814
L347.367 -254.409
L349.12 -252.497
L350.63 -250.873
L352.221 -249.18
L353.893 -247.536
L355.725 -245.862
L357.156 -244.601
L359.328 -242.545
L360.419 -241.129
L361.944 -239.228
L363.682 -236.622
L364.205 -235.911
L366.442 -232.593
L366.945 -231.796
L369.248 -229.276
L370.208 -228.458
L373.471 -226.129
L373.767 -225.959
L376.734 -224.823
L379.997 -222.862
L380.204 -222.642
L381.573 -219.324
L381.154 -216.007
L381.507 -212.69
L383.26 -209.427
L383.297 -209.373
L384.825 -206.055
L385.218 -202.738
L384.458 -199.421
L384.542 -196.104
L384.11 -192.786
L383.26 -192.594
L379.997 -192.683" id="C0_1_d4bf318b29"/>
    </defs>
    <g clip-path="url(#p176900f474)">
     <use style="fill:#ffffff;" x="0.0" xlink:href="#C0_0_ea55755a9f" y="432.0"/>
    </g>
    <g clip-path="url(#p176900f474)">
     <use style="fill:#ffffff;" x="0.0" xlink:href="#C0_1_d4bf318b29" y="432.0"/>
    </g>
   </g>
   <g id="PathCollection_2">
    <defs>
     <path d="
M301.684 -89.8081
L301.762 -89.9518
L301.684 -90.1555
L301.428 -89.9518
L301.684 -89.8081" id="C1_0_ca3dc19653"/>
     <path d="
M288.631 -98.7851
L291.895 -98.7794
L292.966 -99.9035
L294.709 -103.221
L294.927 -106.538
L294.426 -109.855
L293.184 -113.172
L291.895 -115.057
L291.194 -116.49
L290.089 -119.807
L288.761 -123.124
L288.631 -123.334
L286.696 -126.441
L285.368 -127.942
L283.806 -129.759
L282.105 -131.648
L281.017 -133.076
L278.922 -136.393
L278.842 -136.517
L277.024 -139.71
L275.579 -141.256
L273.725 -143.028
L272.316 -144.257
L270.244 -146.345
L269.053 -147.618
L267.552 -149.662
L265.79 -151.705
L264.636 -152.979
L262.527 -155.655
L262.019 -156.297
L259.998 -159.614
L259.264 -160.41
L256.575 -162.931
L256.001 -163.365
L252.738 -165.963
L252.421 -166.248
L249.475 -168.991
L248.952 -169.566
L246.212 -172.704
L246.06 -172.883
L243.226 -176.2
L242.949 -176.673
L241.259 -179.517
L239.685 -181.274
L238.399 -182.835
L236.422 -184.585
L235.149 -186.152
L233.159 -188.124
L231.073 -189.469
L229.896 -190.386
L226.633 -192.243
L225.791 -192.786
L223.37 -195.273
L222.447 -196.104
L220.107 -198.346
L219.137 -199.421
L216.844 -201.751
L216.306 -202.738
L213.581 -205.934
L213.428 -206.055
L210.318 -208.618
L209.327 -209.373
L207.055 -211.772
L206.169 -212.69
L203.792 -214.999
L202.518 -216.007
L200.529 -217.826
L199.101 -219.324
L197.266 -221.261
L196.2 -222.642
L194.002 -225.022
L193.152 -225.959
L190.739 -228.575
L190.192 -229.276
L187.476 -232.405
L187.302 -232.593
L184.213 -235.835
L184.144 -235.911
L181.286 -239.228
L180.95 -239.563
L177.687 -242.41
L177.546 -242.545
L174.424 -245.526
L174.109 -245.862
L171.161 -249.036
L171.014 -249.18
L167.898 -252.025
L167.278 -252.497
L164.635 -255.118
L164.064 -255.814
L161.372 -258.848
L161.115 -259.131
L158.109 -261.94
L157.298 -262.448
L154.846 -264.53
L153.158 -265.766
L151.583 -267.166
L149.088 -269.083
L148.32 -269.791
L145.056 -272.098
L144.527 -272.4
L141.793 -274.068
L138.53 -275.426
L138.016 -275.717
L135.267 -278.4
L134.692 -279.035
L132.004 -281.397
L129.976 -282.352
L128.741 -283.001
L125.478 -283.792
L122.215 -284.945
L121.097 -285.669
L118.952 -287.214
L115.689 -288.014
L112.426 -287.623
L109.163 -285.992
L108.934 -285.669
L108.185 -282.352
L109.163 -279.283
L109.264 -279.035
L112.426 -275.925
L112.579 -275.717
L114.289 -272.4
L115.435 -269.083
L115.689 -268.522
L116.789 -265.766
L118.952 -262.737
L119.116 -262.448
L121.392 -259.131
L122.215 -258.197
L123.992 -255.814
L125.478 -254.14
L126.758 -252.497
L128.741 -249.93
L129.225 -249.18
L131.589 -245.862
L132.004 -245.364
L134.176 -242.545
L135.267 -241.326
L136.796 -239.228
L138.53 -237.104
L139.461 -235.911
L141.793 -233.304
L142.462 -232.593
L145.056 -230.109
L145.845 -229.276
L148.32 -226.837
L149.14 -225.959
L151.583 -223.278
L152.164 -222.642
L154.846 -220
L155.658 -219.324
L158.109 -217.087
L159.09 -216.007
L161.372 -213.516
L162.14 -212.69
L164.635 -210.13
L165.354 -209.373
L167.898 -206.636
L168.513 -206.055
L171.161 -203.514
L172.067 -202.738
L174.424 -200.409
L175.408 -199.421
L177.687 -197.069
L178.661 -196.104
L180.95 -193.891
L182.03 -192.786
L184.213 -190.554
L185.014 -189.469
L187.476 -186.688
L188.082 -186.152
L190.739 -183.819
L192.213 -182.835
L194.002 -181.272
L195.459 -179.517
L197.266 -177.395
L198.3 -176.2
L200.529 -174.054
L201.698 -172.883
L203.792 -169.915
L203.992 -169.566
L207.055 -166.248
L207.055 -166.248
L210.318 -163.592
L211.062 -162.931
L213.581 -160.546
L214.677 -159.614
L216.844 -157.557
L217.983 -156.297
L220.107 -153.96
L220.804 -152.979
L223.37 -149.791
L223.468 -149.662
L226.633 -146.543
L226.916 -146.345
L229.896 -143.866
L230.961 -143.028
L233.159 -140.868
L234.398 -139.71
L236.422 -137.601
L237.593 -136.393
L239.685 -134.116
L240.695 -133.076
L242.949 -130.914
L244.369 -129.759
L246.212 -128.215
L248.782 -126.441
L249.475 -125.791
L252.738 -123.257
L252.9 -123.124
L256.001 -120.399
L256.556 -119.807
L259.264 -116.954
L259.777 -116.49
L262.527 -114.027
L264.085 -113.172
L265.79 -111.931
L269.053 -110.052
L269.381 -109.855
L272.316 -107.648
L274.069 -106.538
L275.579 -105.391
L278.842 -103.919
L281.566 -103.221
L282.105 -102.97
L285.368 -100.925
L287.216 -99.9035
L288.631 -98.7851
M262.527 -125.688
L261.789 -126.441
L259.264 -128.253
L257.183 -129.759
L256.001 -130.357
L252.738 -132.447
L251.889 -133.076
L249.475 -134.987
L247.924 -136.393
L246.212 -137.794
L244.054 -139.71
L242.949 -140.659
L240.479 -143.028
L239.685 -143.704
L236.816 -146.345
L236.422 -146.708
L233.159 -149.603
L233.084 -149.662
L229.896 -152.238
L229.112 -152.979
L226.633 -155.603
L226.072 -156.297
L223.382 -159.614
L223.37 -159.629
L220.473 -162.931
L220.107 -163.317
L217.089 -166.248
L216.844 -166.489
L214.025 -169.566
L213.581 -170.092
L211.077 -172.883
L210.318 -173.887
L208.42 -176.2
L207.055 -177.524
L204.592 -179.517
L203.792 -180.254
L201.818 -182.835
L200.529 -184.96
L199.61 -186.152
L197.266 -188.568
L196.071 -189.469
L194.002 -190.927
L191.862 -192.786
L190.739 -194.029
L189.052 -196.104
L187.476 -197.804
L185.852 -199.421
L184.213 -200.901
L182.287 -202.738
L180.95 -203.844
L178.698 -206.055
L177.687 -207.124
L175.388 -209.373
L174.424 -210.281
L171.561 -212.69
L171.161 -213.013
L168.03 -216.007
L167.898 -216.138
L164.885 -219.324
L164.635 -219.591
L161.68 -222.642
L161.372 -222.915
L158.168 -225.959
L158.109 -226.022
L155.058 -229.276
L154.846 -229.512
L151.895 -232.593
L151.583 -232.916
L148.86 -235.911
L148.32 -236.532
L145.918 -239.228
L145.056 -240.338
L143.257 -242.545
L141.793 -245.134
L141.329 -245.862
L139.42 -249.18
L138.53 -250.525
L136.912 -252.497
L135.267 -255.099
L134.796 -255.814
L133.744 -259.131
L134.878 -262.448
L135.267 -262.681
L137.359 -262.448
L138.53 -262.376
L141.793 -261.923
L145.056 -261.003
L147.542 -259.131
L148.32 -258.582
L151.583 -256.659
L153.236 -255.814
L154.846 -254.951
L157.26 -252.497
L158.109 -251.61
L160.337 -249.18
L161.372 -248.346
L164.635 -245.862
L164.635 -245.862
L167.898 -242.948
L168.295 -242.545
L171.161 -239.773
L171.692 -239.228
L174.424 -236.081
L174.58 -235.911
L177.458 -232.593
L177.687 -232.35
L180.729 -229.276
L180.95 -229.055
L183.805 -225.959
L184.213 -225.422
L186.539 -222.642
L187.476 -221.58
L189.686 -219.324
L190.739 -218.276
L192.578 -216.007
L194.002 -213.905
L195.012 -212.69
L197.266 -210.403
L198.487 -209.373
L200.529 -207.334
L201.687 -206.055
L203.792 -203.467
L204.762 -202.738
L207.055 -201.392
L210.318 -199.475
L210.363 -199.421
L212.267 -196.104
L213.581 -194.025
L214.505 -192.786
L216.844 -190.507
L217.995 -189.469
L220.107 -187.736
L222.195 -186.152
L223.37 -185.347
L226.633 -183.817
L228.148 -182.835
L229.896 -181.54
L231.636 -179.517
L233.159 -177.439
L234.113 -176.2
L236.422 -173.472
L236.98 -172.883
L239.685 -170.333
L240.437 -169.566
L242.949 -166.596
L243.247 -166.248
L246.212 -162.981
L246.261 -162.931
L249.475 -159.662
L249.521 -159.614
L252.321 -156.297
L252.738 -155.726
L255.022 -152.979
L256.001 -152.018
L258.411 -149.662
L259.264 -148.836
L261.605 -146.345
L262.527 -144.833
L263.681 -143.028
L265.407 -139.71
L265.79 -139.016
L267.726 -136.393
L269.053 -134.151
L269.739 -133.076
L270.833 -129.759
L271.373 -126.441
L269.053 -123.779
L265.79 -123.67
L262.527 -125.688" id="C1_1_797ba9ef0b"/>
     <path d="
M379.997 -192.683
L383.26 -192.594
L384.11 -192.786
L384.542 -196.104
L384.458 -199.421
L385.218 -202.738
L384.825 -206.055
L383.297 -209.373
L383.26 -209.427
L381.507 -212.69
L381.154 -216.007
L381.573 -219.324
L380.204 -222.642
L379.997 -222.862
L376.734 -224.823
L373.767 -225.959
L373.471 -226.129
L370.208 -228.458
L369.248 -229.276
L366.945 -231.796
L366.442 -232.593
L364.205 -235.911
L363.682 -236.622
L361.944 -239.228
L360.419 -241.129
L359.328 -242.545
L357.156 -244.601
L355.725 -245.862
L353.893 -247.536
L352.221 -249.18
L350.63 -250.873
L349.12 -252.497
L347.367 -254.409
L346.322 -255.814
L344.104 -258.372
L343.57 -259.131
L340.841 -262.096
L340.451 -262.448
L337.577 -265.018
L336.704 -265.766
L334.314 -268.295
L333.74 -269.083
L331.051 -272.372
L331.021 -272.4
L327.788 -275.016
L326.65 -275.717
L324.525 -277.471
L322.994 -279.035
L321.262 -280.965
L320.031 -282.352
L317.999 -284.624
L316.797 -285.669
L314.736 -287.819
L313.605 -288.986
L311.473 -290.833
L309.651 -292.304
L308.21 -293.549
L306.699 -295.621
L304.947 -297.67
L303.459 -298.938
L301.684 -300.405
L298.421 -302.207
L298.354 -302.255
L295.158 -305.351
L294.969 -305.573
L292.131 -308.89
L291.895 -309.129
L288.786 -312.207
L288.631 -312.389
L286.394 -315.524
L285.368 -316.873
L283.945 -318.842
L282.105 -320.667
L280.469 -322.159
L278.842 -323.669
L277.434 -325.476
L275.579 -327.848
L274.965 -328.793
L272.316 -331.77
L271.955 -332.111
L269.053 -335.043
L268.569 -335.428
L265.79 -337.676
L264.133 -338.745
L262.527 -339.941
L260.153 -342.062
L259.264 -343.029
L257.223 -345.38
L256.001 -346.73
L254.106 -348.697
L252.738 -350.077
L250.962 -352.014
L249.475 -354.033
L248.271 -355.331
L246.212 -356.991
L243.498 -358.649
L242.949 -359.099
L239.685 -361.661
L239.261 -361.966
L236.422 -364.454
L234.704 -365.283
L233.159 -366.046
L229.896 -368.367
L229.595 -368.6
L226.633 -371.113
L225.029 -371.918
L223.37 -373.146
L220.107 -374.946
L219.698 -375.235
L216.844 -377.433
L215.631 -378.552
L213.581 -380.445
L210.318 -381.748
L207.055 -381.137
L203.963 -378.552
L203.792 -378.454
L200.529 -375.723
L200.179 -375.235
L198.971 -371.918
L200.529 -369.544
L201.758 -368.6
L203.792 -367.2
L205.64 -365.283
L207.055 -363.552
L208.314 -361.966
L210.318 -359.278
L210.626 -358.649
L212.475 -355.331
L213.581 -353.832
L214.808 -352.014
L216.844 -348.795
L216.884 -348.697
L218.03 -345.38
L219.88 -342.062
L220.107 -341.825
L222.718 -338.745
L223.37 -337.982
L225.043 -335.428
L226.633 -333.358
L227.829 -332.111
L229.896 -330.324
L231.804 -328.793
L233.159 -327.352
L234.583 -325.476
L236.422 -323.389
L237.586 -322.159
L239.685 -320.086
L240.907 -318.842
L242.949 -316.086
L243.328 -315.524
L246.212 -312.584
L246.765 -312.207
L249.475 -310.201
L250.829 -308.89
L252.738 -306.547
L253.415 -305.573
L256.001 -302.511
L256.16 -302.255
L258.399 -298.938
L259.264 -297.624
L259.887 -295.621
L261.09 -292.304
L262.527 -290.669
L265.79 -289.128
L269.053 -289.023
L269.208 -288.986
L272.316 -287.163
L273.008 -285.669
L275.579 -282.683
L275.867 -282.352
L278.842 -279.74
L279.992 -279.035
L282.105 -276.982
L283.087 -275.717
L284.875 -272.4
L285.368 -271.787
L288.163 -269.083
L288.631 -268.641
L291.895 -266.491
L292.748 -265.766
L295.158 -262.582
L295.228 -262.448
L296.881 -259.131
L298.421 -257.477
L301.089 -255.814
L301.684 -255.428
L304.947 -253.104
L305.526 -252.497
L308.21 -249.706
L308.766 -249.18
L311.473 -245.889
L311.494 -245.862
L312.651 -242.545
L314.736 -240.094
L317.999 -239.232
L318.005 -239.228
L321.262 -236.464
L321.75 -235.911
L324.525 -232.687
L324.595 -232.593
L327.698 -229.276
L327.788 -229.199
L331.051 -226.519
L331.684 -225.959
L334.314 -223.44
L335.359 -222.642
L337.577 -220.861
L340.268 -219.324
L340.841 -218.839
L344.083 -216.007
L344.104 -215.985
L347.367 -212.927
L347.676 -212.69
L350.63 -210.635
L353.063 -209.373
L353.893 -208.805
L357.156 -206.769
L358.444 -206.055
L360.419 -204.487
L361.877 -202.738
L363.682 -200.144
L364.22 -199.421
L366.945 -196.937
L370.208 -196.311
L371.586 -196.104
L373.471 -195.395
L376.734 -193.771
L379.689 -192.786
L379.997 -192.683
M357.156 -218.637
L355.92 -219.324
L353.893 -220.216
L350.63 -222.005
L349.685 -222.642
L347.367 -223.972
L344.104 -225.598
L343.454 -225.959
L340.841 -227.279
L338.328 -229.276
L337.577 -229.937
L334.831 -232.593
L334.314 -233.008
L331.279 -235.911
L331.051 -236.129
L328.122 -239.228
L327.788 -239.559
L324.775 -242.545
L324.525 -242.79
L321.262 -245.794
L321.185 -245.862
L317.999 -248.655
L317.481 -249.18
L314.736 -252.247
L314.49 -252.497
L311.678 -255.814
L311.473 -256.081
L309.006 -259.131
L308.21 -260.048
L305.871 -262.448
L304.947 -263.298
L302.461 -265.766
L301.684 -266.71
L299.891 -269.083
L298.421 -271.309
L297.524 -272.4
L295.158 -274.842
L293.907 -275.717
L291.895 -277.635
L290.557 -279.035
L288.631 -280.64
L286.331 -282.352
L285.368 -283.03
L282.105 -284.652
L280.604 -285.669
L278.842 -288.445
L278.62 -288.986
L278.028 -292.304
L275.596 -295.621
L275.579 -295.635
L272.316 -296.905
L269.053 -296.634
L265.79 -297.292
L264.616 -298.938
L262.858 -302.255
L262.527 -303.556
L261.719 -305.573
L260.048 -308.89
L259.264 -309.818
L256.89 -312.207
L256.001 -312.997
L253.484 -315.524
L252.738 -316.201
L249.807 -318.842
L249.475 -319.192
L246.948 -322.159
L246.212 -323.069
L243.88 -325.476
L242.949 -326.707
L241.37 -328.793
L239.839 -332.111
L239.685 -332.462
L237.541 -335.428
L236.422 -336.316
L233.159 -338.327
L232.697 -338.745
L230.195 -342.062
L229.896 -343.482
L229.395 -345.38
L229.401 -348.697
L228.916 -352.014
L226.633 -355.294
L226.612 -355.331
L224.517 -358.649
L226.633 -359.493
L228.859 -358.649
L229.896 -357.876
L232.618 -355.331
L233.159 -354.773
L235.438 -352.014
L236.422 -351.434
L239.685 -349.575
L241.187 -348.697
L242.949 -347.724
L246.212 -345.438
L246.295 -345.38
L249.475 -343.42
L250.972 -342.062
L252.738 -340.391
L254.276 -338.745
L256.001 -336.798
L257.376 -335.428
L259.264 -333.413
L260.644 -332.111
L262.527 -330.39
L264.434 -328.793
L265.79 -327.88
L268.421 -325.476
L269.053 -324.7
L271.018 -322.159
L272.316 -320.705
L273.895 -318.842
L275.579 -316.632
L276.488 -315.524
L278.842 -312.577
L279.22 -312.207
L282.105 -310.022
L283.282 -308.89
L285.368 -306.093
L285.744 -305.573
L287.287 -302.255
L288.631 -300.208
L289.616 -298.938
L291.895 -296.142
L292.573 -295.621
L295.158 -294.293
L298.421 -293.14
L299.639 -292.304
L301.684 -289.904
L302.255 -288.986
L304.807 -285.669
L304.947 -285.536
L308.21 -282.851
L308.743 -282.352
L311.473 -280.316
L313.141 -279.035
L314.736 -277.936
L317.346 -275.717
L317.999 -275.176
L320.724 -272.4
L321.262 -271.853
L324.523 -269.083
L324.525 -269.081
L327.788 -266.392
L328.35 -265.766
L331.051 -262.705
L331.292 -262.448
L334.314 -259.272
L334.47 -259.131
L337.577 -256.503
L338.256 -255.814
L340.832 -252.497
L340.841 -252.483
L343.158 -249.18
L344.104 -248.062
L346.193 -245.862
L347.367 -244.608
L349.32 -242.545
L350.63 -240.732
L351.851 -239.228
L353.893 -236.323
L354.215 -235.911
L357.156 -232.766
L357.319 -232.593
L359.949 -229.276
L360.419 -227.95
L361.176 -225.959
L362.416 -222.642
L363.005 -219.324
L360.419 -217.55
L357.156 -218.637" id="C1_2_c499a2f694"/>
    </defs>
    <g clip-path="url(#p176900f474)">
     <use style="fill:#0000ff;fill-opacity:0.5;" x="0.0" xlink:href="#C1_0_ca3dc19653" y="432.0"/>
    </g>
    <g clip-path="url(#p176900f474)">
     <use style="fill:#0000ff;fill-opacity:0.5;" x="0.0" xlink:href="#C1_1_797ba9ef0b" y="432.0"/>
    </g>
    <g clip-path="url(#p176900f474)">
     <use style="fill:#0000ff;fill-opacity:0.5;" x="0.0" xlink:href="#C1_2_c499a2f694" y="432.0"/>
    </g>
   </g>
   <g id="PathCollection_3">
    <defs>
     <path d="
M262.527 -125.688
L265.79 -123.67
L269.053 -123.779
L271.373 -126.441
L270.833 -129.759
L269.739 -133.076
L269.053 -134.151
L267.726 -136.393
L265.79 -139.016
L265.407 -139.71
L263.681 -143.028
L262.527 -144.833
L261.605 -146.345
L259.264 -148.836
L258.411 -149.662
L256.001 -152.018
L255.022 -152.979
L252.738 -155.726
L252.321 -156.297
L249.521 -159.614
L249.475 -159.662
L246.261 -162.931
L246.212 -162.981
L243.247 -166.248
L242.949 -166.596
L240.437 -169.566
L239.685 -170.333
L236.98 -172.883
L236.422 -173.472
L234.113 -176.2
L233.159 -177.439
L231.636 -179.517
L229.896 -181.54
L228.148 -182.835
L226.633 -183.817
L223.37 -185.347
L222.195 -186.152
L220.107 -187.736
L217.995 -189.469
L216.844 -190.507
L214.505 -192.786
L213.581 -194.025
L212.267 -196.104
L210.363 -199.421
L210.318 -199.475
L207.055 -201.392
L204.762 -202.738
L203.792 -203.467
L201.687 -206.055
L200.529 -207.334
L198.487 -209.373
L197.266 -210.403
L195.012 -212.69
L194.002 -213.905
L192.578 -216.007
L190.739 -218.276
L189.686 -219.324
L187.476 -221.58
L186.539 -222.642
L184.213 -225.422
L183.805 -225.959
L180.95 -229.055
L180.729 -229.276
L177.687 -232.35
L177.458 -232.593
L174.58 -235.911
L174.424 -236.081
L171.692 -239.228
L171.161 -239.773
L168.295 -242.545
L167.898 -242.948
L164.635 -245.862
L164.635 -245.862
L161.372 -248.346
L160.337 -249.18
L158.109 -251.61
L157.26 -252.497
L154.846 -254.951
L153.236 -255.814
L151.583 -256.659
L148.32 -258.582
L147.542 -259.131
L145.056 -261.003
L141.793 -261.923
L138.53 -262.376
L137.359 -262.448
L135.267 -262.681
L134.878 -262.448
L133.744 -259.131
L134.796 -255.814
L135.267 -255.099
L136.912 -252.497
L138.53 -250.525
L139.42 -249.18
L141.329 -245.862
L141.793 -245.134
L143.257 -242.545
L145.056 -240.338
L145.918 -239.228
L148.32 -236.532
L148.86 -235.911
L151.583 -232.916
L151.895 -232.593
L154.846 -229.512
L155.058 -229.276
L158.109 -226.022
L158.168 -225.959
L161.372 -222.915
L161.68 -222.642
L164.635 -219.591
L164.885 -219.324
L167.898 -216.138
L168.03 -216.007
L171.161 -213.013
L171.561 -212.69
L174.424 -210.281
L175.388 -209.373
L177.687 -207.124
L178.698 -206.055
L180.95 -203.844
L182.287 -202.738
L184.213 -200.901
L185.852 -199.421
L187.476 -197.804
L189.052 -196.104
L190.739 -194.029
L191.862 -192.786
L194.002 -190.927
L196.071 -189.469
L197.266 -188.568
L199.61 -186.152
L200.529 -184.96
L201.818 -182.835
L203.792 -180.254
L204.592 -179.517
L207.055 -177.524
L208.42 -176.2
L210.318 -173.887
L211.077 -172.883
L213.581 -170.092
L214.025 -169.566
L216.844 -166.489
L217.089 -166.248
L220.107 -163.317
L220.473 -162.931
L223.37 -159.629
L223.382 -159.614
L226.072 -156.297
L226.633 -155.603
L229.112 -152.979
L229.896 -152.238
L233.084 -149.662
L233.159 -149.603
L236.422 -146.708
L236.816 -146.345
L239.685 -143.704
L240.479 -143.028
L242.949 -140.659
L244.054 -139.71
L246.212 -137.794
L247.924 -136.393
L249.475 -134.987
L251.889 -133.076
L252.738 -132.447
L256.001 -130.357
L257.183 -129.759
L259.264 -128.253
L261.789 -126.441
L262.527 -125.688" id="C2_0_4fff089d5a"/>
     <path d="
M357.156 -218.637
L360.419 -217.55
L363.005 -219.324
L362.416 -222.642
L361.176 -225.959
L360.419 -227.95
L359.949 -229.276
L357.319 -232.593
L357.156 -232.766
L354.215 -235.911
L353.893 -236.323
L351.851 -239.228
L350.63 -240.732
L349.32 -242.545
L347.367 -244.608
L346.193 -245.862
L344.104 -248.062
L343.158 -249.18
L340.841 -252.483
L340.832 -252.497
L338.256 -255.814
L337.577 -256.503
L334.47 -259.131
L334.314 -259.272
L331.292 -262.448
L331.051 -262.705
L328.35 -265.766
L327.788 -266.392
L324.525 -269.081
L324.523 -269.083
L321.262 -271.853
L320.724 -272.4
L317.999 -275.176
L317.346 -275.717
L314.736 -277.936
L313.141 -279.035
L311.473 -280.316
L308.743 -282.352
L308.21 -282.851
L304.947 -285.536
L304.807 -285.669
L302.255 -288.986
L301.684 -289.904
L299.639 -292.304
L298.421 -293.14
L295.158 -294.293
L292.573 -295.621
L291.895 -296.142
L289.616 -298.938
L288.631 -300.208
L287.287 -302.255
L285.744 -305.573
L285.368 -306.093
L283.282 -308.89
L282.105 -310.022
L279.22 -312.207
L278.842 -312.577
L276.488 -315.524
L275.579 -316.632
L273.895 -318.842
L272.316 -320.705
L271.018 -322.159
L269.053 -324.7
L268.421 -325.476
L265.79 -327.88
L264.434 -328.793
L262.527 -330.39
L260.644 -332.111
L259.264 -333.413
L257.376 -335.428
L256.001 -336.798
L254.276 -338.745
L252.738 -340.391
L250.972 -342.062
L249.475 -343.42
L246.295 -345.38
L246.212 -345.438
L242.949 -347.724
L241.187 -348.697
L239.685 -349.575
L236.422 -351.434
L235.438 -352.014
L233.159 -354.773
L232.618 -355.331
L229.896 -357.876
L228.859 -358.649
L226.633 -359.493
L224.517 -358.649
L226.612 -355.331
L226.633 -355.294
L228.916 -352.014
L229.401 -348.697
L229.395 -345.38
L229.896 -343.482
L230.195 -342.062
L232.697 -338.745
L233.159 -338.327
L236.422 -336.316
L237.541 -335.428
L239.685 -332.462
L239.839 -332.111
L241.37 -328.793
L242.949 -326.707
L243.88 -325.476
L246.212 -323.069
L246.948 -322.159
L249.475 -319.192
L249.807 -318.842
L252.738 -316.201
L253.484 -315.524
L256.001 -312.997
L256.89 -312.207
L259.264 -309.818
L260.048 -308.89
L261.719 -305.573
L262.527 -303.556
L262.858 -302.255
L264.616 -298.938
L265.79 -297.292
L269.053 -296.634
L272.316 -296.905
L275.579 -295.635
L275.596 -295.621
L278.028 -292.304
L278.62 -288.986
L278.842 -288.445
L280.604 -285.669
L282.105 -284.652
L285.368 -283.03
L286.331 -282.352
L288.631 -280.64
L290.557 -279.035
L291.895 -277.635
L293.907 -275.717
L295.158 -274.842
L297.524 -272.4
L298.421 -271.309
L299.891 -269.083
L301.684 -266.71
L302.461 -265.766
L304.947 -263.298
L305.871 -262.448
L308.21 -260.048
L309.006 -259.131
L311.473 -256.081
L311.678 -255.814
L314.49 -252.497
L314.736 -252.247
L317.481 -249.18
L317.999 -248.655
L321.185 -245.862
L321.262 -245.794
L324.525 -242.79
L324.775 -242.545
L327.788 -239.559
L328.122 -239.228
L331.051 -236.129
L331.279 -235.911
L334.314 -233.008
L334.831 -232.593
L337.577 -229.937
L338.328 -229.276
L340.841 -227.279
L343.454 -225.959
L344.104 -225.598
L347.367 -223.972
L349.685 -222.642
L350.63 -222.005
L353.893 -220.216
L355.92 -219.324
L357.156 -218.637" id="C2_1_374c8ab67b"/>
    </defs>
    <g clip-path="url(#p176900f474)">
     <use style="fill:#0000ff;" x="0.0" xlink:href="#C2_0_4fff089d5a" y="432.0"/>
    </g>
    <g clip-path="url(#p176900f474)">
     <use style="fill:#0000ff;" x="0.0" xlink:href="#C2_1_374c8ab67b" y="432.0"/>
    </g>
   </g>
   <g id="line2d_1">
    <path clip-path="url(#p176900f474)" d="
M135.69 191.114" style="fill:none;stroke:#fa8072;stroke-linecap:square;"/>
    <defs>
     <path d="
M-7.5 0
L7.5 0
M0 7.5
L0 -7.5" id="m415119b0dc" style="stroke:#fa8072;stroke-width:3;"/>
    </defs>
    <g clip-path="url(#p176900f474)">
     <use style="fill:#fa8072;stroke:#fa8072;stroke-width:3;" x="135.689937027" xlink:href="#m415119b0dc" y="191.11359375"/>
    </g>
   </g>
   <g id="matplotlib.axis_1">
    <g id="xtick_1">
     <g id="line2d_2">
      <path clip-path="url(#p176900f474)" d="
M86.3212 355.317
L86.3212 26.91" style="fill:none;stroke:#000000;stroke-dasharray:1.000000,3.000000;stroke-dashoffset:0.0;stroke-width:0.5;"/>
     </g>
     <g id="line2d_3">
      <defs>
       <path d="
M0 0
L0 -4" id="m93b0483c22" style="stroke:#000000;stroke-width:0.5;"/>
      </defs>
      <g>
       <use style="stroke:#000000;stroke-width:0.5;" x="86.32125" xlink:href="#m93b0483c22" y="355.3171875"/>
      </g>
     </g>
     <g id="line2d_4">
      <defs>
       <path d="
M0 0
L0 4" id="m741efc42ff" style="stroke:#000000;stroke-width:0.5;"/>
      </defs>
      <g>
       <use style="stroke:#000000;stroke-width:0.5;" x="86.32125" xlink:href="#m741efc42ff" y="26.91"/>
      </g>
     </g>
     <g id="text_1">
      <!-- −6 -->
      <defs>
       <path d="
M33.0156 40.375
Q26.375 40.375 22.4844 35.8281
Q18.6094 31.2969 18.6094 23.3906
Q18.6094 15.5312 22.4844 10.9531
Q26.375 6.39062 33.0156 6.39062
Q39.6562 6.39062 43.5312 10.9531
Q47.4062 15.5312 47.4062 23.3906
Q47.4062 31.2969 43.5312 35.8281
Q39.6562 40.375 33.0156 40.375
M52.5938 71.2969
L52.5938 62.3125
Q48.875 64.0625 45.0938 64.9844
Q41.3125 65.9219 37.5938 65.9219
Q27.8281 65.9219 22.6719 59.3281
Q17.5312 52.7344 16.7969 39.4062
Q19.6719 43.6562 24.0156 45.9219
Q28.375 48.1875 33.5938 48.1875
Q44.5781 48.1875 50.9531 41.5156
Q57.3281 34.8594 57.3281 23.3906
Q57.3281 12.1562 50.6875 5.35938
Q44.0469 -1.42188 33.0156 -1.42188
Q20.3594 -1.42188 13.6719 8.26562
Q6.98438 17.9688 6.98438 36.375
Q6.98438 53.6562 15.1875 63.9375
Q23.3906 74.2188 37.2031 74.2188
Q40.9219 74.2188 44.7031 73.4844
Q48.4844 72.75 52.5938 71.2969" id="DejaVuSans-36"/>
       <path d="
M10.5938 35.5
L73.1875 35.5
L73.1875 27.2031
L10.5938 27.2031
z
" id="DejaVuSans-2212"/>
      </defs>
      <g transform="translate(75.22609375 372.23453125)scale(0.17 -0.17)">
       <use xlink:href="#DejaVuSans-2212"/>
       <use x="83.7890625" xlink:href="#DejaVuSans-36"/>
      </g>
     </g>
    </g>
    <g id="xtick_2">
     <g id="line2d_5">
      <path clip-path="url(#p176900f474)" d="
M140.162 355.317
L140.162 26.91" style="fill:none;stroke:#000000;stroke-dasharray:1.000000,3.000000;stroke-dashoffset:0.0;stroke-width:0.5;"/>
     </g>
     <g id="line2d_6">
      <g>
       <use style="stroke:#000000;stroke-width:0.5;" x="140.161875" xlink:href="#m93b0483c22" y="355.3171875"/>
      </g>
     </g>
     <g id="line2d_7">
      <g>
       <use style="stroke:#000000;stroke-width:0.5;" x="140.161875" xlink:href="#m741efc42ff" y="26.91"/>
      </g>
     </g>
     <g id="text_2">
      <!-- −4 -->
      <defs>
       <path d="
M37.7969 64.3125
L12.8906 25.3906
L37.7969 25.3906
z

M35.2031 72.9062
L47.6094 72.9062
L47.6094 25.3906
L58.0156 25.3906
L58.0156 17.1875
L47.6094 17.1875
L47.6094 0
L37.7969 0
L37.7969 17.1875
L4.89062 17.1875
L4.89062 26.7031
z
" id="DejaVuSans-34"/>
      </defs>
      <g transform="translate(129.00828125 372.23453125)scale(0.17 -0.17)">
       <use xlink:href="#DejaVuSans-2212"/>
       <use x="83.7890625" xlink:href="#DejaVuSans-34"/>
      </g>
     </g>
    </g>
    <g id="xtick_3">
     <g id="line2d_8">
      <path clip-path="url(#p176900f474)" d="
M194.002 355.317
L194.002 26.91" style="fill:none;stroke:#000000;stroke-dasharray:1.000000,3.000000;stroke-dashoffset:0.0;stroke-width:0.5;"/>
     </g>
     <g id="line2d_9">
      <g>
       <use style="stroke:#000000;stroke-width:0.5;" x="194.0025" xlink:href="#m93b0483c22" y="355.3171875"/>
      </g>
     </g>
     <g id="line2d_10">
      <g>
       <use style="stroke:#000000;stroke-width:0.5;" x="194.0025" xlink:href="#m741efc42ff" y="26.91"/>
      </g>
     </g>
     <g id="text_3">
      <!-- −2 -->
      <defs>
       <path d="
M19.1875 8.29688
L53.6094 8.29688
L53.6094 0
L7.32812 0
L7.32812 8.29688
Q12.9375 14.1094 22.625 23.8906
Q32.3281 33.6875 34.8125 36.5312
Q39.5469 41.8438 41.4219 45.5312
Q43.3125 49.2188 43.3125 52.7812
Q43.3125 58.5938 39.2344 62.25
Q35.1562 65.9219 28.6094 65.9219
Q23.9688 65.9219 18.8125 64.3125
Q13.6719 62.7031 7.8125 59.4219
L7.8125 69.3906
Q13.7656 71.7812 18.9375 73
Q24.125 74.2188 28.4219 74.2188
Q39.75 74.2188 46.4844 68.5469
Q53.2188 62.8906 53.2188 53.4219
Q53.2188 48.9219 51.5312 44.8906
Q49.8594 40.875 45.4062 35.4062
Q44.1875 33.9844 37.6406 27.2188
Q31.1094 20.4531 19.1875 8.29688" id="DejaVuSans-32"/>
      </defs>
      <g transform="translate(183.2234375 372.23453125)scale(0.17 -0.17)">
       <use xlink:href="#DejaVuSans-2212"/>
       <use x="83.7890625" xlink:href="#DejaVuSans-32"/>
      </g>
     </g>
    </g>
    <g id="xtick_4">
     <g id="line2d_11">
      <path clip-path="url(#p176900f474)" d="
M247.843 355.317
L247.843 26.91" style="fill:none;stroke:#000000;stroke-dasharray:1.000000,3.000000;stroke-dashoffset:0.0;stroke-width:0.5;"/>
     </g>
     <g id="line2d_12">
      <g>
       <use style="stroke:#000000;stroke-width:0.5;" x="247.843125" xlink:href="#m93b0483c22" y="355.3171875"/>
      </g>
     </g>
     <g id="line2d_13">
      <g>
       <use style="stroke:#000000;stroke-width:0.5;" x="247.843125" xlink:href="#m741efc42ff" y="26.91"/>
      </g>
     </g>
     <g id="text_4">
      <!-- 0 -->
      <defs>
       <path d="
M31.7812 66.4062
Q24.1719 66.4062 20.3281 58.9062
Q16.5 51.4219 16.5 36.375
Q16.5 21.3906 20.3281 13.8906
Q24.1719 6.39062 31.7812 6.39062
Q39.4531 6.39062 43.2812 13.8906
Q47.125 21.3906 47.125 36.375
Q47.125 51.4219 43.2812 58.9062
Q39.4531 66.4062 31.7812 66.4062
M31.7812 74.2188
Q44.0469 74.2188 50.5156 64.5156
Q56.9844 54.8281 56.9844 36.375
Q56.9844 17.9688 50.5156 8.26562
Q44.0469 -1.42188 31.7812 -1.42188
Q19.5312 -1.42188 13.0625 8.26562
Q6.59375 17.9688 6.59375 36.375
Q6.59375 54.8281 13.0625 64.5156
Q19.5312 74.2188 31.7812 74.2188" id="DejaVuSans-30"/>
      </defs>
      <g transform="translate(243.559921875 372.23453125)scale(0.17 -0.17)">
       <use xlink:href="#DejaVuSans-30"/>
      </g>
     </g>
    </g>
    <g id="xtick_5">
     <g id="line2d_14">
      <path clip-path="url(#p176900f474)" d="
M301.684 355.317
L301.684 26.91" style="fill:none;stroke:#000000;stroke-dasharray:1.000000,3.000000;stroke-dashoffset:0.0;stroke-width:0.5;"/>
     </g>
     <g id="line2d_15">
      <g>
       <use style="stroke:#000000;stroke-width:0.5;" x="301.68375" xlink:href="#m93b0483c22" y="355.3171875"/>
      </g>
     </g>
     <g id="line2d_16">
      <g>
       <use style="stroke:#000000;stroke-width:0.5;" x="301.68375" xlink:href="#m741efc42ff" y="26.91"/>
      </g>
     </g>
     <g id="text_5">
      <!-- 2 -->
      <g transform="translate(297.74984375 372.23453125)scale(0.17 -0.17)">
       <use xlink:href="#DejaVuSans-32"/>
      </g>
     </g>
    </g>
    <g id="xtick_6">
     <g id="line2d_17">
      <path clip-path="url(#p176900f474)" d="
M355.524 355.317
L355.524 26.91" style="fill:none;stroke:#000000;stroke-dasharray:1.000000,3.000000;stroke-dashoffset:0.0;stroke-width:0.5;"/>
     </g>
     <g id="line2d_18">
      <g>
       <use style="stroke:#000000;stroke-width:0.5;" x="355.524375" xlink:href="#m93b0483c22" y="355.3171875"/>
      </g>
     </g>
     <g id="line2d_19">
      <g>
       <use style="stroke:#000000;stroke-width:0.5;" x="355.524375" xlink:href="#m741efc42ff" y="26.91"/>
      </g>
     </g>
     <g id="text_6">
      <!-- 4 -->
      <g transform="translate(351.00875 372.23453125)scale(0.17 -0.17)">
       <use xlink:href="#DejaVuSans-34"/>
      </g>
     </g>
    </g>
    <g id="xtick_7">
     <g id="line2d_20">
      <path clip-path="url(#p176900f474)" d="
M409.365 355.317
L409.365 26.91" style="fill:none;stroke:#000000;stroke-dasharray:1.000000,3.000000;stroke-dashoffset:0.0;stroke-width:0.5;"/>
     </g>
     <g id="line2d_21">
      <g>
       <use style="stroke:#000000;stroke-width:0.5;" x="409.365" xlink:href="#m93b0483c22" y="355.3171875"/>
      </g>
     </g>
     <g id="line2d_22">
      <g>
       <use style="stroke:#000000;stroke-width:0.5;" x="409.365" xlink:href="#m741efc42ff" y="26.91"/>
      </g>
     </g>
     <g id="text_7">
      <!-- 6 -->
      <g transform="translate(405.08578125 372.23453125)scale(0.17 -0.17)">
       <use xlink:href="#DejaVuSans-36"/>
      </g>
     </g>
    </g>
    <g id="xtick_8">
     <g id="line2d_23">
      <defs>
       <path d="
M0 0
L0 -2" id="m177f7580d0" style="stroke:#000000;stroke-width:0.5;"/>
      </defs>
      <g>
       <use style="stroke:#000000;stroke-width:0.5;" x="99.78140625" xlink:href="#m177f7580d0" y="355.3171875"/>
      </g>
     </g>
     <g id="line2d_24">
      <defs>
       <path d="
M0 0
L0 2" id="m5284c7e2a0" style="stroke:#000000;stroke-width:0.5;"/>
      </defs>
      <g>
       <use style="stroke:#000000;stroke-width:0.5;" x="99.78140625" xlink:href="#m5284c7e2a0" y="26.91"/>
      </g>
     </g>
    </g>
    <g id="xtick_9">
     <g id="line2d_25">
      <g>
       <use style="stroke:#000000;stroke-width:0.5;" x="113.2415625" xlink:href="#m177f7580d0" y="355.3171875"/>
      </g>
     </g>
     <g id="line2d_26">
      <g>
       <use style="stroke:#000000;stroke-width:0.5;" x="113.2415625" xlink:href="#m5284c7e2a0" y="26.91"/>
      </g>
     </g>
    </g>
    <g id="xtick_10">
     <g id="line2d_27">
      <g>
       <use style="stroke:#000000;stroke-width:0.5;" x="126.70171875" xlink:href="#m177f7580d0" y="355.3171875"/>
      </g>
     </g>
     <g id="line2d_28">
      <g>
       <use style="stroke:#000000;stroke-width:0.5;" x="126.70171875" xlink:href="#m5284c7e2a0" y="26.91"/>
      </g>
     </g>
    </g>
    <g id="xtick_11">
     <g id="line2d_29">
      <g>
       <use style="stroke:#000000;stroke-width:0.5;" x="153.62203125" xlink:href="#m177f7580d0" y="355.3171875"/>
      </g>
     </g>
     <g id="line2d_30">
      <g>
       <use style="stroke:#000000;stroke-width:0.5;" x="153.62203125" xlink:href="#m5284c7e2a0" y="26.91"/>
      </g>
     </g>
    </g>
    <g id="xtick_12">
     <g id="line2d_31">
      <g>
       <use style="stroke:#000000;stroke-width:0.5;" x="167.0821875" xlink:href="#m177f7580d0" y="355.3171875"/>
      </g>
     </g>
     <g id="line2d_32">
      <g>
       <use style="stroke:#000000;stroke-width:0.5;" x="167.0821875" xlink:href="#m5284c7e2a0" y="26.91"/>
      </g>
     </g>
    </g>
    <g id="xtick_13">
     <g id="line2d_33">
      <g>
       <use style="stroke:#000000;stroke-width:0.5;" x="180.54234375" xlink:href="#m177f7580d0" y="355.3171875"/>
      </g>
     </g>
     <g id="line2d_34">
      <g>
       <use style="stroke:#000000;stroke-width:0.5;" x="180.54234375" xlink:href="#m5284c7e2a0" y="26.91"/>
      </g>
     </g>
    </g>
    <g id="xtick_14">
     <g id="line2d_35">
      <g>
       <use style="stroke:#000000;stroke-width:0.5;" x="207.46265625" xlink:href="#m177f7580d0" y="355.3171875"/>
      </g>
     </g>
     <g id="line2d_36">
      <g>
       <use style="stroke:#000000;stroke-width:0.5;" x="207.46265625" xlink:href="#m5284c7e2a0" y="26.91"/>
      </g>
     </g>
    </g>
    <g id="xtick_15">
     <g id="line2d_37">
      <g>
       <use style="stroke:#000000;stroke-width:0.5;" x="220.9228125" xlink:href="#m177f7580d0" y="355.3171875"/>
      </g>
     </g>
     <g id="line2d_38">
      <g>
       <use style="stroke:#000000;stroke-width:0.5;" x="220.9228125" xlink:href="#m5284c7e2a0" y="26.91"/>
      </g>
     </g>
    </g>
    <g id="xtick_16">
     <g id="line2d_39">
      <g>
       <use style="stroke:#000000;stroke-width:0.5;" x="234.38296875" xlink:href="#m177f7580d0" y="355.3171875"/>
      </g>
     </g>
     <g id="line2d_40">
      <g>
       <use style="stroke:#000000;stroke-width:0.5;" x="234.38296875" xlink:href="#m5284c7e2a0" y="26.91"/>
      </g>
     </g>
    </g>
    <g id="xtick_17">
     <g id="line2d_41">
      <g>
       <use style="stroke:#000000;stroke-width:0.5;" x="261.30328125" xlink:href="#m177f7580d0" y="355.3171875"/>
      </g>
     </g>
     <g id="line2d_42">
      <g>
       <use style="stroke:#000000;stroke-width:0.5;" x="261.30328125" xlink:href="#m5284c7e2a0" y="26.91"/>
      </g>
     </g>
    </g>
    <g id="xtick_18">
     <g id="line2d_43">
      <g>
       <use style="stroke:#000000;stroke-width:0.5;" x="274.7634375" xlink:href="#m177f7580d0" y="355.3171875"/>
      </g>
     </g>
     <g id="line2d_44">
      <g>
       <use style="stroke:#000000;stroke-width:0.5;" x="274.7634375" xlink:href="#m5284c7e2a0" y="26.91"/>
      </g>
     </g>
    </g>
    <g id="xtick_19">
     <g id="line2d_45">
      <g>
       <use style="stroke:#000000;stroke-width:0.5;" x="288.22359375" xlink:href="#m177f7580d0" y="355.3171875"/>
      </g>
     </g>
     <g id="line2d_46">
      <g>
       <use style="stroke:#000000;stroke-width:0.5;" x="288.22359375" xlink:href="#m5284c7e2a0" y="26.91"/>
      </g>
     </g>
    </g>
    <g id="xtick_20">
     <g id="line2d_47">
      <g>
       <use style="stroke:#000000;stroke-width:0.5;" x="315.14390625" xlink:href="#m177f7580d0" y="355.3171875"/>
      </g>
     </g>
     <g id="line2d_48">
      <g>
       <use style="stroke:#000000;stroke-width:0.5;" x="315.14390625" xlink:href="#m5284c7e2a0" y="26.91"/>
      </g>
     </g>
    </g>
    <g id="xtick_21">
     <g id="line2d_49">
      <g>
       <use style="stroke:#000000;stroke-width:0.5;" x="328.6040625" xlink:href="#m177f7580d0" y="355.3171875"/>
      </g>
     </g>
     <g id="line2d_50">
      <g>
       <use style="stroke:#000000;stroke-width:0.5;" x="328.6040625" xlink:href="#m5284c7e2a0" y="26.91"/>
      </g>
     </g>
    </g>
    <g id="xtick_22">
     <g id="line2d_51">
      <g>
       <use style="stroke:#000000;stroke-width:0.5;" x="342.06421875" xlink:href="#m177f7580d0" y="355.3171875"/>
      </g>
     </g>
     <g id="line2d_52">
      <g>
       <use style="stroke:#000000;stroke-width:0.5;" x="342.06421875" xlink:href="#m5284c7e2a0" y="26.91"/>
      </g>
     </g>
    </g>
    <g id="xtick_23">
     <g id="line2d_53">
      <g>
       <use style="stroke:#000000;stroke-width:0.5;" x="368.98453125" xlink:href="#m177f7580d0" y="355.3171875"/>
      </g>
     </g>
     <g id="line2d_54">
      <g>
       <use style="stroke:#000000;stroke-width:0.5;" x="368.98453125" xlink:href="#m5284c7e2a0" y="26.91"/>
      </g>
     </g>
    </g>
    <g id="xtick_24">
     <g id="line2d_55">
      <g>
       <use style="stroke:#000000;stroke-width:0.5;" x="382.4446875" xlink:href="#m177f7580d0" y="355.3171875"/>
      </g>
     </g>
     <g id="line2d_56">
      <g>
       <use style="stroke:#000000;stroke-width:0.5;" x="382.4446875" xlink:href="#m5284c7e2a0" y="26.91"/>
      </g>
     </g>
    </g>
    <g id="xtick_25">
     <g id="line2d_57">
      <g>
       <use style="stroke:#000000;stroke-width:0.5;" x="395.90484375" xlink:href="#m177f7580d0" y="355.3171875"/>
      </g>
     </g>
     <g id="line2d_58">
      <g>
       <use style="stroke:#000000;stroke-width:0.5;" x="395.90484375" xlink:href="#m5284c7e2a0" y="26.91"/>
      </g>
     </g>
    </g>
    <g id="text_8">
     <!-- $\mathcal{C}_{10}$ -->
     <defs>
      <path d="
M9.28125 0
L9.28125 3.51562
Q21.7812 3.51562 21.7812 6.6875
L21.7812 59.1875
Q16.6094 56.6875 8.6875 56.6875
L8.6875 60.2031
Q20.9531 60.2031 27.2031 66.6094
L28.6094 66.6094
Q28.9531 66.6094 29.2656 66.3281
Q29.5938 66.0625 29.5938 65.7188
L29.5938 6.6875
Q29.5938 3.51562 42.0938 3.51562
L42.0938 0
z
" id="Cmr10-31"/>
      <path d="
M25 -2.20312
Q12.75 -2.20312 8.32812 7.875
Q3.90625 17.9688 3.90625 31.8906
Q3.90625 40.5781 5.48438 48.2344
Q7.07812 55.9062 11.7812 61.25
Q16.5 66.6094 25 66.6094
Q31.5938 66.6094 35.7812 63.375
Q39.9844 60.1562 42.1875 55.0469
Q44.3906 49.9531 45.1875 44.1094
Q46 38.2812 46 31.8906
Q46 23.2969 44.4062 15.7969
Q42.8281 8.29688 38.1875 3.04688
Q33.5469 -2.20312 25 -2.20312
M25 0.390625
Q30.5625 0.390625 33.2969 6.09375
Q36.0312 11.8125 36.6719 18.75
Q37.3125 25.6875 37.3125 33.5
Q37.3125 41.0156 36.6719 47.3594
Q36.0312 53.7188 33.3125 58.8594
Q30.6094 64.0156 25 64.0156
Q19.3438 64.0156 16.6094 58.8281
Q13.875 53.6562 13.2344 47.3281
Q12.5938 41.0156 12.5938 33.5
Q12.5938 27.9375 12.8594 23
Q13.1406 18.0625 14.3125 12.8125
Q15.4844 7.5625 18.0938 3.96875
Q20.7031 0.390625 25 0.390625" id="Cmr10-30"/>
      <path d="
M19.6719 -2.39062
Q14.9375 -2.39062 11.4375 -0.5625
Q7.95312 1.26562 5.64062 4.5625
Q3.32812 7.85938 2.26562 11.8125
Q1.21875 15.7656 1.21875 20.3125
Q1.21875 29.25 4.51562 38.3594
Q7.8125 47.4688 13.7656 54.7188
Q19.7344 61.9688 27.9062 66.2344
Q36.0781 70.5156 45.5156 70.5156
L46.0938 70.5156
Q49.3594 70.5156 51.3906 68.8438
Q53.4219 67.1875 53.4219 64.0156
Q53.4219 61.2344 51.8125 57.4688
Q50.2031 53.7188 47.9062 49.6094
Q46.8281 47.7969 44.6562 46.4844
Q42.4844 45.1719 40.1875 44.9219
L39.7031 44.9219
Q39.0156 45.2656 39.0156 45.6094
Q39.0156 46.0469 40.5938 49.1719
Q42.1875 52.2969 43.3281 55.0469
Q44.4844 57.8125 44.4844 59.8125
Q44.4844 62.25 42.9375 63.4219
Q41.4062 64.5938 38.8125 64.5938
Q31.4531 64.5938 26.4375 61.0781
Q21.4375 57.5625 17.3906 50.6875
Q14.0156 44.875 12.0625 38.1094
Q10.1094 31.3438 10.1094 24.6094
Q10.1094 19.0938 11.8594 14.2344
Q13.625 9.375 17.4219 6.4375
Q21.2344 3.51562 27 3.51562
Q33.0625 3.51562 37.7969 8.01562
Q38.4219 8.6875 40.4062 11.2969
Q42.3906 13.9219 44.0938 15.1406
Q45.7969 16.3594 48.4844 16.6094
L49.0312 16.6094
Q49.7031 16.2656 49.7031 15.8281
Q49.7031 15.4375 49.4219 14.9844
Q46.5781 10.2969 41.7969 6.29688
Q37.0156 2.29688 31.2969 -0.046875
Q25.5938 -2.39062 20.3125 -2.39062
z
" id="Cmsy10-43"/>
     </defs>
     <g transform="translate(229.393125 402.07)scale(0.3 -0.3)">
      <use transform="translate(0.0 0.484375)" xlink:href="#Cmsy10-43"/>
      <use transform="translate(52.587890625 -25.025)scale(0.7)" xlink:href="#Cmr10-31"/>
      <use transform="translate(87.587890625 -25.025)scale(0.7)" xlink:href="#Cmr10-30"/>
     </g>
    </g>
   </g>
   <g id="matplotlib.axis_2">
    <g id="ytick_1">
     <g id="line2d_59">
      <path clip-path="url(#p176900f474)" d="
M86.3213 355.317
L409.365 355.317" style="fill:none;stroke:#000000;stroke-dasharray:1.000000,3.000000;stroke-dashoffset:0.0;stroke-width:0.5;"/>
     </g>
     <g id="line2d_60">
      <defs>
       <path d="
M0 0
L4 0" id="m728421d6d4" style="stroke:#000000;stroke-width:0.5;"/>
      </defs>
      <g>
       <use style="stroke:#000000;stroke-width:0.5;" x="86.32125" xlink:href="#m728421d6d4" y="355.3171875"/>
      </g>
     </g>
     <g id="line2d_61">
      <defs>
       <path d="
M0 0
L-4 0" id="mcb0005524f" style="stroke:#000000;stroke-width:0.5;"/>
      </defs>
      <g>
       <use style="stroke:#000000;stroke-width:0.5;" x="409.365" xlink:href="#mcb0005524f" y="355.3171875"/>
      </g>
     </g>
     <g id="text_9">
      <!-- −6 -->
      <g transform="translate(60.1309375 360.008125)scale(0.17 -0.17)">
       <use xlink:href="#DejaVuSans-2212"/>
       <use x="83.7890625" xlink:href="#DejaVuSans-36"/>
      </g>
     </g>
    </g>
    <g id="ytick_2">
     <g id="line2d_62">
      <path clip-path="url(#p176900f474)" d="
M86.3213 300.583
L409.365 300.583" style="fill:none;stroke:#000000;stroke-dasharray:1.000000,3.000000;stroke-dashoffset:0.0;stroke-width:0.5;"/>
     </g>
     <g id="line2d_63">
      <g>
       <use style="stroke:#000000;stroke-width:0.5;" x="86.32125" xlink:href="#m728421d6d4" y="300.58265625"/>
      </g>
     </g>
     <g id="line2d_64">
      <g>
       <use style="stroke:#000000;stroke-width:0.5;" x="409.365" xlink:href="#mcb0005524f" y="300.58265625"/>
      </g>
     </g>
     <g id="text_10">
      <!-- −4 -->
      <g transform="translate(60.0140625 305.27359375)scale(0.17 -0.17)">
       <use xlink:href="#DejaVuSans-2212"/>
       <use x="83.7890625" xlink:href="#DejaVuSans-34"/>
      </g>
     </g>
    </g>
    <g id="ytick_3">
     <g id="line2d_65">
      <path clip-path="url(#p176900f474)" d="
M86.3213 245.848
L409.365 245.848" style="fill:none;stroke:#000000;stroke-dasharray:1.000000,3.000000;stroke-dashoffset:0.0;stroke-width:0.5;"/>
     </g>
     <g id="line2d_66">
      <g>
       <use style="stroke:#000000;stroke-width:0.5;" x="86.32125" xlink:href="#m728421d6d4" y="245.848125"/>
      </g>
     </g>
     <g id="line2d_67">
      <g>
       <use style="stroke:#000000;stroke-width:0.5;" x="409.365" xlink:href="#mcb0005524f" y="245.848125"/>
      </g>
     </g>
     <g id="text_11">
      <!-- −2 -->
      <g transform="translate(60.763125 250.5390625)scale(0.17 -0.17)">
       <use xlink:href="#DejaVuSans-2212"/>
       <use x="83.7890625" xlink:href="#DejaVuSans-32"/>
      </g>
     </g>
    </g>
    <g id="ytick_4">
     <g id="line2d_68">
      <path clip-path="url(#p176900f474)" d="
M86.3213 191.114
L409.365 191.114" style="fill:none;stroke:#000000;stroke-dasharray:1.000000,3.000000;stroke-dashoffset:0.0;stroke-width:0.5;"/>
     </g>
     <g id="line2d_69">
      <g>
       <use style="stroke:#000000;stroke-width:0.5;" x="86.32125" xlink:href="#m728421d6d4" y="191.11359375"/>
      </g>
     </g>
     <g id="line2d_70">
      <g>
       <use style="stroke:#000000;stroke-width:0.5;" x="409.365" xlink:href="#mcb0005524f" y="191.11359375"/>
      </g>
     </g>
     <g id="text_12">
      <!-- 0 -->
      <g transform="translate(73.75484375 195.80453125)scale(0.17 -0.17)">
       <use xlink:href="#DejaVuSans-30"/>
      </g>
     </g>
    </g>
    <g id="ytick_5">
     <g id="line2d_71">
      <path clip-path="url(#p176900f474)" d="
M86.3213 136.379
L409.365 136.379" style="fill:none;stroke:#000000;stroke-dasharray:1.000000,3.000000;stroke-dashoffset:0.0;stroke-width:0.5;"/>
     </g>
     <g id="line2d_72">
      <g>
       <use style="stroke:#000000;stroke-width:0.5;" x="86.32125" xlink:href="#m728421d6d4" y="136.3790625"/>
      </g>
     </g>
     <g id="line2d_73">
      <g>
       <use style="stroke:#000000;stroke-width:0.5;" x="409.365" xlink:href="#mcb0005524f" y="136.3790625"/>
      </g>
     </g>
     <g id="text_13">
      <!-- 2 -->
      <g transform="translate(74.4534375 141.07)scale(0.17 -0.17)">
       <use xlink:href="#DejaVuSans-32"/>
      </g>
     </g>
    </g>
    <g id="ytick_6">
     <g id="line2d_74">
      <path clip-path="url(#p176900f474)" d="
M86.3213 81.6445
L409.365 81.6445" style="fill:none;stroke:#000000;stroke-dasharray:1.000000,3.000000;stroke-dashoffset:0.0;stroke-width:0.5;"/>
     </g>
     <g id="line2d_75">
      <g>
       <use style="stroke:#000000;stroke-width:0.5;" x="86.32125" xlink:href="#m728421d6d4" y="81.64453125"/>
      </g>
     </g>
     <g id="line2d_76">
      <g>
       <use style="stroke:#000000;stroke-width:0.5;" x="409.365" xlink:href="#mcb0005524f" y="81.64453125"/>
      </g>
     </g>
     <g id="text_14">
      <!-- 4 -->
      <g transform="translate(73.29 86.33546875)scale(0.17 -0.17)">
       <use xlink:href="#DejaVuSans-34"/>
      </g>
     </g>
    </g>
    <g id="ytick_7">
     <g id="line2d_77">
      <path clip-path="url(#p176900f474)" d="
M86.3213 26.91
L409.365 26.91" style="fill:none;stroke:#000000;stroke-dasharray:1.000000,3.000000;stroke-dashoffset:0.0;stroke-width:0.5;"/>
     </g>
     <g id="line2d_78">
      <g>
       <use style="stroke:#000000;stroke-width:0.5;" x="86.32125" xlink:href="#m728421d6d4" y="26.91"/>
      </g>
     </g>
     <g id="line2d_79">
      <g>
       <use style="stroke:#000000;stroke-width:0.5;" x="409.365" xlink:href="#mcb0005524f" y="26.91"/>
      </g>
     </g>
     <g id="text_15">
      <!-- 6 -->
      <g transform="translate(73.7628125 31.6009375)scale(0.17 -0.17)">
       <use xlink:href="#DejaVuSans-36"/>
      </g>
     </g>
    </g>
    <g id="ytick_8">
     <g id="line2d_80">
      <defs>
       <path d="
M0 0
L2 0" id="mf0c55a9a47" style="stroke:#000000;stroke-width:0.5;"/>
      </defs>
      <g>
       <use style="stroke:#000000;stroke-width:0.5;" x="86.32125" xlink:href="#mf0c55a9a47" y="341.633554688"/>
      </g>
     </g>
     <g id="line2d_81">
      <defs>
       <path d="
M0 0
L-2 0" id="ma4f294b3af" style="stroke:#000000;stroke-width:0.5;"/>
      </defs>
      <g>
       <use style="stroke:#000000;stroke-width:0.5;" x="409.365" xlink:href="#ma4f294b3af" y="341.633554688"/>
      </g>
     </g>
    </g>
    <g id="ytick_9">
     <g id="line2d_82">
      <g>
       <use style="stroke:#000000;stroke-width:0.5;" x="86.32125" xlink:href="#mf0c55a9a47" y="327.949921875"/>
      </g>
     </g>
     <g id="line2d_83">
      <g>
       <use style="stroke:#000000;stroke-width:0.5;" x="409.365" xlink:href="#ma4f294b3af" y="327.949921875"/>
      </g>
     </g>
    </g>
    <g id="ytick_10">
     <g id="line2d_84">
      <g>
       <use style="stroke:#000000;stroke-width:0.5;" x="86.32125" xlink:href="#mf0c55a9a47" y="314.266289063"/>
      </g>
     </g>
     <g id="line2d_85">
      <g>
       <use style="stroke:#000000;stroke-width:0.5;" x="409.365" xlink:href="#ma4f294b3af" y="314.266289063"/>
      </g>
     </g>
    </g>
    <g id="ytick_11">
     <g id="line2d_86">
      <g>
       <use style="stroke:#000000;stroke-width:0.5;" x="86.32125" xlink:href="#mf0c55a9a47" y="286.899023437"/>
      </g>
     </g>
     <g id="line2d_87">
      <g>
       <use style="stroke:#000000;stroke-width:0.5;" x="409.365" xlink:href="#ma4f294b3af" y="286.899023437"/>
      </g>
     </g>
    </g>
    <g id="ytick_12">
     <g id="line2d_88">
      <g>
       <use style="stroke:#000000;stroke-width:0.5;" x="86.32125" xlink:href="#mf0c55a9a47" y="273.215390625"/>
      </g>
     </g>
     <g id="line2d_89">
      <g>
       <use style="stroke:#000000;stroke-width:0.5;" x="409.365" xlink:href="#ma4f294b3af" y="273.215390625"/>
      </g>
     </g>
    </g>
    <g id="ytick_13">
     <g id="line2d_90">
      <g>
       <use style="stroke:#000000;stroke-width:0.5;" x="86.32125" xlink:href="#mf0c55a9a47" y="259.531757813"/>
      </g>
     </g>
     <g id="line2d_91">
      <g>
       <use style="stroke:#000000;stroke-width:0.5;" x="409.365" xlink:href="#ma4f294b3af" y="259.531757813"/>
      </g>
     </g>
    </g>
    <g id="ytick_14">
     <g id="line2d_92">
      <g>
       <use style="stroke:#000000;stroke-width:0.5;" x="86.32125" xlink:href="#mf0c55a9a47" y="232.164492188"/>
      </g>
     </g>
     <g id="line2d_93">
      <g>
       <use style="stroke:#000000;stroke-width:0.5;" x="409.365" xlink:href="#ma4f294b3af" y="232.164492188"/>
      </g>
     </g>
    </g>
    <g id="ytick_15">
     <g id="line2d_94">
      <g>
       <use style="stroke:#000000;stroke-width:0.5;" x="86.32125" xlink:href="#mf0c55a9a47" y="218.480859375"/>
      </g>
     </g>
     <g id="line2d_95">
      <g>
       <use style="stroke:#000000;stroke-width:0.5;" x="409.365" xlink:href="#ma4f294b3af" y="218.480859375"/>
      </g>
     </g>
    </g>
    <g id="ytick_16">
     <g id="line2d_96">
      <g>
       <use style="stroke:#000000;stroke-width:0.5;" x="86.32125" xlink:href="#mf0c55a9a47" y="204.797226563"/>
      </g>
     </g>
     <g id="line2d_97">
      <g>
       <use style="stroke:#000000;stroke-width:0.5;" x="409.365" xlink:href="#ma4f294b3af" y="204.797226563"/>
      </g>
     </g>
    </g>
    <g id="ytick_17">
     <g id="line2d_98">
      <g>
       <use style="stroke:#000000;stroke-width:0.5;" x="86.32125" xlink:href="#mf0c55a9a47" y="177.429960937"/>
      </g>
     </g>
     <g id="line2d_99">
      <g>
       <use style="stroke:#000000;stroke-width:0.5;" x="409.365" xlink:href="#ma4f294b3af" y="177.429960937"/>
      </g>
     </g>
    </g>
    <g id="ytick_18">
     <g id="line2d_100">
      <g>
       <use style="stroke:#000000;stroke-width:0.5;" x="86.32125" xlink:href="#mf0c55a9a47" y="163.746328125"/>
      </g>
     </g>
     <g id="line2d_101">
      <g>
       <use style="stroke:#000000;stroke-width:0.5;" x="409.365" xlink:href="#ma4f294b3af" y="163.746328125"/>
      </g>
     </g>
    </g>
    <g id="ytick_19">
     <g id="line2d_102">
      <g>
       <use style="stroke:#000000;stroke-width:0.5;" x="86.32125" xlink:href="#mf0c55a9a47" y="150.062695313"/>
      </g>
     </g>
     <g id="line2d_103">
      <g>
       <use style="stroke:#000000;stroke-width:0.5;" x="409.365" xlink:href="#ma4f294b3af" y="150.062695313"/>
      </g>
     </g>
    </g>
    <g id="ytick_20">
     <g id="line2d_104">
      <g>
       <use style="stroke:#000000;stroke-width:0.5;" x="86.32125" xlink:href="#mf0c55a9a47" y="122.695429687"/>
      </g>
     </g>
     <g id="line2d_105">
      <g>
       <use style="stroke:#000000;stroke-width:0.5;" x="409.365" xlink:href="#ma4f294b3af" y="122.695429687"/>
      </g>
     </g>
    </g>
    <g id="ytick_21">
     <g id="line2d_106">
      <g>
       <use style="stroke:#000000;stroke-width:0.5;" x="86.32125" xlink:href="#mf0c55a9a47" y="109.011796875"/>
      </g>
     </g>
     <g id="line2d_107">
      <g>
       <use style="stroke:#000000;stroke-width:0.5;" x="409.365" xlink:href="#ma4f294b3af" y="109.011796875"/>
      </g>
     </g>
    </g>
    <g id="ytick_22">
     <g id="line2d_108">
      <g>
       <use style="stroke:#000000;stroke-width:0.5;" x="86.32125" xlink:href="#mf0c55a9a47" y="95.3281640625"/>
      </g>
     </g>
     <g id="line2d_109">
      <g>
       <use style="stroke:#000000;stroke-width:0.5;" x="409.365" xlink:href="#ma4f294b3af" y="95.3281640625"/>
      </g>
     </g>
    </g>
    <g id="ytick_23">
     <g id="line2d_110">
      <g>
       <use style="stroke:#000000;stroke-width:0.5;" x="86.32125" xlink:href="#mf0c55a9a47" y="67.9608984375"/>
      </g>
     </g>
     <g id="line2d_111">
      <g>
       <use style="stroke:#000000;stroke-width:0.5;" x="409.365" xlink:href="#ma4f294b3af" y="67.9608984375"/>
      </g>
     </g>
    </g>
    <g id="ytick_24">
     <g id="line2d_112">
      <g>
       <use style="stroke:#000000;stroke-width:0.5;" x="86.32125" xlink:href="#mf0c55a9a47" y="54.277265625"/>
      </g>
     </g>
     <g id="line2d_113">
      <g>
       <use style="stroke:#000000;stroke-width:0.5;" x="409.365" xlink:href="#ma4f294b3af" y="54.277265625"/>
      </g>
     </g>
    </g>
    <g id="ytick_25">
     <g id="line2d_114">
      <g>
       <use style="stroke:#000000;stroke-width:0.5;" x="86.32125" xlink:href="#mf0c55a9a47" y="40.5936328125"/>
      </g>
     </g>
     <g id="line2d_115">
      <g>
       <use style="stroke:#000000;stroke-width:0.5;" x="409.365" xlink:href="#ma4f294b3af" y="40.5936328125"/>
      </g>
     </g>
    </g>
    <g id="text_16">
     <!-- $\mathcal{C}_{10}^{\prime}$ -->
     <defs>
      <path d="
M3.51562 5.42188
Q2.875 5.60938 2.875 6.39062
L15.0938 51.8125
Q15.6719 53.6562 17.0781 54.7812
Q18.5 55.9062 20.3125 55.9062
Q22.6562 55.9062 24.4375 54.3594
Q26.2188 52.8281 26.2188 50.4844
Q26.2188 49.4688 25.6875 48.1875
L7.625 4.98438
Q7.28125 4.29688 6.6875 4.29688
Q6.15625 4.29688 5 4.78125
Q3.85938 5.28125 3.51562 5.42188" id="Cmsy10-30"/>
     </defs>
     <g transform="translate(46.6140625 209.56359375)rotate(-90.0)scale(0.3 -0.3)">
      <use transform="translate(0.0 0.859375)" xlink:href="#Cmsy10-43"/>
      <use transform="translate(52.587890625 45.865625)scale(0.7)" xlink:href="#Cmsy10-30"/>
      <use transform="translate(52.587890625 -24.65)scale(0.7)" xlink:href="#Cmr10-31"/>
      <use transform="translate(87.587890625 -24.65)scale(0.7)" xlink:href="#Cmr10-30"/>
     </g>
    </g>
   </g>
   <g id="patch_3">
    <path d="
M86.3212 26.91
L409.365 26.91" style="fill:none;stroke:#000000;"/>
   </g>
   <g id="patch_4">
    <path d="
M409.365 355.317
L409.365 26.91" style="fill:none;stroke:#000000;"/>
   </g>
   <g id="patch_5">
    <path d="
M86.3212 355.317
L409.365 355.317" style="fill:none;stroke:#000000;"/>
   </g>
   <g id="patch_6">
    <path d="
M86.3213 355.317
L86.3213 26.91" style="fill:none;stroke:#000000;"/>
   </g>
  </g>
 </g>
 <defs>
  <clipPath id="p176900f474">
   <rect height="328.4071875" width="323.04375" x="86.32125" y="26.91"/>
  </clipPath>
 </defs>
</svg>
