<?xml version="1.0" encoding="utf-8" standalone="no"?>
<!DOCTYPE svg PUBLIC "-//W3C//DTD SVG 1.1//EN"
  "http://www.w3.org/Graphics/SVG/1.1/DTD/svg11.dtd">
<!-- Created with matplotlib (http://matplotlib.org/) -->
<svg height="432pt" version="1.1" viewBox="0 0 432 432" width="432pt" xmlns="http://www.w3.org/2000/svg" xmlns:xlink="http://www.w3.org/1999/xlink">
 <defs>
  <style type="text/css">
*{stroke-linecap:butt;stroke-linejoin:round;}
  </style>
 </defs>
 <g id="figure_1">
  <g id="patch_1">
   <path d="
M0 432
L432 432
L432 0
L0 0
z
" style="fill:#ffffff;"/>
  </g>
  <g id="axes_1">
   <g id="patch_2">
    <path d="
M102.251 355.587
L401.209 355.587
L401.209 26.91
L102.251 26.91
z
" style="fill:#ffffff;"/>
   </g>
   <g id="PathCollection_1">
    <defs>
     <path d="
M102.251 -76.4128
L105.271 -76.4128
L108.291 -76.4128
L111.311 -76.4128
L114.33 -76.4128
L117.35 -76.4128
L120.37 -76.4128
L123.39 -76.4128
L126.409 -76.4128
L129.429 -76.4128
L132.449 -76.4128
L135.469 -76.4128
L138.489 -76.4128
L141.508 -76.4128
L144.528 -76.4128
L147.548 -76.4128
L150.568 -76.4128
L153.587 -76.4128
L156.607 -76.4128
L159.627 -76.4128
L162.647 -76.4128
L165.666 -76.4128
L168.686 -76.4128
L171.706 -76.4128
L174.726 -76.4128
L177.746 -76.4128
L180.765 -76.4128
L183.785 -76.4128
L186.805 -76.4128
L189.825 -76.4128
L192.844 -76.4128
L195.864 -76.4128
L198.884 -76.4128
L201.904 -76.4128
L204.924 -76.4128
L207.943 -76.4128
L210.963 -76.4128
L213.983 -76.4128
L217.003 -76.4128
L220.022 -76.4128
L223.042 -76.4128
L226.062 -76.4128
L229.082 -76.4128
L232.101 -76.4128
L235.121 -76.4128
L238.141 -76.4128
L241.161 -76.4128
L244.181 -76.4128
L247.2 -76.4128
L250.22 -76.4128
L253.24 -76.4128
L253.24 -76.4128
L256.26 -76.4128
L259.279 -79.7328
L259.279 -79.7328
L262.299 -83.0528
L262.299 -83.0528
L265.319 -86.3727
L265.319 -89.6927
L265.319 -89.6927
L268.339 -90.3455
L271.359 -89.9459
L274.378 -89.6948
L274.455 -89.6927
L277.398 -88.1408
L280.418 -86.3727
L283.438 -86.3727
L286.457 -89.6927
L286.457 -89.6927
L289.477 -93.0127
L289.477 -93.0127
L292.497 -96.3326
L292.497 -99.6526
L292.497 -99.6526
L295.517 -102.973
L295.517 -106.293
L295.517 -106.293
L298.536 -109.613
L298.536 -112.932
L298.536 -116.252
L298.536 -119.572
L298.536 -122.892
L298.536 -122.892
L301.556 -126.212
L301.556 -126.212
L304.576 -126.212
L307.596 -126.212
L310.616 -126.212
L313.635 -129.532
L313.635 -129.532
L316.655 -129.532
L319.675 -132.852
L319.675 -132.852
L322.695 -136.172
L322.695 -136.172
L325.714 -139.492
L325.714 -139.492
L328.734 -142.812
L328.734 -142.812
L331.754 -142.812
L334.774 -146.132
L334.774 -146.132
L337.794 -149.452
L337.794 -149.452
L340.813 -152.772
L340.813 -152.772
L343.833 -156.092
L343.833 -159.412
L343.833 -159.412
L346.853 -162.732
L346.853 -166.052
L346.853 -169.372
L346.853 -169.372
L349.873 -172.692
L349.873 -172.692
L352.892 -176.012
L352.892 -176.012
L355.912 -176.012
L358.932 -179.332
L358.932 -179.332
L361.952 -179.332
L364.971 -179.332
L367.991 -179.332
L371.011 -182.652
L371.011 -182.652
L374.031 -182.652
L377.051 -185.972
L377.051 -185.972
L380.07 -189.292
L380.07 -189.292
L383.09 -192.612
L383.09 -192.612
L386.11 -195.932
L386.11 -199.252
L386.11 -199.252
L389.13 -202.572
L389.13 -205.892
L389.13 -209.212
L389.13 -212.532
L389.13 -215.852
L389.13 -215.852
L392.149 -219.172
L392.149 -219.172
L395.169 -219.172
L398.189 -219.172
L401.209 -222.492
L401.209 -222.492
L401.209 -225.812
L401.209 -229.132
L401.209 -232.451
L401.209 -235.771
L401.209 -239.091
L401.209 -242.411
L401.209 -245.731
L401.209 -249.051
L401.209 -252.371
L401.209 -255.691
L401.209 -255.691
L401.209 -259.011
L401.209 -259.011
L401.209 -262.331
L401.209 -265.651
L401.209 -268.971
L401.209 -272.291
L401.209 -275.611
L401.209 -278.931
L401.209 -282.251
L401.209 -285.571
L401.209 -288.891
L401.209 -292.211
L401.209 -295.531
L401.209 -298.851
L401.209 -302.171
L401.209 -305.491
L401.209 -308.811
L401.209 -312.131
L401.209 -315.451
L401.209 -318.771
L401.209 -322.091
L401.209 -325.411
L401.209 -328.731
L401.209 -332.051
L401.209 -335.371
L401.209 -338.691
L401.209 -342.011
L401.209 -345.331
L401.209 -348.65
L401.209 -351.97
L401.209 -355.29
L401.209 -358.61
L401.209 -361.93
L401.209 -365.25
L401.209 -368.57
L401.209 -371.89
L401.209 -375.21
L401.209 -378.53
L401.209 -381.85
L401.209 -385.17
L401.209 -388.49
L401.209 -391.81
L401.209 -395.13
L401.209 -398.45
L401.209 -401.77
L401.209 -405.09
L398.189 -405.09
L395.169 -405.09
L392.149 -405.09
L389.13 -405.09
L386.11 -405.09
L383.09 -405.09
L380.07 -405.09
L377.051 -405.09
L374.031 -405.09
L371.011 -405.09
L367.991 -405.09
L364.971 -405.09
L361.952 -405.09
L358.932 -405.09
L355.912 -405.09
L352.892 -405.09
L349.873 -405.09
L346.853 -405.09
L343.833 -405.09
L340.813 -405.09
L337.794 -405.09
L334.774 -405.09
L331.754 -405.09
L328.734 -405.09
L325.714 -405.09
L322.695 -405.09
L319.675 -405.09
L316.655 -405.09
L313.635 -405.09
L310.616 -405.09
L307.596 -405.09
L304.576 -405.09
L301.556 -405.09
L298.536 -405.09
L295.517 -405.09
L292.497 -405.09
L289.477 -405.09
L286.457 -405.09
L283.438 -405.09
L280.418 -405.09
L277.398 -405.09
L274.378 -405.09
L271.359 -405.09
L268.339 -405.09
L265.319 -405.09
L262.299 -405.09
L259.279 -405.09
L256.26 -405.09
L253.24 -405.09
L250.22 -405.09
L247.2 -405.09
L244.181 -405.09
L241.161 -405.09
L238.141 -405.09
L238.141 -405.09
L235.121 -401.77
L235.121 -401.77
L232.101 -401.77
L229.082 -398.45
L229.082 -398.45
L226.062 -395.13
L226.062 -391.81
L226.062 -391.81
L223.042 -388.49
L223.042 -388.49
L220.022 -385.17
L220.022 -385.17
L217.003 -381.85
L217.003 -381.85
L213.983 -378.53
L213.983 -375.21
L213.983 -371.89
L213.983 -371.89
L210.963 -368.57
L210.963 -365.25
L210.963 -365.25
L207.943 -361.93
L207.943 -361.93
L204.924 -358.61
L204.924 -358.61
L201.904 -358.61
L198.884 -358.61
L195.864 -355.29
L195.864 -355.29
L192.844 -355.29
L189.825 -351.97
L189.825 -351.97
L186.805 -348.65
L186.805 -348.65
L183.785 -345.331
L183.785 -345.331
L180.765 -342.011
L180.765 -338.691
L180.765 -338.691
L177.746 -335.371
L177.746 -332.051
L177.746 -328.731
L177.746 -325.411
L177.746 -325.411
L174.726 -325.411
L171.706 -322.091
L171.706 -322.091
L168.686 -322.091
L165.794 -318.771
L165.666 -318.64
L162.764 -315.451
L162.647 -315.273
L159.627 -312.96
L156.607 -314.091
L153.587 -314.717
L150.568 -315.451
L147.548 -312.131
L147.548 -312.131
L144.528 -308.811
L144.528 -308.811
L141.508 -305.491
L141.508 -302.171
L141.508 -298.851
L141.508 -298.851
L138.489 -295.531
L138.489 -292.211
L138.489 -288.891
L138.489 -285.571
L138.489 -285.571
L135.469 -282.251
L135.469 -278.931
L135.469 -278.931
L132.449 -275.611
L132.449 -275.611
L129.429 -272.291
L129.429 -272.291
L126.409 -272.291
L123.39 -272.291
L120.37 -268.971
L120.37 -268.971
L117.35 -265.651
L117.35 -265.651
L114.33 -262.331
L114.33 -262.331
L111.311 -259.011
L111.311 -259.011
L108.291 -255.691
L108.291 -252.371
L108.291 -252.371
L105.271 -252.371
L102.251 -252.371
L102.251 -249.051
L102.251 -245.731
L102.251 -242.411
L102.251 -239.091
L102.251 -235.771
L102.251 -232.451
L102.251 -229.132
L102.251 -225.812
L102.251 -222.492
L102.251 -219.172
L102.251 -215.852
L102.251 -212.532
L102.251 -209.212
L102.251 -205.892
L102.251 -202.572
L102.251 -199.252
L102.251 -195.932
L102.251 -192.612
L102.251 -189.292
L102.251 -185.972
L102.251 -182.652
L102.251 -179.332
L102.251 -176.012
L102.251 -172.692
L102.251 -169.372
L102.251 -166.052
L102.251 -162.732
L102.251 -159.412
L102.251 -156.092
L102.251 -152.772
L102.251 -149.452
L102.251 -146.132
L102.251 -142.812
L102.251 -139.492
L102.251 -136.172
L102.251 -132.852
L102.251 -129.532
L102.251 -126.212
L102.251 -122.892
L102.251 -119.572
L102.251 -116.252
L102.251 -112.932
L102.251 -109.613
L102.251 -106.293
L102.251 -102.973
L102.251 -99.6526
L102.251 -96.3326
L102.251 -93.0127
L102.251 -89.6927
L102.251 -86.3727
L102.251 -83.0528
L102.251 -79.7328
L102.251 -76.4128
M162.647 -122.507
L161.681 -122.892
L159.627 -123.582
L156.607 -125.243
L155.376 -126.212
L153.587 -127.668
L151.707 -129.532
L150.568 -130.678
L148.412 -132.852
L147.548 -133.651
L144.759 -136.172
L144.528 -136.387
L141.508 -139.213
L141.171 -139.492
L138.564 -142.812
L138.489 -143.052
L137.144 -146.132
L137.186 -149.452
L137.549 -152.772
L137.561 -156.092
L137.14 -159.412
L136.554 -162.732
L136.087 -166.052
L135.946 -169.372
L136.21 -172.692
L136.904 -176.012
L138.075 -179.332
L138.489 -180.123
L139.875 -182.652
L141.508 -185.022
L142.071 -185.972
L144.124 -189.292
L144.528 -190
L145.576 -192.612
L146.624 -195.932
L147.494 -199.252
L147.548 -199.436
L148.332 -202.572
L149.647 -205.892
L150.568 -207.448
L151.674 -209.212
L153.587 -211.653
L154.279 -212.532
L156.607 -215.33
L157.031 -215.852
L159.627 -219
L159.771 -219.172
L162.458 -222.492
L162.647 -222.748
L164.86 -225.812
L165.666 -227.082
L166.877 -229.132
L168.686 -232.356
L168.732 -232.451
L170.345 -235.771
L171.706 -238.017
L172.227 -239.091
L174.46 -242.411
L174.726 -242.72
L177.445 -245.731
L177.746 -246.008
L180.765 -248.338
L182.05 -249.051
L183.785 -250.165
L186.805 -251.892
L187.513 -252.371
L189.825 -254.446
L190.963 -255.691
L192.844 -258.1
L193.49 -259.011
L195.75 -262.331
L195.864 -262.508
L198.036 -265.651
L198.884 -266.787
L200.8 -268.971
L201.904 -270.216
L203.739 -272.291
L204.924 -273.811
L205.989 -275.611
L207.77 -278.931
L207.943 -279.229
L209.493 -282.251
L210.963 -284.285
L212.026 -285.571
L213.983 -287.485
L215.814 -288.891
L217.003 -289.808
L220.022 -291.873
L220.501 -292.211
L223.042 -294.132
L224.847 -295.531
L226.062 -296.511
L228.782 -298.851
L229.082 -299.126
L232.021 -302.171
L232.101 -302.26
L234.732 -305.491
L235.121 -305.974
L237.295 -308.811
L238.141 -309.889
L239.792 -312.131
L241.161 -313.995
L242.164 -315.451
L244.181 -318.258
L244.566 -318.771
L247.2 -321.843
L247.464 -322.091
L250.22 -324.473
L251.629 -325.411
L253.24 -326.532
L256.26 -328.472
L256.636 -328.731
L259.279 -330.754
L261.058 -332.051
L262.299 -333.072
L265.319 -335.306
L265.408 -335.371
L268.339 -337.918
L269.242 -338.691
L271.359 -340.884
L272.49 -342.011
L274.378 -344.047
L275.695 -345.331
L277.398 -347.075
L279.154 -348.65
L280.418 -349.903
L282.731 -351.97
L283.438 -352.645
L286.457 -355.194
L286.583 -355.29
L289.477 -357.473
L291.197 -358.61
L292.497 -359.45
L295.517 -361.171
L297.074 -361.93
L298.536 -362.68
L301.556 -364.006
L304.576 -365.17
L304.776 -365.25
L307.596 -366.498
L310.616 -368.061
L311.42 -368.57
L313.635 -369.96
L316.655 -371.772
L316.912 -371.89
L319.675 -373.134
L322.695 -373.865
L325.714 -374.062
L328.734 -373.96
L331.754 -373.753
L334.774 -373.334
L337.794 -372.222
L338.282 -371.89
L340.813 -369.78
L341.903 -368.57
L343.833 -366.2
L344.712 -365.25
L346.853 -363.219
L349.072 -361.93
L349.873 -361.582
L352.892 -360.501
L355.912 -358.924
L356.286 -358.61
L358.932 -356.687
L360.277 -355.29
L361.952 -353.788
L363.552 -351.97
L364.971 -350.315
L366.164 -348.65
L367.811 -345.331
L367.991 -344.597
L368.685 -342.011
L368.829 -338.691
L368.479 -335.371
L367.991 -332.21
L367.965 -332.051
L367.645 -328.731
L367.518 -325.411
L367.461 -322.091
L367.434 -318.771
L367.403 -315.451
L367.247 -312.131
L366.827 -308.811
L366.097 -305.491
L365.063 -302.171
L364.971 -301.938
L363.923 -298.851
L362.495 -295.531
L361.952 -294.46
L360.918 -292.211
L359.297 -288.891
L358.932 -288.134
L357.856 -285.571
L356.508 -282.251
L355.912 -280.869
L355.151 -278.931
L353.673 -275.611
L352.892 -274.124
L351.948 -272.291
L349.873 -269.113
L349.778 -268.971
L347.037 -265.651
L346.853 -265.455
L343.833 -262.445
L343.715 -262.331
L340.813 -259.46
L340.376 -259.011
L337.794 -256.181
L337.379 -255.691
L334.774 -252.624
L334.566 -252.371
L331.764 -249.051
L331.754 -249.039
L329.279 -245.731
L328.734 -244.946
L327.119 -242.411
L325.714 -240.215
L325 -239.091
L322.758 -235.771
L322.695 -235.677
L320.476 -232.451
L319.675 -231.343
L318.037 -229.132
L316.655 -227.597
L315.043 -225.812
L313.635 -224.491
L311.767 -222.492
L310.616 -221.319
L308.769 -219.172
L307.596 -217.82
L305.904 -215.852
L304.576 -214.357
L302.783 -212.532
L301.556 -211.319
L299.18 -209.212
L298.536 -208.613
L295.529 -205.892
L295.517 -205.879
L292.497 -202.572
L292.497 -202.572
L289.751 -199.252
L289.477 -198.941
L286.64 -195.932
L286.457 -195.753
L283.438 -192.929
L283.09 -192.612
L280.418 -190.013
L279.706 -189.292
L277.398 -186.759
L276.71 -185.972
L274.378 -183.191
L273.926 -182.652
L271.359 -179.596
L271.131 -179.332
L268.339 -176.255
L268.104 -176.012
L265.319 -173.303
L264.627 -172.692
L262.299 -170.579
L260.878 -169.372
L259.279 -167.813
L257.431 -166.052
L256.26 -164.677
L254.518 -162.732
L253.24 -161.153
L251.591 -159.412
L250.22 -158.074
L247.641 -156.092
L247.2 -155.781
L244.181 -153.549
L243.345 -152.772
L241.161 -150.702
L240.106 -149.452
L238.141 -147.27
L237.175 -146.132
L235.121 -143.998
L233.844 -142.812
L232.101 -141.288
L229.508 -139.492
L229.082 -139.188
L226.062 -137.432
L223.41 -136.172
L223.042 -135.964
L220.022 -134.322
L217.32 -132.852
L217.003 -132.641
L213.983 -130.784
L211.653 -129.532
L210.963 -129.115
L207.943 -127.417
L205.822 -126.212
L204.924 -125.58
L201.904 -123.412
L200.984 -122.892
L198.884 -120.79
L195.864 -119.589
L192.844 -119.867
L189.825 -120.333
L186.805 -120.463
L183.785 -120.409
L180.765 -120.434
L177.746 -120.645
L174.726 -120.943
L171.706 -121.176
L168.686 -121.381
L165.666 -121.778
L162.647 -122.507
M156.607 -295.329
L153.597 -295.531
L156.607 -298.842
L159.627 -298.846
L159.629 -295.531
L159.627 -295.529
L156.607 -295.329
M247.2 -384.775
L244.181 -385.17
L247.2 -388.49
L247.2 -388.49
L250.22 -391.81
L253.24 -391.81
L253.906 -388.49
L253.24 -388.194
L250.22 -386.583
L248.124 -385.17
L247.2 -384.775
M256.26 -390.926
L253.24 -391.81
L256.26 -395.13
L256.793 -391.81
L256.26 -390.926
M313.635 -152.772
L312.57 -156.092
L311.574 -159.412
L313.631 -162.732
L313.635 -162.735
L316.655 -162.736
L319.675 -162.732
L316.655 -159.412
L316.655 -159.412
L316.655 -156.092
L313.635 -152.772
M361.952 -182.652
L361.838 -185.972
L361.865 -189.292
L361.888 -192.612
L361.917 -195.932
L358.932 -195.94
L357.047 -199.252
L358.932 -199.252
L361.952 -202.572
L361.952 -202.572
L364.971 -202.572
L367.991 -205.892
L367.991 -205.892
L371.011 -209.212
L371.011 -209.212
L374.031 -209.212
L374.031 -205.892
L374.031 -202.572
L374.031 -199.252
L371.011 -195.932
L371.011 -195.932
L371.011 -192.612
L367.991 -189.292
L367.991 -189.292
L364.971 -185.972
L364.971 -185.972
L361.952 -182.652" id="C0_0_6f7044316d"/>
    </defs>
    <g clip-path="url(#p78f435c08d)">
     <use style="fill:#ffffff;" x="0.0" xlink:href="#C0_0_6f7044316d" y="432.0"/>
    </g>
   </g>
   <g id="PathCollection_2">
    <defs>
     <path d="
M162.647 -122.507
L165.666 -121.778
L168.686 -121.381
L171.706 -121.176
L174.726 -120.943
L177.746 -120.645
L180.765 -120.434
L183.785 -120.409
L186.805 -120.463
L189.825 -120.333
L192.844 -119.867
L195.864 -119.589
L198.884 -120.79
L200.984 -122.892
L201.904 -123.412
L204.924 -125.58
L205.822 -126.212
L207.943 -127.417
L210.963 -129.115
L211.653 -129.532
L213.983 -130.784
L217.003 -132.641
L217.32 -132.852
L220.022 -134.322
L223.042 -135.964
L223.41 -136.172
L226.062 -137.432
L229.082 -139.188
L229.508 -139.492
L232.101 -141.288
L233.844 -142.812
L235.121 -143.998
L237.175 -146.132
L238.141 -147.27
L240.106 -149.452
L241.161 -150.702
L243.345 -152.772
L244.181 -153.549
L247.2 -155.781
L247.641 -156.092
L250.22 -158.074
L251.591 -159.412
L253.24 -161.153
L254.518 -162.732
L256.26 -164.677
L257.431 -166.052
L259.279 -167.813
L260.878 -169.372
L262.299 -170.579
L264.627 -172.692
L265.319 -173.303
L268.104 -176.012
L268.339 -176.255
L271.131 -179.332
L271.359 -179.596
L273.926 -182.652
L274.378 -183.191
L276.71 -185.972
L277.398 -186.759
L279.706 -189.292
L280.418 -190.013
L283.09 -192.612
L283.438 -192.929
L286.457 -195.753
L286.64 -195.932
L289.477 -198.941
L289.751 -199.252
L292.497 -202.572
L292.497 -202.572
L295.517 -205.879
L295.529 -205.892
L298.536 -208.613
L299.18 -209.212
L301.556 -211.319
L302.783 -212.532
L304.576 -214.357
L305.904 -215.852
L307.596 -217.82
L308.769 -219.172
L310.616 -221.319
L311.767 -222.492
L313.635 -224.491
L315.043 -225.812
L316.655 -227.597
L318.037 -229.132
L319.675 -231.343
L320.476 -232.451
L322.695 -235.677
L322.758 -235.771
L325 -239.091
L325.714 -240.215
L327.119 -242.411
L328.734 -244.946
L329.279 -245.731
L331.754 -249.039
L331.764 -249.051
L334.566 -252.371
L334.774 -252.624
L337.379 -255.691
L337.794 -256.181
L340.376 -259.011
L340.813 -259.46
L343.715 -262.331
L343.833 -262.445
L346.853 -265.455
L347.037 -265.651
L349.778 -268.971
L349.873 -269.113
L351.948 -272.291
L352.892 -274.124
L353.673 -275.611
L355.151 -278.931
L355.912 -280.869
L356.508 -282.251
L357.856 -285.571
L358.932 -288.134
L359.297 -288.891
L360.918 -292.211
L361.952 -294.46
L362.495 -295.531
L363.923 -298.851
L364.971 -301.938
L365.063 -302.171
L366.097 -305.491
L366.827 -308.811
L367.247 -312.131
L367.403 -315.451
L367.434 -318.771
L367.461 -322.091
L367.518 -325.411
L367.645 -328.731
L367.965 -332.051
L367.991 -332.21
L368.479 -335.371
L368.829 -338.691
L368.685 -342.011
L367.991 -344.597
L367.811 -345.331
L366.164 -348.65
L364.971 -350.315
L363.552 -351.97
L361.952 -353.788
L360.277 -355.29
L358.932 -356.687
L356.286 -358.61
L355.912 -358.924
L352.892 -360.501
L349.873 -361.582
L349.072 -361.93
L346.853 -363.219
L344.712 -365.25
L343.833 -366.2
L341.903 -368.57
L340.813 -369.78
L338.282 -371.89
L337.794 -372.222
L334.774 -373.334
L331.754 -373.753
L328.734 -373.96
L325.714 -374.062
L322.695 -373.865
L319.675 -373.134
L316.912 -371.89
L316.655 -371.772
L313.635 -369.96
L311.42 -368.57
L310.616 -368.061
L307.596 -366.498
L304.776 -365.25
L304.576 -365.17
L301.556 -364.006
L298.536 -362.68
L297.074 -361.93
L295.517 -361.171
L292.497 -359.45
L291.197 -358.61
L289.477 -357.473
L286.583 -355.29
L286.457 -355.194
L283.438 -352.645
L282.731 -351.97
L280.418 -349.903
L279.154 -348.65
L277.398 -347.075
L275.695 -345.331
L274.378 -344.047
L272.49 -342.011
L271.359 -340.884
L269.242 -338.691
L268.339 -337.918
L265.408 -335.371
L265.319 -335.306
L262.299 -333.072
L261.058 -332.051
L259.279 -330.754
L256.636 -328.731
L256.26 -328.472
L253.24 -326.532
L251.629 -325.411
L250.22 -324.473
L247.464 -322.091
L247.2 -321.843
L244.566 -318.771
L244.181 -318.258
L242.164 -315.451
L241.161 -313.995
L239.792 -312.131
L238.141 -309.889
L237.295 -308.811
L235.121 -305.974
L234.732 -305.491
L232.101 -302.26
L232.021 -302.171
L229.082 -299.126
L228.782 -298.851
L226.062 -296.511
L224.847 -295.531
L223.042 -294.132
L220.501 -292.211
L220.022 -291.873
L217.003 -289.808
L215.814 -288.891
L213.983 -287.485
L212.026 -285.571
L210.963 -284.285
L209.493 -282.251
L207.943 -279.229
L207.77 -278.931
L205.989 -275.611
L204.924 -273.811
L203.739 -272.291
L201.904 -270.216
L200.8 -268.971
L198.884 -266.787
L198.036 -265.651
L195.864 -262.508
L195.75 -262.331
L193.49 -259.011
L192.844 -258.1
L190.963 -255.691
L189.825 -254.446
L187.513 -252.371
L186.805 -251.892
L183.785 -250.165
L182.05 -249.051
L180.765 -248.338
L177.746 -246.008
L177.445 -245.731
L174.726 -242.72
L174.46 -242.411
L172.227 -239.091
L171.706 -238.017
L170.345 -235.771
L168.732 -232.451
L168.686 -232.356
L166.877 -229.132
L165.666 -227.082
L164.86 -225.812
L162.647 -222.748
L162.458 -222.492
L159.771 -219.172
L159.627 -219
L157.031 -215.852
L156.607 -215.33
L154.279 -212.532
L153.587 -211.653
L151.674 -209.212
L150.568 -207.448
L149.647 -205.892
L148.332 -202.572
L147.548 -199.436
L147.494 -199.252
L146.624 -195.932
L145.576 -192.612
L144.528 -190
L144.124 -189.292
L142.071 -185.972
L141.508 -185.022
L139.875 -182.652
L138.489 -180.123
L138.075 -179.332
L136.904 -176.012
L136.21 -172.692
L135.946 -169.372
L136.087 -166.052
L136.554 -162.732
L137.14 -159.412
L137.561 -156.092
L137.549 -152.772
L137.186 -149.452
L137.144 -146.132
L138.489 -143.052
L138.564 -142.812
L141.171 -139.492
L141.508 -139.213
L144.528 -136.387
L144.759 -136.172
L147.548 -133.651
L148.412 -132.852
L150.568 -130.678
L151.707 -129.532
L153.587 -127.668
L155.376 -126.212
L156.607 -125.243
L159.627 -123.582
L161.681 -122.892
L162.647 -122.507
M183.785 -162.719
L183.763 -162.732
L180.765 -165.367
L179.834 -166.052
L178.146 -169.372
L178.472 -172.692
L178.784 -176.012
L178.718 -179.332
L178.445 -182.652
L178.264 -185.972
L178.375 -189.292
L178.77 -192.612
L179.344 -195.932
L179.948 -199.252
L180.412 -202.572
L180.765 -205.892
L180.765 -205.892
L181.246 -209.212
L182.282 -212.532
L183.785 -215.79
L183.814 -215.852
L185.435 -219.172
L186.775 -222.492
L186.805 -222.576
L188.036 -225.812
L189.592 -229.132
L189.825 -229.48
L192.415 -232.451
L192.844 -232.795
L195.864 -235.465
L196.13 -235.771
L198.83 -239.091
L198.884 -239.165
L200.767 -242.411
L201.904 -244.376
L202.678 -245.731
L204.924 -249.028
L204.941 -249.051
L207.904 -252.371
L207.943 -252.411
L210.963 -255.224
L211.48 -255.691
L213.983 -257.959
L215.145 -259.011
L217.003 -260.82
L218.659 -262.331
L220.022 -263.71
L222.202 -265.651
L223.042 -266.491
L225.623 -268.971
L226.062 -269.444
L228.448 -272.291
L229.082 -273.07
L231.013 -275.611
L232.101 -276.908
L233.81 -278.931
L235.121 -280.355
L236.895 -282.251
L238.141 -283.623
L239.81 -285.571
L241.161 -287.288
L242.334 -288.891
L244.181 -291.405
L244.798 -292.211
L247.2 -295.031
L247.694 -295.531
L250.22 -297.937
L251.346 -298.851
L253.24 -300.409
L255.726 -302.171
L256.26 -302.567
L259.279 -304.667
L260.377 -305.491
L262.299 -307.05
L264.276 -308.811
L265.319 -309.816
L267.896 -312.131
L268.339 -312.534
L271.359 -314.864
L272.204 -315.451
L274.378 -316.963
L276.863 -318.771
L277.398 -319.137
L280.418 -321.005
L283.083 -322.091
L283.438 -322.227
L286.457 -322.664
L289.477 -322.597
L292.497 -322.284
L294.373 -322.091
L295.517 -321.984
L298.536 -321.821
L301.556 -321.823
L304.576 -322.059
L304.75 -322.091
L307.596 -322.643
L310.616 -323.489
L313.635 -324.428
L316.655 -325.294
L317.246 -325.411
L319.675 -325.894
L322.695 -325.965
L324.6 -325.411
L325.714 -324.889
L327.845 -322.091
L328.734 -319.096
L328.81 -318.771
L329.189 -315.451
L329.399 -312.131
L329.508 -308.811
L329.43 -305.491
L329.105 -302.171
L328.734 -300.012
L328.57 -298.851
L327.839 -295.531
L326.762 -292.211
L325.714 -289.729
L325.315 -288.891
L323.642 -285.571
L322.695 -283.66
L322.018 -282.251
L320.69 -278.931
L319.715 -275.611
L319.675 -275.391
L319.212 -272.291
L318.789 -268.971
L318.037 -265.651
L316.655 -262.351
L316.647 -262.331
L314.702 -259.011
L313.635 -257.437
L312.529 -255.691
L310.616 -252.999
L310.201 -252.371
L307.683 -249.051
L307.596 -248.941
L305.241 -245.731
L304.576 -244.709
L303.069 -242.411
L301.556 -239.725
L301.134 -239.091
L298.984 -235.771
L298.536 -235.151
L296.252 -232.451
L295.517 -231.667
L293.189 -229.132
L292.497 -228.393
L290.387 -225.812
L289.477 -224.726
L287.891 -222.492
L286.457 -220.526
L285.545 -219.172
L283.438 -216.224
L283.153 -215.852
L280.433 -212.532
L280.418 -212.515
L277.398 -209.842
L276.639 -209.212
L274.378 -207.474
L272.791 -205.892
L271.359 -204.552
L269.594 -202.572
L268.339 -201.244
L266.26 -199.252
L265.319 -198.339
L262.299 -196.019
L262.157 -195.932
L259.279 -193.67
L258.004 -192.612
L256.26 -190.793
L254.81 -189.292
L253.24 -187.665
L251.085 -185.972
L250.22 -185.369
L247.2 -183.764
L244.876 -182.652
L244.181 -182.317
L241.161 -180.627
L239.065 -179.332
L238.141 -178.732
L235.121 -176.646
L234.216 -176.012
L232.101 -174.312
L230.099 -172.692
L229.082 -171.74
L226.249 -169.372
L226.062 -169.212
L223.042 -167.208
L220.268 -166.052
L220.022 -165.958
L217.003 -165.21
L213.983 -164.782
L210.963 -164.448
L207.943 -164.001
L204.924 -163.33
L202.847 -162.732
L201.904 -162.44
L198.884 -161.495
L195.864 -160.789
L192.844 -160.446
L189.825 -160.558
L186.805 -161.257
L183.785 -162.719" id="C1_0_1371d5739c"/>
    </defs>
    <g clip-path="url(#p78f435c08d)">
     <use style="fill:#0000ff;fill-opacity:0.5;" x="0.0" xlink:href="#C1_0_1371d5739c" y="432.0"/>
    </g>
   </g>
   <g id="PathCollection_3">
    <defs>
     <path d="
M183.785 -162.719
L186.805 -161.257
L189.825 -160.558
L192.844 -160.446
L195.864 -160.789
L198.884 -161.495
L201.904 -162.44
L202.847 -162.732
L204.924 -163.33
L207.943 -164.001
L210.963 -164.448
L213.983 -164.782
L217.003 -165.21
L220.022 -165.958
L220.268 -166.052
L223.042 -167.208
L226.062 -169.212
L226.249 -169.372
L229.082 -171.74
L230.099 -172.692
L232.101 -174.312
L234.216 -176.012
L235.121 -176.646
L238.141 -178.732
L239.065 -179.332
L241.161 -180.627
L244.181 -182.317
L244.876 -182.652
L247.2 -183.764
L250.22 -185.369
L251.085 -185.972
L253.24 -187.665
L254.81 -189.292
L256.26 -190.793
L258.004 -192.612
L259.279 -193.67
L262.157 -195.932
L262.299 -196.019
L265.319 -198.339
L266.26 -199.252
L268.339 -201.244
L269.594 -202.572
L271.359 -204.552
L272.791 -205.892
L274.378 -207.474
L276.639 -209.212
L277.398 -209.842
L280.418 -212.515
L280.433 -212.532
L283.153 -215.852
L283.438 -216.224
L285.545 -219.172
L286.457 -220.526
L287.891 -222.492
L289.477 -224.726
L290.387 -225.812
L292.497 -228.393
L293.189 -229.132
L295.517 -231.667
L296.252 -232.451
L298.536 -235.151
L298.984 -235.771
L301.134 -239.091
L301.556 -239.725
L303.069 -242.411
L304.576 -244.709
L305.241 -245.731
L307.596 -248.941
L307.683 -249.051
L310.201 -252.371
L310.616 -252.999
L312.529 -255.691
L313.635 -257.437
L314.702 -259.011
L316.647 -262.331
L316.655 -262.351
L318.037 -265.651
L318.789 -268.971
L319.212 -272.291
L319.675 -275.391
L319.715 -275.611
L320.69 -278.931
L322.018 -282.251
L322.695 -283.66
L323.642 -285.571
L325.315 -288.891
L325.714 -289.729
L326.762 -292.211
L327.839 -295.531
L328.57 -298.851
L328.734 -300.012
L329.105 -302.171
L329.43 -305.491
L329.508 -308.811
L329.399 -312.131
L329.189 -315.451
L328.81 -318.771
L328.734 -319.096
L327.845 -322.091
L325.714 -324.889
L324.6 -325.411
L322.695 -325.965
L319.675 -325.894
L317.246 -325.411
L316.655 -325.294
L313.635 -324.428
L310.616 -323.489
L307.596 -322.643
L304.75 -322.091
L304.576 -322.059
L301.556 -321.823
L298.536 -321.821
L295.517 -321.984
L294.373 -322.091
L292.497 -322.284
L289.477 -322.597
L286.457 -322.664
L283.438 -322.227
L283.083 -322.091
L280.418 -321.005
L277.398 -319.137
L276.863 -318.771
L274.378 -316.963
L272.204 -315.451
L271.359 -314.864
L268.339 -312.534
L267.896 -312.131
L265.319 -309.816
L264.276 -308.811
L262.299 -307.05
L260.377 -305.491
L259.279 -304.667
L256.26 -302.567
L255.726 -302.171
L253.24 -300.409
L251.346 -298.851
L250.22 -297.937
L247.694 -295.531
L247.2 -295.031
L244.798 -292.211
L244.181 -291.405
L242.334 -288.891
L241.161 -287.288
L239.81 -285.571
L238.141 -283.623
L236.895 -282.251
L235.121 -280.355
L233.81 -278.931
L232.101 -276.908
L231.013 -275.611
L229.082 -273.07
L228.448 -272.291
L226.062 -269.444
L225.623 -268.971
L223.042 -266.491
L222.202 -265.651
L220.022 -263.71
L218.659 -262.331
L217.003 -260.82
L215.145 -259.011
L213.983 -257.959
L211.48 -255.691
L210.963 -255.224
L207.943 -252.411
L207.904 -252.371
L204.941 -249.051
L204.924 -249.028
L202.678 -245.731
L201.904 -244.376
L200.767 -242.411
L198.884 -239.165
L198.83 -239.091
L196.13 -235.771
L195.864 -235.465
L192.844 -232.795
L192.415 -232.451
L189.825 -229.48
L189.592 -229.132
L188.036 -225.812
L186.805 -222.576
L186.775 -222.492
L185.435 -219.172
L183.814 -215.852
L183.785 -215.79
L182.282 -212.532
L181.246 -209.212
L180.765 -205.892
L180.765 -205.892
L180.412 -202.572
L179.948 -199.252
L179.344 -195.932
L178.77 -192.612
L178.375 -189.292
L178.264 -185.972
L178.445 -182.652
L178.718 -179.332
L178.784 -176.012
L178.472 -172.692
L178.146 -169.372
L179.834 -166.052
L180.765 -165.367
L183.763 -162.732
L183.785 -162.719" id="C2_0_695f93acb4"/>
    </defs>
    <g clip-path="url(#p78f435c08d)">
     <use style="fill:#0000ff;" x="0.0" xlink:href="#C2_0_695f93acb4" y="432.0"/>
    </g>
   </g>
   <g id="line2d_1">
    <path clip-path="url(#p78f435c08d)" d="
M251.73 191.249" style="fill:none;stroke:#fa8072;stroke-linecap:square;"/>
    <defs>
     <path d="
M-7.5 0
L7.5 0
M0 7.5
L0 -7.5" id="m415119b0dc" style="stroke:#fa8072;stroke-width:3;"/>
    </defs>
    <g clip-path="url(#p78f435c08d)">
     <use style="fill:#fa8072;stroke:#fa8072;stroke-width:3;" x="251.73" xlink:href="#m415119b0dc" y="191.24859375"/>
    </g>
   </g>
   <g id="matplotlib.axis_1">
    <g id="xtick_1">
     <g id="text_1">
      <!-- −0.6 -->
      <defs>
       <path d="
M31.7812 66.4062
Q24.1719 66.4062 20.3281 58.9062
Q16.5 51.4219 16.5 36.375
Q16.5 21.3906 20.3281 13.8906
Q24.1719 6.39062 31.7812 6.39062
Q39.4531 6.39062 43.2812 13.8906
Q47.125 21.3906 47.125 36.375
Q47.125 51.4219 43.2812 58.9062
Q39.4531 66.4062 31.7812 66.4062
M31.7812 74.2188
Q44.0469 74.2188 50.5156 64.5156
Q56.9844 54.8281 56.9844 36.375
Q56.9844 17.9688 50.5156 8.26562
Q44.0469 -1.42188 31.7812 -1.42188
Q19.5312 -1.42188 13.0625 8.26562
Q6.59375 17.9688 6.59375 36.375
Q6.59375 54.8281 13.0625 64.5156
Q19.5312 74.2188 31.7812 74.2188" id="DejaVuSans-30"/>
       <path d="
M10.6875 12.4062
L21 12.4062
L21 0
L10.6875 0
z
" id="DejaVuSans-2e"/>
       <path d="
M33.0156 40.375
Q26.375 40.375 22.4844 35.8281
Q18.6094 31.2969 18.6094 23.3906
Q18.6094 15.5312 22.4844 10.9531
Q26.375 6.39062 33.0156 6.39062
Q39.6562 6.39062 43.5312 10.9531
Q47.4062 15.5312 47.4062 23.3906
Q47.4062 31.2969 43.5312 35.8281
Q39.6562 40.375 33.0156 40.375
M52.5938 71.2969
L52.5938 62.3125
Q48.875 64.0625 45.0938 64.9844
Q41.3125 65.9219 37.5938 65.9219
Q27.8281 65.9219 22.6719 59.3281
Q17.5312 52.7344 16.7969 39.4062
Q19.6719 43.6562 24.0156 45.9219
Q28.375 48.1875 33.5938 48.1875
Q44.5781 48.1875 50.9531 41.5156
Q57.3281 34.8594 57.3281 23.3906
Q57.3281 12.1562 50.6875 5.35938
Q44.0469 -1.42188 33.0156 -1.42188
Q20.3594 -1.42188 13.6719 8.26562
Q6.98438 17.9688 6.98438 36.375
Q6.98438 53.6562 15.1875 63.9375
Q23.3906 74.2188 37.2031 74.2188
Q40.9219 74.2188 44.7031 73.4844
Q48.4844 72.75 52.5938 71.2969" id="DejaVuSans-36"/>
       <path d="
M10.5938 35.5
L73.1875 35.5
L73.1875 27.2031
L10.5938 27.2031
z
" id="DejaVuSans-2212"/>
      </defs>
      <g transform="translate(83.0465625 372.50453125)scale(0.17 -0.17)">
       <use xlink:href="#DejaVuSans-2212"/>
       <use x="83.7890625" xlink:href="#DejaVuSans-30"/>
       <use x="147.412109375" xlink:href="#DejaVuSans-2e"/>
       <use x="179.19921875" xlink:href="#DejaVuSans-36"/>
      </g>
     </g>
    </g>
    <g id="xtick_2">
     <g id="line2d_2">
      <path clip-path="url(#p78f435c08d)" d="
M152.077 355.587
L152.077 26.91" style="fill:none;stroke:#000000;stroke-dasharray:1.000000,3.000000;stroke-dashoffset:0.0;stroke-width:0.5;"/>
     </g>
     <g id="line2d_3">
      <defs>
       <path d="
M0 0
L0 -4" id="m93b0483c22" style="stroke:#000000;stroke-width:0.5;"/>
      </defs>
      <g>
       <use style="stroke:#000000;stroke-width:0.5;" x="152.0775" xlink:href="#m93b0483c22" y="355.5871875"/>
      </g>
     </g>
     <g id="line2d_4">
      <defs>
       <path d="
M0 0
L0 4" id="m741efc42ff" style="stroke:#000000;stroke-width:0.5;"/>
      </defs>
      <g>
       <use style="stroke:#000000;stroke-width:0.5;" x="152.0775" xlink:href="#m741efc42ff" y="26.91"/>
      </g>
     </g>
     <g id="text_2">
      <!-- −0.4 -->
      <defs>
       <path d="
M37.7969 64.3125
L12.8906 25.3906
L37.7969 25.3906
z

M35.2031 72.9062
L47.6094 72.9062
L47.6094 25.3906
L58.0156 25.3906
L58.0156 17.1875
L47.6094 17.1875
L47.6094 0
L37.7969 0
L37.7969 17.1875
L4.89062 17.1875
L4.89062 26.7031
z
" id="DejaVuSans-34"/>
      </defs>
      <g transform="translate(132.814375 372.50453125)scale(0.17 -0.17)">
       <use xlink:href="#DejaVuSans-2212"/>
       <use x="83.7890625" xlink:href="#DejaVuSans-30"/>
       <use x="147.412109375" xlink:href="#DejaVuSans-2e"/>
       <use x="179.19921875" xlink:href="#DejaVuSans-34"/>
      </g>
     </g>
    </g>
    <g id="xtick_3">
     <g id="line2d_5">
      <path clip-path="url(#p78f435c08d)" d="
M201.904 355.587
L201.904 26.91" style="fill:none;stroke:#000000;stroke-dasharray:1.000000,3.000000;stroke-dashoffset:0.0;stroke-width:0.5;"/>
     </g>
     <g id="line2d_6">
      <g>
       <use style="stroke:#000000;stroke-width:0.5;" x="201.90375" xlink:href="#m93b0483c22" y="355.5871875"/>
      </g>
     </g>
     <g id="line2d_7">
      <g>
       <use style="stroke:#000000;stroke-width:0.5;" x="201.90375" xlink:href="#m741efc42ff" y="26.91"/>
      </g>
     </g>
     <g id="text_3">
      <!-- −0.2 -->
      <defs>
       <path d="
M19.1875 8.29688
L53.6094 8.29688
L53.6094 0
L7.32812 0
L7.32812 8.29688
Q12.9375 14.1094 22.625 23.8906
Q32.3281 33.6875 34.8125 36.5312
Q39.5469 41.8438 41.4219 45.5312
Q43.3125 49.2188 43.3125 52.7812
Q43.3125 58.5938 39.2344 62.25
Q35.1562 65.9219 28.6094 65.9219
Q23.9688 65.9219 18.8125 64.3125
Q13.6719 62.7031 7.8125 59.4219
L7.8125 69.3906
Q13.7656 71.7812 18.9375 73
Q24.125 74.2188 28.4219 74.2188
Q39.75 74.2188 46.4844 68.5469
Q53.2188 62.8906 53.2188 53.4219
Q53.2188 48.9219 51.5312 44.8906
Q49.8594 40.875 45.4062 35.4062
Q44.1875 33.9844 37.6406 27.2188
Q31.1094 20.4531 19.1875 8.29688" id="DejaVuSans-32"/>
      </defs>
      <g transform="translate(183.01515625 372.50453125)scale(0.17 -0.17)">
       <use xlink:href="#DejaVuSans-2212"/>
       <use x="83.7890625" xlink:href="#DejaVuSans-30"/>
       <use x="147.412109375" xlink:href="#DejaVuSans-2e"/>
       <use x="179.19921875" xlink:href="#DejaVuSans-32"/>
      </g>
     </g>
    </g>
    <g id="xtick_4">
     <g id="line2d_8">
      <path clip-path="url(#p78f435c08d)" d="
M251.73 355.587
L251.73 26.91" style="fill:none;stroke:#000000;stroke-dasharray:1.000000,3.000000;stroke-dashoffset:0.0;stroke-width:0.5;"/>
     </g>
     <g id="line2d_9">
      <g>
       <use style="stroke:#000000;stroke-width:0.5;" x="251.73" xlink:href="#m93b0483c22" y="355.5871875"/>
      </g>
     </g>
     <g id="line2d_10">
      <g>
       <use style="stroke:#000000;stroke-width:0.5;" x="251.73" xlink:href="#m741efc42ff" y="26.91"/>
      </g>
     </g>
     <g id="text_4">
      <!-- 0.0 -->
      <g transform="translate(239.337265625 372.50453125)scale(0.17 -0.17)">
       <use xlink:href="#DejaVuSans-30"/>
       <use x="63.623046875" xlink:href="#DejaVuSans-2e"/>
       <use x="95.41015625" xlink:href="#DejaVuSans-30"/>
      </g>
     </g>
    </g>
    <g id="xtick_5">
     <g id="line2d_11">
      <path clip-path="url(#p78f435c08d)" d="
M301.556 355.587
L301.556 26.91" style="fill:none;stroke:#000000;stroke-dasharray:1.000000,3.000000;stroke-dashoffset:0.0;stroke-width:0.5;"/>
     </g>
     <g id="line2d_12">
      <g>
       <use style="stroke:#000000;stroke-width:0.5;" x="301.55625" xlink:href="#m93b0483c22" y="355.5871875"/>
      </g>
     </g>
     <g id="line2d_13">
      <g>
       <use style="stroke:#000000;stroke-width:0.5;" x="301.55625" xlink:href="#m741efc42ff" y="26.91"/>
      </g>
     </g>
     <g id="text_5">
      <!-- 0.2 -->
      <g transform="translate(289.450390625 372.50453125)scale(0.17 -0.17)">
       <use xlink:href="#DejaVuSans-30"/>
       <use x="63.623046875" xlink:href="#DejaVuSans-2e"/>
       <use x="95.41015625" xlink:href="#DejaVuSans-32"/>
      </g>
     </g>
    </g>
    <g id="xtick_6">
     <g id="line2d_14">
      <path clip-path="url(#p78f435c08d)" d="
M351.382 355.587
L351.382 26.91" style="fill:none;stroke:#000000;stroke-dasharray:1.000000,3.000000;stroke-dashoffset:0.0;stroke-width:0.5;"/>
     </g>
     <g id="line2d_15">
      <g>
       <use style="stroke:#000000;stroke-width:0.5;" x="351.3825" xlink:href="#m93b0483c22" y="355.5871875"/>
      </g>
     </g>
     <g id="line2d_16">
      <g>
       <use style="stroke:#000000;stroke-width:0.5;" x="351.3825" xlink:href="#m741efc42ff" y="26.91"/>
      </g>
     </g>
     <g id="text_6">
      <!-- 0.4 -->
      <g transform="translate(338.902109375 372.50453125)scale(0.17 -0.17)">
       <use xlink:href="#DejaVuSans-30"/>
       <use x="63.623046875" xlink:href="#DejaVuSans-2e"/>
       <use x="95.41015625" xlink:href="#DejaVuSans-34"/>
      </g>
     </g>
    </g>
    <g id="xtick_7">
     <g id="line2d_17">
      <path clip-path="url(#p78f435c08d)" d="
M401.209 355.587
L401.209 26.91" style="fill:none;stroke:#000000;stroke-dasharray:1.000000,3.000000;stroke-dashoffset:0.0;stroke-width:0.5;"/>
     </g>
     <g id="line2d_18">
      <g>
       <use style="stroke:#000000;stroke-width:0.5;" x="401.20875" xlink:href="#m93b0483c22" y="355.5871875"/>
      </g>
     </g>
     <g id="line2d_19">
      <g>
       <use style="stroke:#000000;stroke-width:0.5;" x="401.20875" xlink:href="#m741efc42ff" y="26.91"/>
      </g>
     </g>
     <g id="text_7">
      <!-- 0.6 -->
      <g transform="translate(388.786796875 372.50453125)scale(0.17 -0.17)">
       <use xlink:href="#DejaVuSans-30"/>
       <use x="63.623046875" xlink:href="#DejaVuSans-2e"/>
       <use x="95.41015625" xlink:href="#DejaVuSans-36"/>
      </g>
     </g>
    </g>
    <g id="xtick_8">
     <g id="line2d_20">
      <defs>
       <path d="
M0 0
L0 -2" id="m177f7580d0" style="stroke:#000000;stroke-width:0.5;"/>
      </defs>
      <g>
       <use style="stroke:#000000;stroke-width:0.5;" x="114.7078125" xlink:href="#m177f7580d0" y="355.5871875"/>
      </g>
     </g>
     <g id="line2d_21">
      <defs>
       <path d="
M0 0
L0 2" id="m5284c7e2a0" style="stroke:#000000;stroke-width:0.5;"/>
      </defs>
      <g>
       <use style="stroke:#000000;stroke-width:0.5;" x="114.7078125" xlink:href="#m5284c7e2a0" y="26.91"/>
      </g>
     </g>
    </g>
    <g id="xtick_9">
     <g id="line2d_22">
      <g>
       <use style="stroke:#000000;stroke-width:0.5;" x="127.164375" xlink:href="#m177f7580d0" y="355.5871875"/>
      </g>
     </g>
     <g id="line2d_23">
      <g>
       <use style="stroke:#000000;stroke-width:0.5;" x="127.164375" xlink:href="#m5284c7e2a0" y="26.91"/>
      </g>
     </g>
    </g>
    <g id="xtick_10">
     <g id="line2d_24">
      <g>
       <use style="stroke:#000000;stroke-width:0.5;" x="139.6209375" xlink:href="#m177f7580d0" y="355.5871875"/>
      </g>
     </g>
     <g id="line2d_25">
      <g>
       <use style="stroke:#000000;stroke-width:0.5;" x="139.6209375" xlink:href="#m5284c7e2a0" y="26.91"/>
      </g>
     </g>
    </g>
    <g id="xtick_11">
     <g id="line2d_26">
      <g>
       <use style="stroke:#000000;stroke-width:0.5;" x="164.5340625" xlink:href="#m177f7580d0" y="355.5871875"/>
      </g>
     </g>
     <g id="line2d_27">
      <g>
       <use style="stroke:#000000;stroke-width:0.5;" x="164.5340625" xlink:href="#m5284c7e2a0" y="26.91"/>
      </g>
     </g>
    </g>
    <g id="xtick_12">
     <g id="line2d_28">
      <g>
       <use style="stroke:#000000;stroke-width:0.5;" x="176.990625" xlink:href="#m177f7580d0" y="355.5871875"/>
      </g>
     </g>
     <g id="line2d_29">
      <g>
       <use style="stroke:#000000;stroke-width:0.5;" x="176.990625" xlink:href="#m5284c7e2a0" y="26.91"/>
      </g>
     </g>
    </g>
    <g id="xtick_13">
     <g id="line2d_30">
      <g>
       <use style="stroke:#000000;stroke-width:0.5;" x="189.4471875" xlink:href="#m177f7580d0" y="355.5871875"/>
      </g>
     </g>
     <g id="line2d_31">
      <g>
       <use style="stroke:#000000;stroke-width:0.5;" x="189.4471875" xlink:href="#m5284c7e2a0" y="26.91"/>
      </g>
     </g>
    </g>
    <g id="xtick_14">
     <g id="line2d_32">
      <g>
       <use style="stroke:#000000;stroke-width:0.5;" x="214.3603125" xlink:href="#m177f7580d0" y="355.5871875"/>
      </g>
     </g>
     <g id="line2d_33">
      <g>
       <use style="stroke:#000000;stroke-width:0.5;" x="214.3603125" xlink:href="#m5284c7e2a0" y="26.91"/>
      </g>
     </g>
    </g>
    <g id="xtick_15">
     <g id="line2d_34">
      <g>
       <use style="stroke:#000000;stroke-width:0.5;" x="226.816875" xlink:href="#m177f7580d0" y="355.5871875"/>
      </g>
     </g>
     <g id="line2d_35">
      <g>
       <use style="stroke:#000000;stroke-width:0.5;" x="226.816875" xlink:href="#m5284c7e2a0" y="26.91"/>
      </g>
     </g>
    </g>
    <g id="xtick_16">
     <g id="line2d_36">
      <g>
       <use style="stroke:#000000;stroke-width:0.5;" x="239.2734375" xlink:href="#m177f7580d0" y="355.5871875"/>
      </g>
     </g>
     <g id="line2d_37">
      <g>
       <use style="stroke:#000000;stroke-width:0.5;" x="239.2734375" xlink:href="#m5284c7e2a0" y="26.91"/>
      </g>
     </g>
    </g>
    <g id="xtick_17">
     <g id="line2d_38">
      <g>
       <use style="stroke:#000000;stroke-width:0.5;" x="264.1865625" xlink:href="#m177f7580d0" y="355.5871875"/>
      </g>
     </g>
     <g id="line2d_39">
      <g>
       <use style="stroke:#000000;stroke-width:0.5;" x="264.1865625" xlink:href="#m5284c7e2a0" y="26.91"/>
      </g>
     </g>
    </g>
    <g id="xtick_18">
     <g id="line2d_40">
      <g>
       <use style="stroke:#000000;stroke-width:0.5;" x="276.643125" xlink:href="#m177f7580d0" y="355.5871875"/>
      </g>
     </g>
     <g id="line2d_41">
      <g>
       <use style="stroke:#000000;stroke-width:0.5;" x="276.643125" xlink:href="#m5284c7e2a0" y="26.91"/>
      </g>
     </g>
    </g>
    <g id="xtick_19">
     <g id="line2d_42">
      <g>
       <use style="stroke:#000000;stroke-width:0.5;" x="289.0996875" xlink:href="#m177f7580d0" y="355.5871875"/>
      </g>
     </g>
     <g id="line2d_43">
      <g>
       <use style="stroke:#000000;stroke-width:0.5;" x="289.0996875" xlink:href="#m5284c7e2a0" y="26.91"/>
      </g>
     </g>
    </g>
    <g id="xtick_20">
     <g id="line2d_44">
      <g>
       <use style="stroke:#000000;stroke-width:0.5;" x="314.0128125" xlink:href="#m177f7580d0" y="355.5871875"/>
      </g>
     </g>
     <g id="line2d_45">
      <g>
       <use style="stroke:#000000;stroke-width:0.5;" x="314.0128125" xlink:href="#m5284c7e2a0" y="26.91"/>
      </g>
     </g>
    </g>
    <g id="xtick_21">
     <g id="line2d_46">
      <g>
       <use style="stroke:#000000;stroke-width:0.5;" x="326.469375" xlink:href="#m177f7580d0" y="355.5871875"/>
      </g>
     </g>
     <g id="line2d_47">
      <g>
       <use style="stroke:#000000;stroke-width:0.5;" x="326.469375" xlink:href="#m5284c7e2a0" y="26.91"/>
      </g>
     </g>
    </g>
    <g id="xtick_22">
     <g id="line2d_48">
      <g>
       <use style="stroke:#000000;stroke-width:0.5;" x="338.9259375" xlink:href="#m177f7580d0" y="355.5871875"/>
      </g>
     </g>
     <g id="line2d_49">
      <g>
       <use style="stroke:#000000;stroke-width:0.5;" x="338.9259375" xlink:href="#m5284c7e2a0" y="26.91"/>
      </g>
     </g>
    </g>
    <g id="xtick_23">
     <g id="line2d_50">
      <g>
       <use style="stroke:#000000;stroke-width:0.5;" x="351.3825" xlink:href="#m177f7580d0" y="355.5871875"/>
      </g>
     </g>
     <g id="line2d_51">
      <g>
       <use style="stroke:#000000;stroke-width:0.5;" x="351.3825" xlink:href="#m5284c7e2a0" y="26.91"/>
      </g>
     </g>
    </g>
    <g id="xtick_24">
     <g id="line2d_52">
      <g>
       <use style="stroke:#000000;stroke-width:0.5;" x="363.8390625" xlink:href="#m177f7580d0" y="355.5871875"/>
      </g>
     </g>
     <g id="line2d_53">
      <g>
       <use style="stroke:#000000;stroke-width:0.5;" x="363.8390625" xlink:href="#m5284c7e2a0" y="26.91"/>
      </g>
     </g>
    </g>
    <g id="xtick_25">
     <g id="line2d_54">
      <g>
       <use style="stroke:#000000;stroke-width:0.5;" x="376.295625" xlink:href="#m177f7580d0" y="355.5871875"/>
      </g>
     </g>
     <g id="line2d_55">
      <g>
       <use style="stroke:#000000;stroke-width:0.5;" x="376.295625" xlink:href="#m5284c7e2a0" y="26.91"/>
      </g>
     </g>
    </g>
    <g id="xtick_26">
     <g id="line2d_56">
      <g>
       <use style="stroke:#000000;stroke-width:0.5;" x="388.7521875" xlink:href="#m177f7580d0" y="355.5871875"/>
      </g>
     </g>
     <g id="line2d_57">
      <g>
       <use style="stroke:#000000;stroke-width:0.5;" x="388.7521875" xlink:href="#m5284c7e2a0" y="26.91"/>
      </g>
     </g>
    </g>
    <g id="text_8">
     <!-- $\mathcal{C}_{P}$ -->
     <defs>
      <path d="
M4.89062 0
Q3.90625 0 3.90625 1.3125
Q3.95312 1.5625 4.09375 2.17188
Q4.25 2.78125 4.51562 3.14062
Q4.78125 3.51562 5.17188 3.51562
Q11.2812 3.51562 13.7188 4.20312
Q14.9844 4.64062 15.5781 6.89062
L29.2969 61.8125
Q29.5 62.7969 29.5 63.1875
Q29.5 64.2656 28.3281 64.4062
Q26.4219 64.7969 21.0938 64.7969
Q20.125 64.7969 20.125 66.1094
Q20.1719 66.3594 20.3125 66.9688
Q20.4531 67.5781 20.7188 67.9375
Q21 68.3125 21.3906 68.3125
L55.9062 68.3125
Q60.6406 68.3125 65.0781 66.625
Q69.5312 64.9375 72.3594 61.4688
Q75.2031 58.0156 75.2031 53.0781
Q75.2031 46.7344 70.7344 41.75
Q66.2656 36.7656 59.5938 33.9844
Q52.9375 31.2031 46.6875 31.2031
L30.4219 31.2031
L24.3125 6.5
Q24.125 5.51562 24.125 5.07812
Q24.125 4.6875 24.2344 4.42188
Q24.3594 4.15625 24.5781 4.07812
Q24.8125 4 25.2969 3.90625
Q27.2031 3.51562 32.5156 3.51562
Q33.5 3.51562 33.5 2.20312
Q33.1562 0.78125 32.9531 0.390625
Q32.7656 0 31.7812 0
z

M30.9062 34.1875
L44.9219 34.1875
Q54.6406 34.1875 59.7188 39.4062
Q62.3125 42 63.9375 46.875
Q65.5781 51.7656 65.5781 55.7188
Q65.5781 60.6406 61.8125 62.7188
Q58.0625 64.7969 52.4844 64.7969
L42.9219 64.7969
Q40.1875 64.7969 39.2969 64.3281
Q38.4219 63.875 37.7031 61.375
z
" id="Cmmi10-50"/>
      <path d="
M19.6719 -2.39062
Q14.9375 -2.39062 11.4375 -0.5625
Q7.95312 1.26562 5.64062 4.5625
Q3.32812 7.85938 2.26562 11.8125
Q1.21875 15.7656 1.21875 20.3125
Q1.21875 29.25 4.51562 38.3594
Q7.8125 47.4688 13.7656 54.7188
Q19.7344 61.9688 27.9062 66.2344
Q36.0781 70.5156 45.5156 70.5156
L46.0938 70.5156
Q49.3594 70.5156 51.3906 68.8438
Q53.4219 67.1875 53.4219 64.0156
Q53.4219 61.2344 51.8125 57.4688
Q50.2031 53.7188 47.9062 49.6094
Q46.8281 47.7969 44.6562 46.4844
Q42.4844 45.1719 40.1875 44.9219
L39.7031 44.9219
Q39.0156 45.2656 39.0156 45.6094
Q39.0156 46.0469 40.5938 49.1719
Q42.1875 52.2969 43.3281 55.0469
Q44.4844 57.8125 44.4844 59.8125
Q44.4844 62.25 42.9375 63.4219
Q41.4062 64.5938 38.8125 64.5938
Q31.4531 64.5938 26.4375 61.0781
Q21.4375 57.5625 17.3906 50.6875
Q14.0156 44.875 12.0625 38.1094
Q10.1094 31.3438 10.1094 24.6094
Q10.1094 19.0938 11.8594 14.2344
Q13.625 9.375 17.4219 6.4375
Q21.2344 3.51562 27 3.51562
Q33.0625 3.51562 37.7969 8.01562
Q38.4219 8.6875 40.4062 11.2969
Q42.3906 13.9219 44.0938 15.1406
Q45.7969 16.3594 48.4844 16.6094
L49.0312 16.6094
Q49.7031 16.2656 49.7031 15.8281
Q49.7031 15.4375 49.4219 14.9844
Q46.5781 10.2969 41.7969 6.29688
Q37.0156 2.29688 31.2969 -0.046875
Q25.5938 -2.39062 20.3125 -2.39062
z
" id="Cmsy10-43"/>
     </defs>
     <g transform="translate(237.03 402.34)scale(0.3 -0.3)">
      <use transform="translate(0.0 0.484375)" xlink:href="#Cmsy10-43"/>
      <use transform="translate(52.587890625 -25.025)scale(0.7)" xlink:href="#Cmmi10-50"/>
     </g>
    </g>
   </g>
   <g id="matplotlib.axis_2">
    <g id="ytick_1">
     <g id="text_9">
      <!-- −0.6 -->
      <g transform="translate(59.841875 360.278125)scale(0.17 -0.17)">
       <use xlink:href="#DejaVuSans-2212"/>
       <use x="83.7890625" xlink:href="#DejaVuSans-30"/>
       <use x="147.412109375" xlink:href="#DejaVuSans-2e"/>
       <use x="179.19921875" xlink:href="#DejaVuSans-36"/>
      </g>
     </g>
    </g>
    <g id="ytick_2">
     <g id="line2d_58">
      <path clip-path="url(#p78f435c08d)" d="
M102.251 300.808
L401.209 300.808" style="fill:none;stroke:#000000;stroke-dasharray:1.000000,3.000000;stroke-dashoffset:0.0;stroke-width:0.5;"/>
     </g>
     <g id="line2d_59">
      <defs>
       <path d="
M0 0
L4 0" id="m728421d6d4" style="stroke:#000000;stroke-width:0.5;"/>
      </defs>
      <g>
       <use style="stroke:#000000;stroke-width:0.5;" x="102.25125" xlink:href="#m728421d6d4" y="300.80765625"/>
      </g>
     </g>
     <g id="line2d_60">
      <defs>
       <path d="
M0 0
L-4 0" id="mcb0005524f" style="stroke:#000000;stroke-width:0.5;"/>
      </defs>
      <g>
       <use style="stroke:#000000;stroke-width:0.5;" x="401.20875" xlink:href="#mcb0005524f" y="300.80765625"/>
      </g>
     </g>
     <g id="text_10">
      <!-- −0.4 -->
      <g transform="translate(59.725 305.49859375)scale(0.17 -0.17)">
       <use xlink:href="#DejaVuSans-2212"/>
       <use x="83.7890625" xlink:href="#DejaVuSans-30"/>
       <use x="147.412109375" xlink:href="#DejaVuSans-2e"/>
       <use x="179.19921875" xlink:href="#DejaVuSans-34"/>
      </g>
     </g>
    </g>
    <g id="ytick_3">
     <g id="line2d_61">
      <path clip-path="url(#p78f435c08d)" d="
M102.251 246.028
L401.209 246.028" style="fill:none;stroke:#000000;stroke-dasharray:1.000000,3.000000;stroke-dashoffset:0.0;stroke-width:0.5;"/>
     </g>
     <g id="line2d_62">
      <g>
       <use style="stroke:#000000;stroke-width:0.5;" x="102.25125" xlink:href="#m728421d6d4" y="246.028125"/>
      </g>
     </g>
     <g id="line2d_63">
      <g>
       <use style="stroke:#000000;stroke-width:0.5;" x="401.20875" xlink:href="#mcb0005524f" y="246.028125"/>
      </g>
     </g>
     <g id="text_11">
      <!-- −0.2 -->
      <g transform="translate(60.4740625 250.7190625)scale(0.17 -0.17)">
       <use xlink:href="#DejaVuSans-2212"/>
       <use x="83.7890625" xlink:href="#DejaVuSans-30"/>
       <use x="147.412109375" xlink:href="#DejaVuSans-2e"/>
       <use x="179.19921875" xlink:href="#DejaVuSans-32"/>
      </g>
     </g>
    </g>
    <g id="ytick_4">
     <g id="line2d_64">
      <path clip-path="url(#p78f435c08d)" d="
M102.251 191.249
L401.209 191.249" style="fill:none;stroke:#000000;stroke-dasharray:1.000000,3.000000;stroke-dashoffset:0.0;stroke-width:0.5;"/>
     </g>
     <g id="line2d_65">
      <g>
       <use style="stroke:#000000;stroke-width:0.5;" x="102.25125" xlink:href="#m728421d6d4" y="191.24859375"/>
      </g>
     </g>
     <g id="line2d_66">
      <g>
       <use style="stroke:#000000;stroke-width:0.5;" x="401.20875" xlink:href="#mcb0005524f" y="191.24859375"/>
      </g>
     </g>
     <g id="text_12">
      <!-- 0.0 -->
      <g transform="translate(73.46578125 195.93953125)scale(0.17 -0.17)">
       <use xlink:href="#DejaVuSans-30"/>
       <use x="63.623046875" xlink:href="#DejaVuSans-2e"/>
       <use x="95.41015625" xlink:href="#DejaVuSans-30"/>
      </g>
     </g>
    </g>
    <g id="ytick_5">
     <g id="line2d_67">
      <path clip-path="url(#p78f435c08d)" d="
M102.251 136.469
L401.209 136.469" style="fill:none;stroke:#000000;stroke-dasharray:1.000000,3.000000;stroke-dashoffset:0.0;stroke-width:0.5;"/>
     </g>
     <g id="line2d_68">
      <g>
       <use style="stroke:#000000;stroke-width:0.5;" x="102.25125" xlink:href="#m728421d6d4" y="136.4690625"/>
      </g>
     </g>
     <g id="line2d_69">
      <g>
       <use style="stroke:#000000;stroke-width:0.5;" x="401.20875" xlink:href="#mcb0005524f" y="136.4690625"/>
      </g>
     </g>
     <g id="text_13">
      <!-- 0.2 -->
      <g transform="translate(74.03953125 141.16)scale(0.17 -0.17)">
       <use xlink:href="#DejaVuSans-30"/>
       <use x="63.623046875" xlink:href="#DejaVuSans-2e"/>
       <use x="95.41015625" xlink:href="#DejaVuSans-32"/>
      </g>
     </g>
    </g>
    <g id="ytick_6">
     <g id="line2d_70">
      <path clip-path="url(#p78f435c08d)" d="
M102.251 81.6895
L401.209 81.6895" style="fill:none;stroke:#000000;stroke-dasharray:1.000000,3.000000;stroke-dashoffset:0.0;stroke-width:0.5;"/>
     </g>
     <g id="line2d_71">
      <g>
       <use style="stroke:#000000;stroke-width:0.5;" x="102.25125" xlink:href="#m728421d6d4" y="81.68953125"/>
      </g>
     </g>
     <g id="line2d_72">
      <g>
       <use style="stroke:#000000;stroke-width:0.5;" x="401.20875" xlink:href="#mcb0005524f" y="81.68953125"/>
      </g>
     </g>
     <g id="text_14">
      <!-- 0.4 -->
      <g transform="translate(73.29046875 86.38046875)scale(0.17 -0.17)">
       <use xlink:href="#DejaVuSans-30"/>
       <use x="63.623046875" xlink:href="#DejaVuSans-2e"/>
       <use x="95.41015625" xlink:href="#DejaVuSans-34"/>
      </g>
     </g>
    </g>
    <g id="ytick_7">
     <g id="text_15">
      <!-- 0.6 -->
      <g transform="translate(73.40734375 31.6009375)scale(0.17 -0.17)">
       <use xlink:href="#DejaVuSans-30"/>
       <use x="63.623046875" xlink:href="#DejaVuSans-2e"/>
       <use x="95.41015625" xlink:href="#DejaVuSans-36"/>
      </g>
     </g>
    </g>
    <g id="ytick_8">
     <g id="line2d_73">
      <defs>
       <path d="
M0 0
L2 0" id="mf0c55a9a47" style="stroke:#000000;stroke-width:0.5;"/>
      </defs>
      <g>
       <use style="stroke:#000000;stroke-width:0.5;" x="102.25125" xlink:href="#mf0c55a9a47" y="341.892304688"/>
      </g>
     </g>
     <g id="line2d_74">
      <defs>
       <path d="
M0 0
L-2 0" id="ma4f294b3af" style="stroke:#000000;stroke-width:0.5;"/>
      </defs>
      <g>
       <use style="stroke:#000000;stroke-width:0.5;" x="401.20875" xlink:href="#ma4f294b3af" y="341.892304688"/>
      </g>
     </g>
    </g>
    <g id="ytick_9">
     <g id="line2d_75">
      <g>
       <use style="stroke:#000000;stroke-width:0.5;" x="102.25125" xlink:href="#mf0c55a9a47" y="328.197421875"/>
      </g>
     </g>
     <g id="line2d_76">
      <g>
       <use style="stroke:#000000;stroke-width:0.5;" x="401.20875" xlink:href="#ma4f294b3af" y="328.197421875"/>
      </g>
     </g>
    </g>
    <g id="ytick_10">
     <g id="line2d_77">
      <g>
       <use style="stroke:#000000;stroke-width:0.5;" x="102.25125" xlink:href="#mf0c55a9a47" y="314.502539063"/>
      </g>
     </g>
     <g id="line2d_78">
      <g>
       <use style="stroke:#000000;stroke-width:0.5;" x="401.20875" xlink:href="#ma4f294b3af" y="314.502539063"/>
      </g>
     </g>
    </g>
    <g id="ytick_11">
     <g id="line2d_79">
      <g>
       <use style="stroke:#000000;stroke-width:0.5;" x="102.25125" xlink:href="#mf0c55a9a47" y="287.112773438"/>
      </g>
     </g>
     <g id="line2d_80">
      <g>
       <use style="stroke:#000000;stroke-width:0.5;" x="401.20875" xlink:href="#ma4f294b3af" y="287.112773438"/>
      </g>
     </g>
    </g>
    <g id="ytick_12">
     <g id="line2d_81">
      <g>
       <use style="stroke:#000000;stroke-width:0.5;" x="102.25125" xlink:href="#mf0c55a9a47" y="273.417890625"/>
      </g>
     </g>
     <g id="line2d_82">
      <g>
       <use style="stroke:#000000;stroke-width:0.5;" x="401.20875" xlink:href="#ma4f294b3af" y="273.417890625"/>
      </g>
     </g>
    </g>
    <g id="ytick_13">
     <g id="line2d_83">
      <g>
       <use style="stroke:#000000;stroke-width:0.5;" x="102.25125" xlink:href="#mf0c55a9a47" y="259.723007812"/>
      </g>
     </g>
     <g id="line2d_84">
      <g>
       <use style="stroke:#000000;stroke-width:0.5;" x="401.20875" xlink:href="#ma4f294b3af" y="259.723007812"/>
      </g>
     </g>
    </g>
    <g id="ytick_14">
     <g id="line2d_85">
      <g>
       <use style="stroke:#000000;stroke-width:0.5;" x="102.25125" xlink:href="#mf0c55a9a47" y="232.333242187"/>
      </g>
     </g>
     <g id="line2d_86">
      <g>
       <use style="stroke:#000000;stroke-width:0.5;" x="401.20875" xlink:href="#ma4f294b3af" y="232.333242187"/>
      </g>
     </g>
    </g>
    <g id="ytick_15">
     <g id="line2d_87">
      <g>
       <use style="stroke:#000000;stroke-width:0.5;" x="102.25125" xlink:href="#mf0c55a9a47" y="218.638359375"/>
      </g>
     </g>
     <g id="line2d_88">
      <g>
       <use style="stroke:#000000;stroke-width:0.5;" x="401.20875" xlink:href="#ma4f294b3af" y="218.638359375"/>
      </g>
     </g>
    </g>
    <g id="ytick_16">
     <g id="line2d_89">
      <g>
       <use style="stroke:#000000;stroke-width:0.5;" x="102.25125" xlink:href="#mf0c55a9a47" y="204.943476562"/>
      </g>
     </g>
     <g id="line2d_90">
      <g>
       <use style="stroke:#000000;stroke-width:0.5;" x="401.20875" xlink:href="#ma4f294b3af" y="204.943476562"/>
      </g>
     </g>
    </g>
    <g id="ytick_17">
     <g id="line2d_91">
      <g>
       <use style="stroke:#000000;stroke-width:0.5;" x="102.25125" xlink:href="#mf0c55a9a47" y="177.553710937"/>
      </g>
     </g>
     <g id="line2d_92">
      <g>
       <use style="stroke:#000000;stroke-width:0.5;" x="401.20875" xlink:href="#ma4f294b3af" y="177.553710937"/>
      </g>
     </g>
    </g>
    <g id="ytick_18">
     <g id="line2d_93">
      <g>
       <use style="stroke:#000000;stroke-width:0.5;" x="102.25125" xlink:href="#mf0c55a9a47" y="163.858828125"/>
      </g>
     </g>
     <g id="line2d_94">
      <g>
       <use style="stroke:#000000;stroke-width:0.5;" x="401.20875" xlink:href="#ma4f294b3af" y="163.858828125"/>
      </g>
     </g>
    </g>
    <g id="ytick_19">
     <g id="line2d_95">
      <g>
       <use style="stroke:#000000;stroke-width:0.5;" x="102.25125" xlink:href="#mf0c55a9a47" y="150.163945312"/>
      </g>
     </g>
     <g id="line2d_96">
      <g>
       <use style="stroke:#000000;stroke-width:0.5;" x="401.20875" xlink:href="#ma4f294b3af" y="150.163945312"/>
      </g>
     </g>
    </g>
    <g id="ytick_20">
     <g id="line2d_97">
      <g>
       <use style="stroke:#000000;stroke-width:0.5;" x="102.25125" xlink:href="#mf0c55a9a47" y="122.774179687"/>
      </g>
     </g>
     <g id="line2d_98">
      <g>
       <use style="stroke:#000000;stroke-width:0.5;" x="401.20875" xlink:href="#ma4f294b3af" y="122.774179687"/>
      </g>
     </g>
    </g>
    <g id="ytick_21">
     <g id="line2d_99">
      <g>
       <use style="stroke:#000000;stroke-width:0.5;" x="102.25125" xlink:href="#mf0c55a9a47" y="109.079296875"/>
      </g>
     </g>
     <g id="line2d_100">
      <g>
       <use style="stroke:#000000;stroke-width:0.5;" x="401.20875" xlink:href="#ma4f294b3af" y="109.079296875"/>
      </g>
     </g>
    </g>
    <g id="ytick_22">
     <g id="line2d_101">
      <g>
       <use style="stroke:#000000;stroke-width:0.5;" x="102.25125" xlink:href="#mf0c55a9a47" y="95.3844140625"/>
      </g>
     </g>
     <g id="line2d_102">
      <g>
       <use style="stroke:#000000;stroke-width:0.5;" x="401.20875" xlink:href="#ma4f294b3af" y="95.3844140625"/>
      </g>
     </g>
    </g>
    <g id="ytick_23">
     <g id="line2d_103">
      <g>
       <use style="stroke:#000000;stroke-width:0.5;" x="102.25125" xlink:href="#mf0c55a9a47" y="81.68953125"/>
      </g>
     </g>
     <g id="line2d_104">
      <g>
       <use style="stroke:#000000;stroke-width:0.5;" x="401.20875" xlink:href="#ma4f294b3af" y="81.68953125"/>
      </g>
     </g>
    </g>
    <g id="ytick_24">
     <g id="line2d_105">
      <g>
       <use style="stroke:#000000;stroke-width:0.5;" x="102.25125" xlink:href="#mf0c55a9a47" y="67.9946484375"/>
      </g>
     </g>
     <g id="line2d_106">
      <g>
       <use style="stroke:#000000;stroke-width:0.5;" x="401.20875" xlink:href="#ma4f294b3af" y="67.9946484375"/>
      </g>
     </g>
    </g>
    <g id="ytick_25">
     <g id="line2d_107">
      <g>
       <use style="stroke:#000000;stroke-width:0.5;" x="102.25125" xlink:href="#mf0c55a9a47" y="54.299765625"/>
      </g>
     </g>
     <g id="line2d_108">
      <g>
       <use style="stroke:#000000;stroke-width:0.5;" x="401.20875" xlink:href="#ma4f294b3af" y="54.299765625"/>
      </g>
     </g>
    </g>
    <g id="ytick_26">
     <g id="line2d_109">
      <g>
       <use style="stroke:#000000;stroke-width:0.5;" x="102.25125" xlink:href="#mf0c55a9a47" y="40.6048828125"/>
      </g>
     </g>
     <g id="line2d_110">
      <g>
       <use style="stroke:#000000;stroke-width:0.5;" x="401.20875" xlink:href="#ma4f294b3af" y="40.6048828125"/>
      </g>
     </g>
    </g>
    <g id="text_16">
     <!-- $\mathcal{C}_{P}^{\prime}$ -->
     <defs>
      <path d="
M3.51562 5.42188
Q2.875 5.60938 2.875 6.39062
L15.0938 51.8125
Q15.6719 53.6562 17.0781 54.7812
Q18.5 55.9062 20.3125 55.9062
Q22.6562 55.9062 24.4375 54.3594
Q26.2188 52.8281 26.2188 50.4844
Q26.2188 49.4688 25.6875 48.1875
L7.625 4.98438
Q7.28125 4.29688 6.6875 4.29688
Q6.15625 4.29688 5 4.78125
Q3.85938 5.28125 3.51562 5.42188" id="Cmsy10-30"/>
     </defs>
     <g transform="translate(46.925 205.94859375)rotate(-90.0)scale(0.3 -0.3)">
      <use transform="translate(0.0 0.859375)" xlink:href="#Cmsy10-43"/>
      <use transform="translate(52.587890625 45.865625)scale(0.7)" xlink:href="#Cmsy10-30"/>
      <use transform="translate(52.587890625 -24.65)scale(0.7)" xlink:href="#Cmmi10-50"/>
     </g>
    </g>
   </g>
   <g id="patch_3">
    <path d="
M102.251 26.91
L401.209 26.91" style="fill:none;stroke:#000000;"/>
   </g>
   <g id="patch_4">
    <path d="
M401.209 355.587
L401.209 26.91" style="fill:none;stroke:#000000;"/>
   </g>
   <g id="patch_5">
    <path d="
M102.251 355.587
L401.209 355.587" style="fill:none;stroke:#000000;"/>
   </g>
   <g id="patch_6">
    <path d="
M102.251 355.587
L102.251 26.91" style="fill:none;stroke:#000000;"/>
   </g>
  </g>
 </g>
 <defs>
  <clipPath id="p78f435c08d">
   <rect height="328.6771875" width="298.9575" x="102.25125" y="26.91"/>
  </clipPath>
 </defs>
</svg>
