<?xml version="1.0" encoding="utf-8" standalone="no"?>
<!DOCTYPE svg PUBLIC "-//W3C//DTD SVG 1.1//EN"
  "http://www.w3.org/Graphics/SVG/1.1/DTD/svg11.dtd">
<!-- Created with matplotlib (http://matplotlib.org/) -->
<svg height="432pt" version="1.1" viewBox="0 0 432 432" width="432pt" xmlns="http://www.w3.org/2000/svg" xmlns:xlink="http://www.w3.org/1999/xlink">
 <defs>
  <style type="text/css">
*{stroke-linecap:butt;stroke-linejoin:round;}
  </style>
 </defs>
 <g id="figure_1">
  <g id="patch_1">
   <path d="
M0 432
L432 432
L432 0
L0 0
z
" style="fill:#ffffff;"/>
  </g>
  <g id="axes_1">
   <g id="patch_2">
    <path d="
M66.7125 381.779
L410.314 381.779
L410.314 19.26
L66.7125 19.26
z
" style="fill:#ffffff;"/>
   </g>
   <g id="PathCollection_1">
    <defs>
     <path d="
M66.7125 -50.2211
L73.7248 -50.2211
L80.7371 -50.2211
L87.7493 -50.2211
L94.7616 -50.2211
L101.774 -50.2211
L108.786 -50.2211
L115.798 -50.2211
L122.811 -50.2211
L129.823 -50.2211
L136.835 -50.2211
L143.848 -50.2211
L150.86 -50.2211
L157.872 -50.2211
L164.884 -50.2211
L171.897 -50.2211
L178.909 -50.2211
L185.921 -50.2211
L192.934 -50.2211
L199.946 -50.2211
L206.958 -50.2211
L213.97 -50.2211
L220.983 -50.2211
L227.995 -50.2211
L235.007 -50.2211
L242.019 -50.2211
L249.032 -50.2211
L256.044 -50.2211
L263.056 -50.2211
L270.069 -50.2211
L277.081 -50.2211
L284.093 -50.2211
L291.105 -50.2211
L298.118 -50.2211
L305.13 -50.2211
L312.142 -50.2211
L319.155 -50.2211
L326.167 -50.2211
L333.179 -50.2211
L340.191 -50.2211
L347.204 -50.2211
L354.216 -50.2211
L361.228 -50.2211
L368.241 -50.2211
L375.253 -50.2211
L382.265 -50.2211
L389.277 -50.2211
L396.29 -50.2211
L403.302 -50.2211
L410.314 -50.2211
L410.314 -57.6195
L410.314 -65.0178
L410.314 -72.4162
L410.314 -79.8145
L410.314 -87.2128
L410.314 -94.6112
L410.314 -102.01
L410.314 -109.408
L410.314 -116.806
L410.314 -124.205
L410.314 -131.603
L410.314 -139.001
L410.314 -146.4
L410.314 -153.798
L410.314 -161.196
L410.314 -168.595
L410.314 -175.993
L410.314 -183.391
L410.314 -190.79
L410.314 -198.188
L410.314 -205.586
L410.314 -212.985
L410.314 -220.383
L410.314 -227.781
L410.314 -235.18
L410.314 -242.578
L410.314 -249.976
L410.314 -257.375
L410.314 -264.773
L410.314 -272.171
L410.314 -279.57
L410.314 -286.968
L410.314 -294.366
L410.314 -301.765
L410.314 -309.163
L410.314 -316.562
L410.314 -323.96
L410.314 -331.358
L410.314 -338.757
L410.314 -346.155
L410.314 -353.553
L410.314 -360.952
L410.314 -368.35
L410.314 -375.748
L410.314 -383.147
L410.314 -390.545
L410.314 -397.943
L410.314 -405.342
L410.314 -412.74
L403.302 -412.74
L396.29 -412.74
L389.277 -412.74
L382.265 -412.74
L375.253 -412.74
L368.241 -412.74
L361.228 -412.74
L354.216 -412.74
L347.204 -412.74
L340.191 -412.74
L333.179 -412.74
L326.167 -412.74
L319.155 -412.74
L312.142 -412.74
L305.13 -412.74
L298.118 -412.74
L291.105 -412.74
L284.093 -412.74
L277.081 -412.74
L270.069 -412.74
L263.056 -412.74
L256.044 -412.74
L249.032 -412.74
L242.019 -412.74
L235.007 -412.74
L227.995 -412.74
L220.983 -412.74
L213.97 -412.74
L206.958 -412.74
L199.946 -412.74
L192.934 -412.74
L185.921 -412.74
L178.909 -412.74
L171.897 -412.74
L164.884 -412.74
L157.872 -412.74
L150.86 -412.74
L143.848 -412.74
L136.835 -412.74
L129.823 -412.74
L122.811 -412.74
L115.798 -412.74
L108.786 -412.74
L101.774 -412.74
L94.7616 -412.74
L87.7493 -412.74
L80.7371 -412.74
L73.7248 -412.74
L66.7125 -412.74
L66.7125 -405.342
L66.7125 -397.943
L66.7125 -390.545
L66.7125 -383.147
L66.7125 -375.748
L66.7125 -368.35
L66.7125 -360.952
L66.7125 -353.553
L66.7125 -346.155
L66.7125 -338.757
L66.7125 -331.358
L66.7125 -323.96
L66.7125 -316.562
L66.7125 -309.163
L66.7125 -301.765
L66.7125 -294.366
L66.7125 -286.968
L66.7125 -279.57
L66.7125 -272.171
L66.7125 -264.773
L66.7125 -257.375
L66.7125 -249.976
L66.7125 -242.578
L66.7125 -235.18
L66.7125 -227.781
L66.7125 -220.383
L66.7125 -212.985
L66.7125 -205.586
L66.7125 -198.188
L66.7125 -190.79
L66.7125 -183.391
L66.7125 -175.993
L66.7125 -168.595
L66.7125 -161.196
L66.7125 -153.798
L66.7125 -146.4
L66.7125 -139.001
L66.7125 -131.603
L66.7125 -124.205
L66.7125 -116.806
L66.7125 -109.408
L66.7125 -102.01
L66.7125 -94.6112
L66.7125 -87.2128
L66.7125 -79.8145
L66.7125 -72.4162
L66.7125 -65.0178
L66.7125 -57.6195
L66.7125 -50.2211
M94.7616 -119.209
L90.6656 -124.205
L94.7616 -129.427
L99.2156 -124.205
L94.7616 -119.209
M101.774 -106.582
L99.3145 -109.408
L101.774 -111.597
L103.827 -109.408
L101.774 -106.582
M143.848 -92.8426
L142.443 -94.6112
L140.76 -102.01
L136.835 -105.909
L130.408 -102.01
L129.823 -101.805
L129.621 -102.01
L123.891 -109.408
L122.903 -116.806
L122.811 -116.829
L115.798 -121.986
L113.661 -124.205
L112.13 -131.603
L108.786 -136.32
L105.571 -139.001
L106.024 -146.4
L103.054 -153.798
L102.59 -161.196
L108.786 -166.116
L113.123 -168.595
L115.798 -171.306
L119.551 -175.993
L121.849 -183.391
L117.373 -190.79
L122.811 -196.63
L129.823 -197.309
L129.941 -198.188
L136.835 -204.856
L138.317 -205.586
L137.188 -212.985
L143.848 -219.159
L150.86 -219.759
L151.434 -220.383
L150.86 -222.541
L148.123 -227.781
L150.86 -230.378
L155.799 -235.18
L157.872 -237.218
L164.884 -236.842
L167.712 -242.578
L171.897 -246.341
L175.842 -249.976
L178.909 -256.565
L179.856 -257.375
L185.921 -259.637
L189.59 -264.773
L191.323 -272.171
L187.76 -279.57
L192.934 -284.735
L199.946 -281.563
L204.316 -286.968
L206.958 -289.966
L213.97 -292.531
L216.371 -294.366
L220.983 -298.034
L222.964 -301.765
L225.971 -309.163
L227.995 -311.307
L231.858 -316.562
L235.007 -321.797
L242.019 -323.382
L245.504 -323.96
L249.032 -326.088
L251.553 -331.358
L256.044 -335.505
L263.056 -337.728
L264.364 -338.757
L266.622 -346.155
L270.069 -349.947
L275.135 -353.553
L277.081 -357.357
L282.588 -360.952
L284.093 -361.95
L291.105 -364.79
L298.118 -366.039
L305.13 -368.28
L305.745 -368.35
L312.142 -369.531
L319.155 -374.644
L326.167 -372.694
L333.179 -374.246
L340.191 -370.708
L344.856 -368.35
L344.819 -360.952
L347.204 -357.361
L349.589 -360.952
L354.216 -365.16
L360.37 -360.952
L361.228 -358.793
L362.935 -353.553
L368.241 -352.402
L374.742 -346.155
L368.241 -339.974
L362.921 -338.757
L368.14 -331.358
L368.241 -331.149
L372.275 -323.96
L371.616 -316.562
L375.253 -311.239
L376.913 -309.163
L375.253 -306.635
L370.536 -309.163
L368.241 -310.42
L367.293 -309.163
L367.904 -301.765
L366.619 -294.366
L363.839 -286.968
L361.228 -282.039
L360.289 -279.57
L355.353 -272.171
L354.216 -267.786
L353.611 -264.773
L347.204 -260.275
L342.003 -257.375
L340.191 -252.739
L333.782 -249.976
L333.179 -249.695
L327.056 -242.578
L326.167 -241.915
L320.36 -235.18
L321.935 -227.781
L319.155 -226.006
L312.142 -221.158
L311.289 -220.383
L305.13 -217.127
L302.903 -212.985
L298.118 -205.951
L297.804 -205.586
L291.105 -199.398
L287.158 -198.188
L284.093 -195.786
L279.532 -190.79
L277.927 -183.391
L277.081 -183.043
L270.069 -178.509
L266.922 -175.993
L263.056 -172.908
L259.085 -168.595
L256.044 -162.57
L254.839 -161.196
L249.032 -156.825
L242.019 -154.56
L241.043 -153.798
L235.007 -147.2
L233.795 -146.4
L235.007 -145.606
L238.982 -139.001
L235.007 -134.957
L227.995 -136.669
L220.983 -132.138
L220.854 -131.603
L216.158 -124.205
L213.97 -121.895
L209.765 -116.806
L206.958 -114.277
L199.946 -114.406
L192.934 -112.132
L188.285 -109.408
L185.921 -106.918
L180.128 -102.01
L178.909 -100.29
L175.894 -102.01
L171.897 -103.389
L164.884 -107.295
L163.136 -102.01
L157.872 -96.5732
L152.296 -102.01
L151.033 -109.408
L150.86 -111.698
L150.621 -109.408
L145.617 -102.01
L145.79 -94.6112
L143.848 -92.8426
M178.909 -259.957
L178.245 -264.773
L178.909 -265.547
L179.706 -264.773
L178.909 -259.957
M256.044 -351.735
L254.576 -353.553
L256.044 -355.097
L258.079 -353.553
L256.044 -351.735
M319.155 -380.704
L316.999 -383.147
L319.155 -384.598
L321.023 -383.147
L319.155 -380.704
M340.191 -378.698
L335.893 -383.147
L340.191 -387.14
L346.464 -383.147
L340.191 -378.698
M178.909 -81.9254
L173.455 -87.2128
L178.909 -93.4454
L184.014 -87.2128
L178.909 -81.9254
M319.155 -210.398
L316.239 -212.985
L319.155 -216.195
L321.469 -212.985
L319.155 -210.398" id="C0_0_8ae9b01357"/>
     <path d="
M115.798 -136.921
L117.999 -139.001
L115.798 -143.749
L112.782 -139.001
L115.798 -136.921" id="C0_1_5dc9b00b15"/>
     <path d="
M115.798 -149.042
L117.236 -153.798
L118.338 -161.196
L115.798 -164.527
L114.376 -161.196
L112.389 -153.798
L115.798 -149.042" id="C0_2_87150413c8"/>
     <path d="
M354.216 -322.765
L361.228 -323.513
L361.856 -323.96
L361.228 -324.307
L354.216 -324.192
L354.057 -323.96
L354.216 -322.765" id="C0_3_56c765d497"/>
     <path d="
M312.142 -360.952
L319.155 -360.935
L319.314 -360.952
L319.155 -360.967
L312.142 -360.952
L312.142 -360.952
L312.142 -360.952" id="C0_4_5fdd7322a5"/>
    </defs>
    <g clip-path="url(#pabc30ec53b)">
     <use style="fill:#ffffff;" x="0.0" xlink:href="#C0_0_8ae9b01357" y="432.0"/>
    </g>
    <g clip-path="url(#pabc30ec53b)">
     <use style="fill:#ffffff;" x="0.0" xlink:href="#C0_1_5dc9b00b15" y="432.0"/>
    </g>
    <g clip-path="url(#pabc30ec53b)">
     <use style="fill:#ffffff;" x="0.0" xlink:href="#C0_2_87150413c8" y="432.0"/>
    </g>
    <g clip-path="url(#pabc30ec53b)">
     <use style="fill:#ffffff;" x="0.0" xlink:href="#C0_3_56c765d497" y="432.0"/>
    </g>
    <g clip-path="url(#pabc30ec53b)">
     <use style="fill:#ffffff;" x="0.0" xlink:href="#C0_4_5fdd7322a5" y="432.0"/>
    </g>
   </g>
   <g id="PathCollection_2">
    <defs>
     <path d="
M178.909 -81.9254
L184.014 -87.2128
L178.909 -93.4454
L173.455 -87.2128
L178.909 -81.9254" id="C1_0_5130f9ccc7"/>
     <path d="
M143.848 -92.8426
L145.79 -94.6112
L145.617 -102.01
L150.621 -109.408
L150.86 -111.698
L151.033 -109.408
L152.296 -102.01
L157.872 -96.5732
L163.136 -102.01
L164.884 -107.295
L171.897 -103.389
L175.894 -102.01
L178.909 -100.29
L180.128 -102.01
L185.921 -106.918
L188.285 -109.408
L192.934 -112.132
L199.946 -114.406
L206.958 -114.277
L209.765 -116.806
L213.97 -121.895
L216.158 -124.205
L220.854 -131.603
L220.983 -132.138
L227.995 -136.669
L235.007 -134.957
L238.982 -139.001
L235.007 -145.606
L233.795 -146.4
L235.007 -147.2
L241.043 -153.798
L242.019 -154.56
L249.032 -156.825
L254.839 -161.196
L256.044 -162.57
L259.085 -168.595
L263.056 -172.908
L266.922 -175.993
L270.069 -178.509
L277.081 -183.043
L277.927 -183.391
L279.532 -190.79
L284.093 -195.786
L287.158 -198.188
L291.105 -199.398
L297.804 -205.586
L298.118 -205.951
L302.903 -212.985
L305.13 -217.127
L311.289 -220.383
L312.142 -221.158
L319.155 -226.006
L321.935 -227.781
L320.36 -235.18
L326.167 -241.915
L327.056 -242.578
L333.179 -249.695
L333.782 -249.976
L340.191 -252.739
L342.003 -257.375
L347.204 -260.275
L353.611 -264.773
L354.216 -267.786
L355.353 -272.171
L360.289 -279.57
L361.228 -282.039
L363.839 -286.968
L366.619 -294.366
L367.904 -301.765
L367.293 -309.163
L368.241 -310.42
L370.536 -309.163
L375.253 -306.635
L376.913 -309.163
L375.253 -311.239
L371.616 -316.562
L372.275 -323.96
L368.241 -331.149
L368.14 -331.358
L362.921 -338.757
L368.241 -339.974
L374.742 -346.155
L368.241 -352.402
L362.935 -353.553
L361.228 -358.793
L360.37 -360.952
L354.216 -365.16
L349.589 -360.952
L347.204 -357.361
L344.819 -360.952
L344.856 -368.35
L340.191 -370.708
L333.179 -374.246
L326.167 -372.694
L319.155 -374.644
L312.142 -369.531
L305.745 -368.35
L305.13 -368.28
L298.118 -366.039
L291.105 -364.79
L284.093 -361.95
L282.588 -360.952
L277.081 -357.357
L275.135 -353.553
L270.069 -349.947
L266.622 -346.155
L264.364 -338.757
L263.056 -337.728
L256.044 -335.505
L251.553 -331.358
L249.032 -326.088
L245.504 -323.96
L242.019 -323.382
L235.007 -321.797
L231.858 -316.562
L227.995 -311.307
L225.971 -309.163
L222.964 -301.765
L220.983 -298.034
L216.371 -294.366
L213.97 -292.531
L206.958 -289.966
L204.316 -286.968
L199.946 -281.563
L192.934 -284.735
L187.76 -279.57
L191.323 -272.171
L189.59 -264.773
L185.921 -259.637
L179.856 -257.375
L178.909 -256.565
L175.842 -249.976
L171.897 -246.341
L167.712 -242.578
L164.884 -236.842
L157.872 -237.218
L155.799 -235.18
L150.86 -230.378
L148.123 -227.781
L150.86 -222.541
L151.434 -220.383
L150.86 -219.759
L143.848 -219.159
L137.188 -212.985
L138.317 -205.586
L136.835 -204.856
L129.941 -198.188
L129.823 -197.309
L122.811 -196.63
L117.373 -190.79
L121.849 -183.391
L119.551 -175.993
L115.798 -171.306
L113.123 -168.595
L108.786 -166.116
L102.59 -161.196
L103.054 -153.798
L106.024 -146.4
L105.571 -139.001
L108.786 -136.32
L112.13 -131.603
L113.661 -124.205
L115.798 -121.986
L122.811 -116.829
L122.903 -116.806
L123.891 -109.408
L129.621 -102.01
L129.823 -101.805
L130.408 -102.01
L136.835 -105.909
L140.76 -102.01
L142.443 -94.6112
L143.848 -92.8426
M150.86 -181.231
L149.173 -183.391
L150.86 -184.708
L152.731 -183.391
L150.86 -181.231
M157.872 -131.504
L157.774 -131.603
L157.872 -132.051
L158.068 -131.603
L157.872 -131.504
M164.884 -142.147
L159.161 -146.4
L160.076 -153.798
L160.423 -161.196
L158.303 -168.595
L157.872 -175.073
L157.732 -175.993
L157.872 -176.123
L162.269 -183.391
L160.67 -190.79
L157.872 -194.271
L152.88 -198.188
L157.872 -203.891
L164.884 -202.075
L167.387 -205.586
L164.884 -209.915
L162.851 -212.985
L164.884 -219.255
L165.852 -220.383
L171.897 -222.117
L178.909 -226.766
L179.996 -227.781
L178.909 -229.126
L176.55 -235.18
L178.909 -237.885
L185.921 -239.699
L188.588 -242.578
L192.934 -247.81
L196.93 -249.976
L199.946 -255.895
L200.853 -257.375
L206.958 -264.773
L206.958 -264.773
L213.97 -266.066
L215.105 -272.171
L220.983 -279.232
L227.995 -278.668
L228.56 -279.57
L230.618 -286.968
L235.007 -292.741
L238.126 -294.366
L242.019 -297.301
L249.032 -301.157
L250.192 -301.765
L256.044 -306.597
L262.787 -309.163
L263.056 -309.338
L263.609 -309.163
L270.069 -308.679
L270.757 -309.163
L270.069 -315.759
L269.836 -316.562
L269.826 -323.96
L270.069 -324.271
L272.763 -323.96
L277.081 -323.379
L284.093 -322.491
L291.105 -318.43
L298.118 -318.006
L305.076 -316.562
L305.13 -316.554
L305.141 -316.562
L312.142 -322.248
L313.645 -323.96
L319.155 -327.946
L326.167 -325.133
L326.825 -323.96
L327.617 -316.562
L328.203 -309.163
L326.167 -307.222
L324.544 -301.765
L326.043 -294.366
L323.547 -286.968
L319.155 -281.576
L316.573 -279.57
L312.371 -272.171
L314.273 -264.773
L315.684 -257.375
L312.142 -251.739
L310.269 -249.976
L306.212 -242.578
L305.13 -241.802
L299.275 -235.18
L300.436 -227.781
L298.118 -224.627
L293.467 -220.383
L291.105 -217.965
L284.26 -212.985
L284.093 -212.814
L283.339 -212.985
L277.081 -214.287
L276.218 -212.985
L273.57 -205.586
L272.755 -198.188
L271.395 -190.79
L270.069 -189.215
L267.164 -190.79
L263.056 -197.526
L259.085 -190.79
L256.044 -185.281
L249.032 -185.251
L245.873 -183.391
L242.019 -178.142
L240.796 -175.993
L242.019 -175.625
L245.718 -168.595
L242.019 -164.531
L237.907 -168.595
L235.007 -174.07
L227.995 -170.913
L225.022 -168.595
L220.983 -164.612
L213.97 -163.01
L211.839 -161.196
L206.958 -156.678
L203.711 -153.798
L199.946 -147.518
L192.934 -149.88
L185.921 -148.09
L183.791 -146.4
L178.909 -142.238
L172.224 -146.4
L171.897 -147.08
L171.388 -146.4
L164.884 -142.147
M157.872 -223.872
L155.072 -227.781
L157.872 -230.692
L162.161 -227.781
L157.872 -223.872
M312.142 -360.952
L312.142 -360.952
L312.142 -360.952
L319.155 -360.967
L319.314 -360.952
L319.155 -360.935
L312.142 -360.952
M340.191 -298.546
L336.633 -301.765
L340.191 -304.932
L342.393 -301.765
L340.191 -298.546
M354.216 -322.765
L354.057 -323.96
L354.216 -324.192
L361.228 -324.307
L361.856 -323.96
L361.228 -323.513
L354.216 -322.765
M115.798 -136.921
L112.782 -139.001
L115.798 -143.749
L117.999 -139.001
L115.798 -136.921
M115.798 -149.042
L112.389 -153.798
L114.376 -161.196
L115.798 -164.527
L118.338 -161.196
L117.236 -153.798
L115.798 -149.042
M143.848 -144.685
L141.995 -146.4
L138.87 -153.798
L143.521 -161.196
L143.848 -161.466
L144.06 -161.196
L149.305 -153.798
L146.684 -146.4
L143.848 -144.685
M143.848 -188.357
L142.516 -190.79
L143.848 -192.129
L145.606 -190.79
L143.848 -188.357" id="C1_1_1fb664eb86"/>
     <path d="
M101.774 -106.582
L103.827 -109.408
L101.774 -111.597
L99.3145 -109.408
L101.774 -106.582" id="C1_2_080ac57c02"/>
     <path d="
M94.7616 -119.209
L99.2156 -124.205
L94.7616 -129.427
L90.6656 -124.205
L94.7616 -119.209" id="C1_3_e9d2c351a8"/>
     <path d="
M263.056 -201.347
L263.726 -205.586
L263.056 -205.818
L261.43 -205.586
L263.056 -201.347" id="C1_4_e361e7cc4c"/>
     <path d="
M319.155 -210.398
L321.469 -212.985
L319.155 -216.195
L316.239 -212.985
L319.155 -210.398" id="C1_5_530d489a1e"/>
     <path d="
M284.093 -227.332
L284.364 -227.781
L284.093 -227.989
L283.971 -227.781
L284.093 -227.332" id="C1_6_8c3e6a7ce7"/>
     <path d="
M178.909 -259.957
L179.706 -264.773
L178.909 -265.547
L178.245 -264.773
L178.909 -259.957" id="C1_7_6bf8187a25"/>
     <path d="
M256.044 -351.735
L258.079 -353.553
L256.044 -355.097
L254.576 -353.553
L256.044 -351.735" id="C1_8_74a365c5fb"/>
     <path d="
M319.155 -380.704
L321.023 -383.147
L319.155 -384.598
L316.999 -383.147
L319.155 -380.704" id="C1_9_618d0226e0"/>
     <path d="
M340.191 -378.698
L346.464 -383.147
L340.191 -387.14
L335.893 -383.147
L340.191 -378.698" id="C1_a_f5a802afdd"/>
    </defs>
    <g clip-path="url(#pabc30ec53b)">
     <use style="fill:#0000ff;fill-opacity:0.5;" x="0.0" xlink:href="#C1_0_5130f9ccc7" y="432.0"/>
    </g>
    <g clip-path="url(#pabc30ec53b)">
     <use style="fill:#0000ff;fill-opacity:0.5;" x="0.0" xlink:href="#C1_1_1fb664eb86" y="432.0"/>
    </g>
    <g clip-path="url(#pabc30ec53b)">
     <use style="fill:#0000ff;fill-opacity:0.5;" x="0.0" xlink:href="#C1_2_080ac57c02" y="432.0"/>
    </g>
    <g clip-path="url(#pabc30ec53b)">
     <use style="fill:#0000ff;fill-opacity:0.5;" x="0.0" xlink:href="#C1_3_e9d2c351a8" y="432.0"/>
    </g>
    <g clip-path="url(#pabc30ec53b)">
     <use style="fill:#0000ff;fill-opacity:0.5;" x="0.0" xlink:href="#C1_4_e361e7cc4c" y="432.0"/>
    </g>
    <g clip-path="url(#pabc30ec53b)">
     <use style="fill:#0000ff;fill-opacity:0.5;" x="0.0" xlink:href="#C1_5_530d489a1e" y="432.0"/>
    </g>
    <g clip-path="url(#pabc30ec53b)">
     <use style="fill:#0000ff;fill-opacity:0.5;" x="0.0" xlink:href="#C1_6_8c3e6a7ce7" y="432.0"/>
    </g>
    <g clip-path="url(#pabc30ec53b)">
     <use style="fill:#0000ff;fill-opacity:0.5;" x="0.0" xlink:href="#C1_7_6bf8187a25" y="432.0"/>
    </g>
    <g clip-path="url(#pabc30ec53b)">
     <use style="fill:#0000ff;fill-opacity:0.5;" x="0.0" xlink:href="#C1_8_74a365c5fb" y="432.0"/>
    </g>
    <g clip-path="url(#pabc30ec53b)">
     <use style="fill:#0000ff;fill-opacity:0.5;" x="0.0" xlink:href="#C1_9_618d0226e0" y="432.0"/>
    </g>
    <g clip-path="url(#pabc30ec53b)">
     <use style="fill:#0000ff;fill-opacity:0.5;" x="0.0" xlink:href="#C1_a_f5a802afdd" y="432.0"/>
    </g>
   </g>
   <g id="PathCollection_3">
    <defs>
     <path d="
M157.872 -131.504
L158.068 -131.603
L157.872 -132.051
L157.774 -131.603
L157.872 -131.504" id="C2_0_f70b438123"/>
     <path d="
M143.848 -144.685
L146.684 -146.4
L149.305 -153.798
L144.06 -161.196
L143.848 -161.466
L143.521 -161.196
L138.87 -153.798
L141.995 -146.4
L143.848 -144.685" id="C2_1_175fa17b56"/>
     <path d="
M164.884 -142.147
L171.388 -146.4
L171.897 -147.08
L172.224 -146.4
L178.909 -142.238
L183.791 -146.4
L185.921 -148.09
L192.934 -149.88
L199.946 -147.518
L203.711 -153.798
L206.958 -156.678
L211.839 -161.196
L213.97 -163.01
L220.983 -164.612
L225.022 -168.595
L227.995 -170.913
L235.007 -174.07
L237.907 -168.595
L242.019 -164.531
L245.718 -168.595
L242.019 -175.625
L240.796 -175.993
L242.019 -178.142
L245.873 -183.391
L249.032 -185.251
L256.044 -185.281
L259.085 -190.79
L263.056 -197.526
L267.164 -190.79
L270.069 -189.215
L271.395 -190.79
L272.755 -198.188
L273.57 -205.586
L276.218 -212.985
L277.081 -214.287
L283.339 -212.985
L284.093 -212.814
L284.26 -212.985
L291.105 -217.965
L293.467 -220.383
L298.118 -224.627
L300.436 -227.781
L299.275 -235.18
L305.13 -241.802
L306.212 -242.578
L310.269 -249.976
L312.142 -251.739
L315.684 -257.375
L314.273 -264.773
L312.371 -272.171
L316.573 -279.57
L319.155 -281.576
L323.547 -286.968
L326.043 -294.366
L324.544 -301.765
L326.167 -307.222
L328.203 -309.163
L327.617 -316.562
L326.825 -323.96
L326.167 -325.133
L319.155 -327.946
L313.645 -323.96
L312.142 -322.248
L305.141 -316.562
L305.13 -316.554
L305.076 -316.562
L298.118 -318.006
L291.105 -318.43
L284.093 -322.491
L277.081 -323.379
L272.763 -323.96
L270.069 -324.271
L269.826 -323.96
L269.836 -316.562
L270.069 -315.759
L270.757 -309.163
L270.069 -308.679
L263.609 -309.163
L263.056 -309.338
L262.787 -309.163
L256.044 -306.597
L250.192 -301.765
L249.032 -301.157
L242.019 -297.301
L238.126 -294.366
L235.007 -292.741
L230.618 -286.968
L228.56 -279.57
L227.995 -278.668
L220.983 -279.232
L215.105 -272.171
L213.97 -266.066
L206.958 -264.773
L206.958 -264.773
L200.853 -257.375
L199.946 -255.895
L196.93 -249.976
L192.934 -247.81
L188.588 -242.578
L185.921 -239.699
L178.909 -237.885
L176.55 -235.18
L178.909 -229.126
L179.996 -227.781
L178.909 -226.766
L171.897 -222.117
L165.852 -220.383
L164.884 -219.255
L162.851 -212.985
L164.884 -209.915
L167.387 -205.586
L164.884 -202.075
L157.872 -203.891
L152.88 -198.188
L157.872 -194.271
L160.67 -190.79
L162.269 -183.391
L157.872 -176.123
L157.732 -175.993
L157.872 -175.073
L158.303 -168.595
L160.423 -161.196
L160.076 -153.798
L159.161 -146.4
L164.884 -142.147
M263.056 -201.347
L261.43 -205.586
L263.056 -205.818
L263.726 -205.586
L263.056 -201.347
M284.093 -227.332
L283.971 -227.781
L284.093 -227.989
L284.364 -227.781
L284.093 -227.332" id="C2_2_cbb069032b"/>
     <path d="
M150.86 -181.231
L152.731 -183.391
L150.86 -184.708
L149.173 -183.391
L150.86 -181.231" id="C2_3_3649e2e402"/>
     <path d="
M143.848 -188.357
L145.606 -190.79
L143.848 -192.129
L142.516 -190.79
L143.848 -188.357" id="C2_4_9054c01987"/>
     <path d="
M157.872 -223.872
L162.161 -227.781
L157.872 -230.692
L155.072 -227.781
L157.872 -223.872" id="C2_5_6a110aa490"/>
     <path d="
M340.191 -298.546
L342.393 -301.765
L340.191 -304.932
L336.633 -301.765
L340.191 -298.546" id="C2_6_5e23c7d816"/>
    </defs>
    <g clip-path="url(#pabc30ec53b)">
     <use style="fill:#0000ff;" x="0.0" xlink:href="#C2_0_f70b438123" y="432.0"/>
    </g>
    <g clip-path="url(#pabc30ec53b)">
     <use style="fill:#0000ff;" x="0.0" xlink:href="#C2_1_175fa17b56" y="432.0"/>
    </g>
    <g clip-path="url(#pabc30ec53b)">
     <use style="fill:#0000ff;" x="0.0" xlink:href="#C2_2_cbb069032b" y="432.0"/>
    </g>
    <g clip-path="url(#pabc30ec53b)">
     <use style="fill:#0000ff;" x="0.0" xlink:href="#C2_3_3649e2e402" y="432.0"/>
    </g>
    <g clip-path="url(#pabc30ec53b)">
     <use style="fill:#0000ff;" x="0.0" xlink:href="#C2_4_9054c01987" y="432.0"/>
    </g>
    <g clip-path="url(#pabc30ec53b)">
     <use style="fill:#0000ff;" x="0.0" xlink:href="#C2_5_6a110aa490" y="432.0"/>
    </g>
    <g clip-path="url(#pabc30ec53b)">
     <use style="fill:#0000ff;" x="0.0" xlink:href="#C2_6_5e23c7d816" y="432.0"/>
    </g>
   </g>
   <g id="line2d_1">
    <path clip-path="url(#pabc30ec53b)" d="
M238.513 200.519" style="fill:none;stroke:#fa8072;stroke-linecap:square;"/>
    <defs>
     <path d="
M-7.5 0
L7.5 0
M0 7.5
L0 -7.5" id="m415119b0dc" style="stroke:#fa8072;stroke-width:3;"/>
    </defs>
    <g clip-path="url(#pabc30ec53b)">
     <use style="fill:#fa8072;stroke:#fa8072;stroke-width:3;" x="238.513359375" xlink:href="#m415119b0dc" y="200.5194375"/>
    </g>
   </g>
   <g id="matplotlib.axis_1">
    <g id="xtick_1">
     <g id="text_1">
      <!-- −0.6 -->
      <defs>
       <path d="
M31.7812 66.4062
Q24.1719 66.4062 20.3281 58.9062
Q16.5 51.4219 16.5 36.375
Q16.5 21.3906 20.3281 13.8906
Q24.1719 6.39062 31.7812 6.39062
Q39.4531 6.39062 43.2812 13.8906
Q47.125 21.3906 47.125 36.375
Q47.125 51.4219 43.2812 58.9062
Q39.4531 66.4062 31.7812 66.4062
M31.7812 74.2188
Q44.0469 74.2188 50.5156 64.5156
Q56.9844 54.8281 56.9844 36.375
Q56.9844 17.9688 50.5156 8.26562
Q44.0469 -1.42188 31.7812 -1.42188
Q19.5312 -1.42188 13.0625 8.26562
Q6.59375 17.9688 6.59375 36.375
Q6.59375 54.8281 13.0625 64.5156
Q19.5312 74.2188 31.7812 74.2188" id="DejaVuSans-30"/>
       <path d="
M10.6875 12.4062
L21 12.4062
L21 0
L10.6875 0
z
" id="DejaVuSans-2e"/>
       <path d="
M33.0156 40.375
Q26.375 40.375 22.4844 35.8281
Q18.6094 31.2969 18.6094 23.3906
Q18.6094 15.5312 22.4844 10.9531
Q26.375 6.39062 33.0156 6.39062
Q39.6562 6.39062 43.5312 10.9531
Q47.4062 15.5312 47.4062 23.3906
Q47.4062 31.2969 43.5312 35.8281
Q39.6562 40.375 33.0156 40.375
M52.5938 71.2969
L52.5938 62.3125
Q48.875 64.0625 45.0938 64.9844
Q41.3125 65.9219 37.5938 65.9219
Q27.8281 65.9219 22.6719 59.3281
Q17.5312 52.7344 16.7969 39.4062
Q19.6719 43.6562 24.0156 45.9219
Q28.375 48.1875 33.5938 48.1875
Q44.5781 48.1875 50.9531 41.5156
Q57.3281 34.8594 57.3281 23.3906
Q57.3281 12.1562 50.6875 5.35938
Q44.0469 -1.42188 33.0156 -1.42188
Q20.3594 -1.42188 13.6719 8.26562
Q6.98438 17.9688 6.98438 36.375
Q6.98438 53.6562 15.1875 63.9375
Q23.3906 74.2188 37.2031 74.2188
Q40.9219 74.2188 44.7031 73.4844
Q48.4844 72.75 52.5938 71.2969" id="DejaVuSans-36"/>
       <path d="
M10.5938 35.5
L73.1875 35.5
L73.1875 27.2031
L10.5938 27.2031
z
" id="DejaVuSans-2212"/>
      </defs>
      <g transform="translate(53.15625 394.897)scale(0.12 -0.12)">
       <use xlink:href="#DejaVuSans-2212"/>
       <use x="83.7890625" xlink:href="#DejaVuSans-30"/>
       <use x="147.412109375" xlink:href="#DejaVuSans-2e"/>
       <use x="179.19921875" xlink:href="#DejaVuSans-36"/>
      </g>
     </g>
    </g>
    <g id="xtick_2">
     <g id="line2d_2">
      <path clip-path="url(#pabc30ec53b)" d="
M123.979 381.779
L123.979 19.26" style="fill:none;stroke:#000000;stroke-dasharray:1.000000,3.000000;stroke-dashoffset:0.0;stroke-width:0.5;"/>
     </g>
     <g id="line2d_3">
      <defs>
       <path d="
M0 0
L0 -4" id="m93b0483c22" style="stroke:#000000;stroke-width:0.5;"/>
      </defs>
      <g>
       <use style="stroke:#000000;stroke-width:0.5;" x="123.979453125" xlink:href="#m93b0483c22" y="381.778875"/>
      </g>
     </g>
     <g id="line2d_4">
      <defs>
       <path d="
M0 0
L0 4" id="m741efc42ff" style="stroke:#000000;stroke-width:0.5;"/>
      </defs>
      <g>
       <use style="stroke:#000000;stroke-width:0.5;" x="123.979453125" xlink:href="#m741efc42ff" y="19.26"/>
      </g>
     </g>
     <g id="text_2">
      <!-- −0.4 -->
      <defs>
       <path d="
M37.7969 64.3125
L12.8906 25.3906
L37.7969 25.3906
z

M35.2031 72.9062
L47.6094 72.9062
L47.6094 25.3906
L58.0156 25.3906
L58.0156 17.1875
L47.6094 17.1875
L47.6094 0
L37.7969 0
L37.7969 17.1875
L4.89062 17.1875
L4.89062 26.7031
z
" id="DejaVuSans-34"/>
      </defs>
      <g transform="translate(110.381953125 394.897)scale(0.12 -0.12)">
       <use xlink:href="#DejaVuSans-2212"/>
       <use x="83.7890625" xlink:href="#DejaVuSans-30"/>
       <use x="147.412109375" xlink:href="#DejaVuSans-2e"/>
       <use x="179.19921875" xlink:href="#DejaVuSans-34"/>
      </g>
     </g>
    </g>
    <g id="xtick_3">
     <g id="line2d_5">
      <path clip-path="url(#pabc30ec53b)" d="
M181.246 381.779
L181.246 19.26" style="fill:none;stroke:#000000;stroke-dasharray:1.000000,3.000000;stroke-dashoffset:0.0;stroke-width:0.5;"/>
     </g>
     <g id="line2d_6">
      <g>
       <use style="stroke:#000000;stroke-width:0.5;" x="181.24640625" xlink:href="#m93b0483c22" y="381.778875"/>
      </g>
     </g>
     <g id="line2d_7">
      <g>
       <use style="stroke:#000000;stroke-width:0.5;" x="181.24640625" xlink:href="#m741efc42ff" y="19.26"/>
      </g>
     </g>
     <g id="text_3">
      <!-- −0.2 -->
      <defs>
       <path d="
M19.1875 8.29688
L53.6094 8.29688
L53.6094 0
L7.32812 0
L7.32812 8.29688
Q12.9375 14.1094 22.625 23.8906
Q32.3281 33.6875 34.8125 36.5312
Q39.5469 41.8438 41.4219 45.5312
Q43.3125 49.2188 43.3125 52.7812
Q43.3125 58.5938 39.2344 62.25
Q35.1562 65.9219 28.6094 65.9219
Q23.9688 65.9219 18.8125 64.3125
Q13.6719 62.7031 7.8125 59.4219
L7.8125 69.3906
Q13.7656 71.7812 18.9375 73
Q24.125 74.2188 28.4219 74.2188
Q39.75 74.2188 46.4844 68.5469
Q53.2188 62.8906 53.2188 53.4219
Q53.2188 48.9219 51.5312 44.8906
Q49.8594 40.875 45.4062 35.4062
Q44.1875 33.9844 37.6406 27.2188
Q31.1094 20.4531 19.1875 8.29688" id="DejaVuSans-32"/>
      </defs>
      <g transform="translate(167.91328125 394.897)scale(0.12 -0.12)">
       <use xlink:href="#DejaVuSans-2212"/>
       <use x="83.7890625" xlink:href="#DejaVuSans-30"/>
       <use x="147.412109375" xlink:href="#DejaVuSans-2e"/>
       <use x="179.19921875" xlink:href="#DejaVuSans-32"/>
      </g>
     </g>
    </g>
    <g id="xtick_4">
     <g id="line2d_8">
      <path clip-path="url(#pabc30ec53b)" d="
M238.513 381.779
L238.513 19.26" style="fill:none;stroke:#000000;stroke-dasharray:1.000000,3.000000;stroke-dashoffset:0.0;stroke-width:0.5;"/>
     </g>
     <g id="line2d_9">
      <g>
       <use style="stroke:#000000;stroke-width:0.5;" x="238.513359375" xlink:href="#m93b0483c22" y="381.778875"/>
      </g>
     </g>
     <g id="line2d_10">
      <g>
       <use style="stroke:#000000;stroke-width:0.5;" x="238.513359375" xlink:href="#m741efc42ff" y="19.26"/>
      </g>
     </g>
     <g id="text_4">
      <!-- 0.0 -->
      <g transform="translate(229.765546875 394.897)scale(0.12 -0.12)">
       <use xlink:href="#DejaVuSans-30"/>
       <use x="63.623046875" xlink:href="#DejaVuSans-2e"/>
       <use x="95.41015625" xlink:href="#DejaVuSans-30"/>
      </g>
     </g>
    </g>
    <g id="xtick_5">
     <g id="line2d_11">
      <path clip-path="url(#pabc30ec53b)" d="
M295.78 381.779
L295.78 19.26" style="fill:none;stroke:#000000;stroke-dasharray:1.000000,3.000000;stroke-dashoffset:0.0;stroke-width:0.5;"/>
     </g>
     <g id="line2d_12">
      <g>
       <use style="stroke:#000000;stroke-width:0.5;" x="295.7803125" xlink:href="#m93b0483c22" y="381.778875"/>
      </g>
     </g>
     <g id="line2d_13">
      <g>
       <use style="stroke:#000000;stroke-width:0.5;" x="295.7803125" xlink:href="#m741efc42ff" y="19.26"/>
      </g>
     </g>
     <g id="text_5">
      <!-- 0.2 -->
      <g transform="translate(287.235 394.897)scale(0.12 -0.12)">
       <use xlink:href="#DejaVuSans-30"/>
       <use x="63.623046875" xlink:href="#DejaVuSans-2e"/>
       <use x="95.41015625" xlink:href="#DejaVuSans-32"/>
      </g>
     </g>
    </g>
    <g id="xtick_6">
     <g id="line2d_14">
      <path clip-path="url(#pabc30ec53b)" d="
M353.047 381.779
L353.047 19.26" style="fill:none;stroke:#000000;stroke-dasharray:1.000000,3.000000;stroke-dashoffset:0.0;stroke-width:0.5;"/>
     </g>
     <g id="line2d_15">
      <g>
       <use style="stroke:#000000;stroke-width:0.5;" x="353.047265625" xlink:href="#m93b0483c22" y="381.778875"/>
      </g>
     </g>
     <g id="line2d_16">
      <g>
       <use style="stroke:#000000;stroke-width:0.5;" x="353.047265625" xlink:href="#m741efc42ff" y="19.26"/>
      </g>
     </g>
     <g id="text_6">
      <!-- 0.4 -->
      <g transform="translate(344.237578125 394.897)scale(0.12 -0.12)">
       <use xlink:href="#DejaVuSans-30"/>
       <use x="63.623046875" xlink:href="#DejaVuSans-2e"/>
       <use x="95.41015625" xlink:href="#DejaVuSans-34"/>
      </g>
     </g>
    </g>
    <g id="xtick_7">
     <g id="line2d_17">
      <path clip-path="url(#pabc30ec53b)" d="
M410.314 381.779
L410.314 19.26" style="fill:none;stroke:#000000;stroke-dasharray:1.000000,3.000000;stroke-dashoffset:0.0;stroke-width:0.5;"/>
     </g>
     <g id="line2d_18">
      <g>
       <use style="stroke:#000000;stroke-width:0.5;" x="410.31421875" xlink:href="#m93b0483c22" y="381.778875"/>
      </g>
     </g>
     <g id="line2d_19">
      <g>
       <use style="stroke:#000000;stroke-width:0.5;" x="410.31421875" xlink:href="#m741efc42ff" y="19.26"/>
      </g>
     </g>
     <g id="text_7">
      <!-- 0.6 -->
      <g transform="translate(401.54578125 394.897)scale(0.12 -0.12)">
       <use xlink:href="#DejaVuSans-30"/>
       <use x="63.623046875" xlink:href="#DejaVuSans-2e"/>
       <use x="95.41015625" xlink:href="#DejaVuSans-36"/>
      </g>
     </g>
    </g>
    <g id="xtick_8">
     <g id="line2d_20">
      <defs>
       <path d="
M0 0
L0 -2" id="m177f7580d0" style="stroke:#000000;stroke-width:0.5;"/>
      </defs>
      <g>
       <use style="stroke:#000000;stroke-width:0.5;" x="81.0292382812" xlink:href="#m177f7580d0" y="381.778875"/>
      </g>
     </g>
     <g id="line2d_21">
      <defs>
       <path d="
M0 0
L0 2" id="m5284c7e2a0" style="stroke:#000000;stroke-width:0.5;"/>
      </defs>
      <g>
       <use style="stroke:#000000;stroke-width:0.5;" x="81.0292382812" xlink:href="#m5284c7e2a0" y="19.26"/>
      </g>
     </g>
    </g>
    <g id="xtick_9">
     <g id="line2d_22">
      <g>
       <use style="stroke:#000000;stroke-width:0.5;" x="95.3459765625" xlink:href="#m177f7580d0" y="381.778875"/>
      </g>
     </g>
     <g id="line2d_23">
      <g>
       <use style="stroke:#000000;stroke-width:0.5;" x="95.3459765625" xlink:href="#m5284c7e2a0" y="19.26"/>
      </g>
     </g>
    </g>
    <g id="xtick_10">
     <g id="line2d_24">
      <g>
       <use style="stroke:#000000;stroke-width:0.5;" x="109.662714844" xlink:href="#m177f7580d0" y="381.778875"/>
      </g>
     </g>
     <g id="line2d_25">
      <g>
       <use style="stroke:#000000;stroke-width:0.5;" x="109.662714844" xlink:href="#m5284c7e2a0" y="19.26"/>
      </g>
     </g>
    </g>
    <g id="xtick_11">
     <g id="line2d_26">
      <g>
       <use style="stroke:#000000;stroke-width:0.5;" x="138.296191406" xlink:href="#m177f7580d0" y="381.778875"/>
      </g>
     </g>
     <g id="line2d_27">
      <g>
       <use style="stroke:#000000;stroke-width:0.5;" x="138.296191406" xlink:href="#m5284c7e2a0" y="19.26"/>
      </g>
     </g>
    </g>
    <g id="xtick_12">
     <g id="line2d_28">
      <g>
       <use style="stroke:#000000;stroke-width:0.5;" x="152.612929687" xlink:href="#m177f7580d0" y="381.778875"/>
      </g>
     </g>
     <g id="line2d_29">
      <g>
       <use style="stroke:#000000;stroke-width:0.5;" x="152.612929687" xlink:href="#m5284c7e2a0" y="19.26"/>
      </g>
     </g>
    </g>
    <g id="xtick_13">
     <g id="line2d_30">
      <g>
       <use style="stroke:#000000;stroke-width:0.5;" x="166.929667969" xlink:href="#m177f7580d0" y="381.778875"/>
      </g>
     </g>
     <g id="line2d_31">
      <g>
       <use style="stroke:#000000;stroke-width:0.5;" x="166.929667969" xlink:href="#m5284c7e2a0" y="19.26"/>
      </g>
     </g>
    </g>
    <g id="xtick_14">
     <g id="line2d_32">
      <g>
       <use style="stroke:#000000;stroke-width:0.5;" x="195.563144531" xlink:href="#m177f7580d0" y="381.778875"/>
      </g>
     </g>
     <g id="line2d_33">
      <g>
       <use style="stroke:#000000;stroke-width:0.5;" x="195.563144531" xlink:href="#m5284c7e2a0" y="19.26"/>
      </g>
     </g>
    </g>
    <g id="xtick_15">
     <g id="line2d_34">
      <g>
       <use style="stroke:#000000;stroke-width:0.5;" x="209.879882812" xlink:href="#m177f7580d0" y="381.778875"/>
      </g>
     </g>
     <g id="line2d_35">
      <g>
       <use style="stroke:#000000;stroke-width:0.5;" x="209.879882812" xlink:href="#m5284c7e2a0" y="19.26"/>
      </g>
     </g>
    </g>
    <g id="xtick_16">
     <g id="line2d_36">
      <g>
       <use style="stroke:#000000;stroke-width:0.5;" x="224.196621094" xlink:href="#m177f7580d0" y="381.778875"/>
      </g>
     </g>
     <g id="line2d_37">
      <g>
       <use style="stroke:#000000;stroke-width:0.5;" x="224.196621094" xlink:href="#m5284c7e2a0" y="19.26"/>
      </g>
     </g>
    </g>
    <g id="xtick_17">
     <g id="line2d_38">
      <g>
       <use style="stroke:#000000;stroke-width:0.5;" x="252.830097656" xlink:href="#m177f7580d0" y="381.778875"/>
      </g>
     </g>
     <g id="line2d_39">
      <g>
       <use style="stroke:#000000;stroke-width:0.5;" x="252.830097656" xlink:href="#m5284c7e2a0" y="19.26"/>
      </g>
     </g>
    </g>
    <g id="xtick_18">
     <g id="line2d_40">
      <g>
       <use style="stroke:#000000;stroke-width:0.5;" x="267.146835937" xlink:href="#m177f7580d0" y="381.778875"/>
      </g>
     </g>
     <g id="line2d_41">
      <g>
       <use style="stroke:#000000;stroke-width:0.5;" x="267.146835937" xlink:href="#m5284c7e2a0" y="19.26"/>
      </g>
     </g>
    </g>
    <g id="xtick_19">
     <g id="line2d_42">
      <g>
       <use style="stroke:#000000;stroke-width:0.5;" x="281.463574219" xlink:href="#m177f7580d0" y="381.778875"/>
      </g>
     </g>
     <g id="line2d_43">
      <g>
       <use style="stroke:#000000;stroke-width:0.5;" x="281.463574219" xlink:href="#m5284c7e2a0" y="19.26"/>
      </g>
     </g>
    </g>
    <g id="xtick_20">
     <g id="line2d_44">
      <g>
       <use style="stroke:#000000;stroke-width:0.5;" x="310.097050781" xlink:href="#m177f7580d0" y="381.778875"/>
      </g>
     </g>
     <g id="line2d_45">
      <g>
       <use style="stroke:#000000;stroke-width:0.5;" x="310.097050781" xlink:href="#m5284c7e2a0" y="19.26"/>
      </g>
     </g>
    </g>
    <g id="xtick_21">
     <g id="line2d_46">
      <g>
       <use style="stroke:#000000;stroke-width:0.5;" x="324.413789062" xlink:href="#m177f7580d0" y="381.778875"/>
      </g>
     </g>
     <g id="line2d_47">
      <g>
       <use style="stroke:#000000;stroke-width:0.5;" x="324.413789062" xlink:href="#m5284c7e2a0" y="19.26"/>
      </g>
     </g>
    </g>
    <g id="xtick_22">
     <g id="line2d_48">
      <g>
       <use style="stroke:#000000;stroke-width:0.5;" x="338.730527344" xlink:href="#m177f7580d0" y="381.778875"/>
      </g>
     </g>
     <g id="line2d_49">
      <g>
       <use style="stroke:#000000;stroke-width:0.5;" x="338.730527344" xlink:href="#m5284c7e2a0" y="19.26"/>
      </g>
     </g>
    </g>
    <g id="xtick_23">
     <g id="line2d_50">
      <g>
       <use style="stroke:#000000;stroke-width:0.5;" x="353.047265625" xlink:href="#m177f7580d0" y="381.778875"/>
      </g>
     </g>
     <g id="line2d_51">
      <g>
       <use style="stroke:#000000;stroke-width:0.5;" x="353.047265625" xlink:href="#m5284c7e2a0" y="19.26"/>
      </g>
     </g>
    </g>
    <g id="xtick_24">
     <g id="line2d_52">
      <g>
       <use style="stroke:#000000;stroke-width:0.5;" x="367.364003906" xlink:href="#m177f7580d0" y="381.778875"/>
      </g>
     </g>
     <g id="line2d_53">
      <g>
       <use style="stroke:#000000;stroke-width:0.5;" x="367.364003906" xlink:href="#m5284c7e2a0" y="19.26"/>
      </g>
     </g>
    </g>
    <g id="xtick_25">
     <g id="line2d_54">
      <g>
       <use style="stroke:#000000;stroke-width:0.5;" x="381.680742187" xlink:href="#m177f7580d0" y="381.778875"/>
      </g>
     </g>
     <g id="line2d_55">
      <g>
       <use style="stroke:#000000;stroke-width:0.5;" x="381.680742187" xlink:href="#m5284c7e2a0" y="19.26"/>
      </g>
     </g>
    </g>
    <g id="xtick_26">
     <g id="line2d_56">
      <g>
       <use style="stroke:#000000;stroke-width:0.5;" x="395.997480469" xlink:href="#m177f7580d0" y="381.778875"/>
      </g>
     </g>
     <g id="line2d_57">
      <g>
       <use style="stroke:#000000;stroke-width:0.5;" x="395.997480469" xlink:href="#m5284c7e2a0" y="19.26"/>
      </g>
     </g>
    </g>
    <g id="text_8">
     <!-- $\mathcal{C}_{P}$ -->
     <defs>
      <path d="
M4.89062 0
Q3.90625 0 3.90625 1.3125
Q3.95312 1.5625 4.09375 2.17188
Q4.25 2.78125 4.51562 3.14062
Q4.78125 3.51562 5.17188 3.51562
Q11.2812 3.51562 13.7188 4.20312
Q14.9844 4.64062 15.5781 6.89062
L29.2969 61.8125
Q29.5 62.7969 29.5 63.1875
Q29.5 64.2656 28.3281 64.4062
Q26.4219 64.7969 21.0938 64.7969
Q20.125 64.7969 20.125 66.1094
Q20.1719 66.3594 20.3125 66.9688
Q20.4531 67.5781 20.7188 67.9375
Q21 68.3125 21.3906 68.3125
L55.9062 68.3125
Q60.6406 68.3125 65.0781 66.625
Q69.5312 64.9375 72.3594 61.4688
Q75.2031 58.0156 75.2031 53.0781
Q75.2031 46.7344 70.7344 41.75
Q66.2656 36.7656 59.5938 33.9844
Q52.9375 31.2031 46.6875 31.2031
L30.4219 31.2031
L24.3125 6.5
Q24.125 5.51562 24.125 5.07812
Q24.125 4.6875 24.2344 4.42188
Q24.3594 4.15625 24.5781 4.07812
Q24.8125 4 25.2969 3.90625
Q27.2031 3.51562 32.5156 3.51562
Q33.5 3.51562 33.5 2.20312
Q33.1562 0.78125 32.9531 0.390625
Q32.7656 0 31.7812 0
z

M30.9062 34.1875
L44.9219 34.1875
Q54.6406 34.1875 59.7188 39.4062
Q62.3125 42 63.9375 46.875
Q65.5781 51.7656 65.5781 55.7188
Q65.5781 60.6406 61.8125 62.7188
Q58.0625 64.7969 52.4844 64.7969
L42.9219 64.7969
Q40.1875 64.7969 39.2969 64.3281
Q38.4219 63.875 37.7031 61.375
z
" id="Cmmi10-50"/>
      <path d="
M19.6719 -2.39062
Q14.9375 -2.39062 11.4375 -0.5625
Q7.95312 1.26562 5.64062 4.5625
Q3.32812 7.85938 2.26562 11.8125
Q1.21875 15.7656 1.21875 20.3125
Q1.21875 29.25 4.51562 38.3594
Q7.8125 47.4688 13.7656 54.7188
Q19.7344 61.9688 27.9062 66.2344
Q36.0781 70.5156 45.5156 70.5156
L46.0938 70.5156
Q49.3594 70.5156 51.3906 68.8438
Q53.4219 67.1875 53.4219 64.0156
Q53.4219 61.2344 51.8125 57.4688
Q50.2031 53.7188 47.9062 49.6094
Q46.8281 47.7969 44.6562 46.4844
Q42.4844 45.1719 40.1875 44.9219
L39.7031 44.9219
Q39.0156 45.2656 39.0156 45.6094
Q39.0156 46.0469 40.5938 49.1719
Q42.1875 52.2969 43.3281 55.0469
Q44.4844 57.8125 44.4844 59.8125
Q44.4844 62.25 42.9375 63.4219
Q41.4062 64.5938 38.8125 64.5938
Q31.4531 64.5938 26.4375 61.0781
Q21.4375 57.5625 17.3906 50.6875
Q14.0156 44.875 12.0625 38.1094
Q10.1094 31.3438 10.1094 24.6094
Q10.1094 19.0938 11.8594 14.2344
Q13.625 9.375 17.4219 6.4375
Q21.2344 3.51562 27 3.51562
Q33.0625 3.51562 37.7969 8.01562
Q38.4219 8.6875 40.4062 11.2969
Q42.3906 13.9219 44.0938 15.1406
Q45.7969 16.3594 48.4844 16.6094
L49.0312 16.6094
Q49.7031 16.2656 49.7031 15.8281
Q49.7031 15.4375 49.4219 14.9844
Q46.5781 10.2969 41.7969 6.29688
Q37.0156 2.29688 31.2969 -0.046875
Q25.5938 -2.39062 20.3125 -2.39062
z
" id="Cmsy10-43"/>
     </defs>
     <g transform="translate(232.633359375 410.912625)scale(0.12 -0.12)">
      <use transform="translate(0.0 0.484375)" xlink:href="#Cmsy10-43"/>
      <use transform="translate(52.587890625 -25.025)scale(0.7)" xlink:href="#Cmmi10-50"/>
     </g>
    </g>
   </g>
   <g id="matplotlib.axis_2">
    <g id="ytick_1">
     <g id="text_9">
      <!-- −0.6 -->
      <g transform="translate(35.6 385.090125)scale(0.12 -0.12)">
       <use xlink:href="#DejaVuSans-2212"/>
       <use x="83.7890625" xlink:href="#DejaVuSans-30"/>
       <use x="147.412109375" xlink:href="#DejaVuSans-2e"/>
       <use x="179.19921875" xlink:href="#DejaVuSans-36"/>
      </g>
     </g>
    </g>
    <g id="ytick_2">
     <g id="line2d_58">
      <path clip-path="url(#pabc30ec53b)" d="
M66.7125 321.359
L410.314 321.359" style="fill:none;stroke:#000000;stroke-dasharray:1.000000,3.000000;stroke-dashoffset:0.0;stroke-width:0.5;"/>
     </g>
     <g id="line2d_59">
      <defs>
       <path d="
M0 0
L4 0" id="m728421d6d4" style="stroke:#000000;stroke-width:0.5;"/>
      </defs>
      <g>
       <use style="stroke:#000000;stroke-width:0.5;" x="66.7125" xlink:href="#m728421d6d4" y="321.3590625"/>
      </g>
     </g>
     <g id="line2d_60">
      <defs>
       <path d="
M0 0
L-4 0" id="mcb0005524f" style="stroke:#000000;stroke-width:0.5;"/>
      </defs>
      <g>
       <use style="stroke:#000000;stroke-width:0.5;" x="410.31421875" xlink:href="#mcb0005524f" y="321.3590625"/>
      </g>
     </g>
     <g id="text_10">
      <!-- −0.4 -->
      <g transform="translate(35.5175 324.6703125)scale(0.12 -0.12)">
       <use xlink:href="#DejaVuSans-2212"/>
       <use x="83.7890625" xlink:href="#DejaVuSans-30"/>
       <use x="147.412109375" xlink:href="#DejaVuSans-2e"/>
       <use x="179.19921875" xlink:href="#DejaVuSans-34"/>
      </g>
     </g>
    </g>
    <g id="ytick_3">
     <g id="line2d_61">
      <path clip-path="url(#pabc30ec53b)" d="
M66.7125 260.939
L410.314 260.939" style="fill:none;stroke:#000000;stroke-dasharray:1.000000,3.000000;stroke-dashoffset:0.0;stroke-width:0.5;"/>
     </g>
     <g id="line2d_62">
      <g>
       <use style="stroke:#000000;stroke-width:0.5;" x="66.7125" xlink:href="#m728421d6d4" y="260.93925"/>
      </g>
     </g>
     <g id="line2d_63">
      <g>
       <use style="stroke:#000000;stroke-width:0.5;" x="410.31421875" xlink:href="#mcb0005524f" y="260.93925"/>
      </g>
     </g>
     <g id="text_11">
      <!-- −0.2 -->
      <g transform="translate(36.04625 264.2505)scale(0.12 -0.12)">
       <use xlink:href="#DejaVuSans-2212"/>
       <use x="83.7890625" xlink:href="#DejaVuSans-30"/>
       <use x="147.412109375" xlink:href="#DejaVuSans-2e"/>
       <use x="179.19921875" xlink:href="#DejaVuSans-32"/>
      </g>
     </g>
    </g>
    <g id="ytick_4">
     <g id="line2d_64">
      <path clip-path="url(#pabc30ec53b)" d="
M66.7125 200.519
L410.314 200.519" style="fill:none;stroke:#000000;stroke-dasharray:1.000000,3.000000;stroke-dashoffset:0.0;stroke-width:0.5;"/>
     </g>
     <g id="line2d_65">
      <g>
       <use style="stroke:#000000;stroke-width:0.5;" x="66.7125" xlink:href="#m728421d6d4" y="200.5194375"/>
      </g>
     </g>
     <g id="line2d_66">
      <g>
       <use style="stroke:#000000;stroke-width:0.5;" x="410.31421875" xlink:href="#mcb0005524f" y="200.5194375"/>
      </g>
     </g>
     <g id="text_12">
      <!-- 0.0 -->
      <g transform="translate(45.216875 203.8306875)scale(0.12 -0.12)">
       <use xlink:href="#DejaVuSans-30"/>
       <use x="63.623046875" xlink:href="#DejaVuSans-2e"/>
       <use x="95.41015625" xlink:href="#DejaVuSans-30"/>
      </g>
     </g>
    </g>
    <g id="ytick_5">
     <g id="line2d_67">
      <path clip-path="url(#pabc30ec53b)" d="
M66.7125 140.1
L410.314 140.1" style="fill:none;stroke:#000000;stroke-dasharray:1.000000,3.000000;stroke-dashoffset:0.0;stroke-width:0.5;"/>
     </g>
     <g id="line2d_68">
      <g>
       <use style="stroke:#000000;stroke-width:0.5;" x="66.7125" xlink:href="#m728421d6d4" y="140.099625"/>
      </g>
     </g>
     <g id="line2d_69">
      <g>
       <use style="stroke:#000000;stroke-width:0.5;" x="410.31421875" xlink:href="#mcb0005524f" y="140.099625"/>
      </g>
     </g>
     <g id="text_13">
      <!-- 0.2 -->
      <g transform="translate(45.621875 143.410875)scale(0.12 -0.12)">
       <use xlink:href="#DejaVuSans-30"/>
       <use x="63.623046875" xlink:href="#DejaVuSans-2e"/>
       <use x="95.41015625" xlink:href="#DejaVuSans-32"/>
      </g>
     </g>
    </g>
    <g id="ytick_6">
     <g id="line2d_70">
      <path clip-path="url(#pabc30ec53b)" d="
M66.7125 79.6798
L410.314 79.6798" style="fill:none;stroke:#000000;stroke-dasharray:1.000000,3.000000;stroke-dashoffset:0.0;stroke-width:0.5;"/>
     </g>
     <g id="line2d_71">
      <g>
       <use style="stroke:#000000;stroke-width:0.5;" x="66.7125" xlink:href="#m728421d6d4" y="79.6798125"/>
      </g>
     </g>
     <g id="line2d_72">
      <g>
       <use style="stroke:#000000;stroke-width:0.5;" x="410.31421875" xlink:href="#mcb0005524f" y="79.6798125"/>
      </g>
     </g>
     <g id="text_14">
      <!-- 0.4 -->
      <g transform="translate(45.093125 82.9910625)scale(0.12 -0.12)">
       <use xlink:href="#DejaVuSans-30"/>
       <use x="63.623046875" xlink:href="#DejaVuSans-2e"/>
       <use x="95.41015625" xlink:href="#DejaVuSans-34"/>
      </g>
     </g>
    </g>
    <g id="ytick_7">
     <g id="text_15">
      <!-- 0.6 -->
      <g transform="translate(45.175625 22.57125)scale(0.12 -0.12)">
       <use xlink:href="#DejaVuSans-30"/>
       <use x="63.623046875" xlink:href="#DejaVuSans-2e"/>
       <use x="95.41015625" xlink:href="#DejaVuSans-36"/>
      </g>
     </g>
    </g>
    <g id="ytick_8">
     <g id="line2d_73">
      <defs>
       <path d="
M0 0
L2 0" id="mf0c55a9a47" style="stroke:#000000;stroke-width:0.5;"/>
      </defs>
      <g>
       <use style="stroke:#000000;stroke-width:0.5;" x="66.7125" xlink:href="#mf0c55a9a47" y="366.673921875"/>
      </g>
     </g>
     <g id="line2d_74">
      <defs>
       <path d="
M0 0
L-2 0" id="ma4f294b3af" style="stroke:#000000;stroke-width:0.5;"/>
      </defs>
      <g>
       <use style="stroke:#000000;stroke-width:0.5;" x="410.31421875" xlink:href="#ma4f294b3af" y="366.673921875"/>
      </g>
     </g>
    </g>
    <g id="ytick_9">
     <g id="line2d_75">
      <g>
       <use style="stroke:#000000;stroke-width:0.5;" x="66.7125" xlink:href="#mf0c55a9a47" y="351.56896875"/>
      </g>
     </g>
     <g id="line2d_76">
      <g>
       <use style="stroke:#000000;stroke-width:0.5;" x="410.31421875" xlink:href="#ma4f294b3af" y="351.56896875"/>
      </g>
     </g>
    </g>
    <g id="ytick_10">
     <g id="line2d_77">
      <g>
       <use style="stroke:#000000;stroke-width:0.5;" x="66.7125" xlink:href="#mf0c55a9a47" y="336.464015625"/>
      </g>
     </g>
     <g id="line2d_78">
      <g>
       <use style="stroke:#000000;stroke-width:0.5;" x="410.31421875" xlink:href="#ma4f294b3af" y="336.464015625"/>
      </g>
     </g>
    </g>
    <g id="ytick_11">
     <g id="line2d_79">
      <g>
       <use style="stroke:#000000;stroke-width:0.5;" x="66.7125" xlink:href="#mf0c55a9a47" y="306.254109375"/>
      </g>
     </g>
     <g id="line2d_80">
      <g>
       <use style="stroke:#000000;stroke-width:0.5;" x="410.31421875" xlink:href="#ma4f294b3af" y="306.254109375"/>
      </g>
     </g>
    </g>
    <g id="ytick_12">
     <g id="line2d_81">
      <g>
       <use style="stroke:#000000;stroke-width:0.5;" x="66.7125" xlink:href="#mf0c55a9a47" y="291.14915625"/>
      </g>
     </g>
     <g id="line2d_82">
      <g>
       <use style="stroke:#000000;stroke-width:0.5;" x="410.31421875" xlink:href="#ma4f294b3af" y="291.14915625"/>
      </g>
     </g>
    </g>
    <g id="ytick_13">
     <g id="line2d_83">
      <g>
       <use style="stroke:#000000;stroke-width:0.5;" x="66.7125" xlink:href="#mf0c55a9a47" y="276.044203125"/>
      </g>
     </g>
     <g id="line2d_84">
      <g>
       <use style="stroke:#000000;stroke-width:0.5;" x="410.31421875" xlink:href="#ma4f294b3af" y="276.044203125"/>
      </g>
     </g>
    </g>
    <g id="ytick_14">
     <g id="line2d_85">
      <g>
       <use style="stroke:#000000;stroke-width:0.5;" x="66.7125" xlink:href="#mf0c55a9a47" y="245.834296875"/>
      </g>
     </g>
     <g id="line2d_86">
      <g>
       <use style="stroke:#000000;stroke-width:0.5;" x="410.31421875" xlink:href="#ma4f294b3af" y="245.834296875"/>
      </g>
     </g>
    </g>
    <g id="ytick_15">
     <g id="line2d_87">
      <g>
       <use style="stroke:#000000;stroke-width:0.5;" x="66.7125" xlink:href="#mf0c55a9a47" y="230.72934375"/>
      </g>
     </g>
     <g id="line2d_88">
      <g>
       <use style="stroke:#000000;stroke-width:0.5;" x="410.31421875" xlink:href="#ma4f294b3af" y="230.72934375"/>
      </g>
     </g>
    </g>
    <g id="ytick_16">
     <g id="line2d_89">
      <g>
       <use style="stroke:#000000;stroke-width:0.5;" x="66.7125" xlink:href="#mf0c55a9a47" y="215.624390625"/>
      </g>
     </g>
     <g id="line2d_90">
      <g>
       <use style="stroke:#000000;stroke-width:0.5;" x="410.31421875" xlink:href="#ma4f294b3af" y="215.624390625"/>
      </g>
     </g>
    </g>
    <g id="ytick_17">
     <g id="line2d_91">
      <g>
       <use style="stroke:#000000;stroke-width:0.5;" x="66.7125" xlink:href="#mf0c55a9a47" y="185.414484375"/>
      </g>
     </g>
     <g id="line2d_92">
      <g>
       <use style="stroke:#000000;stroke-width:0.5;" x="410.31421875" xlink:href="#ma4f294b3af" y="185.414484375"/>
      </g>
     </g>
    </g>
    <g id="ytick_18">
     <g id="line2d_93">
      <g>
       <use style="stroke:#000000;stroke-width:0.5;" x="66.7125" xlink:href="#mf0c55a9a47" y="170.30953125"/>
      </g>
     </g>
     <g id="line2d_94">
      <g>
       <use style="stroke:#000000;stroke-width:0.5;" x="410.31421875" xlink:href="#ma4f294b3af" y="170.30953125"/>
      </g>
     </g>
    </g>
    <g id="ytick_19">
     <g id="line2d_95">
      <g>
       <use style="stroke:#000000;stroke-width:0.5;" x="66.7125" xlink:href="#mf0c55a9a47" y="155.204578125"/>
      </g>
     </g>
     <g id="line2d_96">
      <g>
       <use style="stroke:#000000;stroke-width:0.5;" x="410.31421875" xlink:href="#ma4f294b3af" y="155.204578125"/>
      </g>
     </g>
    </g>
    <g id="ytick_20">
     <g id="line2d_97">
      <g>
       <use style="stroke:#000000;stroke-width:0.5;" x="66.7125" xlink:href="#mf0c55a9a47" y="124.994671875"/>
      </g>
     </g>
     <g id="line2d_98">
      <g>
       <use style="stroke:#000000;stroke-width:0.5;" x="410.31421875" xlink:href="#ma4f294b3af" y="124.994671875"/>
      </g>
     </g>
    </g>
    <g id="ytick_21">
     <g id="line2d_99">
      <g>
       <use style="stroke:#000000;stroke-width:0.5;" x="66.7125" xlink:href="#mf0c55a9a47" y="109.88971875"/>
      </g>
     </g>
     <g id="line2d_100">
      <g>
       <use style="stroke:#000000;stroke-width:0.5;" x="410.31421875" xlink:href="#ma4f294b3af" y="109.88971875"/>
      </g>
     </g>
    </g>
    <g id="ytick_22">
     <g id="line2d_101">
      <g>
       <use style="stroke:#000000;stroke-width:0.5;" x="66.7125" xlink:href="#mf0c55a9a47" y="94.784765625"/>
      </g>
     </g>
     <g id="line2d_102">
      <g>
       <use style="stroke:#000000;stroke-width:0.5;" x="410.31421875" xlink:href="#ma4f294b3af" y="94.784765625"/>
      </g>
     </g>
    </g>
    <g id="ytick_23">
     <g id="line2d_103">
      <g>
       <use style="stroke:#000000;stroke-width:0.5;" x="66.7125" xlink:href="#mf0c55a9a47" y="79.6798125"/>
      </g>
     </g>
     <g id="line2d_104">
      <g>
       <use style="stroke:#000000;stroke-width:0.5;" x="410.31421875" xlink:href="#ma4f294b3af" y="79.6798125"/>
      </g>
     </g>
    </g>
    <g id="ytick_24">
     <g id="line2d_105">
      <g>
       <use style="stroke:#000000;stroke-width:0.5;" x="66.7125" xlink:href="#mf0c55a9a47" y="64.574859375"/>
      </g>
     </g>
     <g id="line2d_106">
      <g>
       <use style="stroke:#000000;stroke-width:0.5;" x="410.31421875" xlink:href="#ma4f294b3af" y="64.574859375"/>
      </g>
     </g>
    </g>
    <g id="ytick_25">
     <g id="line2d_107">
      <g>
       <use style="stroke:#000000;stroke-width:0.5;" x="66.7125" xlink:href="#mf0c55a9a47" y="49.46990625"/>
      </g>
     </g>
     <g id="line2d_108">
      <g>
       <use style="stroke:#000000;stroke-width:0.5;" x="410.31421875" xlink:href="#ma4f294b3af" y="49.46990625"/>
      </g>
     </g>
    </g>
    <g id="ytick_26">
     <g id="line2d_109">
      <g>
       <use style="stroke:#000000;stroke-width:0.5;" x="66.7125" xlink:href="#mf0c55a9a47" y="34.364953125"/>
      </g>
     </g>
     <g id="line2d_110">
      <g>
       <use style="stroke:#000000;stroke-width:0.5;" x="410.31421875" xlink:href="#ma4f294b3af" y="34.364953125"/>
      </g>
     </g>
    </g>
    <g id="text_16">
     <!-- $\mathcal{C}_{P}^{\prime}$ -->
     <defs>
      <path d="
M3.51562 5.42188
Q2.875 5.60938 2.875 6.39062
L15.0938 51.8125
Q15.6719 53.6562 17.0781 54.7812
Q18.5 55.9062 20.3125 55.9062
Q22.6562 55.9062 24.4375 54.3594
Q26.2188 52.8281 26.2188 50.4844
Q26.2188 49.4688 25.6875 48.1875
L7.625 4.98438
Q7.28125 4.29688 6.6875 4.29688
Q6.15625 4.29688 5 4.78125
Q3.85938 5.28125 3.51562 5.42188" id="Cmsy10-30"/>
     </defs>
     <g transform="translate(27.3975 206.3994375)rotate(-90.0)scale(0.12 -0.12)">
      <use transform="translate(0.0 0.859375)" xlink:href="#Cmsy10-43"/>
      <use transform="translate(52.587890625 45.865625)scale(0.7)" xlink:href="#Cmsy10-30"/>
      <use transform="translate(52.587890625 -24.65)scale(0.7)" xlink:href="#Cmmi10-50"/>
     </g>
    </g>
   </g>
   <g id="patch_3">
    <path d="
M66.7125 19.26
L410.314 19.26" style="fill:none;stroke:#000000;"/>
   </g>
   <g id="patch_4">
    <path d="
M410.314 381.779
L410.314 19.26" style="fill:none;stroke:#000000;"/>
   </g>
   <g id="patch_5">
    <path d="
M66.7125 381.779
L410.314 381.779" style="fill:none;stroke:#000000;"/>
   </g>
   <g id="patch_6">
    <path d="
M66.7125 381.779
L66.7125 19.26" style="fill:none;stroke:#000000;"/>
   </g>
  </g>
 </g>
 <defs>
  <clipPath id="pabc30ec53b">
   <rect height="362.518875" width="343.60171875" x="66.7125" y="19.26"/>
  </clipPath>
 </defs>
</svg>
