<?xml version="1.0" encoding="utf-8" standalone="no"?>
<!DOCTYPE svg PUBLIC "-//W3C//DTD SVG 1.1//EN"
  "http://www.w3.org/Graphics/SVG/1.1/DTD/svg11.dtd">
<!-- Created with matplotlib (http://matplotlib.org/) -->
<svg height="432pt" version="1.1" viewBox="0 0 432 432" width="432pt" xmlns="http://www.w3.org/2000/svg" xmlns:xlink="http://www.w3.org/1999/xlink">
 <defs>
  <style type="text/css">
*{stroke-linecap:butt;stroke-linejoin:round;}
  </style>
 </defs>
 <g id="figure_1">
  <g id="patch_1">
   <path d="
M0 432
L432 432
L432 0
L0 0
z
" style="fill:#ffffff;"/>
  </g>
  <g id="axes_1">
   <g id="patch_2">
    <path d="
M102.521 355.317
L413.64 355.317
L413.64 18.36
L102.521 18.36
z
" style="fill:#ffffff;"/>
   </g>
   <g id="PathCollection_1">
    <defs>
     <path d="
M102.521 -76.6828
L105.664 -76.6828
L108.806 -76.6828
L111.949 -76.6828
L115.092 -76.6828
L118.234 -76.6828
L121.377 -76.6828
L124.52 -76.6828
L127.662 -76.6828
L130.805 -76.6828
L133.947 -76.6828
L137.09 -76.6828
L140.233 -76.6828
L143.375 -76.6828
L146.518 -76.6828
L149.66 -76.6828
L152.803 -76.6828
L155.946 -76.6828
L159.088 -76.6828
L162.231 -76.6828
L165.374 -76.6828
L168.516 -76.6828
L171.659 -76.6828
L174.801 -76.6828
L177.944 -76.6828
L181.087 -76.6828
L184.229 -76.6828
L187.372 -76.6828
L190.514 -76.6828
L193.363 -76.6828
L193.657 -76.7423
L196.8 -77.4369
L199.939 -76.6828
L199.942 -76.6828
L203.085 -76.6828
L206.228 -76.6828
L209.37 -76.6828
L212.513 -76.6828
L215.655 -76.6828
L218.798 -76.6828
L221.941 -76.6828
L222.598 -76.6828
L221.941 -76.6829
L218.798 -76.685
L215.655 -76.6983
L215.655 -80.0864
L215.655 -80.0865
L218.798 -83.49
L218.798 -83.4902
L221.941 -85.2884
L225.083 -86.3876
L227.384 -86.8936
L228.226 -86.9727
L231.368 -87.1639
L234.511 -87.4616
L237.654 -90.2972
L237.654 -90.2973
L240.796 -93.7009
L240.796 -94.8353
L243.442 -97.1045
L243.939 -97.105
L247.081 -100.508
L247.081 -100.508
L250.224 -100.508
L253.343 -103.912
L253.367 -103.944
L256.214 -107.315
L256.509 -109.863
L256.759 -110.719
L259.475 -114.122
L259.652 -114.286
L262.795 -115.166
L265.252 -117.526
L265.937 -117.579
L269.066 -120.93
L269.08 -120.933
L272.222 -120.93
L272.222 -117.526
L269.08 -114.123
L269.08 -114.122
L269.08 -110.719
L265.937 -107.315
L265.937 -107.315
L262.795 -103.912
L259.652 -103.912
L259.652 -103.912
L256.509 -100.508
L253.367 -100.508
L256.509 -97.1045
L259.652 -97.1045
L262.795 -97.1045
L265.937 -97.1045
L269.08 -97.1045
L272.222 -100.508
L272.222 -100.508
L275.365 -100.508
L278.508 -103.912
L278.508 -103.912
L281.65 -107.315
L281.65 -110.719
L281.65 -110.719
L284.793 -114.122
L284.793 -117.526
L284.793 -117.526
L287.935 -117.526
L291.078 -120.93
L291.078 -120.93
L294.221 -120.93
L297.363 -124.333
L297.363 -124.333
L300.506 -124.333
L303.649 -124.333
L306.791 -127.737
L303.649 -127.737
L303.647 -131.141
L303.644 -134.544
L303.645 -137.948
L303.649 -137.96
L306.791 -139.89
L309.299 -141.351
L309.934 -142.013
L313.076 -144.039
L316.219 -144.755
L316.219 -148.159
L313.076 -148.161
L313.071 -148.159
L309.934 -144.789
L306.791 -144.755
L303.649 -144.755
L303.649 -148.159
L303.649 -148.159
L306.791 -151.562
L306.791 -151.856
L309.444 -154.966
L309.934 -154.966
L313.076 -154.966
L316.219 -155.266
L319.362 -155.465
L322.504 -154.966
L319.362 -151.562
L319.362 -151.562
L319.362 -148.159
L322.504 -148.159
L325.647 -148.159
L328.789 -148.159
L331.932 -151.562
L331.932 -151.562
L335.075 -154.966
L335.075 -154.966
L338.217 -158.369
L338.217 -161.773
L338.217 -165.177
L338.217 -165.177
L341.36 -168.58
L341.36 -171.984
L338.217 -175.387
L338.217 -175.387
L338.217 -178.791
L338.217 -182.195
L338.217 -182.195
L341.36 -185.598
L341.36 -185.598
L344.502 -189.002
L344.502 -189.002
L347.645 -192.405
L347.645 -192.405
L350.788 -192.405
L350.788 -192.405
L353.93 -189.002
L357.073 -189.002
L360.216 -189.002
L363.358 -192.405
L363.358 -192.405
L366.501 -192.405
L369.643 -192.405
L372.786 -195.809
L372.786 -195.809
L375.929 -199.213
L375.929 -199.213
L379.071 -202.616
L379.071 -206.02
L379.071 -206.02
L382.214 -209.424
L382.214 -212.827
L382.214 -212.827
L385.356 -212.827
L388.499 -216.231
L388.499 -219.634
L388.499 -219.634
L391.642 -223.038
L388.499 -223.272
L388.342 -226.442
L387.37 -229.845
L385.356 -230.667
L385.154 -233.249
L385.356 -233.249
L388.499 -236.652
L388.499 -236.652
L391.642 -236.652
L394.784 -240.056
L394.784 -243.46
L394.784 -243.46
L397.927 -246.863
L397.927 -250.267
L397.927 -250.267
L401.07 -253.67
L401.07 -253.67
L404.212 -253.67
L407.355 -253.67
L410.497 -253.67
L413.64 -257.074
L413.64 -257.074
L413.64 -260.478
L413.64 -263.881
L413.64 -267.285
L413.64 -270.688
L413.64 -274.092
L413.64 -277.496
L413.64 -280.899
L413.64 -284.303
L413.64 -287.707
L413.64 -291.11
L413.64 -294.514
L413.64 -297.917
L413.64 -301.321
L413.64 -304.725
L413.64 -304.739
L410.497 -304.828
L410.494 -308.128
L410.497 -308.136
L413.639 -311.532
L413.64 -311.544
L413.64 -314.935
L413.64 -318.339
L413.64 -321.743
L413.64 -325.146
L413.64 -328.55
L413.64 -331.953
L413.64 -335.357
L413.64 -338.761
L413.64 -342.164
L413.64 -345.568
L413.64 -348.971
L413.64 -352.375
L413.64 -355.779
L413.64 -359.182
L413.64 -362.586
L413.64 -365.989
L413.64 -369.393
L413.64 -372.797
L413.64 -376.2
L413.64 -379.604
L413.64 -383.008
L413.64 -386.411
L413.64 -389.815
L413.64 -393.218
L413.64 -396.622
L413.64 -400.026
L413.64 -403.429
L413.64 -406.833
L413.64 -410.236
L413.64 -413.64
L410.497 -413.64
L407.355 -413.64
L404.212 -413.64
L401.07 -413.64
L397.927 -413.64
L394.784 -413.64
L391.642 -413.64
L388.499 -413.64
L385.356 -413.64
L382.214 -413.64
L379.071 -413.64
L375.929 -413.64
L372.786 -413.64
L369.643 -413.64
L366.501 -413.64
L363.358 -413.64
L360.216 -413.64
L357.073 -413.64
L353.93 -413.64
L350.788 -413.64
L347.645 -413.64
L344.502 -413.64
L341.36 -413.64
L338.217 -413.64
L335.075 -413.64
L331.932 -413.64
L328.789 -413.64
L325.647 -413.64
L322.504 -413.64
L319.362 -413.64
L316.219 -413.64
L313.076 -413.64
L309.934 -413.64
L306.791 -413.64
L303.649 -413.64
L300.506 -413.64
L297.363 -413.64
L294.221 -413.64
L291.078 -413.64
L287.935 -413.64
L284.793 -413.64
L281.65 -413.64
L281.65 -413.64
L278.508 -413.64
L275.365 -410.236
L275.365 -410.236
L272.222 -406.833
L272.222 -406.833
L269.08 -403.429
L269.08 -403.429
L265.937 -400.026
L265.937 -400.026
L262.795 -400.026
L259.652 -396.622
L259.652 -393.218
L259.652 -393.218
L256.509 -389.815
L256.509 -389.815
L253.367 -386.411
L253.367 -386.411
L250.224 -386.411
L247.081 -383.008
L247.081 -383.008
L243.939 -383.008
L240.796 -379.604
L240.796 -379.604
L237.654 -379.604
L234.511 -376.2
L234.511 -376.2
L231.368 -376.2
L228.226 -372.797
L228.226 -372.797
L225.083 -369.393
L225.083 -369.393
L221.941 -365.989
L221.941 -362.586
L221.941 -359.182
L221.941 -359.182
L218.798 -355.779
L218.798 -355.385
L215.655 -355.453
L212.513 -355.779
L215.655 -359.182
L215.655 -359.182
L215.655 -362.586
L215.655 -362.586
L212.513 -365.989
L209.37 -365.989
L206.228 -365.989
L203.085 -365.989
L199.942 -365.989
L196.8 -362.586
L196.8 -362.586
L193.657 -359.182
L193.657 -355.779
L193.657 -355.779
L190.514 -352.375
L190.514 -348.971
L193.657 -345.568
L193.657 -345.568
L193.657 -342.164
L196.8 -338.761
L199.942 -338.761
L199.942 -338.761
L199.942 -338.761
L196.8 -335.357
L196.8 -335.357
L193.657 -335.357
L190.514 -331.953
L190.514 -331.953
L187.372 -331.953
L184.229 -328.55
L184.229 -328.55
L181.087 -325.146
L181.087 -325.146
L177.944 -321.743
L177.944 -321.743
L174.801 -318.339
L174.801 -314.935
L174.801 -311.532
L174.801 -311.532
L171.659 -311.532
L168.516 -308.128
L168.516 -308.128
L165.374 -304.725
L165.374 -301.321
L165.374 -301.321
L162.231 -297.917
L162.231 -294.514
L162.231 -294.514
L159.088 -291.11
L159.088 -291.11
L155.946 -287.707
L155.946 -287.707
L152.803 -284.303
L152.803 -284.303
L149.66 -280.899
L149.66 -280.899
L146.518 -277.496
L146.518 -277.496
L144.946 -277.496
L143.375 -278.99
L140.233 -280.415
L137.09 -280.795
L134.949 -280.899
L133.947 -283.245
L130.805 -284.303
L127.662 -284.303
L124.52 -280.899
L124.52 -280.899
L121.377 -277.496
L121.377 -277.496
L118.234 -274.092
L118.234 -274.092
L115.092 -270.688
L115.092 -270.688
L111.949 -267.285
L111.949 -263.881
L111.949 -260.478
L111.949 -257.074
L111.949 -253.67
L111.949 -250.267
L111.949 -246.863
L111.949 -246.863
L108.806 -243.46
L108.806 -243.46
L105.664 -240.056
L105.664 -236.652
L105.664 -233.249
L105.664 -229.845
L105.664 -226.442
L105.664 -226.442
L102.521 -226.442
L102.521 -223.038
L102.521 -219.634
L102.521 -216.231
L102.521 -212.827
L102.521 -209.424
L102.521 -206.02
L102.521 -202.616
L102.521 -199.213
L102.521 -195.809
L102.521 -192.405
L102.521 -189.002
L102.521 -185.598
L102.521 -182.195
L102.521 -178.791
L102.521 -175.387
L102.521 -171.984
L102.521 -168.58
L102.521 -165.177
L102.521 -161.773
L102.521 -158.369
L102.521 -154.966
L102.521 -151.562
L102.521 -148.159
L102.521 -144.755
L102.521 -141.351
L102.521 -137.948
L102.521 -134.544
L102.521 -131.141
L102.521 -127.737
L102.521 -124.333
L102.521 -120.93
L102.521 -117.526
L102.521 -114.122
L102.521 -110.719
L102.521 -107.315
L102.521 -103.912
L102.521 -100.508
L102.521 -97.1045
L102.521 -93.7009
L102.521 -90.2972
L102.521 -86.8936
L102.521 -83.49
L102.521 -80.0864
L102.521 -76.6828
M111.949 -225.979
L108.806 -226.442
L111.949 -229.845
L111.949 -229.845
L111.949 -232.95
L108.806 -233.249
L111.949 -236.652
L115.092 -236.652
L115.092 -236.652
L118.234 -240.056
L121.377 -240.056
L121.377 -240.056
L124.52 -243.46
L124.52 -243.46
L124.52 -246.863
L127.662 -250.267
L127.662 -250.267
L130.805 -253.67
L130.805 -253.67
L133.947 -257.074
L133.947 -257.074
L137.09 -260.478
L140.233 -260.478
L141.805 -257.074
L140.233 -256.793
L138.463 -253.67
L137.09 -253.115
L135.141 -250.267
L133.947 -249.246
L131.834 -246.863
L130.805 -245.201
L128.548 -243.46
L127.662 -240.587
L126.492 -240.056
L124.52 -236.652
L124.52 -236.651
L121.377 -233.544
L119.365 -233.249
L121.377 -233.249
L124.52 -233.163
L126.727 -229.845
L127.662 -229.037
L127.662 -226.442
L127.662 -226.442
L124.52 -224.252
L121.377 -225.062
L118.234 -225.532
L115.092 -225.808
L111.949 -225.979
M165.374 -107.278
L165.279 -107.315
L163.147 -110.719
L163.447 -114.122
L163.254 -117.526
L162.627 -120.93
L162.231 -122.083
L159.832 -124.333
L159.088 -124.968
L156.496 -127.737
L156.419 -131.141
L157.341 -134.544
L158.83 -137.948
L157.355 -141.351
L155.946 -142.024
L152.803 -141.353
L152.761 -141.351
L149.66 -141.229
L149.346 -141.351
L146.518 -141.781
L143.375 -142.747
L140.233 -144.365
L139.502 -144.755
L137.09 -145.417
L133.947 -146.541
L131.659 -148.159
L130.805 -149.746
L130.221 -151.562
L130.736 -154.966
L130.805 -155.093
L132.013 -158.369
L133.947 -161.248
L134.273 -161.773
L137.09 -165
L137.271 -165.177
L140.233 -168.539
L140.269 -168.58
L142.409 -171.984
L143.375 -173.428
L144.533 -175.387
L146.518 -178.214
L146.871 -178.791
L149.237 -182.195
L149.66 -182.741
L151.548 -185.598
L152.803 -187.194
L154.055 -189.002
L155.946 -191.207
L156.89 -192.405
L159.088 -194.88
L159.905 -195.809
L162.231 -198.415
L162.938 -199.213
L165.374 -202.023
L165.869 -202.616
L168.516 -205.761
L168.727 -206.02
L171.659 -209.398
L171.68 -209.424
L174.636 -212.827
L174.801 -213.011
L177.594 -216.231
L177.944 -216.618
L180.553 -219.634
L181.087 -220.222
L183.508 -223.038
L184.229 -223.819
L186.638 -226.442
L187.372 -227.24
L189.803 -229.845
L190.514 -230.639
L192.758 -233.249
L193.657 -234.284
L195.535 -236.652
L196.8 -238.174
L198.278 -240.056
L199.942 -241.917
L201.438 -243.46
L203.085 -245.118
L204.895 -246.863
L206.228 -248.273
L208.01 -250.267
L209.37 -251.811
L210.9 -253.67
L212.513 -255.484
L213.907 -257.074
L215.655 -258.968
L217.106 -260.478
L218.798 -262.249
L220.543 -263.881
L221.941 -265.251
L224.131 -267.285
L225.083 -268.279
L227.174 -270.688
L228.226 -271.913
L229.802 -274.092
L231.368 -275.961
L232.589 -277.496
L234.511 -279.594
L235.891 -280.899
L237.654 -282.632
L239.66 -284.303
L240.796 -285.413
L243.297 -287.707
L243.939 -288.378
L246.509 -291.11
L247.081 -291.739
L249.617 -294.514
L250.224 -295.187
L252.634 -297.917
L253.367 -298.768
L255.581 -301.321
L256.509 -302.345
L258.851 -304.725
L259.652 -305.546
L262.051 -308.128
L262.795 -308.927
L265.304 -311.532
L265.937 -312.169
L269.08 -314.925
L269.091 -314.935
L272.222 -318.054
L272.522 -318.339
L275.365 -321.244
L275.888 -321.743
L278.508 -324.428
L279.253 -325.146
L281.65 -327.548
L282.759 -328.55
L284.793 -330.555
L286.347 -331.953
L287.935 -333.562
L289.699 -335.357
L291.078 -336.859
L292.648 -338.761
L294.221 -340.622
L295.434 -342.164
L297.363 -344.274
L298.764 -345.568
L300.506 -347.13
L303.132 -348.971
L303.649 -349.404
L306.791 -351.62
L308.018 -352.375
L309.934 -353.88
L312.057 -355.779
L313.076 -356.858
L314.955 -359.182
L316.219 -360.562
L318.372 -362.586
L319.362 -363.487
L322.504 -365.779
L322.724 -365.989
L325.647 -368.927
L326.032 -369.393
L328.789 -372.047
L330.099 -372.797
L331.932 -374.083
L335.075 -375.197
L338.217 -375.737
L340.949 -376.2
L341.36 -376.34
L344.502 -376.35
L344.774 -376.2
L345.332 -372.797
L345.007 -369.393
L345.392 -365.989
L346.017 -362.586
L346.965 -359.182
L347.645 -356.997
L348.246 -355.779
L349.089 -352.375
L348.881 -348.971
L347.823 -345.568
L347.645 -344.924
L346.752 -342.164
L346.21 -338.761
L347.389 -335.357
L347.645 -335.135
L350.788 -334.164
L353.93 -334.213
L357.073 -334.723
L358.972 -335.357
L360.216 -335.729
L363.358 -336.753
L366.501 -337.545
L369.643 -338.492
L370.196 -338.761
L372.786 -340.004
L375.929 -341.63
L379.071 -342.164
L382.214 -339.649
L382.515 -338.761
L382.214 -338.211
L379.848 -335.357
L379.071 -334.678
L376.056 -331.953
L375.929 -331.393
L375.554 -328.55
L374.652 -325.146
L372.907 -321.743
L372.786 -321.534
L371.114 -318.339
L369.643 -315.535
L369.327 -314.935
L366.598 -311.532
L366.501 -311.438
L363.631 -308.128
L363.358 -307.814
L361.169 -304.725
L360.216 -303.517
L358.625 -301.321
L357.073 -299.474
L355.911 -297.917
L353.93 -295.457
L353.285 -294.514
L350.79 -291.11
L350.788 -291.108
L348.791 -287.707
L347.645 -286.161
L346.385 -284.303
L344.502 -282.043
L343.514 -280.899
L341.36 -278.527
L340.449 -277.496
L338.217 -275.036
L337.405 -274.092
L335.075 -271.364
L334.577 -270.688
L332.02 -267.285
L331.932 -267.175
L329.469 -263.881
L328.789 -263.123
L326.222 -260.478
L325.647 -259.875
L323.034 -257.074
L322.504 -256.484
L320.016 -253.67
L319.362 -252.959
L316.681 -250.267
L316.219 -249.784
L313.584 -246.863
L313.076 -246.296
L310.831 -243.46
L309.934 -242.438
L307.875 -240.056
L306.791 -238.873
L304.641 -236.652
L303.649 -235.588
L301.467 -233.249
L300.506 -232.156
L298.628 -229.845
L297.363 -228.415
L295.619 -226.442
L294.221 -224.919
L292.567 -223.038
L291.078 -221.356
L289.629 -219.634
L287.935 -217.791
L286.421 -216.231
L284.793 -214.557
L283.054 -212.827
L281.65 -211.333
L279.97 -209.424
L278.508 -207.79
L277.01 -206.02
L275.365 -204.214
L273.892 -202.616
L272.222 -200.802
L270.746 -199.213
L269.08 -197.384
L267.59 -195.809
L265.937 -194.045
L264.272 -192.405
L262.795 -190.881
L260.855 -189.002
L259.652 -187.768
L257.527 -185.598
L256.509 -184.516
L254.383 -182.195
L253.367 -181.076
L251.321 -178.791
L250.224 -177.604
L248.048 -175.387
L247.081 -174.364
L244.807 -171.984
L243.939 -171.029
L241.703 -168.58
L240.796 -167.586
L238.527 -165.177
L237.654 -164.256
L235.24 -161.773
L234.511 -161.001
L231.895 -158.369
L231.368 -157.815
L228.624 -154.966
L228.226 -154.536
L225.269 -151.562
L225.083 -151.377
L221.941 -148.49
L221.556 -148.159
L218.798 -145.503
L218.083 -144.755
L215.655 -142.204
L214.871 -141.351
L212.513 -138.934
L211.415 -137.948
L209.37 -135.954
L207.839 -134.544
L206.228 -132.893
L204.369 -131.141
L203.085 -129.894
L200.2 -127.737
L199.942 -127.507
L196.8 -124.903
L196.104 -124.333
L193.657 -121.96
L192.482 -120.93
L190.514 -119.181
L188.416 -117.526
L187.372 -116.581
L184.655 -114.122
L184.229 -113.667
L181.087 -110.823
L180.849 -110.719
L177.944 -109.41
L174.801 -109.421
L171.659 -109.683
L168.516 -108.811
L165.455 -107.315
L165.374 -107.278
M143.375 -243.352
L140.233 -243.46
L140.233 -246.863
L143.375 -250.267
L143.375 -250.267
L146.518 -253.67
L146.518 -253.67
L149.66 -257.074
L149.66 -257.074
L152.803 -260.478
L154.357 -257.074
L153.985 -253.67
L153.246 -250.267
L152.803 -250.262
L149.666 -246.863
L149.66 -246.858
L146.52 -243.46
L146.518 -243.456
L143.375 -243.352
M155.946 -241.826
L152.89 -243.46
L155.946 -246.803
L155.964 -246.863
L155.946 -250.267
L159.088 -253.67
L159.089 -253.67
L162.231 -257.074
L163.378 -253.67
L162.536 -250.267
L162.231 -248.576
L161.016 -246.863
L159.323 -243.46
L159.088 -242.879
L155.946 -241.826
M168.516 -253.511
L165.958 -253.67
L165.374 -256.984
L162.238 -257.074
L165.374 -260.472
L165.457 -257.074
L168.516 -256.441
L169.012 -253.67
L168.516 -253.511
M171.659 -255.948
L168.767 -257.074
L171.659 -260.478
L171.659 -260.478
L174.801 -263.88
L174.924 -260.478
L174.801 -259.924
L173.194 -257.074
L171.659 -255.948
M174.801 -283.851
L171.659 -284.303
L171.659 -287.707
L171.659 -290.915
L168.516 -291.11
L171.659 -294.514
L174.801 -294.514
L174.801 -294.514
L177.944 -297.917
L177.944 -297.917
L181.087 -301.321
L184.229 -301.321
L185.833 -297.917
L185.067 -294.514
L184.229 -292.182
L182.967 -291.11
L181.087 -289.762
L178.357 -287.707
L177.944 -286.886
L174.876 -284.303
L174.801 -283.851
M181.087 -266.621
L177.947 -267.285
L181.087 -270.672
L181.095 -270.688
L184.229 -274.074
L184.236 -274.092
L187.372 -277.49
L187.376 -277.496
L190.514 -280.898
L190.517 -280.899
L193.657 -284.301
L193.914 -280.899
L194.004 -277.496
L193.657 -276.729
L191.203 -274.092
L190.514 -271.429
L189.558 -270.688
L187.372 -269.47
L184.604 -267.285
L184.229 -267.071
L181.087 -266.621
M203.085 -304.711
L200.107 -304.725
L199.947 -308.128
L203.085 -311.531
L203.085 -311.532
L203.085 -314.935
L203.085 -318.284
L199.942 -318.339
L203.085 -321.743
L206.228 -321.743
L209.37 -321.743
L209.37 -321.743
L212.513 -325.146
L215.655 -325.122
L215.656 -321.743
L215.655 -321.103
L214.667 -318.339
L212.619 -314.935
L212.513 -314.853
L209.674 -311.532
L209.37 -311.029
L206.564 -308.128
L206.228 -307.976
L203.111 -304.725
L203.085 -304.711
M215.655 -304.342
L212.854 -304.725
L212.55 -308.128
L215.655 -311.531
L215.656 -311.532
L215.655 -314.935
L218.798 -318.33
L218.81 -318.339
L221.941 -321.595
L224.337 -321.743
L225.083 -321.904
L225.092 -321.743
L225.083 -321.598
L224.322 -318.339
L222.948 -314.935
L222.205 -311.532
L221.941 -310.404
L220.279 -308.128
L218.798 -305.19
L217.551 -304.725
L215.655 -304.342
M218.798 -328.449
L215.655 -328.55
L218.798 -331.953
L218.798 -328.55
L218.798 -328.449
M221.941 -331.953
L218.798 -331.953
L221.941 -335.357
L221.941 -331.953
L221.941 -331.953
M231.368 -310.798
L228.299 -311.532
L231.368 -314.788
L231.443 -314.935
L234.511 -318.231
L234.754 -318.339
L234.654 -321.743
L237.654 -325.053
L238.544 -321.743
L237.964 -318.339
L237.654 -317.228
L236.25 -314.935
L234.511 -312.055
L233.721 -311.532
L231.368 -310.798
M234.511 -338.758
L231.368 -338.761
L231.368 -342.164
L234.511 -345.568
L234.511 -345.568
L237.654 -348.971
L240.796 -348.971
L242.123 -345.568
L240.871 -342.164
L240.796 -342.145
L237.654 -342.148
L234.527 -338.761
L234.511 -338.758
M243.939 -348.37
L240.796 -348.971
L243.939 -352.371
L244.033 -348.971
L243.939 -348.37
M247.081 -351.575
L243.939 -352.375
L247.081 -355.776
L248.283 -352.375
L247.081 -351.575
M253.367 -355.747
L250.272 -355.779
L253.367 -358.445
L253.421 -355.779
L253.367 -355.747
M256.509 -338.651
L253.982 -338.761
L256.509 -341.911
L256.584 -338.761
L256.509 -338.651
M265.937 -359.011
L262.801 -359.182
L265.937 -362.583
L266.207 -359.182
L265.937 -359.011
M269.08 -362.076
L265.939 -362.586
L265.938 -365.989
L269.08 -369.393
L272.222 -369.392
L272.224 -369.393
L275.365 -372.795
L278.508 -372.774
L278.508 -372.797
L281.65 -376.2
L281.65 -376.2
L281.65 -378.906
L278.508 -377.891
L275.427 -376.2
L275.365 -376.172
L272.222 -376.175
L270.676 -376.2
L272.222 -379.551
L272.229 -379.604
L272.223 -383.008
L272.222 -385.091
L269.703 -383.008
L269.08 -382.861
L266.037 -379.604
L265.937 -379.604
L262.795 -376.2
L262.795 -376.2
L259.652 -376.193
L256.509 -376.2
L259.652 -379.604
L259.652 -379.604
L262.795 -383.008
L262.795 -383.008
L265.937 -386.411
L265.937 -386.411
L269.08 -389.815
L272.222 -389.815
L275.365 -389.815
L275.365 -389.815
L278.508 -393.218
L278.739 -389.815
L279.053 -386.411
L278.878 -383.008
L281.65 -382.888
L281.794 -383.008
L284.793 -385.867
L287.935 -386.411
L291.078 -386.41
L291.553 -383.008
L291.078 -381.774
L289.799 -379.604
L288.178 -376.2
L287.935 -375.639
L285.156 -372.797
L284.793 -371.977
L281.784 -369.393
L281.65 -369.148
L278.508 -369.22
L275.624 -365.989
L275.365 -365.846
L272.507 -362.586
L272.222 -362.465
L269.08 -362.076
M303.649 -399.943
L300.669 -400.026
L303.649 -403.122
L303.788 -400.026
L303.649 -399.943
M306.791 -403.126
L303.79 -403.429
L306.791 -406.711
L308.443 -403.429
L306.791 -403.126
M369.643 -358.283
L368.559 -359.182
L369.643 -360.101
L370.56 -359.182
L369.643 -358.283
M199.942 -76.6904
L199.609 -80.0864
L199.942 -80.2002
L203.047 -80.0864
L199.942 -76.6904
M206.228 -90.3171
L205.566 -93.7009
L206.228 -94.0606
L209.316 -93.7009
L206.228 -90.3171
M221.941 -100.551
L219.911 -103.912
L221.499 -107.315
L221.941 -107.731
L224.085 -110.719
L225.083 -112.555
L226.652 -114.122
L228.226 -115.182
L231.368 -115.879
L234.477 -114.122
L231.368 -110.748
L231.356 -110.719
L231.364 -107.315
L228.226 -103.917
L228.217 -103.912
L225.083 -100.521
L221.941 -100.551
M243.939 -128.424
L243.918 -131.141
L243.939 -131.158
L246.633 -131.141
L243.939 -128.424
M250.224 -131.175
L249.863 -134.544
L250.224 -134.798
L253.352 -134.544
L250.224 -131.175
M256.509 -120.93
L256.36 -124.333
L256.509 -125.784
L259.652 -124.333
L256.509 -120.93
M259.652 -124.336
L259.462 -127.737
L259.652 -127.833
L262.786 -127.737
L259.652 -124.336
M262.795 -144.764
L262.776 -148.159
L262.795 -148.211
L265.93 -148.159
L262.795 -144.764
M265.937 -148.165
L265.885 -151.562
L265.937 -152.538
L269.074 -151.562
L265.937 -148.165
M269.08 -151.574
L268.544 -154.966
L269.08 -155.303
L272.21 -154.966
L269.08 -151.574
M272.222 -154.989
L272.04 -158.369
L272.222 -158.522
L274.757 -158.369
L272.222 -154.989
M275.365 -121.123
L275.365 -124.333
L275.365 -124.669
L278.414 -124.333
L275.365 -121.123
M281.65 -168.625
L280.498 -171.984
L281.549 -175.387
L281.65 -175.498
L284.584 -178.791
L284.793 -179.03
L287.721 -178.791
L287.909 -175.387
L284.793 -171.993
L284.777 -171.984
L281.65 -168.625
M291.078 -134.544
L290.915 -137.948
L291.078 -141.351
L291.078 -141.351
L294.221 -143.653
L297.018 -144.755
L297.363 -144.806
L300.506 -144.971
L303.649 -144.755
L300.506 -141.351
L300.506 -141.351
L297.363 -137.948
L294.221 -137.948
L294.221 -137.948
L291.078 -134.544
M291.078 -179.649
L288.371 -182.195
L291.078 -182.37
L293.607 -182.195
L291.078 -179.649
M294.221 -184.546
L294.202 -185.598
L294.221 -185.616
L295.633 -185.598
L294.221 -184.546
M297.363 -185.668
L296.624 -189.002
L297.363 -189.512
L300.471 -189.002
L297.363 -185.668
M313.076 -171.984
L311.219 -175.387
L312.103 -178.791
L312.712 -182.195
L311.573 -185.598
L313.076 -186.038
L315.733 -189.002
L316.219 -189.151
L319.362 -190.086
L322.504 -189.002
L322.504 -185.598
L319.362 -182.195
L319.362 -182.195
L319.362 -178.791
L316.219 -175.387
L316.219 -175.387
L313.076 -171.984
M325.647 -185.598
L324.08 -189.002
L322.504 -189.002
L322.238 -192.405
L322.504 -192.537
L325.647 -192.405
L325.647 -190.749
L326.328 -192.405
L328.565 -195.809
L328.789 -196.191
L331.119 -199.213
L331.884 -202.616
L328.789 -202.616
L328.789 -202.616
L325.647 -199.233
L322.504 -199.306
L319.362 -199.763
L319.361 -202.616
L319.362 -202.617
L322.504 -205.533
L324.228 -206.02
L325.647 -206.13
L328.789 -206.298
L331.932 -206.02
L331.932 -202.855
L334.847 -206.02
L335.075 -209.424
L335.075 -209.424
L338.217 -210.552
L340.281 -212.827
L341.36 -212.973
L344.502 -213.609
L347.33 -216.231
L347.645 -216.344
L350.788 -216.5
L353.93 -216.231
L350.788 -212.827
L350.788 -212.827
L347.645 -209.428
L344.502 -209.447
L344.473 -209.424
L341.36 -206.043
L338.217 -206.115
L337.659 -206.02
L338.194 -202.616
L338.209 -199.213
L335.075 -195.809
L335.075 -195.809
L331.932 -192.405
L331.932 -192.405
L328.789 -189.002
L328.789 -189.002
L325.647 -185.598
M341.36 -216.233
L341.196 -219.634
L341.327 -223.038
L341.36 -223.576
L344.436 -223.038
L344.497 -219.634
L341.36 -216.233
M344.502 -223.063
L343.389 -226.442
L344.502 -229.845
L344.502 -229.845
L347.363 -229.845
L347.612 -226.442
L344.502 -223.063
M350.788 -195.809
L350.755 -199.213
L350.771 -202.616
L350.788 -202.919
L353.141 -206.02
L353.93 -206.98
L356.095 -209.424
L357.073 -211.707
L358.816 -212.827
L360.207 -216.231
L360.216 -216.327
L363.316 -219.634
L363.358 -219.634
L366.495 -219.634
L366.501 -216.231
L366.501 -212.827
L363.358 -209.424
L363.358 -209.424
L363.358 -206.02
L360.216 -202.616
L360.216 -202.616
L357.073 -199.213
L357.073 -199.213
L353.93 -195.809
L350.788 -195.809
M363.358 -246.873
L362.268 -250.267
L360.216 -250.309
L359.539 -253.67
L360.216 -254.375
L362.236 -257.074
L363.358 -259.074
L364.938 -260.478
L366.501 -261.747
L369.585 -260.478
L369.643 -257.973
L372.786 -259.062
L375.389 -260.478
L375.929 -260.495
L379.071 -260.478
L379.071 -257.074
L375.929 -253.67
L375.929 -253.67
L372.786 -250.269
L369.643 -250.269
L366.501 -250.271
L366.493 -250.267
L363.358 -246.873
M372.786 -236.819
L371.611 -240.056
L372.786 -241.938
L373.116 -243.46
L375.412 -246.863
L375.929 -247.355
L379.071 -248.191
L382.214 -247.291
L385.356 -246.863
L382.214 -243.46
L382.214 -243.46
L379.071 -240.056
L379.071 -240.056
L375.929 -236.69
L372.786 -236.819
M401.07 -260.478
L400.94 -263.881
L401.07 -267.285
L401.07 -267.285
L404.212 -267.285
L404.212 -263.881
L401.07 -260.478
M407.355 -270.688
L407.278 -274.092
L407.347 -277.496
L407.355 -277.754
L408.293 -280.899
L407.868 -284.303
L410.497 -287.707
L410.497 -287.707
L413.64 -287.707
L413.64 -284.303
L413.64 -280.899
L410.497 -277.496
L410.497 -277.496
L410.497 -274.092
L407.355 -270.688" id="C0_0_e1e76b72cf"/>
     <path d="
M234.511 -76.6828
L234.511 -76.6828
L237.654 -76.6828
L238.692 -76.6828
L240.796 -77.2073
L243.602 -80.0864
L243.939 -80.4214
L247.081 -83.49
L247.081 -83.49
L250.224 -86.8936
L250.224 -90.2972
L247.081 -90.2972
L247.081 -90.2972
L243.939 -86.8936
L243.939 -86.8936
L240.796 -83.49
L237.654 -83.49
L234.511 -83.49
L234.511 -83.49
L234.511 -80.0864
L234.511 -76.6828" id="C0_1_b2cca0f686"/>
     <path d="
M306.791 -127.737
L309.934 -131.141
L306.791 -131.141
L306.791 -131.141
L306.791 -127.737" id="C0_2_843483ba2a"/>
    </defs>
    <g clip-path="url(#p66bbb1c567)">
     <use style="fill:#ffffff;" x="0.0" xlink:href="#C0_0_e1e76b72cf" y="432.0"/>
    </g>
    <g clip-path="url(#p66bbb1c567)">
     <use style="fill:#ffffff;" x="0.0" xlink:href="#C0_1_b2cca0f686" y="432.0"/>
    </g>
    <g clip-path="url(#p66bbb1c567)">
     <use style="fill:#ffffff;" x="0.0" xlink:href="#C0_2_843483ba2a" y="432.0"/>
    </g>
   </g>
   <g id="PathCollection_2">
    <defs>
     <path d="
M165.374 -107.278
L165.455 -107.315
L168.516 -108.811
L171.659 -109.683
L174.801 -109.421
L177.944 -109.41
L180.849 -110.719
L181.087 -110.823
L184.229 -113.667
L184.655 -114.122
L187.372 -116.581
L188.416 -117.526
L190.514 -119.181
L192.482 -120.93
L193.657 -121.96
L196.104 -124.333
L196.8 -124.903
L199.942 -127.507
L200.2 -127.737
L203.085 -129.894
L204.369 -131.141
L206.228 -132.893
L207.839 -134.544
L209.37 -135.954
L211.415 -137.948
L212.513 -138.934
L214.871 -141.351
L215.655 -142.204
L218.083 -144.755
L218.798 -145.503
L221.556 -148.159
L221.941 -148.49
L225.083 -151.377
L225.269 -151.562
L228.226 -154.536
L228.624 -154.966
L231.368 -157.815
L231.895 -158.369
L234.511 -161.001
L235.24 -161.773
L237.654 -164.256
L238.527 -165.177
L240.796 -167.586
L241.703 -168.58
L243.939 -171.029
L244.807 -171.984
L247.081 -174.364
L248.048 -175.387
L250.224 -177.604
L251.321 -178.791
L253.367 -181.076
L254.383 -182.195
L256.509 -184.516
L257.527 -185.598
L259.652 -187.768
L260.855 -189.002
L262.795 -190.881
L264.272 -192.405
L265.937 -194.045
L267.59 -195.809
L269.08 -197.384
L270.746 -199.213
L272.222 -200.802
L273.892 -202.616
L275.365 -204.214
L277.01 -206.02
L278.508 -207.79
L279.97 -209.424
L281.65 -211.333
L283.054 -212.827
L284.793 -214.557
L286.421 -216.231
L287.935 -217.791
L289.629 -219.634
L291.078 -221.356
L292.567 -223.038
L294.221 -224.919
L295.619 -226.442
L297.363 -228.415
L298.628 -229.845
L300.506 -232.156
L301.467 -233.249
L303.649 -235.588
L304.641 -236.652
L306.791 -238.873
L307.875 -240.056
L309.934 -242.438
L310.831 -243.46
L313.076 -246.296
L313.584 -246.863
L316.219 -249.784
L316.681 -250.267
L319.362 -252.959
L320.016 -253.67
L322.504 -256.484
L323.034 -257.074
L325.647 -259.875
L326.222 -260.478
L328.789 -263.123
L329.469 -263.881
L331.932 -267.175
L332.02 -267.285
L334.577 -270.688
L335.075 -271.364
L337.405 -274.092
L338.217 -275.036
L340.449 -277.496
L341.36 -278.527
L343.514 -280.899
L344.502 -282.043
L346.385 -284.303
L347.645 -286.161
L348.791 -287.707
L350.788 -291.108
L350.79 -291.11
L353.285 -294.514
L353.93 -295.457
L355.911 -297.917
L357.073 -299.474
L358.625 -301.321
L360.216 -303.517
L361.169 -304.725
L363.358 -307.814
L363.631 -308.128
L366.501 -311.438
L366.598 -311.532
L369.327 -314.935
L369.643 -315.535
L371.114 -318.339
L372.786 -321.534
L372.907 -321.743
L374.652 -325.146
L375.554 -328.55
L375.929 -331.393
L376.056 -331.953
L379.071 -334.678
L379.848 -335.357
L382.214 -338.211
L382.515 -338.761
L382.214 -339.649
L379.071 -342.164
L375.929 -341.63
L372.786 -340.004
L370.196 -338.761
L369.643 -338.492
L366.501 -337.545
L363.358 -336.753
L360.216 -335.729
L358.972 -335.357
L357.073 -334.723
L353.93 -334.213
L350.788 -334.164
L347.645 -335.135
L347.389 -335.357
L346.21 -338.761
L346.752 -342.164
L347.645 -344.924
L347.823 -345.568
L348.881 -348.971
L349.089 -352.375
L348.246 -355.779
L347.645 -356.997
L346.965 -359.182
L346.017 -362.586
L345.392 -365.989
L345.007 -369.393
L345.332 -372.797
L344.774 -376.2
L344.502 -376.35
L341.36 -376.34
L340.949 -376.2
L338.217 -375.737
L335.075 -375.197
L331.932 -374.083
L330.099 -372.797
L328.789 -372.047
L326.032 -369.393
L325.647 -368.927
L322.724 -365.989
L322.504 -365.779
L319.362 -363.487
L318.372 -362.586
L316.219 -360.562
L314.955 -359.182
L313.076 -356.858
L312.057 -355.779
L309.934 -353.88
L308.018 -352.375
L306.791 -351.62
L303.649 -349.404
L303.132 -348.971
L300.506 -347.13
L298.764 -345.568
L297.363 -344.274
L295.434 -342.164
L294.221 -340.622
L292.648 -338.761
L291.078 -336.859
L289.699 -335.357
L287.935 -333.562
L286.347 -331.953
L284.793 -330.555
L282.759 -328.55
L281.65 -327.548
L279.253 -325.146
L278.508 -324.428
L275.888 -321.743
L275.365 -321.244
L272.522 -318.339
L272.222 -318.054
L269.091 -314.935
L269.08 -314.925
L265.937 -312.169
L265.304 -311.532
L262.795 -308.927
L262.051 -308.128
L259.652 -305.546
L258.851 -304.725
L256.509 -302.345
L255.581 -301.321
L253.367 -298.768
L252.634 -297.917
L250.224 -295.187
L249.617 -294.514
L247.081 -291.739
L246.509 -291.11
L243.939 -288.378
L243.297 -287.707
L240.796 -285.413
L239.66 -284.303
L237.654 -282.632
L235.891 -280.899
L234.511 -279.594
L232.589 -277.496
L231.368 -275.961
L229.802 -274.092
L228.226 -271.913
L227.174 -270.688
L225.083 -268.279
L224.131 -267.285
L221.941 -265.251
L220.543 -263.881
L218.798 -262.249
L217.106 -260.478
L215.655 -258.968
L213.907 -257.074
L212.513 -255.484
L210.9 -253.67
L209.37 -251.811
L208.01 -250.267
L206.228 -248.273
L204.895 -246.863
L203.085 -245.118
L201.438 -243.46
L199.942 -241.917
L198.278 -240.056
L196.8 -238.174
L195.535 -236.652
L193.657 -234.284
L192.758 -233.249
L190.514 -230.639
L189.803 -229.845
L187.372 -227.24
L186.638 -226.442
L184.229 -223.819
L183.508 -223.038
L181.087 -220.222
L180.553 -219.634
L177.944 -216.618
L177.594 -216.231
L174.801 -213.011
L174.636 -212.827
L171.68 -209.424
L171.659 -209.398
L168.727 -206.02
L168.516 -205.761
L165.869 -202.616
L165.374 -202.023
L162.938 -199.213
L162.231 -198.415
L159.905 -195.809
L159.088 -194.88
L156.89 -192.405
L155.946 -191.207
L154.055 -189.002
L152.803 -187.194
L151.548 -185.598
L149.66 -182.741
L149.237 -182.195
L146.871 -178.791
L146.518 -178.214
L144.533 -175.387
L143.375 -173.428
L142.409 -171.984
L140.269 -168.58
L140.233 -168.539
L137.271 -165.177
L137.09 -165
L134.273 -161.773
L133.947 -161.248
L132.013 -158.369
L130.805 -155.093
L130.736 -154.966
L130.221 -151.562
L130.805 -149.746
L131.659 -148.159
L133.947 -146.541
L137.09 -145.417
L139.502 -144.755
L140.233 -144.365
L143.375 -142.747
L146.518 -141.781
L149.346 -141.351
L149.66 -141.229
L152.761 -141.351
L152.803 -141.353
L155.946 -142.024
L157.355 -141.351
L158.83 -137.948
L157.341 -134.544
L156.419 -131.141
L156.496 -127.737
L159.088 -124.968
L159.832 -124.333
L162.231 -122.083
L162.627 -120.93
L163.254 -117.526
L163.447 -114.122
L163.147 -110.719
L165.279 -107.315
L165.374 -107.278
M196.8 -137.388
L195.318 -137.948
L196.666 -141.351
L196.8 -141.597
L198.224 -144.755
L198.366 -148.159
L198.538 -151.562
L199.563 -154.966
L199.942 -155.701
L201.613 -158.369
L203.085 -160.325
L204.511 -161.773
L206.228 -164.832
L206.39 -165.177
L207.016 -168.58
L209.37 -171.895
L209.414 -171.984
L211.266 -175.387
L211.759 -178.791
L210.731 -182.195
L209.635 -185.598
L209.37 -187.012
L208.731 -189.002
L207.993 -192.405
L208.033 -195.809
L207.674 -199.213
L206.228 -200.538
L203.085 -199.978
L202.447 -199.213
L201.007 -195.809
L199.942 -194.988
L196.8 -193.669
L193.657 -193.342
L190.514 -193.066
L188.053 -192.405
L187.372 -192.151
L184.229 -189.965
L183.124 -189.002
L181.087 -186.796
L180.127 -185.598
L177.944 -183.434
L176.832 -182.195
L174.801 -180.484
L172.254 -178.791
L171.659 -178.461
L168.516 -177.703
L165.374 -177.867
L162.916 -178.791
L162.231 -179.306
L160.921 -182.195
L161.475 -185.598
L162.231 -186.922
L163.515 -189.002
L165.374 -191.118
L166.626 -192.405
L168.516 -194.39
L169.824 -195.809
L171.659 -198.011
L172.543 -199.213
L174.801 -202.297
L175.019 -202.616
L177.708 -206.02
L177.944 -206.301
L180.548 -209.424
L181.087 -210.065
L183.159 -212.827
L184.229 -214.199
L185.573 -216.231
L187.372 -218.534
L188.244 -219.634
L190.514 -222.1
L191.473 -223.038
L193.657 -225.251
L194.801 -226.442
L196.8 -228.695
L197.779 -229.845
L199.942 -232.428
L200.633 -233.249
L203.085 -236.234
L203.44 -236.652
L206.228 -239.655
L206.615 -240.056
L209.37 -242.838
L209.928 -243.46
L212.513 -246.452
L212.823 -246.863
L215.498 -250.267
L215.655 -250.452
L218.39 -253.67
L218.798 -254.117
L221.709 -257.074
L221.941 -257.307
L225.083 -260.196
L225.401 -260.478
L228.226 -263.175
L228.887 -263.881
L231.368 -266.872
L231.67 -267.285
L234.064 -270.688
L234.511 -271.269
L236.76 -274.092
L237.654 -275.056
L240.367 -277.496
L240.796 -277.879
L243.939 -280.402
L244.568 -280.899
L247.081 -283.126
L248.362 -284.303
L250.224 -286.219
L251.652 -287.707
L253.367 -289.527
L254.925 -291.11
L256.509 -292.748
L258.363 -294.514
L259.652 -295.815
L261.92 -297.917
L262.795 -298.801
L264.992 -301.321
L265.937 -302.444
L267.747 -304.725
L269.08 -306.184
L271.047 -308.128
L272.222 -309.21
L274.904 -311.532
L275.365 -311.956
L278.508 -314.492
L279.137 -314.935
L281.65 -317.002
L283.316 -318.339
L284.793 -319.614
L287.663 -321.743
L287.935 -321.957
L291.078 -323.957
L292.616 -325.146
L294.221 -326.563
L295.994 -328.55
L297.363 -330.167
L299.031 -331.953
L300.506 -333.601
L302.793 -335.357
L303.649 -336.04
L306.791 -336.495
L308.164 -335.357
L308.231 -331.953
L306.947 -328.55
L306.791 -328.327
L304.662 -325.146
L303.649 -323.831
L302.24 -321.743
L300.506 -318.87
L300.141 -318.339
L297.934 -314.935
L297.363 -314.018
L296.023 -311.532
L294.427 -308.128
L294.221 -306.366
L293.942 -304.725
L294.221 -303.954
L295.206 -301.321
L295.986 -297.917
L295.888 -294.514
L296.298 -291.11
L297.363 -287.707
L297.363 -287.707
L299.33 -284.303
L300.506 -283.103
L303.649 -282.809
L306.791 -284.052
L307.428 -284.303
L309.934 -285.326
L313.076 -285.932
L316.219 -286.163
L319.362 -286.885
L320.66 -287.707
L322.504 -289.119
L324.286 -291.11
L325.647 -292.418
L328.344 -294.514
L328.789 -294.762
L331.932 -296.462
L334.75 -297.917
L335.075 -298.09
L338.217 -299.176
L341.36 -298.484
L341.745 -297.917
L342.349 -294.514
L341.584 -291.11
L341.36 -290.729
L339.372 -287.707
L338.217 -286.295
L336.723 -284.303
L335.075 -282.264
L333.959 -280.899
L331.932 -278.583
L330.925 -277.496
L328.789 -274.548
L328.512 -274.092
L326.548 -270.688
L325.647 -269.447
L323.921 -267.285
L322.504 -265.8
L320.749 -263.881
L319.362 -262.34
L317.847 -260.478
L316.219 -258.632
L314.78 -257.074
L313.076 -255.314
L311.63 -253.67
L309.934 -251.627
L308.937 -250.267
L306.791 -247.5
L306.267 -246.863
L303.649 -243.926
L303.191 -243.46
L300.506 -240.799
L299.719 -240.056
L297.363 -237.671
L296.433 -236.652
L294.221 -233.996
L293.615 -233.249
L291.078 -230.329
L290.663 -229.845
L287.935 -226.68
L287.75 -226.442
L285.045 -223.038
L284.793 -222.752
L281.956 -219.634
L281.65 -219.321
L278.746 -216.231
L278.508 -215.972
L275.903 -212.827
L275.365 -212.194
L273.079 -209.424
L272.222 -208.465
L269.944 -206.02
L269.08 -205.104
L266.671 -202.616
L265.937 -201.838
L263.281 -199.213
L262.795 -198.718
L259.691 -195.809
L259.652 -195.771
L256.509 -192.73
L256.174 -192.405
L253.367 -189.535
L252.832 -189.002
L250.224 -186.233
L249.617 -185.598
L247.081 -182.85
L246.446 -182.195
L243.939 -179.657
L243.072 -178.791
L240.796 -176.451
L239.71 -175.387
L237.654 -173.285
L236.265 -171.984
L234.511 -170.19
L232.921 -168.58
L231.368 -166.98
L229.558 -165.177
L228.226 -163.86
L226.039 -161.773
L225.083 -160.835
L222.275 -158.369
L221.941 -158.061
L218.798 -155.775
L217.577 -154.966
L215.655 -153.398
L214.143 -151.562
L212.513 -149.343
L211.781 -148.159
L209.37 -145.32
L208.618 -144.755
L206.228 -143.083
L203.085 -141.549
L202.484 -141.351
L199.942 -139.751
L197.776 -137.948
L196.8 -137.388
M331.932 -358.763
L331.503 -359.182
L330.506 -362.586
L331.932 -365.508
L332.565 -365.989
L335.075 -366.879
L336.583 -365.989
L338.217 -363.603
L338.578 -362.586
L338.217 -359.29
L338.186 -359.182
L335.075 -357.261
L331.932 -358.763" id="C1_0_bcfa0d6ded"/>
     <path d="
M369.643 -358.283
L370.56 -359.182
L369.643 -360.101
L368.559 -359.182
L369.643 -358.283" id="C1_1_af733bb9a1"/>
    </defs>
    <g clip-path="url(#p66bbb1c567)">
     <use style="fill:#0000ff;fill-opacity:0.5;" x="0.0" xlink:href="#C1_0_bcfa0d6ded" y="432.0"/>
    </g>
    <g clip-path="url(#p66bbb1c567)">
     <use style="fill:#0000ff;fill-opacity:0.5;" x="0.0" xlink:href="#C1_1_af733bb9a1" y="432.0"/>
    </g>
   </g>
   <g id="PathCollection_3">
    <defs>
     <path d="
M196.8 -137.388
L197.776 -137.948
L199.942 -139.751
L202.484 -141.351
L203.085 -141.549
L206.228 -143.083
L208.618 -144.755
L209.37 -145.32
L211.781 -148.159
L212.513 -149.343
L214.143 -151.562
L215.655 -153.398
L217.577 -154.966
L218.798 -155.775
L221.941 -158.061
L222.275 -158.369
L225.083 -160.835
L226.039 -161.773
L228.226 -163.86
L229.558 -165.177
L231.368 -166.98
L232.921 -168.58
L234.511 -170.19
L236.265 -171.984
L237.654 -173.285
L239.71 -175.387
L240.796 -176.451
L243.072 -178.791
L243.939 -179.657
L246.446 -182.195
L247.081 -182.85
L249.617 -185.598
L250.224 -186.233
L252.832 -189.002
L253.367 -189.535
L256.174 -192.405
L256.509 -192.73
L259.652 -195.771
L259.691 -195.809
L262.795 -198.718
L263.281 -199.213
L265.937 -201.838
L266.671 -202.616
L269.08 -205.104
L269.944 -206.02
L272.222 -208.465
L273.079 -209.424
L275.365 -212.194
L275.903 -212.827
L278.508 -215.972
L278.746 -216.231
L281.65 -219.321
L281.956 -219.634
L284.793 -222.752
L285.045 -223.038
L287.75 -226.442
L287.935 -226.68
L290.663 -229.845
L291.078 -230.329
L293.615 -233.249
L294.221 -233.996
L296.433 -236.652
L297.363 -237.671
L299.719 -240.056
L300.506 -240.799
L303.191 -243.46
L303.649 -243.926
L306.267 -246.863
L306.791 -247.5
L308.937 -250.267
L309.934 -251.627
L311.63 -253.67
L313.076 -255.314
L314.78 -257.074
L316.219 -258.632
L317.847 -260.478
L319.362 -262.34
L320.749 -263.881
L322.504 -265.8
L323.921 -267.285
L325.647 -269.447
L326.548 -270.688
L328.512 -274.092
L328.789 -274.548
L330.925 -277.496
L331.932 -278.583
L333.959 -280.899
L335.075 -282.264
L336.723 -284.303
L338.217 -286.295
L339.372 -287.707
L341.36 -290.729
L341.584 -291.11
L342.349 -294.514
L341.745 -297.917
L341.36 -298.484
L338.217 -299.176
L335.075 -298.09
L334.75 -297.917
L331.932 -296.462
L328.789 -294.762
L328.344 -294.514
L325.647 -292.418
L324.286 -291.11
L322.504 -289.119
L320.66 -287.707
L319.362 -286.885
L316.219 -286.163
L313.076 -285.932
L309.934 -285.326
L307.428 -284.303
L306.791 -284.052
L303.649 -282.809
L300.506 -283.103
L299.33 -284.303
L297.363 -287.707
L297.363 -287.707
L296.298 -291.11
L295.888 -294.514
L295.986 -297.917
L295.206 -301.321
L294.221 -303.954
L293.942 -304.725
L294.221 -306.366
L294.427 -308.128
L296.023 -311.532
L297.363 -314.018
L297.934 -314.935
L300.141 -318.339
L300.506 -318.87
L302.24 -321.743
L303.649 -323.831
L304.662 -325.146
L306.791 -328.327
L306.947 -328.55
L308.231 -331.953
L308.164 -335.357
L306.791 -336.495
L303.649 -336.04
L302.793 -335.357
L300.506 -333.601
L299.031 -331.953
L297.363 -330.167
L295.994 -328.55
L294.221 -326.563
L292.616 -325.146
L291.078 -323.957
L287.935 -321.957
L287.663 -321.743
L284.793 -319.614
L283.316 -318.339
L281.65 -317.002
L279.137 -314.935
L278.508 -314.492
L275.365 -311.956
L274.904 -311.532
L272.222 -309.21
L271.047 -308.128
L269.08 -306.184
L267.747 -304.725
L265.937 -302.444
L264.992 -301.321
L262.795 -298.801
L261.92 -297.917
L259.652 -295.815
L258.363 -294.514
L256.509 -292.748
L254.925 -291.11
L253.367 -289.527
L251.652 -287.707
L250.224 -286.219
L248.362 -284.303
L247.081 -283.126
L244.568 -280.899
L243.939 -280.402
L240.796 -277.879
L240.367 -277.496
L237.654 -275.056
L236.76 -274.092
L234.511 -271.269
L234.064 -270.688
L231.67 -267.285
L231.368 -266.872
L228.887 -263.881
L228.226 -263.175
L225.401 -260.478
L225.083 -260.196
L221.941 -257.307
L221.709 -257.074
L218.798 -254.117
L218.39 -253.67
L215.655 -250.452
L215.498 -250.267
L212.823 -246.863
L212.513 -246.452
L209.928 -243.46
L209.37 -242.838
L206.615 -240.056
L206.228 -239.655
L203.44 -236.652
L203.085 -236.234
L200.633 -233.249
L199.942 -232.428
L197.779 -229.845
L196.8 -228.695
L194.801 -226.442
L193.657 -225.251
L191.473 -223.038
L190.514 -222.1
L188.244 -219.634
L187.372 -218.534
L185.573 -216.231
L184.229 -214.199
L183.159 -212.827
L181.087 -210.065
L180.548 -209.424
L177.944 -206.301
L177.708 -206.02
L175.019 -202.616
L174.801 -202.297
L172.543 -199.213
L171.659 -198.011
L169.824 -195.809
L168.516 -194.39
L166.626 -192.405
L165.374 -191.118
L163.515 -189.002
L162.231 -186.922
L161.475 -185.598
L160.921 -182.195
L162.231 -179.306
L162.916 -178.791
L165.374 -177.867
L168.516 -177.703
L171.659 -178.461
L172.254 -178.791
L174.801 -180.484
L176.832 -182.195
L177.944 -183.434
L180.127 -185.598
L181.087 -186.796
L183.124 -189.002
L184.229 -189.965
L187.372 -192.151
L188.053 -192.405
L190.514 -193.066
L193.657 -193.342
L196.8 -193.669
L199.942 -194.988
L201.007 -195.809
L202.447 -199.213
L203.085 -199.978
L206.228 -200.538
L207.674 -199.213
L208.033 -195.809
L207.993 -192.405
L208.731 -189.002
L209.37 -187.012
L209.635 -185.598
L210.731 -182.195
L211.759 -178.791
L211.266 -175.387
L209.414 -171.984
L209.37 -171.895
L207.016 -168.58
L206.39 -165.177
L206.228 -164.832
L204.511 -161.773
L203.085 -160.325
L201.613 -158.369
L199.942 -155.701
L199.563 -154.966
L198.538 -151.562
L198.366 -148.159
L198.224 -144.755
L196.8 -141.597
L196.666 -141.351
L195.318 -137.948
L196.8 -137.388" id="C2_0_050fc002b2"/>
     <path d="
M331.932 -358.763
L335.075 -357.261
L338.186 -359.182
L338.217 -359.29
L338.578 -362.586
L338.217 -363.603
L336.583 -365.989
L335.075 -366.879
L332.565 -365.989
L331.932 -365.508
L330.506 -362.586
L331.503 -359.182
L331.932 -358.763" id="C2_1_3a99831215"/>
    </defs>
    <g clip-path="url(#p66bbb1c567)">
     <use style="fill:#0000ff;" x="0.0" xlink:href="#C2_0_050fc002b2" y="432.0"/>
    </g>
    <g clip-path="url(#p66bbb1c567)">
     <use style="fill:#0000ff;" x="0.0" xlink:href="#C2_1_3a99831215" y="432.0"/>
    </g>
   </g>
   <g id="line2d_1">
    <path clip-path="url(#p66bbb1c567)" d="
M258.081 186.839" style="fill:none;stroke:#fa8072;stroke-linecap:square;"/>
    <defs>
     <path d="
M-7.5 0
L7.5 0
M0 7.5
L0 -7.5" id="m415119b0dc" style="stroke:#fa8072;stroke-width:3;"/>
    </defs>
    <g clip-path="url(#p66bbb1c567)">
     <use style="fill:#fa8072;stroke:#fa8072;stroke-width:3;" x="258.080625" xlink:href="#m415119b0dc" y="186.83859375"/>
    </g>
   </g>
   <g id="matplotlib.axis_1">
    <g id="xtick_1">
     <g id="line2d_2">
      <path clip-path="url(#p66bbb1c567)" d="
M133.633 355.317
L133.633 18.36" style="fill:none;stroke:#000000;stroke-dasharray:1.000000,3.000000;stroke-dashoffset:0.0;stroke-width:0.5;"/>
     </g>
     <g id="line2d_3">
      <defs>
       <path d="
M0 0
L0 -4" id="m93b0483c22" style="stroke:#000000;stroke-width:0.5;"/>
      </defs>
      <g>
       <use style="stroke:#000000;stroke-width:0.5;" x="133.633125" xlink:href="#m93b0483c22" y="355.3171875"/>
      </g>
     </g>
     <g id="line2d_4">
      <defs>
       <path d="
M0 0
L0 4" id="m741efc42ff" style="stroke:#000000;stroke-width:0.5;"/>
      </defs>
      <g>
       <use style="stroke:#000000;stroke-width:0.5;" x="133.633125" xlink:href="#m741efc42ff" y="18.36"/>
      </g>
     </g>
     <g id="text_1">
      <!-- −0.4 -->
      <defs>
       <path d="
M31.7812 66.4062
Q24.1719 66.4062 20.3281 58.9062
Q16.5 51.4219 16.5 36.375
Q16.5 21.3906 20.3281 13.8906
Q24.1719 6.39062 31.7812 6.39062
Q39.4531 6.39062 43.2812 13.8906
Q47.125 21.3906 47.125 36.375
Q47.125 51.4219 43.2812 58.9062
Q39.4531 66.4062 31.7812 66.4062
M31.7812 74.2188
Q44.0469 74.2188 50.5156 64.5156
Q56.9844 54.8281 56.9844 36.375
Q56.9844 17.9688 50.5156 8.26562
Q44.0469 -1.42188 31.7812 -1.42188
Q19.5312 -1.42188 13.0625 8.26562
Q6.59375 17.9688 6.59375 36.375
Q6.59375 54.8281 13.0625 64.5156
Q19.5312 74.2188 31.7812 74.2188" id="DejaVuSans-30"/>
       <path d="
M10.6875 12.4062
L21 12.4062
L21 0
L10.6875 0
z
" id="DejaVuSans-2e"/>
       <path d="
M37.7969 64.3125
L12.8906 25.3906
L37.7969 25.3906
z

M35.2031 72.9062
L47.6094 72.9062
L47.6094 25.3906
L58.0156 25.3906
L58.0156 17.1875
L47.6094 17.1875
L47.6094 0
L37.7969 0
L37.7969 17.1875
L4.89062 17.1875
L4.89062 26.7031
z
" id="DejaVuSans-34"/>
       <path d="
M10.5938 35.5
L73.1875 35.5
L73.1875 27.2031
L10.5938 27.2031
z
" id="DejaVuSans-2212"/>
      </defs>
      <g transform="translate(114.37 372.23453125)scale(0.17 -0.17)">
       <use xlink:href="#DejaVuSans-2212"/>
       <use x="83.7890625" xlink:href="#DejaVuSans-30"/>
       <use x="147.412109375" xlink:href="#DejaVuSans-2e"/>
       <use x="179.19921875" xlink:href="#DejaVuSans-34"/>
      </g>
     </g>
    </g>
    <g id="xtick_2">
     <g id="line2d_5">
      <path clip-path="url(#p66bbb1c567)" d="
M195.857 355.317
L195.857 18.36" style="fill:none;stroke:#000000;stroke-dasharray:1.000000,3.000000;stroke-dashoffset:0.0;stroke-width:0.5;"/>
     </g>
     <g id="line2d_6">
      <g>
       <use style="stroke:#000000;stroke-width:0.5;" x="195.856875" xlink:href="#m93b0483c22" y="355.3171875"/>
      </g>
     </g>
     <g id="line2d_7">
      <g>
       <use style="stroke:#000000;stroke-width:0.5;" x="195.856875" xlink:href="#m741efc42ff" y="18.36"/>
      </g>
     </g>
     <g id="text_2">
      <!-- −0.2 -->
      <defs>
       <path d="
M19.1875 8.29688
L53.6094 8.29688
L53.6094 0
L7.32812 0
L7.32812 8.29688
Q12.9375 14.1094 22.625 23.8906
Q32.3281 33.6875 34.8125 36.5312
Q39.5469 41.8438 41.4219 45.5312
Q43.3125 49.2188 43.3125 52.7812
Q43.3125 58.5938 39.2344 62.25
Q35.1562 65.9219 28.6094 65.9219
Q23.9688 65.9219 18.8125 64.3125
Q13.6719 62.7031 7.8125 59.4219
L7.8125 69.3906
Q13.7656 71.7812 18.9375 73
Q24.125 74.2188 28.4219 74.2188
Q39.75 74.2188 46.4844 68.5469
Q53.2188 62.8906 53.2188 53.4219
Q53.2188 48.9219 51.5312 44.8906
Q49.8594 40.875 45.4062 35.4062
Q44.1875 33.9844 37.6406 27.2188
Q31.1094 20.4531 19.1875 8.29688" id="DejaVuSans-32"/>
      </defs>
      <g transform="translate(176.96828125 372.23453125)scale(0.17 -0.17)">
       <use xlink:href="#DejaVuSans-2212"/>
       <use x="83.7890625" xlink:href="#DejaVuSans-30"/>
       <use x="147.412109375" xlink:href="#DejaVuSans-2e"/>
       <use x="179.19921875" xlink:href="#DejaVuSans-32"/>
      </g>
     </g>
    </g>
    <g id="xtick_3">
     <g id="line2d_8">
      <path clip-path="url(#p66bbb1c567)" d="
M258.081 355.317
L258.081 18.36" style="fill:none;stroke:#000000;stroke-dasharray:1.000000,3.000000;stroke-dashoffset:0.0;stroke-width:0.5;"/>
     </g>
     <g id="line2d_9">
      <g>
       <use style="stroke:#000000;stroke-width:0.5;" x="258.080625" xlink:href="#m93b0483c22" y="355.3171875"/>
      </g>
     </g>
     <g id="line2d_10">
      <g>
       <use style="stroke:#000000;stroke-width:0.5;" x="258.080625" xlink:href="#m741efc42ff" y="18.36"/>
      </g>
     </g>
     <g id="text_3">
      <!-- 0.0 -->
      <g transform="translate(245.687890625 372.23453125)scale(0.17 -0.17)">
       <use xlink:href="#DejaVuSans-30"/>
       <use x="63.623046875" xlink:href="#DejaVuSans-2e"/>
       <use x="95.41015625" xlink:href="#DejaVuSans-30"/>
      </g>
     </g>
    </g>
    <g id="xtick_4">
     <g id="line2d_11">
      <path clip-path="url(#p66bbb1c567)" d="
M320.304 355.317
L320.304 18.36" style="fill:none;stroke:#000000;stroke-dasharray:1.000000,3.000000;stroke-dashoffset:0.0;stroke-width:0.5;"/>
     </g>
     <g id="line2d_12">
      <g>
       <use style="stroke:#000000;stroke-width:0.5;" x="320.304375" xlink:href="#m93b0483c22" y="355.3171875"/>
      </g>
     </g>
     <g id="line2d_13">
      <g>
       <use style="stroke:#000000;stroke-width:0.5;" x="320.304375" xlink:href="#m741efc42ff" y="18.36"/>
      </g>
     </g>
     <g id="text_4">
      <!-- 0.2 -->
      <g transform="translate(308.198515625 372.23453125)scale(0.17 -0.17)">
       <use xlink:href="#DejaVuSans-30"/>
       <use x="63.623046875" xlink:href="#DejaVuSans-2e"/>
       <use x="95.41015625" xlink:href="#DejaVuSans-32"/>
      </g>
     </g>
    </g>
    <g id="xtick_5">
     <g id="line2d_14">
      <path clip-path="url(#p66bbb1c567)" d="
M382.528 355.317
L382.528 18.36" style="fill:none;stroke:#000000;stroke-dasharray:1.000000,3.000000;stroke-dashoffset:0.0;stroke-width:0.5;"/>
     </g>
     <g id="line2d_15">
      <g>
       <use style="stroke:#000000;stroke-width:0.5;" x="382.528125" xlink:href="#m93b0483c22" y="355.3171875"/>
      </g>
     </g>
     <g id="line2d_16">
      <g>
       <use style="stroke:#000000;stroke-width:0.5;" x="382.528125" xlink:href="#m741efc42ff" y="18.36"/>
      </g>
     </g>
     <g id="text_5">
      <!-- 0.4 -->
      <g transform="translate(370.047734375 372.23453125)scale(0.17 -0.17)">
       <use xlink:href="#DejaVuSans-30"/>
       <use x="63.623046875" xlink:href="#DejaVuSans-2e"/>
       <use x="95.41015625" xlink:href="#DejaVuSans-34"/>
      </g>
     </g>
    </g>
    <g id="xtick_6">
     <g id="line2d_17">
      <defs>
       <path d="
M0 0
L0 -2" id="m177f7580d0" style="stroke:#000000;stroke-width:0.5;"/>
      </defs>
      <g>
       <use style="stroke:#000000;stroke-width:0.5;" x="118.0771875" xlink:href="#m177f7580d0" y="355.3171875"/>
      </g>
     </g>
     <g id="line2d_18">
      <defs>
       <path d="
M0 0
L0 2" id="m5284c7e2a0" style="stroke:#000000;stroke-width:0.5;"/>
      </defs>
      <g>
       <use style="stroke:#000000;stroke-width:0.5;" x="118.0771875" xlink:href="#m5284c7e2a0" y="18.36"/>
      </g>
     </g>
    </g>
    <g id="xtick_7">
     <g id="line2d_19">
      <g>
       <use style="stroke:#000000;stroke-width:0.5;" x="149.1890625" xlink:href="#m177f7580d0" y="355.3171875"/>
      </g>
     </g>
     <g id="line2d_20">
      <g>
       <use style="stroke:#000000;stroke-width:0.5;" x="149.1890625" xlink:href="#m5284c7e2a0" y="18.36"/>
      </g>
     </g>
    </g>
    <g id="xtick_8">
     <g id="line2d_21">
      <g>
       <use style="stroke:#000000;stroke-width:0.5;" x="164.745" xlink:href="#m177f7580d0" y="355.3171875"/>
      </g>
     </g>
     <g id="line2d_22">
      <g>
       <use style="stroke:#000000;stroke-width:0.5;" x="164.745" xlink:href="#m5284c7e2a0" y="18.36"/>
      </g>
     </g>
    </g>
    <g id="xtick_9">
     <g id="line2d_23">
      <g>
       <use style="stroke:#000000;stroke-width:0.5;" x="180.3009375" xlink:href="#m177f7580d0" y="355.3171875"/>
      </g>
     </g>
     <g id="line2d_24">
      <g>
       <use style="stroke:#000000;stroke-width:0.5;" x="180.3009375" xlink:href="#m5284c7e2a0" y="18.36"/>
      </g>
     </g>
    </g>
    <g id="xtick_10">
     <g id="line2d_25">
      <g>
       <use style="stroke:#000000;stroke-width:0.5;" x="195.856875" xlink:href="#m177f7580d0" y="355.3171875"/>
      </g>
     </g>
     <g id="line2d_26">
      <g>
       <use style="stroke:#000000;stroke-width:0.5;" x="195.856875" xlink:href="#m5284c7e2a0" y="18.36"/>
      </g>
     </g>
    </g>
    <g id="xtick_11">
     <g id="line2d_27">
      <g>
       <use style="stroke:#000000;stroke-width:0.5;" x="211.4128125" xlink:href="#m177f7580d0" y="355.3171875"/>
      </g>
     </g>
     <g id="line2d_28">
      <g>
       <use style="stroke:#000000;stroke-width:0.5;" x="211.4128125" xlink:href="#m5284c7e2a0" y="18.36"/>
      </g>
     </g>
    </g>
    <g id="xtick_12">
     <g id="line2d_29">
      <g>
       <use style="stroke:#000000;stroke-width:0.5;" x="226.96875" xlink:href="#m177f7580d0" y="355.3171875"/>
      </g>
     </g>
     <g id="line2d_30">
      <g>
       <use style="stroke:#000000;stroke-width:0.5;" x="226.96875" xlink:href="#m5284c7e2a0" y="18.36"/>
      </g>
     </g>
    </g>
    <g id="xtick_13">
     <g id="line2d_31">
      <g>
       <use style="stroke:#000000;stroke-width:0.5;" x="242.5246875" xlink:href="#m177f7580d0" y="355.3171875"/>
      </g>
     </g>
     <g id="line2d_32">
      <g>
       <use style="stroke:#000000;stroke-width:0.5;" x="242.5246875" xlink:href="#m5284c7e2a0" y="18.36"/>
      </g>
     </g>
    </g>
    <g id="xtick_14">
     <g id="line2d_33">
      <g>
       <use style="stroke:#000000;stroke-width:0.5;" x="258.080625" xlink:href="#m177f7580d0" y="355.3171875"/>
      </g>
     </g>
     <g id="line2d_34">
      <g>
       <use style="stroke:#000000;stroke-width:0.5;" x="258.080625" xlink:href="#m5284c7e2a0" y="18.36"/>
      </g>
     </g>
    </g>
    <g id="xtick_15">
     <g id="line2d_35">
      <g>
       <use style="stroke:#000000;stroke-width:0.5;" x="273.6365625" xlink:href="#m177f7580d0" y="355.3171875"/>
      </g>
     </g>
     <g id="line2d_36">
      <g>
       <use style="stroke:#000000;stroke-width:0.5;" x="273.6365625" xlink:href="#m5284c7e2a0" y="18.36"/>
      </g>
     </g>
    </g>
    <g id="xtick_16">
     <g id="line2d_37">
      <g>
       <use style="stroke:#000000;stroke-width:0.5;" x="289.1925" xlink:href="#m177f7580d0" y="355.3171875"/>
      </g>
     </g>
     <g id="line2d_38">
      <g>
       <use style="stroke:#000000;stroke-width:0.5;" x="289.1925" xlink:href="#m5284c7e2a0" y="18.36"/>
      </g>
     </g>
    </g>
    <g id="xtick_17">
     <g id="line2d_39">
      <g>
       <use style="stroke:#000000;stroke-width:0.5;" x="304.7484375" xlink:href="#m177f7580d0" y="355.3171875"/>
      </g>
     </g>
     <g id="line2d_40">
      <g>
       <use style="stroke:#000000;stroke-width:0.5;" x="304.7484375" xlink:href="#m5284c7e2a0" y="18.36"/>
      </g>
     </g>
    </g>
    <g id="xtick_18">
     <g id="line2d_41">
      <g>
       <use style="stroke:#000000;stroke-width:0.5;" x="320.304375" xlink:href="#m177f7580d0" y="355.3171875"/>
      </g>
     </g>
     <g id="line2d_42">
      <g>
       <use style="stroke:#000000;stroke-width:0.5;" x="320.304375" xlink:href="#m5284c7e2a0" y="18.36"/>
      </g>
     </g>
    </g>
    <g id="xtick_19">
     <g id="line2d_43">
      <g>
       <use style="stroke:#000000;stroke-width:0.5;" x="335.8603125" xlink:href="#m177f7580d0" y="355.3171875"/>
      </g>
     </g>
     <g id="line2d_44">
      <g>
       <use style="stroke:#000000;stroke-width:0.5;" x="335.8603125" xlink:href="#m5284c7e2a0" y="18.36"/>
      </g>
     </g>
    </g>
    <g id="xtick_20">
     <g id="line2d_45">
      <g>
       <use style="stroke:#000000;stroke-width:0.5;" x="351.41625" xlink:href="#m177f7580d0" y="355.3171875"/>
      </g>
     </g>
     <g id="line2d_46">
      <g>
       <use style="stroke:#000000;stroke-width:0.5;" x="351.41625" xlink:href="#m5284c7e2a0" y="18.36"/>
      </g>
     </g>
    </g>
    <g id="xtick_21">
     <g id="line2d_47">
      <g>
       <use style="stroke:#000000;stroke-width:0.5;" x="366.9721875" xlink:href="#m177f7580d0" y="355.3171875"/>
      </g>
     </g>
     <g id="line2d_48">
      <g>
       <use style="stroke:#000000;stroke-width:0.5;" x="366.9721875" xlink:href="#m5284c7e2a0" y="18.36"/>
      </g>
     </g>
    </g>
    <g id="xtick_22">
     <g id="line2d_49">
      <g>
       <use style="stroke:#000000;stroke-width:0.5;" x="382.528125" xlink:href="#m177f7580d0" y="355.3171875"/>
      </g>
     </g>
     <g id="line2d_50">
      <g>
       <use style="stroke:#000000;stroke-width:0.5;" x="382.528125" xlink:href="#m5284c7e2a0" y="18.36"/>
      </g>
     </g>
    </g>
    <g id="xtick_23">
     <g id="line2d_51">
      <g>
       <use style="stroke:#000000;stroke-width:0.5;" x="398.0840625" xlink:href="#m177f7580d0" y="355.3171875"/>
      </g>
     </g>
     <g id="line2d_52">
      <g>
       <use style="stroke:#000000;stroke-width:0.5;" x="398.0840625" xlink:href="#m5284c7e2a0" y="18.36"/>
      </g>
     </g>
    </g>
    <g id="text_6">
     <!-- $\mathcal{C}_{S}$ -->
     <defs>
      <path d="
M6.10938 -2.20312
Q5.8125 -2.20312 5.5625 -1.85938
Q5.32812 -1.51562 5.32812 -1.21875
L11.0781 22.125
Q11.2812 22.7031 11.9219 22.7031
L13.0938 22.7031
Q13.4844 22.7031 13.7031 22.4062
Q13.9219 22.125 13.9219 21.6875
Q13.0938 18.2656 13.0938 15.5781
Q13.0938 8.34375 18.0625 4.82812
Q23.0469 1.3125 30.6094 1.3125
Q33.8906 1.3125 37.0625 2.92188
Q40.2344 4.54688 42.5938 7.125
Q44.9688 9.71875 46.375 12.9062
Q47.7969 16.1094 47.7969 19.3906
Q47.7969 22.9062 45.9375 25.6562
Q44.0938 28.4219 40.8281 29.2031
L28.6094 32.4219
Q23.6875 33.7344 20.75 37.7188
Q17.8281 41.7031 17.8281 46.6875
Q17.8281 52.6875 21.3906 58.25
Q24.9531 63.8125 30.6875 67.1562
Q36.4219 70.5156 42.3906 70.5156
Q46.9688 70.5156 50.7969 68.8281
Q54.6406 67.1406 56.6875 63.4844
L62.4062 70.2188
Q62.9844 70.5156 63.0938 70.5156
L63.7188 70.5156
Q64.1094 70.5156 64.3438 70.1719
Q64.5938 69.8281 64.5938 69.4844
L58.7969 46.2969
Q58.6406 45.6094 58.0156 45.6094
L56.7812 45.6094
Q55.9062 45.6094 55.9062 46.6875
Q56.3906 49.8594 56.3906 52.2031
Q56.3906 56.8438 54.7969 60.2812
Q53.2188 63.7188 50.0156 65.5
Q46.8281 67.2812 42.0938 67.2812
Q38.0938 67.2812 34.125 64.9844
Q30.1719 62.7031 27.7344 58.8906
Q25.2969 55.0781 25.2969 50.9844
Q25.2969 47.75 27.1719 45.2656
Q29.0469 42.7812 32.1719 41.8906
L44.3906 38.7188
Q47.7031 37.8438 50.1719 35.625
Q52.6406 33.4062 53.9062 30.3438
Q55.1719 27.2969 55.1719 23.6875
Q55.1719 18.9531 53.1719 14.3281
Q51.1719 9.71875 47.5781 5.90625
Q44 2.09375 39.4531 -0.046875
Q34.9062 -2.20312 30.1719 -2.20312
Q18.2656 -2.20312 13.0938 4.78125
L7.51562 -1.90625
Q6.9375 -2.20312 6.78125 -2.20312
z
" id="Cmmi10-53"/>
      <path d="
M19.6719 -2.39062
Q14.9375 -2.39062 11.4375 -0.5625
Q7.95312 1.26562 5.64062 4.5625
Q3.32812 7.85938 2.26562 11.8125
Q1.21875 15.7656 1.21875 20.3125
Q1.21875 29.25 4.51562 38.3594
Q7.8125 47.4688 13.7656 54.7188
Q19.7344 61.9688 27.9062 66.2344
Q36.0781 70.5156 45.5156 70.5156
L46.0938 70.5156
Q49.3594 70.5156 51.3906 68.8438
Q53.4219 67.1875 53.4219 64.0156
Q53.4219 61.2344 51.8125 57.4688
Q50.2031 53.7188 47.9062 49.6094
Q46.8281 47.7969 44.6562 46.4844
Q42.4844 45.1719 40.1875 44.9219
L39.7031 44.9219
Q39.0156 45.2656 39.0156 45.6094
Q39.0156 46.0469 40.5938 49.1719
Q42.1875 52.2969 43.3281 55.0469
Q44.4844 57.8125 44.4844 59.8125
Q44.4844 62.25 42.9375 63.4219
Q41.4062 64.5938 38.8125 64.5938
Q31.4531 64.5938 26.4375 61.0781
Q21.4375 57.5625 17.3906 50.6875
Q14.0156 44.875 12.0625 38.1094
Q10.1094 31.3438 10.1094 24.6094
Q10.1094 19.0938 11.8594 14.2344
Q13.625 9.375 17.4219 6.4375
Q21.2344 3.51562 27 3.51562
Q33.0625 3.51562 37.7969 8.01562
Q38.4219 8.6875 40.4062 11.2969
Q42.3906 13.9219 44.0938 15.1406
Q45.7969 16.3594 48.4844 16.6094
L49.0312 16.6094
Q49.7031 16.2656 49.7031 15.8281
Q49.7031 15.4375 49.4219 14.9844
Q46.5781 10.2969 41.7969 6.29688
Q37.0156 2.29688 31.2969 -0.046875
Q25.5938 -2.39062 20.3125 -2.39062
z
" id="Cmsy10-43"/>
     </defs>
     <g transform="translate(243.680625 402.07)scale(0.3 -0.3)">
      <use transform="translate(0.0 0.484375)" xlink:href="#Cmsy10-43"/>
      <use transform="translate(52.587890625 -25.025)scale(0.7)" xlink:href="#Cmmi10-53"/>
     </g>
    </g>
   </g>
   <g id="matplotlib.axis_2">
    <g id="ytick_1">
     <g id="line2d_53">
      <path clip-path="url(#p66bbb1c567)" d="
M102.521 321.621
L413.64 321.621" style="fill:none;stroke:#000000;stroke-dasharray:1.000000,3.000000;stroke-dashoffset:0.0;stroke-width:0.5;"/>
     </g>
     <g id="line2d_54">
      <defs>
       <path d="
M0 0
L4 0" id="m728421d6d4" style="stroke:#000000;stroke-width:0.5;"/>
      </defs>
      <g>
       <use style="stroke:#000000;stroke-width:0.5;" x="102.52125" xlink:href="#m728421d6d4" y="321.62146875"/>
      </g>
     </g>
     <g id="line2d_55">
      <defs>
       <path d="
M0 0
L-4 0" id="mcb0005524f" style="stroke:#000000;stroke-width:0.5;"/>
      </defs>
      <g>
       <use style="stroke:#000000;stroke-width:0.5;" x="413.64" xlink:href="#mcb0005524f" y="321.62146875"/>
      </g>
     </g>
     <g id="text_7">
      <!-- −0.4 -->
      <g transform="translate(59.995 326.31240625)scale(0.17 -0.17)">
       <use xlink:href="#DejaVuSans-2212"/>
       <use x="83.7890625" xlink:href="#DejaVuSans-30"/>
       <use x="147.412109375" xlink:href="#DejaVuSans-2e"/>
       <use x="179.19921875" xlink:href="#DejaVuSans-34"/>
      </g>
     </g>
    </g>
    <g id="ytick_2">
     <g id="line2d_56">
      <path clip-path="url(#p66bbb1c567)" d="
M102.521 254.23
L413.64 254.23" style="fill:none;stroke:#000000;stroke-dasharray:1.000000,3.000000;stroke-dashoffset:0.0;stroke-width:0.5;"/>
     </g>
     <g id="line2d_57">
      <g>
       <use style="stroke:#000000;stroke-width:0.5;" x="102.52125" xlink:href="#m728421d6d4" y="254.23003125"/>
      </g>
     </g>
     <g id="line2d_58">
      <g>
       <use style="stroke:#000000;stroke-width:0.5;" x="413.64" xlink:href="#mcb0005524f" y="254.23003125"/>
      </g>
     </g>
     <g id="text_8">
      <!-- −0.2 -->
      <g transform="translate(60.7440625 258.92096875)scale(0.17 -0.17)">
       <use xlink:href="#DejaVuSans-2212"/>
       <use x="83.7890625" xlink:href="#DejaVuSans-30"/>
       <use x="147.412109375" xlink:href="#DejaVuSans-2e"/>
       <use x="179.19921875" xlink:href="#DejaVuSans-32"/>
      </g>
     </g>
    </g>
    <g id="ytick_3">
     <g id="line2d_59">
      <path clip-path="url(#p66bbb1c567)" d="
M102.521 186.839
L413.64 186.839" style="fill:none;stroke:#000000;stroke-dasharray:1.000000,3.000000;stroke-dashoffset:0.0;stroke-width:0.5;"/>
     </g>
     <g id="line2d_60">
      <g>
       <use style="stroke:#000000;stroke-width:0.5;" x="102.52125" xlink:href="#m728421d6d4" y="186.83859375"/>
      </g>
     </g>
     <g id="line2d_61">
      <g>
       <use style="stroke:#000000;stroke-width:0.5;" x="413.64" xlink:href="#mcb0005524f" y="186.83859375"/>
      </g>
     </g>
     <g id="text_9">
      <!-- 0.0 -->
      <g transform="translate(73.73578125 191.52953125)scale(0.17 -0.17)">
       <use xlink:href="#DejaVuSans-30"/>
       <use x="63.623046875" xlink:href="#DejaVuSans-2e"/>
       <use x="95.41015625" xlink:href="#DejaVuSans-30"/>
      </g>
     </g>
    </g>
    <g id="ytick_4">
     <g id="line2d_62">
      <path clip-path="url(#p66bbb1c567)" d="
M102.521 119.447
L413.64 119.447" style="fill:none;stroke:#000000;stroke-dasharray:1.000000,3.000000;stroke-dashoffset:0.0;stroke-width:0.5;"/>
     </g>
     <g id="line2d_63">
      <g>
       <use style="stroke:#000000;stroke-width:0.5;" x="102.52125" xlink:href="#m728421d6d4" y="119.44715625"/>
      </g>
     </g>
     <g id="line2d_64">
      <g>
       <use style="stroke:#000000;stroke-width:0.5;" x="413.64" xlink:href="#mcb0005524f" y="119.44715625"/>
      </g>
     </g>
     <g id="text_10">
      <!-- 0.2 -->
      <g transform="translate(74.30953125 124.13809375)scale(0.17 -0.17)">
       <use xlink:href="#DejaVuSans-30"/>
       <use x="63.623046875" xlink:href="#DejaVuSans-2e"/>
       <use x="95.41015625" xlink:href="#DejaVuSans-32"/>
      </g>
     </g>
    </g>
    <g id="ytick_5">
     <g id="line2d_65">
      <path clip-path="url(#p66bbb1c567)" d="
M102.521 52.0557
L413.64 52.0557" style="fill:none;stroke:#000000;stroke-dasharray:1.000000,3.000000;stroke-dashoffset:0.0;stroke-width:0.5;"/>
     </g>
     <g id="line2d_66">
      <g>
       <use style="stroke:#000000;stroke-width:0.5;" x="102.52125" xlink:href="#m728421d6d4" y="52.05571875"/>
      </g>
     </g>
     <g id="line2d_67">
      <g>
       <use style="stroke:#000000;stroke-width:0.5;" x="413.64" xlink:href="#mcb0005524f" y="52.05571875"/>
      </g>
     </g>
     <g id="text_11">
      <!-- 0.4 -->
      <g transform="translate(73.56046875 56.74665625)scale(0.17 -0.17)">
       <use xlink:href="#DejaVuSans-30"/>
       <use x="63.623046875" xlink:href="#DejaVuSans-2e"/>
       <use x="95.41015625" xlink:href="#DejaVuSans-34"/>
      </g>
     </g>
    </g>
    <g id="ytick_6">
     <g id="line2d_68">
      <defs>
       <path d="
M0 0
L2 0" id="mf0c55a9a47" style="stroke:#000000;stroke-width:0.5;"/>
      </defs>
      <g>
       <use style="stroke:#000000;stroke-width:0.5;" x="102.52125" xlink:href="#mf0c55a9a47" y="338.469328125"/>
      </g>
     </g>
     <g id="line2d_69">
      <defs>
       <path d="
M0 0
L-2 0" id="ma4f294b3af" style="stroke:#000000;stroke-width:0.5;"/>
      </defs>
      <g>
       <use style="stroke:#000000;stroke-width:0.5;" x="413.64" xlink:href="#ma4f294b3af" y="338.469328125"/>
      </g>
     </g>
    </g>
    <g id="ytick_7">
     <g id="line2d_70">
      <g>
       <use style="stroke:#000000;stroke-width:0.5;" x="102.52125" xlink:href="#mf0c55a9a47" y="304.773609375"/>
      </g>
     </g>
     <g id="line2d_71">
      <g>
       <use style="stroke:#000000;stroke-width:0.5;" x="413.64" xlink:href="#ma4f294b3af" y="304.773609375"/>
      </g>
     </g>
    </g>
    <g id="ytick_8">
     <g id="line2d_72">
      <g>
       <use style="stroke:#000000;stroke-width:0.5;" x="102.52125" xlink:href="#mf0c55a9a47" y="287.92575"/>
      </g>
     </g>
     <g id="line2d_73">
      <g>
       <use style="stroke:#000000;stroke-width:0.5;" x="413.64" xlink:href="#ma4f294b3af" y="287.92575"/>
      </g>
     </g>
    </g>
    <g id="ytick_9">
     <g id="line2d_74">
      <g>
       <use style="stroke:#000000;stroke-width:0.5;" x="102.52125" xlink:href="#mf0c55a9a47" y="271.077890625"/>
      </g>
     </g>
     <g id="line2d_75">
      <g>
       <use style="stroke:#000000;stroke-width:0.5;" x="413.64" xlink:href="#ma4f294b3af" y="271.077890625"/>
      </g>
     </g>
    </g>
    <g id="ytick_10">
     <g id="line2d_76">
      <g>
       <use style="stroke:#000000;stroke-width:0.5;" x="102.52125" xlink:href="#mf0c55a9a47" y="254.23003125"/>
      </g>
     </g>
     <g id="line2d_77">
      <g>
       <use style="stroke:#000000;stroke-width:0.5;" x="413.64" xlink:href="#ma4f294b3af" y="254.23003125"/>
      </g>
     </g>
    </g>
    <g id="ytick_11">
     <g id="line2d_78">
      <g>
       <use style="stroke:#000000;stroke-width:0.5;" x="102.52125" xlink:href="#mf0c55a9a47" y="237.382171875"/>
      </g>
     </g>
     <g id="line2d_79">
      <g>
       <use style="stroke:#000000;stroke-width:0.5;" x="413.64" xlink:href="#ma4f294b3af" y="237.382171875"/>
      </g>
     </g>
    </g>
    <g id="ytick_12">
     <g id="line2d_80">
      <g>
       <use style="stroke:#000000;stroke-width:0.5;" x="102.52125" xlink:href="#mf0c55a9a47" y="220.5343125"/>
      </g>
     </g>
     <g id="line2d_81">
      <g>
       <use style="stroke:#000000;stroke-width:0.5;" x="413.64" xlink:href="#ma4f294b3af" y="220.5343125"/>
      </g>
     </g>
    </g>
    <g id="ytick_13">
     <g id="line2d_82">
      <g>
       <use style="stroke:#000000;stroke-width:0.5;" x="102.52125" xlink:href="#mf0c55a9a47" y="203.686453125"/>
      </g>
     </g>
     <g id="line2d_83">
      <g>
       <use style="stroke:#000000;stroke-width:0.5;" x="413.64" xlink:href="#ma4f294b3af" y="203.686453125"/>
      </g>
     </g>
    </g>
    <g id="ytick_14">
     <g id="line2d_84">
      <g>
       <use style="stroke:#000000;stroke-width:0.5;" x="102.52125" xlink:href="#mf0c55a9a47" y="186.83859375"/>
      </g>
     </g>
     <g id="line2d_85">
      <g>
       <use style="stroke:#000000;stroke-width:0.5;" x="413.64" xlink:href="#ma4f294b3af" y="186.83859375"/>
      </g>
     </g>
    </g>
    <g id="ytick_15">
     <g id="line2d_86">
      <g>
       <use style="stroke:#000000;stroke-width:0.5;" x="102.52125" xlink:href="#mf0c55a9a47" y="169.990734375"/>
      </g>
     </g>
     <g id="line2d_87">
      <g>
       <use style="stroke:#000000;stroke-width:0.5;" x="413.64" xlink:href="#ma4f294b3af" y="169.990734375"/>
      </g>
     </g>
    </g>
    <g id="ytick_16">
     <g id="line2d_88">
      <g>
       <use style="stroke:#000000;stroke-width:0.5;" x="102.52125" xlink:href="#mf0c55a9a47" y="153.142875"/>
      </g>
     </g>
     <g id="line2d_89">
      <g>
       <use style="stroke:#000000;stroke-width:0.5;" x="413.64" xlink:href="#ma4f294b3af" y="153.142875"/>
      </g>
     </g>
    </g>
    <g id="ytick_17">
     <g id="line2d_90">
      <g>
       <use style="stroke:#000000;stroke-width:0.5;" x="102.52125" xlink:href="#mf0c55a9a47" y="136.295015625"/>
      </g>
     </g>
     <g id="line2d_91">
      <g>
       <use style="stroke:#000000;stroke-width:0.5;" x="413.64" xlink:href="#ma4f294b3af" y="136.295015625"/>
      </g>
     </g>
    </g>
    <g id="ytick_18">
     <g id="line2d_92">
      <g>
       <use style="stroke:#000000;stroke-width:0.5;" x="102.52125" xlink:href="#mf0c55a9a47" y="119.44715625"/>
      </g>
     </g>
     <g id="line2d_93">
      <g>
       <use style="stroke:#000000;stroke-width:0.5;" x="413.64" xlink:href="#ma4f294b3af" y="119.44715625"/>
      </g>
     </g>
    </g>
    <g id="ytick_19">
     <g id="line2d_94">
      <g>
       <use style="stroke:#000000;stroke-width:0.5;" x="102.52125" xlink:href="#mf0c55a9a47" y="102.599296875"/>
      </g>
     </g>
     <g id="line2d_95">
      <g>
       <use style="stroke:#000000;stroke-width:0.5;" x="413.64" xlink:href="#ma4f294b3af" y="102.599296875"/>
      </g>
     </g>
    </g>
    <g id="ytick_20">
     <g id="line2d_96">
      <g>
       <use style="stroke:#000000;stroke-width:0.5;" x="102.52125" xlink:href="#mf0c55a9a47" y="85.7514375"/>
      </g>
     </g>
     <g id="line2d_97">
      <g>
       <use style="stroke:#000000;stroke-width:0.5;" x="413.64" xlink:href="#ma4f294b3af" y="85.7514375"/>
      </g>
     </g>
    </g>
    <g id="ytick_21">
     <g id="line2d_98">
      <g>
       <use style="stroke:#000000;stroke-width:0.5;" x="102.52125" xlink:href="#mf0c55a9a47" y="68.903578125"/>
      </g>
     </g>
     <g id="line2d_99">
      <g>
       <use style="stroke:#000000;stroke-width:0.5;" x="413.64" xlink:href="#ma4f294b3af" y="68.903578125"/>
      </g>
     </g>
    </g>
    <g id="ytick_22">
     <g id="line2d_100">
      <g>
       <use style="stroke:#000000;stroke-width:0.5;" x="102.52125" xlink:href="#mf0c55a9a47" y="52.05571875"/>
      </g>
     </g>
     <g id="line2d_101">
      <g>
       <use style="stroke:#000000;stroke-width:0.5;" x="413.64" xlink:href="#ma4f294b3af" y="52.05571875"/>
      </g>
     </g>
    </g>
    <g id="ytick_23">
     <g id="line2d_102">
      <g>
       <use style="stroke:#000000;stroke-width:0.5;" x="102.52125" xlink:href="#mf0c55a9a47" y="35.207859375"/>
      </g>
     </g>
     <g id="line2d_103">
      <g>
       <use style="stroke:#000000;stroke-width:0.5;" x="413.64" xlink:href="#ma4f294b3af" y="35.207859375"/>
      </g>
     </g>
    </g>
    <g id="text_12">
     <!-- $\mathcal{C}_{S}^{\prime}$ -->
     <defs>
      <path d="
M3.51562 5.42188
Q2.875 5.60938 2.875 6.39062
L15.0938 51.8125
Q15.6719 53.6562 17.0781 54.7812
Q18.5 55.9062 20.3125 55.9062
Q22.6562 55.9062 24.4375 54.3594
Q26.2188 52.8281 26.2188 50.4844
Q26.2188 49.4688 25.6875 48.1875
L7.625 4.98438
Q7.28125 4.29688 6.6875 4.29688
Q6.15625 4.29688 5 4.78125
Q3.85938 5.28125 3.51562 5.42188" id="Cmsy10-30"/>
     </defs>
     <g transform="translate(46.595 201.23859375)rotate(-90.0)scale(0.3 -0.3)">
      <use transform="translate(0.0 0.859375)" xlink:href="#Cmsy10-43"/>
      <use transform="translate(52.587890625 45.865625)scale(0.7)" xlink:href="#Cmsy10-30"/>
      <use transform="translate(52.587890625 -24.65)scale(0.7)" xlink:href="#Cmmi10-53"/>
     </g>
    </g>
   </g>
   <g id="patch_3">
    <path d="
M102.521 18.36
L413.64 18.36" style="fill:none;stroke:#000000;"/>
   </g>
   <g id="patch_4">
    <path d="
M413.64 355.317
L413.64 18.36" style="fill:none;stroke:#000000;"/>
   </g>
   <g id="patch_5">
    <path d="
M102.521 355.317
L413.64 355.317" style="fill:none;stroke:#000000;"/>
   </g>
   <g id="patch_6">
    <path d="
M102.521 355.317
L102.521 18.36" style="fill:none;stroke:#000000;"/>
   </g>
  </g>
 </g>
 <defs>
  <clipPath id="p66bbb1c567">
   <rect height="336.9571875" width="311.11875" x="102.52125" y="18.36"/>
  </clipPath>
 </defs>
</svg>
