<?xml version="1.0" encoding="utf-8" standalone="no"?>
<!DOCTYPE svg PUBLIC "-//W3C//DTD SVG 1.1//EN"
  "http://www.w3.org/Graphics/SVG/1.1/DTD/svg11.dtd">
<!-- Created with matplotlib (http://matplotlib.org/) -->
<svg height="432pt" version="1.1" viewBox="0 0 432 432" width="432pt" xmlns="http://www.w3.org/2000/svg" xmlns:xlink="http://www.w3.org/1999/xlink">
 <defs>
  <style type="text/css">
*{stroke-linecap:butt;stroke-linejoin:round;}
  </style>
 </defs>
 <g id="figure_1">
  <g id="patch_1">
   <path d="
M0 432
L432 432
L432 0
L0 0
z
" style="fill:#ffffff;"/>
  </g>
  <g id="axes_1">
   <g id="patch_2">
    <path d="
M66.7125 381.779
L419.04 381.779
L419.04 12.96
L66.7125 12.96
z
" style="fill:#ffffff;"/>
   </g>
   <g id="PathCollection_1">
    <defs>
     <path d="
M66.7125 -50.2211
L72.6842 -50.2211
L78.6558 -50.2211
L84.6275 -50.2211
L90.5991 -50.2211
L96.5708 -50.2211
L102.542 -50.2211
L108.514 -50.2211
L114.486 -50.2211
L120.457 -50.2211
L126.429 -50.2211
L132.401 -50.2211
L138.372 -50.2211
L144.344 -50.2211
L150.316 -50.2211
L156.287 -50.2211
L162.259 -50.2211
L168.231 -50.2211
L174.202 -50.2211
L180.174 -50.2211
L186.146 -50.2211
L192.117 -50.2211
L198.089 -50.2211
L204.061 -50.2211
L210.032 -50.2211
L216.004 -50.2211
L221.975 -50.2211
L227.947 -50.2211
L233.919 -50.2211
L239.89 -50.2211
L245.862 -50.2211
L251.834 -50.2211
L257.805 -50.2211
L263.777 -50.2211
L269.749 -50.2211
L275.72 -50.2211
L281.692 -50.2211
L287.664 -50.2211
L293.635 -50.2211
L299.607 -50.2211
L305.579 -50.2211
L311.55 -50.2211
L317.522 -50.2211
L323.494 -50.2211
L329.465 -50.2211
L335.437 -50.2211
L341.409 -50.2211
L347.38 -50.2211
L353.352 -50.2211
L359.323 -50.2211
L365.295 -50.2211
L371.267 -50.2211
L377.238 -50.2211
L383.21 -50.2211
L389.182 -50.2211
L395.153 -50.2211
L401.125 -50.2211
L407.097 -50.2211
L413.068 -50.2211
L419.04 -50.2211
L419.04 -56.4723
L419.04 -62.7235
L419.04 -68.9746
L419.04 -75.2258
L419.04 -81.477
L419.04 -87.7281
L419.04 -93.9793
L419.04 -100.23
L419.04 -106.482
L419.04 -112.733
L419.04 -118.984
L419.04 -125.235
L419.04 -131.486
L419.04 -137.737
L419.04 -143.989
L419.04 -150.24
L419.04 -156.491
L419.04 -162.742
L419.04 -168.993
L419.04 -175.244
L419.04 -181.496
L419.04 -187.747
L419.04 -193.998
L419.04 -200.249
L419.04 -206.5
L419.04 -212.751
L419.04 -219.003
L419.04 -225.254
L419.04 -231.505
L419.04 -237.756
L419.04 -244.007
L419.04 -250.258
L419.04 -256.51
L419.04 -262.761
L419.04 -269.012
L419.04 -275.263
L419.04 -281.514
L419.04 -287.765
L419.04 -294.017
L419.04 -300.268
L419.04 -306.519
L419.04 -312.77
L419.04 -319.021
L419.04 -325.272
L419.04 -331.524
L419.04 -337.775
L419.04 -344.026
L419.04 -350.277
L419.04 -356.528
L419.04 -362.779
L419.04 -369.031
L419.04 -375.282
L419.04 -381.533
L419.04 -387.784
L419.04 -394.035
L419.04 -400.286
L419.04 -406.538
L419.04 -412.789
L419.04 -419.04
L413.068 -419.04
L407.097 -419.04
L401.125 -419.04
L395.153 -419.04
L389.182 -419.04
L383.21 -419.04
L377.238 -419.04
L371.267 -419.04
L365.295 -419.04
L359.323 -419.04
L353.352 -419.04
L347.38 -419.04
L341.409 -419.04
L335.437 -419.04
L329.465 -419.04
L323.494 -419.04
L317.522 -419.04
L311.55 -419.04
L305.579 -419.04
L299.607 -419.04
L293.635 -419.04
L287.664 -419.04
L281.692 -419.04
L275.72 -419.04
L269.749 -419.04
L263.777 -419.04
L257.805 -419.04
L251.834 -419.04
L245.862 -419.04
L239.89 -419.04
L233.919 -419.04
L227.947 -419.04
L221.975 -419.04
L216.004 -419.04
L210.032 -419.04
L204.061 -419.04
L198.089 -419.04
L192.117 -419.04
L186.146 -419.04
L180.174 -419.04
L174.202 -419.04
L168.231 -419.04
L162.259 -419.04
L156.287 -419.04
L150.316 -419.04
L144.344 -419.04
L138.372 -419.04
L132.401 -419.04
L126.429 -419.04
L120.457 -419.04
L114.486 -419.04
L108.514 -419.04
L102.542 -419.04
L96.5708 -419.04
L90.5991 -419.04
L84.6275 -419.04
L78.6558 -419.04
L72.6842 -419.04
L66.7125 -419.04
L66.7125 -412.789
L66.7125 -406.538
L66.7125 -400.286
L66.7125 -394.035
L66.7125 -387.784
L66.7125 -381.533
L66.7125 -375.282
L66.7125 -369.031
L66.7125 -362.779
L66.7125 -356.528
L66.7125 -350.277
L66.7125 -344.026
L66.7125 -337.775
L66.7125 -331.524
L66.7125 -325.272
L66.7125 -319.021
L66.7125 -312.77
L66.7125 -306.519
L66.7125 -300.268
L66.7125 -294.017
L66.7125 -287.765
L66.7125 -281.514
L66.7125 -275.263
L66.7125 -269.012
L66.7125 -262.761
L66.7125 -256.51
L66.7125 -250.258
L66.7125 -244.007
L66.7125 -237.756
L66.7125 -231.505
L66.7125 -225.254
L66.7125 -219.003
L66.7125 -212.751
L66.7125 -206.5
L66.7125 -200.249
L66.7125 -193.998
L66.7125 -187.747
L66.7125 -181.496
L66.7125 -175.244
L66.7125 -168.993
L66.7125 -162.742
L66.7125 -156.491
L66.7125 -150.24
L66.7125 -143.989
L66.7125 -137.737
L66.7125 -131.486
L66.7125 -125.235
L66.7125 -118.984
L66.7125 -112.733
L66.7125 -106.482
L66.7125 -100.23
L66.7125 -93.9793
L66.7125 -87.7281
L66.7125 -81.477
L66.7125 -75.2258
L66.7125 -68.9746
L66.7125 -62.7235
L66.7125 -56.4723
L66.7125 -50.2211
M84.6275 -107.525
L80.8584 -112.733
L84.6275 -117.05
L88.8854 -112.733
L84.6275 -107.525
M120.457 -68.577
L120.083 -68.9746
L120.457 -69.4829
L120.823 -68.9746
L120.457 -68.577
M120.457 -118.274
L119.585 -118.984
L120.457 -122.024
L121.187 -118.984
L120.457 -118.274
M126.429 -103.222
L124.863 -106.482
L125.275 -112.733
L126.429 -114.025
L132.35 -112.733
L132.401 -112.664
L138.372 -108.796
L141.873 -106.482
L138.372 -103.961
L132.401 -105.772
L126.429 -103.222
M138.372 -79.2285
L136.026 -81.477
L136.486 -87.7281
L133.995 -93.9793
L138.372 -99.2022
L144.344 -98.3309
L145.343 -100.23
L145.497 -106.482
L144.344 -108.638
L141.713 -112.733
L139.132 -118.984
L138.372 -120.311
L132.401 -125.004
L131.999 -125.235
L126.429 -126.826
L124.017 -131.486
L120.457 -134.032
L119.423 -131.486
L114.486 -125.932
L108.514 -127.097
L102.542 -127.268
L97.9454 -131.486
L99.6946 -137.737
L102.542 -140.874
L106.553 -143.989
L108.514 -146.445
L110.412 -150.24
L114.486 -155.576
L115.398 -156.491
L117.429 -162.742
L120.457 -165.877
L123.065 -168.993
L126.429 -172.546
L130.59 -175.244
L132.401 -177.272
L134.799 -181.496
L138.372 -185.367
L141.073 -187.747
L144.344 -191.977
L146.792 -193.998
L150.316 -197.235
L153.341 -200.249
L156.287 -203.529
L158.165 -206.5
L162.259 -209.987
L164.648 -212.751
L168.231 -217.19
L169.762 -219.003
L174.202 -223.26
L175.525 -225.254
L180.174 -230.129
L182.521 -231.505
L186.146 -235.738
L187.669 -237.756
L192.117 -243.064
L192.859 -244.007
L198.089 -248.7
L199.612 -250.258
L204.061 -254.735
L205.998 -256.51
L210.032 -260.941
L212.292 -262.761
L216.004 -266.616
L217.617 -269.012
L221.975 -273.455
L224.055 -275.263
L227.947 -279.396
L229.768 -281.514
L233.919 -285.833
L236.722 -287.765
L239.89 -291.309
L241.198 -294.017
L245.862 -298.656
L247.882 -300.268
L251.834 -305.313
L253.781 -306.519
L257.805 -310.012
L260.052 -312.77
L263.777 -316.248
L267.669 -319.021
L269.749 -321.022
L274.038 -325.272
L275.72 -327.251
L278.877 -331.524
L281.692 -334.328
L287.318 -337.775
L287.664 -338.108
L292.308 -344.026
L293.635 -345.54
L299.607 -349.283
L301.439 -350.277
L305.579 -354.054
L307.735 -356.528
L311.55 -360.687
L315.299 -362.779
L317.522 -364.89
L320.629 -369.031
L323.494 -372.291
L329.465 -373.718
L331.484 -375.282
L335.437 -377.67
L338.726 -375.282
L335.437 -370.973
L334.078 -369.031
L335.335 -362.779
L335.437 -362.548
L341.021 -356.528
L338.995 -350.277
L339.694 -344.026
L337.346 -337.775
L335.437 -334.816
L329.465 -332.427
L329.127 -331.524
L329.465 -330.911
L335.437 -330.231
L339.418 -325.272
L341.409 -324.004
L345.326 -325.272
L347.38 -327.782
L353.214 -331.524
L353.352 -331.582
L353.494 -331.524
L356.8 -325.272
L359.323 -323.994
L360.387 -325.272
L360.69 -331.524
L365.295 -336.763
L367.371 -337.775
L371.267 -339.277
L375.568 -337.775
L371.267 -335.463
L368.987 -331.524
L371.267 -326.919
L377.238 -325.857
L378.291 -325.272
L377.238 -324.643
L371.267 -321.67
L370.243 -319.021
L371.267 -317.006
L372.679 -312.77
L371.267 -311.383
L365.295 -310.127
L361.492 -306.519
L359.323 -300.297
L359.317 -300.268
L353.352 -295.251
L352.289 -294.017
L347.38 -288.083
L347.152 -287.765
L342.82 -281.514
L341.409 -279.721
L337.223 -275.263
L335.437 -273.317
L332.113 -269.012
L329.465 -266.559
L326.132 -262.761
L323.494 -259.871
L321.726 -256.51
L317.522 -252.177
L315.019 -250.258
L311.55 -245.868
L308.971 -244.007
L305.579 -240.933
L302.353 -237.756
L299.607 -234.932
L297.679 -231.505
L293.635 -226.947
L291.429 -225.254
L287.664 -220.977
L286.604 -219.003
L281.692 -214.343
L280.238 -212.751
L275.72 -207.807
L273.841 -206.5
L269.749 -202.053
L268.235 -200.249
L263.777 -195.847
L261.965 -193.998
L257.805 -189.941
L255.991 -187.747
L251.834 -183.028
L249.712 -181.496
L245.862 -177.055
L244.609 -175.244
L239.89 -170.939
L237.568 -168.993
L233.919 -165.171
L232.196 -162.742
L227.947 -158.325
L225.657 -156.491
L221.975 -152.098
L220.198 -150.24
L216.004 -145.955
L213.903 -143.989
L210.032 -140.116
L207.088 -137.737
L204.061 -134.109
L202.209 -131.486
L198.089 -127.767
L194.482 -125.235
L192.117 -123.091
L188.756 -118.984
L186.146 -116.428
L180.174 -112.807
L180.121 -112.733
L174.202 -107.114
L171.912 -106.482
L168.231 -100.671
L167.792 -100.23
L162.259 -96.8906
L160.285 -93.9793
L156.563 -87.7281
L156.287 -87.426
L150.316 -87.5577
L150.078 -87.7281
L144.344 -92.2525
L140.221 -87.7281
L140.251 -81.477
L138.372 -79.2285
M341.409 -377.654
L338.71 -381.533
L341.409 -384.785
L345.327 -381.533
L341.409 -377.654
M353.352 -378.527
L351.817 -381.533
L353.352 -382.15
L353.948 -381.533
L353.352 -378.527
M377.238 -356.513
L377.222 -356.528
L371.267 -358.608
L367.352 -362.779
L371.267 -366.884
L376.302 -362.779
L377.238 -356.574
L377.255 -356.528
L377.238 -356.513
M371.267 -373.829
L370.047 -375.282
L371.267 -376.746
L372.497 -375.282
L371.267 -373.829
M377.238 -395.886
L373.054 -400.286
L377.238 -404.624
L381.383 -400.286
L377.238 -395.886
M383.21 -333.348
L377.98 -337.775
L383.21 -341.269
L387.416 -337.775
L383.21 -333.348" id="C0_0_1aa21e8986"/>
     <path d="
M150.316 -110.727
L152.063 -112.733
L150.316 -113.867
L147.272 -112.733
L150.316 -110.727" id="C0_1_297cacefd8"/>
     <path d="
M132.401 -125.869
L134.116 -131.486
L132.401 -132.082
L131.332 -131.486
L132.401 -125.869" id="C0_2_c005af71be"/>
     <path d="
M126.429 -135.962
L127.39 -137.737
L126.429 -138.5
L125.498 -137.737
L126.429 -135.962" id="C0_3_a335cb2848"/>
     <path d="
M335.437 -319.021
L335.437 -319.021
L335.437 -319.021
L335.437 -319.021
L335.437 -319.021" id="C0_4_937d3f1f3d"/>
     <path d="
M323.494 -337.252
L324.714 -337.775
L323.494 -341.738
L322.723 -337.775
L323.494 -337.252" id="C0_5_c345adb061"/>
    </defs>
    <g clip-path="url(#p0d6c432f1e)">
     <use style="fill:#ffffff;" x="0.0" xlink:href="#C0_0_1aa21e8986" y="432.0"/>
    </g>
    <g clip-path="url(#p0d6c432f1e)">
     <use style="fill:#ffffff;" x="0.0" xlink:href="#C0_1_297cacefd8" y="432.0"/>
    </g>
    <g clip-path="url(#p0d6c432f1e)">
     <use style="fill:#ffffff;" x="0.0" xlink:href="#C0_2_c005af71be" y="432.0"/>
    </g>
    <g clip-path="url(#p0d6c432f1e)">
     <use style="fill:#ffffff;" x="0.0" xlink:href="#C0_3_a335cb2848" y="432.0"/>
    </g>
    <g clip-path="url(#p0d6c432f1e)">
     <use style="fill:#ffffff;" x="0.0" xlink:href="#C0_4_937d3f1f3d" y="432.0"/>
    </g>
    <g clip-path="url(#p0d6c432f1e)">
     <use style="fill:#ffffff;" x="0.0" xlink:href="#C0_5_c345adb061" y="432.0"/>
    </g>
   </g>
   <g id="PathCollection_2">
    <defs>
     <path d="
M120.457 -68.577
L120.823 -68.9746
L120.457 -69.4829
L120.083 -68.9746
L120.457 -68.577" id="C1_0_b33090bca0"/>
     <path d="
M138.372 -79.2285
L140.251 -81.477
L140.221 -87.7281
L144.344 -92.2525
L150.078 -87.7281
L150.316 -87.5577
L156.287 -87.426
L156.563 -87.7281
L160.285 -93.9793
L162.259 -96.8906
L167.792 -100.23
L168.231 -100.671
L171.912 -106.482
L174.202 -107.114
L180.121 -112.733
L180.174 -112.807
L186.146 -116.428
L188.756 -118.984
L192.117 -123.091
L194.482 -125.235
L198.089 -127.767
L202.209 -131.486
L204.061 -134.109
L207.088 -137.737
L210.032 -140.116
L213.903 -143.989
L216.004 -145.955
L220.198 -150.24
L221.975 -152.098
L225.657 -156.491
L227.947 -158.325
L232.196 -162.742
L233.919 -165.171
L237.568 -168.993
L239.89 -170.939
L244.609 -175.244
L245.862 -177.055
L249.712 -181.496
L251.834 -183.028
L255.991 -187.747
L257.805 -189.941
L261.965 -193.998
L263.777 -195.847
L268.235 -200.249
L269.749 -202.053
L273.841 -206.5
L275.72 -207.807
L280.238 -212.751
L281.692 -214.343
L286.604 -219.003
L287.664 -220.977
L291.429 -225.254
L293.635 -226.947
L297.679 -231.505
L299.607 -234.932
L302.353 -237.756
L305.579 -240.933
L308.971 -244.007
L311.55 -245.868
L315.019 -250.258
L317.522 -252.177
L321.726 -256.51
L323.494 -259.871
L326.132 -262.761
L329.465 -266.559
L332.113 -269.012
L335.437 -273.317
L337.223 -275.263
L341.409 -279.721
L342.82 -281.514
L347.152 -287.765
L347.38 -288.083
L352.289 -294.017
L353.352 -295.251
L359.317 -300.268
L359.323 -300.297
L361.492 -306.519
L365.295 -310.127
L371.267 -311.383
L372.679 -312.77
L371.267 -317.006
L370.243 -319.021
L371.267 -321.67
L377.238 -324.643
L378.291 -325.272
L377.238 -325.857
L371.267 -326.919
L368.987 -331.524
L371.267 -335.463
L375.568 -337.775
L371.267 -339.277
L367.371 -337.775
L365.295 -336.763
L360.69 -331.524
L360.387 -325.272
L359.323 -323.994
L356.8 -325.272
L353.494 -331.524
L353.352 -331.582
L353.214 -331.524
L347.38 -327.782
L345.326 -325.272
L341.409 -324.004
L339.418 -325.272
L335.437 -330.231
L329.465 -330.911
L329.127 -331.524
L329.465 -332.427
L335.437 -334.816
L337.346 -337.775
L339.694 -344.026
L338.995 -350.277
L341.021 -356.528
L335.437 -362.548
L335.335 -362.779
L334.078 -369.031
L335.437 -370.973
L338.726 -375.282
L335.437 -377.67
L331.484 -375.282
L329.465 -373.718
L323.494 -372.291
L320.629 -369.031
L317.522 -364.89
L315.299 -362.779
L311.55 -360.687
L307.735 -356.528
L305.579 -354.054
L301.439 -350.277
L299.607 -349.283
L293.635 -345.54
L292.308 -344.026
L287.664 -338.108
L287.318 -337.775
L281.692 -334.328
L278.877 -331.524
L275.72 -327.251
L274.038 -325.272
L269.749 -321.022
L267.669 -319.021
L263.777 -316.248
L260.052 -312.77
L257.805 -310.012
L253.781 -306.519
L251.834 -305.313
L247.882 -300.268
L245.862 -298.656
L241.198 -294.017
L239.89 -291.309
L236.722 -287.765
L233.919 -285.833
L229.768 -281.514
L227.947 -279.396
L224.055 -275.263
L221.975 -273.455
L217.617 -269.012
L216.004 -266.616
L212.292 -262.761
L210.032 -260.941
L205.998 -256.51
L204.061 -254.735
L199.612 -250.258
L198.089 -248.7
L192.859 -244.007
L192.117 -243.064
L187.669 -237.756
L186.146 -235.738
L182.521 -231.505
L180.174 -230.129
L175.525 -225.254
L174.202 -223.26
L169.762 -219.003
L168.231 -217.19
L164.648 -212.751
L162.259 -209.987
L158.165 -206.5
L156.287 -203.529
L153.341 -200.249
L150.316 -197.235
L146.792 -193.998
L144.344 -191.977
L141.073 -187.747
L138.372 -185.367
L134.799 -181.496
L132.401 -177.272
L130.59 -175.244
L126.429 -172.546
L123.065 -168.993
L120.457 -165.877
L117.429 -162.742
L115.398 -156.491
L114.486 -155.576
L110.412 -150.24
L108.514 -146.445
L106.553 -143.989
L102.542 -140.874
L99.6946 -137.737
L97.9454 -131.486
L102.542 -127.268
L108.514 -127.097
L114.486 -125.932
L119.423 -131.486
L120.457 -134.032
L124.017 -131.486
L126.429 -126.826
L131.999 -125.235
L132.401 -125.004
L138.372 -120.311
L139.132 -118.984
L141.713 -112.733
L144.344 -108.638
L145.497 -106.482
L145.343 -100.23
L144.344 -98.3309
L138.372 -99.2022
L133.995 -93.9793
L136.486 -87.7281
L136.026 -81.477
L138.372 -79.2285
M150.316 -110.727
L147.272 -112.733
L150.316 -113.867
L152.063 -112.733
L150.316 -110.727
M156.287 -141.653
L154.688 -143.989
L156.287 -146.157
L158.026 -143.989
L156.287 -141.653
M162.259 -104.623
L159.828 -106.482
L162.259 -109.564
L164.054 -106.482
L162.259 -104.623
M162.259 -148.899
L160.701 -150.24
L162.259 -153.495
L164.25 -150.24
L162.259 -148.899
M168.231 -110.455
L164.858 -112.733
L168.231 -115.607
L172.186 -118.984
L174.202 -121.501
L180.174 -121.313
L180.603 -125.235
L180.174 -126.891
L175.884 -131.486
L180.174 -134.676
L183.635 -137.737
L186.146 -143.1
L188.909 -143.989
L189.161 -150.24
L192.117 -153.986
L194.242 -156.491
L195.217 -162.742
L192.117 -165.137
L186.146 -167.358
L184.707 -168.993
L182.195 -175.244
L186.146 -175.687
L186.335 -175.244
L192.117 -171.287
L197.131 -168.993
L198.089 -167.435
L198.488 -168.993
L198.089 -171.542
L197.262 -175.244
L193.841 -181.496
L198.089 -187.458
L198.79 -187.747
L198.089 -188.423
L192.117 -189.061
L186.146 -188.79
L181.043 -193.998
L180.174 -194.643
L179.732 -193.998
L174.493 -187.747
L174.202 -187.139
L168.231 -181.639
L167.133 -181.496
L162.259 -179.637
L156.287 -177.012
L153.644 -175.244
L151.666 -168.993
L150.316 -168.242
L148.251 -162.742
L144.344 -159.228
L139.254 -162.742
L138.372 -163.381
L134.847 -162.742
L132.401 -161.816
L131.628 -162.742
L131.64 -168.993
L132.401 -169.56
L138.372 -174.626
L139.269 -175.244
L142.486 -181.496
L144.344 -183.22
L147.084 -187.747
L150.316 -190.922
L153.259 -193.998
L156.287 -197.129
L159.839 -200.249
L162.259 -203.198
L164.583 -206.5
L168.231 -210.504
L170.721 -212.751
L174.202 -216.649
L177.178 -219.003
L180.174 -224.088
L180.591 -225.254
L186.146 -229.611
L188.443 -231.505
L192.117 -235.763
L193.758 -237.756
L198.089 -242.699
L199.269 -244.007
L204.061 -248.96
L206.079 -250.258
L210.032 -253.971
L212.168 -256.51
L216.004 -260.034
L217.306 -262.761
L221.975 -268.11
L223.331 -269.012
L227.947 -273.456
L231.03 -275.263
L233.919 -278.54
L236.249 -281.514
L239.89 -284.601
L243.196 -287.765
L245.862 -292.18
L251.834 -293.351
L252.139 -294.017
L254.492 -300.268
L257.805 -303.067
L262.126 -306.519
L263.777 -308.39
L269.203 -312.77
L269.749 -313.224
L274.593 -319.021
L275.72 -320.175
L281.692 -322.561
L284.768 -325.272
L287.664 -328.662
L290.202 -331.524
L292.205 -337.775
L293.635 -339.359
L296.584 -337.775
L299.607 -332.086
L300.458 -331.524
L300.292 -325.272
L299.607 -324.477
L293.635 -321.207
L291.318 -319.021
L287.664 -314.685
L286.169 -312.77
L283.023 -306.519
L281.692 -305.394
L275.72 -302.416
L273.515 -300.268
L275.72 -294.567
L281.692 -297.177
L285.405 -294.017
L281.692 -288.847
L275.72 -292.981
L274.226 -287.765
L275.72 -286.795
L281.692 -282.831
L282.411 -281.514
L281.692 -280.555
L278.493 -275.263
L275.72 -272.41
L273.621 -275.263
L269.929 -281.514
L269.749 -281.849
L269.041 -281.514
L265.086 -275.263
L267.108 -269.012
L269.749 -263.02
L275.414 -262.761
L275.72 -262.741
L281.692 -260.102
L287.433 -262.761
L281.692 -265.964
L278.701 -269.012
L281.692 -272.193
L284.875 -275.263
L287.664 -277.753
L289.209 -275.263
L293.635 -270.566
L299.607 -274.376
L303.965 -275.263
L305.579 -276.357
L306.822 -275.263
L311.55 -274.098
L317.492 -275.263
L317.522 -275.293
L320.731 -281.514
L323.494 -284.056
L329.465 -286.734
L330.582 -287.765
L331.941 -294.017
L335.437 -295.615
L338.07 -294.017
L339.765 -287.765
L336.913 -281.514
L335.437 -279.961
L330.98 -275.263
L329.465 -273.556
L323.91 -269.012
L323.494 -268.553
L321.083 -262.761
L317.522 -257.951
L315.075 -256.51
L311.55 -253.697
L309.043 -250.258
L305.579 -247.042
L302.772 -244.007
L299.607 -240.748
L297.788 -237.756
L293.635 -232.83
L291.938 -231.505
L287.664 -227.465
L285.487 -225.254
L281.692 -220.302
L280.139 -219.003
L275.72 -214.207
L274.959 -212.751
L269.749 -208.001
L267.895 -206.5
L263.777 -201.991
L262.666 -200.249
L257.805 -195.195
L256.256 -193.998
L251.834 -189.082
L250.624 -187.747
L245.862 -183.317
L244.027 -181.496
L239.89 -176.736
L238.399 -175.244
L233.919 -170.927
L232.083 -168.993
L227.947 -164.131
L225.895 -162.742
L221.975 -159.25
L219.326 -156.491
L216.004 -153.016
L213.692 -150.24
L210.032 -146.557
L207.402 -143.989
L204.061 -140.761
L199.912 -137.737
L198.089 -135.578
L192.586 -131.486
L192.117 -131.1
L190.055 -125.235
L186.146 -121.013
L180.695 -118.984
L180.174 -118.56
L176.016 -112.733
L174.202 -111.011
L168.231 -110.455
M180.174 -149.86
L179.194 -150.24
L180.174 -152.344
L180.597 -150.24
L180.174 -149.86
M180.174 -157.715
L174.377 -162.742
L180.174 -164.174
L181.661 -162.742
L180.174 -157.715
M305.579 -298.295
L304.04 -300.268
L305.579 -302.554
L307.331 -300.268
L305.579 -298.295
M305.579 -337.367
L305.34 -337.775
L305.579 -338.562
L305.837 -337.775
L305.579 -337.367
M317.522 -287.586
L317.376 -287.765
L317.522 -287.929
L317.659 -287.765
L317.522 -287.586
M317.522 -353.924
L315.514 -356.528
L317.522 -358.194
L319.139 -356.528
L317.522 -353.924
M323.494 -337.252
L322.723 -337.775
L323.494 -341.738
L324.714 -337.775
L323.494 -337.252
M335.437 -319.021
L335.437 -319.021
L335.437 -319.021
L335.437 -319.021
L335.437 -319.021
M335.437 -352.608
L331.689 -356.528
L329.465 -357.562
L324.397 -362.779
L329.465 -368.142
L334.285 -362.779
L335.437 -360.171
L338.816 -356.528
L335.437 -352.608
M108.514 -134.234
L105.892 -137.737
L108.514 -140.259
L110.897 -137.737
L108.514 -134.234
M126.429 -135.962
L125.498 -137.737
L126.429 -138.5
L127.39 -137.737
L126.429 -135.962
M132.401 -125.869
L131.332 -131.486
L132.401 -132.082
L134.116 -131.486
L132.401 -125.869
M132.401 -141.624
L129.912 -143.989
L132.401 -147.14
L134.534 -143.989
L132.401 -141.624" id="C1_1_9f7839ca28"/>
     <path d="
M126.429 -103.222
L132.401 -105.772
L138.372 -103.961
L141.873 -106.482
L138.372 -108.796
L132.401 -112.664
L132.35 -112.733
L126.429 -114.025
L125.275 -112.733
L124.863 -106.482
L126.429 -103.222" id="C1_2_6e467106e0"/>
     <path d="
M84.6275 -107.525
L88.8854 -112.733
L84.6275 -117.05
L80.8584 -112.733
L84.6275 -107.525" id="C1_3_956f9ef130"/>
     <path d="
M120.457 -118.274
L121.187 -118.984
L120.457 -122.024
L119.585 -118.984
L120.457 -118.274" id="C1_4_2a3d6c1db2"/>
     <path d="
M198.089 -197.001
L200.69 -200.249
L198.089 -203.478
L196.953 -200.249
L198.089 -197.001" id="C1_5_da22f3a6e1"/>
     <path d="
M221.975 -199.754
L222.236 -200.249
L221.975 -200.587
L221.694 -200.249
L221.975 -199.754" id="C1_6_282c31049b"/>
     <path d="
M210.032 -203.554
L213.71 -206.5
L210.032 -207.521
L208.816 -206.5
L210.032 -203.554" id="C1_7_ac1a86244a"/>
     <path d="
M227.947 -206.134
L228.249 -206.5
L227.947 -206.832
L227.515 -206.5
L227.947 -206.134" id="C1_8_a7292f9ab8"/>
     <path d="
M227.947 -218.22
L229.386 -219.003
L227.947 -220.697
L226.5 -219.003
L227.947 -218.22" id="C1_9_9587329ce5"/>
     <path d="
M257.805 -237.218
L258.461 -237.756
L257.805 -238.183
L257.572 -237.756
L257.805 -237.218" id="C1_a_16f6cd6e73"/>
     <path d="
M275.72 -243.645
L277.018 -244.007
L275.72 -245.523
L274.529 -244.007
L275.72 -243.645" id="C1_b_494279cace"/>
     <path d="
M281.692 -248.586
L282.643 -250.258
L281.692 -251.991
L279.923 -250.258
L281.692 -248.586" id="C1_c_39f5f435b3"/>
     <path d="
M293.635 -256.51
L293.635 -256.51
L293.635 -256.51
L293.635 -256.51
L293.635 -256.51" id="C1_d_f50fa253cd"/>
     <path d="
M299.607 -262.518
L299.891 -262.761
L299.607 -263.026
L298.809 -262.761
L299.607 -262.518" id="C1_e_425c74e7f7"/>
     <path d="
M257.805 -268.615
L257.923 -269.012
L257.805 -269.114
L257.763 -269.012
L257.805 -268.615" id="C1_f_95c9de0dbd"/>
     <path d="
M383.21 -333.348
L387.416 -337.775
L383.21 -341.269
L377.98 -337.775
L383.21 -333.348" id="C1_10_450f8db51b"/>
     <path d="
M377.238 -356.513
L377.255 -356.528
L377.238 -356.574
L376.302 -362.779
L371.267 -366.884
L367.352 -362.779
L371.267 -358.608
L377.222 -356.528
L377.238 -356.513" id="C1_11_0710e8e028"/>
     <path d="
M371.267 -373.829
L372.497 -375.282
L371.267 -376.746
L370.047 -375.282
L371.267 -373.829" id="C1_12_a33247b847"/>
     <path d="
M341.409 -377.654
L345.327 -381.533
L341.409 -384.785
L338.71 -381.533
L341.409 -377.654" id="C1_13_bf4d7c8a53"/>
     <path d="
M353.352 -378.527
L353.948 -381.533
L353.352 -382.15
L351.817 -381.533
L353.352 -378.527" id="C1_14_da18b6516a"/>
     <path d="
M377.238 -395.886
L381.383 -400.286
L377.238 -404.624
L373.054 -400.286
L377.238 -395.886" id="C1_15_f0139551d5"/>
    </defs>
    <g clip-path="url(#p0d6c432f1e)">
     <use style="fill:#0000ff;fill-opacity:0.5;" x="0.0" xlink:href="#C1_0_b33090bca0" y="432.0"/>
    </g>
    <g clip-path="url(#p0d6c432f1e)">
     <use style="fill:#0000ff;fill-opacity:0.5;" x="0.0" xlink:href="#C1_1_9f7839ca28" y="432.0"/>
    </g>
    <g clip-path="url(#p0d6c432f1e)">
     <use style="fill:#0000ff;fill-opacity:0.5;" x="0.0" xlink:href="#C1_2_6e467106e0" y="432.0"/>
    </g>
    <g clip-path="url(#p0d6c432f1e)">
     <use style="fill:#0000ff;fill-opacity:0.5;" x="0.0" xlink:href="#C1_3_956f9ef130" y="432.0"/>
    </g>
    <g clip-path="url(#p0d6c432f1e)">
     <use style="fill:#0000ff;fill-opacity:0.5;" x="0.0" xlink:href="#C1_4_2a3d6c1db2" y="432.0"/>
    </g>
    <g clip-path="url(#p0d6c432f1e)">
     <use style="fill:#0000ff;fill-opacity:0.5;" x="0.0" xlink:href="#C1_5_da22f3a6e1" y="432.0"/>
    </g>
    <g clip-path="url(#p0d6c432f1e)">
     <use style="fill:#0000ff;fill-opacity:0.5;" x="0.0" xlink:href="#C1_6_282c31049b" y="432.0"/>
    </g>
    <g clip-path="url(#p0d6c432f1e)">
     <use style="fill:#0000ff;fill-opacity:0.5;" x="0.0" xlink:href="#C1_7_ac1a86244a" y="432.0"/>
    </g>
    <g clip-path="url(#p0d6c432f1e)">
     <use style="fill:#0000ff;fill-opacity:0.5;" x="0.0" xlink:href="#C1_8_a7292f9ab8" y="432.0"/>
    </g>
    <g clip-path="url(#p0d6c432f1e)">
     <use style="fill:#0000ff;fill-opacity:0.5;" x="0.0" xlink:href="#C1_9_9587329ce5" y="432.0"/>
    </g>
    <g clip-path="url(#p0d6c432f1e)">
     <use style="fill:#0000ff;fill-opacity:0.5;" x="0.0" xlink:href="#C1_a_16f6cd6e73" y="432.0"/>
    </g>
    <g clip-path="url(#p0d6c432f1e)">
     <use style="fill:#0000ff;fill-opacity:0.5;" x="0.0" xlink:href="#C1_b_494279cace" y="432.0"/>
    </g>
    <g clip-path="url(#p0d6c432f1e)">
     <use style="fill:#0000ff;fill-opacity:0.5;" x="0.0" xlink:href="#C1_c_39f5f435b3" y="432.0"/>
    </g>
    <g clip-path="url(#p0d6c432f1e)">
     <use style="fill:#0000ff;fill-opacity:0.5;" x="0.0" xlink:href="#C1_d_f50fa253cd" y="432.0"/>
    </g>
    <g clip-path="url(#p0d6c432f1e)">
     <use style="fill:#0000ff;fill-opacity:0.5;" x="0.0" xlink:href="#C1_e_425c74e7f7" y="432.0"/>
    </g>
    <g clip-path="url(#p0d6c432f1e)">
     <use style="fill:#0000ff;fill-opacity:0.5;" x="0.0" xlink:href="#C1_f_95c9de0dbd" y="432.0"/>
    </g>
    <g clip-path="url(#p0d6c432f1e)">
     <use style="fill:#0000ff;fill-opacity:0.5;" x="0.0" xlink:href="#C1_10_450f8db51b" y="432.0"/>
    </g>
    <g clip-path="url(#p0d6c432f1e)">
     <use style="fill:#0000ff;fill-opacity:0.5;" x="0.0" xlink:href="#C1_11_0710e8e028" y="432.0"/>
    </g>
    <g clip-path="url(#p0d6c432f1e)">
     <use style="fill:#0000ff;fill-opacity:0.5;" x="0.0" xlink:href="#C1_12_a33247b847" y="432.0"/>
    </g>
    <g clip-path="url(#p0d6c432f1e)">
     <use style="fill:#0000ff;fill-opacity:0.5;" x="0.0" xlink:href="#C1_13_bf4d7c8a53" y="432.0"/>
    </g>
    <g clip-path="url(#p0d6c432f1e)">
     <use style="fill:#0000ff;fill-opacity:0.5;" x="0.0" xlink:href="#C1_14_da18b6516a" y="432.0"/>
    </g>
    <g clip-path="url(#p0d6c432f1e)">
     <use style="fill:#0000ff;fill-opacity:0.5;" x="0.0" xlink:href="#C1_15_f0139551d5" y="432.0"/>
    </g>
   </g>
   <g id="PathCollection_3">
    <defs>
     <path d="
M162.259 -104.623
L164.054 -106.482
L162.259 -109.564
L159.828 -106.482
L162.259 -104.623" id="C2_0_f9bed92d1e"/>
     <path d="
M168.231 -110.455
L174.202 -111.011
L176.016 -112.733
L180.174 -118.56
L180.695 -118.984
L186.146 -121.013
L190.055 -125.235
L192.117 -131.1
L192.586 -131.486
L198.089 -135.578
L199.912 -137.737
L204.061 -140.761
L207.402 -143.989
L210.032 -146.557
L213.692 -150.24
L216.004 -153.016
L219.326 -156.491
L221.975 -159.25
L225.895 -162.742
L227.947 -164.131
L232.083 -168.993
L233.919 -170.927
L238.399 -175.244
L239.89 -176.736
L244.027 -181.496
L245.862 -183.317
L250.624 -187.747
L251.834 -189.082
L256.256 -193.998
L257.805 -195.195
L262.666 -200.249
L263.777 -201.991
L267.895 -206.5
L269.749 -208.001
L274.959 -212.751
L275.72 -214.207
L280.139 -219.003
L281.692 -220.302
L285.487 -225.254
L287.664 -227.465
L291.938 -231.505
L293.635 -232.83
L297.788 -237.756
L299.607 -240.748
L302.772 -244.007
L305.579 -247.042
L309.043 -250.258
L311.55 -253.697
L315.075 -256.51
L317.522 -257.951
L321.083 -262.761
L323.494 -268.553
L323.91 -269.012
L329.465 -273.556
L330.98 -275.263
L335.437 -279.961
L336.913 -281.514
L339.765 -287.765
L338.07 -294.017
L335.437 -295.615
L331.941 -294.017
L330.582 -287.765
L329.465 -286.734
L323.494 -284.056
L320.731 -281.514
L317.522 -275.293
L317.492 -275.263
L311.55 -274.098
L306.822 -275.263
L305.579 -276.357
L303.965 -275.263
L299.607 -274.376
L293.635 -270.566
L289.209 -275.263
L287.664 -277.753
L284.875 -275.263
L281.692 -272.193
L278.701 -269.012
L281.692 -265.964
L287.433 -262.761
L281.692 -260.102
L275.72 -262.741
L275.414 -262.761
L269.749 -263.02
L267.108 -269.012
L265.086 -275.263
L269.041 -281.514
L269.749 -281.849
L269.929 -281.514
L273.621 -275.263
L275.72 -272.41
L278.493 -275.263
L281.692 -280.555
L282.411 -281.514
L281.692 -282.831
L275.72 -286.795
L274.226 -287.765
L275.72 -292.981
L281.692 -288.847
L285.405 -294.017
L281.692 -297.177
L275.72 -294.567
L273.515 -300.268
L275.72 -302.416
L281.692 -305.394
L283.023 -306.519
L286.169 -312.77
L287.664 -314.685
L291.318 -319.021
L293.635 -321.207
L299.607 -324.477
L300.292 -325.272
L300.458 -331.524
L299.607 -332.086
L296.584 -337.775
L293.635 -339.359
L292.205 -337.775
L290.202 -331.524
L287.664 -328.662
L284.768 -325.272
L281.692 -322.561
L275.72 -320.175
L274.593 -319.021
L269.749 -313.224
L269.203 -312.77
L263.777 -308.39
L262.126 -306.519
L257.805 -303.067
L254.492 -300.268
L252.139 -294.017
L251.834 -293.351
L245.862 -292.18
L243.196 -287.765
L239.89 -284.601
L236.249 -281.514
L233.919 -278.54
L231.03 -275.263
L227.947 -273.456
L223.331 -269.012
L221.975 -268.11
L217.306 -262.761
L216.004 -260.034
L212.168 -256.51
L210.032 -253.971
L206.079 -250.258
L204.061 -248.96
L199.269 -244.007
L198.089 -242.699
L193.758 -237.756
L192.117 -235.763
L188.443 -231.505
L186.146 -229.611
L180.591 -225.254
L180.174 -224.088
L177.178 -219.003
L174.202 -216.649
L170.721 -212.751
L168.231 -210.504
L164.583 -206.5
L162.259 -203.198
L159.839 -200.249
L156.287 -197.129
L153.259 -193.998
L150.316 -190.922
L147.084 -187.747
L144.344 -183.22
L142.486 -181.496
L139.269 -175.244
L138.372 -174.626
L132.401 -169.56
L131.64 -168.993
L131.628 -162.742
L132.401 -161.816
L134.847 -162.742
L138.372 -163.381
L139.254 -162.742
L144.344 -159.228
L148.251 -162.742
L150.316 -168.242
L151.666 -168.993
L153.644 -175.244
L156.287 -177.012
L162.259 -179.637
L167.133 -181.496
L168.231 -181.639
L174.202 -187.139
L174.493 -187.747
L179.732 -193.998
L180.174 -194.643
L181.043 -193.998
L186.146 -188.79
L192.117 -189.061
L198.089 -188.423
L198.79 -187.747
L198.089 -187.458
L193.841 -181.496
L197.262 -175.244
L198.089 -171.542
L198.488 -168.993
L198.089 -167.435
L197.131 -168.993
L192.117 -171.287
L186.335 -175.244
L186.146 -175.687
L182.195 -175.244
L184.707 -168.993
L186.146 -167.358
L192.117 -165.137
L195.217 -162.742
L194.242 -156.491
L192.117 -153.986
L189.161 -150.24
L188.909 -143.989
L186.146 -143.1
L183.635 -137.737
L180.174 -134.676
L175.884 -131.486
L180.174 -126.891
L180.603 -125.235
L180.174 -121.313
L174.202 -121.501
L172.186 -118.984
L168.231 -115.607
L164.858 -112.733
L168.231 -110.455
M210.032 -203.554
L208.816 -206.5
L210.032 -207.521
L213.71 -206.5
L210.032 -203.554
M221.975 -199.754
L221.694 -200.249
L221.975 -200.587
L222.236 -200.249
L221.975 -199.754
M227.947 -206.134
L227.515 -206.5
L227.947 -206.832
L228.249 -206.5
L227.947 -206.134
M227.947 -218.22
L226.5 -219.003
L227.947 -220.697
L229.386 -219.003
L227.947 -218.22
M257.805 -237.218
L257.572 -237.756
L257.805 -238.183
L258.461 -237.756
L257.805 -237.218
M257.805 -268.615
L257.763 -269.012
L257.805 -269.114
L257.923 -269.012
L257.805 -268.615
M275.72 -243.645
L274.529 -244.007
L275.72 -245.523
L277.018 -244.007
L275.72 -243.645
M281.692 -248.586
L279.923 -250.258
L281.692 -251.991
L282.643 -250.258
L281.692 -248.586
M293.635 -256.51
L293.635 -256.51
L293.635 -256.51
L293.635 -256.51
L293.635 -256.51
M299.607 -262.518
L298.809 -262.761
L299.607 -263.026
L299.891 -262.761
L299.607 -262.518
M198.089 -197.001
L196.953 -200.249
L198.089 -203.478
L200.69 -200.249
L198.089 -197.001" id="C2_1_df750ddb58"/>
     <path d="
M108.514 -134.234
L110.897 -137.737
L108.514 -140.259
L105.892 -137.737
L108.514 -134.234" id="C2_2_85e7333674"/>
     <path d="
M132.401 -141.624
L134.534 -143.989
L132.401 -147.14
L129.912 -143.989
L132.401 -141.624" id="C2_3_42e166fe7a"/>
     <path d="
M156.287 -141.653
L158.026 -143.989
L156.287 -146.157
L154.688 -143.989
L156.287 -141.653" id="C2_4_02185ab3be"/>
     <path d="
M162.259 -148.899
L164.25 -150.24
L162.259 -153.495
L160.701 -150.24
L162.259 -148.899" id="C2_5_55dbd7f3aa"/>
     <path d="
M180.174 -149.86
L180.597 -150.24
L180.174 -152.344
L179.194 -150.24
L180.174 -149.86" id="C2_6_c7e0f2fd7a"/>
     <path d="
M180.174 -157.715
L181.661 -162.742
L180.174 -164.174
L174.377 -162.742
L180.174 -157.715" id="C2_7_33c45e200e"/>
     <path d="
M317.522 -287.586
L317.659 -287.765
L317.522 -287.929
L317.376 -287.765
L317.522 -287.586" id="C2_8_4e974f0197"/>
     <path d="
M305.579 -298.295
L307.331 -300.268
L305.579 -302.554
L304.04 -300.268
L305.579 -298.295" id="C2_9_620480c7bc"/>
     <path d="
M305.579 -337.367
L305.837 -337.775
L305.579 -338.562
L305.34 -337.775
L305.579 -337.367" id="C2_a_bf392577b6"/>
     <path d="
M317.522 -353.924
L319.139 -356.528
L317.522 -358.194
L315.514 -356.528
L317.522 -353.924" id="C2_b_aab443437a"/>
     <path d="
M335.437 -352.608
L338.816 -356.528
L335.437 -360.171
L334.285 -362.779
L329.465 -368.142
L324.397 -362.779
L329.465 -357.562
L331.689 -356.528
L335.437 -352.608" id="C2_c_3dcb963fcc"/>
    </defs>
    <g clip-path="url(#p0d6c432f1e)">
     <use style="fill:#0000ff;" x="0.0" xlink:href="#C2_0_f9bed92d1e" y="432.0"/>
    </g>
    <g clip-path="url(#p0d6c432f1e)">
     <use style="fill:#0000ff;" x="0.0" xlink:href="#C2_1_df750ddb58" y="432.0"/>
    </g>
    <g clip-path="url(#p0d6c432f1e)">
     <use style="fill:#0000ff;" x="0.0" xlink:href="#C2_2_85e7333674" y="432.0"/>
    </g>
    <g clip-path="url(#p0d6c432f1e)">
     <use style="fill:#0000ff;" x="0.0" xlink:href="#C2_3_42e166fe7a" y="432.0"/>
    </g>
    <g clip-path="url(#p0d6c432f1e)">
     <use style="fill:#0000ff;" x="0.0" xlink:href="#C2_4_02185ab3be" y="432.0"/>
    </g>
    <g clip-path="url(#p0d6c432f1e)">
     <use style="fill:#0000ff;" x="0.0" xlink:href="#C2_5_55dbd7f3aa" y="432.0"/>
    </g>
    <g clip-path="url(#p0d6c432f1e)">
     <use style="fill:#0000ff;" x="0.0" xlink:href="#C2_6_c7e0f2fd7a" y="432.0"/>
    </g>
    <g clip-path="url(#p0d6c432f1e)">
     <use style="fill:#0000ff;" x="0.0" xlink:href="#C2_7_33c45e200e" y="432.0"/>
    </g>
    <g clip-path="url(#p0d6c432f1e)">
     <use style="fill:#0000ff;" x="0.0" xlink:href="#C2_8_4e974f0197" y="432.0"/>
    </g>
    <g clip-path="url(#p0d6c432f1e)">
     <use style="fill:#0000ff;" x="0.0" xlink:href="#C2_9_620480c7bc" y="432.0"/>
    </g>
    <g clip-path="url(#p0d6c432f1e)">
     <use style="fill:#0000ff;" x="0.0" xlink:href="#C2_a_bf392577b6" y="432.0"/>
    </g>
    <g clip-path="url(#p0d6c432f1e)">
     <use style="fill:#0000ff;" x="0.0" xlink:href="#C2_b_aab443437a" y="432.0"/>
    </g>
    <g clip-path="url(#p0d6c432f1e)">
     <use style="fill:#0000ff;" x="0.0" xlink:href="#C2_c_3dcb963fcc" y="432.0"/>
    </g>
   </g>
   <g id="line2d_1">
    <path clip-path="url(#p0d6c432f1e)" d="
M242.876 197.369" style="fill:none;stroke:#fa8072;stroke-linecap:square;"/>
    <defs>
     <path d="
M-7.5 0
L7.5 0
M0 7.5
L0 -7.5" id="m415119b0dc" style="stroke:#fa8072;stroke-width:3;"/>
    </defs>
    <g clip-path="url(#p0d6c432f1e)">
     <use style="fill:#fa8072;stroke:#fa8072;stroke-width:3;" x="242.87625" xlink:href="#m415119b0dc" y="197.3694375"/>
    </g>
   </g>
   <g id="matplotlib.axis_1">
    <g id="xtick_1">
     <g id="line2d_2">
      <path clip-path="url(#p0d6c432f1e)" d="
M101.945 381.779
L101.945 12.96" style="fill:none;stroke:#000000;stroke-dasharray:1.000000,3.000000;stroke-dashoffset:0.0;stroke-width:0.5;"/>
     </g>
     <g id="line2d_3">
      <defs>
       <path d="
M0 0
L0 -4" id="m93b0483c22" style="stroke:#000000;stroke-width:0.5;"/>
      </defs>
      <g>
       <use style="stroke:#000000;stroke-width:0.5;" x="101.94525" xlink:href="#m93b0483c22" y="381.778875"/>
      </g>
     </g>
     <g id="line2d_4">
      <defs>
       <path d="
M0 0
L0 4" id="m741efc42ff" style="stroke:#000000;stroke-width:0.5;"/>
      </defs>
      <g>
       <use style="stroke:#000000;stroke-width:0.5;" x="101.94525" xlink:href="#m741efc42ff" y="12.96"/>
      </g>
     </g>
     <g id="text_1">
      <!-- −0.4 -->
      <defs>
       <path d="
M31.7812 66.4062
Q24.1719 66.4062 20.3281 58.9062
Q16.5 51.4219 16.5 36.375
Q16.5 21.3906 20.3281 13.8906
Q24.1719 6.39062 31.7812 6.39062
Q39.4531 6.39062 43.2812 13.8906
Q47.125 21.3906 47.125 36.375
Q47.125 51.4219 43.2812 58.9062
Q39.4531 66.4062 31.7812 66.4062
M31.7812 74.2188
Q44.0469 74.2188 50.5156 64.5156
Q56.9844 54.8281 56.9844 36.375
Q56.9844 17.9688 50.5156 8.26562
Q44.0469 -1.42188 31.7812 -1.42188
Q19.5312 -1.42188 13.0625 8.26562
Q6.59375 17.9688 6.59375 36.375
Q6.59375 54.8281 13.0625 64.5156
Q19.5312 74.2188 31.7812 74.2188" id="DejaVuSans-30"/>
       <path d="
M10.6875 12.4062
L21 12.4062
L21 0
L10.6875 0
z
" id="DejaVuSans-2e"/>
       <path d="
M37.7969 64.3125
L12.8906 25.3906
L37.7969 25.3906
z

M35.2031 72.9062
L47.6094 72.9062
L47.6094 25.3906
L58.0156 25.3906
L58.0156 17.1875
L47.6094 17.1875
L47.6094 0
L37.7969 0
L37.7969 17.1875
L4.89062 17.1875
L4.89062 26.7031
z
" id="DejaVuSans-34"/>
       <path d="
M10.5938 35.5
L73.1875 35.5
L73.1875 27.2031
L10.5938 27.2031
z
" id="DejaVuSans-2212"/>
      </defs>
      <g transform="translate(88.34775 394.897)scale(0.12 -0.12)">
       <use xlink:href="#DejaVuSans-2212"/>
       <use x="83.7890625" xlink:href="#DejaVuSans-30"/>
       <use x="147.412109375" xlink:href="#DejaVuSans-2e"/>
       <use x="179.19921875" xlink:href="#DejaVuSans-34"/>
      </g>
     </g>
    </g>
    <g id="xtick_2">
     <g id="line2d_5">
      <path clip-path="url(#p0d6c432f1e)" d="
M172.411 381.779
L172.411 12.96" style="fill:none;stroke:#000000;stroke-dasharray:1.000000,3.000000;stroke-dashoffset:0.0;stroke-width:0.5;"/>
     </g>
     <g id="line2d_6">
      <g>
       <use style="stroke:#000000;stroke-width:0.5;" x="172.41075" xlink:href="#m93b0483c22" y="381.778875"/>
      </g>
     </g>
     <g id="line2d_7">
      <g>
       <use style="stroke:#000000;stroke-width:0.5;" x="172.41075" xlink:href="#m741efc42ff" y="12.96"/>
      </g>
     </g>
     <g id="text_2">
      <!-- −0.2 -->
      <defs>
       <path d="
M19.1875 8.29688
L53.6094 8.29688
L53.6094 0
L7.32812 0
L7.32812 8.29688
Q12.9375 14.1094 22.625 23.8906
Q32.3281 33.6875 34.8125 36.5312
Q39.5469 41.8438 41.4219 45.5312
Q43.3125 49.2188 43.3125 52.7812
Q43.3125 58.5938 39.2344 62.25
Q35.1562 65.9219 28.6094 65.9219
Q23.9688 65.9219 18.8125 64.3125
Q13.6719 62.7031 7.8125 59.4219
L7.8125 69.3906
Q13.7656 71.7812 18.9375 73
Q24.125 74.2188 28.4219 74.2188
Q39.75 74.2188 46.4844 68.5469
Q53.2188 62.8906 53.2188 53.4219
Q53.2188 48.9219 51.5312 44.8906
Q49.8594 40.875 45.4062 35.4062
Q44.1875 33.9844 37.6406 27.2188
Q31.1094 20.4531 19.1875 8.29688" id="DejaVuSans-32"/>
      </defs>
      <g transform="translate(159.077625 394.897)scale(0.12 -0.12)">
       <use xlink:href="#DejaVuSans-2212"/>
       <use x="83.7890625" xlink:href="#DejaVuSans-30"/>
       <use x="147.412109375" xlink:href="#DejaVuSans-2e"/>
       <use x="179.19921875" xlink:href="#DejaVuSans-32"/>
      </g>
     </g>
    </g>
    <g id="xtick_3">
     <g id="line2d_8">
      <path clip-path="url(#p0d6c432f1e)" d="
M242.876 381.779
L242.876 12.96" style="fill:none;stroke:#000000;stroke-dasharray:1.000000,3.000000;stroke-dashoffset:0.0;stroke-width:0.5;"/>
     </g>
     <g id="line2d_9">
      <g>
       <use style="stroke:#000000;stroke-width:0.5;" x="242.87625" xlink:href="#m93b0483c22" y="381.778875"/>
      </g>
     </g>
     <g id="line2d_10">
      <g>
       <use style="stroke:#000000;stroke-width:0.5;" x="242.87625" xlink:href="#m741efc42ff" y="12.96"/>
      </g>
     </g>
     <g id="text_3">
      <!-- 0.0 -->
      <g transform="translate(234.1284375 394.897)scale(0.12 -0.12)">
       <use xlink:href="#DejaVuSans-30"/>
       <use x="63.623046875" xlink:href="#DejaVuSans-2e"/>
       <use x="95.41015625" xlink:href="#DejaVuSans-30"/>
      </g>
     </g>
    </g>
    <g id="xtick_4">
     <g id="line2d_11">
      <path clip-path="url(#p0d6c432f1e)" d="
M313.342 381.779
L313.342 12.96" style="fill:none;stroke:#000000;stroke-dasharray:1.000000,3.000000;stroke-dashoffset:0.0;stroke-width:0.5;"/>
     </g>
     <g id="line2d_12">
      <g>
       <use style="stroke:#000000;stroke-width:0.5;" x="313.34175" xlink:href="#m93b0483c22" y="381.778875"/>
      </g>
     </g>
     <g id="line2d_13">
      <g>
       <use style="stroke:#000000;stroke-width:0.5;" x="313.34175" xlink:href="#m741efc42ff" y="12.96"/>
      </g>
     </g>
     <g id="text_4">
      <!-- 0.2 -->
      <g transform="translate(304.7964375 394.897)scale(0.12 -0.12)">
       <use xlink:href="#DejaVuSans-30"/>
       <use x="63.623046875" xlink:href="#DejaVuSans-2e"/>
       <use x="95.41015625" xlink:href="#DejaVuSans-32"/>
      </g>
     </g>
    </g>
    <g id="xtick_5">
     <g id="line2d_14">
      <path clip-path="url(#p0d6c432f1e)" d="
M383.807 381.779
L383.807 12.96" style="fill:none;stroke:#000000;stroke-dasharray:1.000000,3.000000;stroke-dashoffset:0.0;stroke-width:0.5;"/>
     </g>
     <g id="line2d_15">
      <g>
       <use style="stroke:#000000;stroke-width:0.5;" x="383.80725" xlink:href="#m93b0483c22" y="381.778875"/>
      </g>
     </g>
     <g id="line2d_16">
      <g>
       <use style="stroke:#000000;stroke-width:0.5;" x="383.80725" xlink:href="#m741efc42ff" y="12.96"/>
      </g>
     </g>
     <g id="text_5">
      <!-- 0.4 -->
      <g transform="translate(374.9975625 394.897)scale(0.12 -0.12)">
       <use xlink:href="#DejaVuSans-30"/>
       <use x="63.623046875" xlink:href="#DejaVuSans-2e"/>
       <use x="95.41015625" xlink:href="#DejaVuSans-34"/>
      </g>
     </g>
    </g>
    <g id="xtick_6">
     <g id="line2d_17">
      <defs>
       <path d="
M0 0
L0 -2" id="m177f7580d0" style="stroke:#000000;stroke-width:0.5;"/>
      </defs>
      <g>
       <use style="stroke:#000000;stroke-width:0.5;" x="84.328875" xlink:href="#m177f7580d0" y="381.778875"/>
      </g>
     </g>
     <g id="line2d_18">
      <defs>
       <path d="
M0 0
L0 2" id="m5284c7e2a0" style="stroke:#000000;stroke-width:0.5;"/>
      </defs>
      <g>
       <use style="stroke:#000000;stroke-width:0.5;" x="84.328875" xlink:href="#m5284c7e2a0" y="12.96"/>
      </g>
     </g>
    </g>
    <g id="xtick_7">
     <g id="line2d_19">
      <g>
       <use style="stroke:#000000;stroke-width:0.5;" x="119.561625" xlink:href="#m177f7580d0" y="381.778875"/>
      </g>
     </g>
     <g id="line2d_20">
      <g>
       <use style="stroke:#000000;stroke-width:0.5;" x="119.561625" xlink:href="#m5284c7e2a0" y="12.96"/>
      </g>
     </g>
    </g>
    <g id="xtick_8">
     <g id="line2d_21">
      <g>
       <use style="stroke:#000000;stroke-width:0.5;" x="137.178" xlink:href="#m177f7580d0" y="381.778875"/>
      </g>
     </g>
     <g id="line2d_22">
      <g>
       <use style="stroke:#000000;stroke-width:0.5;" x="137.178" xlink:href="#m5284c7e2a0" y="12.96"/>
      </g>
     </g>
    </g>
    <g id="xtick_9">
     <g id="line2d_23">
      <g>
       <use style="stroke:#000000;stroke-width:0.5;" x="154.794375" xlink:href="#m177f7580d0" y="381.778875"/>
      </g>
     </g>
     <g id="line2d_24">
      <g>
       <use style="stroke:#000000;stroke-width:0.5;" x="154.794375" xlink:href="#m5284c7e2a0" y="12.96"/>
      </g>
     </g>
    </g>
    <g id="xtick_10">
     <g id="line2d_25">
      <g>
       <use style="stroke:#000000;stroke-width:0.5;" x="172.41075" xlink:href="#m177f7580d0" y="381.778875"/>
      </g>
     </g>
     <g id="line2d_26">
      <g>
       <use style="stroke:#000000;stroke-width:0.5;" x="172.41075" xlink:href="#m5284c7e2a0" y="12.96"/>
      </g>
     </g>
    </g>
    <g id="xtick_11">
     <g id="line2d_27">
      <g>
       <use style="stroke:#000000;stroke-width:0.5;" x="190.027125" xlink:href="#m177f7580d0" y="381.778875"/>
      </g>
     </g>
     <g id="line2d_28">
      <g>
       <use style="stroke:#000000;stroke-width:0.5;" x="190.027125" xlink:href="#m5284c7e2a0" y="12.96"/>
      </g>
     </g>
    </g>
    <g id="xtick_12">
     <g id="line2d_29">
      <g>
       <use style="stroke:#000000;stroke-width:0.5;" x="207.6435" xlink:href="#m177f7580d0" y="381.778875"/>
      </g>
     </g>
     <g id="line2d_30">
      <g>
       <use style="stroke:#000000;stroke-width:0.5;" x="207.6435" xlink:href="#m5284c7e2a0" y="12.96"/>
      </g>
     </g>
    </g>
    <g id="xtick_13">
     <g id="line2d_31">
      <g>
       <use style="stroke:#000000;stroke-width:0.5;" x="225.259875" xlink:href="#m177f7580d0" y="381.778875"/>
      </g>
     </g>
     <g id="line2d_32">
      <g>
       <use style="stroke:#000000;stroke-width:0.5;" x="225.259875" xlink:href="#m5284c7e2a0" y="12.96"/>
      </g>
     </g>
    </g>
    <g id="xtick_14">
     <g id="line2d_33">
      <g>
       <use style="stroke:#000000;stroke-width:0.5;" x="242.87625" xlink:href="#m177f7580d0" y="381.778875"/>
      </g>
     </g>
     <g id="line2d_34">
      <g>
       <use style="stroke:#000000;stroke-width:0.5;" x="242.87625" xlink:href="#m5284c7e2a0" y="12.96"/>
      </g>
     </g>
    </g>
    <g id="xtick_15">
     <g id="line2d_35">
      <g>
       <use style="stroke:#000000;stroke-width:0.5;" x="260.492625" xlink:href="#m177f7580d0" y="381.778875"/>
      </g>
     </g>
     <g id="line2d_36">
      <g>
       <use style="stroke:#000000;stroke-width:0.5;" x="260.492625" xlink:href="#m5284c7e2a0" y="12.96"/>
      </g>
     </g>
    </g>
    <g id="xtick_16">
     <g id="line2d_37">
      <g>
       <use style="stroke:#000000;stroke-width:0.5;" x="278.109" xlink:href="#m177f7580d0" y="381.778875"/>
      </g>
     </g>
     <g id="line2d_38">
      <g>
       <use style="stroke:#000000;stroke-width:0.5;" x="278.109" xlink:href="#m5284c7e2a0" y="12.96"/>
      </g>
     </g>
    </g>
    <g id="xtick_17">
     <g id="line2d_39">
      <g>
       <use style="stroke:#000000;stroke-width:0.5;" x="295.725375" xlink:href="#m177f7580d0" y="381.778875"/>
      </g>
     </g>
     <g id="line2d_40">
      <g>
       <use style="stroke:#000000;stroke-width:0.5;" x="295.725375" xlink:href="#m5284c7e2a0" y="12.96"/>
      </g>
     </g>
    </g>
    <g id="xtick_18">
     <g id="line2d_41">
      <g>
       <use style="stroke:#000000;stroke-width:0.5;" x="313.34175" xlink:href="#m177f7580d0" y="381.778875"/>
      </g>
     </g>
     <g id="line2d_42">
      <g>
       <use style="stroke:#000000;stroke-width:0.5;" x="313.34175" xlink:href="#m5284c7e2a0" y="12.96"/>
      </g>
     </g>
    </g>
    <g id="xtick_19">
     <g id="line2d_43">
      <g>
       <use style="stroke:#000000;stroke-width:0.5;" x="330.958125" xlink:href="#m177f7580d0" y="381.778875"/>
      </g>
     </g>
     <g id="line2d_44">
      <g>
       <use style="stroke:#000000;stroke-width:0.5;" x="330.958125" xlink:href="#m5284c7e2a0" y="12.96"/>
      </g>
     </g>
    </g>
    <g id="xtick_20">
     <g id="line2d_45">
      <g>
       <use style="stroke:#000000;stroke-width:0.5;" x="348.5745" xlink:href="#m177f7580d0" y="381.778875"/>
      </g>
     </g>
     <g id="line2d_46">
      <g>
       <use style="stroke:#000000;stroke-width:0.5;" x="348.5745" xlink:href="#m5284c7e2a0" y="12.96"/>
      </g>
     </g>
    </g>
    <g id="xtick_21">
     <g id="line2d_47">
      <g>
       <use style="stroke:#000000;stroke-width:0.5;" x="366.190875" xlink:href="#m177f7580d0" y="381.778875"/>
      </g>
     </g>
     <g id="line2d_48">
      <g>
       <use style="stroke:#000000;stroke-width:0.5;" x="366.190875" xlink:href="#m5284c7e2a0" y="12.96"/>
      </g>
     </g>
    </g>
    <g id="xtick_22">
     <g id="line2d_49">
      <g>
       <use style="stroke:#000000;stroke-width:0.5;" x="383.80725" xlink:href="#m177f7580d0" y="381.778875"/>
      </g>
     </g>
     <g id="line2d_50">
      <g>
       <use style="stroke:#000000;stroke-width:0.5;" x="383.80725" xlink:href="#m5284c7e2a0" y="12.96"/>
      </g>
     </g>
    </g>
    <g id="xtick_23">
     <g id="line2d_51">
      <g>
       <use style="stroke:#000000;stroke-width:0.5;" x="401.423625" xlink:href="#m177f7580d0" y="381.778875"/>
      </g>
     </g>
     <g id="line2d_52">
      <g>
       <use style="stroke:#000000;stroke-width:0.5;" x="401.423625" xlink:href="#m5284c7e2a0" y="12.96"/>
      </g>
     </g>
    </g>
    <g id="text_6">
     <!-- $\mathcal{C}_{S}$ -->
     <defs>
      <path d="
M6.10938 -2.20312
Q5.8125 -2.20312 5.5625 -1.85938
Q5.32812 -1.51562 5.32812 -1.21875
L11.0781 22.125
Q11.2812 22.7031 11.9219 22.7031
L13.0938 22.7031
Q13.4844 22.7031 13.7031 22.4062
Q13.9219 22.125 13.9219 21.6875
Q13.0938 18.2656 13.0938 15.5781
Q13.0938 8.34375 18.0625 4.82812
Q23.0469 1.3125 30.6094 1.3125
Q33.8906 1.3125 37.0625 2.92188
Q40.2344 4.54688 42.5938 7.125
Q44.9688 9.71875 46.375 12.9062
Q47.7969 16.1094 47.7969 19.3906
Q47.7969 22.9062 45.9375 25.6562
Q44.0938 28.4219 40.8281 29.2031
L28.6094 32.4219
Q23.6875 33.7344 20.75 37.7188
Q17.8281 41.7031 17.8281 46.6875
Q17.8281 52.6875 21.3906 58.25
Q24.9531 63.8125 30.6875 67.1562
Q36.4219 70.5156 42.3906 70.5156
Q46.9688 70.5156 50.7969 68.8281
Q54.6406 67.1406 56.6875 63.4844
L62.4062 70.2188
Q62.9844 70.5156 63.0938 70.5156
L63.7188 70.5156
Q64.1094 70.5156 64.3438 70.1719
Q64.5938 69.8281 64.5938 69.4844
L58.7969 46.2969
Q58.6406 45.6094 58.0156 45.6094
L56.7812 45.6094
Q55.9062 45.6094 55.9062 46.6875
Q56.3906 49.8594 56.3906 52.2031
Q56.3906 56.8438 54.7969 60.2812
Q53.2188 63.7188 50.0156 65.5
Q46.8281 67.2812 42.0938 67.2812
Q38.0938 67.2812 34.125 64.9844
Q30.1719 62.7031 27.7344 58.8906
Q25.2969 55.0781 25.2969 50.9844
Q25.2969 47.75 27.1719 45.2656
Q29.0469 42.7812 32.1719 41.8906
L44.3906 38.7188
Q47.7031 37.8438 50.1719 35.625
Q52.6406 33.4062 53.9062 30.3438
Q55.1719 27.2969 55.1719 23.6875
Q55.1719 18.9531 53.1719 14.3281
Q51.1719 9.71875 47.5781 5.90625
Q44 2.09375 39.4531 -0.046875
Q34.9062 -2.20312 30.1719 -2.20312
Q18.2656 -2.20312 13.0938 4.78125
L7.51562 -1.90625
Q6.9375 -2.20312 6.78125 -2.20312
z
" id="Cmmi10-53"/>
      <path d="
M19.6719 -2.39062
Q14.9375 -2.39062 11.4375 -0.5625
Q7.95312 1.26562 5.64062 4.5625
Q3.32812 7.85938 2.26562 11.8125
Q1.21875 15.7656 1.21875 20.3125
Q1.21875 29.25 4.51562 38.3594
Q7.8125 47.4688 13.7656 54.7188
Q19.7344 61.9688 27.9062 66.2344
Q36.0781 70.5156 45.5156 70.5156
L46.0938 70.5156
Q49.3594 70.5156 51.3906 68.8438
Q53.4219 67.1875 53.4219 64.0156
Q53.4219 61.2344 51.8125 57.4688
Q50.2031 53.7188 47.9062 49.6094
Q46.8281 47.7969 44.6562 46.4844
Q42.4844 45.1719 40.1875 44.9219
L39.7031 44.9219
Q39.0156 45.2656 39.0156 45.6094
Q39.0156 46.0469 40.5938 49.1719
Q42.1875 52.2969 43.3281 55.0469
Q44.4844 57.8125 44.4844 59.8125
Q44.4844 62.25 42.9375 63.4219
Q41.4062 64.5938 38.8125 64.5938
Q31.4531 64.5938 26.4375 61.0781
Q21.4375 57.5625 17.3906 50.6875
Q14.0156 44.875 12.0625 38.1094
Q10.1094 31.3438 10.1094 24.6094
Q10.1094 19.0938 11.8594 14.2344
Q13.625 9.375 17.4219 6.4375
Q21.2344 3.51562 27 3.51562
Q33.0625 3.51562 37.7969 8.01562
Q38.4219 8.6875 40.4062 11.2969
Q42.3906 13.9219 44.0938 15.1406
Q45.7969 16.3594 48.4844 16.6094
L49.0312 16.6094
Q49.7031 16.2656 49.7031 15.8281
Q49.7031 15.4375 49.4219 14.9844
Q46.5781 10.2969 41.7969 6.29688
Q37.0156 2.29688 31.2969 -0.046875
Q25.5938 -2.39062 20.3125 -2.39062
z
" id="Cmsy10-43"/>
     </defs>
     <g transform="translate(237.11625 410.912625)scale(0.12 -0.12)">
      <use transform="translate(0.0 0.484375)" xlink:href="#Cmsy10-43"/>
      <use transform="translate(52.587890625 -25.025)scale(0.7)" xlink:href="#Cmmi10-53"/>
     </g>
    </g>
   </g>
   <g id="matplotlib.axis_2">
    <g id="ytick_1">
     <g id="line2d_53">
      <path clip-path="url(#p0d6c432f1e)" d="
M66.7125 344.897
L419.04 344.897" style="fill:none;stroke:#000000;stroke-dasharray:1.000000,3.000000;stroke-dashoffset:0.0;stroke-width:0.5;"/>
     </g>
     <g id="line2d_54">
      <defs>
       <path d="
M0 0
L4 0" id="m728421d6d4" style="stroke:#000000;stroke-width:0.5;"/>
      </defs>
      <g>
       <use style="stroke:#000000;stroke-width:0.5;" x="66.7125" xlink:href="#m728421d6d4" y="344.8969875"/>
      </g>
     </g>
     <g id="line2d_55">
      <defs>
       <path d="
M0 0
L-4 0" id="mcb0005524f" style="stroke:#000000;stroke-width:0.5;"/>
      </defs>
      <g>
       <use style="stroke:#000000;stroke-width:0.5;" x="419.04" xlink:href="#mcb0005524f" y="344.8969875"/>
      </g>
     </g>
     <g id="text_7">
      <!-- −0.4 -->
      <g transform="translate(35.5175 348.2082375)scale(0.12 -0.12)">
       <use xlink:href="#DejaVuSans-2212"/>
       <use x="83.7890625" xlink:href="#DejaVuSans-30"/>
       <use x="147.412109375" xlink:href="#DejaVuSans-2e"/>
       <use x="179.19921875" xlink:href="#DejaVuSans-34"/>
      </g>
     </g>
    </g>
    <g id="ytick_2">
     <g id="line2d_56">
      <path clip-path="url(#p0d6c432f1e)" d="
M66.7125 271.133
L419.04 271.133" style="fill:none;stroke:#000000;stroke-dasharray:1.000000,3.000000;stroke-dashoffset:0.0;stroke-width:0.5;"/>
     </g>
     <g id="line2d_57">
      <g>
       <use style="stroke:#000000;stroke-width:0.5;" x="66.7125" xlink:href="#m728421d6d4" y="271.1332125"/>
      </g>
     </g>
     <g id="line2d_58">
      <g>
       <use style="stroke:#000000;stroke-width:0.5;" x="419.04" xlink:href="#mcb0005524f" y="271.1332125"/>
      </g>
     </g>
     <g id="text_8">
      <!-- −0.2 -->
      <g transform="translate(36.04625 274.4444625)scale(0.12 -0.12)">
       <use xlink:href="#DejaVuSans-2212"/>
       <use x="83.7890625" xlink:href="#DejaVuSans-30"/>
       <use x="147.412109375" xlink:href="#DejaVuSans-2e"/>
       <use x="179.19921875" xlink:href="#DejaVuSans-32"/>
      </g>
     </g>
    </g>
    <g id="ytick_3">
     <g id="line2d_59">
      <path clip-path="url(#p0d6c432f1e)" d="
M66.7125 197.369
L419.04 197.369" style="fill:none;stroke:#000000;stroke-dasharray:1.000000,3.000000;stroke-dashoffset:0.0;stroke-width:0.5;"/>
     </g>
     <g id="line2d_60">
      <g>
       <use style="stroke:#000000;stroke-width:0.5;" x="66.7125" xlink:href="#m728421d6d4" y="197.3694375"/>
      </g>
     </g>
     <g id="line2d_61">
      <g>
       <use style="stroke:#000000;stroke-width:0.5;" x="419.04" xlink:href="#mcb0005524f" y="197.3694375"/>
      </g>
     </g>
     <g id="text_9">
      <!-- 0.0 -->
      <g transform="translate(45.216875 200.6806875)scale(0.12 -0.12)">
       <use xlink:href="#DejaVuSans-30"/>
       <use x="63.623046875" xlink:href="#DejaVuSans-2e"/>
       <use x="95.41015625" xlink:href="#DejaVuSans-30"/>
      </g>
     </g>
    </g>
    <g id="ytick_4">
     <g id="line2d_62">
      <path clip-path="url(#p0d6c432f1e)" d="
M66.7125 123.606
L419.04 123.606" style="fill:none;stroke:#000000;stroke-dasharray:1.000000,3.000000;stroke-dashoffset:0.0;stroke-width:0.5;"/>
     </g>
     <g id="line2d_63">
      <g>
       <use style="stroke:#000000;stroke-width:0.5;" x="66.7125" xlink:href="#m728421d6d4" y="123.6056625"/>
      </g>
     </g>
     <g id="line2d_64">
      <g>
       <use style="stroke:#000000;stroke-width:0.5;" x="419.04" xlink:href="#mcb0005524f" y="123.6056625"/>
      </g>
     </g>
     <g id="text_10">
      <!-- 0.2 -->
      <g transform="translate(45.621875 126.9169125)scale(0.12 -0.12)">
       <use xlink:href="#DejaVuSans-30"/>
       <use x="63.623046875" xlink:href="#DejaVuSans-2e"/>
       <use x="95.41015625" xlink:href="#DejaVuSans-32"/>
      </g>
     </g>
    </g>
    <g id="ytick_5">
     <g id="line2d_65">
      <path clip-path="url(#p0d6c432f1e)" d="
M66.7125 49.8419
L419.04 49.8419" style="fill:none;stroke:#000000;stroke-dasharray:1.000000,3.000000;stroke-dashoffset:0.0;stroke-width:0.5;"/>
     </g>
     <g id="line2d_66">
      <g>
       <use style="stroke:#000000;stroke-width:0.5;" x="66.7125" xlink:href="#m728421d6d4" y="49.8418875"/>
      </g>
     </g>
     <g id="line2d_67">
      <g>
       <use style="stroke:#000000;stroke-width:0.5;" x="419.04" xlink:href="#mcb0005524f" y="49.8418875"/>
      </g>
     </g>
     <g id="text_11">
      <!-- 0.4 -->
      <g transform="translate(45.093125 53.1531375)scale(0.12 -0.12)">
       <use xlink:href="#DejaVuSans-30"/>
       <use x="63.623046875" xlink:href="#DejaVuSans-2e"/>
       <use x="95.41015625" xlink:href="#DejaVuSans-34"/>
      </g>
     </g>
    </g>
    <g id="ytick_6">
     <g id="line2d_68">
      <defs>
       <path d="
M0 0
L2 0" id="mf0c55a9a47" style="stroke:#000000;stroke-width:0.5;"/>
      </defs>
      <g>
       <use style="stroke:#000000;stroke-width:0.5;" x="66.7125" xlink:href="#mf0c55a9a47" y="363.33793125"/>
      </g>
     </g>
     <g id="line2d_69">
      <defs>
       <path d="
M0 0
L-2 0" id="ma4f294b3af" style="stroke:#000000;stroke-width:0.5;"/>
      </defs>
      <g>
       <use style="stroke:#000000;stroke-width:0.5;" x="419.04" xlink:href="#ma4f294b3af" y="363.33793125"/>
      </g>
     </g>
    </g>
    <g id="ytick_7">
     <g id="line2d_70">
      <g>
       <use style="stroke:#000000;stroke-width:0.5;" x="66.7125" xlink:href="#mf0c55a9a47" y="326.45604375"/>
      </g>
     </g>
     <g id="line2d_71">
      <g>
       <use style="stroke:#000000;stroke-width:0.5;" x="419.04" xlink:href="#ma4f294b3af" y="326.45604375"/>
      </g>
     </g>
    </g>
    <g id="ytick_8">
     <g id="line2d_72">
      <g>
       <use style="stroke:#000000;stroke-width:0.5;" x="66.7125" xlink:href="#mf0c55a9a47" y="308.0151"/>
      </g>
     </g>
     <g id="line2d_73">
      <g>
       <use style="stroke:#000000;stroke-width:0.5;" x="419.04" xlink:href="#ma4f294b3af" y="308.0151"/>
      </g>
     </g>
    </g>
    <g id="ytick_9">
     <g id="line2d_74">
      <g>
       <use style="stroke:#000000;stroke-width:0.5;" x="66.7125" xlink:href="#mf0c55a9a47" y="289.57415625"/>
      </g>
     </g>
     <g id="line2d_75">
      <g>
       <use style="stroke:#000000;stroke-width:0.5;" x="419.04" xlink:href="#ma4f294b3af" y="289.57415625"/>
      </g>
     </g>
    </g>
    <g id="ytick_10">
     <g id="line2d_76">
      <g>
       <use style="stroke:#000000;stroke-width:0.5;" x="66.7125" xlink:href="#mf0c55a9a47" y="271.1332125"/>
      </g>
     </g>
     <g id="line2d_77">
      <g>
       <use style="stroke:#000000;stroke-width:0.5;" x="419.04" xlink:href="#ma4f294b3af" y="271.1332125"/>
      </g>
     </g>
    </g>
    <g id="ytick_11">
     <g id="line2d_78">
      <g>
       <use style="stroke:#000000;stroke-width:0.5;" x="66.7125" xlink:href="#mf0c55a9a47" y="252.69226875"/>
      </g>
     </g>
     <g id="line2d_79">
      <g>
       <use style="stroke:#000000;stroke-width:0.5;" x="419.04" xlink:href="#ma4f294b3af" y="252.69226875"/>
      </g>
     </g>
    </g>
    <g id="ytick_12">
     <g id="line2d_80">
      <g>
       <use style="stroke:#000000;stroke-width:0.5;" x="66.7125" xlink:href="#mf0c55a9a47" y="234.251325"/>
      </g>
     </g>
     <g id="line2d_81">
      <g>
       <use style="stroke:#000000;stroke-width:0.5;" x="419.04" xlink:href="#ma4f294b3af" y="234.251325"/>
      </g>
     </g>
    </g>
    <g id="ytick_13">
     <g id="line2d_82">
      <g>
       <use style="stroke:#000000;stroke-width:0.5;" x="66.7125" xlink:href="#mf0c55a9a47" y="215.81038125"/>
      </g>
     </g>
     <g id="line2d_83">
      <g>
       <use style="stroke:#000000;stroke-width:0.5;" x="419.04" xlink:href="#ma4f294b3af" y="215.81038125"/>
      </g>
     </g>
    </g>
    <g id="ytick_14">
     <g id="line2d_84">
      <g>
       <use style="stroke:#000000;stroke-width:0.5;" x="66.7125" xlink:href="#mf0c55a9a47" y="197.3694375"/>
      </g>
     </g>
     <g id="line2d_85">
      <g>
       <use style="stroke:#000000;stroke-width:0.5;" x="419.04" xlink:href="#ma4f294b3af" y="197.3694375"/>
      </g>
     </g>
    </g>
    <g id="ytick_15">
     <g id="line2d_86">
      <g>
       <use style="stroke:#000000;stroke-width:0.5;" x="66.7125" xlink:href="#mf0c55a9a47" y="178.92849375"/>
      </g>
     </g>
     <g id="line2d_87">
      <g>
       <use style="stroke:#000000;stroke-width:0.5;" x="419.04" xlink:href="#ma4f294b3af" y="178.92849375"/>
      </g>
     </g>
    </g>
    <g id="ytick_16">
     <g id="line2d_88">
      <g>
       <use style="stroke:#000000;stroke-width:0.5;" x="66.7125" xlink:href="#mf0c55a9a47" y="160.48755"/>
      </g>
     </g>
     <g id="line2d_89">
      <g>
       <use style="stroke:#000000;stroke-width:0.5;" x="419.04" xlink:href="#ma4f294b3af" y="160.48755"/>
      </g>
     </g>
    </g>
    <g id="ytick_17">
     <g id="line2d_90">
      <g>
       <use style="stroke:#000000;stroke-width:0.5;" x="66.7125" xlink:href="#mf0c55a9a47" y="142.04660625"/>
      </g>
     </g>
     <g id="line2d_91">
      <g>
       <use style="stroke:#000000;stroke-width:0.5;" x="419.04" xlink:href="#ma4f294b3af" y="142.04660625"/>
      </g>
     </g>
    </g>
    <g id="ytick_18">
     <g id="line2d_92">
      <g>
       <use style="stroke:#000000;stroke-width:0.5;" x="66.7125" xlink:href="#mf0c55a9a47" y="123.6056625"/>
      </g>
     </g>
     <g id="line2d_93">
      <g>
       <use style="stroke:#000000;stroke-width:0.5;" x="419.04" xlink:href="#ma4f294b3af" y="123.6056625"/>
      </g>
     </g>
    </g>
    <g id="ytick_19">
     <g id="line2d_94">
      <g>
       <use style="stroke:#000000;stroke-width:0.5;" x="66.7125" xlink:href="#mf0c55a9a47" y="105.16471875"/>
      </g>
     </g>
     <g id="line2d_95">
      <g>
       <use style="stroke:#000000;stroke-width:0.5;" x="419.04" xlink:href="#ma4f294b3af" y="105.16471875"/>
      </g>
     </g>
    </g>
    <g id="ytick_20">
     <g id="line2d_96">
      <g>
       <use style="stroke:#000000;stroke-width:0.5;" x="66.7125" xlink:href="#mf0c55a9a47" y="86.723775"/>
      </g>
     </g>
     <g id="line2d_97">
      <g>
       <use style="stroke:#000000;stroke-width:0.5;" x="419.04" xlink:href="#ma4f294b3af" y="86.723775"/>
      </g>
     </g>
    </g>
    <g id="ytick_21">
     <g id="line2d_98">
      <g>
       <use style="stroke:#000000;stroke-width:0.5;" x="66.7125" xlink:href="#mf0c55a9a47" y="68.28283125"/>
      </g>
     </g>
     <g id="line2d_99">
      <g>
       <use style="stroke:#000000;stroke-width:0.5;" x="419.04" xlink:href="#ma4f294b3af" y="68.28283125"/>
      </g>
     </g>
    </g>
    <g id="ytick_22">
     <g id="line2d_100">
      <g>
       <use style="stroke:#000000;stroke-width:0.5;" x="66.7125" xlink:href="#mf0c55a9a47" y="49.8418875"/>
      </g>
     </g>
     <g id="line2d_101">
      <g>
       <use style="stroke:#000000;stroke-width:0.5;" x="419.04" xlink:href="#ma4f294b3af" y="49.8418875"/>
      </g>
     </g>
    </g>
    <g id="ytick_23">
     <g id="line2d_102">
      <g>
       <use style="stroke:#000000;stroke-width:0.5;" x="66.7125" xlink:href="#mf0c55a9a47" y="31.40094375"/>
      </g>
     </g>
     <g id="line2d_103">
      <g>
       <use style="stroke:#000000;stroke-width:0.5;" x="419.04" xlink:href="#ma4f294b3af" y="31.40094375"/>
      </g>
     </g>
    </g>
    <g id="text_12">
     <!-- $\mathcal{C}_{S}^{\prime}$ -->
     <defs>
      <path d="
M3.51562 5.42188
Q2.875 5.60938 2.875 6.39062
L15.0938 51.8125
Q15.6719 53.6562 17.0781 54.7812
Q18.5 55.9062 20.3125 55.9062
Q22.6562 55.9062 24.4375 54.3594
Q26.2188 52.8281 26.2188 50.4844
Q26.2188 49.4688 25.6875 48.1875
L7.625 4.98438
Q7.28125 4.29688 6.6875 4.29688
Q6.15625 4.29688 5 4.78125
Q3.85938 5.28125 3.51562 5.42188" id="Cmsy10-30"/>
     </defs>
     <g transform="translate(27.1575 203.1294375)rotate(-90.0)scale(0.12 -0.12)">
      <use transform="translate(0.0 0.859375)" xlink:href="#Cmsy10-43"/>
      <use transform="translate(52.587890625 45.865625)scale(0.7)" xlink:href="#Cmsy10-30"/>
      <use transform="translate(52.587890625 -24.65)scale(0.7)" xlink:href="#Cmmi10-53"/>
     </g>
    </g>
   </g>
   <g id="patch_3">
    <path d="
M66.7125 12.96
L419.04 12.96" style="fill:none;stroke:#000000;"/>
   </g>
   <g id="patch_4">
    <path d="
M419.04 381.779
L419.04 12.96" style="fill:none;stroke:#000000;"/>
   </g>
   <g id="patch_5">
    <path d="
M66.7125 381.779
L419.04 381.779" style="fill:none;stroke:#000000;"/>
   </g>
   <g id="patch_6">
    <path d="
M66.7125 381.779
L66.7125 12.96" style="fill:none;stroke:#000000;"/>
   </g>
  </g>
 </g>
 <defs>
  <clipPath id="p0d6c432f1e">
   <rect height="368.818875" width="352.3275" x="66.7125" y="12.96"/>
  </clipPath>
 </defs>
</svg>
