<?xml version="1.0" encoding="utf-8" standalone="no"?>
<!DOCTYPE svg PUBLIC "-//W3C//DTD SVG 1.1//EN"
  "http://www.w3.org/Graphics/SVG/1.1/DTD/svg11.dtd">
<!-- Created with matplotlib (http://matplotlib.org/) -->
<svg height="432pt" version="1.1" viewBox="0 0 432 432" width="432pt" xmlns="http://www.w3.org/2000/svg" xmlns:xlink="http://www.w3.org/1999/xlink">
 <defs>
  <style type="text/css">
*{stroke-linecap:butt;stroke-linejoin:round;}
  </style>
 </defs>
 <g id="figure_1">
  <g id="patch_1">
   <path d="
M0 432
L432 432
L432 0
L0 0
z
" style="fill:#ffffff;"/>
  </g>
  <g id="axes_1">
   <g id="patch_2">
    <path d="
M64.7336 381.779
L419.04 381.779
L419.04 19.26
L64.7336 19.26
z
" style="fill:#ffffff;"/>
   </g>
   <g id="PathCollection_1">
    <defs>
     <path d="
M64.7336 -50.2211
L71.9644 -50.2211
L79.1951 -50.2211
L86.4259 -50.2211
L93.6566 -50.2211
L100.887 -50.2211
L108.118 -50.2211
L115.349 -50.2211
L122.58 -50.2211
L129.81 -50.2211
L137.041 -50.2211
L144.272 -50.2211
L151.503 -50.2211
L158.733 -50.2211
L165.964 -50.2211
L173.195 -50.2211
L180.426 -50.2211
L187.656 -50.2211
L194.887 -50.2211
L202.118 -50.2211
L209.348 -50.2211
L216.579 -50.2211
L223.81 -50.2211
L231.041 -50.2211
L238.271 -50.2211
L245.502 -50.2211
L252.733 -50.2211
L259.964 -50.2211
L267.194 -50.2211
L274.425 -50.2211
L281.656 -50.2211
L288.887 -50.2211
L296.117 -50.2211
L303.348 -50.2211
L310.579 -50.2211
L317.81 -50.2211
L325.04 -50.2211
L332.271 -50.2211
L339.502 -50.2211
L346.733 -50.2211
L353.963 -50.2211
L361.194 -50.2211
L368.425 -50.2211
L375.656 -50.2211
L382.886 -50.2211
L390.117 -50.2211
L397.348 -50.2211
L404.579 -50.2211
L411.809 -50.2211
L419.04 -50.2211
L419.04 -57.6195
L419.04 -65.0178
L419.04 -72.4162
L419.04 -79.8145
L419.04 -87.2128
L419.04 -94.6112
L419.04 -102.01
L419.04 -109.408
L419.04 -116.806
L419.04 -124.205
L419.04 -131.603
L419.04 -139.001
L419.04 -146.4
L419.04 -153.798
L419.04 -161.196
L419.04 -168.595
L419.04 -175.993
L419.04 -183.391
L419.04 -190.79
L419.04 -198.188
L419.04 -205.586
L419.04 -212.985
L419.04 -220.383
L419.04 -227.781
L419.04 -235.18
L419.04 -242.578
L419.04 -249.976
L419.04 -257.375
L419.04 -264.773
L419.04 -272.171
L419.04 -279.57
L419.04 -286.968
L419.04 -294.366
L419.04 -301.765
L419.04 -309.163
L419.04 -316.562
L419.04 -323.96
L419.04 -331.358
L419.04 -338.757
L419.04 -346.155
L419.04 -353.553
L419.04 -360.952
L419.04 -368.35
L419.04 -375.748
L419.04 -383.147
L419.04 -390.545
L419.04 -397.943
L419.04 -405.342
L419.04 -412.74
L411.809 -412.74
L404.579 -412.74
L397.348 -412.74
L390.117 -412.74
L382.886 -412.74
L375.656 -412.74
L368.425 -412.74
L361.194 -412.74
L353.963 -412.74
L346.733 -412.74
L339.502 -412.74
L332.271 -412.74
L325.04 -412.74
L317.81 -412.74
L310.579 -412.74
L303.348 -412.74
L296.117 -412.74
L288.887 -412.74
L281.656 -412.74
L274.425 -412.74
L267.194 -412.74
L259.964 -412.74
L252.733 -412.74
L245.502 -412.74
L238.271 -412.74
L231.041 -412.74
L223.81 -412.74
L216.579 -412.74
L209.348 -412.74
L202.118 -412.74
L194.887 -412.74
L187.656 -412.74
L180.426 -412.74
L173.195 -412.74
L165.964 -412.74
L158.733 -412.74
L151.503 -412.74
L144.272 -412.74
L137.041 -412.74
L129.81 -412.74
L122.58 -412.74
L115.349 -412.74
L108.118 -412.74
L100.887 -412.74
L93.6566 -412.74
L86.4259 -412.74
L79.1951 -412.74
L71.9644 -412.74
L64.7336 -412.74
L64.7336 -405.342
L64.7336 -397.943
L64.7336 -390.545
L64.7336 -383.147
L64.7336 -375.748
L64.7336 -368.35
L64.7336 -360.952
L64.7336 -353.553
L64.7336 -346.155
L64.7336 -338.757
L64.7336 -331.358
L64.7336 -323.96
L64.7336 -316.562
L64.7336 -309.163
L64.7336 -301.765
L64.7336 -294.366
L64.7336 -286.968
L64.7336 -279.57
L64.7336 -272.171
L64.7336 -264.773
L64.7336 -257.375
L64.7336 -249.976
L64.7336 -242.578
L64.7336 -235.18
L64.7336 -227.781
L64.7336 -220.383
L64.7336 -212.985
L64.7336 -205.586
L64.7336 -198.188
L64.7336 -190.79
L64.7336 -183.391
L64.7336 -175.993
L64.7336 -168.595
L64.7336 -161.196
L64.7336 -153.798
L64.7336 -146.4
L64.7336 -139.001
L64.7336 -131.603
L64.7336 -124.205
L64.7336 -116.806
L64.7336 -109.408
L64.7336 -102.01
L64.7336 -94.6112
L64.7336 -87.2128
L64.7336 -79.8145
L64.7336 -72.4162
L64.7336 -65.0178
L64.7336 -57.6195
L64.7336 -50.2211
M108.118 -197.281
L107.4 -198.188
L108.118 -199.542
L109.865 -198.188
L108.118 -197.281
M108.118 -212.149
L107.723 -212.985
L108.118 -213.496
L109.043 -212.985
L108.118 -212.149
M108.118 -245.53
L103.246 -249.976
L108.118 -256.78
L113.436 -249.976
L108.118 -245.53
M137.041 -123.707
L136.577 -124.205
L137.041 -124.791
L137.575 -124.205
L137.041 -123.707
M202.118 -71.5202
L201.206 -72.4162
L202.118 -73.3397
L203.028 -72.4162
L202.118 -71.5202
M202.118 -93.8822
L199.788 -94.6112
L202.118 -95.7094
L203.378 -94.6112
L202.118 -93.8822
M209.348 -84.7953
L206.96 -87.2128
L209.348 -90.8228
L213.027 -87.2128
L209.348 -84.7953
M252.733 -94.269
L251.872 -94.6112
L245.502 -95.9283
L239.586 -102.01
L238.271 -102.728
L231.041 -103.353
L225.243 -102.01
L223.81 -100.529
L216.579 -100.945
L214.42 -102.01
L209.348 -108.327
L206.532 -109.408
L202.118 -110.257
L200.942 -109.408
L196.407 -102.01
L194.887 -98.8978
L192.506 -102.01
L188.485 -109.408
L187.656 -109.726
L185.117 -109.408
L180.426 -108.079
L179.436 -109.408
L173.195 -111.011
L167.084 -116.806
L173.195 -123.594
L177.401 -124.205
L173.195 -127.469
L169.987 -131.603
L165.964 -134.385
L158.733 -137.03
L154.863 -139.001
L152.469 -146.4
L151.503 -147.012
L145.04 -153.798
L150.344 -161.196
L144.272 -162.552
L137.041 -162.803
L131.319 -168.595
L129.81 -170.277
L129.419 -168.595
L122.58 -162.528
L116.391 -168.595
L119.734 -175.993
L122.58 -179.927
L129.81 -182.241
L131.033 -183.391
L129.81 -184.467
L123.675 -190.79
L125.038 -198.188
L122.58 -202.204
L116.472 -205.586
L117.449 -212.985
L115.349 -216.168
L112.449 -220.383
L115.349 -225.146
L118.143 -227.781
L122.58 -233.103
L123.942 -235.18
L122.58 -240.103
L121.84 -242.578
L117.731 -249.976
L122.58 -254.488
L125.502 -257.375
L129.81 -263.784
L131.815 -264.773
L129.81 -266.092
L122.58 -270.047
L121.097 -272.171
L115.349 -276.916
L113.188 -279.57
L114.543 -286.968
L115.349 -287.938
L122.58 -291.133
L127.638 -286.968
L129.81 -284.839
L133.546 -286.968
L137.041 -292.363
L141.9 -294.366
L137.041 -295.053
L129.81 -296.322
L122.58 -296.126
L117.009 -301.765
L122.58 -307.425
L129.81 -306.538
L136.455 -309.163
L129.81 -310.717
L124.24 -316.562
L129.81 -321.993
L135.459 -316.562
L137.041 -309.735
L144.272 -315.592
L151.503 -312.885
L153.337 -316.562
L152.818 -323.96
L151.503 -326.921
L149.445 -331.358
L151.503 -336.229
L152.306 -338.757
L158.733 -342.39
L163.695 -338.757
L165.964 -337.448
L173.195 -333.831
L177.611 -338.757
L180.426 -344.471
L184.237 -346.155
L187.656 -346.591
L191.681 -346.155
L194.887 -346.009
L195.06 -346.155
L194.887 -346.971
L192.811 -353.553
L187.656 -360.952
L194.887 -362.666
L198.176 -360.952
L202.118 -359.536
L209.348 -356.727
L216.156 -360.952
L214.163 -368.35
L216.579 -370.226
L218.586 -368.35
L217.412 -360.952
L223.81 -359.666
L225.037 -360.952
L227.996 -368.35
L231.041 -371.439
L238.271 -369.396
L239.303 -368.35
L245.502 -362.24
L252.2 -360.952
L252.733 -360.901
L252.881 -360.952
L259.964 -363.613
L267.194 -367.003
L274.425 -364.748
L277.039 -360.952
L281.656 -355.325
L287.92 -360.952
L288.887 -361.984
L293.219 -360.952
L292.966 -353.553
L296.117 -353.34
L303.348 -349.78
L310.579 -347.598
L314.098 -346.155
L315.265 -338.757
L317.81 -332.765
L318.872 -331.358
L325.04 -328.295
L329.435 -331.358
L332.271 -338.285
L332.555 -338.757
L339.502 -341.411
L342.792 -338.757
L339.502 -335.864
L334.279 -331.358
L339.502 -327.601
L344.932 -323.96
L339.502 -317.565
L338.902 -316.562
L339.502 -316.163
L346.733 -312.499
L349.004 -316.562
L353.963 -319.914
L358.417 -316.562
L357.076 -309.163
L361.194 -302.803
L362.349 -301.765
L364.049 -294.366
L361.194 -289.446
L360.266 -286.968
L358.397 -279.57
L361.194 -279.188
L366.389 -272.171
L367.643 -264.773
L368.425 -260.131
L375.482 -264.773
L372.245 -272.171
L375.656 -273.644
L378.236 -272.171
L375.689 -264.773
L382.886 -257.922
L383.334 -257.375
L382.886 -256.89
L376.056 -249.976
L375.656 -248.463
L373.454 -242.578
L374.811 -235.18
L368.425 -229.566
L367.688 -227.781
L368.425 -222.212
L375.656 -226.583
L382.886 -224.726
L387.253 -220.383
L390.117 -216.373
L393.627 -212.985
L390.117 -210.626
L387.252 -212.985
L382.886 -216.373
L375.656 -216.232
L368.425 -217.576
L367.375 -212.985
L365.396 -205.586
L368.425 -203.066
L374.036 -198.188
L369.968 -190.79
L368.425 -183.874
L368.221 -183.391
L361.194 -178.821
L353.963 -177.562
L353.084 -175.993
L353.963 -175.032
L358.811 -168.595
L353.963 -162.301
L350.091 -161.196
L346.733 -160.127
L340.66 -153.798
L339.502 -151.035
L338.414 -146.4
L332.271 -140.314
L328.927 -139.001
L332.271 -132.652
L332.894 -131.603
L332.271 -131.05
L328.771 -124.205
L325.04 -118.948
L320.12 -124.205
L317.81 -125.528
L315.837 -124.205
L310.579 -117.701
L308.243 -116.806
L307.02 -109.408
L305.548 -102.01
L303.348 -99.5255
L300.963 -102.01
L296.117 -107.785
L290.752 -102.01
L288.887 -97.7284
L281.656 -99.3707
L274.425 -99.0501
L271.014 -94.6112
L267.194 -91.1081
L262.878 -94.6112
L265.616 -102.01
L259.964 -103.23
L252.733 -103.864
L251.537 -102.01
L252.733 -95.5634
L253.137 -94.6112
L252.733 -94.269
M144.272 -344.118
L142.635 -346.155
L144.272 -347.764
L145.952 -346.155
L144.272 -344.118
M180.426 -355.772
L177.066 -360.952
L180.426 -365.629
L187.656 -360.952
L180.426 -355.772
M223.81 -373.718
L221.997 -375.748
L223.81 -377.909
L225.774 -375.748
L223.81 -373.718
M303.348 -360.529
L300.864 -360.952
L303.348 -361.228
L303.669 -360.952
L303.348 -360.529
M317.81 -359.179
L315.882 -360.952
L317.81 -362.425
L319.405 -360.952
L317.81 -359.179
M325.04 -345.964
L323.813 -346.155
L325.04 -347.05
L325.218 -346.155
L325.04 -345.964
M353.963 -360.161
L353.229 -360.952
L353.963 -361.695
L354.688 -360.952
L353.963 -360.161
M368.425 -337.322
L366.898 -338.757
L368.425 -340.214
L369.91 -338.757
L368.425 -337.322
M375.656 -280.976
L369.424 -286.968
L375.656 -293.758
L381.717 -286.968
L375.656 -280.976
M390.117 -285.442
L388.381 -286.968
L390.117 -288.347
L391.747 -286.968
L390.117 -285.442
M339.502 -119.952
L335.487 -124.205
L339.502 -128.591
L342.842 -124.205
L339.502 -119.952
M346.733 -132.632
L341.495 -139.001
L346.733 -144.246
L352.671 -139.001
L346.733 -132.632
M361.194 -134.792
L355.333 -139.001
L361.194 -143.912
L365.914 -139.001
L361.194 -134.792
M368.425 -159.968
L366.618 -161.196
L367.262 -168.595
L368.425 -169.215
L369.714 -168.595
L369.688 -161.196
L368.425 -159.968
M404.579 -241.012
L402.91 -242.578
L404.579 -244.162
L406.1 -242.578
L404.579 -241.012" id="C0_0_7ffd6dc137"/>
     <path d="
M180.426 -111.489
L181.69 -116.806
L180.426 -121.497
L179.697 -116.806
L180.426 -111.489" id="C0_1_a7f74961a2"/>
     <path d="
M194.887 -122.857
L196.37 -124.205
L194.887 -125.223
L194.016 -124.205
L194.887 -122.857" id="C0_2_5e26c7df2c"/>
     <path d="
M137.041 -188.437
L138.172 -190.79
L137.041 -193.506
L135.012 -190.79
L137.041 -188.437" id="C0_3_1c31746ea6"/>
     <path d="
M361.194 -188.062
L365.416 -190.79
L362.825 -198.188
L361.194 -200.326
L360.538 -198.188
L360.002 -190.79
L361.194 -188.062" id="C0_4_36d530a70b"/>
     <path d="
M129.81 -242.534
L129.947 -242.578
L129.81 -242.72
L129.46 -242.578
L129.81 -242.534" id="C0_5_7d75888d54"/>
     <path d="
M317.81 -323.732
L318.479 -323.96
L317.81 -327.335
L317.789 -323.96
L317.81 -323.732" id="C0_6_f32d33f09d"/>
     <path d="
M158.733 -328.977
L159.737 -331.358
L158.733 -333.248
L154.485 -331.358
L158.733 -328.977" id="C0_7_ea17efb0b1"/>
    </defs>
    <g clip-path="url(#pbfea867bdf)">
     <use style="fill:#ffffff;" x="0.0" xlink:href="#C0_0_7ffd6dc137" y="432.0"/>
    </g>
    <g clip-path="url(#pbfea867bdf)">
     <use style="fill:#ffffff;" x="0.0" xlink:href="#C0_1_a7f74961a2" y="432.0"/>
    </g>
    <g clip-path="url(#pbfea867bdf)">
     <use style="fill:#ffffff;" x="0.0" xlink:href="#C0_2_5e26c7df2c" y="432.0"/>
    </g>
    <g clip-path="url(#pbfea867bdf)">
     <use style="fill:#ffffff;" x="0.0" xlink:href="#C0_3_1c31746ea6" y="432.0"/>
    </g>
    <g clip-path="url(#pbfea867bdf)">
     <use style="fill:#ffffff;" x="0.0" xlink:href="#C0_4_36d530a70b" y="432.0"/>
    </g>
    <g clip-path="url(#pbfea867bdf)">
     <use style="fill:#ffffff;" x="0.0" xlink:href="#C0_5_7d75888d54" y="432.0"/>
    </g>
    <g clip-path="url(#pbfea867bdf)">
     <use style="fill:#ffffff;" x="0.0" xlink:href="#C0_6_f32d33f09d" y="432.0"/>
    </g>
    <g clip-path="url(#pbfea867bdf)">
     <use style="fill:#ffffff;" x="0.0" xlink:href="#C0_7_ea17efb0b1" y="432.0"/>
    </g>
   </g>
   <g id="PathCollection_2">
    <defs>
     <path d="
M202.118 -71.5202
L203.028 -72.4162
L202.118 -73.3397
L201.206 -72.4162
L202.118 -71.5202" id="C1_0_ae164bcbe9"/>
     <path d="
M209.348 -84.7953
L213.027 -87.2128
L209.348 -90.8228
L206.96 -87.2128
L209.348 -84.7953" id="C1_1_64e571a3f7"/>
     <path d="
M202.118 -93.8822
L203.378 -94.6112
L202.118 -95.7094
L199.788 -94.6112
L202.118 -93.8822" id="C1_2_69d8e42181"/>
     <path d="
M252.733 -94.269
L253.137 -94.6112
L252.733 -95.5634
L251.537 -102.01
L252.733 -103.864
L259.964 -103.23
L265.616 -102.01
L262.878 -94.6112
L267.194 -91.1081
L271.014 -94.6112
L274.425 -99.0501
L281.656 -99.3707
L288.887 -97.7284
L290.752 -102.01
L296.117 -107.785
L300.963 -102.01
L303.348 -99.5255
L305.548 -102.01
L307.02 -109.408
L308.243 -116.806
L310.579 -117.701
L315.837 -124.205
L317.81 -125.528
L320.12 -124.205
L325.04 -118.948
L328.771 -124.205
L332.271 -131.05
L332.894 -131.603
L332.271 -132.652
L328.927 -139.001
L332.271 -140.314
L338.414 -146.4
L339.502 -151.035
L340.66 -153.798
L346.733 -160.127
L350.091 -161.196
L353.963 -162.301
L358.811 -168.595
L353.963 -175.032
L353.084 -175.993
L353.963 -177.562
L361.194 -178.821
L368.221 -183.391
L368.425 -183.874
L369.968 -190.79
L374.036 -198.188
L368.425 -203.066
L365.396 -205.586
L367.375 -212.985
L368.425 -217.576
L375.656 -216.232
L382.886 -216.373
L387.252 -212.985
L390.117 -210.626
L393.627 -212.985
L390.117 -216.373
L387.253 -220.383
L382.886 -224.726
L375.656 -226.583
L368.425 -222.212
L367.688 -227.781
L368.425 -229.566
L374.811 -235.18
L373.454 -242.578
L375.656 -248.463
L376.056 -249.976
L382.886 -256.89
L383.334 -257.375
L382.886 -257.922
L375.689 -264.773
L378.236 -272.171
L375.656 -273.644
L372.245 -272.171
L375.482 -264.773
L368.425 -260.131
L367.643 -264.773
L366.389 -272.171
L361.194 -279.188
L358.397 -279.57
L360.266 -286.968
L361.194 -289.446
L364.049 -294.366
L362.349 -301.765
L361.194 -302.803
L357.076 -309.163
L358.417 -316.562
L353.963 -319.914
L349.004 -316.562
L346.733 -312.499
L339.502 -316.163
L338.902 -316.562
L339.502 -317.565
L344.932 -323.96
L339.502 -327.601
L334.279 -331.358
L339.502 -335.864
L342.792 -338.757
L339.502 -341.411
L332.555 -338.757
L332.271 -338.285
L329.435 -331.358
L325.04 -328.295
L318.872 -331.358
L317.81 -332.765
L315.265 -338.757
L314.098 -346.155
L310.579 -347.598
L303.348 -349.78
L296.117 -353.34
L292.966 -353.553
L293.219 -360.952
L288.887 -361.984
L287.92 -360.952
L281.656 -355.325
L277.039 -360.952
L274.425 -364.748
L267.194 -367.003
L259.964 -363.613
L252.881 -360.952
L252.733 -360.901
L252.2 -360.952
L245.502 -362.24
L239.303 -368.35
L238.271 -369.396
L231.041 -371.439
L227.996 -368.35
L225.037 -360.952
L223.81 -359.666
L217.412 -360.952
L218.586 -368.35
L216.579 -370.226
L214.163 -368.35
L216.156 -360.952
L209.348 -356.727
L202.118 -359.536
L198.176 -360.952
L194.887 -362.666
L187.656 -360.952
L192.811 -353.553
L194.887 -346.971
L195.06 -346.155
L194.887 -346.009
L191.681 -346.155
L187.656 -346.591
L184.237 -346.155
L180.426 -344.471
L177.611 -338.757
L173.195 -333.831
L165.964 -337.448
L163.695 -338.757
L158.733 -342.39
L152.306 -338.757
L151.503 -336.229
L149.445 -331.358
L151.503 -326.921
L152.818 -323.96
L153.337 -316.562
L151.503 -312.885
L144.272 -315.592
L137.041 -309.735
L135.459 -316.562
L129.81 -321.993
L124.24 -316.562
L129.81 -310.717
L136.455 -309.163
L129.81 -306.538
L122.58 -307.425
L117.009 -301.765
L122.58 -296.126
L129.81 -296.322
L137.041 -295.053
L141.9 -294.366
L137.041 -292.363
L133.546 -286.968
L129.81 -284.839
L127.638 -286.968
L122.58 -291.133
L115.349 -287.938
L114.543 -286.968
L113.188 -279.57
L115.349 -276.916
L121.097 -272.171
L122.58 -270.047
L129.81 -266.092
L131.815 -264.773
L129.81 -263.784
L125.502 -257.375
L122.58 -254.488
L117.731 -249.976
L121.84 -242.578
L122.58 -240.103
L123.942 -235.18
L122.58 -233.103
L118.143 -227.781
L115.349 -225.146
L112.449 -220.383
L115.349 -216.168
L117.449 -212.985
L116.472 -205.586
L122.58 -202.204
L125.038 -198.188
L123.675 -190.79
L129.81 -184.467
L131.033 -183.391
L129.81 -182.241
L122.58 -179.927
L119.734 -175.993
L116.391 -168.595
L122.58 -162.528
L129.419 -168.595
L129.81 -170.277
L131.319 -168.595
L137.041 -162.803
L144.272 -162.552
L150.344 -161.196
L145.04 -153.798
L151.503 -147.012
L152.469 -146.4
L154.863 -139.001
L158.733 -137.03
L165.964 -134.385
L169.987 -131.603
L173.195 -127.469
L177.401 -124.205
L173.195 -123.594
L167.084 -116.806
L173.195 -111.011
L179.436 -109.408
L180.426 -108.079
L185.117 -109.408
L187.656 -109.726
L188.485 -109.408
L192.506 -102.01
L194.887 -98.8978
L196.407 -102.01
L200.942 -109.408
L202.118 -110.257
L206.532 -109.408
L209.348 -108.327
L214.42 -102.01
L216.579 -100.945
L223.81 -100.529
L225.243 -102.01
L231.041 -103.353
L238.271 -102.728
L239.586 -102.01
L245.502 -95.9283
L251.872 -94.6112
L252.733 -94.269
M259.964 -126.629
L255.081 -131.603
L259.964 -135.718
L264.907 -131.603
L259.964 -126.629
M274.425 -138.441
L273.114 -139.001
L274.425 -141.815
L275.637 -139.001
L274.425 -138.441
M317.81 -143.41
L313.205 -146.4
L317.81 -151.305
L320.992 -146.4
L317.81 -143.41
M332.271 -188.115
L327.758 -190.79
L332.271 -194.475
L335.103 -190.79
L332.271 -188.115
M339.502 -254.462
L335.731 -257.375
L339.502 -261.015
L341.354 -257.375
L339.502 -254.462
M346.733 -239.531
L343.286 -242.578
L346.733 -246.525
L349.926 -242.578
L346.733 -239.531
M361.194 -188.062
L360.002 -190.79
L360.538 -198.188
L361.194 -200.326
L362.825 -198.188
L365.416 -190.79
L361.194 -188.062
M129.81 -218.222
L128.004 -220.383
L129.81 -223.707
L131.954 -220.383
L129.81 -218.222
M129.81 -242.534
L129.46 -242.578
L129.81 -242.72
L129.947 -242.578
L129.81 -242.534
M137.041 -175.615
L136.681 -175.993
L137.041 -176.353
L142.437 -175.993
L137.041 -175.615
M137.041 -188.437
L135.012 -190.79
L137.041 -193.506
L138.172 -190.79
L137.041 -188.437
M165.964 -167.61
L164.92 -168.595
L164.553 -175.993
L164.845 -183.391
L165.964 -183.597
L167.418 -183.391
L168.334 -175.993
L172.213 -168.595
L165.964 -167.61
M180.426 -111.489
L179.697 -116.806
L180.426 -121.497
L181.69 -116.806
L180.426 -111.489
M180.426 -159.429
L179.181 -161.196
L180.426 -166.413
L181.113 -161.196
L180.426 -159.429
M194.887 -122.857
L194.016 -124.205
L194.887 -125.223
L196.37 -124.205
L194.887 -122.857
M209.348 -125.527
L206.689 -131.603
L209.348 -134.707
L212.189 -131.603
L209.348 -125.527
M223.81 -131.389
L223.764 -131.603
L223.81 -131.746
L223.941 -131.603
L223.81 -131.389
M238.271 -133.231
L232.816 -139.001
L231.984 -146.4
L231.041 -147.062
L228.341 -146.4
L223.81 -142.677
L217.334 -146.4
L216.579 -147.015
L209.348 -146.898
L202.735 -146.4
L202.118 -146.314
L201.947 -146.4
L194.887 -152.175
L192.918 -153.798
L194.887 -156.848
L202.118 -160.611
L202.813 -161.196
L202.118 -161.342
L194.887 -163.663
L187.656 -167.262
L181.632 -168.595
L180.426 -168.772
L175.036 -175.993
L174.564 -183.391
L180.426 -187.166
L182.703 -190.79
L180.426 -191.698
L173.195 -194.191
L171.545 -198.188
L165.964 -199.989
L160.216 -205.586
L158.733 -208.95
L155.421 -212.985
L151.503 -216.445
L147.785 -220.383
L148.376 -227.781
L144.272 -230.748
L138.76 -235.18
L144.272 -238.552
L148.453 -235.18
L151.503 -230.825
L157.284 -235.18
L155.907 -242.578
L152.44 -249.976
L158.733 -256.549
L160.934 -257.375
L164.35 -264.773
L163.382 -272.171
L165.964 -275.916
L168.151 -279.57
L165.964 -284.731
L164.523 -286.968
L165.964 -287.985
L167.414 -286.968
L173.195 -283.798
L178.053 -286.968
L176.176 -294.366
L180.426 -299.723
L187.656 -301.451
L188.073 -301.765
L194.887 -305.511
L199.686 -309.163
L202.118 -313.102
L209.348 -315.503
L213.42 -316.562
L216.579 -317.679
L220.065 -316.562
L216.579 -312.91
L215.731 -309.163
L216.579 -308.448
L223.81 -307.879
L224.889 -309.163
L224.566 -316.562
L231.041 -321.942
L237.685 -316.562
L238.271 -314.354
L245.502 -316.233
L246.625 -316.562
L245.502 -319.59
L241.751 -323.96
L239.868 -331.358
L245.502 -337.344
L251.251 -331.358
L247.209 -323.96
L252.733 -320.543
L254.21 -323.96
L259.964 -329.607
L260.425 -331.358
L267.194 -337.638
L273.573 -331.358
L267.194 -324.352
L265.728 -323.96
L259.964 -316.792
L259.261 -316.562
L259.964 -316.288
L267.194 -313.709
L273.872 -316.562
L274.425 -317.039
L281.656 -319.429
L286.638 -316.562
L283.591 -309.163
L288.887 -303.711
L296.117 -306.557
L300.835 -309.163
L303.348 -311.677
L308.422 -309.163
L310.579 -302.383
L310.692 -301.765
L317.81 -296.527
L320.786 -294.366
L325.04 -288.376
L326.548 -286.968
L325.04 -285.588
L317.81 -284.259
L317.156 -286.968
L310.579 -287.644
L308.65 -286.968
L306.883 -279.57
L310.579 -278.124
L315.628 -272.171
L317.81 -266.974
L319.431 -264.773
L317.81 -262.856
L310.579 -257.756
L310.081 -257.375
L310.579 -256.912
L317.344 -249.976
L317.81 -249.736
L318.343 -249.976
L325.04 -255.123
L330.545 -249.976
L330.65 -242.578
L331.024 -235.18
L327.504 -227.781
L326.366 -220.383
L325.04 -218.452
L322.41 -212.985
L325.04 -208.762
L331.633 -212.985
L332.271 -213.413
L334.45 -212.985
L332.708 -205.586
L332.271 -204.977
L327.002 -198.188
L325.04 -195.349
L323.702 -190.79
L325.04 -183.773
L325.172 -183.391
L325.04 -183.247
L324.801 -183.391
L317.81 -185.354
L315.816 -183.391
L312.602 -175.993
L315.6 -168.595
L310.579 -163.625
L307.003 -161.196
L303.348 -157.688
L297.091 -161.196
L296.117 -161.877
L293.556 -161.196
L295.167 -153.798
L288.887 -148.808
L283.968 -153.798
L281.656 -154.191
L278.059 -153.798
L274.425 -149.682
L270.977 -146.4
L267.194 -144.301
L259.964 -142.518
L254.775 -146.4
L252.733 -149.9
L251.243 -146.4
L247.303 -139.001
L245.502 -138.736
L238.271 -133.231
M158.733 -328.977
L154.485 -331.358
L158.733 -333.248
L159.737 -331.358
L158.733 -328.977
M209.348 -337.681
L209.103 -338.757
L209.348 -339.173
L209.846 -338.757
L209.348 -337.681
M223.81 -332.775
L218.616 -338.757
L223.81 -342.767
L229.625 -338.757
L223.81 -332.775
M259.964 -340.751
L256.846 -346.155
L259.964 -348.993
L263.278 -346.155
L259.964 -340.751
M310.579 -316.888
L304.057 -323.96
L310.579 -330.319
L316.763 -323.96
L310.579 -316.888
M317.81 -323.732
L317.789 -323.96
L317.81 -327.335
L318.479 -323.96
L317.81 -323.732
M325.04 -268.051
L320.354 -272.171
L325.04 -276.088
L329.306 -272.171
L325.04 -268.051" id="C1_3_8b634a7abe"/>
     <path d="
M137.041 -123.707
L137.575 -124.205
L137.041 -124.791
L136.577 -124.205
L137.041 -123.707" id="C1_4_4f5daec916"/>
     <path d="
M339.502 -119.952
L342.842 -124.205
L339.502 -128.591
L335.487 -124.205
L339.502 -119.952" id="C1_5_79cfdee729"/>
     <path d="
M346.733 -132.632
L352.671 -139.001
L346.733 -144.246
L341.495 -139.001
L346.733 -132.632" id="C1_6_647f39c7b4"/>
     <path d="
M361.194 -134.792
L365.914 -139.001
L361.194 -143.912
L355.333 -139.001
L361.194 -134.792" id="C1_7_32fa521867"/>
     <path d="
M368.425 -159.968
L369.688 -161.196
L369.714 -168.595
L368.425 -169.215
L367.262 -168.595
L366.618 -161.196
L368.425 -159.968" id="C1_8_b0ee6e035e"/>
     <path d="
M281.656 -168.172
L282.66 -168.595
L281.656 -170.715
L280.156 -168.595
L281.656 -168.172" id="C1_9_3a44daee3b"/>
     <path d="
M296.117 -174.608
L297.708 -175.993
L296.117 -176.768
L294.924 -175.993
L296.117 -174.608" id="C1_a_e6b61ff72c"/>
     <path d="
M108.118 -197.281
L109.865 -198.188
L108.118 -199.542
L107.4 -198.188
L108.118 -197.281" id="C1_b_f8df7fb9a1"/>
     <path d="
M173.195 -203.143
L173.986 -205.586
L173.195 -206.671
L172.871 -205.586
L173.195 -203.143" id="C1_c_74accd5c95"/>
     <path d="
M108.118 -212.149
L109.043 -212.985
L108.118 -213.496
L107.723 -212.985
L108.118 -212.149" id="C1_d_f46d78b196"/>
     <path d="
M158.733 -217.343
L165.964 -214.023
L167.742 -220.383
L165.964 -222.67
L158.733 -226.105
L156.265 -220.383
L158.733 -217.343" id="C1_e_28190ae3ce"/>
     <path d="
M310.579 -235.18
L310.579 -235.18
L310.579 -235.18
L310.579 -235.18
L310.579 -235.18" id="C1_f_b4817fe138"/>
     <path d="
M404.579 -241.012
L406.1 -242.578
L404.579 -244.162
L402.91 -242.578
L404.579 -241.012" id="C1_10_45d5620b16"/>
     <path d="
M108.118 -245.53
L113.436 -249.976
L108.118 -256.78
L103.246 -249.976
L108.118 -245.53" id="C1_11_f78d498141"/>
     <path d="
M165.964 -247.495
L166.785 -249.976
L165.964 -251.477
L165.472 -249.976
L165.964 -247.495" id="C1_12_ca3f490036"/>
     <path d="
M194.887 -286.654
L195.278 -286.968
L195.33 -294.366
L194.887 -295.018
L194.415 -294.366
L194.716 -286.968
L194.887 -286.654" id="C1_13_37391c0e52"/>
     <path d="
M375.656 -280.976
L381.717 -286.968
L375.656 -293.758
L369.424 -286.968
L375.656 -280.976
M375.656 -286.161
L374.816 -286.968
L375.656 -287.883
L376.472 -286.968
L375.656 -286.161" id="C1_14_435eb54b35"/>
     <path d="
M390.117 -285.442
L391.747 -286.968
L390.117 -288.347
L388.381 -286.968
L390.117 -285.442" id="C1_15_ccecdd3cde"/>
     <path d="
M288.887 -293.944
L290.037 -294.366
L288.887 -295.37
L288.424 -294.366
L288.887 -293.944" id="C1_16_2c640c862f"/>
     <path d="
M303.348 -300.303
L309.077 -301.765
L303.348 -302.719
L303.051 -301.765
L303.348 -300.303" id="C1_17_5c21262f4c"/>
     <path d="
M368.425 -337.322
L369.91 -338.757
L368.425 -340.214
L366.898 -338.757
L368.425 -337.322" id="C1_18_235dbbbbe8"/>
     <path d="
M144.272 -344.118
L145.952 -346.155
L144.272 -347.764
L142.635 -346.155
L144.272 -344.118" id="C1_19_f0b7fad676"/>
     <path d="
M325.04 -345.964
L325.218 -346.155
L325.04 -347.05
L323.813 -346.155
L325.04 -345.964" id="C1_1a_19296af6d0"/>
     <path d="
M180.426 -355.772
L187.656 -360.952
L180.426 -365.629
L177.066 -360.952
L180.426 -355.772" id="C1_1b_1636d00abf"/>
     <path d="
M303.348 -360.529
L303.669 -360.952
L303.348 -361.228
L300.864 -360.952
L303.348 -360.529" id="C1_1c_d82d082c01"/>
     <path d="
M317.81 -359.179
L319.405 -360.952
L317.81 -362.425
L315.882 -360.952
L317.81 -359.179" id="C1_1d_f5242a5910"/>
     <path d="
M353.963 -360.161
L354.688 -360.952
L353.963 -361.695
L353.229 -360.952
L353.963 -360.161" id="C1_1e_64c094b93a"/>
     <path d="
M223.81 -373.718
L225.774 -375.748
L223.81 -377.909
L221.997 -375.748
L223.81 -373.718" id="C1_1f_4f54c36197"/>
    </defs>
    <g clip-path="url(#pbfea867bdf)">
     <use style="fill:#0000ff;fill-opacity:0.5;" x="0.0" xlink:href="#C1_0_ae164bcbe9" y="432.0"/>
    </g>
    <g clip-path="url(#pbfea867bdf)">
     <use style="fill:#0000ff;fill-opacity:0.5;" x="0.0" xlink:href="#C1_1_64e571a3f7" y="432.0"/>
    </g>
    <g clip-path="url(#pbfea867bdf)">
     <use style="fill:#0000ff;fill-opacity:0.5;" x="0.0" xlink:href="#C1_2_69d8e42181" y="432.0"/>
    </g>
    <g clip-path="url(#pbfea867bdf)">
     <use style="fill:#0000ff;fill-opacity:0.5;" x="0.0" xlink:href="#C1_3_8b634a7abe" y="432.0"/>
    </g>
    <g clip-path="url(#pbfea867bdf)">
     <use style="fill:#0000ff;fill-opacity:0.5;" x="0.0" xlink:href="#C1_4_4f5daec916" y="432.0"/>
    </g>
    <g clip-path="url(#pbfea867bdf)">
     <use style="fill:#0000ff;fill-opacity:0.5;" x="0.0" xlink:href="#C1_5_79cfdee729" y="432.0"/>
    </g>
    <g clip-path="url(#pbfea867bdf)">
     <use style="fill:#0000ff;fill-opacity:0.5;" x="0.0" xlink:href="#C1_6_647f39c7b4" y="432.0"/>
    </g>
    <g clip-path="url(#pbfea867bdf)">
     <use style="fill:#0000ff;fill-opacity:0.5;" x="0.0" xlink:href="#C1_7_32fa521867" y="432.0"/>
    </g>
    <g clip-path="url(#pbfea867bdf)">
     <use style="fill:#0000ff;fill-opacity:0.5;" x="0.0" xlink:href="#C1_8_b0ee6e035e" y="432.0"/>
    </g>
    <g clip-path="url(#pbfea867bdf)">
     <use style="fill:#0000ff;fill-opacity:0.5;" x="0.0" xlink:href="#C1_9_3a44daee3b" y="432.0"/>
    </g>
    <g clip-path="url(#pbfea867bdf)">
     <use style="fill:#0000ff;fill-opacity:0.5;" x="0.0" xlink:href="#C1_a_e6b61ff72c" y="432.0"/>
    </g>
    <g clip-path="url(#pbfea867bdf)">
     <use style="fill:#0000ff;fill-opacity:0.5;" x="0.0" xlink:href="#C1_b_f8df7fb9a1" y="432.0"/>
    </g>
    <g clip-path="url(#pbfea867bdf)">
     <use style="fill:#0000ff;fill-opacity:0.5;" x="0.0" xlink:href="#C1_c_74accd5c95" y="432.0"/>
    </g>
    <g clip-path="url(#pbfea867bdf)">
     <use style="fill:#0000ff;fill-opacity:0.5;" x="0.0" xlink:href="#C1_d_f46d78b196" y="432.0"/>
    </g>
    <g clip-path="url(#pbfea867bdf)">
     <use style="fill:#0000ff;fill-opacity:0.5;" x="0.0" xlink:href="#C1_e_28190ae3ce" y="432.0"/>
    </g>
    <g clip-path="url(#pbfea867bdf)">
     <use style="fill:#0000ff;fill-opacity:0.5;" x="0.0" xlink:href="#C1_f_b4817fe138" y="432.0"/>
    </g>
    <g clip-path="url(#pbfea867bdf)">
     <use style="fill:#0000ff;fill-opacity:0.5;" x="0.0" xlink:href="#C1_10_45d5620b16" y="432.0"/>
    </g>
    <g clip-path="url(#pbfea867bdf)">
     <use style="fill:#0000ff;fill-opacity:0.5;" x="0.0" xlink:href="#C1_11_f78d498141" y="432.0"/>
    </g>
    <g clip-path="url(#pbfea867bdf)">
     <use style="fill:#0000ff;fill-opacity:0.5;" x="0.0" xlink:href="#C1_12_ca3f490036" y="432.0"/>
    </g>
    <g clip-path="url(#pbfea867bdf)">
     <use style="fill:#0000ff;fill-opacity:0.5;" x="0.0" xlink:href="#C1_13_37391c0e52" y="432.0"/>
    </g>
    <g clip-path="url(#pbfea867bdf)">
     <use style="fill:#0000ff;fill-opacity:0.5;" x="0.0" xlink:href="#C1_14_435eb54b35" y="432.0"/>
    </g>
    <g clip-path="url(#pbfea867bdf)">
     <use style="fill:#0000ff;fill-opacity:0.5;" x="0.0" xlink:href="#C1_15_ccecdd3cde" y="432.0"/>
    </g>
    <g clip-path="url(#pbfea867bdf)">
     <use style="fill:#0000ff;fill-opacity:0.5;" x="0.0" xlink:href="#C1_16_2c640c862f" y="432.0"/>
    </g>
    <g clip-path="url(#pbfea867bdf)">
     <use style="fill:#0000ff;fill-opacity:0.5;" x="0.0" xlink:href="#C1_17_5c21262f4c" y="432.0"/>
    </g>
    <g clip-path="url(#pbfea867bdf)">
     <use style="fill:#0000ff;fill-opacity:0.5;" x="0.0" xlink:href="#C1_18_235dbbbbe8" y="432.0"/>
    </g>
    <g clip-path="url(#pbfea867bdf)">
     <use style="fill:#0000ff;fill-opacity:0.5;" x="0.0" xlink:href="#C1_19_f0b7fad676" y="432.0"/>
    </g>
    <g clip-path="url(#pbfea867bdf)">
     <use style="fill:#0000ff;fill-opacity:0.5;" x="0.0" xlink:href="#C1_1a_19296af6d0" y="432.0"/>
    </g>
    <g clip-path="url(#pbfea867bdf)">
     <use style="fill:#0000ff;fill-opacity:0.5;" x="0.0" xlink:href="#C1_1b_1636d00abf" y="432.0"/>
    </g>
    <g clip-path="url(#pbfea867bdf)">
     <use style="fill:#0000ff;fill-opacity:0.5;" x="0.0" xlink:href="#C1_1c_d82d082c01" y="432.0"/>
    </g>
    <g clip-path="url(#pbfea867bdf)">
     <use style="fill:#0000ff;fill-opacity:0.5;" x="0.0" xlink:href="#C1_1d_f5242a5910" y="432.0"/>
    </g>
    <g clip-path="url(#pbfea867bdf)">
     <use style="fill:#0000ff;fill-opacity:0.5;" x="0.0" xlink:href="#C1_1e_64c094b93a" y="432.0"/>
    </g>
    <g clip-path="url(#pbfea867bdf)">
     <use style="fill:#0000ff;fill-opacity:0.5;" x="0.0" xlink:href="#C1_1f_4f54c36197" y="432.0"/>
    </g>
   </g>
   <g id="PathCollection_3">
    <defs>
     <path d="
M209.348 -125.527
L212.189 -131.603
L209.348 -134.707
L206.689 -131.603
L209.348 -125.527" id="C2_0_4ba6a9d734"/>
     <path d="
M223.81 -131.389
L223.941 -131.603
L223.81 -131.746
L223.764 -131.603
L223.81 -131.389" id="C2_1_d8fec684f9"/>
     <path d="
M259.964 -126.629
L264.907 -131.603
L259.964 -135.718
L255.081 -131.603
L259.964 -126.629" id="C2_2_a59b4e0b53"/>
     <path d="
M238.271 -133.231
L245.502 -138.736
L247.303 -139.001
L251.243 -146.4
L252.733 -149.9
L254.775 -146.4
L259.964 -142.518
L267.194 -144.301
L270.977 -146.4
L274.425 -149.682
L278.059 -153.798
L281.656 -154.191
L283.968 -153.798
L288.887 -148.808
L295.167 -153.798
L293.556 -161.196
L296.117 -161.877
L297.091 -161.196
L303.348 -157.688
L307.003 -161.196
L310.579 -163.625
L315.6 -168.595
L312.602 -175.993
L315.816 -183.391
L317.81 -185.354
L324.801 -183.391
L325.04 -183.247
L325.172 -183.391
L325.04 -183.773
L323.702 -190.79
L325.04 -195.349
L327.002 -198.188
L332.271 -204.977
L332.708 -205.586
L334.45 -212.985
L332.271 -213.413
L331.633 -212.985
L325.04 -208.762
L322.41 -212.985
L325.04 -218.452
L326.366 -220.383
L327.504 -227.781
L331.024 -235.18
L330.65 -242.578
L330.545 -249.976
L325.04 -255.123
L318.343 -249.976
L317.81 -249.736
L317.344 -249.976
L310.579 -256.912
L310.081 -257.375
L310.579 -257.756
L317.81 -262.856
L319.431 -264.773
L317.81 -266.974
L315.628 -272.171
L310.579 -278.124
L306.883 -279.57
L308.65 -286.968
L310.579 -287.644
L317.156 -286.968
L317.81 -284.259
L325.04 -285.588
L326.548 -286.968
L325.04 -288.376
L320.786 -294.366
L317.81 -296.527
L310.692 -301.765
L310.579 -302.383
L308.422 -309.163
L303.348 -311.677
L300.835 -309.163
L296.117 -306.557
L288.887 -303.711
L283.591 -309.163
L286.638 -316.562
L281.656 -319.429
L274.425 -317.039
L273.872 -316.562
L267.194 -313.709
L259.964 -316.288
L259.261 -316.562
L259.964 -316.792
L265.728 -323.96
L267.194 -324.352
L273.573 -331.358
L267.194 -337.638
L260.425 -331.358
L259.964 -329.607
L254.21 -323.96
L252.733 -320.543
L247.209 -323.96
L251.251 -331.358
L245.502 -337.344
L239.868 -331.358
L241.751 -323.96
L245.502 -319.59
L246.625 -316.562
L245.502 -316.233
L238.271 -314.354
L237.685 -316.562
L231.041 -321.942
L224.566 -316.562
L224.889 -309.163
L223.81 -307.879
L216.579 -308.448
L215.731 -309.163
L216.579 -312.91
L220.065 -316.562
L216.579 -317.679
L213.42 -316.562
L209.348 -315.503
L202.118 -313.102
L199.686 -309.163
L194.887 -305.511
L188.073 -301.765
L187.656 -301.451
L180.426 -299.723
L176.176 -294.366
L178.053 -286.968
L173.195 -283.798
L167.414 -286.968
L165.964 -287.985
L164.523 -286.968
L165.964 -284.731
L168.151 -279.57
L165.964 -275.916
L163.382 -272.171
L164.35 -264.773
L160.934 -257.375
L158.733 -256.549
L152.44 -249.976
L155.907 -242.578
L157.284 -235.18
L151.503 -230.825
L148.453 -235.18
L144.272 -238.552
L138.76 -235.18
L144.272 -230.748
L148.376 -227.781
L147.785 -220.383
L151.503 -216.445
L155.421 -212.985
L158.733 -208.95
L160.216 -205.586
L165.964 -199.989
L171.545 -198.188
L173.195 -194.191
L180.426 -191.698
L182.703 -190.79
L180.426 -187.166
L174.564 -183.391
L175.036 -175.993
L180.426 -168.772
L181.632 -168.595
L187.656 -167.262
L194.887 -163.663
L202.118 -161.342
L202.813 -161.196
L202.118 -160.611
L194.887 -156.848
L192.918 -153.798
L194.887 -152.175
L201.947 -146.4
L202.118 -146.314
L202.735 -146.4
L209.348 -146.898
L216.579 -147.015
L217.334 -146.4
L223.81 -142.677
L228.341 -146.4
L231.041 -147.062
L231.984 -146.4
L232.816 -139.001
L238.271 -133.231
M281.656 -168.172
L280.156 -168.595
L281.656 -170.715
L282.66 -168.595
L281.656 -168.172
M288.887 -293.944
L288.424 -294.366
L288.887 -295.37
L290.037 -294.366
L288.887 -293.944
M296.117 -174.608
L294.924 -175.993
L296.117 -176.768
L297.708 -175.993
L296.117 -174.608
M303.348 -300.303
L303.051 -301.765
L303.348 -302.719
L309.077 -301.765
L303.348 -300.303
M310.579 -235.18
L310.579 -235.18
L310.579 -235.18
L310.579 -235.18
L310.579 -235.18
M158.733 -217.343
L156.265 -220.383
L158.733 -226.105
L165.964 -222.67
L167.742 -220.383
L165.964 -214.023
L158.733 -217.343
M165.964 -247.495
L165.472 -249.976
L165.964 -251.477
L166.785 -249.976
L165.964 -247.495
M173.195 -203.143
L172.871 -205.586
L173.195 -206.671
L173.986 -205.586
L173.195 -203.143
M194.887 -286.654
L194.716 -286.968
L194.415 -294.366
L194.887 -295.018
L195.33 -294.366
L195.278 -286.968
L194.887 -286.654" id="C2_3_27f38e62f5"/>
     <path d="
M274.425 -138.441
L275.637 -139.001
L274.425 -141.815
L273.114 -139.001
L274.425 -138.441" id="C2_4_f13dde6051"/>
     <path d="
M317.81 -143.41
L320.992 -146.4
L317.81 -151.305
L313.205 -146.4
L317.81 -143.41" id="C2_5_d33fb075e6"/>
     <path d="
M180.426 -159.429
L181.113 -161.196
L180.426 -166.413
L179.181 -161.196
L180.426 -159.429" id="C2_6_ef35ab67fd"/>
     <path d="
M165.964 -167.61
L172.213 -168.595
L168.334 -175.993
L167.418 -183.391
L165.964 -183.597
L164.845 -183.391
L164.553 -175.993
L164.92 -168.595
L165.964 -167.61" id="C2_7_8235aad215"/>
     <path d="
M137.041 -175.615
L142.437 -175.993
L137.041 -176.353
L136.681 -175.993
L137.041 -175.615" id="C2_8_1d02ad6c11"/>
     <path d="
M332.271 -188.115
L335.103 -190.79
L332.271 -194.475
L327.758 -190.79
L332.271 -188.115" id="C2_9_b614601bf7"/>
     <path d="
M129.81 -218.222
L131.954 -220.383
L129.81 -223.707
L128.004 -220.383
L129.81 -218.222" id="C2_a_bdf960944e"/>
     <path d="
M346.733 -239.531
L349.926 -242.578
L346.733 -246.525
L343.286 -242.578
L346.733 -239.531" id="C2_b_9b89ab6127"/>
     <path d="
M339.502 -254.462
L341.354 -257.375
L339.502 -261.015
L335.731 -257.375
L339.502 -254.462" id="C2_c_5cf4786f7d"/>
     <path d="
M325.04 -268.051
L329.306 -272.171
L325.04 -276.088
L320.354 -272.171
L325.04 -268.051" id="C2_d_eaf231cda0"/>
     <path d="
M375.656 -286.161
L376.472 -286.968
L375.656 -287.883
L374.816 -286.968
L375.656 -286.161" id="C2_e_9ddc0cac36"/>
     <path d="
M310.579 -316.888
L316.763 -323.96
L310.579 -330.319
L304.057 -323.96
L310.579 -316.888" id="C2_f_340eb0082d"/>
     <path d="
M209.348 -337.681
L209.846 -338.757
L209.348 -339.173
L209.103 -338.757
L209.348 -337.681" id="C2_10_41eeee13d0"/>
     <path d="
M223.81 -332.775
L229.625 -338.757
L223.81 -342.767
L218.616 -338.757
L223.81 -332.775" id="C2_11_1ba8979f4d"/>
     <path d="
M259.964 -340.751
L263.278 -346.155
L259.964 -348.993
L256.846 -346.155
L259.964 -340.751" id="C2_12_0ef86033c9"/>
    </defs>
    <g clip-path="url(#pbfea867bdf)">
     <use style="fill:#0000ff;" x="0.0" xlink:href="#C2_0_4ba6a9d734" y="432.0"/>
    </g>
    <g clip-path="url(#pbfea867bdf)">
     <use style="fill:#0000ff;" x="0.0" xlink:href="#C2_1_d8fec684f9" y="432.0"/>
    </g>
    <g clip-path="url(#pbfea867bdf)">
     <use style="fill:#0000ff;" x="0.0" xlink:href="#C2_2_a59b4e0b53" y="432.0"/>
    </g>
    <g clip-path="url(#pbfea867bdf)">
     <use style="fill:#0000ff;" x="0.0" xlink:href="#C2_3_27f38e62f5" y="432.0"/>
    </g>
    <g clip-path="url(#pbfea867bdf)">
     <use style="fill:#0000ff;" x="0.0" xlink:href="#C2_4_f13dde6051" y="432.0"/>
    </g>
    <g clip-path="url(#pbfea867bdf)">
     <use style="fill:#0000ff;" x="0.0" xlink:href="#C2_5_d33fb075e6" y="432.0"/>
    </g>
    <g clip-path="url(#pbfea867bdf)">
     <use style="fill:#0000ff;" x="0.0" xlink:href="#C2_6_ef35ab67fd" y="432.0"/>
    </g>
    <g clip-path="url(#pbfea867bdf)">
     <use style="fill:#0000ff;" x="0.0" xlink:href="#C2_7_8235aad215" y="432.0"/>
    </g>
    <g clip-path="url(#pbfea867bdf)">
     <use style="fill:#0000ff;" x="0.0" xlink:href="#C2_8_1d02ad6c11" y="432.0"/>
    </g>
    <g clip-path="url(#pbfea867bdf)">
     <use style="fill:#0000ff;" x="0.0" xlink:href="#C2_9_b614601bf7" y="432.0"/>
    </g>
    <g clip-path="url(#pbfea867bdf)">
     <use style="fill:#0000ff;" x="0.0" xlink:href="#C2_a_bdf960944e" y="432.0"/>
    </g>
    <g clip-path="url(#pbfea867bdf)">
     <use style="fill:#0000ff;" x="0.0" xlink:href="#C2_b_9b89ab6127" y="432.0"/>
    </g>
    <g clip-path="url(#pbfea867bdf)">
     <use style="fill:#0000ff;" x="0.0" xlink:href="#C2_c_5cf4786f7d" y="432.0"/>
    </g>
    <g clip-path="url(#pbfea867bdf)">
     <use style="fill:#0000ff;" x="0.0" xlink:href="#C2_d_eaf231cda0" y="432.0"/>
    </g>
    <g clip-path="url(#pbfea867bdf)">
     <use style="fill:#0000ff;" x="0.0" xlink:href="#C2_e_9ddc0cac36" y="432.0"/>
    </g>
    <g clip-path="url(#pbfea867bdf)">
     <use style="fill:#0000ff;" x="0.0" xlink:href="#C2_f_340eb0082d" y="432.0"/>
    </g>
    <g clip-path="url(#pbfea867bdf)">
     <use style="fill:#0000ff;" x="0.0" xlink:href="#C2_10_41eeee13d0" y="432.0"/>
    </g>
    <g clip-path="url(#pbfea867bdf)">
     <use style="fill:#0000ff;" x="0.0" xlink:href="#C2_11_1ba8979f4d" y="432.0"/>
    </g>
    <g clip-path="url(#pbfea867bdf)">
     <use style="fill:#0000ff;" x="0.0" xlink:href="#C2_12_0ef86033c9" y="432.0"/>
    </g>
   </g>
   <g id="line2d_1">
    <path clip-path="url(#pbfea867bdf)" d="
M271.412 200.519" style="fill:none;stroke:#fa8072;stroke-linecap:square;"/>
    <defs>
     <path d="
M-7.5 0
L7.5 0
M0 7.5
L0 -7.5" id="m415119b0dc" style="stroke:#fa8072;stroke-width:3;"/>
    </defs>
    <g clip-path="url(#pbfea867bdf)">
     <use style="fill:#fa8072;stroke:#fa8072;stroke-width:3;" x="271.41234375" xlink:href="#m415119b0dc" y="200.5194375"/>
    </g>
   </g>
   <g id="matplotlib.axis_1">
    <g id="xtick_1">
     <g id="line2d_2">
      <path clip-path="url(#pbfea867bdf)" d="
M94.2592 381.779
L94.2592 19.26" style="fill:none;stroke:#000000;stroke-dasharray:1.000000,3.000000;stroke-dashoffset:0.0;stroke-width:0.5;"/>
     </g>
     <g id="line2d_3">
      <defs>
       <path d="
M0 0
L0 -4" id="m93b0483c22" style="stroke:#000000;stroke-width:0.5;"/>
      </defs>
      <g>
       <use style="stroke:#000000;stroke-width:0.5;" x="94.25915625" xlink:href="#m93b0483c22" y="381.778875"/>
      </g>
     </g>
     <g id="line2d_4">
      <defs>
       <path d="
M0 0
L0 4" id="m741efc42ff" style="stroke:#000000;stroke-width:0.5;"/>
      </defs>
      <g>
       <use style="stroke:#000000;stroke-width:0.5;" x="94.25915625" xlink:href="#m741efc42ff" y="19.26"/>
      </g>
     </g>
     <g id="text_1">
      <!-- −0.6 -->
      <defs>
       <path d="
M31.7812 66.4062
Q24.1719 66.4062 20.3281 58.9062
Q16.5 51.4219 16.5 36.375
Q16.5 21.3906 20.3281 13.8906
Q24.1719 6.39062 31.7812 6.39062
Q39.4531 6.39062 43.2812 13.8906
Q47.125 21.3906 47.125 36.375
Q47.125 51.4219 43.2812 58.9062
Q39.4531 66.4062 31.7812 66.4062
M31.7812 74.2188
Q44.0469 74.2188 50.5156 64.5156
Q56.9844 54.8281 56.9844 36.375
Q56.9844 17.9688 50.5156 8.26562
Q44.0469 -1.42188 31.7812 -1.42188
Q19.5312 -1.42188 13.0625 8.26562
Q6.59375 17.9688 6.59375 36.375
Q6.59375 54.8281 13.0625 64.5156
Q19.5312 74.2188 31.7812 74.2188" id="DejaVuSans-30"/>
       <path d="
M10.6875 12.4062
L21 12.4062
L21 0
L10.6875 0
z
" id="DejaVuSans-2e"/>
       <path d="
M33.0156 40.375
Q26.375 40.375 22.4844 35.8281
Q18.6094 31.2969 18.6094 23.3906
Q18.6094 15.5312 22.4844 10.9531
Q26.375 6.39062 33.0156 6.39062
Q39.6562 6.39062 43.5312 10.9531
Q47.4062 15.5312 47.4062 23.3906
Q47.4062 31.2969 43.5312 35.8281
Q39.6562 40.375 33.0156 40.375
M52.5938 71.2969
L52.5938 62.3125
Q48.875 64.0625 45.0938 64.9844
Q41.3125 65.9219 37.5938 65.9219
Q27.8281 65.9219 22.6719 59.3281
Q17.5312 52.7344 16.7969 39.4062
Q19.6719 43.6562 24.0156 45.9219
Q28.375 48.1875 33.5938 48.1875
Q44.5781 48.1875 50.9531 41.5156
Q57.3281 34.8594 57.3281 23.3906
Q57.3281 12.1562 50.6875 5.35938
Q44.0469 -1.42188 33.0156 -1.42188
Q20.3594 -1.42188 13.6719 8.26562
Q6.98438 17.9688 6.98438 36.375
Q6.98438 53.6562 15.1875 63.9375
Q23.3906 74.2188 37.2031 74.2188
Q40.9219 74.2188 44.7031 73.4844
Q48.4844 72.75 52.5938 71.2969" id="DejaVuSans-36"/>
       <path d="
M10.5938 35.5
L73.1875 35.5
L73.1875 27.2031
L10.5938 27.2031
z
" id="DejaVuSans-2212"/>
      </defs>
      <g transform="translate(80.70290625 394.897)scale(0.12 -0.12)">
       <use xlink:href="#DejaVuSans-2212"/>
       <use x="83.7890625" xlink:href="#DejaVuSans-30"/>
       <use x="147.412109375" xlink:href="#DejaVuSans-2e"/>
       <use x="179.19921875" xlink:href="#DejaVuSans-36"/>
      </g>
     </g>
    </g>
    <g id="xtick_2">
     <g id="line2d_5">
      <path clip-path="url(#pbfea867bdf)" d="
M153.31 381.779
L153.31 19.26" style="fill:none;stroke:#000000;stroke-dasharray:1.000000,3.000000;stroke-dashoffset:0.0;stroke-width:0.5;"/>
     </g>
     <g id="line2d_6">
      <g>
       <use style="stroke:#000000;stroke-width:0.5;" x="153.31021875" xlink:href="#m93b0483c22" y="381.778875"/>
      </g>
     </g>
     <g id="line2d_7">
      <g>
       <use style="stroke:#000000;stroke-width:0.5;" x="153.31021875" xlink:href="#m741efc42ff" y="19.26"/>
      </g>
     </g>
     <g id="text_2">
      <!-- −0.4 -->
      <defs>
       <path d="
M37.7969 64.3125
L12.8906 25.3906
L37.7969 25.3906
z

M35.2031 72.9062
L47.6094 72.9062
L47.6094 25.3906
L58.0156 25.3906
L58.0156 17.1875
L47.6094 17.1875
L47.6094 0
L37.7969 0
L37.7969 17.1875
L4.89062 17.1875
L4.89062 26.7031
z
" id="DejaVuSans-34"/>
      </defs>
      <g transform="translate(139.71271875 394.897)scale(0.12 -0.12)">
       <use xlink:href="#DejaVuSans-2212"/>
       <use x="83.7890625" xlink:href="#DejaVuSans-30"/>
       <use x="147.412109375" xlink:href="#DejaVuSans-2e"/>
       <use x="179.19921875" xlink:href="#DejaVuSans-34"/>
      </g>
     </g>
    </g>
    <g id="xtick_3">
     <g id="line2d_8">
      <path clip-path="url(#pbfea867bdf)" d="
M212.361 381.779
L212.361 19.26" style="fill:none;stroke:#000000;stroke-dasharray:1.000000,3.000000;stroke-dashoffset:0.0;stroke-width:0.5;"/>
     </g>
     <g id="line2d_9">
      <g>
       <use style="stroke:#000000;stroke-width:0.5;" x="212.36128125" xlink:href="#m93b0483c22" y="381.778875"/>
      </g>
     </g>
     <g id="line2d_10">
      <g>
       <use style="stroke:#000000;stroke-width:0.5;" x="212.36128125" xlink:href="#m741efc42ff" y="19.26"/>
      </g>
     </g>
     <g id="text_3">
      <!-- −0.2 -->
      <defs>
       <path d="
M19.1875 8.29688
L53.6094 8.29688
L53.6094 0
L7.32812 0
L7.32812 8.29688
Q12.9375 14.1094 22.625 23.8906
Q32.3281 33.6875 34.8125 36.5312
Q39.5469 41.8438 41.4219 45.5312
Q43.3125 49.2188 43.3125 52.7812
Q43.3125 58.5938 39.2344 62.25
Q35.1562 65.9219 28.6094 65.9219
Q23.9688 65.9219 18.8125 64.3125
Q13.6719 62.7031 7.8125 59.4219
L7.8125 69.3906
Q13.7656 71.7812 18.9375 73
Q24.125 74.2188 28.4219 74.2188
Q39.75 74.2188 46.4844 68.5469
Q53.2188 62.8906 53.2188 53.4219
Q53.2188 48.9219 51.5312 44.8906
Q49.8594 40.875 45.4062 35.4062
Q44.1875 33.9844 37.6406 27.2188
Q31.1094 20.4531 19.1875 8.29688" id="DejaVuSans-32"/>
      </defs>
      <g transform="translate(199.02815625 394.897)scale(0.12 -0.12)">
       <use xlink:href="#DejaVuSans-2212"/>
       <use x="83.7890625" xlink:href="#DejaVuSans-30"/>
       <use x="147.412109375" xlink:href="#DejaVuSans-2e"/>
       <use x="179.19921875" xlink:href="#DejaVuSans-32"/>
      </g>
     </g>
    </g>
    <g id="xtick_4">
     <g id="line2d_11">
      <path clip-path="url(#pbfea867bdf)" d="
M271.412 381.779
L271.412 19.26" style="fill:none;stroke:#000000;stroke-dasharray:1.000000,3.000000;stroke-dashoffset:0.0;stroke-width:0.5;"/>
     </g>
     <g id="line2d_12">
      <g>
       <use style="stroke:#000000;stroke-width:0.5;" x="271.41234375" xlink:href="#m93b0483c22" y="381.778875"/>
      </g>
     </g>
     <g id="line2d_13">
      <g>
       <use style="stroke:#000000;stroke-width:0.5;" x="271.41234375" xlink:href="#m741efc42ff" y="19.26"/>
      </g>
     </g>
     <g id="text_4">
      <!-- 0.0 -->
      <g transform="translate(262.66453125 394.897)scale(0.12 -0.12)">
       <use xlink:href="#DejaVuSans-30"/>
       <use x="63.623046875" xlink:href="#DejaVuSans-2e"/>
       <use x="95.41015625" xlink:href="#DejaVuSans-30"/>
      </g>
     </g>
    </g>
    <g id="xtick_5">
     <g id="line2d_14">
      <path clip-path="url(#pbfea867bdf)" d="
M330.463 381.779
L330.463 19.26" style="fill:none;stroke:#000000;stroke-dasharray:1.000000,3.000000;stroke-dashoffset:0.0;stroke-width:0.5;"/>
     </g>
     <g id="line2d_15">
      <g>
       <use style="stroke:#000000;stroke-width:0.5;" x="330.46340625" xlink:href="#m93b0483c22" y="381.778875"/>
      </g>
     </g>
     <g id="line2d_16">
      <g>
       <use style="stroke:#000000;stroke-width:0.5;" x="330.46340625" xlink:href="#m741efc42ff" y="19.26"/>
      </g>
     </g>
     <g id="text_5">
      <!-- 0.2 -->
      <g transform="translate(321.91809375 394.897)scale(0.12 -0.12)">
       <use xlink:href="#DejaVuSans-30"/>
       <use x="63.623046875" xlink:href="#DejaVuSans-2e"/>
       <use x="95.41015625" xlink:href="#DejaVuSans-32"/>
      </g>
     </g>
    </g>
    <g id="xtick_6">
     <g id="line2d_17">
      <path clip-path="url(#pbfea867bdf)" d="
M389.514 381.779
L389.514 19.26" style="fill:none;stroke:#000000;stroke-dasharray:1.000000,3.000000;stroke-dashoffset:0.0;stroke-width:0.5;"/>
     </g>
     <g id="line2d_18">
      <g>
       <use style="stroke:#000000;stroke-width:0.5;" x="389.51446875" xlink:href="#m93b0483c22" y="381.778875"/>
      </g>
     </g>
     <g id="line2d_19">
      <g>
       <use style="stroke:#000000;stroke-width:0.5;" x="389.51446875" xlink:href="#m741efc42ff" y="19.26"/>
      </g>
     </g>
     <g id="text_6">
      <!-- 0.4 -->
      <g transform="translate(380.70478125 394.897)scale(0.12 -0.12)">
       <use xlink:href="#DejaVuSans-30"/>
       <use x="63.623046875" xlink:href="#DejaVuSans-2e"/>
       <use x="95.41015625" xlink:href="#DejaVuSans-34"/>
      </g>
     </g>
    </g>
    <g id="xtick_7">
     <g id="line2d_20">
      <defs>
       <path d="
M0 0
L0 -2" id="m177f7580d0" style="stroke:#000000;stroke-width:0.5;"/>
      </defs>
      <g>
       <use style="stroke:#000000;stroke-width:0.5;" x="79.496390625" xlink:href="#m177f7580d0" y="381.778875"/>
      </g>
     </g>
     <g id="line2d_21">
      <defs>
       <path d="
M0 0
L0 2" id="m5284c7e2a0" style="stroke:#000000;stroke-width:0.5;"/>
      </defs>
      <g>
       <use style="stroke:#000000;stroke-width:0.5;" x="79.496390625" xlink:href="#m5284c7e2a0" y="19.26"/>
      </g>
     </g>
    </g>
    <g id="xtick_8">
     <g id="line2d_22">
      <g>
       <use style="stroke:#000000;stroke-width:0.5;" x="109.021921875" xlink:href="#m177f7580d0" y="381.778875"/>
      </g>
     </g>
     <g id="line2d_23">
      <g>
       <use style="stroke:#000000;stroke-width:0.5;" x="109.021921875" xlink:href="#m5284c7e2a0" y="19.26"/>
      </g>
     </g>
    </g>
    <g id="xtick_9">
     <g id="line2d_24">
      <g>
       <use style="stroke:#000000;stroke-width:0.5;" x="123.7846875" xlink:href="#m177f7580d0" y="381.778875"/>
      </g>
     </g>
     <g id="line2d_25">
      <g>
       <use style="stroke:#000000;stroke-width:0.5;" x="123.7846875" xlink:href="#m5284c7e2a0" y="19.26"/>
      </g>
     </g>
    </g>
    <g id="xtick_10">
     <g id="line2d_26">
      <g>
       <use style="stroke:#000000;stroke-width:0.5;" x="138.547453125" xlink:href="#m177f7580d0" y="381.778875"/>
      </g>
     </g>
     <g id="line2d_27">
      <g>
       <use style="stroke:#000000;stroke-width:0.5;" x="138.547453125" xlink:href="#m5284c7e2a0" y="19.26"/>
      </g>
     </g>
    </g>
    <g id="xtick_11">
     <g id="line2d_28">
      <g>
       <use style="stroke:#000000;stroke-width:0.5;" x="168.072984375" xlink:href="#m177f7580d0" y="381.778875"/>
      </g>
     </g>
     <g id="line2d_29">
      <g>
       <use style="stroke:#000000;stroke-width:0.5;" x="168.072984375" xlink:href="#m5284c7e2a0" y="19.26"/>
      </g>
     </g>
    </g>
    <g id="xtick_12">
     <g id="line2d_30">
      <g>
       <use style="stroke:#000000;stroke-width:0.5;" x="182.83575" xlink:href="#m177f7580d0" y="381.778875"/>
      </g>
     </g>
     <g id="line2d_31">
      <g>
       <use style="stroke:#000000;stroke-width:0.5;" x="182.83575" xlink:href="#m5284c7e2a0" y="19.26"/>
      </g>
     </g>
    </g>
    <g id="xtick_13">
     <g id="line2d_32">
      <g>
       <use style="stroke:#000000;stroke-width:0.5;" x="197.598515625" xlink:href="#m177f7580d0" y="381.778875"/>
      </g>
     </g>
     <g id="line2d_33">
      <g>
       <use style="stroke:#000000;stroke-width:0.5;" x="197.598515625" xlink:href="#m5284c7e2a0" y="19.26"/>
      </g>
     </g>
    </g>
    <g id="xtick_14">
     <g id="line2d_34">
      <g>
       <use style="stroke:#000000;stroke-width:0.5;" x="227.124046875" xlink:href="#m177f7580d0" y="381.778875"/>
      </g>
     </g>
     <g id="line2d_35">
      <g>
       <use style="stroke:#000000;stroke-width:0.5;" x="227.124046875" xlink:href="#m5284c7e2a0" y="19.26"/>
      </g>
     </g>
    </g>
    <g id="xtick_15">
     <g id="line2d_36">
      <g>
       <use style="stroke:#000000;stroke-width:0.5;" x="241.8868125" xlink:href="#m177f7580d0" y="381.778875"/>
      </g>
     </g>
     <g id="line2d_37">
      <g>
       <use style="stroke:#000000;stroke-width:0.5;" x="241.8868125" xlink:href="#m5284c7e2a0" y="19.26"/>
      </g>
     </g>
    </g>
    <g id="xtick_16">
     <g id="line2d_38">
      <g>
       <use style="stroke:#000000;stroke-width:0.5;" x="256.649578125" xlink:href="#m177f7580d0" y="381.778875"/>
      </g>
     </g>
     <g id="line2d_39">
      <g>
       <use style="stroke:#000000;stroke-width:0.5;" x="256.649578125" xlink:href="#m5284c7e2a0" y="19.26"/>
      </g>
     </g>
    </g>
    <g id="xtick_17">
     <g id="line2d_40">
      <g>
       <use style="stroke:#000000;stroke-width:0.5;" x="286.175109375" xlink:href="#m177f7580d0" y="381.778875"/>
      </g>
     </g>
     <g id="line2d_41">
      <g>
       <use style="stroke:#000000;stroke-width:0.5;" x="286.175109375" xlink:href="#m5284c7e2a0" y="19.26"/>
      </g>
     </g>
    </g>
    <g id="xtick_18">
     <g id="line2d_42">
      <g>
       <use style="stroke:#000000;stroke-width:0.5;" x="300.937875" xlink:href="#m177f7580d0" y="381.778875"/>
      </g>
     </g>
     <g id="line2d_43">
      <g>
       <use style="stroke:#000000;stroke-width:0.5;" x="300.937875" xlink:href="#m5284c7e2a0" y="19.26"/>
      </g>
     </g>
    </g>
    <g id="xtick_19">
     <g id="line2d_44">
      <g>
       <use style="stroke:#000000;stroke-width:0.5;" x="315.700640625" xlink:href="#m177f7580d0" y="381.778875"/>
      </g>
     </g>
     <g id="line2d_45">
      <g>
       <use style="stroke:#000000;stroke-width:0.5;" x="315.700640625" xlink:href="#m5284c7e2a0" y="19.26"/>
      </g>
     </g>
    </g>
    <g id="xtick_20">
     <g id="line2d_46">
      <g>
       <use style="stroke:#000000;stroke-width:0.5;" x="345.226171875" xlink:href="#m177f7580d0" y="381.778875"/>
      </g>
     </g>
     <g id="line2d_47">
      <g>
       <use style="stroke:#000000;stroke-width:0.5;" x="345.226171875" xlink:href="#m5284c7e2a0" y="19.26"/>
      </g>
     </g>
    </g>
    <g id="xtick_21">
     <g id="line2d_48">
      <g>
       <use style="stroke:#000000;stroke-width:0.5;" x="359.9889375" xlink:href="#m177f7580d0" y="381.778875"/>
      </g>
     </g>
     <g id="line2d_49">
      <g>
       <use style="stroke:#000000;stroke-width:0.5;" x="359.9889375" xlink:href="#m5284c7e2a0" y="19.26"/>
      </g>
     </g>
    </g>
    <g id="xtick_22">
     <g id="line2d_50">
      <g>
       <use style="stroke:#000000;stroke-width:0.5;" x="374.751703125" xlink:href="#m177f7580d0" y="381.778875"/>
      </g>
     </g>
     <g id="line2d_51">
      <g>
       <use style="stroke:#000000;stroke-width:0.5;" x="374.751703125" xlink:href="#m5284c7e2a0" y="19.26"/>
      </g>
     </g>
    </g>
    <g id="xtick_23">
     <g id="line2d_52">
      <g>
       <use style="stroke:#000000;stroke-width:0.5;" x="404.277234375" xlink:href="#m177f7580d0" y="381.778875"/>
      </g>
     </g>
     <g id="line2d_53">
      <g>
       <use style="stroke:#000000;stroke-width:0.5;" x="404.277234375" xlink:href="#m5284c7e2a0" y="19.26"/>
      </g>
     </g>
    </g>
    <g id="xtick_24">
     <g id="line2d_54">
      <g>
       <use style="stroke:#000000;stroke-width:0.5;" x="419.04" xlink:href="#m177f7580d0" y="381.778875"/>
      </g>
     </g>
     <g id="line2d_55">
      <g>
       <use style="stroke:#000000;stroke-width:0.5;" x="419.04" xlink:href="#m5284c7e2a0" y="19.26"/>
      </g>
     </g>
    </g>
    <g id="text_7">
     <!-- $\mathcal{C}_{T}$ -->
     <defs>
      <path d="
M4.59375 1.3125
Q4.64062 1.5625 4.8125 2.1875
Q4.98438 2.82812 5.25 3.17188
Q5.51562 3.51562 6 3.51562
Q14.5938 3.51562 17.3906 4
Q20.0625 4.6875 20.6094 6.89062
L34.2812 61.8125
Q34.7188 63.0312 34.7188 64.0156
Q34.7188 64.7969 31.2031 64.7969
L25.3906 64.7969
Q18.7031 64.7969 15.0625 62.7344
Q11.4219 60.6875 9.71875 57.3125
Q8.01562 53.9531 5.32812 46.2969
Q4.98438 45.4062 4.29688 45.4062
L3.42188 45.4062
Q2.39062 45.4062 2.39062 46.6875
L9.51562 67.3906
Q9.71875 68.3125 10.5 68.3125
L69.5781 68.3125
Q70.6094 68.3125 70.6094 67
L67.2812 46.2969
Q67.2812 46 66.9375 45.7031
Q66.6094 45.4062 66.3125 45.4062
L65.375 45.4062
Q64.4062 45.4062 64.4062 46.6875
Q65.4844 53.7656 65.4844 56.6875
Q65.4844 60.2031 64.0156 62
Q62.5469 63.8125 60.2031 64.2969
Q57.8594 64.7969 54.1094 64.7969
L48.1875 64.7969
Q45.5156 64.7969 44.5781 64.2969
Q43.6562 63.8125 43.0156 61.375
L29.2969 6.5
Q29.25 6.29688 29.2188 6.09375
Q29.2031 5.90625 29.1094 5.60938
Q29.1094 4.34375 30.6094 4
Q33.2031 3.51562 41.7031 3.51562
Q42.6719 3.51562 42.6719 2.20312
Q42.3281 0.78125 42.125 0.390625
Q41.9375 0 41.0156 0
L5.60938 0
Q4.59375 0 4.59375 1.3125" id="Cmmi10-54"/>
      <path d="
M19.6719 -2.39062
Q14.9375 -2.39062 11.4375 -0.5625
Q7.95312 1.26562 5.64062 4.5625
Q3.32812 7.85938 2.26562 11.8125
Q1.21875 15.7656 1.21875 20.3125
Q1.21875 29.25 4.51562 38.3594
Q7.8125 47.4688 13.7656 54.7188
Q19.7344 61.9688 27.9062 66.2344
Q36.0781 70.5156 45.5156 70.5156
L46.0938 70.5156
Q49.3594 70.5156 51.3906 68.8438
Q53.4219 67.1875 53.4219 64.0156
Q53.4219 61.2344 51.8125 57.4688
Q50.2031 53.7188 47.9062 49.6094
Q46.8281 47.7969 44.6562 46.4844
Q42.4844 45.1719 40.1875 44.9219
L39.7031 44.9219
Q39.0156 45.2656 39.0156 45.6094
Q39.0156 46.0469 40.5938 49.1719
Q42.1875 52.2969 43.3281 55.0469
Q44.4844 57.8125 44.4844 59.8125
Q44.4844 62.25 42.9375 63.4219
Q41.4062 64.5938 38.8125 64.5938
Q31.4531 64.5938 26.4375 61.0781
Q21.4375 57.5625 17.3906 50.6875
Q14.0156 44.875 12.0625 38.1094
Q10.1094 31.3438 10.1094 24.6094
Q10.1094 19.0938 11.8594 14.2344
Q13.625 9.375 17.4219 6.4375
Q21.2344 3.51562 27 3.51562
Q33.0625 3.51562 37.7969 8.01562
Q38.4219 8.6875 40.4062 11.2969
Q42.3906 13.9219 44.0938 15.1406
Q45.7969 16.3594 48.4844 16.6094
L49.0312 16.6094
Q49.7031 16.2656 49.7031 15.8281
Q49.7031 15.4375 49.4219 14.9844
Q46.5781 10.2969 41.7969 6.29688
Q37.0156 2.29688 31.2969 -0.046875
Q25.5938 -2.39062 20.3125 -2.39062
z
" id="Cmsy10-43"/>
     </defs>
     <g transform="translate(236.2468125 410.912625)scale(0.12 -0.12)">
      <use transform="translate(0.0 0.484375)" xlink:href="#Cmsy10-43"/>
      <use transform="translate(52.587890625 -25.025)scale(0.7)" xlink:href="#Cmmi10-54"/>
     </g>
    </g>
   </g>
   <g id="matplotlib.axis_2">
    <g id="ytick_1">
     <g id="text_8">
      <!-- −0.6 -->
      <g transform="translate(33.621125 385.090125)scale(0.12 -0.12)">
       <use xlink:href="#DejaVuSans-2212"/>
       <use x="83.7890625" xlink:href="#DejaVuSans-30"/>
       <use x="147.412109375" xlink:href="#DejaVuSans-2e"/>
       <use x="179.19921875" xlink:href="#DejaVuSans-36"/>
      </g>
     </g>
    </g>
    <g id="ytick_2">
     <g id="line2d_56">
      <path clip-path="url(#pbfea867bdf)" d="
M64.7336 321.359
L419.04 321.359" style="fill:none;stroke:#000000;stroke-dasharray:1.000000,3.000000;stroke-dashoffset:0.0;stroke-width:0.5;"/>
     </g>
     <g id="line2d_57">
      <defs>
       <path d="
M0 0
L4 0" id="m728421d6d4" style="stroke:#000000;stroke-width:0.5;"/>
      </defs>
      <g>
       <use style="stroke:#000000;stroke-width:0.5;" x="64.733625" xlink:href="#m728421d6d4" y="321.3590625"/>
      </g>
     </g>
     <g id="line2d_58">
      <defs>
       <path d="
M0 0
L-4 0" id="mcb0005524f" style="stroke:#000000;stroke-width:0.5;"/>
      </defs>
      <g>
       <use style="stroke:#000000;stroke-width:0.5;" x="419.04" xlink:href="#mcb0005524f" y="321.3590625"/>
      </g>
     </g>
     <g id="text_9">
      <!-- −0.4 -->
      <g transform="translate(33.538625 324.6703125)scale(0.12 -0.12)">
       <use xlink:href="#DejaVuSans-2212"/>
       <use x="83.7890625" xlink:href="#DejaVuSans-30"/>
       <use x="147.412109375" xlink:href="#DejaVuSans-2e"/>
       <use x="179.19921875" xlink:href="#DejaVuSans-34"/>
      </g>
     </g>
    </g>
    <g id="ytick_3">
     <g id="line2d_59">
      <path clip-path="url(#pbfea867bdf)" d="
M64.7336 260.939
L419.04 260.939" style="fill:none;stroke:#000000;stroke-dasharray:1.000000,3.000000;stroke-dashoffset:0.0;stroke-width:0.5;"/>
     </g>
     <g id="line2d_60">
      <g>
       <use style="stroke:#000000;stroke-width:0.5;" x="64.733625" xlink:href="#m728421d6d4" y="260.93925"/>
      </g>
     </g>
     <g id="line2d_61">
      <g>
       <use style="stroke:#000000;stroke-width:0.5;" x="419.04" xlink:href="#mcb0005524f" y="260.93925"/>
      </g>
     </g>
     <g id="text_10">
      <!-- −0.2 -->
      <g transform="translate(34.067375 264.2505)scale(0.12 -0.12)">
       <use xlink:href="#DejaVuSans-2212"/>
       <use x="83.7890625" xlink:href="#DejaVuSans-30"/>
       <use x="147.412109375" xlink:href="#DejaVuSans-2e"/>
       <use x="179.19921875" xlink:href="#DejaVuSans-32"/>
      </g>
     </g>
    </g>
    <g id="ytick_4">
     <g id="line2d_62">
      <path clip-path="url(#pbfea867bdf)" d="
M64.7336 200.519
L419.04 200.519" style="fill:none;stroke:#000000;stroke-dasharray:1.000000,3.000000;stroke-dashoffset:0.0;stroke-width:0.5;"/>
     </g>
     <g id="line2d_63">
      <g>
       <use style="stroke:#000000;stroke-width:0.5;" x="64.733625" xlink:href="#m728421d6d4" y="200.5194375"/>
      </g>
     </g>
     <g id="line2d_64">
      <g>
       <use style="stroke:#000000;stroke-width:0.5;" x="419.04" xlink:href="#mcb0005524f" y="200.5194375"/>
      </g>
     </g>
     <g id="text_11">
      <!-- 0.0 -->
      <g transform="translate(43.238 203.8306875)scale(0.12 -0.12)">
       <use xlink:href="#DejaVuSans-30"/>
       <use x="63.623046875" xlink:href="#DejaVuSans-2e"/>
       <use x="95.41015625" xlink:href="#DejaVuSans-30"/>
      </g>
     </g>
    </g>
    <g id="ytick_5">
     <g id="line2d_65">
      <path clip-path="url(#pbfea867bdf)" d="
M64.7336 140.1
L419.04 140.1" style="fill:none;stroke:#000000;stroke-dasharray:1.000000,3.000000;stroke-dashoffset:0.0;stroke-width:0.5;"/>
     </g>
     <g id="line2d_66">
      <g>
       <use style="stroke:#000000;stroke-width:0.5;" x="64.733625" xlink:href="#m728421d6d4" y="140.099625"/>
      </g>
     </g>
     <g id="line2d_67">
      <g>
       <use style="stroke:#000000;stroke-width:0.5;" x="419.04" xlink:href="#mcb0005524f" y="140.099625"/>
      </g>
     </g>
     <g id="text_12">
      <!-- 0.2 -->
      <g transform="translate(43.643 143.410875)scale(0.12 -0.12)">
       <use xlink:href="#DejaVuSans-30"/>
       <use x="63.623046875" xlink:href="#DejaVuSans-2e"/>
       <use x="95.41015625" xlink:href="#DejaVuSans-32"/>
      </g>
     </g>
    </g>
    <g id="ytick_6">
     <g id="line2d_68">
      <path clip-path="url(#pbfea867bdf)" d="
M64.7336 79.6798
L419.04 79.6798" style="fill:none;stroke:#000000;stroke-dasharray:1.000000,3.000000;stroke-dashoffset:0.0;stroke-width:0.5;"/>
     </g>
     <g id="line2d_69">
      <g>
       <use style="stroke:#000000;stroke-width:0.5;" x="64.733625" xlink:href="#m728421d6d4" y="79.6798125"/>
      </g>
     </g>
     <g id="line2d_70">
      <g>
       <use style="stroke:#000000;stroke-width:0.5;" x="419.04" xlink:href="#mcb0005524f" y="79.6798125"/>
      </g>
     </g>
     <g id="text_13">
      <!-- 0.4 -->
      <g transform="translate(43.11425 82.9910625)scale(0.12 -0.12)">
       <use xlink:href="#DejaVuSans-30"/>
       <use x="63.623046875" xlink:href="#DejaVuSans-2e"/>
       <use x="95.41015625" xlink:href="#DejaVuSans-34"/>
      </g>
     </g>
    </g>
    <g id="ytick_7">
     <g id="text_14">
      <!-- 0.6 -->
      <g transform="translate(43.19675 22.57125)scale(0.12 -0.12)">
       <use xlink:href="#DejaVuSans-30"/>
       <use x="63.623046875" xlink:href="#DejaVuSans-2e"/>
       <use x="95.41015625" xlink:href="#DejaVuSans-36"/>
      </g>
     </g>
    </g>
    <g id="ytick_8">
     <g id="line2d_71">
      <defs>
       <path d="
M0 0
L2 0" id="mf0c55a9a47" style="stroke:#000000;stroke-width:0.5;"/>
      </defs>
      <g>
       <use style="stroke:#000000;stroke-width:0.5;" x="64.733625" xlink:href="#mf0c55a9a47" y="366.673921875"/>
      </g>
     </g>
     <g id="line2d_72">
      <defs>
       <path d="
M0 0
L-2 0" id="ma4f294b3af" style="stroke:#000000;stroke-width:0.5;"/>
      </defs>
      <g>
       <use style="stroke:#000000;stroke-width:0.5;" x="419.04" xlink:href="#ma4f294b3af" y="366.673921875"/>
      </g>
     </g>
    </g>
    <g id="ytick_9">
     <g id="line2d_73">
      <g>
       <use style="stroke:#000000;stroke-width:0.5;" x="64.733625" xlink:href="#mf0c55a9a47" y="351.56896875"/>
      </g>
     </g>
     <g id="line2d_74">
      <g>
       <use style="stroke:#000000;stroke-width:0.5;" x="419.04" xlink:href="#ma4f294b3af" y="351.56896875"/>
      </g>
     </g>
    </g>
    <g id="ytick_10">
     <g id="line2d_75">
      <g>
       <use style="stroke:#000000;stroke-width:0.5;" x="64.733625" xlink:href="#mf0c55a9a47" y="336.464015625"/>
      </g>
     </g>
     <g id="line2d_76">
      <g>
       <use style="stroke:#000000;stroke-width:0.5;" x="419.04" xlink:href="#ma4f294b3af" y="336.464015625"/>
      </g>
     </g>
    </g>
    <g id="ytick_11">
     <g id="line2d_77">
      <g>
       <use style="stroke:#000000;stroke-width:0.5;" x="64.733625" xlink:href="#mf0c55a9a47" y="306.254109375"/>
      </g>
     </g>
     <g id="line2d_78">
      <g>
       <use style="stroke:#000000;stroke-width:0.5;" x="419.04" xlink:href="#ma4f294b3af" y="306.254109375"/>
      </g>
     </g>
    </g>
    <g id="ytick_12">
     <g id="line2d_79">
      <g>
       <use style="stroke:#000000;stroke-width:0.5;" x="64.733625" xlink:href="#mf0c55a9a47" y="291.14915625"/>
      </g>
     </g>
     <g id="line2d_80">
      <g>
       <use style="stroke:#000000;stroke-width:0.5;" x="419.04" xlink:href="#ma4f294b3af" y="291.14915625"/>
      </g>
     </g>
    </g>
    <g id="ytick_13">
     <g id="line2d_81">
      <g>
       <use style="stroke:#000000;stroke-width:0.5;" x="64.733625" xlink:href="#mf0c55a9a47" y="276.044203125"/>
      </g>
     </g>
     <g id="line2d_82">
      <g>
       <use style="stroke:#000000;stroke-width:0.5;" x="419.04" xlink:href="#ma4f294b3af" y="276.044203125"/>
      </g>
     </g>
    </g>
    <g id="ytick_14">
     <g id="line2d_83">
      <g>
       <use style="stroke:#000000;stroke-width:0.5;" x="64.733625" xlink:href="#mf0c55a9a47" y="245.834296875"/>
      </g>
     </g>
     <g id="line2d_84">
      <g>
       <use style="stroke:#000000;stroke-width:0.5;" x="419.04" xlink:href="#ma4f294b3af" y="245.834296875"/>
      </g>
     </g>
    </g>
    <g id="ytick_15">
     <g id="line2d_85">
      <g>
       <use style="stroke:#000000;stroke-width:0.5;" x="64.733625" xlink:href="#mf0c55a9a47" y="230.72934375"/>
      </g>
     </g>
     <g id="line2d_86">
      <g>
       <use style="stroke:#000000;stroke-width:0.5;" x="419.04" xlink:href="#ma4f294b3af" y="230.72934375"/>
      </g>
     </g>
    </g>
    <g id="ytick_16">
     <g id="line2d_87">
      <g>
       <use style="stroke:#000000;stroke-width:0.5;" x="64.733625" xlink:href="#mf0c55a9a47" y="215.624390625"/>
      </g>
     </g>
     <g id="line2d_88">
      <g>
       <use style="stroke:#000000;stroke-width:0.5;" x="419.04" xlink:href="#ma4f294b3af" y="215.624390625"/>
      </g>
     </g>
    </g>
    <g id="ytick_17">
     <g id="line2d_89">
      <g>
       <use style="stroke:#000000;stroke-width:0.5;" x="64.733625" xlink:href="#mf0c55a9a47" y="185.414484375"/>
      </g>
     </g>
     <g id="line2d_90">
      <g>
       <use style="stroke:#000000;stroke-width:0.5;" x="419.04" xlink:href="#ma4f294b3af" y="185.414484375"/>
      </g>
     </g>
    </g>
    <g id="ytick_18">
     <g id="line2d_91">
      <g>
       <use style="stroke:#000000;stroke-width:0.5;" x="64.733625" xlink:href="#mf0c55a9a47" y="170.30953125"/>
      </g>
     </g>
     <g id="line2d_92">
      <g>
       <use style="stroke:#000000;stroke-width:0.5;" x="419.04" xlink:href="#ma4f294b3af" y="170.30953125"/>
      </g>
     </g>
    </g>
    <g id="ytick_19">
     <g id="line2d_93">
      <g>
       <use style="stroke:#000000;stroke-width:0.5;" x="64.733625" xlink:href="#mf0c55a9a47" y="155.204578125"/>
      </g>
     </g>
     <g id="line2d_94">
      <g>
       <use style="stroke:#000000;stroke-width:0.5;" x="419.04" xlink:href="#ma4f294b3af" y="155.204578125"/>
      </g>
     </g>
    </g>
    <g id="ytick_20">
     <g id="line2d_95">
      <g>
       <use style="stroke:#000000;stroke-width:0.5;" x="64.733625" xlink:href="#mf0c55a9a47" y="124.994671875"/>
      </g>
     </g>
     <g id="line2d_96">
      <g>
       <use style="stroke:#000000;stroke-width:0.5;" x="419.04" xlink:href="#ma4f294b3af" y="124.994671875"/>
      </g>
     </g>
    </g>
    <g id="ytick_21">
     <g id="line2d_97">
      <g>
       <use style="stroke:#000000;stroke-width:0.5;" x="64.733625" xlink:href="#mf0c55a9a47" y="109.88971875"/>
      </g>
     </g>
     <g id="line2d_98">
      <g>
       <use style="stroke:#000000;stroke-width:0.5;" x="419.04" xlink:href="#ma4f294b3af" y="109.88971875"/>
      </g>
     </g>
    </g>
    <g id="ytick_22">
     <g id="line2d_99">
      <g>
       <use style="stroke:#000000;stroke-width:0.5;" x="64.733625" xlink:href="#mf0c55a9a47" y="94.784765625"/>
      </g>
     </g>
     <g id="line2d_100">
      <g>
       <use style="stroke:#000000;stroke-width:0.5;" x="419.04" xlink:href="#ma4f294b3af" y="94.784765625"/>
      </g>
     </g>
    </g>
    <g id="ytick_23">
     <g id="line2d_101">
      <g>
       <use style="stroke:#000000;stroke-width:0.5;" x="64.733625" xlink:href="#mf0c55a9a47" y="79.6798125"/>
      </g>
     </g>
     <g id="line2d_102">
      <g>
       <use style="stroke:#000000;stroke-width:0.5;" x="419.04" xlink:href="#ma4f294b3af" y="79.6798125"/>
      </g>
     </g>
    </g>
    <g id="ytick_24">
     <g id="line2d_103">
      <g>
       <use style="stroke:#000000;stroke-width:0.5;" x="64.733625" xlink:href="#mf0c55a9a47" y="64.574859375"/>
      </g>
     </g>
     <g id="line2d_104">
      <g>
       <use style="stroke:#000000;stroke-width:0.5;" x="419.04" xlink:href="#ma4f294b3af" y="64.574859375"/>
      </g>
     </g>
    </g>
    <g id="ytick_25">
     <g id="line2d_105">
      <g>
       <use style="stroke:#000000;stroke-width:0.5;" x="64.733625" xlink:href="#mf0c55a9a47" y="49.46990625"/>
      </g>
     </g>
     <g id="line2d_106">
      <g>
       <use style="stroke:#000000;stroke-width:0.5;" x="419.04" xlink:href="#ma4f294b3af" y="49.46990625"/>
      </g>
     </g>
    </g>
    <g id="ytick_26">
     <g id="line2d_107">
      <g>
       <use style="stroke:#000000;stroke-width:0.5;" x="64.733625" xlink:href="#mf0c55a9a47" y="34.364953125"/>
      </g>
     </g>
     <g id="line2d_108">
      <g>
       <use style="stroke:#000000;stroke-width:0.5;" x="419.04" xlink:href="#ma4f294b3af" y="34.364953125"/>
      </g>
     </g>
    </g>
    <g id="text_15">
     <!-- $\mathcal{C}_{T5}$ -->
     <defs>
      <path d="
M8.6875 11.375
Q9.71875 8.45312 11.8438 6.04688
Q13.9688 3.65625 16.875 2.3125
Q19.7812 0.984375 22.9062 0.984375
Q30.125 0.984375 32.8594 6.59375
Q35.5938 12.2031 35.5938 20.2188
Q35.5938 23.6875 35.4688 26.0469
Q35.3594 28.4219 34.8125 30.6094
Q33.8906 34.125 31.5625 36.7656
Q29.25 39.4062 25.875 39.4062
Q22.5156 39.4062 20.0938 38.375
Q17.6719 37.3594 16.1562 35.9844
Q14.6562 34.625 13.4844 33.1094
Q12.3125 31.5938 12.0156 31.5
L10.8906 31.5
Q10.6406 31.5 10.2656 31.8125
Q9.90625 32.125 9.90625 32.4219
L9.90625 65.8281
Q9.90625 66.0625 10.2188 66.3281
Q10.5469 66.6094 10.8906 66.6094
L11.1875 66.6094
Q17.9219 63.375 25.4844 63.375
Q32.9062 63.375 39.7969 66.6094
L40.0938 66.6094
Q40.4375 66.6094 40.7188 66.3594
Q41.0156 66.1094 41.0156 65.8281
L41.0156 64.8906
Q41.0156 64.4062 40.8281 64.4062
Q37.4062 59.8594 32.25 57.3125
Q27.0938 54.7812 21.5781 54.7812
Q17.5781 54.7812 13.375 55.9062
L13.375 37.0156
Q16.7031 39.7031 19.3125 40.8438
Q21.9219 42 25.9844 42
Q31.5 42 35.8594 38.8125
Q40.2344 35.6406 42.5781 30.5312
Q44.9219 25.4375 44.9219 20.125
Q44.9219 14.1094 41.9688 8.98438
Q39.0156 3.85938 33.9375 0.828125
Q28.8594 -2.20312 22.9062 -2.20312
Q17.9688 -2.20312 13.8438 0.328125
Q9.71875 2.875 7.34375 7.17188
Q4.98438 11.4688 4.98438 16.3125
Q4.98438 18.5625 6.4375 19.9688
Q7.90625 21.3906 10.1094 21.3906
Q12.3125 21.3906 13.7969 19.9375
Q15.2812 18.5 15.2812 16.3125
Q15.2812 14.1562 13.7969 12.6719
Q12.3125 11.1875 10.1094 11.1875
Q9.76562 11.1875 9.32812 11.25
Q8.89062 11.3281 8.6875 11.375" id="Cmr10-35"/>
     </defs>
     <g transform="translate(25.178625 208.2594375)rotate(-90.0)scale(0.12 -0.12)">
      <use transform="translate(0.0 0.484375)" xlink:href="#Cmsy10-43"/>
      <use transform="translate(52.587890625 -25.025)scale(0.7)" xlink:href="#Cmmi10-54"/>
      <use transform="translate(93.466796875 -25.025)scale(0.7)" xlink:href="#Cmr10-35"/>
     </g>
    </g>
   </g>
   <g id="patch_3">
    <path d="
M64.7336 19.26
L419.04 19.26" style="fill:none;stroke:#000000;"/>
   </g>
   <g id="patch_4">
    <path d="
M419.04 381.779
L419.04 19.26" style="fill:none;stroke:#000000;"/>
   </g>
   <g id="patch_5">
    <path d="
M64.7336 381.779
L419.04 381.779" style="fill:none;stroke:#000000;"/>
   </g>
   <g id="patch_6">
    <path d="
M64.7336 381.779
L64.7336 19.26" style="fill:none;stroke:#000000;"/>
   </g>
  </g>
 </g>
 <defs>
  <clipPath id="pbfea867bdf">
   <rect height="362.518875" width="354.306375" x="64.733625" y="19.26"/>
  </clipPath>
 </defs>
</svg>
