<?xml version="1.0" encoding="utf-8" standalone="no"?>
<!DOCTYPE svg PUBLIC "-//W3C//DTD SVG 1.1//EN"
  "http://www.w3.org/Graphics/SVG/1.1/DTD/svg11.dtd">
<!-- Created with matplotlib (http://matplotlib.org/) -->
<svg height="432pt" version="1.1" viewBox="0 0 432 432" width="432pt" xmlns="http://www.w3.org/2000/svg" xmlns:xlink="http://www.w3.org/1999/xlink">
 <defs>
  <style type="text/css">
*{stroke-linecap:butt;stroke-linejoin:round;}
  </style>
 </defs>
 <g id="figure_1">
  <g id="patch_1">
   <path d="
M0 432
L432 432
L432 0
L0 0
z
" style="fill:#ffffff;"/>
  </g>
  <g id="axes_1">
   <g id="patch_2">
    <path d="
M98.1141 355.587
L413.64 355.587
L413.64 26.91
L98.1141 26.91
z
" style="fill:#ffffff;"/>
   </g>
   <g id="PathCollection_1">
    <defs>
     <path d="
M98.1141 -76.4128
L101.301 -76.4128
L104.488 -76.4128
L107.675 -76.4128
L110.863 -76.4128
L114.05 -76.4128
L117.237 -76.4128
L120.424 -76.4128
L123.611 -76.4128
L126.798 -76.4128
L129.985 -76.4128
L133.173 -76.4128
L136.36 -76.4128
L139.547 -76.4128
L142.734 -76.4128
L145.921 -76.4128
L149.108 -76.4128
L152.295 -76.4128
L155.482 -76.4128
L158.67 -76.4128
L161.857 -76.4128
L165.044 -76.4128
L168.231 -76.4128
L171.418 -76.4128
L174.605 -76.4128
L177.792 -76.4128
L180.979 -76.4128
L184.167 -76.4128
L187.354 -76.4128
L190.541 -76.4128
L193.728 -76.4128
L196.915 -76.4128
L200.102 -76.4128
L203.289 -76.4128
L206.477 -76.4128
L209.664 -76.4128
L212.851 -76.4128
L216.038 -76.4128
L219.225 -76.4128
L222.412 -76.4128
L225.599 -76.4128
L228.786 -76.4128
L231.974 -76.4128
L235.161 -76.4128
L238.348 -76.4128
L241.535 -76.4128
L244.722 -76.4128
L247.909 -76.4128
L251.096 -76.4128
L254.283 -76.4128
L257.471 -76.4128
L260.658 -76.4128
L263.845 -76.4128
L267.032 -76.4128
L270.219 -76.4128
L273.406 -76.4128
L276.593 -76.4128
L279.781 -76.4128
L282.968 -76.4128
L286.155 -76.4128
L289.342 -76.4128
L292.529 -76.4128
L295.716 -76.4128
L298.903 -76.4128
L302.09 -76.4128
L305.278 -76.4128
L308.465 -76.4128
L311.652 -76.4128
L314.839 -76.4128
L318.026 -76.4128
L321.213 -76.4128
L324.4 -76.4128
L327.587 -76.4128
L330.775 -76.4128
L333.962 -76.4128
L337.149 -76.4128
L340.336 -76.4128
L343.523 -76.4128
L346.71 -76.4128
L349.897 -76.4128
L353.085 -76.4128
L356.272 -76.4128
L359.459 -76.4128
L362.646 -76.4128
L365.833 -76.4128
L369.02 -76.4128
L372.207 -76.4128
L375.394 -76.4128
L378.582 -76.4128
L381.769 -76.4128
L384.956 -76.4128
L388.143 -76.4128
L391.33 -76.4128
L394.517 -76.4128
L397.704 -76.4128
L400.891 -76.4128
L404.079 -76.4128
L407.266 -76.4128
L410.453 -76.4128
L413.64 -76.4128
L413.64 -79.7328
L413.64 -83.0528
L413.64 -86.3727
L413.64 -89.6927
L413.64 -93.0127
L413.64 -96.3326
L413.64 -99.6526
L413.64 -102.973
L413.64 -106.293
L413.64 -109.613
L413.64 -112.932
L413.64 -116.252
L413.64 -119.572
L413.64 -122.892
L413.64 -126.212
L413.64 -129.532
L413.64 -132.852
L413.64 -136.172
L413.64 -139.492
L413.64 -142.812
L413.64 -146.132
L413.64 -149.452
L413.64 -152.772
L413.64 -156.092
L413.64 -159.412
L413.64 -162.732
L413.64 -166.052
L413.64 -169.372
L413.64 -172.692
L413.64 -176.012
L413.64 -179.332
L413.64 -182.652
L413.64 -185.972
L413.64 -189.292
L413.64 -192.612
L413.64 -195.932
L413.64 -199.252
L413.64 -202.572
L413.64 -205.892
L413.64 -209.212
L413.64 -212.532
L413.64 -215.852
L413.64 -219.172
L413.64 -222.492
L413.64 -225.812
L413.64 -229.132
L413.64 -232.451
L413.64 -235.771
L413.64 -239.091
L413.64 -242.411
L413.64 -245.731
L413.64 -249.051
L413.64 -252.371
L413.64 -255.691
L413.64 -259.011
L413.64 -262.331
L413.64 -265.651
L413.64 -268.971
L413.64 -272.291
L413.64 -275.611
L413.64 -278.931
L413.64 -282.251
L413.64 -285.571
L413.64 -288.891
L413.64 -292.211
L413.64 -295.531
L413.64 -298.851
L413.64 -302.171
L413.64 -305.491
L413.64 -308.811
L413.64 -312.131
L413.64 -315.451
L413.64 -318.771
L413.64 -322.091
L413.64 -325.411
L413.64 -328.731
L413.64 -332.051
L413.64 -335.371
L413.64 -338.691
L413.64 -342.011
L413.64 -345.331
L413.64 -348.65
L413.64 -351.97
L413.64 -355.29
L413.64 -358.61
L413.64 -361.93
L413.64 -365.25
L413.64 -368.57
L413.64 -371.89
L413.64 -375.21
L413.64 -378.53
L413.64 -381.85
L413.64 -385.17
L413.64 -388.49
L413.64 -391.81
L413.64 -395.13
L413.64 -398.45
L413.64 -401.77
L413.64 -405.09
L410.453 -405.09
L407.266 -405.09
L404.079 -405.09
L400.891 -405.09
L397.704 -405.09
L394.517 -405.09
L391.33 -405.09
L388.143 -405.09
L384.956 -405.09
L381.769 -405.09
L378.582 -405.09
L375.394 -405.09
L372.207 -405.09
L369.02 -405.09
L365.833 -405.09
L362.646 -405.09
L359.459 -405.09
L356.272 -405.09
L353.085 -405.09
L349.897 -405.09
L346.71 -405.09
L343.523 -405.09
L340.336 -405.09
L337.149 -405.09
L333.962 -405.09
L330.775 -405.09
L327.587 -405.09
L324.4 -405.09
L321.213 -405.09
L318.026 -405.09
L314.839 -405.09
L311.652 -405.09
L308.465 -405.09
L305.278 -405.09
L302.09 -405.09
L298.903 -405.09
L295.716 -405.09
L292.529 -405.09
L289.342 -405.09
L286.155 -405.09
L282.968 -405.09
L279.781 -405.09
L276.593 -405.09
L273.406 -405.09
L270.219 -405.09
L267.032 -405.09
L263.845 -405.09
L260.658 -405.09
L257.471 -405.09
L254.283 -405.09
L251.096 -405.09
L247.909 -405.09
L244.722 -405.09
L241.535 -405.09
L238.348 -405.09
L235.161 -405.09
L231.974 -405.09
L228.786 -405.09
L225.599 -405.09
L222.412 -405.09
L219.225 -405.09
L216.038 -405.09
L212.851 -405.09
L209.664 -405.09
L206.477 -405.09
L203.289 -405.09
L200.102 -405.09
L196.915 -405.09
L193.728 -405.09
L190.541 -405.09
L187.354 -405.09
L184.167 -405.09
L180.979 -405.09
L177.792 -405.09
L174.605 -405.09
L171.418 -405.09
L168.231 -405.09
L165.044 -405.09
L161.857 -405.09
L158.67 -405.09
L155.482 -405.09
L152.295 -405.09
L149.108 -405.09
L145.921 -405.09
L142.734 -405.09
L139.547 -405.09
L136.36 -405.09
L133.173 -405.09
L129.985 -405.09
L126.798 -405.09
L123.611 -405.09
L120.424 -405.09
L117.237 -405.09
L114.05 -405.09
L110.863 -405.09
L107.675 -405.09
L104.488 -405.09
L101.301 -405.09
L98.1141 -405.09
L98.1141 -401.77
L98.1141 -398.45
L98.1141 -395.13
L98.1141 -391.81
L98.1141 -388.49
L98.1141 -385.17
L98.1141 -381.85
L98.1141 -378.53
L98.1141 -375.21
L98.1141 -371.89
L98.1141 -368.57
L98.1141 -365.25
L98.1141 -361.93
L98.1141 -358.61
L98.1141 -355.29
L98.1141 -351.97
L98.1141 -348.65
L98.1141 -345.331
L98.1141 -342.011
L98.1141 -338.691
L98.1141 -335.371
L98.1141 -332.051
L98.1141 -328.731
L98.1141 -325.411
L98.1141 -322.091
L98.1141 -318.771
L98.1141 -315.451
L98.1141 -312.131
L98.1141 -308.811
L98.1141 -305.491
L98.1141 -302.171
L98.1141 -298.851
L98.1141 -295.531
L98.1141 -292.211
L98.1141 -288.891
L98.1141 -285.571
L98.1141 -282.251
L98.1141 -278.931
L98.1141 -275.611
L98.1141 -272.291
L98.1141 -268.971
L98.1141 -265.651
L98.1141 -262.331
L98.1141 -259.011
L98.1141 -255.691
L98.1141 -252.371
L98.1141 -249.051
L98.1141 -245.731
L98.1141 -242.411
L98.1141 -239.091
L98.1141 -235.771
L98.1141 -232.451
L98.1141 -229.132
L98.1141 -225.812
L98.1141 -222.492
L98.1141 -219.172
L98.1141 -215.852
L98.1141 -212.532
L98.1141 -209.212
L98.1141 -205.892
L98.1141 -202.572
L98.1141 -199.252
L98.1141 -195.932
L98.1141 -192.612
L98.1141 -189.292
L98.1141 -185.972
L98.1141 -182.652
L98.1141 -179.332
L98.1141 -176.012
L98.1141 -172.692
L98.1141 -169.372
L98.1141 -166.052
L98.1141 -162.732
L98.1141 -159.412
L98.1141 -156.092
L98.1141 -152.772
L98.1141 -149.452
L98.1141 -146.132
L98.1141 -142.812
L98.1141 -139.492
L98.1141 -136.172
L98.1141 -132.852
L98.1141 -129.532
L98.1141 -126.212
L98.1141 -122.892
L98.1141 -119.572
L98.1141 -116.252
L98.1141 -112.932
L98.1141 -109.613
L98.1141 -106.293
L98.1141 -102.973
L98.1141 -99.6526
L98.1141 -96.3326
L98.1141 -93.0127
L98.1141 -89.6927
L98.1141 -86.3727
L98.1141 -83.0528
L98.1141 -79.7328
L98.1141 -76.4128
M254.283 -116.246
L254.229 -116.252
L251.096 -116.572
L247.909 -116.976
L244.722 -117.419
L241.535 -117.862
L238.348 -118.278
L235.161 -118.637
L231.974 -118.955
L228.786 -119.259
L225.817 -119.572
L225.599 -119.593
L222.412 -119.961
L219.225 -120.469
L216.038 -121.181
L212.851 -122.108
L210.702 -122.892
L209.664 -123.243
L206.477 -124.527
L203.289 -126.076
L203.043 -126.212
L200.102 -127.859
L197.632 -129.532
L196.915 -130.056
L193.728 -132.792
L193.666 -132.852
L190.641 -136.172
L190.541 -136.296
L188.113 -139.492
L187.354 -140.532
L185.712 -142.812
L184.167 -144.879
L183.215 -146.132
L180.979 -148.854
L180.48 -149.452
L177.792 -152.565
L177.611 -152.772
L174.605 -156.018
L174.537 -156.092
L171.418 -159.393
L171.4 -159.412
L168.231 -162.489
L167.97 -162.732
L165.044 -165.241
L164.063 -166.052
L161.857 -167.732
L159.717 -169.372
L158.67 -170.144
L155.482 -172.682
L155.471 -172.692
L152.295 -175.635
L151.933 -176.012
L149.228 -179.332
L149.108 -179.522
L147.246 -182.652
L145.921 -185.958
L145.915 -185.972
L144.985 -189.292
L144.438 -192.612
L144.136 -195.932
L143.919 -199.252
L143.667 -202.572
L143.276 -205.892
L142.737 -209.212
L142.734 -209.227
L142.004 -212.532
L141.249 -215.852
L140.548 -219.172
L139.965 -222.492
L139.547 -225.799
L139.545 -225.812
L139.266 -229.132
L139.171 -232.451
L139.252 -235.771
L139.463 -239.091
L139.547 -240.031
L139.739 -242.411
L140.045 -245.731
L140.379 -249.051
L140.719 -252.371
L141.094 -255.691
L141.485 -259.011
L141.867 -262.331
L142.162 -265.651
L142.306 -268.971
L142.281 -272.291
L142.174 -275.611
L142.055 -278.931
L142.035 -282.251
L142.206 -285.571
L142.625 -288.891
L142.734 -289.424
L143.288 -292.211
L144.233 -295.531
L145.458 -298.851
L145.921 -299.918
L146.942 -302.171
L148.717 -305.491
L149.108 -306.155
L150.803 -308.811
L152.295 -310.86
L153.326 -312.131
L155.482 -314.55
L156.382 -315.451
L158.67 -317.624
L159.95 -318.771
L161.857 -320.482
L163.585 -322.091
L165.044 -323.498
L166.823 -325.411
L168.231 -326.974
L169.71 -328.731
L171.418 -330.703
L172.578 -332.051
L174.605 -334.187
L175.826 -335.371
L177.792 -337.077
L179.963 -338.691
L180.979 -339.397
L184.167 -341.323
L185.453 -342.011
L187.354 -343.067
L190.541 -344.754
L191.617 -345.331
L193.728 -346.59
L196.915 -348.563
L197.047 -348.65
L200.102 -350.813
L201.762 -351.97
L203.289 -353.028
L206.477 -355.069
L206.843 -355.29
L209.664 -356.896
L212.851 -358.452
L213.203 -358.61
L216.038 -359.875
L219.225 -361.149
L221.392 -361.93
L222.412 -362.333
L225.599 -363.549
L228.786 -364.647
L230.725 -365.25
L231.974 -365.697
L235.161 -366.696
L238.348 -367.486
L241.535 -368.049
L244.722 -368.385
L247.909 -368.502
L251.096 -368.421
L254.283 -368.165
L257.471 -367.8
L260.658 -367.376
L263.845 -366.945
L267.032 -366.556
L270.219 -366.212
L273.406 -365.888
L276.593 -365.525
L278.487 -365.25
L279.781 -365.089
L282.968 -364.558
L286.155 -363.852
L289.342 -362.968
L292.529 -361.93
L292.529 -361.93
L295.716 -360.925
L298.903 -359.843
L302.09 -358.66
L302.218 -358.61
L305.278 -357.518
L308.465 -356.228
L310.505 -355.29
L311.652 -354.802
L314.839 -353.278
L317.186 -351.97
L318.026 -351.547
L321.213 -349.734
L322.881 -348.65
L324.4 -347.748
L327.587 -345.568
L327.919 -345.331
L330.775 -343.364
L332.552 -342.011
L333.962 -340.939
L336.688 -338.691
L337.149 -338.298
L340.336 -335.432
L340.402 -335.371
L343.523 -332.306
L343.77 -332.051
L346.71 -328.886
L346.849 -328.731
L349.784 -325.411
L349.897 -325.279
L352.561 -322.091
L353.085 -321.434
L355.14 -318.771
L356.272 -317.193
L357.485 -315.451
L359.459 -312.352
L359.603 -312.131
L361.72 -308.811
L362.646 -307.275
L363.808 -305.491
L365.833 -302.324
L365.942 -302.171
L368.255 -298.851
L369.02 -297.671
L370.565 -295.531
L372.207 -292.821
L372.599 -292.211
L374.237 -288.891
L375.336 -285.571
L375.394 -285.32
L376.116 -282.251
L376.63 -278.931
L377.024 -275.611
L377.363 -272.291
L377.671 -268.971
L377.945 -265.651
L378.182 -262.331
L378.391 -259.011
L378.582 -256.014
L378.605 -255.691
L378.884 -252.371
L379.233 -249.051
L379.631 -245.731
L380.022 -242.411
L380.353 -239.091
L380.515 -235.771
L380.406 -232.451
L379.937 -229.132
L379.093 -225.812
L378.582 -224.366
L377.984 -222.492
L376.724 -219.172
L375.394 -215.963
L375.354 -215.852
L374.087 -212.532
L372.78 -209.212
L372.207 -207.776
L371.506 -205.892
L370.248 -202.572
L369.02 -199.422
L368.956 -199.252
L367.752 -195.932
L366.554 -192.612
L365.833 -190.575
L365.388 -189.292
L364.238 -185.972
L362.987 -182.652
L362.646 -181.792
L361.667 -179.332
L360.198 -176.012
L359.459 -174.439
L358.65 -172.692
L357.046 -169.372
L356.272 -167.821
L355.403 -166.052
L353.633 -162.732
L353.085 -161.812
L351.729 -159.412
L349.897 -156.682
L349.523 -156.092
L347.02 -152.772
L346.71 -152.422
L344.134 -149.452
L343.523 -148.846
L340.74 -146.132
L340.336 -145.784
L337.149 -143.182
L336.663 -142.812
L333.962 -140.898
L331.796 -139.492
L330.775 -138.84
L327.587 -136.883
L326.394 -136.172
L324.4 -134.942
L321.213 -133.008
L320.961 -132.852
L318.026 -130.952
L315.782 -129.532
L314.839 -128.911
L311.652 -126.897
L310.489 -126.212
L308.465 -125.01
L305.278 -123.337
L304.308 -122.892
L302.09 -121.863
L298.903 -120.624
L295.716 -119.639
L295.45 -119.572
L292.529 -118.808
L289.342 -118.174
L286.155 -117.686
L282.968 -117.319
L279.781 -117.029
L276.593 -116.782
L273.406 -116.551
L270.219 -116.326
L269.009 -116.252
L267.032 -116.116
L263.845 -115.964
L260.658 -115.92
L257.471 -116.031
L254.283 -116.246" id="C0_0_c4ce2430e0"/>
    </defs>
    <g clip-path="url(#pf09d5ab2a3)">
     <use style="fill:#ffffff;" x="0.0" xlink:href="#C0_0_c4ce2430e0" y="432.0"/>
    </g>
   </g>
   <g id="PathCollection_2">
    <defs>
     <path d="
M254.283 -116.246
L257.471 -116.031
L260.658 -115.92
L263.845 -115.964
L267.032 -116.116
L269.009 -116.252
L270.219 -116.326
L273.406 -116.551
L276.593 -116.782
L279.781 -117.029
L282.968 -117.319
L286.155 -117.686
L289.342 -118.174
L292.529 -118.808
L295.45 -119.572
L295.716 -119.639
L298.903 -120.624
L302.09 -121.863
L304.308 -122.892
L305.278 -123.337
L308.465 -125.01
L310.489 -126.212
L311.652 -126.897
L314.839 -128.911
L315.782 -129.532
L318.026 -130.952
L320.961 -132.852
L321.213 -133.008
L324.4 -134.942
L326.394 -136.172
L327.587 -136.883
L330.775 -138.84
L331.796 -139.492
L333.962 -140.898
L336.663 -142.812
L337.149 -143.182
L340.336 -145.784
L340.74 -146.132
L343.523 -148.846
L344.134 -149.452
L346.71 -152.422
L347.02 -152.772
L349.523 -156.092
L349.897 -156.682
L351.729 -159.412
L353.085 -161.812
L353.633 -162.732
L355.403 -166.052
L356.272 -167.821
L357.046 -169.372
L358.65 -172.692
L359.459 -174.439
L360.198 -176.012
L361.667 -179.332
L362.646 -181.792
L362.987 -182.652
L364.238 -185.972
L365.388 -189.292
L365.833 -190.575
L366.554 -192.612
L367.752 -195.932
L368.956 -199.252
L369.02 -199.422
L370.248 -202.572
L371.506 -205.892
L372.207 -207.776
L372.78 -209.212
L374.087 -212.532
L375.354 -215.852
L375.394 -215.963
L376.724 -219.172
L377.984 -222.492
L378.582 -224.366
L379.093 -225.812
L379.937 -229.132
L380.406 -232.451
L380.515 -235.771
L380.353 -239.091
L380.022 -242.411
L379.631 -245.731
L379.233 -249.051
L378.884 -252.371
L378.605 -255.691
L378.582 -256.014
L378.391 -259.011
L378.182 -262.331
L377.945 -265.651
L377.671 -268.971
L377.363 -272.291
L377.024 -275.611
L376.63 -278.931
L376.116 -282.251
L375.394 -285.32
L375.336 -285.571
L374.237 -288.891
L372.599 -292.211
L372.207 -292.821
L370.565 -295.531
L369.02 -297.671
L368.255 -298.851
L365.942 -302.171
L365.833 -302.324
L363.808 -305.491
L362.646 -307.275
L361.72 -308.811
L359.603 -312.131
L359.459 -312.352
L357.485 -315.451
L356.272 -317.193
L355.14 -318.771
L353.085 -321.434
L352.561 -322.091
L349.897 -325.279
L349.784 -325.411
L346.849 -328.731
L346.71 -328.886
L343.77 -332.051
L343.523 -332.306
L340.402 -335.371
L340.336 -335.432
L337.149 -338.298
L336.688 -338.691
L333.962 -340.939
L332.552 -342.011
L330.775 -343.364
L327.919 -345.331
L327.587 -345.568
L324.4 -347.748
L322.881 -348.65
L321.213 -349.734
L318.026 -351.547
L317.186 -351.97
L314.839 -353.278
L311.652 -354.802
L310.505 -355.29
L308.465 -356.228
L305.278 -357.518
L302.218 -358.61
L302.09 -358.66
L298.903 -359.843
L295.716 -360.925
L292.529 -361.93
L292.529 -361.93
L289.342 -362.968
L286.155 -363.852
L282.968 -364.558
L279.781 -365.089
L278.487 -365.25
L276.593 -365.525
L273.406 -365.888
L270.219 -366.212
L267.032 -366.556
L263.845 -366.945
L260.658 -367.376
L257.471 -367.8
L254.283 -368.165
L251.096 -368.421
L247.909 -368.502
L244.722 -368.385
L241.535 -368.049
L238.348 -367.486
L235.161 -366.696
L231.974 -365.697
L230.725 -365.25
L228.786 -364.647
L225.599 -363.549
L222.412 -362.333
L221.392 -361.93
L219.225 -361.149
L216.038 -359.875
L213.203 -358.61
L212.851 -358.452
L209.664 -356.896
L206.843 -355.29
L206.477 -355.069
L203.289 -353.028
L201.762 -351.97
L200.102 -350.813
L197.047 -348.65
L196.915 -348.563
L193.728 -346.59
L191.617 -345.331
L190.541 -344.754
L187.354 -343.067
L185.453 -342.011
L184.167 -341.323
L180.979 -339.397
L179.963 -338.691
L177.792 -337.077
L175.826 -335.371
L174.605 -334.187
L172.578 -332.051
L171.418 -330.703
L169.71 -328.731
L168.231 -326.974
L166.823 -325.411
L165.044 -323.498
L163.585 -322.091
L161.857 -320.482
L159.95 -318.771
L158.67 -317.624
L156.382 -315.451
L155.482 -314.55
L153.326 -312.131
L152.295 -310.86
L150.803 -308.811
L149.108 -306.155
L148.717 -305.491
L146.942 -302.171
L145.921 -299.918
L145.458 -298.851
L144.233 -295.531
L143.288 -292.211
L142.734 -289.424
L142.625 -288.891
L142.206 -285.571
L142.035 -282.251
L142.055 -278.931
L142.174 -275.611
L142.281 -272.291
L142.306 -268.971
L142.162 -265.651
L141.867 -262.331
L141.485 -259.011
L141.094 -255.691
L140.719 -252.371
L140.379 -249.051
L140.045 -245.731
L139.739 -242.411
L139.547 -240.031
L139.463 -239.091
L139.252 -235.771
L139.171 -232.451
L139.266 -229.132
L139.545 -225.812
L139.547 -225.799
L139.965 -222.492
L140.548 -219.172
L141.249 -215.852
L142.004 -212.532
L142.734 -209.227
L142.737 -209.212
L143.276 -205.892
L143.667 -202.572
L143.919 -199.252
L144.136 -195.932
L144.438 -192.612
L144.985 -189.292
L145.915 -185.972
L145.921 -185.958
L147.246 -182.652
L149.108 -179.522
L149.228 -179.332
L151.933 -176.012
L152.295 -175.635
L155.471 -172.692
L155.482 -172.682
L158.67 -170.144
L159.717 -169.372
L161.857 -167.732
L164.063 -166.052
L165.044 -165.241
L167.97 -162.732
L168.231 -162.489
L171.4 -159.412
L171.418 -159.393
L174.537 -156.092
L174.605 -156.018
L177.611 -152.772
L177.792 -152.565
L180.48 -149.452
L180.979 -148.854
L183.215 -146.132
L184.167 -144.879
L185.712 -142.812
L187.354 -140.532
L188.113 -139.492
L190.541 -136.296
L190.641 -136.172
L193.666 -132.852
L193.728 -132.792
L196.915 -130.056
L197.632 -129.532
L200.102 -127.859
L203.043 -126.212
L203.289 -126.076
L206.477 -124.527
L209.664 -123.243
L210.702 -122.892
L212.851 -122.108
L216.038 -121.181
L219.225 -120.469
L222.412 -119.961
L225.599 -119.593
L225.817 -119.572
L228.786 -119.259
L231.974 -118.955
L235.161 -118.637
L238.348 -118.278
L241.535 -117.862
L244.722 -117.419
L247.909 -116.976
L251.096 -116.572
L254.229 -116.252
L254.283 -116.246
M241.535 -156.032
L241.359 -156.092
L238.348 -157.172
L235.161 -158.522
L233.309 -159.412
L231.974 -160.053
L228.786 -161.72
L227.021 -162.732
L225.599 -163.535
L222.412 -165.543
L221.662 -166.052
L219.225 -167.748
L217.062 -169.372
L216.038 -170.176
L212.98 -172.692
L212.851 -172.807
L209.664 -175.639
L209.243 -176.012
L206.477 -178.636
L205.743 -179.332
L203.289 -181.83
L202.499 -182.652
L200.102 -185.381
L199.602 -185.972
L197.096 -189.292
L196.915 -189.572
L195.06 -192.612
L193.728 -195.322
L193.441 -195.932
L192.098 -199.252
L190.934 -202.572
L190.541 -203.705
L189.767 -205.892
L188.495 -209.212
L187.354 -211.819
L187.028 -212.532
L185.339 -215.852
L184.167 -218.022
L183.533 -219.172
L181.761 -222.492
L180.979 -224.131
L180.196 -225.812
L178.945 -229.132
L178.047 -232.451
L177.792 -234.026
L177.522 -235.771
L177.319 -239.091
L177.367 -242.411
L177.604 -245.731
L177.792 -247.328
L177.991 -249.051
L178.489 -252.371
L179.09 -255.691
L179.809 -259.011
L180.629 -262.331
L180.979 -263.56
L181.57 -265.651
L182.607 -268.971
L183.705 -272.291
L184.167 -273.58
L184.874 -275.611
L186.155 -278.931
L187.354 -281.636
L187.632 -282.251
L189.373 -285.571
L190.541 -287.466
L191.471 -288.891
L193.728 -291.884
L193.995 -292.211
L196.915 -295.465
L196.979 -295.531
L200.102 -298.548
L200.44 -298.851
L203.289 -301.337
L204.303 -302.171
L206.477 -303.933
L208.494 -305.491
L209.664 -306.383
L212.851 -308.741
L212.947 -308.811
L216.038 -311.016
L217.668 -312.131
L219.225 -313.197
L222.412 -315.261
L222.728 -315.451
L225.599 -317.251
L228.29 -318.771
L228.786 -319.071
L231.974 -320.778
L234.79 -322.091
L235.161 -322.28
L238.348 -323.659
L241.535 -324.845
L243.329 -325.411
L244.722 -325.866
L247.909 -326.748
L251.096 -327.508
L254.283 -328.178
L257.052 -328.731
L257.471 -328.811
L260.658 -329.399
L263.845 -329.954
L267.032 -330.419
L270.219 -330.671
L273.406 -330.543
L276.593 -329.88
L279.467 -328.731
L279.781 -328.597
L282.968 -326.662
L284.716 -325.411
L286.155 -324.389
L289.342 -322.097
L289.351 -322.091
L292.529 -320.134
L295.394 -318.771
L295.716 -318.617
L298.903 -317.663
L302.09 -317.232
L305.278 -317.176
L308.465 -317.089
L311.652 -316.33
L313.039 -315.451
L314.839 -313.871
L315.974 -312.131
L317.727 -308.811
L318.026 -308.216
L319.111 -305.491
L320.517 -302.171
L321.213 -300.585
L321.918 -298.851
L323.254 -295.531
L324.4 -292.427
L324.48 -292.211
L325.575 -288.891
L326.545 -285.571
L327.413 -282.251
L327.587 -281.551
L328.293 -278.931
L329.229 -275.611
L330.242 -272.291
L330.775 -270.691
L331.399 -268.971
L332.66 -265.651
L333.855 -262.331
L333.962 -261.989
L334.893 -259.011
L335.643 -255.691
L336.075 -252.371
L336.216 -249.051
L336.126 -245.731
L335.885 -242.411
L335.574 -239.091
L335.267 -235.771
L335.017 -232.451
L334.844 -229.132
L334.683 -225.812
L334.462 -222.492
L334.135 -219.172
L333.962 -218.051
L333.642 -215.852
L332.949 -212.532
L332.029 -209.212
L330.882 -205.892
L330.775 -205.624
L329.536 -202.572
L327.994 -199.252
L327.587 -198.444
L326.274 -195.932
L324.424 -192.612
L324.4 -192.57
L322.408 -189.292
L321.213 -187.414
L320.19 -185.972
L318.026 -183.106
L317.632 -182.652
L314.839 -179.668
L314.481 -179.332
L311.652 -176.882
L310.552 -176.012
L308.465 -174.48
L305.915 -172.692
L305.278 -172.274
L302.09 -170.15
L300.928 -169.372
L298.903 -168.085
L295.716 -166.107
L295.627 -166.052
L292.529 -164.222
L289.822 -162.732
L289.342 -162.47
L286.155 -160.836
L283.009 -159.412
L282.968 -159.393
L279.781 -158.089
L276.593 -156.994
L273.406 -156.092
L273.406 -156.092
L270.219 -155.337
L267.032 -154.765
L263.845 -154.339
L260.658 -154.045
L257.471 -153.885
L254.283 -153.88
L251.096 -154.065
L247.909 -154.468
L244.722 -155.121
L241.535 -156.032" id="C1_0_0d26465273"/>
    </defs>
    <g clip-path="url(#pf09d5ab2a3)">
     <use style="fill:#0000ff;fill-opacity:0.5;" x="0.0" xlink:href="#C1_0_0d26465273" y="432.0"/>
    </g>
   </g>
   <g id="PathCollection_3">
    <defs>
     <path d="
M241.535 -156.032
L244.722 -155.121
L247.909 -154.468
L251.096 -154.065
L254.283 -153.88
L257.471 -153.885
L260.658 -154.045
L263.845 -154.339
L267.032 -154.765
L270.219 -155.337
L273.406 -156.092
L273.406 -156.092
L276.593 -156.994
L279.781 -158.089
L282.968 -159.393
L283.009 -159.412
L286.155 -160.836
L289.342 -162.47
L289.822 -162.732
L292.529 -164.222
L295.627 -166.052
L295.716 -166.107
L298.903 -168.085
L300.928 -169.372
L302.09 -170.15
L305.278 -172.274
L305.915 -172.692
L308.465 -174.48
L310.552 -176.012
L311.652 -176.882
L314.481 -179.332
L314.839 -179.668
L317.632 -182.652
L318.026 -183.106
L320.19 -185.972
L321.213 -187.414
L322.408 -189.292
L324.4 -192.57
L324.424 -192.612
L326.274 -195.932
L327.587 -198.444
L327.994 -199.252
L329.536 -202.572
L330.775 -205.624
L330.882 -205.892
L332.029 -209.212
L332.949 -212.532
L333.642 -215.852
L333.962 -218.051
L334.135 -219.172
L334.462 -222.492
L334.683 -225.812
L334.844 -229.132
L335.017 -232.451
L335.267 -235.771
L335.574 -239.091
L335.885 -242.411
L336.126 -245.731
L336.216 -249.051
L336.075 -252.371
L335.643 -255.691
L334.893 -259.011
L333.962 -261.989
L333.855 -262.331
L332.66 -265.651
L331.399 -268.971
L330.775 -270.691
L330.242 -272.291
L329.229 -275.611
L328.293 -278.931
L327.587 -281.551
L327.413 -282.251
L326.545 -285.571
L325.575 -288.891
L324.48 -292.211
L324.4 -292.427
L323.254 -295.531
L321.918 -298.851
L321.213 -300.585
L320.517 -302.171
L319.111 -305.491
L318.026 -308.216
L317.727 -308.811
L315.974 -312.131
L314.839 -313.871
L313.039 -315.451
L311.652 -316.33
L308.465 -317.089
L305.278 -317.176
L302.09 -317.232
L298.903 -317.663
L295.716 -318.617
L295.394 -318.771
L292.529 -320.134
L289.351 -322.091
L289.342 -322.097
L286.155 -324.389
L284.716 -325.411
L282.968 -326.662
L279.781 -328.597
L279.467 -328.731
L276.593 -329.88
L273.406 -330.543
L270.219 -330.671
L267.032 -330.419
L263.845 -329.954
L260.658 -329.399
L257.471 -328.811
L257.052 -328.731
L254.283 -328.178
L251.096 -327.508
L247.909 -326.748
L244.722 -325.866
L243.329 -325.411
L241.535 -324.845
L238.348 -323.659
L235.161 -322.28
L234.79 -322.091
L231.974 -320.778
L228.786 -319.071
L228.29 -318.771
L225.599 -317.251
L222.728 -315.451
L222.412 -315.261
L219.225 -313.197
L217.668 -312.131
L216.038 -311.016
L212.947 -308.811
L212.851 -308.741
L209.664 -306.383
L208.494 -305.491
L206.477 -303.933
L204.303 -302.171
L203.289 -301.337
L200.44 -298.851
L200.102 -298.548
L196.979 -295.531
L196.915 -295.465
L193.995 -292.211
L193.728 -291.884
L191.471 -288.891
L190.541 -287.466
L189.373 -285.571
L187.632 -282.251
L187.354 -281.636
L186.155 -278.931
L184.874 -275.611
L184.167 -273.58
L183.705 -272.291
L182.607 -268.971
L181.57 -265.651
L180.979 -263.56
L180.629 -262.331
L179.809 -259.011
L179.09 -255.691
L178.489 -252.371
L177.991 -249.051
L177.792 -247.328
L177.604 -245.731
L177.367 -242.411
L177.319 -239.091
L177.522 -235.771
L177.792 -234.026
L178.047 -232.451
L178.945 -229.132
L180.196 -225.812
L180.979 -224.131
L181.761 -222.492
L183.533 -219.172
L184.167 -218.022
L185.339 -215.852
L187.028 -212.532
L187.354 -211.819
L188.495 -209.212
L189.767 -205.892
L190.541 -203.705
L190.934 -202.572
L192.098 -199.252
L193.441 -195.932
L193.728 -195.322
L195.06 -192.612
L196.915 -189.572
L197.096 -189.292
L199.602 -185.972
L200.102 -185.381
L202.499 -182.652
L203.289 -181.83
L205.743 -179.332
L206.477 -178.636
L209.243 -176.012
L209.664 -175.639
L212.851 -172.807
L212.98 -172.692
L216.038 -170.176
L217.062 -169.372
L219.225 -167.748
L221.662 -166.052
L222.412 -165.543
L225.599 -163.535
L227.021 -162.732
L228.786 -161.72
L231.974 -160.053
L233.309 -159.412
L235.161 -158.522
L238.348 -157.172
L241.359 -156.092
L241.535 -156.032" id="C2_0_e6f6d92e4a"/>
    </defs>
    <g clip-path="url(#pf09d5ab2a3)">
     <use style="fill:#0000ff;" x="0.0" xlink:href="#C2_0_e6f6d92e4a" y="432.0"/>
    </g>
   </g>
   <g id="line2d_1">
    <path clip-path="url(#pf09d5ab2a3)" d="
M282.171 191.249" style="fill:none;stroke:#fa8072;stroke-linecap:square;"/>
    <defs>
     <path d="
M-7.5 0
L7.5 0
M0 7.5
L0 -7.5" id="m415119b0dc" style="stroke:#fa8072;stroke-width:3;"/>
    </defs>
    <g clip-path="url(#pf09d5ab2a3)">
     <use style="fill:#fa8072;stroke:#fa8072;stroke-width:3;" x="282.170859375" xlink:href="#m415119b0dc" y="191.24859375"/>
    </g>
   </g>
   <g id="matplotlib.axis_1">
    <g id="xtick_1">
     <g id="line2d_2">
      <path clip-path="url(#pf09d5ab2a3)" d="
M124.408 355.587
L124.408 26.91" style="fill:none;stroke:#000000;stroke-dasharray:1.000000,3.000000;stroke-dashoffset:0.0;stroke-width:0.5;"/>
     </g>
     <g id="line2d_3">
      <defs>
       <path d="
M0 0
L0 -4" id="m93b0483c22" style="stroke:#000000;stroke-width:0.5;"/>
      </defs>
      <g>
       <use style="stroke:#000000;stroke-width:0.5;" x="124.407890625" xlink:href="#m93b0483c22" y="355.5871875"/>
      </g>
     </g>
     <g id="line2d_4">
      <defs>
       <path d="
M0 0
L0 4" id="m741efc42ff" style="stroke:#000000;stroke-width:0.5;"/>
      </defs>
      <g>
       <use style="stroke:#000000;stroke-width:0.5;" x="124.407890625" xlink:href="#m741efc42ff" y="26.91"/>
      </g>
     </g>
     <g id="text_1">
      <!-- −0.6 -->
      <defs>
       <path d="
M31.7812 66.4062
Q24.1719 66.4062 20.3281 58.9062
Q16.5 51.4219 16.5 36.375
Q16.5 21.3906 20.3281 13.8906
Q24.1719 6.39062 31.7812 6.39062
Q39.4531 6.39062 43.2812 13.8906
Q47.125 21.3906 47.125 36.375
Q47.125 51.4219 43.2812 58.9062
Q39.4531 66.4062 31.7812 66.4062
M31.7812 74.2188
Q44.0469 74.2188 50.5156 64.5156
Q56.9844 54.8281 56.9844 36.375
Q56.9844 17.9688 50.5156 8.26562
Q44.0469 -1.42188 31.7812 -1.42188
Q19.5312 -1.42188 13.0625 8.26562
Q6.59375 17.9688 6.59375 36.375
Q6.59375 54.8281 13.0625 64.5156
Q19.5312 74.2188 31.7812 74.2188" id="DejaVuSans-30"/>
       <path d="
M10.6875 12.4062
L21 12.4062
L21 0
L10.6875 0
z
" id="DejaVuSans-2e"/>
       <path d="
M33.0156 40.375
Q26.375 40.375 22.4844 35.8281
Q18.6094 31.2969 18.6094 23.3906
Q18.6094 15.5312 22.4844 10.9531
Q26.375 6.39062 33.0156 6.39062
Q39.6562 6.39062 43.5312 10.9531
Q47.4062 15.5312 47.4062 23.3906
Q47.4062 31.2969 43.5312 35.8281
Q39.6562 40.375 33.0156 40.375
M52.5938 71.2969
L52.5938 62.3125
Q48.875 64.0625 45.0938 64.9844
Q41.3125 65.9219 37.5938 65.9219
Q27.8281 65.9219 22.6719 59.3281
Q17.5312 52.7344 16.7969 39.4062
Q19.6719 43.6562 24.0156 45.9219
Q28.375 48.1875 33.5938 48.1875
Q44.5781 48.1875 50.9531 41.5156
Q57.3281 34.8594 57.3281 23.3906
Q57.3281 12.1562 50.6875 5.35938
Q44.0469 -1.42188 33.0156 -1.42188
Q20.3594 -1.42188 13.6719 8.26562
Q6.98438 17.9688 6.98438 36.375
Q6.98438 53.6562 15.1875 63.9375
Q23.3906 74.2188 37.2031 74.2188
Q40.9219 74.2188 44.7031 73.4844
Q48.4844 72.75 52.5938 71.2969" id="DejaVuSans-36"/>
       <path d="
M10.5938 35.5
L73.1875 35.5
L73.1875 27.2031
L10.5938 27.2031
z
" id="DejaVuSans-2212"/>
      </defs>
      <g transform="translate(105.203203125 372.50453125)scale(0.17 -0.17)">
       <use xlink:href="#DejaVuSans-2212"/>
       <use x="83.7890625" xlink:href="#DejaVuSans-30"/>
       <use x="147.412109375" xlink:href="#DejaVuSans-2e"/>
       <use x="179.19921875" xlink:href="#DejaVuSans-36"/>
      </g>
     </g>
    </g>
    <g id="xtick_2">
     <g id="line2d_5">
      <path clip-path="url(#pf09d5ab2a3)" d="
M176.996 355.587
L176.996 26.91" style="fill:none;stroke:#000000;stroke-dasharray:1.000000,3.000000;stroke-dashoffset:0.0;stroke-width:0.5;"/>
     </g>
     <g id="line2d_6">
      <g>
       <use style="stroke:#000000;stroke-width:0.5;" x="176.995546875" xlink:href="#m93b0483c22" y="355.5871875"/>
      </g>
     </g>
     <g id="line2d_7">
      <g>
       <use style="stroke:#000000;stroke-width:0.5;" x="176.995546875" xlink:href="#m741efc42ff" y="26.91"/>
      </g>
     </g>
     <g id="text_2">
      <!-- −0.4 -->
      <defs>
       <path d="
M37.7969 64.3125
L12.8906 25.3906
L37.7969 25.3906
z

M35.2031 72.9062
L47.6094 72.9062
L47.6094 25.3906
L58.0156 25.3906
L58.0156 17.1875
L47.6094 17.1875
L47.6094 0
L37.7969 0
L37.7969 17.1875
L4.89062 17.1875
L4.89062 26.7031
z
" id="DejaVuSans-34"/>
      </defs>
      <g transform="translate(157.732421875 372.50453125)scale(0.17 -0.17)">
       <use xlink:href="#DejaVuSans-2212"/>
       <use x="83.7890625" xlink:href="#DejaVuSans-30"/>
       <use x="147.412109375" xlink:href="#DejaVuSans-2e"/>
       <use x="179.19921875" xlink:href="#DejaVuSans-34"/>
      </g>
     </g>
    </g>
    <g id="xtick_3">
     <g id="line2d_8">
      <path clip-path="url(#pf09d5ab2a3)" d="
M229.583 355.587
L229.583 26.91" style="fill:none;stroke:#000000;stroke-dasharray:1.000000,3.000000;stroke-dashoffset:0.0;stroke-width:0.5;"/>
     </g>
     <g id="line2d_9">
      <g>
       <use style="stroke:#000000;stroke-width:0.5;" x="229.583203125" xlink:href="#m93b0483c22" y="355.5871875"/>
      </g>
     </g>
     <g id="line2d_10">
      <g>
       <use style="stroke:#000000;stroke-width:0.5;" x="229.583203125" xlink:href="#m741efc42ff" y="26.91"/>
      </g>
     </g>
     <g id="text_3">
      <!-- −0.2 -->
      <defs>
       <path d="
M19.1875 8.29688
L53.6094 8.29688
L53.6094 0
L7.32812 0
L7.32812 8.29688
Q12.9375 14.1094 22.625 23.8906
Q32.3281 33.6875 34.8125 36.5312
Q39.5469 41.8438 41.4219 45.5312
Q43.3125 49.2188 43.3125 52.7812
Q43.3125 58.5938 39.2344 62.25
Q35.1562 65.9219 28.6094 65.9219
Q23.9688 65.9219 18.8125 64.3125
Q13.6719 62.7031 7.8125 59.4219
L7.8125 69.3906
Q13.7656 71.7812 18.9375 73
Q24.125 74.2188 28.4219 74.2188
Q39.75 74.2188 46.4844 68.5469
Q53.2188 62.8906 53.2188 53.4219
Q53.2188 48.9219 51.5312 44.8906
Q49.8594 40.875 45.4062 35.4062
Q44.1875 33.9844 37.6406 27.2188
Q31.1094 20.4531 19.1875 8.29688" id="DejaVuSans-32"/>
      </defs>
      <g transform="translate(210.694609375 372.50453125)scale(0.17 -0.17)">
       <use xlink:href="#DejaVuSans-2212"/>
       <use x="83.7890625" xlink:href="#DejaVuSans-30"/>
       <use x="147.412109375" xlink:href="#DejaVuSans-2e"/>
       <use x="179.19921875" xlink:href="#DejaVuSans-32"/>
      </g>
     </g>
    </g>
    <g id="xtick_4">
     <g id="line2d_11">
      <path clip-path="url(#pf09d5ab2a3)" d="
M282.171 355.587
L282.171 26.91" style="fill:none;stroke:#000000;stroke-dasharray:1.000000,3.000000;stroke-dashoffset:0.0;stroke-width:0.5;"/>
     </g>
     <g id="line2d_12">
      <g>
       <use style="stroke:#000000;stroke-width:0.5;" x="282.170859375" xlink:href="#m93b0483c22" y="355.5871875"/>
      </g>
     </g>
     <g id="line2d_13">
      <g>
       <use style="stroke:#000000;stroke-width:0.5;" x="282.170859375" xlink:href="#m741efc42ff" y="26.91"/>
      </g>
     </g>
     <g id="text_4">
      <!-- 0.0 -->
      <g transform="translate(269.778125 372.50453125)scale(0.17 -0.17)">
       <use xlink:href="#DejaVuSans-30"/>
       <use x="63.623046875" xlink:href="#DejaVuSans-2e"/>
       <use x="95.41015625" xlink:href="#DejaVuSans-30"/>
      </g>
     </g>
    </g>
    <g id="xtick_5">
     <g id="line2d_14">
      <path clip-path="url(#pf09d5ab2a3)" d="
M334.759 355.587
L334.759 26.91" style="fill:none;stroke:#000000;stroke-dasharray:1.000000,3.000000;stroke-dashoffset:0.0;stroke-width:0.5;"/>
     </g>
     <g id="line2d_15">
      <g>
       <use style="stroke:#000000;stroke-width:0.5;" x="334.758515625" xlink:href="#m93b0483c22" y="355.5871875"/>
      </g>
     </g>
     <g id="line2d_16">
      <g>
       <use style="stroke:#000000;stroke-width:0.5;" x="334.758515625" xlink:href="#m741efc42ff" y="26.91"/>
      </g>
     </g>
     <g id="text_5">
      <!-- 0.2 -->
      <g transform="translate(322.65265625 372.50453125)scale(0.17 -0.17)">
       <use xlink:href="#DejaVuSans-30"/>
       <use x="63.623046875" xlink:href="#DejaVuSans-2e"/>
       <use x="95.41015625" xlink:href="#DejaVuSans-32"/>
      </g>
     </g>
    </g>
    <g id="xtick_6">
     <g id="line2d_17">
      <path clip-path="url(#pf09d5ab2a3)" d="
M387.346 355.587
L387.346 26.91" style="fill:none;stroke:#000000;stroke-dasharray:1.000000,3.000000;stroke-dashoffset:0.0;stroke-width:0.5;"/>
     </g>
     <g id="line2d_18">
      <g>
       <use style="stroke:#000000;stroke-width:0.5;" x="387.346171875" xlink:href="#m93b0483c22" y="355.5871875"/>
      </g>
     </g>
     <g id="line2d_19">
      <g>
       <use style="stroke:#000000;stroke-width:0.5;" x="387.346171875" xlink:href="#m741efc42ff" y="26.91"/>
      </g>
     </g>
     <g id="text_6">
      <!-- 0.4 -->
      <g transform="translate(374.86578125 372.50453125)scale(0.17 -0.17)">
       <use xlink:href="#DejaVuSans-30"/>
       <use x="63.623046875" xlink:href="#DejaVuSans-2e"/>
       <use x="95.41015625" xlink:href="#DejaVuSans-34"/>
      </g>
     </g>
    </g>
    <g id="xtick_7">
     <g id="line2d_20">
      <defs>
       <path d="
M0 0
L0 -2" id="m177f7580d0" style="stroke:#000000;stroke-width:0.5;"/>
      </defs>
      <g>
       <use style="stroke:#000000;stroke-width:0.5;" x="111.260976562" xlink:href="#m177f7580d0" y="355.5871875"/>
      </g>
     </g>
     <g id="line2d_21">
      <defs>
       <path d="
M0 0
L0 2" id="m5284c7e2a0" style="stroke:#000000;stroke-width:0.5;"/>
      </defs>
      <g>
       <use style="stroke:#000000;stroke-width:0.5;" x="111.260976562" xlink:href="#m5284c7e2a0" y="26.91"/>
      </g>
     </g>
    </g>
    <g id="xtick_8">
     <g id="line2d_22">
      <g>
       <use style="stroke:#000000;stroke-width:0.5;" x="137.554804688" xlink:href="#m177f7580d0" y="355.5871875"/>
      </g>
     </g>
     <g id="line2d_23">
      <g>
       <use style="stroke:#000000;stroke-width:0.5;" x="137.554804688" xlink:href="#m5284c7e2a0" y="26.91"/>
      </g>
     </g>
    </g>
    <g id="xtick_9">
     <g id="line2d_24">
      <g>
       <use style="stroke:#000000;stroke-width:0.5;" x="150.70171875" xlink:href="#m177f7580d0" y="355.5871875"/>
      </g>
     </g>
     <g id="line2d_25">
      <g>
       <use style="stroke:#000000;stroke-width:0.5;" x="150.70171875" xlink:href="#m5284c7e2a0" y="26.91"/>
      </g>
     </g>
    </g>
    <g id="xtick_10">
     <g id="line2d_26">
      <g>
       <use style="stroke:#000000;stroke-width:0.5;" x="163.848632812" xlink:href="#m177f7580d0" y="355.5871875"/>
      </g>
     </g>
     <g id="line2d_27">
      <g>
       <use style="stroke:#000000;stroke-width:0.5;" x="163.848632812" xlink:href="#m5284c7e2a0" y="26.91"/>
      </g>
     </g>
    </g>
    <g id="xtick_11">
     <g id="line2d_28">
      <g>
       <use style="stroke:#000000;stroke-width:0.5;" x="190.142460938" xlink:href="#m177f7580d0" y="355.5871875"/>
      </g>
     </g>
     <g id="line2d_29">
      <g>
       <use style="stroke:#000000;stroke-width:0.5;" x="190.142460938" xlink:href="#m5284c7e2a0" y="26.91"/>
      </g>
     </g>
    </g>
    <g id="xtick_12">
     <g id="line2d_30">
      <g>
       <use style="stroke:#000000;stroke-width:0.5;" x="203.289375" xlink:href="#m177f7580d0" y="355.5871875"/>
      </g>
     </g>
     <g id="line2d_31">
      <g>
       <use style="stroke:#000000;stroke-width:0.5;" x="203.289375" xlink:href="#m5284c7e2a0" y="26.91"/>
      </g>
     </g>
    </g>
    <g id="xtick_13">
     <g id="line2d_32">
      <g>
       <use style="stroke:#000000;stroke-width:0.5;" x="216.436289062" xlink:href="#m177f7580d0" y="355.5871875"/>
      </g>
     </g>
     <g id="line2d_33">
      <g>
       <use style="stroke:#000000;stroke-width:0.5;" x="216.436289062" xlink:href="#m5284c7e2a0" y="26.91"/>
      </g>
     </g>
    </g>
    <g id="xtick_14">
     <g id="line2d_34">
      <g>
       <use style="stroke:#000000;stroke-width:0.5;" x="242.730117187" xlink:href="#m177f7580d0" y="355.5871875"/>
      </g>
     </g>
     <g id="line2d_35">
      <g>
       <use style="stroke:#000000;stroke-width:0.5;" x="242.730117187" xlink:href="#m5284c7e2a0" y="26.91"/>
      </g>
     </g>
    </g>
    <g id="xtick_15">
     <g id="line2d_36">
      <g>
       <use style="stroke:#000000;stroke-width:0.5;" x="255.87703125" xlink:href="#m177f7580d0" y="355.5871875"/>
      </g>
     </g>
     <g id="line2d_37">
      <g>
       <use style="stroke:#000000;stroke-width:0.5;" x="255.87703125" xlink:href="#m5284c7e2a0" y="26.91"/>
      </g>
     </g>
    </g>
    <g id="xtick_16">
     <g id="line2d_38">
      <g>
       <use style="stroke:#000000;stroke-width:0.5;" x="269.023945312" xlink:href="#m177f7580d0" y="355.5871875"/>
      </g>
     </g>
     <g id="line2d_39">
      <g>
       <use style="stroke:#000000;stroke-width:0.5;" x="269.023945312" xlink:href="#m5284c7e2a0" y="26.91"/>
      </g>
     </g>
    </g>
    <g id="xtick_17">
     <g id="line2d_40">
      <g>
       <use style="stroke:#000000;stroke-width:0.5;" x="295.317773437" xlink:href="#m177f7580d0" y="355.5871875"/>
      </g>
     </g>
     <g id="line2d_41">
      <g>
       <use style="stroke:#000000;stroke-width:0.5;" x="295.317773437" xlink:href="#m5284c7e2a0" y="26.91"/>
      </g>
     </g>
    </g>
    <g id="xtick_18">
     <g id="line2d_42">
      <g>
       <use style="stroke:#000000;stroke-width:0.5;" x="308.4646875" xlink:href="#m177f7580d0" y="355.5871875"/>
      </g>
     </g>
     <g id="line2d_43">
      <g>
       <use style="stroke:#000000;stroke-width:0.5;" x="308.4646875" xlink:href="#m5284c7e2a0" y="26.91"/>
      </g>
     </g>
    </g>
    <g id="xtick_19">
     <g id="line2d_44">
      <g>
       <use style="stroke:#000000;stroke-width:0.5;" x="321.611601562" xlink:href="#m177f7580d0" y="355.5871875"/>
      </g>
     </g>
     <g id="line2d_45">
      <g>
       <use style="stroke:#000000;stroke-width:0.5;" x="321.611601562" xlink:href="#m5284c7e2a0" y="26.91"/>
      </g>
     </g>
    </g>
    <g id="xtick_20">
     <g id="line2d_46">
      <g>
       <use style="stroke:#000000;stroke-width:0.5;" x="347.905429687" xlink:href="#m177f7580d0" y="355.5871875"/>
      </g>
     </g>
     <g id="line2d_47">
      <g>
       <use style="stroke:#000000;stroke-width:0.5;" x="347.905429687" xlink:href="#m5284c7e2a0" y="26.91"/>
      </g>
     </g>
    </g>
    <g id="xtick_21">
     <g id="line2d_48">
      <g>
       <use style="stroke:#000000;stroke-width:0.5;" x="361.05234375" xlink:href="#m177f7580d0" y="355.5871875"/>
      </g>
     </g>
     <g id="line2d_49">
      <g>
       <use style="stroke:#000000;stroke-width:0.5;" x="361.05234375" xlink:href="#m5284c7e2a0" y="26.91"/>
      </g>
     </g>
    </g>
    <g id="xtick_22">
     <g id="line2d_50">
      <g>
       <use style="stroke:#000000;stroke-width:0.5;" x="374.199257812" xlink:href="#m177f7580d0" y="355.5871875"/>
      </g>
     </g>
     <g id="line2d_51">
      <g>
       <use style="stroke:#000000;stroke-width:0.5;" x="374.199257812" xlink:href="#m5284c7e2a0" y="26.91"/>
      </g>
     </g>
    </g>
    <g id="xtick_23">
     <g id="line2d_52">
      <g>
       <use style="stroke:#000000;stroke-width:0.5;" x="400.493085937" xlink:href="#m177f7580d0" y="355.5871875"/>
      </g>
     </g>
     <g id="line2d_53">
      <g>
       <use style="stroke:#000000;stroke-width:0.5;" x="400.493085937" xlink:href="#m5284c7e2a0" y="26.91"/>
      </g>
     </g>
    </g>
    <g id="xtick_24">
     <g id="line2d_54">
      <g>
       <use style="stroke:#000000;stroke-width:0.5;" x="413.64" xlink:href="#m177f7580d0" y="355.5871875"/>
      </g>
     </g>
     <g id="line2d_55">
      <g>
       <use style="stroke:#000000;stroke-width:0.5;" x="413.64" xlink:href="#m5284c7e2a0" y="26.91"/>
      </g>
     </g>
    </g>
    <g id="text_7">
     <!-- $\mathcal{C}_{T}$ -->
     <defs>
      <path d="
M4.59375 1.3125
Q4.64062 1.5625 4.8125 2.1875
Q4.98438 2.82812 5.25 3.17188
Q5.51562 3.51562 6 3.51562
Q14.5938 3.51562 17.3906 4
Q20.0625 4.6875 20.6094 6.89062
L34.2812 61.8125
Q34.7188 63.0312 34.7188 64.0156
Q34.7188 64.7969 31.2031 64.7969
L25.3906 64.7969
Q18.7031 64.7969 15.0625 62.7344
Q11.4219 60.6875 9.71875 57.3125
Q8.01562 53.9531 5.32812 46.2969
Q4.98438 45.4062 4.29688 45.4062
L3.42188 45.4062
Q2.39062 45.4062 2.39062 46.6875
L9.51562 67.3906
Q9.71875 68.3125 10.5 68.3125
L69.5781 68.3125
Q70.6094 68.3125 70.6094 67
L67.2812 46.2969
Q67.2812 46 66.9375 45.7031
Q66.6094 45.4062 66.3125 45.4062
L65.375 45.4062
Q64.4062 45.4062 64.4062 46.6875
Q65.4844 53.7656 65.4844 56.6875
Q65.4844 60.2031 64.0156 62
Q62.5469 63.8125 60.2031 64.2969
Q57.8594 64.7969 54.1094 64.7969
L48.1875 64.7969
Q45.5156 64.7969 44.5781 64.2969
Q43.6562 63.8125 43.0156 61.375
L29.2969 6.5
Q29.25 6.29688 29.2188 6.09375
Q29.2031 5.90625 29.1094 5.60938
Q29.1094 4.34375 30.6094 4
Q33.2031 3.51562 41.7031 3.51562
Q42.6719 3.51562 42.6719 2.20312
Q42.3281 0.78125 42.125 0.390625
Q41.9375 0 41.0156 0
L5.60938 0
Q4.59375 0 4.59375 1.3125" id="Cmmi10-54"/>
      <path d="
M19.6719 -2.39062
Q14.9375 -2.39062 11.4375 -0.5625
Q7.95312 1.26562 5.64062 4.5625
Q3.32812 7.85938 2.26562 11.8125
Q1.21875 15.7656 1.21875 20.3125
Q1.21875 29.25 4.51562 38.3594
Q7.8125 47.4688 13.7656 54.7188
Q19.7344 61.9688 27.9062 66.2344
Q36.0781 70.5156 45.5156 70.5156
L46.0938 70.5156
Q49.3594 70.5156 51.3906 68.8438
Q53.4219 67.1875 53.4219 64.0156
Q53.4219 61.2344 51.8125 57.4688
Q50.2031 53.7188 47.9062 49.6094
Q46.8281 47.7969 44.6562 46.4844
Q42.4844 45.1719 40.1875 44.9219
L39.7031 44.9219
Q39.0156 45.2656 39.0156 45.6094
Q39.0156 46.0469 40.5938 49.1719
Q42.1875 52.2969 43.3281 55.0469
Q44.4844 57.8125 44.4844 59.8125
Q44.4844 62.25 42.9375 63.4219
Q41.4062 64.5938 38.8125 64.5938
Q31.4531 64.5938 26.4375 61.0781
Q21.4375 57.5625 17.3906 50.6875
Q14.0156 44.875 12.0625 38.1094
Q10.1094 31.3438 10.1094 24.6094
Q10.1094 19.0938 11.8594 14.2344
Q13.625 9.375 17.4219 6.4375
Q21.2344 3.51562 27 3.51562
Q33.0625 3.51562 37.7969 8.01562
Q38.4219 8.6875 40.4062 11.2969
Q42.3906 13.9219 44.0938 15.1406
Q45.7969 16.3594 48.4844 16.6094
L49.0312 16.6094
Q49.7031 16.2656 49.7031 15.8281
Q49.7031 15.4375 49.4219 14.9844
Q46.5781 10.2969 41.7969 6.29688
Q37.0156 2.29688 31.2969 -0.046875
Q25.5938 -2.39062 20.3125 -2.39062
z
" id="Cmsy10-43"/>
     </defs>
     <g transform="translate(241.77703125 402.34)scale(0.3 -0.3)">
      <use transform="translate(0.0 0.484375)" xlink:href="#Cmsy10-43"/>
      <use transform="translate(52.587890625 -25.025)scale(0.7)" xlink:href="#Cmmi10-54"/>
     </g>
    </g>
   </g>
   <g id="matplotlib.axis_2">
    <g id="ytick_1">
     <g id="text_8">
      <!-- −0.6 -->
      <g transform="translate(55.7046875 360.278125)scale(0.17 -0.17)">
       <use xlink:href="#DejaVuSans-2212"/>
       <use x="83.7890625" xlink:href="#DejaVuSans-30"/>
       <use x="147.412109375" xlink:href="#DejaVuSans-2e"/>
       <use x="179.19921875" xlink:href="#DejaVuSans-36"/>
      </g>
     </g>
    </g>
    <g id="ytick_2">
     <g id="line2d_56">
      <path clip-path="url(#pf09d5ab2a3)" d="
M98.1141 300.808
L413.64 300.808" style="fill:none;stroke:#000000;stroke-dasharray:1.000000,3.000000;stroke-dashoffset:0.0;stroke-width:0.5;"/>
     </g>
     <g id="line2d_57">
      <defs>
       <path d="
M0 0
L4 0" id="m728421d6d4" style="stroke:#000000;stroke-width:0.5;"/>
      </defs>
      <g>
       <use style="stroke:#000000;stroke-width:0.5;" x="98.1140625" xlink:href="#m728421d6d4" y="300.80765625"/>
      </g>
     </g>
     <g id="line2d_58">
      <defs>
       <path d="
M0 0
L-4 0" id="mcb0005524f" style="stroke:#000000;stroke-width:0.5;"/>
      </defs>
      <g>
       <use style="stroke:#000000;stroke-width:0.5;" x="413.64" xlink:href="#mcb0005524f" y="300.80765625"/>
      </g>
     </g>
     <g id="text_9">
      <!-- −0.4 -->
      <g transform="translate(55.5878125 305.49859375)scale(0.17 -0.17)">
       <use xlink:href="#DejaVuSans-2212"/>
       <use x="83.7890625" xlink:href="#DejaVuSans-30"/>
       <use x="147.412109375" xlink:href="#DejaVuSans-2e"/>
       <use x="179.19921875" xlink:href="#DejaVuSans-34"/>
      </g>
     </g>
    </g>
    <g id="ytick_3">
     <g id="line2d_59">
      <path clip-path="url(#pf09d5ab2a3)" d="
M98.1141 246.028
L413.64 246.028" style="fill:none;stroke:#000000;stroke-dasharray:1.000000,3.000000;stroke-dashoffset:0.0;stroke-width:0.5;"/>
     </g>
     <g id="line2d_60">
      <g>
       <use style="stroke:#000000;stroke-width:0.5;" x="98.1140625" xlink:href="#m728421d6d4" y="246.028125"/>
      </g>
     </g>
     <g id="line2d_61">
      <g>
       <use style="stroke:#000000;stroke-width:0.5;" x="413.64" xlink:href="#mcb0005524f" y="246.028125"/>
      </g>
     </g>
     <g id="text_10">
      <!-- −0.2 -->
      <g transform="translate(56.336875 250.7190625)scale(0.17 -0.17)">
       <use xlink:href="#DejaVuSans-2212"/>
       <use x="83.7890625" xlink:href="#DejaVuSans-30"/>
       <use x="147.412109375" xlink:href="#DejaVuSans-2e"/>
       <use x="179.19921875" xlink:href="#DejaVuSans-32"/>
      </g>
     </g>
    </g>
    <g id="ytick_4">
     <g id="line2d_62">
      <path clip-path="url(#pf09d5ab2a3)" d="
M98.1141 191.249
L413.64 191.249" style="fill:none;stroke:#000000;stroke-dasharray:1.000000,3.000000;stroke-dashoffset:0.0;stroke-width:0.5;"/>
     </g>
     <g id="line2d_63">
      <g>
       <use style="stroke:#000000;stroke-width:0.5;" x="98.1140625" xlink:href="#m728421d6d4" y="191.24859375"/>
      </g>
     </g>
     <g id="line2d_64">
      <g>
       <use style="stroke:#000000;stroke-width:0.5;" x="413.64" xlink:href="#mcb0005524f" y="191.24859375"/>
      </g>
     </g>
     <g id="text_11">
      <!-- 0.0 -->
      <g transform="translate(69.32859375 195.93953125)scale(0.17 -0.17)">
       <use xlink:href="#DejaVuSans-30"/>
       <use x="63.623046875" xlink:href="#DejaVuSans-2e"/>
       <use x="95.41015625" xlink:href="#DejaVuSans-30"/>
      </g>
     </g>
    </g>
    <g id="ytick_5">
     <g id="line2d_65">
      <path clip-path="url(#pf09d5ab2a3)" d="
M98.1141 136.469
L413.64 136.469" style="fill:none;stroke:#000000;stroke-dasharray:1.000000,3.000000;stroke-dashoffset:0.0;stroke-width:0.5;"/>
     </g>
     <g id="line2d_66">
      <g>
       <use style="stroke:#000000;stroke-width:0.5;" x="98.1140625" xlink:href="#m728421d6d4" y="136.4690625"/>
      </g>
     </g>
     <g id="line2d_67">
      <g>
       <use style="stroke:#000000;stroke-width:0.5;" x="413.64" xlink:href="#mcb0005524f" y="136.4690625"/>
      </g>
     </g>
     <g id="text_12">
      <!-- 0.2 -->
      <g transform="translate(69.90234375 141.16)scale(0.17 -0.17)">
       <use xlink:href="#DejaVuSans-30"/>
       <use x="63.623046875" xlink:href="#DejaVuSans-2e"/>
       <use x="95.41015625" xlink:href="#DejaVuSans-32"/>
      </g>
     </g>
    </g>
    <g id="ytick_6">
     <g id="line2d_68">
      <path clip-path="url(#pf09d5ab2a3)" d="
M98.1141 81.6895
L413.64 81.6895" style="fill:none;stroke:#000000;stroke-dasharray:1.000000,3.000000;stroke-dashoffset:0.0;stroke-width:0.5;"/>
     </g>
     <g id="line2d_69">
      <g>
       <use style="stroke:#000000;stroke-width:0.5;" x="98.1140625" xlink:href="#m728421d6d4" y="81.68953125"/>
      </g>
     </g>
     <g id="line2d_70">
      <g>
       <use style="stroke:#000000;stroke-width:0.5;" x="413.64" xlink:href="#mcb0005524f" y="81.68953125"/>
      </g>
     </g>
     <g id="text_13">
      <!-- 0.4 -->
      <g transform="translate(69.15328125 86.38046875)scale(0.17 -0.17)">
       <use xlink:href="#DejaVuSans-30"/>
       <use x="63.623046875" xlink:href="#DejaVuSans-2e"/>
       <use x="95.41015625" xlink:href="#DejaVuSans-34"/>
      </g>
     </g>
    </g>
    <g id="ytick_7">
     <g id="text_14">
      <!-- 0.6 -->
      <g transform="translate(69.27015625 31.6009375)scale(0.17 -0.17)">
       <use xlink:href="#DejaVuSans-30"/>
       <use x="63.623046875" xlink:href="#DejaVuSans-2e"/>
       <use x="95.41015625" xlink:href="#DejaVuSans-36"/>
      </g>
     </g>
    </g>
    <g id="ytick_8">
     <g id="line2d_71">
      <defs>
       <path d="
M0 0
L2 0" id="mf0c55a9a47" style="stroke:#000000;stroke-width:0.5;"/>
      </defs>
      <g>
       <use style="stroke:#000000;stroke-width:0.5;" x="98.1140625" xlink:href="#mf0c55a9a47" y="341.892304688"/>
      </g>
     </g>
     <g id="line2d_72">
      <defs>
       <path d="
M0 0
L-2 0" id="ma4f294b3af" style="stroke:#000000;stroke-width:0.5;"/>
      </defs>
      <g>
       <use style="stroke:#000000;stroke-width:0.5;" x="413.64" xlink:href="#ma4f294b3af" y="341.892304688"/>
      </g>
     </g>
    </g>
    <g id="ytick_9">
     <g id="line2d_73">
      <g>
       <use style="stroke:#000000;stroke-width:0.5;" x="98.1140625" xlink:href="#mf0c55a9a47" y="328.197421875"/>
      </g>
     </g>
     <g id="line2d_74">
      <g>
       <use style="stroke:#000000;stroke-width:0.5;" x="413.64" xlink:href="#ma4f294b3af" y="328.197421875"/>
      </g>
     </g>
    </g>
    <g id="ytick_10">
     <g id="line2d_75">
      <g>
       <use style="stroke:#000000;stroke-width:0.5;" x="98.1140625" xlink:href="#mf0c55a9a47" y="314.502539063"/>
      </g>
     </g>
     <g id="line2d_76">
      <g>
       <use style="stroke:#000000;stroke-width:0.5;" x="413.64" xlink:href="#ma4f294b3af" y="314.502539063"/>
      </g>
     </g>
    </g>
    <g id="ytick_11">
     <g id="line2d_77">
      <g>
       <use style="stroke:#000000;stroke-width:0.5;" x="98.1140625" xlink:href="#mf0c55a9a47" y="287.112773438"/>
      </g>
     </g>
     <g id="line2d_78">
      <g>
       <use style="stroke:#000000;stroke-width:0.5;" x="413.64" xlink:href="#ma4f294b3af" y="287.112773438"/>
      </g>
     </g>
    </g>
    <g id="ytick_12">
     <g id="line2d_79">
      <g>
       <use style="stroke:#000000;stroke-width:0.5;" x="98.1140625" xlink:href="#mf0c55a9a47" y="273.417890625"/>
      </g>
     </g>
     <g id="line2d_80">
      <g>
       <use style="stroke:#000000;stroke-width:0.5;" x="413.64" xlink:href="#ma4f294b3af" y="273.417890625"/>
      </g>
     </g>
    </g>
    <g id="ytick_13">
     <g id="line2d_81">
      <g>
       <use style="stroke:#000000;stroke-width:0.5;" x="98.1140625" xlink:href="#mf0c55a9a47" y="259.723007812"/>
      </g>
     </g>
     <g id="line2d_82">
      <g>
       <use style="stroke:#000000;stroke-width:0.5;" x="413.64" xlink:href="#ma4f294b3af" y="259.723007812"/>
      </g>
     </g>
    </g>
    <g id="ytick_14">
     <g id="line2d_83">
      <g>
       <use style="stroke:#000000;stroke-width:0.5;" x="98.1140625" xlink:href="#mf0c55a9a47" y="232.333242187"/>
      </g>
     </g>
     <g id="line2d_84">
      <g>
       <use style="stroke:#000000;stroke-width:0.5;" x="413.64" xlink:href="#ma4f294b3af" y="232.333242187"/>
      </g>
     </g>
    </g>
    <g id="ytick_15">
     <g id="line2d_85">
      <g>
       <use style="stroke:#000000;stroke-width:0.5;" x="98.1140625" xlink:href="#mf0c55a9a47" y="218.638359375"/>
      </g>
     </g>
     <g id="line2d_86">
      <g>
       <use style="stroke:#000000;stroke-width:0.5;" x="413.64" xlink:href="#ma4f294b3af" y="218.638359375"/>
      </g>
     </g>
    </g>
    <g id="ytick_16">
     <g id="line2d_87">
      <g>
       <use style="stroke:#000000;stroke-width:0.5;" x="98.1140625" xlink:href="#mf0c55a9a47" y="204.943476562"/>
      </g>
     </g>
     <g id="line2d_88">
      <g>
       <use style="stroke:#000000;stroke-width:0.5;" x="413.64" xlink:href="#ma4f294b3af" y="204.943476562"/>
      </g>
     </g>
    </g>
    <g id="ytick_17">
     <g id="line2d_89">
      <g>
       <use style="stroke:#000000;stroke-width:0.5;" x="98.1140625" xlink:href="#mf0c55a9a47" y="177.553710937"/>
      </g>
     </g>
     <g id="line2d_90">
      <g>
       <use style="stroke:#000000;stroke-width:0.5;" x="413.64" xlink:href="#ma4f294b3af" y="177.553710937"/>
      </g>
     </g>
    </g>
    <g id="ytick_18">
     <g id="line2d_91">
      <g>
       <use style="stroke:#000000;stroke-width:0.5;" x="98.1140625" xlink:href="#mf0c55a9a47" y="163.858828125"/>
      </g>
     </g>
     <g id="line2d_92">
      <g>
       <use style="stroke:#000000;stroke-width:0.5;" x="413.64" xlink:href="#ma4f294b3af" y="163.858828125"/>
      </g>
     </g>
    </g>
    <g id="ytick_19">
     <g id="line2d_93">
      <g>
       <use style="stroke:#000000;stroke-width:0.5;" x="98.1140625" xlink:href="#mf0c55a9a47" y="150.163945312"/>
      </g>
     </g>
     <g id="line2d_94">
      <g>
       <use style="stroke:#000000;stroke-width:0.5;" x="413.64" xlink:href="#ma4f294b3af" y="150.163945312"/>
      </g>
     </g>
    </g>
    <g id="ytick_20">
     <g id="line2d_95">
      <g>
       <use style="stroke:#000000;stroke-width:0.5;" x="98.1140625" xlink:href="#mf0c55a9a47" y="122.774179687"/>
      </g>
     </g>
     <g id="line2d_96">
      <g>
       <use style="stroke:#000000;stroke-width:0.5;" x="413.64" xlink:href="#ma4f294b3af" y="122.774179687"/>
      </g>
     </g>
    </g>
    <g id="ytick_21">
     <g id="line2d_97">
      <g>
       <use style="stroke:#000000;stroke-width:0.5;" x="98.1140625" xlink:href="#mf0c55a9a47" y="109.079296875"/>
      </g>
     </g>
     <g id="line2d_98">
      <g>
       <use style="stroke:#000000;stroke-width:0.5;" x="413.64" xlink:href="#ma4f294b3af" y="109.079296875"/>
      </g>
     </g>
    </g>
    <g id="ytick_22">
     <g id="line2d_99">
      <g>
       <use style="stroke:#000000;stroke-width:0.5;" x="98.1140625" xlink:href="#mf0c55a9a47" y="95.3844140625"/>
      </g>
     </g>
     <g id="line2d_100">
      <g>
       <use style="stroke:#000000;stroke-width:0.5;" x="413.64" xlink:href="#ma4f294b3af" y="95.3844140625"/>
      </g>
     </g>
    </g>
    <g id="ytick_23">
     <g id="line2d_101">
      <g>
       <use style="stroke:#000000;stroke-width:0.5;" x="98.1140625" xlink:href="#mf0c55a9a47" y="81.68953125"/>
      </g>
     </g>
     <g id="line2d_102">
      <g>
       <use style="stroke:#000000;stroke-width:0.5;" x="413.64" xlink:href="#ma4f294b3af" y="81.68953125"/>
      </g>
     </g>
    </g>
    <g id="ytick_24">
     <g id="line2d_103">
      <g>
       <use style="stroke:#000000;stroke-width:0.5;" x="98.1140625" xlink:href="#mf0c55a9a47" y="67.9946484375"/>
      </g>
     </g>
     <g id="line2d_104">
      <g>
       <use style="stroke:#000000;stroke-width:0.5;" x="413.64" xlink:href="#ma4f294b3af" y="67.9946484375"/>
      </g>
     </g>
    </g>
    <g id="ytick_25">
     <g id="line2d_105">
      <g>
       <use style="stroke:#000000;stroke-width:0.5;" x="98.1140625" xlink:href="#mf0c55a9a47" y="54.299765625"/>
      </g>
     </g>
     <g id="line2d_106">
      <g>
       <use style="stroke:#000000;stroke-width:0.5;" x="413.64" xlink:href="#ma4f294b3af" y="54.299765625"/>
      </g>
     </g>
    </g>
    <g id="ytick_26">
     <g id="line2d_107">
      <g>
       <use style="stroke:#000000;stroke-width:0.5;" x="98.1140625" xlink:href="#mf0c55a9a47" y="40.6048828125"/>
      </g>
     </g>
     <g id="line2d_108">
      <g>
       <use style="stroke:#000000;stroke-width:0.5;" x="413.64" xlink:href="#ma4f294b3af" y="40.6048828125"/>
      </g>
     </g>
    </g>
    <g id="text_15">
     <!-- $\mathcal{C}_{T5}$ -->
     <defs>
      <path d="
M8.6875 11.375
Q9.71875 8.45312 11.8438 6.04688
Q13.9688 3.65625 16.875 2.3125
Q19.7812 0.984375 22.9062 0.984375
Q30.125 0.984375 32.8594 6.59375
Q35.5938 12.2031 35.5938 20.2188
Q35.5938 23.6875 35.4688 26.0469
Q35.3594 28.4219 34.8125 30.6094
Q33.8906 34.125 31.5625 36.7656
Q29.25 39.4062 25.875 39.4062
Q22.5156 39.4062 20.0938 38.375
Q17.6719 37.3594 16.1562 35.9844
Q14.6562 34.625 13.4844 33.1094
Q12.3125 31.5938 12.0156 31.5
L10.8906 31.5
Q10.6406 31.5 10.2656 31.8125
Q9.90625 32.125 9.90625 32.4219
L9.90625 65.8281
Q9.90625 66.0625 10.2188 66.3281
Q10.5469 66.6094 10.8906 66.6094
L11.1875 66.6094
Q17.9219 63.375 25.4844 63.375
Q32.9062 63.375 39.7969 66.6094
L40.0938 66.6094
Q40.4375 66.6094 40.7188 66.3594
Q41.0156 66.1094 41.0156 65.8281
L41.0156 64.8906
Q41.0156 64.4062 40.8281 64.4062
Q37.4062 59.8594 32.25 57.3125
Q27.0938 54.7812 21.5781 54.7812
Q17.5781 54.7812 13.375 55.9062
L13.375 37.0156
Q16.7031 39.7031 19.3125 40.8438
Q21.9219 42 25.9844 42
Q31.5 42 35.8594 38.8125
Q40.2344 35.6406 42.5781 30.5312
Q44.9219 25.4375 44.9219 20.125
Q44.9219 14.1094 41.9688 8.98438
Q39.0156 3.85938 33.9375 0.828125
Q28.8594 -2.20312 22.9062 -2.20312
Q17.9688 -2.20312 13.8438 0.328125
Q9.71875 2.875 7.34375 7.17188
Q4.98438 11.4688 4.98438 16.3125
Q4.98438 18.5625 6.4375 19.9688
Q7.90625 21.3906 10.1094 21.3906
Q12.3125 21.3906 13.7969 19.9375
Q15.2812 18.5 15.2812 16.3125
Q15.2812 14.1562 13.7969 12.6719
Q12.3125 11.1875 10.1094 11.1875
Q9.76562 11.1875 9.32812 11.25
Q8.89062 11.3281 8.6875 11.375" id="Cmr10-35"/>
     </defs>
     <g transform="translate(42.1878125 210.59859375)rotate(-90.0)scale(0.3 -0.3)">
      <use transform="translate(0.0 0.484375)" xlink:href="#Cmsy10-43"/>
      <use transform="translate(52.587890625 -25.025)scale(0.7)" xlink:href="#Cmmi10-54"/>
      <use transform="translate(93.466796875 -25.025)scale(0.7)" xlink:href="#Cmr10-35"/>
     </g>
    </g>
   </g>
   <g id="patch_3">
    <path d="
M98.1141 26.91
L413.64 26.91" style="fill:none;stroke:#000000;"/>
   </g>
   <g id="patch_4">
    <path d="
M413.64 355.587
L413.64 26.91" style="fill:none;stroke:#000000;"/>
   </g>
   <g id="patch_5">
    <path d="
M98.1141 355.587
L413.64 355.587" style="fill:none;stroke:#000000;"/>
   </g>
   <g id="patch_6">
    <path d="
M98.1141 355.587
L98.1141 26.91" style="fill:none;stroke:#000000;"/>
   </g>
  </g>
 </g>
 <defs>
  <clipPath id="pf09d5ab2a3">
   <rect height="328.6771875" width="315.5259375" x="98.1140625" y="26.91"/>
  </clipPath>
 </defs>
</svg>
