<?xml version="1.0" encoding="utf-8" standalone="no"?>
<!DOCTYPE svg PUBLIC "-//W3C//DTD SVG 1.1//EN"
  "http://www.w3.org/Graphics/SVG/1.1/DTD/svg11.dtd">
<!-- Created with matplotlib (http://matplotlib.org/) -->
<svg height="432pt" version="1.1" viewBox="0 0 432 432" width="432pt" xmlns="http://www.w3.org/2000/svg" xmlns:xlink="http://www.w3.org/1999/xlink">
 <defs>
  <style type="text/css">
*{stroke-linecap:butt;stroke-linejoin:round;}
  </style>
 </defs>
 <g id="figure_1">
  <g id="patch_1">
   <path d="
M0 432
L432 432
L432 0
L0 0
z
" style="fill:#ffffff;"/>
  </g>
  <g id="axes_1">
   <g id="patch_2">
    <path d="
M97.8441 355.317
L409.365 355.317
L409.365 26.91
L97.8441 26.91
z
" style="fill:#ffffff;"/>
   </g>
   <g id="PathCollection_1">
    <defs>
     <path d="
M132.458 -76.6828
L135.604 -76.6828
L138.751 -76.6828
L141.898 -76.6828
L145.044 -76.6828
L148.191 -76.6828
L151.338 -76.6828
L154.484 -76.6828
L157.631 -76.6828
L160.778 -76.6828
L163.924 -76.6828
L167.071 -76.6828
L170.218 -76.6828
L173.364 -76.6828
L176.511 -76.6828
L179.658 -76.6828
L182.804 -76.6828
L185.951 -76.6828
L189.098 -76.6828
L192.244 -76.6828
L195.391 -76.6828
L198.538 -76.6828
L201.684 -76.6828
L204.831 -76.6828
L207.978 -76.6828
L211.124 -76.6828
L214.271 -76.6828
L217.418 -76.6828
L220.564 -76.6828
L223.711 -76.6828
L226.858 -76.6828
L230.004 -76.6828
L233.151 -76.6828
L236.298 -76.6828
L239.444 -76.6828
L242.591 -76.6828
L245.738 -76.6828
L248.885 -76.6828
L252.031 -76.6828
L255.178 -76.6828
L258.325 -76.6828
L261.471 -76.6828
L264.618 -76.6828
L267.765 -76.6828
L270.911 -76.6828
L274.058 -76.6828
L277.205 -76.6828
L280.351 -76.6828
L283.498 -76.6828
L286.645 -76.6828
L289.791 -76.6828
L292.938 -76.6828
L296.085 -76.6828
L299.231 -76.6828
L302.378 -76.6828
L305.525 -76.6828
L308.671 -76.6828
L311.818 -76.6828
L314.965 -76.6828
L318.111 -76.6828
L321.258 -76.6828
L324.405 -76.6828
L327.551 -76.6828
L330.698 -76.6828
L333.845 -76.6828
L336.991 -76.6828
L340.138 -76.6828
L343.285 -76.6828
L346.431 -76.6828
L349.578 -76.6828
L352.725 -76.6828
L355.872 -76.6828
L359.018 -76.6828
L362.165 -76.6828
L365.312 -76.6828
L368.458 -76.6828
L371.605 -76.6828
L374.752 -76.6828
L377.898 -76.6828
L381.045 -76.6828
L384.192 -76.6828
L387.338 -76.6828
L390.485 -76.6828
L393.632 -76.6828
L396.778 -76.6828
L399.925 -76.6828
L403.072 -76.6828
L406.218 -76.6828
L409.365 -76.6828
L409.365 -80.0001
L409.365 -83.3173
L409.365 -86.6345
L409.365 -89.9518
L409.365 -93.269
L409.365 -96.5863
L409.365 -99.9035
L409.365 -103.221
L409.365 -106.538
L409.365 -109.855
L409.365 -113.172
L409.365 -116.49
L409.365 -119.807
L409.365 -123.124
L409.365 -126.441
L409.365 -129.759
L409.365 -133.076
L409.365 -136.393
L409.365 -139.71
L409.365 -143.028
L409.365 -146.345
L409.365 -149.662
L409.365 -152.979
L409.365 -156.297
L409.365 -159.614
L409.365 -162.931
L409.365 -166.248
L409.365 -169.566
L409.365 -172.883
L409.365 -176.2
L409.365 -179.517
L409.365 -182.835
L409.365 -186.152
L409.365 -189.469
L409.365 -192.786
L409.365 -196.104
L409.365 -199.421
L409.365 -202.738
L409.365 -206.055
L409.365 -209.373
L409.365 -212.69
L409.365 -216.007
L409.365 -219.324
L409.365 -222.642
L409.365 -225.959
L409.365 -229.276
L409.365 -232.593
L409.365 -235.911
L409.365 -239.228
L409.365 -242.545
L409.365 -245.862
L409.365 -249.18
L409.365 -252.497
L409.365 -255.814
L409.365 -259.131
L409.365 -262.448
L409.365 -265.766
L409.365 -269.083
L409.365 -272.4
L409.365 -275.717
L409.365 -279.035
L409.365 -282.352
L409.365 -285.669
L409.365 -288.986
L409.365 -292.304
L409.365 -295.621
L409.365 -298.938
L409.365 -302.255
L409.365 -305.573
L409.365 -308.89
L409.365 -312.207
L409.365 -315.524
L409.365 -318.842
L409.365 -322.159
L409.365 -325.476
L409.365 -328.793
L409.365 -332.111
L409.365 -335.428
L409.365 -338.745
L409.365 -342.062
L409.365 -345.38
L409.365 -348.697
L409.365 -352.014
L409.365 -355.331
L409.365 -358.649
L409.365 -361.966
L409.365 -365.283
L409.365 -368.6
L409.365 -371.918
L409.365 -375.235
L409.365 -378.552
L409.365 -381.869
L409.365 -385.187
L409.365 -385.187
L406.218 -388.504
L406.218 -388.504
L403.072 -391.821
L403.072 -391.821
L399.925 -395.138
L399.925 -395.138
L396.778 -398.456
L396.778 -398.456
L393.632 -401.773
L390.485 -401.773
L387.338 -401.773
L387.338 -401.773
L384.192 -405.09
L381.045 -405.09
L377.898 -405.09
L374.752 -405.09
L374.752 -405.09
L371.605 -405.09
L368.458 -405.09
L365.312 -405.09
L362.165 -405.09
L359.018 -405.09
L355.872 -405.09
L352.725 -405.09
L349.578 -405.09
L346.431 -405.09
L343.285 -405.09
L340.138 -405.09
L336.991 -405.09
L333.845 -405.09
L330.698 -405.09
L327.551 -405.09
L324.405 -405.09
L321.258 -405.09
L318.111 -405.09
L314.965 -405.09
L311.818 -405.09
L308.671 -405.09
L305.525 -405.09
L302.378 -405.09
L299.231 -405.09
L296.085 -405.09
L292.938 -405.09
L289.791 -405.09
L286.645 -405.09
L283.498 -405.09
L280.351 -405.09
L277.205 -405.09
L274.058 -405.09
L270.911 -405.09
L267.765 -405.09
L264.618 -405.09
L261.471 -405.09
L258.325 -405.09
L255.178 -405.09
L252.031 -405.09
L248.885 -405.09
L245.738 -405.09
L242.591 -405.09
L239.444 -405.09
L236.298 -405.09
L233.151 -405.09
L230.004 -405.09
L226.858 -405.09
L223.711 -405.09
L220.564 -405.09
L217.418 -405.09
L214.271 -405.09
L211.124 -405.09
L207.978 -405.09
L204.831 -405.09
L201.684 -405.09
L198.538 -405.09
L195.391 -405.09
L192.244 -405.09
L189.098 -405.09
L185.951 -405.09
L182.804 -405.09
L179.658 -405.09
L176.511 -405.09
L173.364 -405.09
L170.218 -405.09
L167.071 -405.09
L163.924 -405.09
L160.778 -405.09
L157.631 -405.09
L154.484 -405.09
L151.338 -405.09
L148.191 -405.09
L145.044 -405.09
L141.898 -405.09
L138.751 -405.09
L135.604 -405.09
L132.458 -405.09
L129.311 -405.09
L126.164 -405.09
L123.017 -405.09
L119.871 -405.09
L116.724 -405.09
L113.577 -405.09
L110.431 -405.09
L107.284 -405.09
L104.137 -405.09
L100.991 -405.09
L97.8441 -405.09
L97.8441 -401.773
L97.8441 -398.456
L97.8441 -395.138
L97.8441 -391.821
L97.8441 -388.504
L97.8441 -385.187
L97.8441 -381.869
L97.8441 -378.552
L97.8441 -375.235
L97.8441 -371.918
L97.8441 -368.6
L97.8441 -365.283
L97.8441 -361.966
L97.8441 -358.649
L97.8441 -355.331
L97.8441 -352.014
L97.8441 -348.697
L97.8441 -345.38
L97.8441 -342.062
L97.8441 -338.745
L97.8441 -335.428
L97.8441 -332.111
L97.8441 -328.793
L97.8441 -325.476
L97.8441 -322.159
L97.8441 -318.842
L97.8441 -315.524
L97.8441 -312.207
L97.8441 -308.89
L97.8441 -305.573
L97.8441 -302.255
L97.8441 -298.938
L97.8441 -295.621
L97.8441 -292.304
L97.8441 -288.986
L97.8441 -285.669
L97.8441 -282.352
L97.8441 -279.035
L97.8441 -275.717
L97.8441 -272.4
L97.8441 -269.083
L97.8441 -265.766
L97.8441 -262.448
L97.8441 -259.131
L97.8441 -255.814
L97.8441 -252.497
L97.8441 -249.18
L97.8441 -245.862
L97.8441 -242.545
L97.8441 -239.228
L97.8441 -235.911
L97.8441 -232.593
L97.8441 -229.276
L97.8441 -225.959
L97.8441 -222.642
L97.8441 -219.324
L97.8441 -216.007
L97.8441 -212.69
L97.8441 -209.373
L97.8441 -206.055
L97.8441 -202.738
L97.8441 -199.421
L97.8441 -196.104
L97.8441 -192.786
L97.8441 -189.469
L97.8441 -186.152
L97.8441 -182.835
L97.8441 -179.517
L97.8441 -176.2
L97.8441 -172.883
L97.8441 -169.566
L97.8441 -166.248
L97.8441 -162.931
L97.8441 -159.614
L97.8441 -156.297
L97.8441 -152.979
L97.8441 -149.662
L97.8441 -146.345
L97.8441 -143.028
L97.8441 -139.71
L97.8441 -136.393
L97.8441 -133.076
L97.8441 -129.759
L97.8441 -126.441
L97.8441 -126.441
L100.991 -123.124
L104.137 -123.124
L104.137 -123.124
L104.137 -119.807
L104.137 -116.49
L104.137 -113.172
L104.137 -109.855
L104.137 -106.538
L104.137 -103.221
L107.284 -99.9035
L107.284 -99.9035
L110.431 -96.5863
L110.431 -96.5863
L110.431 -93.269
L113.577 -89.9518
L116.724 -89.9518
L116.724 -89.9518
L119.871 -86.6345
L123.017 -86.6345
L123.017 -86.6345
L126.164 -83.3173
L129.311 -83.3173
L129.311 -83.3173
L129.311 -80.0001
L132.458 -76.6828
L132.458 -76.6828
M330.698 -109.85
L330.689 -109.855
L327.551 -111.31
L324.405 -112.788
L323.551 -113.172
L321.258 -114.021
L318.111 -115.191
L314.965 -116.459
L314.901 -116.49
L311.818 -117.816
L308.671 -119.623
L308.405 -119.807
L305.525 -121.752
L303.83 -123.124
L302.378 -124.306
L299.883 -126.441
L299.231 -126.99
L296.085 -129.297
L295.278 -129.759
L292.938 -130.944
L289.791 -131.917
L286.645 -132.338
L283.498 -132.368
L280.351 -132.226
L277.205 -132.114
L274.058 -132.159
L270.911 -132.417
L267.765 -132.883
L266.77 -133.076
L264.618 -133.44
L261.471 -134.109
L258.325 -134.953
L255.178 -136.057
L254.404 -136.393
L252.031 -137.379
L248.885 -139.029
L247.795 -139.71
L245.738 -140.916
L242.591 -143.022
L242.583 -143.028
L239.444 -145.036
L237.568 -146.345
L236.298 -147.147
L233.151 -149.321
L232.695 -149.662
L230.004 -151.643
L228.389 -152.979
L226.858 -154.285
L224.567 -156.297
L223.711 -157.071
L220.689 -159.614
L220.564 -159.718
L217.418 -161.95
L215.968 -162.931
L214.271 -164.044
L211.124 -166.177
L211.021 -166.248
L207.978 -168.299
L206.151 -169.566
L204.831 -170.456
L201.684 -172.519
L201.061 -172.883
L198.538 -174.344
L195.391 -175.853
L194.265 -176.2
L192.244 -176.808
L189.098 -177.213
L185.951 -177.314
L182.804 -177.409
L179.658 -177.729
L176.511 -178.343
L173.364 -179.241
L172.575 -179.517
L170.218 -180.267
L167.071 -181.478
L164.209 -182.835
L163.924 -182.964
L160.778 -184.813
L159.038 -186.152
L157.631 -187.316
L155.564 -189.469
L154.484 -190.76
L153.021 -192.786
L151.338 -195.55
L151.017 -196.104
L149.253 -199.421
L148.191 -201.595
L147.606 -202.738
L145.933 -206.055
L145.044 -207.918
L144.307 -209.373
L142.757 -212.69
L141.898 -214.785
L141.356 -216.007
L140.028 -219.324
L138.751 -222.627
L138.744 -222.642
L137.135 -225.959
L135.604 -228.891
L135.372 -229.276
L133.423 -232.593
L132.458 -234.536
L131.748 -235.911
L130.516 -239.228
L129.764 -242.545
L129.311 -245.862
L129.311 -245.862
L128.965 -249.18
L128.706 -252.497
L128.481 -255.814
L128.286 -259.131
L128.114 -262.448
L127.956 -265.766
L127.797 -269.083
L127.587 -272.4
L127.333 -275.717
L127.034 -279.035
L126.719 -282.352
L126.438 -285.669
L126.187 -288.986
L126.164 -289.401
L125.969 -292.304
L125.867 -295.621
L125.875 -298.938
L125.956 -302.255
L126.081 -305.573
L126.164 -307.578
L126.208 -308.89
L126.32 -312.207
L126.464 -315.524
L126.698 -318.842
L126.987 -322.159
L127.329 -325.476
L127.67 -328.793
L127.968 -332.111
L128.228 -335.428
L128.504 -338.745
L128.888 -342.062
L129.311 -344.511
L129.452 -345.38
L130.3 -348.697
L131.627 -352.014
L132.458 -353.513
L133.546 -355.331
L135.604 -358.079
L136.097 -358.649
L138.751 -361.494
L139.28 -361.966
L141.898 -364.355
L143.174 -365.283
L145.044 -366.745
L148.191 -368.591
L148.213 -368.6
L151.338 -370.109
L154.484 -371.086
L157.631 -371.674
L160.227 -371.918
L160.778 -371.974
L163.924 -372.114
L167.071 -372.144
L170.218 -372.07
L172.451 -371.918
L173.364 -371.866
L176.511 -371.495
L179.658 -370.898
L182.804 -370.057
L185.951 -368.981
L186.942 -368.6
L189.098 -367.795
L192.244 -366.442
L194.541 -365.283
L195.391 -364.874
L198.538 -363.165
L200.535 -361.966
L201.684 -361.336
L204.831 -359.656
L207.066 -358.649
L207.978 -358.254
L211.124 -357.41
L214.271 -357.288
L217.418 -358.109
L218.53 -358.649
L220.564 -359.617
L223.711 -361.178
L226.175 -361.966
L226.858 -362.16
L230.004 -362.292
L231.565 -361.966
L233.151 -361.62
L236.298 -360.34
L239.444 -358.731
L239.594 -358.649
L242.591 -357.221
L245.738 -355.581
L246.189 -355.331
L248.885 -354.035
L252.031 -352.265
L252.457 -352.014
L255.178 -350.525
L258.179 -348.697
L258.325 -348.611
L261.471 -346.768
L263.602 -345.38
L264.618 -344.71
L267.765 -342.322
L268.053 -342.062
L270.911 -339.414
L271.501 -338.745
L274.058 -335.713
L274.271 -335.428
L276.7 -332.111
L277.205 -331.389
L279.028 -328.793
L280.351 -326.814
L281.309 -325.476
L283.498 -322.328
L283.626 -322.159
L286.088 -318.842
L286.645 -318.087
L288.76 -315.524
L289.791 -314.313
L291.866 -312.207
L292.938 -311.203
L295.721 -308.89
L296.085 -308.61
L299.231 -306.425
L300.525 -305.573
L302.378 -304.428
L305.525 -302.687
L306.5 -302.255
L308.671 -301.425
L311.818 -300.567
L314.965 -299.937
L318.111 -299.486
L321.258 -299.115
L323.545 -298.938
L324.405 -298.882
L327.551 -298.805
L330.698 -298.816
L333.845 -298.805
L336.991 -298.607
L340.138 -298.088
L343.285 -297.151
L346.431 -295.73
L346.613 -295.621
L349.578 -293.962
L351.785 -292.304
L352.725 -291.54
L355.24 -288.986
L355.872 -288.215
L357.751 -285.669
L359.018 -283.397
L359.596 -282.352
L361.052 -279.035
L362.165 -275.992
L362.277 -275.717
L363.676 -272.4
L365.26 -269.083
L365.312 -268.991
L367.612 -265.766
L368.458 -264.666
L370.542 -262.448
L371.605 -261.127
L373.205 -259.131
L374.752 -255.883
L374.78 -255.814
L375.56 -252.497
L375.933 -249.18
L376.173 -245.862
L376.419 -242.545
L376.679 -239.228
L376.944 -235.911
L377.228 -232.593
L377.537 -229.276
L377.897 -225.959
L377.898 -225.95
L378.492 -222.642
L379.308 -219.324
L380.4 -216.007
L381.045 -214.442
L381.83 -212.69
L383.329 -209.373
L384.192 -207.111
L384.599 -206.055
L385.486 -202.738
L385.91 -199.421
L385.963 -196.104
L385.737 -192.786
L385.318 -189.469
L384.765 -186.152
L384.192 -183.251
L384.112 -182.835
L383.42 -179.517
L382.686 -176.2
L381.968 -172.883
L381.402 -169.566
L381.062 -166.248
L381.045 -165.383
L381.005 -162.931
L381.045 -161.468
L381.107 -159.614
L381.248 -156.297
L381.215 -152.979
L381.045 -151.222
L380.911 -149.662
L380.296 -146.345
L379.367 -143.028
L378.18 -139.71
L377.898 -138.995
L376.965 -136.393
L375.664 -133.076
L374.752 -130.89
L374.287 -129.759
L372.87 -126.441
L371.605 -123.537
L371.401 -123.124
L369.842 -119.807
L368.458 -117.056
L368.048 -116.49
L365.312 -113.448
L364.858 -113.172
L362.165 -111.896
L359.018 -111
L355.872 -110.228
L354.448 -109.855
L352.725 -109.414
L349.578 -108.577
L346.431 -107.86
L343.285 -107.379
L340.138 -107.24
L336.991 -107.576
L333.845 -108.467
L330.698 -109.85
M349.578 -380.755
L346.998 -381.869
L346.431 -382.779
L343.285 -384.894
L342.283 -385.187
L340.138 -386.733
L336.991 -388.008
L334.879 -388.504
L333.845 -389.653
L330.698 -391.376
L328.944 -391.821
L327.551 -393.825
L324.815 -395.138
L327.551 -398.233
L327.749 -398.456
L330.698 -401.706
L333.845 -401.723
L336.991 -401.722
L340.026 -398.456
L340.138 -398.41
L343.285 -398.396
L346.431 -398.371
L349.578 -398.334
L352.53 -395.138
L352.725 -394.992
L355.629 -391.821
L355.872 -391.568
L359.018 -391.395
L362.165 -391.713
L365.133 -388.504
L365.312 -388.136
L367.395 -385.187
L365.312 -384.76
L362.165 -382.512
L361.772 -381.869
L359.018 -381.127
L355.872 -379.689
L352.725 -379.198
L349.578 -380.755" id="C0_0_f5c82c317c"/>
    </defs>
    <g clip-path="url(#p36353a81f3)">
     <use style="fill:#ffffff;" x="0.0" xlink:href="#C0_0_f5c82c317c" y="432.0"/>
    </g>
   </g>
   <g id="PathCollection_2">
    <defs>
     <path d="
M330.698 -109.85
L333.845 -108.467
L336.991 -107.576
L340.138 -107.24
L343.285 -107.379
L346.431 -107.86
L349.578 -108.577
L352.725 -109.414
L354.448 -109.855
L355.872 -110.228
L359.018 -111
L362.165 -111.896
L364.858 -113.172
L365.312 -113.448
L368.048 -116.49
L368.458 -117.056
L369.842 -119.807
L371.401 -123.124
L371.605 -123.537
L372.87 -126.441
L374.287 -129.759
L374.752 -130.89
L375.664 -133.076
L376.965 -136.393
L377.898 -138.995
L378.18 -139.71
L379.367 -143.028
L380.296 -146.345
L380.911 -149.662
L381.045 -151.222
L381.215 -152.979
L381.248 -156.297
L381.107 -159.614
L381.045 -161.468
L381.005 -162.931
L381.045 -165.383
L381.062 -166.248
L381.402 -169.566
L381.968 -172.883
L382.686 -176.2
L383.42 -179.517
L384.112 -182.835
L384.192 -183.251
L384.765 -186.152
L385.318 -189.469
L385.737 -192.786
L385.963 -196.104
L385.91 -199.421
L385.486 -202.738
L384.599 -206.055
L384.192 -207.111
L383.329 -209.373
L381.83 -212.69
L381.045 -214.442
L380.4 -216.007
L379.308 -219.324
L378.492 -222.642
L377.898 -225.95
L377.897 -225.959
L377.537 -229.276
L377.228 -232.593
L376.944 -235.911
L376.679 -239.228
L376.419 -242.545
L376.173 -245.862
L375.933 -249.18
L375.56 -252.497
L374.78 -255.814
L374.752 -255.883
L373.205 -259.131
L371.605 -261.127
L370.542 -262.448
L368.458 -264.666
L367.612 -265.766
L365.312 -268.991
L365.26 -269.083
L363.676 -272.4
L362.277 -275.717
L362.165 -275.992
L361.052 -279.035
L359.596 -282.352
L359.018 -283.397
L357.751 -285.669
L355.872 -288.215
L355.24 -288.986
L352.725 -291.54
L351.785 -292.304
L349.578 -293.962
L346.613 -295.621
L346.431 -295.73
L343.285 -297.151
L340.138 -298.088
L336.991 -298.607
L333.845 -298.805
L330.698 -298.816
L327.551 -298.805
L324.405 -298.882
L323.545 -298.938
L321.258 -299.115
L318.111 -299.486
L314.965 -299.937
L311.818 -300.567
L308.671 -301.425
L306.5 -302.255
L305.525 -302.687
L302.378 -304.428
L300.525 -305.573
L299.231 -306.425
L296.085 -308.61
L295.721 -308.89
L292.938 -311.203
L291.866 -312.207
L289.791 -314.313
L288.76 -315.524
L286.645 -318.087
L286.088 -318.842
L283.626 -322.159
L283.498 -322.328
L281.309 -325.476
L280.351 -326.814
L279.028 -328.793
L277.205 -331.389
L276.7 -332.111
L274.271 -335.428
L274.058 -335.713
L271.501 -338.745
L270.911 -339.414
L268.053 -342.062
L267.765 -342.322
L264.618 -344.71
L263.602 -345.38
L261.471 -346.768
L258.325 -348.611
L258.179 -348.697
L255.178 -350.525
L252.457 -352.014
L252.031 -352.265
L248.885 -354.035
L246.189 -355.331
L245.738 -355.581
L242.591 -357.221
L239.594 -358.649
L239.444 -358.731
L236.298 -360.34
L233.151 -361.62
L231.565 -361.966
L230.004 -362.292
L226.858 -362.16
L226.175 -361.966
L223.711 -361.178
L220.564 -359.617
L218.53 -358.649
L217.418 -358.109
L214.271 -357.288
L211.124 -357.41
L207.978 -358.254
L207.066 -358.649
L204.831 -359.656
L201.684 -361.336
L200.535 -361.966
L198.538 -363.165
L195.391 -364.874
L194.541 -365.283
L192.244 -366.442
L189.098 -367.795
L186.942 -368.6
L185.951 -368.981
L182.804 -370.057
L179.658 -370.898
L176.511 -371.495
L173.364 -371.866
L172.451 -371.918
L170.218 -372.07
L167.071 -372.144
L163.924 -372.114
L160.778 -371.974
L160.227 -371.918
L157.631 -371.674
L154.484 -371.086
L151.338 -370.109
L148.213 -368.6
L148.191 -368.591
L145.044 -366.745
L143.174 -365.283
L141.898 -364.355
L139.28 -361.966
L138.751 -361.494
L136.097 -358.649
L135.604 -358.079
L133.546 -355.331
L132.458 -353.513
L131.627 -352.014
L130.3 -348.697
L129.452 -345.38
L129.311 -344.511
L128.888 -342.062
L128.504 -338.745
L128.228 -335.428
L127.968 -332.111
L127.67 -328.793
L127.329 -325.476
L126.987 -322.159
L126.698 -318.842
L126.464 -315.524
L126.32 -312.207
L126.208 -308.89
L126.164 -307.578
L126.081 -305.573
L125.956 -302.255
L125.875 -298.938
L125.867 -295.621
L125.969 -292.304
L126.164 -289.401
L126.187 -288.986
L126.438 -285.669
L126.719 -282.352
L127.034 -279.035
L127.333 -275.717
L127.587 -272.4
L127.797 -269.083
L127.956 -265.766
L128.114 -262.448
L128.286 -259.131
L128.481 -255.814
L128.706 -252.497
L128.965 -249.18
L129.311 -245.862
L129.311 -245.862
L129.764 -242.545
L130.516 -239.228
L131.748 -235.911
L132.458 -234.536
L133.423 -232.593
L135.372 -229.276
L135.604 -228.891
L137.135 -225.959
L138.744 -222.642
L138.751 -222.627
L140.028 -219.324
L141.356 -216.007
L141.898 -214.785
L142.757 -212.69
L144.307 -209.373
L145.044 -207.918
L145.933 -206.055
L147.606 -202.738
L148.191 -201.595
L149.253 -199.421
L151.017 -196.104
L151.338 -195.55
L153.021 -192.786
L154.484 -190.76
L155.564 -189.469
L157.631 -187.316
L159.038 -186.152
L160.778 -184.813
L163.924 -182.964
L164.209 -182.835
L167.071 -181.478
L170.218 -180.267
L172.575 -179.517
L173.364 -179.241
L176.511 -178.343
L179.658 -177.729
L182.804 -177.409
L185.951 -177.314
L189.098 -177.213
L192.244 -176.808
L194.265 -176.2
L195.391 -175.853
L198.538 -174.344
L201.061 -172.883
L201.684 -172.519
L204.831 -170.456
L206.151 -169.566
L207.978 -168.299
L211.021 -166.248
L211.124 -166.177
L214.271 -164.044
L215.968 -162.931
L217.418 -161.95
L220.564 -159.718
L220.689 -159.614
L223.711 -157.071
L224.567 -156.297
L226.858 -154.285
L228.389 -152.979
L230.004 -151.643
L232.695 -149.662
L233.151 -149.321
L236.298 -147.147
L237.568 -146.345
L239.444 -145.036
L242.583 -143.028
L242.591 -143.022
L245.738 -140.916
L247.795 -139.71
L248.885 -139.029
L252.031 -137.379
L254.404 -136.393
L255.178 -136.057
L258.325 -134.953
L261.471 -134.109
L264.618 -133.44
L266.77 -133.076
L267.765 -132.883
L270.911 -132.417
L274.058 -132.159
L277.205 -132.114
L280.351 -132.226
L283.498 -132.368
L286.645 -132.338
L289.791 -131.917
L292.938 -130.944
L295.278 -129.759
L296.085 -129.297
L299.231 -126.99
L299.883 -126.441
L302.378 -124.306
L303.83 -123.124
L305.525 -121.752
L308.405 -119.807
L308.671 -119.623
L311.818 -117.816
L314.901 -116.49
L314.965 -116.459
L318.111 -115.191
L321.258 -114.021
L323.551 -113.172
L324.405 -112.788
L327.551 -111.31
L330.689 -109.855
L330.698 -109.85
M327.551 -149.246
L326.939 -149.662
L324.405 -151.729
L323.161 -152.979
L321.258 -154.975
L320.106 -156.297
L318.111 -158.449
L317.064 -159.614
L314.965 -161.735
L313.758 -162.931
L311.818 -164.689
L309.925 -166.248
L308.671 -167.205
L305.525 -169.208
L304.78 -169.566
L302.378 -170.674
L299.231 -171.599
L296.085 -171.803
L292.938 -171.289
L289.791 -170.169
L288.61 -169.566
L286.645 -168.678
L283.498 -167.069
L281.869 -166.248
L280.351 -165.477
L277.205 -164.035
L274.058 -162.956
L273.935 -162.931
L270.911 -162.199
L267.765 -162.071
L264.618 -162.548
L263.385 -162.931
L261.471 -163.483
L258.325 -164.77
L255.372 -166.248
L255.178 -166.355
L252.031 -168.178
L249.842 -169.566
L248.885 -170.274
L245.738 -172.837
L245.687 -172.883
L242.591 -175.947
L242.357 -176.2
L239.444 -179.225
L239.167 -179.517
L236.298 -182.261
L235.674 -182.835
L233.151 -185.092
L231.953 -186.152
L230.004 -188.02
L228.565 -189.469
L226.858 -191.496
L225.791 -192.786
L223.711 -195.806
L223.501 -196.104
L221.377 -199.421
L220.564 -200.772
L219.316 -202.738
L217.418 -205.878
L217.304 -206.055
L215.246 -209.373
L214.271 -211.079
L213.221 -212.69
L211.278 -216.007
L211.124 -216.303
L209.142 -219.324
L207.978 -221.308
L206.874 -222.642
L204.831 -225.125
L203.641 -225.959
L201.684 -227.238
L198.538 -227.86
L195.391 -227.53
L192.244 -226.852
L189.098 -226.218
L186.767 -225.959
L185.951 -225.871
L183.786 -225.959
L182.804 -225.996
L179.658 -226.673
L176.511 -227.868
L173.97 -229.276
L173.364 -229.594
L170.218 -231.867
L169.45 -232.593
L167.071 -234.971
L166.333 -235.911
L163.931 -239.228
L163.924 -239.238
L161.969 -242.545
L160.778 -244.533
L160.055 -245.862
L158.24 -249.18
L157.631 -250.375
L156.65 -252.497
L155.401 -255.814
L154.491 -259.131
L154.484 -259.165
L153.898 -262.448
L153.461 -265.766
L153.075 -269.083
L152.661 -272.4
L152.22 -275.717
L151.768 -279.035
L151.338 -282.352
L151.338 -282.352
L150.974 -285.669
L150.702 -288.986
L150.555 -292.304
L150.563 -295.621
L150.739 -298.938
L151.064 -302.255
L151.338 -304.231
L151.536 -305.573
L152.15 -308.89
L152.95 -312.207
L153.995 -315.524
L154.484 -316.775
L155.406 -318.842
L157.148 -322.159
L157.631 -322.992
L159.382 -325.476
L160.778 -327.298
L162.392 -328.793
L163.924 -330.065
L167.071 -331.457
L170.218 -331.795
L173.364 -331.383
L176.511 -330.452
L179.658 -329.108
L180.249 -328.793
L182.804 -327.49
L185.951 -325.663
L186.264 -325.476
L189.098 -323.85
L192.096 -322.159
L192.244 -322.074
L195.391 -320.444
L198.538 -319.067
L199.264 -318.842
L201.684 -318.052
L204.831 -317.522
L207.978 -317.508
L211.124 -317.888
L214.271 -318.489
L215.736 -318.842
L217.418 -319.198
L220.564 -320.01
L223.711 -321.032
L226.418 -322.159
L226.858 -322.339
L230.004 -323.865
L233.151 -325.468
L233.171 -325.476
L236.298 -326.752
L239.444 -327.314
L242.591 -326.874
L245.514 -325.476
L245.738 -325.357
L248.885 -322.73
L249.437 -322.159
L252.031 -319.177
L252.297 -318.842
L254.861 -315.524
L255.178 -315.138
L257.522 -312.207
L258.325 -311.327
L260.55 -308.89
L261.471 -307.993
L263.95 -305.573
L264.618 -304.957
L267.502 -302.255
L267.765 -302.011
L270.911 -298.997
L270.97 -298.938
L274.058 -295.692
L274.123 -295.621
L276.919 -292.304
L277.205 -291.926
L279.396 -288.986
L280.351 -287.545
L281.61 -285.669
L283.498 -282.533
L283.612 -282.352
L285.571 -279.035
L286.645 -277.097
L287.492 -275.717
L289.46 -272.4
L289.791 -271.821
L291.7 -269.083
L292.938 -267.302
L294.349 -265.766
L296.085 -264.001
L298.353 -262.448
L299.231 -261.915
L302.378 -260.637
L305.525 -259.723
L307.974 -259.131
L308.671 -258.951
L311.818 -258.271
L314.965 -257.652
L318.111 -257.226
L321.258 -256.939
L324.405 -256.527
L327.253 -255.814
L327.551 -255.759
L330.698 -254.684
L333.845 -253.035
L334.54 -252.497
L336.991 -250.937
L338.94 -249.18
L340.138 -248.159
L342.177 -245.862
L343.285 -244.486
L344.586 -242.545
L346.329 -239.228
L346.431 -238.954
L347.464 -235.911
L348.188 -232.593
L348.732 -229.276
L349.313 -225.959
L349.578 -224.783
L350.035 -222.642
L350.909 -219.324
L351.838 -216.007
L352.713 -212.69
L352.725 -212.636
L353.474 -209.373
L354.068 -206.055
L354.469 -202.738
L354.703 -199.421
L354.781 -196.104
L354.731 -192.786
L354.556 -189.469
L354.28 -186.152
L353.927 -182.835
L353.524 -179.517
L353.139 -176.2
L352.725 -173.023
L352.705 -172.883
L352.111 -169.566
L351.195 -166.248
L349.859 -162.931
L349.578 -162.374
L348.169 -159.614
L346.431 -156.565
L346.268 -156.297
L344.065 -152.979
L343.285 -151.941
L340.994 -149.662
L340.138 -148.959
L336.991 -147.524
L333.845 -147.195
L330.698 -147.794
L327.551 -149.246" id="C1_0_782fc5b4af"/>
    </defs>
    <g clip-path="url(#p36353a81f3)">
     <use style="fill:#0000ff;fill-opacity:0.5;" x="0.0" xlink:href="#C1_0_782fc5b4af" y="432.0"/>
    </g>
   </g>
   <g id="PathCollection_3">
    <defs>
     <path d="
M327.551 -149.246
L330.698 -147.794
L333.845 -147.195
L336.991 -147.524
L340.138 -148.959
L340.994 -149.662
L343.285 -151.941
L344.065 -152.979
L346.268 -156.297
L346.431 -156.565
L348.169 -159.614
L349.578 -162.374
L349.859 -162.931
L351.195 -166.248
L352.111 -169.566
L352.705 -172.883
L352.725 -173.023
L353.139 -176.2
L353.524 -179.517
L353.927 -182.835
L354.28 -186.152
L354.556 -189.469
L354.731 -192.786
L354.781 -196.104
L354.703 -199.421
L354.469 -202.738
L354.068 -206.055
L353.474 -209.373
L352.725 -212.636
L352.713 -212.69
L351.838 -216.007
L350.909 -219.324
L350.035 -222.642
L349.578 -224.783
L349.313 -225.959
L348.732 -229.276
L348.188 -232.593
L347.464 -235.911
L346.431 -238.954
L346.329 -239.228
L344.586 -242.545
L343.285 -244.486
L342.177 -245.862
L340.138 -248.159
L338.94 -249.18
L336.991 -250.937
L334.54 -252.497
L333.845 -253.035
L330.698 -254.684
L327.551 -255.759
L327.253 -255.814
L324.405 -256.527
L321.258 -256.939
L318.111 -257.226
L314.965 -257.652
L311.818 -258.271
L308.671 -258.951
L307.974 -259.131
L305.525 -259.723
L302.378 -260.637
L299.231 -261.915
L298.353 -262.448
L296.085 -264.001
L294.349 -265.766
L292.938 -267.302
L291.7 -269.083
L289.791 -271.821
L289.46 -272.4
L287.492 -275.717
L286.645 -277.097
L285.571 -279.035
L283.612 -282.352
L283.498 -282.533
L281.61 -285.669
L280.351 -287.545
L279.396 -288.986
L277.205 -291.926
L276.919 -292.304
L274.123 -295.621
L274.058 -295.692
L270.97 -298.938
L270.911 -298.997
L267.765 -302.011
L267.502 -302.255
L264.618 -304.957
L263.95 -305.573
L261.471 -307.993
L260.55 -308.89
L258.325 -311.327
L257.522 -312.207
L255.178 -315.138
L254.861 -315.524
L252.297 -318.842
L252.031 -319.177
L249.437 -322.159
L248.885 -322.73
L245.738 -325.357
L245.514 -325.476
L242.591 -326.874
L239.444 -327.314
L236.298 -326.752
L233.171 -325.476
L233.151 -325.468
L230.004 -323.865
L226.858 -322.339
L226.418 -322.159
L223.711 -321.032
L220.564 -320.01
L217.418 -319.198
L215.736 -318.842
L214.271 -318.489
L211.124 -317.888
L207.978 -317.508
L204.831 -317.522
L201.684 -318.052
L199.264 -318.842
L198.538 -319.067
L195.391 -320.444
L192.244 -322.074
L192.096 -322.159
L189.098 -323.85
L186.264 -325.476
L185.951 -325.663
L182.804 -327.49
L180.249 -328.793
L179.658 -329.108
L176.511 -330.452
L173.364 -331.383
L170.218 -331.795
L167.071 -331.457
L163.924 -330.065
L162.392 -328.793
L160.778 -327.298
L159.382 -325.476
L157.631 -322.992
L157.148 -322.159
L155.406 -318.842
L154.484 -316.775
L153.995 -315.524
L152.95 -312.207
L152.15 -308.89
L151.536 -305.573
L151.338 -304.231
L151.064 -302.255
L150.739 -298.938
L150.563 -295.621
L150.555 -292.304
L150.702 -288.986
L150.974 -285.669
L151.338 -282.352
L151.338 -282.352
L151.768 -279.035
L152.22 -275.717
L152.661 -272.4
L153.075 -269.083
L153.461 -265.766
L153.898 -262.448
L154.484 -259.165
L154.491 -259.131
L155.401 -255.814
L156.65 -252.497
L157.631 -250.375
L158.24 -249.18
L160.055 -245.862
L160.778 -244.533
L161.969 -242.545
L163.924 -239.238
L163.931 -239.228
L166.333 -235.911
L167.071 -234.971
L169.45 -232.593
L170.218 -231.867
L173.364 -229.594
L173.97 -229.276
L176.511 -227.868
L179.658 -226.673
L182.804 -225.996
L183.786 -225.959
L185.951 -225.871
L186.767 -225.959
L189.098 -226.218
L192.244 -226.852
L195.391 -227.53
L198.538 -227.86
L201.684 -227.238
L203.641 -225.959
L204.831 -225.125
L206.874 -222.642
L207.978 -221.308
L209.142 -219.324
L211.124 -216.303
L211.278 -216.007
L213.221 -212.69
L214.271 -211.079
L215.246 -209.373
L217.304 -206.055
L217.418 -205.878
L219.316 -202.738
L220.564 -200.772
L221.377 -199.421
L223.501 -196.104
L223.711 -195.806
L225.791 -192.786
L226.858 -191.496
L228.565 -189.469
L230.004 -188.02
L231.953 -186.152
L233.151 -185.092
L235.674 -182.835
L236.298 -182.261
L239.167 -179.517
L239.444 -179.225
L242.357 -176.2
L242.591 -175.947
L245.687 -172.883
L245.738 -172.837
L248.885 -170.274
L249.842 -169.566
L252.031 -168.178
L255.178 -166.355
L255.372 -166.248
L258.325 -164.77
L261.471 -163.483
L263.385 -162.931
L264.618 -162.548
L267.765 -162.071
L270.911 -162.199
L273.935 -162.931
L274.058 -162.956
L277.205 -164.035
L280.351 -165.477
L281.869 -166.248
L283.498 -167.069
L286.645 -168.678
L288.61 -169.566
L289.791 -170.169
L292.938 -171.289
L296.085 -171.803
L299.231 -171.599
L302.378 -170.674
L304.78 -169.566
L305.525 -169.208
L308.671 -167.205
L309.925 -166.248
L311.818 -164.689
L313.758 -162.931
L314.965 -161.735
L317.064 -159.614
L318.111 -158.449
L320.106 -156.297
L321.258 -154.975
L323.161 -152.979
L324.405 -151.729
L326.939 -149.662
L327.551 -149.246" id="C2_0_ce1762db84"/>
    </defs>
    <g clip-path="url(#p36353a81f3)">
     <use style="fill:#0000ff;" x="0.0" xlink:href="#C2_0_ce1762db84" y="432.0"/>
    </g>
   </g>
   <g id="line2d_1">
    <path clip-path="url(#p36353a81f3)" d="
M145.452 191.114" style="fill:none;stroke:#fa8072;stroke-linecap:square;"/>
    <defs>
     <path d="
M-7.5 0
L7.5 0
M0 7.5
L0 -7.5" id="m415119b0dc" style="stroke:#fa8072;stroke-width:3;"/>
    </defs>
    <g clip-path="url(#p36353a81f3)">
     <use style="fill:#fa8072;stroke:#fa8072;stroke-width:3;" x="145.451792616" xlink:href="#m415119b0dc" y="191.11359375"/>
    </g>
   </g>
   <g id="matplotlib.axis_1">
    <g id="xtick_1">
     <g id="line2d_2">
      <path clip-path="url(#p36353a81f3)" d="
M97.8441 355.317
L97.8441 26.91" style="fill:none;stroke:#000000;stroke-dasharray:1.000000,3.000000;stroke-dashoffset:0.0;stroke-width:0.5;"/>
     </g>
     <g id="line2d_3">
      <defs>
       <path d="
M0 0
L0 -4" id="m93b0483c22" style="stroke:#000000;stroke-width:0.5;"/>
      </defs>
      <g>
       <use style="stroke:#000000;stroke-width:0.5;" x="97.8440625" xlink:href="#m93b0483c22" y="355.3171875"/>
      </g>
     </g>
     <g id="line2d_4">
      <defs>
       <path d="
M0 0
L0 4" id="m741efc42ff" style="stroke:#000000;stroke-width:0.5;"/>
      </defs>
      <g>
       <use style="stroke:#000000;stroke-width:0.5;" x="97.8440625" xlink:href="#m741efc42ff" y="26.91"/>
      </g>
     </g>
     <g id="text_1">
      <!-- −6 -->
      <defs>
       <path d="
M33.0156 40.375
Q26.375 40.375 22.4844 35.8281
Q18.6094 31.2969 18.6094 23.3906
Q18.6094 15.5312 22.4844 10.9531
Q26.375 6.39062 33.0156 6.39062
Q39.6562 6.39062 43.5312 10.9531
Q47.4062 15.5312 47.4062 23.3906
Q47.4062 31.2969 43.5312 35.8281
Q39.6562 40.375 33.0156 40.375
M52.5938 71.2969
L52.5938 62.3125
Q48.875 64.0625 45.0938 64.9844
Q41.3125 65.9219 37.5938 65.9219
Q27.8281 65.9219 22.6719 59.3281
Q17.5312 52.7344 16.7969 39.4062
Q19.6719 43.6562 24.0156 45.9219
Q28.375 48.1875 33.5938 48.1875
Q44.5781 48.1875 50.9531 41.5156
Q57.3281 34.8594 57.3281 23.3906
Q57.3281 12.1562 50.6875 5.35938
Q44.0469 -1.42188 33.0156 -1.42188
Q20.3594 -1.42188 13.6719 8.26562
Q6.98438 17.9688 6.98438 36.375
Q6.98438 53.6562 15.1875 63.9375
Q23.3906 74.2188 37.2031 74.2188
Q40.9219 74.2188 44.7031 73.4844
Q48.4844 72.75 52.5938 71.2969" id="DejaVuSans-36"/>
       <path d="
M10.5938 35.5
L73.1875 35.5
L73.1875 27.2031
L10.5938 27.2031
z
" id="DejaVuSans-2212"/>
      </defs>
      <g transform="translate(86.74890625 372.23453125)scale(0.17 -0.17)">
       <use xlink:href="#DejaVuSans-2212"/>
       <use x="83.7890625" xlink:href="#DejaVuSans-36"/>
      </g>
     </g>
    </g>
    <g id="xtick_2">
     <g id="line2d_5">
      <path clip-path="url(#p36353a81f3)" d="
M149.764 355.317
L149.764 26.91" style="fill:none;stroke:#000000;stroke-dasharray:1.000000,3.000000;stroke-dashoffset:0.0;stroke-width:0.5;"/>
     </g>
     <g id="line2d_6">
      <g>
       <use style="stroke:#000000;stroke-width:0.5;" x="149.76421875" xlink:href="#m93b0483c22" y="355.3171875"/>
      </g>
     </g>
     <g id="line2d_7">
      <g>
       <use style="stroke:#000000;stroke-width:0.5;" x="149.76421875" xlink:href="#m741efc42ff" y="26.91"/>
      </g>
     </g>
     <g id="text_2">
      <!-- −4 -->
      <defs>
       <path d="
M37.7969 64.3125
L12.8906 25.3906
L37.7969 25.3906
z

M35.2031 72.9062
L47.6094 72.9062
L47.6094 25.3906
L58.0156 25.3906
L58.0156 17.1875
L47.6094 17.1875
L47.6094 0
L37.7969 0
L37.7969 17.1875
L4.89062 17.1875
L4.89062 26.7031
z
" id="DejaVuSans-34"/>
      </defs>
      <g transform="translate(138.610625 372.23453125)scale(0.17 -0.17)">
       <use xlink:href="#DejaVuSans-2212"/>
       <use x="83.7890625" xlink:href="#DejaVuSans-34"/>
      </g>
     </g>
    </g>
    <g id="xtick_3">
     <g id="line2d_8">
      <path clip-path="url(#p36353a81f3)" d="
M201.684 355.317
L201.684 26.91" style="fill:none;stroke:#000000;stroke-dasharray:1.000000,3.000000;stroke-dashoffset:0.0;stroke-width:0.5;"/>
     </g>
     <g id="line2d_9">
      <g>
       <use style="stroke:#000000;stroke-width:0.5;" x="201.684375" xlink:href="#m93b0483c22" y="355.3171875"/>
      </g>
     </g>
     <g id="line2d_10">
      <g>
       <use style="stroke:#000000;stroke-width:0.5;" x="201.684375" xlink:href="#m741efc42ff" y="26.91"/>
      </g>
     </g>
     <g id="text_3">
      <!-- −2 -->
      <defs>
       <path d="
M19.1875 8.29688
L53.6094 8.29688
L53.6094 0
L7.32812 0
L7.32812 8.29688
Q12.9375 14.1094 22.625 23.8906
Q32.3281 33.6875 34.8125 36.5312
Q39.5469 41.8438 41.4219 45.5312
Q43.3125 49.2188 43.3125 52.7812
Q43.3125 58.5938 39.2344 62.25
Q35.1562 65.9219 28.6094 65.9219
Q23.9688 65.9219 18.8125 64.3125
Q13.6719 62.7031 7.8125 59.4219
L7.8125 69.3906
Q13.7656 71.7812 18.9375 73
Q24.125 74.2188 28.4219 74.2188
Q39.75 74.2188 46.4844 68.5469
Q53.2188 62.8906 53.2188 53.4219
Q53.2188 48.9219 51.5312 44.8906
Q49.8594 40.875 45.4062 35.4062
Q44.1875 33.9844 37.6406 27.2188
Q31.1094 20.4531 19.1875 8.29688" id="DejaVuSans-32"/>
      </defs>
      <g transform="translate(190.9053125 372.23453125)scale(0.17 -0.17)">
       <use xlink:href="#DejaVuSans-2212"/>
       <use x="83.7890625" xlink:href="#DejaVuSans-32"/>
      </g>
     </g>
    </g>
    <g id="xtick_4">
     <g id="line2d_11">
      <path clip-path="url(#p36353a81f3)" d="
M253.605 355.317
L253.605 26.91" style="fill:none;stroke:#000000;stroke-dasharray:1.000000,3.000000;stroke-dashoffset:0.0;stroke-width:0.5;"/>
     </g>
     <g id="line2d_12">
      <g>
       <use style="stroke:#000000;stroke-width:0.5;" x="253.60453125" xlink:href="#m93b0483c22" y="355.3171875"/>
      </g>
     </g>
     <g id="line2d_13">
      <g>
       <use style="stroke:#000000;stroke-width:0.5;" x="253.60453125" xlink:href="#m741efc42ff" y="26.91"/>
      </g>
     </g>
     <g id="text_4">
      <!-- 0 -->
      <defs>
       <path d="
M31.7812 66.4062
Q24.1719 66.4062 20.3281 58.9062
Q16.5 51.4219 16.5 36.375
Q16.5 21.3906 20.3281 13.8906
Q24.1719 6.39062 31.7812 6.39062
Q39.4531 6.39062 43.2812 13.8906
Q47.125 21.3906 47.125 36.375
Q47.125 51.4219 43.2812 58.9062
Q39.4531 66.4062 31.7812 66.4062
M31.7812 74.2188
Q44.0469 74.2188 50.5156 64.5156
Q56.9844 54.8281 56.9844 36.375
Q56.9844 17.9688 50.5156 8.26562
Q44.0469 -1.42188 31.7812 -1.42188
Q19.5312 -1.42188 13.0625 8.26562
Q6.59375 17.9688 6.59375 36.375
Q6.59375 54.8281 13.0625 64.5156
Q19.5312 74.2188 31.7812 74.2188" id="DejaVuSans-30"/>
      </defs>
      <g transform="translate(249.321328125 372.23453125)scale(0.17 -0.17)">
       <use xlink:href="#DejaVuSans-30"/>
      </g>
     </g>
    </g>
    <g id="xtick_5">
     <g id="line2d_14">
      <path clip-path="url(#p36353a81f3)" d="
M305.525 355.317
L305.525 26.91" style="fill:none;stroke:#000000;stroke-dasharray:1.000000,3.000000;stroke-dashoffset:0.0;stroke-width:0.5;"/>
     </g>
     <g id="line2d_15">
      <g>
       <use style="stroke:#000000;stroke-width:0.5;" x="305.5246875" xlink:href="#m93b0483c22" y="355.3171875"/>
      </g>
     </g>
     <g id="line2d_16">
      <g>
       <use style="stroke:#000000;stroke-width:0.5;" x="305.5246875" xlink:href="#m741efc42ff" y="26.91"/>
      </g>
     </g>
     <g id="text_5">
      <!-- 2 -->
      <g transform="translate(301.59078125 372.23453125)scale(0.17 -0.17)">
       <use xlink:href="#DejaVuSans-32"/>
      </g>
     </g>
    </g>
    <g id="xtick_6">
     <g id="line2d_17">
      <path clip-path="url(#p36353a81f3)" d="
M357.445 355.317
L357.445 26.91" style="fill:none;stroke:#000000;stroke-dasharray:1.000000,3.000000;stroke-dashoffset:0.0;stroke-width:0.5;"/>
     </g>
     <g id="line2d_18">
      <g>
       <use style="stroke:#000000;stroke-width:0.5;" x="357.44484375" xlink:href="#m93b0483c22" y="355.3171875"/>
      </g>
     </g>
     <g id="line2d_19">
      <g>
       <use style="stroke:#000000;stroke-width:0.5;" x="357.44484375" xlink:href="#m741efc42ff" y="26.91"/>
      </g>
     </g>
     <g id="text_6">
      <!-- 4 -->
      <g transform="translate(352.92921875 372.23453125)scale(0.17 -0.17)">
       <use xlink:href="#DejaVuSans-34"/>
      </g>
     </g>
    </g>
    <g id="xtick_7">
     <g id="line2d_20">
      <path clip-path="url(#p36353a81f3)" d="
M409.365 355.317
L409.365 26.91" style="fill:none;stroke:#000000;stroke-dasharray:1.000000,3.000000;stroke-dashoffset:0.0;stroke-width:0.5;"/>
     </g>
     <g id="line2d_21">
      <g>
       <use style="stroke:#000000;stroke-width:0.5;" x="409.365" xlink:href="#m93b0483c22" y="355.3171875"/>
      </g>
     </g>
     <g id="line2d_22">
      <g>
       <use style="stroke:#000000;stroke-width:0.5;" x="409.365" xlink:href="#m741efc42ff" y="26.91"/>
      </g>
     </g>
     <g id="text_7">
      <!-- 6 -->
      <g transform="translate(405.08578125 372.23453125)scale(0.17 -0.17)">
       <use xlink:href="#DejaVuSans-36"/>
      </g>
     </g>
    </g>
    <g id="xtick_8">
     <g id="line2d_23">
      <defs>
       <path d="
M0 0
L0 -2" id="m177f7580d0" style="stroke:#000000;stroke-width:0.5;"/>
      </defs>
      <g>
       <use style="stroke:#000000;stroke-width:0.5;" x="110.824101563" xlink:href="#m177f7580d0" y="355.3171875"/>
      </g>
     </g>
     <g id="line2d_24">
      <defs>
       <path d="
M0 0
L0 2" id="m5284c7e2a0" style="stroke:#000000;stroke-width:0.5;"/>
      </defs>
      <g>
       <use style="stroke:#000000;stroke-width:0.5;" x="110.824101563" xlink:href="#m5284c7e2a0" y="26.91"/>
      </g>
     </g>
    </g>
    <g id="xtick_9">
     <g id="line2d_25">
      <g>
       <use style="stroke:#000000;stroke-width:0.5;" x="123.804140625" xlink:href="#m177f7580d0" y="355.3171875"/>
      </g>
     </g>
     <g id="line2d_26">
      <g>
       <use style="stroke:#000000;stroke-width:0.5;" x="123.804140625" xlink:href="#m5284c7e2a0" y="26.91"/>
      </g>
     </g>
    </g>
    <g id="xtick_10">
     <g id="line2d_27">
      <g>
       <use style="stroke:#000000;stroke-width:0.5;" x="136.784179688" xlink:href="#m177f7580d0" y="355.3171875"/>
      </g>
     </g>
     <g id="line2d_28">
      <g>
       <use style="stroke:#000000;stroke-width:0.5;" x="136.784179688" xlink:href="#m5284c7e2a0" y="26.91"/>
      </g>
     </g>
    </g>
    <g id="xtick_11">
     <g id="line2d_29">
      <g>
       <use style="stroke:#000000;stroke-width:0.5;" x="162.744257813" xlink:href="#m177f7580d0" y="355.3171875"/>
      </g>
     </g>
     <g id="line2d_30">
      <g>
       <use style="stroke:#000000;stroke-width:0.5;" x="162.744257813" xlink:href="#m5284c7e2a0" y="26.91"/>
      </g>
     </g>
    </g>
    <g id="xtick_12">
     <g id="line2d_31">
      <g>
       <use style="stroke:#000000;stroke-width:0.5;" x="175.724296875" xlink:href="#m177f7580d0" y="355.3171875"/>
      </g>
     </g>
     <g id="line2d_32">
      <g>
       <use style="stroke:#000000;stroke-width:0.5;" x="175.724296875" xlink:href="#m5284c7e2a0" y="26.91"/>
      </g>
     </g>
    </g>
    <g id="xtick_13">
     <g id="line2d_33">
      <g>
       <use style="stroke:#000000;stroke-width:0.5;" x="188.704335938" xlink:href="#m177f7580d0" y="355.3171875"/>
      </g>
     </g>
     <g id="line2d_34">
      <g>
       <use style="stroke:#000000;stroke-width:0.5;" x="188.704335938" xlink:href="#m5284c7e2a0" y="26.91"/>
      </g>
     </g>
    </g>
    <g id="xtick_14">
     <g id="line2d_35">
      <g>
       <use style="stroke:#000000;stroke-width:0.5;" x="214.664414063" xlink:href="#m177f7580d0" y="355.3171875"/>
      </g>
     </g>
     <g id="line2d_36">
      <g>
       <use style="stroke:#000000;stroke-width:0.5;" x="214.664414063" xlink:href="#m5284c7e2a0" y="26.91"/>
      </g>
     </g>
    </g>
    <g id="xtick_15">
     <g id="line2d_37">
      <g>
       <use style="stroke:#000000;stroke-width:0.5;" x="227.644453125" xlink:href="#m177f7580d0" y="355.3171875"/>
      </g>
     </g>
     <g id="line2d_38">
      <g>
       <use style="stroke:#000000;stroke-width:0.5;" x="227.644453125" xlink:href="#m5284c7e2a0" y="26.91"/>
      </g>
     </g>
    </g>
    <g id="xtick_16">
     <g id="line2d_39">
      <g>
       <use style="stroke:#000000;stroke-width:0.5;" x="240.624492188" xlink:href="#m177f7580d0" y="355.3171875"/>
      </g>
     </g>
     <g id="line2d_40">
      <g>
       <use style="stroke:#000000;stroke-width:0.5;" x="240.624492188" xlink:href="#m5284c7e2a0" y="26.91"/>
      </g>
     </g>
    </g>
    <g id="xtick_17">
     <g id="line2d_41">
      <g>
       <use style="stroke:#000000;stroke-width:0.5;" x="266.584570313" xlink:href="#m177f7580d0" y="355.3171875"/>
      </g>
     </g>
     <g id="line2d_42">
      <g>
       <use style="stroke:#000000;stroke-width:0.5;" x="266.584570313" xlink:href="#m5284c7e2a0" y="26.91"/>
      </g>
     </g>
    </g>
    <g id="xtick_18">
     <g id="line2d_43">
      <g>
       <use style="stroke:#000000;stroke-width:0.5;" x="279.564609375" xlink:href="#m177f7580d0" y="355.3171875"/>
      </g>
     </g>
     <g id="line2d_44">
      <g>
       <use style="stroke:#000000;stroke-width:0.5;" x="279.564609375" xlink:href="#m5284c7e2a0" y="26.91"/>
      </g>
     </g>
    </g>
    <g id="xtick_19">
     <g id="line2d_45">
      <g>
       <use style="stroke:#000000;stroke-width:0.5;" x="292.544648438" xlink:href="#m177f7580d0" y="355.3171875"/>
      </g>
     </g>
     <g id="line2d_46">
      <g>
       <use style="stroke:#000000;stroke-width:0.5;" x="292.544648438" xlink:href="#m5284c7e2a0" y="26.91"/>
      </g>
     </g>
    </g>
    <g id="xtick_20">
     <g id="line2d_47">
      <g>
       <use style="stroke:#000000;stroke-width:0.5;" x="318.504726563" xlink:href="#m177f7580d0" y="355.3171875"/>
      </g>
     </g>
     <g id="line2d_48">
      <g>
       <use style="stroke:#000000;stroke-width:0.5;" x="318.504726563" xlink:href="#m5284c7e2a0" y="26.91"/>
      </g>
     </g>
    </g>
    <g id="xtick_21">
     <g id="line2d_49">
      <g>
       <use style="stroke:#000000;stroke-width:0.5;" x="331.484765625" xlink:href="#m177f7580d0" y="355.3171875"/>
      </g>
     </g>
     <g id="line2d_50">
      <g>
       <use style="stroke:#000000;stroke-width:0.5;" x="331.484765625" xlink:href="#m5284c7e2a0" y="26.91"/>
      </g>
     </g>
    </g>
    <g id="xtick_22">
     <g id="line2d_51">
      <g>
       <use style="stroke:#000000;stroke-width:0.5;" x="344.464804688" xlink:href="#m177f7580d0" y="355.3171875"/>
      </g>
     </g>
     <g id="line2d_52">
      <g>
       <use style="stroke:#000000;stroke-width:0.5;" x="344.464804688" xlink:href="#m5284c7e2a0" y="26.91"/>
      </g>
     </g>
    </g>
    <g id="xtick_23">
     <g id="line2d_53">
      <g>
       <use style="stroke:#000000;stroke-width:0.5;" x="370.424882813" xlink:href="#m177f7580d0" y="355.3171875"/>
      </g>
     </g>
     <g id="line2d_54">
      <g>
       <use style="stroke:#000000;stroke-width:0.5;" x="370.424882813" xlink:href="#m5284c7e2a0" y="26.91"/>
      </g>
     </g>
    </g>
    <g id="xtick_24">
     <g id="line2d_55">
      <g>
       <use style="stroke:#000000;stroke-width:0.5;" x="383.404921875" xlink:href="#m177f7580d0" y="355.3171875"/>
      </g>
     </g>
     <g id="line2d_56">
      <g>
       <use style="stroke:#000000;stroke-width:0.5;" x="383.404921875" xlink:href="#m5284c7e2a0" y="26.91"/>
      </g>
     </g>
    </g>
    <g id="xtick_25">
     <g id="line2d_57">
      <g>
       <use style="stroke:#000000;stroke-width:0.5;" x="396.384960938" xlink:href="#m177f7580d0" y="355.3171875"/>
      </g>
     </g>
     <g id="line2d_58">
      <g>
       <use style="stroke:#000000;stroke-width:0.5;" x="396.384960938" xlink:href="#m5284c7e2a0" y="26.91"/>
      </g>
     </g>
    </g>
    <g id="text_8">
     <!-- $\mathcal{C}_{10}$ -->
     <defs>
      <path d="
M9.28125 0
L9.28125 3.51562
Q21.7812 3.51562 21.7812 6.6875
L21.7812 59.1875
Q16.6094 56.6875 8.6875 56.6875
L8.6875 60.2031
Q20.9531 60.2031 27.2031 66.6094
L28.6094 66.6094
Q28.9531 66.6094 29.2656 66.3281
Q29.5938 66.0625 29.5938 65.7188
L29.5938 6.6875
Q29.5938 3.51562 42.0938 3.51562
L42.0938 0
z
" id="Cmr10-31"/>
      <path d="
M25 -2.20312
Q12.75 -2.20312 8.32812 7.875
Q3.90625 17.9688 3.90625 31.8906
Q3.90625 40.5781 5.48438 48.2344
Q7.07812 55.9062 11.7812 61.25
Q16.5 66.6094 25 66.6094
Q31.5938 66.6094 35.7812 63.375
Q39.9844 60.1562 42.1875 55.0469
Q44.3906 49.9531 45.1875 44.1094
Q46 38.2812 46 31.8906
Q46 23.2969 44.4062 15.7969
Q42.8281 8.29688 38.1875 3.04688
Q33.5469 -2.20312 25 -2.20312
M25 0.390625
Q30.5625 0.390625 33.2969 6.09375
Q36.0312 11.8125 36.6719 18.75
Q37.3125 25.6875 37.3125 33.5
Q37.3125 41.0156 36.6719 47.3594
Q36.0312 53.7188 33.3125 58.8594
Q30.6094 64.0156 25 64.0156
Q19.3438 64.0156 16.6094 58.8281
Q13.875 53.6562 13.2344 47.3281
Q12.5938 41.0156 12.5938 33.5
Q12.5938 27.9375 12.8594 23
Q13.1406 18.0625 14.3125 12.8125
Q15.4844 7.5625 18.0938 3.96875
Q20.7031 0.390625 25 0.390625" id="Cmr10-30"/>
      <path d="
M19.6719 -2.39062
Q14.9375 -2.39062 11.4375 -0.5625
Q7.95312 1.26562 5.64062 4.5625
Q3.32812 7.85938 2.26562 11.8125
Q1.21875 15.7656 1.21875 20.3125
Q1.21875 29.25 4.51562 38.3594
Q7.8125 47.4688 13.7656 54.7188
Q19.7344 61.9688 27.9062 66.2344
Q36.0781 70.5156 45.5156 70.5156
L46.0938 70.5156
Q49.3594 70.5156 51.3906 68.8438
Q53.4219 67.1875 53.4219 64.0156
Q53.4219 61.2344 51.8125 57.4688
Q50.2031 53.7188 47.9062 49.6094
Q46.8281 47.7969 44.6562 46.4844
Q42.4844 45.1719 40.1875 44.9219
L39.7031 44.9219
Q39.0156 45.2656 39.0156 45.6094
Q39.0156 46.0469 40.5938 49.1719
Q42.1875 52.2969 43.3281 55.0469
Q44.4844 57.8125 44.4844 59.8125
Q44.4844 62.25 42.9375 63.4219
Q41.4062 64.5938 38.8125 64.5938
Q31.4531 64.5938 26.4375 61.0781
Q21.4375 57.5625 17.3906 50.6875
Q14.0156 44.875 12.0625 38.1094
Q10.1094 31.3438 10.1094 24.6094
Q10.1094 19.0938 11.8594 14.2344
Q13.625 9.375 17.4219 6.4375
Q21.2344 3.51562 27 3.51562
Q33.0625 3.51562 37.7969 8.01562
Q38.4219 8.6875 40.4062 11.2969
Q42.3906 13.9219 44.0938 15.1406
Q45.7969 16.3594 48.4844 16.6094
L49.0312 16.6094
Q49.7031 16.2656 49.7031 15.8281
Q49.7031 15.4375 49.4219 14.9844
Q46.5781 10.2969 41.7969 6.29688
Q37.0156 2.29688 31.2969 -0.046875
Q25.5938 -2.39062 20.3125 -2.39062
z
" id="Cmsy10-43"/>
     </defs>
     <g transform="translate(235.15453125 402.07)scale(0.3 -0.3)">
      <use transform="translate(0.0 0.484375)" xlink:href="#Cmsy10-43"/>
      <use transform="translate(52.587890625 -25.025)scale(0.7)" xlink:href="#Cmr10-31"/>
      <use transform="translate(87.587890625 -25.025)scale(0.7)" xlink:href="#Cmr10-30"/>
     </g>
    </g>
   </g>
   <g id="matplotlib.axis_2">
    <g id="ytick_1">
     <g id="text_9">
      <!-- −0.6 -->
      <defs>
       <path d="
M10.6875 12.4062
L21 12.4062
L21 0
L10.6875 0
z
" id="DejaVuSans-2e"/>
      </defs>
      <g transform="translate(55.4346875 360.008125)scale(0.17 -0.17)">
       <use xlink:href="#DejaVuSans-2212"/>
       <use x="83.7890625" xlink:href="#DejaVuSans-30"/>
       <use x="147.412109375" xlink:href="#DejaVuSans-2e"/>
       <use x="179.19921875" xlink:href="#DejaVuSans-36"/>
      </g>
     </g>
    </g>
    <g id="ytick_2">
     <g id="line2d_59">
      <path clip-path="url(#p36353a81f3)" d="
M97.8441 300.583
L409.365 300.583" style="fill:none;stroke:#000000;stroke-dasharray:1.000000,3.000000;stroke-dashoffset:0.0;stroke-width:0.5;"/>
     </g>
     <g id="line2d_60">
      <defs>
       <path d="
M0 0
L4 0" id="m728421d6d4" style="stroke:#000000;stroke-width:0.5;"/>
      </defs>
      <g>
       <use style="stroke:#000000;stroke-width:0.5;" x="97.8440625" xlink:href="#m728421d6d4" y="300.58265625"/>
      </g>
     </g>
     <g id="line2d_61">
      <defs>
       <path d="
M0 0
L-4 0" id="mcb0005524f" style="stroke:#000000;stroke-width:0.5;"/>
      </defs>
      <g>
       <use style="stroke:#000000;stroke-width:0.5;" x="409.365" xlink:href="#mcb0005524f" y="300.58265625"/>
      </g>
     </g>
     <g id="text_10">
      <!-- −0.4 -->
      <g transform="translate(55.3178125 305.27359375)scale(0.17 -0.17)">
       <use xlink:href="#DejaVuSans-2212"/>
       <use x="83.7890625" xlink:href="#DejaVuSans-30"/>
       <use x="147.412109375" xlink:href="#DejaVuSans-2e"/>
       <use x="179.19921875" xlink:href="#DejaVuSans-34"/>
      </g>
     </g>
    </g>
    <g id="ytick_3">
     <g id="line2d_62">
      <path clip-path="url(#p36353a81f3)" d="
M97.8441 245.848
L409.365 245.848" style="fill:none;stroke:#000000;stroke-dasharray:1.000000,3.000000;stroke-dashoffset:0.0;stroke-width:0.5;"/>
     </g>
     <g id="line2d_63">
      <g>
       <use style="stroke:#000000;stroke-width:0.5;" x="97.8440625" xlink:href="#m728421d6d4" y="245.848125"/>
      </g>
     </g>
     <g id="line2d_64">
      <g>
       <use style="stroke:#000000;stroke-width:0.5;" x="409.365" xlink:href="#mcb0005524f" y="245.848125"/>
      </g>
     </g>
     <g id="text_11">
      <!-- −0.2 -->
      <g transform="translate(56.066875 250.5390625)scale(0.17 -0.17)">
       <use xlink:href="#DejaVuSans-2212"/>
       <use x="83.7890625" xlink:href="#DejaVuSans-30"/>
       <use x="147.412109375" xlink:href="#DejaVuSans-2e"/>
       <use x="179.19921875" xlink:href="#DejaVuSans-32"/>
      </g>
     </g>
    </g>
    <g id="ytick_4">
     <g id="line2d_65">
      <path clip-path="url(#p36353a81f3)" d="
M97.8441 191.114
L409.365 191.114" style="fill:none;stroke:#000000;stroke-dasharray:1.000000,3.000000;stroke-dashoffset:0.0;stroke-width:0.5;"/>
     </g>
     <g id="line2d_66">
      <g>
       <use style="stroke:#000000;stroke-width:0.5;" x="97.8440625" xlink:href="#m728421d6d4" y="191.11359375"/>
      </g>
     </g>
     <g id="line2d_67">
      <g>
       <use style="stroke:#000000;stroke-width:0.5;" x="409.365" xlink:href="#mcb0005524f" y="191.11359375"/>
      </g>
     </g>
     <g id="text_12">
      <!-- 0.0 -->
      <g transform="translate(69.05859375 195.80453125)scale(0.17 -0.17)">
       <use xlink:href="#DejaVuSans-30"/>
       <use x="63.623046875" xlink:href="#DejaVuSans-2e"/>
       <use x="95.41015625" xlink:href="#DejaVuSans-30"/>
      </g>
     </g>
    </g>
    <g id="ytick_5">
     <g id="line2d_68">
      <path clip-path="url(#p36353a81f3)" d="
M97.8441 136.379
L409.365 136.379" style="fill:none;stroke:#000000;stroke-dasharray:1.000000,3.000000;stroke-dashoffset:0.0;stroke-width:0.5;"/>
     </g>
     <g id="line2d_69">
      <g>
       <use style="stroke:#000000;stroke-width:0.5;" x="97.8440625" xlink:href="#m728421d6d4" y="136.3790625"/>
      </g>
     </g>
     <g id="line2d_70">
      <g>
       <use style="stroke:#000000;stroke-width:0.5;" x="409.365" xlink:href="#mcb0005524f" y="136.3790625"/>
      </g>
     </g>
     <g id="text_13">
      <!-- 0.2 -->
      <g transform="translate(69.63234375 141.07)scale(0.17 -0.17)">
       <use xlink:href="#DejaVuSans-30"/>
       <use x="63.623046875" xlink:href="#DejaVuSans-2e"/>
       <use x="95.41015625" xlink:href="#DejaVuSans-32"/>
      </g>
     </g>
    </g>
    <g id="ytick_6">
     <g id="line2d_71">
      <path clip-path="url(#p36353a81f3)" d="
M97.8441 81.6445
L409.365 81.6445" style="fill:none;stroke:#000000;stroke-dasharray:1.000000,3.000000;stroke-dashoffset:0.0;stroke-width:0.5;"/>
     </g>
     <g id="line2d_72">
      <g>
       <use style="stroke:#000000;stroke-width:0.5;" x="97.8440625" xlink:href="#m728421d6d4" y="81.64453125"/>
      </g>
     </g>
     <g id="line2d_73">
      <g>
       <use style="stroke:#000000;stroke-width:0.5;" x="409.365" xlink:href="#mcb0005524f" y="81.64453125"/>
      </g>
     </g>
     <g id="text_14">
      <!-- 0.4 -->
      <g transform="translate(68.88328125 86.33546875)scale(0.17 -0.17)">
       <use xlink:href="#DejaVuSans-30"/>
       <use x="63.623046875" xlink:href="#DejaVuSans-2e"/>
       <use x="95.41015625" xlink:href="#DejaVuSans-34"/>
      </g>
     </g>
    </g>
    <g id="ytick_7">
     <g id="text_15">
      <!-- 0.6 -->
      <g transform="translate(69.00015625 31.6009375)scale(0.17 -0.17)">
       <use xlink:href="#DejaVuSans-30"/>
       <use x="63.623046875" xlink:href="#DejaVuSans-2e"/>
       <use x="95.41015625" xlink:href="#DejaVuSans-36"/>
      </g>
     </g>
    </g>
    <g id="ytick_8">
     <g id="line2d_74">
      <defs>
       <path d="
M0 0
L2 0" id="mf0c55a9a47" style="stroke:#000000;stroke-width:0.5;"/>
      </defs>
      <g>
       <use style="stroke:#000000;stroke-width:0.5;" x="97.8440625" xlink:href="#mf0c55a9a47" y="341.633554688"/>
      </g>
     </g>
     <g id="line2d_75">
      <defs>
       <path d="
M0 0
L-2 0" id="ma4f294b3af" style="stroke:#000000;stroke-width:0.5;"/>
      </defs>
      <g>
       <use style="stroke:#000000;stroke-width:0.5;" x="409.365" xlink:href="#ma4f294b3af" y="341.633554688"/>
      </g>
     </g>
    </g>
    <g id="ytick_9">
     <g id="line2d_76">
      <g>
       <use style="stroke:#000000;stroke-width:0.5;" x="97.8440625" xlink:href="#mf0c55a9a47" y="327.949921875"/>
      </g>
     </g>
     <g id="line2d_77">
      <g>
       <use style="stroke:#000000;stroke-width:0.5;" x="409.365" xlink:href="#ma4f294b3af" y="327.949921875"/>
      </g>
     </g>
    </g>
    <g id="ytick_10">
     <g id="line2d_78">
      <g>
       <use style="stroke:#000000;stroke-width:0.5;" x="97.8440625" xlink:href="#mf0c55a9a47" y="314.266289063"/>
      </g>
     </g>
     <g id="line2d_79">
      <g>
       <use style="stroke:#000000;stroke-width:0.5;" x="409.365" xlink:href="#ma4f294b3af" y="314.266289063"/>
      </g>
     </g>
    </g>
    <g id="ytick_11">
     <g id="line2d_80">
      <g>
       <use style="stroke:#000000;stroke-width:0.5;" x="97.8440625" xlink:href="#mf0c55a9a47" y="286.899023438"/>
      </g>
     </g>
     <g id="line2d_81">
      <g>
       <use style="stroke:#000000;stroke-width:0.5;" x="409.365" xlink:href="#ma4f294b3af" y="286.899023438"/>
      </g>
     </g>
    </g>
    <g id="ytick_12">
     <g id="line2d_82">
      <g>
       <use style="stroke:#000000;stroke-width:0.5;" x="97.8440625" xlink:href="#mf0c55a9a47" y="273.215390625"/>
      </g>
     </g>
     <g id="line2d_83">
      <g>
       <use style="stroke:#000000;stroke-width:0.5;" x="409.365" xlink:href="#ma4f294b3af" y="273.215390625"/>
      </g>
     </g>
    </g>
    <g id="ytick_13">
     <g id="line2d_84">
      <g>
       <use style="stroke:#000000;stroke-width:0.5;" x="97.8440625" xlink:href="#mf0c55a9a47" y="259.531757813"/>
      </g>
     </g>
     <g id="line2d_85">
      <g>
       <use style="stroke:#000000;stroke-width:0.5;" x="409.365" xlink:href="#ma4f294b3af" y="259.531757813"/>
      </g>
     </g>
    </g>
    <g id="ytick_14">
     <g id="line2d_86">
      <g>
       <use style="stroke:#000000;stroke-width:0.5;" x="97.8440625" xlink:href="#mf0c55a9a47" y="232.164492188"/>
      </g>
     </g>
     <g id="line2d_87">
      <g>
       <use style="stroke:#000000;stroke-width:0.5;" x="409.365" xlink:href="#ma4f294b3af" y="232.164492188"/>
      </g>
     </g>
    </g>
    <g id="ytick_15">
     <g id="line2d_88">
      <g>
       <use style="stroke:#000000;stroke-width:0.5;" x="97.8440625" xlink:href="#mf0c55a9a47" y="218.480859375"/>
      </g>
     </g>
     <g id="line2d_89">
      <g>
       <use style="stroke:#000000;stroke-width:0.5;" x="409.365" xlink:href="#ma4f294b3af" y="218.480859375"/>
      </g>
     </g>
    </g>
    <g id="ytick_16">
     <g id="line2d_90">
      <g>
       <use style="stroke:#000000;stroke-width:0.5;" x="97.8440625" xlink:href="#mf0c55a9a47" y="204.797226563"/>
      </g>
     </g>
     <g id="line2d_91">
      <g>
       <use style="stroke:#000000;stroke-width:0.5;" x="409.365" xlink:href="#ma4f294b3af" y="204.797226563"/>
      </g>
     </g>
    </g>
    <g id="ytick_17">
     <g id="line2d_92">
      <g>
       <use style="stroke:#000000;stroke-width:0.5;" x="97.8440625" xlink:href="#mf0c55a9a47" y="177.429960937"/>
      </g>
     </g>
     <g id="line2d_93">
      <g>
       <use style="stroke:#000000;stroke-width:0.5;" x="409.365" xlink:href="#ma4f294b3af" y="177.429960937"/>
      </g>
     </g>
    </g>
    <g id="ytick_18">
     <g id="line2d_94">
      <g>
       <use style="stroke:#000000;stroke-width:0.5;" x="97.8440625" xlink:href="#mf0c55a9a47" y="163.746328125"/>
      </g>
     </g>
     <g id="line2d_95">
      <g>
       <use style="stroke:#000000;stroke-width:0.5;" x="409.365" xlink:href="#ma4f294b3af" y="163.746328125"/>
      </g>
     </g>
    </g>
    <g id="ytick_19">
     <g id="line2d_96">
      <g>
       <use style="stroke:#000000;stroke-width:0.5;" x="97.8440625" xlink:href="#mf0c55a9a47" y="150.062695313"/>
      </g>
     </g>
     <g id="line2d_97">
      <g>
       <use style="stroke:#000000;stroke-width:0.5;" x="409.365" xlink:href="#ma4f294b3af" y="150.062695313"/>
      </g>
     </g>
    </g>
    <g id="ytick_20">
     <g id="line2d_98">
      <g>
       <use style="stroke:#000000;stroke-width:0.5;" x="97.8440625" xlink:href="#mf0c55a9a47" y="122.695429687"/>
      </g>
     </g>
     <g id="line2d_99">
      <g>
       <use style="stroke:#000000;stroke-width:0.5;" x="409.365" xlink:href="#ma4f294b3af" y="122.695429687"/>
      </g>
     </g>
    </g>
    <g id="ytick_21">
     <g id="line2d_100">
      <g>
       <use style="stroke:#000000;stroke-width:0.5;" x="97.8440625" xlink:href="#mf0c55a9a47" y="109.011796875"/>
      </g>
     </g>
     <g id="line2d_101">
      <g>
       <use style="stroke:#000000;stroke-width:0.5;" x="409.365" xlink:href="#ma4f294b3af" y="109.011796875"/>
      </g>
     </g>
    </g>
    <g id="ytick_22">
     <g id="line2d_102">
      <g>
       <use style="stroke:#000000;stroke-width:0.5;" x="97.8440625" xlink:href="#mf0c55a9a47" y="95.3281640625"/>
      </g>
     </g>
     <g id="line2d_103">
      <g>
       <use style="stroke:#000000;stroke-width:0.5;" x="409.365" xlink:href="#ma4f294b3af" y="95.3281640625"/>
      </g>
     </g>
    </g>
    <g id="ytick_23">
     <g id="line2d_104">
      <g>
       <use style="stroke:#000000;stroke-width:0.5;" x="97.8440625" xlink:href="#mf0c55a9a47" y="81.64453125"/>
      </g>
     </g>
     <g id="line2d_105">
      <g>
       <use style="stroke:#000000;stroke-width:0.5;" x="409.365" xlink:href="#ma4f294b3af" y="81.64453125"/>
      </g>
     </g>
    </g>
    <g id="ytick_24">
     <g id="line2d_106">
      <g>
       <use style="stroke:#000000;stroke-width:0.5;" x="97.8440625" xlink:href="#mf0c55a9a47" y="67.9608984375"/>
      </g>
     </g>
     <g id="line2d_107">
      <g>
       <use style="stroke:#000000;stroke-width:0.5;" x="409.365" xlink:href="#ma4f294b3af" y="67.9608984375"/>
      </g>
     </g>
    </g>
    <g id="ytick_25">
     <g id="line2d_108">
      <g>
       <use style="stroke:#000000;stroke-width:0.5;" x="97.8440625" xlink:href="#mf0c55a9a47" y="54.277265625"/>
      </g>
     </g>
     <g id="line2d_109">
      <g>
       <use style="stroke:#000000;stroke-width:0.5;" x="409.365" xlink:href="#ma4f294b3af" y="54.277265625"/>
      </g>
     </g>
    </g>
    <g id="ytick_26">
     <g id="line2d_110">
      <g>
       <use style="stroke:#000000;stroke-width:0.5;" x="97.8440625" xlink:href="#mf0c55a9a47" y="40.5936328125"/>
      </g>
     </g>
     <g id="line2d_111">
      <g>
       <use style="stroke:#000000;stroke-width:0.5;" x="409.365" xlink:href="#ma4f294b3af" y="40.5936328125"/>
      </g>
     </g>
    </g>
    <g id="text_16">
     <!-- $\mathcal{C}_{P}$ -->
     <defs>
      <path d="
M4.89062 0
Q3.90625 0 3.90625 1.3125
Q3.95312 1.5625 4.09375 2.17188
Q4.25 2.78125 4.51562 3.14062
Q4.78125 3.51562 5.17188 3.51562
Q11.2812 3.51562 13.7188 4.20312
Q14.9844 4.64062 15.5781 6.89062
L29.2969 61.8125
Q29.5 62.7969 29.5 63.1875
Q29.5 64.2656 28.3281 64.4062
Q26.4219 64.7969 21.0938 64.7969
Q20.125 64.7969 20.125 66.1094
Q20.1719 66.3594 20.3125 66.9688
Q20.4531 67.5781 20.7188 67.9375
Q21 68.3125 21.3906 68.3125
L55.9062 68.3125
Q60.6406 68.3125 65.0781 66.625
Q69.5312 64.9375 72.3594 61.4688
Q75.2031 58.0156 75.2031 53.0781
Q75.2031 46.7344 70.7344 41.75
Q66.2656 36.7656 59.5938 33.9844
Q52.9375 31.2031 46.6875 31.2031
L30.4219 31.2031
L24.3125 6.5
Q24.125 5.51562 24.125 5.07812
Q24.125 4.6875 24.2344 4.42188
Q24.3594 4.15625 24.5781 4.07812
Q24.8125 4 25.2969 3.90625
Q27.2031 3.51562 32.5156 3.51562
Q33.5 3.51562 33.5 2.20312
Q33.1562 0.78125 32.9531 0.390625
Q32.7656 0 31.7812 0
z

M30.9062 34.1875
L44.9219 34.1875
Q54.6406 34.1875 59.7188 39.4062
Q62.3125 42 63.9375 46.875
Q65.5781 51.7656 65.5781 55.7188
Q65.5781 60.6406 61.8125 62.7188
Q58.0625 64.7969 52.4844 64.7969
L42.9219 64.7969
Q40.1875 64.7969 39.2969 64.3281
Q38.4219 63.875 37.7031 61.375
z
" id="Cmmi10-50"/>
     </defs>
     <g transform="translate(42.5178125 205.81359375)rotate(-90.0)scale(0.3 -0.3)">
      <use transform="translate(0.0 0.484375)" xlink:href="#Cmsy10-43"/>
      <use transform="translate(52.587890625 -25.025)scale(0.7)" xlink:href="#Cmmi10-50"/>
     </g>
    </g>
   </g>
   <g id="patch_3">
    <path d="
M97.8441 26.91
L409.365 26.91" style="fill:none;stroke:#000000;"/>
   </g>
   <g id="patch_4">
    <path d="
M409.365 355.317
L409.365 26.91" style="fill:none;stroke:#000000;"/>
   </g>
   <g id="patch_5">
    <path d="
M97.8441 355.317
L409.365 355.317" style="fill:none;stroke:#000000;"/>
   </g>
   <g id="patch_6">
    <path d="
M97.8441 355.317
L97.8441 26.91" style="fill:none;stroke:#000000;"/>
   </g>
  </g>
 </g>
 <defs>
  <clipPath id="p36353a81f3">
   <rect height="328.4071875" width="311.5209375" x="97.8440625" y="26.91"/>
  </clipPath>
 </defs>
</svg>
