<?xml version="1.0" encoding="utf-8" standalone="no"?>
<!DOCTYPE svg PUBLIC "-//W3C//DTD SVG 1.1//EN"
  "http://www.w3.org/Graphics/SVG/1.1/DTD/svg11.dtd">
<!-- Created with matplotlib (http://matplotlib.org/) -->
<svg height="432pt" version="1.1" viewBox="0 0 432 432" width="432pt" xmlns="http://www.w3.org/2000/svg" xmlns:xlink="http://www.w3.org/1999/xlink">
 <defs>
  <style type="text/css">
*{stroke-linecap:butt;stroke-linejoin:round;}
  </style>
 </defs>
 <g id="figure_1">
  <g id="patch_1">
   <path d="
M0 432
L432 432
L432 0
L0 0
z
" style="fill:#ffffff;"/>
  </g>
  <g id="axes_1">
   <g id="patch_2">
    <path d="
M102.251 355.317
L409.365 355.317
L409.365 26.91
L102.251 26.91
z
" style="fill:#ffffff;"/>
   </g>
   <g id="PathCollection_1">
    <defs>
     <path d="
M102.251 -76.6828
L105.353 -76.6828
L108.456 -76.6828
L111.558 -76.6828
L114.66 -76.6828
L117.762 -76.6828
L120.864 -76.6828
L123.966 -76.6828
L127.069 -76.6828
L130.171 -76.6828
L133.273 -76.6828
L136.375 -76.6828
L139.477 -76.6828
L142.579 -76.6828
L145.681 -76.6828
L148.784 -76.6828
L151.886 -76.6828
L154.988 -76.6828
L158.09 -76.6828
L161.192 -76.6828
L164.294 -76.6828
L167.397 -76.6828
L170.499 -76.6828
L173.601 -76.6828
L176.703 -76.6828
L179.805 -76.6828
L182.907 -76.6828
L186.01 -76.6828
L189.112 -76.6828
L192.214 -76.6828
L195.316 -76.6828
L198.418 -76.6828
L201.52 -76.6828
L204.623 -76.6828
L207.725 -76.6828
L210.827 -76.6828
L213.929 -76.6828
L217.031 -76.6828
L220.133 -76.6828
L223.235 -76.6828
L226.338 -76.6828
L229.44 -76.6828
L232.542 -76.6828
L235.644 -76.6828
L238.746 -76.6828
L241.848 -76.6828
L244.951 -76.6828
L248.053 -76.6828
L251.155 -76.6828
L254.257 -76.6828
L257.359 -76.6828
L260.461 -76.6828
L263.564 -76.6828
L266.666 -76.6828
L269.768 -76.6828
L272.87 -76.6828
L275.972 -76.6828
L279.074 -76.6828
L282.176 -76.6828
L285.279 -76.6828
L288.381 -76.6828
L291.483 -76.6828
L294.585 -76.6828
L297.687 -76.6828
L300.789 -76.6828
L303.892 -76.6828
L306.994 -76.6828
L310.096 -76.6828
L313.198 -76.6828
L316.3 -76.6828
L319.402 -76.6828
L322.505 -76.6828
L325.607 -76.6828
L328.709 -76.6828
L331.811 -76.6828
L334.913 -76.6828
L338.015 -76.6828
L341.118 -76.6828
L344.22 -76.6828
L347.322 -76.6828
L350.424 -76.6828
L353.526 -76.6828
L356.628 -76.6828
L359.73 -76.6828
L362.833 -76.6828
L365.935 -76.6828
L369.037 -76.6828
L372.139 -76.6828
L375.241 -76.6828
L378.343 -76.6828
L381.446 -76.6828
L384.548 -76.6828
L387.65 -76.6828
L390.752 -76.6828
L393.854 -76.6828
L396.956 -76.6828
L400.059 -76.6828
L403.161 -76.6828
L406.263 -76.6828
L409.365 -76.6828
L409.365 -80.0001
L409.365 -83.3173
L409.365 -86.6345
L409.365 -89.9518
L409.365 -93.269
L409.365 -96.5863
L409.365 -99.9035
L409.365 -103.221
L409.365 -106.538
L409.365 -109.855
L409.365 -113.172
L409.365 -116.49
L409.365 -119.807
L409.365 -123.124
L409.365 -126.441
L409.365 -129.759
L409.365 -133.076
L409.365 -136.393
L409.365 -139.71
L409.365 -143.028
L409.365 -146.345
L409.365 -149.662
L409.365 -152.979
L409.365 -156.297
L409.365 -159.614
L409.365 -162.931
L409.365 -166.248
L409.365 -169.566
L409.365 -172.883
L409.365 -176.2
L409.365 -179.517
L409.365 -182.835
L409.365 -186.152
L409.365 -189.469
L409.365 -192.786
L409.365 -196.104
L409.365 -199.421
L409.365 -202.738
L409.365 -206.055
L409.365 -209.373
L409.365 -212.69
L409.365 -216.007
L409.365 -219.324
L409.365 -222.642
L409.365 -225.959
L409.365 -229.276
L409.365 -232.593
L409.365 -235.911
L409.365 -239.228
L409.365 -242.545
L409.365 -245.862
L409.365 -249.18
L409.365 -252.497
L409.365 -255.814
L409.365 -259.131
L409.365 -262.448
L409.365 -265.766
L409.365 -269.083
L409.365 -272.4
L409.365 -275.717
L409.365 -279.035
L409.365 -282.352
L409.365 -285.669
L409.365 -288.986
L409.365 -292.304
L409.365 -295.621
L409.365 -298.938
L409.365 -302.255
L409.365 -305.573
L409.365 -308.89
L409.365 -312.207
L409.365 -315.524
L409.365 -318.842
L409.365 -322.159
L409.365 -325.476
L409.365 -328.793
L409.365 -332.111
L409.365 -335.428
L409.365 -338.745
L409.365 -342.062
L409.365 -345.38
L409.365 -348.697
L409.365 -352.014
L409.365 -355.331
L409.365 -358.649
L409.365 -361.966
L409.365 -365.283
L409.365 -368.6
L409.365 -371.918
L409.365 -375.235
L409.365 -378.552
L409.365 -381.869
L409.365 -385.187
L409.365 -388.504
L409.365 -391.821
L409.365 -395.138
L409.365 -398.456
L409.365 -401.773
L409.365 -405.09
L406.263 -405.09
L403.161 -405.09
L400.059 -405.09
L396.956 -405.09
L393.854 -405.09
L390.752 -405.09
L387.65 -405.09
L384.548 -405.09
L381.446 -405.09
L378.343 -405.09
L375.241 -405.09
L372.139 -405.09
L369.037 -405.09
L365.935 -405.09
L362.833 -405.09
L359.73 -405.09
L356.628 -405.09
L353.526 -405.09
L350.424 -405.09
L347.322 -405.09
L344.22 -405.09
L341.118 -405.09
L338.015 -405.09
L334.913 -405.09
L331.811 -405.09
L328.709 -405.09
L325.607 -405.09
L322.505 -405.09
L319.402 -405.09
L316.3 -405.09
L313.198 -405.09
L310.096 -405.09
L306.994 -405.09
L303.892 -405.09
L300.789 -405.09
L297.687 -405.09
L294.585 -405.09
L291.483 -405.09
L288.381 -405.09
L285.279 -405.09
L282.176 -405.09
L279.074 -405.09
L275.972 -405.09
L272.87 -405.09
L269.768 -405.09
L266.666 -405.09
L263.564 -405.09
L260.461 -405.09
L257.359 -405.09
L254.257 -405.09
L251.155 -405.09
L248.053 -405.09
L244.951 -405.09
L241.848 -405.09
L238.746 -405.09
L235.644 -405.09
L232.542 -405.09
L229.44 -405.09
L226.338 -405.09
L223.235 -405.09
L220.133 -405.09
L217.031 -405.09
L213.929 -405.09
L210.827 -405.09
L207.725 -405.09
L204.623 -405.09
L201.52 -405.09
L198.418 -405.09
L195.316 -405.09
L192.214 -405.09
L189.112 -405.09
L186.01 -405.09
L182.907 -405.09
L179.805 -405.09
L176.703 -405.09
L173.601 -405.09
L170.499 -405.09
L167.397 -405.09
L164.294 -405.09
L161.192 -405.09
L158.09 -405.09
L154.988 -405.09
L151.886 -405.09
L148.784 -405.09
L145.681 -405.09
L142.579 -405.09
L139.477 -405.09
L136.375 -405.09
L133.273 -405.09
L130.171 -405.09
L127.069 -405.09
L123.966 -405.09
L120.864 -405.09
L117.762 -405.09
L114.66 -405.09
L111.558 -405.09
L108.456 -405.09
L105.353 -405.09
L102.251 -405.09
L102.251 -401.773
L102.251 -398.456
L102.251 -395.138
L102.251 -391.821
L102.251 -388.504
L102.251 -385.187
L102.251 -381.869
L102.251 -378.552
L102.251 -375.235
L102.251 -371.918
L102.251 -368.6
L102.251 -365.283
L102.251 -361.966
L102.251 -358.649
L102.251 -355.331
L102.251 -352.014
L102.251 -348.697
L102.251 -345.38
L102.251 -342.062
L102.251 -338.745
L102.251 -335.428
L102.251 -332.111
L102.251 -328.793
L102.251 -325.476
L102.251 -322.159
L102.251 -318.842
L102.251 -315.524
L102.251 -312.207
L102.251 -308.89
L102.251 -305.573
L102.251 -302.255
L102.251 -298.938
L102.251 -295.621
L102.251 -292.304
L102.251 -288.986
L102.251 -285.669
L102.251 -282.352
L102.251 -279.035
L102.251 -275.717
L102.251 -272.4
L102.251 -269.083
L102.251 -265.766
L102.251 -262.448
L102.251 -259.131
L102.251 -255.814
L102.251 -252.497
L102.251 -249.18
L102.251 -245.862
L102.251 -242.545
L102.251 -239.228
L102.251 -235.911
L102.251 -232.593
L102.251 -229.276
L102.251 -225.959
L102.251 -222.642
L102.251 -219.324
L102.251 -216.007
L102.251 -212.69
L102.251 -209.373
L102.251 -206.055
L102.251 -202.738
L102.251 -199.421
L102.251 -196.104
L102.251 -192.786
L102.251 -189.469
L102.251 -186.152
L102.251 -182.835
L102.251 -179.517
L102.251 -176.2
L102.251 -172.883
L102.251 -169.566
L102.251 -166.248
L102.251 -162.931
L102.251 -159.614
L102.251 -156.297
L102.251 -152.979
L102.251 -149.662
L102.251 -146.345
L102.251 -143.028
L102.251 -139.71
L102.251 -136.393
L102.251 -133.076
L102.251 -129.759
L102.251 -126.441
L102.251 -123.124
L102.251 -119.807
L102.251 -116.49
L102.251 -113.172
L102.251 -109.855
L102.251 -106.538
L102.251 -103.221
L102.251 -99.9035
L102.251 -96.5863
L102.251 -93.269
L102.251 -89.9518
L102.251 -86.6345
L102.251 -83.3173
L102.251 -80.0001
L102.251 -76.6828
M244.951 -115.97
L243.416 -116.49
L241.848 -117.141
L238.746 -119.075
L237.914 -119.807
L235.644 -122.38
L235.206 -123.124
L232.761 -126.441
L232.542 -126.664
L229.966 -129.759
L229.44 -130.266
L226.936 -133.076
L226.338 -133.67
L223.904 -136.393
L223.235 -137.141
L221.04 -139.71
L220.133 -140.893
L218.47 -143.028
L217.031 -145.344
L216.387 -146.345
L214.854 -149.662
L213.929 -152.643
L213.814 -152.979
L212.795 -156.297
L211.639 -159.614
L210.827 -161.371
L209.748 -162.931
L207.725 -165.064
L204.623 -166.238
L201.52 -165.787
L198.418 -164.208
L196.687 -162.931
L195.316 -161.895
L192.626 -159.614
L192.214 -159.266
L189.112 -156.72
L188.51 -156.297
L186.01 -154.571
L182.909 -152.979
L182.907 -152.979
L179.805 -151.817
L176.703 -151.083
L173.601 -150.709
L170.499 -150.71
L167.397 -151.153
L164.294 -152.134
L162.594 -152.979
L161.192 -153.634
L158.09 -155.609
L157.208 -156.297
L154.988 -157.986
L153.151 -159.614
L151.886 -160.779
L149.744 -162.931
L148.784 -164.003
L146.821 -166.248
L145.681 -167.767
L144.312 -169.566
L142.579 -172.308
L142.207 -172.883
L140.354 -176.2
L139.477 -177.98
L138.7 -179.517
L137.148 -182.835
L136.375 -184.522
L135.595 -186.152
L134.032 -189.469
L133.273 -191.276
L132.608 -192.786
L131.461 -196.104
L130.732 -199.421
L130.348 -202.738
L130.171 -205.809
L130.156 -206.055
L129.996 -209.373
L129.805 -212.69
L129.622 -216.007
L129.558 -219.324
L129.666 -222.642
L129.967 -225.959
L130.171 -227.586
L130.346 -229.276
L130.656 -232.593
L130.789 -235.911
L130.689 -239.228
L130.363 -242.545
L130.171 -243.911
L129.84 -245.862
L129.251 -249.18
L128.732 -252.497
L128.306 -255.814
L127.994 -259.131
L127.823 -262.448
L127.844 -265.766
L128.101 -269.083
L128.598 -272.4
L129.298 -275.717
L130.148 -279.035
L130.171 -279.118
L130.899 -282.352
L131.705 -285.669
L132.547 -288.986
L133.273 -291.745
L133.399 -292.304
L134.136 -295.621
L134.909 -298.938
L135.749 -302.255
L136.375 -304.45
L136.664 -305.573
L137.643 -308.89
L138.888 -312.207
L139.477 -313.535
L140.358 -315.524
L142.125 -318.842
L142.579 -319.625
L144.09 -322.159
L145.681 -324.658
L146.201 -325.476
L148.32 -328.793
L148.784 -329.491
L150.52 -332.111
L151.886 -333.953
L153.051 -335.428
L154.988 -337.636
L156.104 -338.745
L158.09 -340.615
L159.951 -342.062
L161.192 -343.041
L164.294 -345.032
L164.97 -345.38
L167.397 -346.711
L170.499 -348.017
L172.61 -348.697
L173.601 -349.045
L176.703 -349.888
L179.805 -350.581
L182.907 -351.274
L186.01 -352.004
L186.047 -352.014
L189.112 -352.938
L192.214 -353.875
L195.316 -354.76
L197.652 -355.331
L198.418 -355.547
L201.52 -356.289
L204.623 -356.908
L207.725 -357.488
L210.827 -358.182
L212.346 -358.649
L213.929 -359.211
L217.031 -360.748
L219.011 -361.966
L220.133 -362.682
L223.235 -365.063
L223.48 -365.283
L226.338 -367.861
L227.103 -368.6
L229.44 -370.748
L230.74 -371.918
L232.542 -373.441
L234.983 -375.235
L235.644 -375.713
L238.746 -377.601
L240.82 -378.552
L241.848 -379.07
L244.951 -380.19
L248.053 -380.876
L251.155 -381.16
L254.257 -381.056
L257.359 -380.584
L260.461 -379.761
L263.564 -378.596
L263.662 -378.552
L266.666 -377.133
L269.768 -375.281
L269.837 -375.235
L272.87 -373.139
L274.418 -371.918
L275.972 -370.7
L278.387 -368.6
L279.074 -368.012
L281.931 -365.283
L282.176 -365.041
L284.94 -361.966
L285.279 -361.541
L287.368 -358.649
L288.381 -356.883
L289.248 -355.331
L290.683 -352.014
L291.483 -349.379
L291.714 -348.697
L292.604 -345.38
L293.278 -342.062
L293.915 -338.745
L294.585 -335.902
L294.726 -335.428
L296.076 -332.111
L297.687 -329.005
L297.82 -328.793
L300.258 -325.476
L300.789 -324.794
L303.245 -322.159
L303.892 -321.497
L306.994 -319.099
L307.573 -318.842
L310.096 -317.953
L313.198 -317.705
L316.3 -318.103
L318.728 -318.842
L319.402 -319.082
L322.505 -320.659
L324.963 -322.159
L325.607 -322.559
L328.709 -324.652
L329.978 -325.476
L331.811 -326.575
L334.913 -328.064
L337.19 -328.793
L338.015 -329.064
L341.118 -329.524
L344.22 -329.335
L346.11 -328.793
L347.322 -328.436
L350.424 -326.851
L352.448 -325.476
L353.526 -324.703
L356.628 -322.456
L357.098 -322.159
L359.73 -320.453
L362.4 -318.842
L362.833 -318.549
L365.935 -316.361
L366.905 -315.524
L369.037 -312.987
L369.548 -312.207
L371.197 -308.89
L372.139 -306.435
L372.445 -305.573
L373.71 -302.255
L375.134 -298.938
L375.241 -298.744
L377.069 -295.621
L378.343 -293.837
L379.448 -292.304
L381.446 -289.694
L381.945 -288.986
L383.96 -285.669
L384.548 -284.202
L385.23 -282.352
L385.764 -279.035
L385.712 -275.717
L385.243 -272.4
L384.548 -269.083
L384.548 -269.083
L383.894 -265.766
L383.329 -262.448
L382.878 -259.131
L382.597 -255.814
L382.531 -252.497
L382.701 -249.18
L383.07 -245.862
L383.55 -242.545
L384.034 -239.228
L384.442 -235.911
L384.548 -234.793
L384.792 -232.593
L384.987 -229.276
L384.982 -225.959
L384.765 -222.642
L384.548 -221.002
L384.349 -219.324
L383.797 -216.007
L383.088 -212.69
L382.27 -209.373
L381.446 -206.341
L381.379 -206.055
L380.595 -202.738
L379.77 -199.421
L378.943 -196.104
L378.343 -193.489
L378.205 -192.786
L377.648 -189.469
L377.176 -186.152
L376.687 -182.835
L376.077 -179.517
L375.241 -176.313
L375.214 -176.2
L374.192 -172.883
L372.808 -169.566
L372.139 -168.141
L371.227 -166.248
L369.626 -162.931
L369.037 -161.508
L368.201 -159.614
L367.072 -156.297
L366.142 -152.979
L365.935 -152.317
L364.763 -149.662
L362.833 -147.507
L361.421 -146.345
L359.73 -145.452
L356.628 -143.542
L355.995 -143.028
L353.526 -141.252
L351.784 -139.71
L350.424 -138.584
L347.872 -136.393
L347.322 -135.953
L344.22 -133.787
L342.841 -133.076
L341.118 -132.207
L338.015 -131.092
L334.913 -130.28
L332.551 -129.759
L331.811 -129.572
L328.709 -128.81
L325.607 -127.99
L322.505 -127.042
L320.791 -126.441
L319.402 -125.929
L316.3 -124.723
L313.198 -123.609
L311.35 -123.124
L310.096 -122.809
L306.994 -122.486
L303.892 -122.676
L301.546 -123.124
L300.789 -123.265
L297.687 -123.919
L294.585 -124.365
L291.483 -124.492
L288.381 -124.314
L285.279 -123.848
L282.213 -123.124
L282.176 -123.114
L279.074 -121.995
L275.972 -120.798
L273.157 -119.807
L272.87 -119.693
L269.768 -118.66
L266.666 -117.83
L263.564 -117.102
L260.759 -116.49
L260.461 -116.412
L257.359 -115.705
L254.257 -115.192
L251.155 -115.01
L248.053 -115.254
L244.951 -115.97" id="C0_0_4fc63fe05f"/>
    </defs>
    <g clip-path="url(#pa3d1d417d9)">
     <use style="fill:#ffffff;" x="0.0" xlink:href="#C0_0_4fc63fe05f" y="432.0"/>
    </g>
   </g>
   <g id="PathCollection_2">
    <defs>
     <path d="
M244.951 -115.97
L248.053 -115.254
L251.155 -115.01
L254.257 -115.192
L257.359 -115.705
L260.461 -116.412
L260.759 -116.49
L263.564 -117.102
L266.666 -117.83
L269.768 -118.66
L272.87 -119.693
L273.157 -119.807
L275.972 -120.798
L279.074 -121.995
L282.176 -123.114
L282.213 -123.124
L285.279 -123.848
L288.381 -124.314
L291.483 -124.492
L294.585 -124.365
L297.687 -123.919
L300.789 -123.265
L301.546 -123.124
L303.892 -122.676
L306.994 -122.486
L310.096 -122.809
L311.35 -123.124
L313.198 -123.609
L316.3 -124.723
L319.402 -125.929
L320.791 -126.441
L322.505 -127.042
L325.607 -127.99
L328.709 -128.81
L331.811 -129.572
L332.551 -129.759
L334.913 -130.28
L338.015 -131.092
L341.118 -132.207
L342.841 -133.076
L344.22 -133.787
L347.322 -135.953
L347.872 -136.393
L350.424 -138.584
L351.784 -139.71
L353.526 -141.252
L355.995 -143.028
L356.628 -143.542
L359.73 -145.452
L361.421 -146.345
L362.833 -147.507
L364.763 -149.662
L365.935 -152.317
L366.142 -152.979
L367.072 -156.297
L368.201 -159.614
L369.037 -161.508
L369.626 -162.931
L371.227 -166.248
L372.139 -168.141
L372.808 -169.566
L374.192 -172.883
L375.214 -176.2
L375.241 -176.313
L376.077 -179.517
L376.687 -182.835
L377.176 -186.152
L377.648 -189.469
L378.205 -192.786
L378.343 -193.489
L378.943 -196.104
L379.77 -199.421
L380.595 -202.738
L381.379 -206.055
L381.446 -206.341
L382.27 -209.373
L383.088 -212.69
L383.797 -216.007
L384.349 -219.324
L384.548 -221.002
L384.765 -222.642
L384.982 -225.959
L384.987 -229.276
L384.792 -232.593
L384.548 -234.793
L384.442 -235.911
L384.034 -239.228
L383.55 -242.545
L383.07 -245.862
L382.701 -249.18
L382.531 -252.497
L382.597 -255.814
L382.878 -259.131
L383.329 -262.448
L383.894 -265.766
L384.548 -269.083
L384.548 -269.083
L385.243 -272.4
L385.712 -275.717
L385.764 -279.035
L385.23 -282.352
L384.548 -284.202
L383.96 -285.669
L381.945 -288.986
L381.446 -289.694
L379.448 -292.304
L378.343 -293.837
L377.069 -295.621
L375.241 -298.744
L375.134 -298.938
L373.71 -302.255
L372.445 -305.573
L372.139 -306.435
L371.197 -308.89
L369.548 -312.207
L369.037 -312.987
L366.905 -315.524
L365.935 -316.361
L362.833 -318.549
L362.4 -318.842
L359.73 -320.453
L357.098 -322.159
L356.628 -322.456
L353.526 -324.703
L352.448 -325.476
L350.424 -326.851
L347.322 -328.436
L346.11 -328.793
L344.22 -329.335
L341.118 -329.524
L338.015 -329.064
L337.19 -328.793
L334.913 -328.064
L331.811 -326.575
L329.978 -325.476
L328.709 -324.652
L325.607 -322.559
L324.963 -322.159
L322.505 -320.659
L319.402 -319.082
L318.728 -318.842
L316.3 -318.103
L313.198 -317.705
L310.096 -317.953
L307.573 -318.842
L306.994 -319.099
L303.892 -321.497
L303.245 -322.159
L300.789 -324.794
L300.258 -325.476
L297.82 -328.793
L297.687 -329.005
L296.076 -332.111
L294.726 -335.428
L294.585 -335.902
L293.915 -338.745
L293.278 -342.062
L292.604 -345.38
L291.714 -348.697
L291.483 -349.379
L290.683 -352.014
L289.248 -355.331
L288.381 -356.883
L287.368 -358.649
L285.279 -361.541
L284.94 -361.966
L282.176 -365.041
L281.931 -365.283
L279.074 -368.012
L278.387 -368.6
L275.972 -370.7
L274.418 -371.918
L272.87 -373.139
L269.837 -375.235
L269.768 -375.281
L266.666 -377.133
L263.662 -378.552
L263.564 -378.596
L260.461 -379.761
L257.359 -380.584
L254.257 -381.056
L251.155 -381.16
L248.053 -380.876
L244.951 -380.19
L241.848 -379.07
L240.82 -378.552
L238.746 -377.601
L235.644 -375.713
L234.983 -375.235
L232.542 -373.441
L230.74 -371.918
L229.44 -370.748
L227.103 -368.6
L226.338 -367.861
L223.48 -365.283
L223.235 -365.063
L220.133 -362.682
L219.011 -361.966
L217.031 -360.748
L213.929 -359.211
L212.346 -358.649
L210.827 -358.182
L207.725 -357.488
L204.623 -356.908
L201.52 -356.289
L198.418 -355.547
L197.652 -355.331
L195.316 -354.76
L192.214 -353.875
L189.112 -352.938
L186.047 -352.014
L186.01 -352.004
L182.907 -351.274
L179.805 -350.581
L176.703 -349.888
L173.601 -349.045
L172.61 -348.697
L170.499 -348.017
L167.397 -346.711
L164.97 -345.38
L164.294 -345.032
L161.192 -343.041
L159.951 -342.062
L158.09 -340.615
L156.104 -338.745
L154.988 -337.636
L153.051 -335.428
L151.886 -333.953
L150.52 -332.111
L148.784 -329.491
L148.32 -328.793
L146.201 -325.476
L145.681 -324.658
L144.09 -322.159
L142.579 -319.625
L142.125 -318.842
L140.358 -315.524
L139.477 -313.535
L138.888 -312.207
L137.643 -308.89
L136.664 -305.573
L136.375 -304.45
L135.749 -302.255
L134.909 -298.938
L134.136 -295.621
L133.399 -292.304
L133.273 -291.745
L132.547 -288.986
L131.705 -285.669
L130.899 -282.352
L130.171 -279.118
L130.148 -279.035
L129.298 -275.717
L128.598 -272.4
L128.101 -269.083
L127.844 -265.766
L127.823 -262.448
L127.994 -259.131
L128.306 -255.814
L128.732 -252.497
L129.251 -249.18
L129.84 -245.862
L130.171 -243.911
L130.363 -242.545
L130.689 -239.228
L130.789 -235.911
L130.656 -232.593
L130.346 -229.276
L130.171 -227.586
L129.967 -225.959
L129.666 -222.642
L129.558 -219.324
L129.622 -216.007
L129.805 -212.69
L129.996 -209.373
L130.156 -206.055
L130.171 -205.809
L130.348 -202.738
L130.732 -199.421
L131.461 -196.104
L132.608 -192.786
L133.273 -191.276
L134.032 -189.469
L135.595 -186.152
L136.375 -184.522
L137.148 -182.835
L138.7 -179.517
L139.477 -177.98
L140.354 -176.2
L142.207 -172.883
L142.579 -172.308
L144.312 -169.566
L145.681 -167.767
L146.821 -166.248
L148.784 -164.003
L149.744 -162.931
L151.886 -160.779
L153.151 -159.614
L154.988 -157.986
L157.208 -156.297
L158.09 -155.609
L161.192 -153.634
L162.594 -152.979
L164.294 -152.134
L167.397 -151.153
L170.499 -150.71
L173.601 -150.709
L176.703 -151.083
L179.805 -151.817
L182.907 -152.979
L182.909 -152.979
L186.01 -154.571
L188.51 -156.297
L189.112 -156.72
L192.214 -159.266
L192.626 -159.614
L195.316 -161.895
L196.687 -162.931
L198.418 -164.208
L201.52 -165.787
L204.623 -166.238
L207.725 -165.064
L209.748 -162.931
L210.827 -161.371
L211.639 -159.614
L212.795 -156.297
L213.814 -152.979
L213.929 -152.643
L214.854 -149.662
L216.387 -146.345
L217.031 -145.344
L218.47 -143.028
L220.133 -140.893
L221.04 -139.71
L223.235 -137.141
L223.904 -136.393
L226.338 -133.67
L226.936 -133.076
L229.44 -130.266
L229.966 -129.759
L232.542 -126.664
L232.761 -126.441
L235.206 -123.124
L235.644 -122.38
L237.914 -119.807
L238.746 -119.075
L241.848 -117.141
L243.416 -116.49
L244.951 -115.97
M260.461 -155.729
L258.197 -156.297
L257.359 -156.498
L254.257 -158.013
L252.247 -159.614
L251.155 -160.553
L249.148 -162.931
L248.053 -164.439
L246.938 -166.248
L245.045 -169.566
L244.951 -169.728
L243.01 -172.883
L241.848 -174.529
L240.533 -176.2
L238.746 -178.216
L237.599 -179.517
L235.644 -181.818
L234.911 -182.835
L232.972 -186.152
L232.542 -187.119
L231.634 -189.469
L230.57 -192.786
L229.495 -196.104
L229.44 -196.244
L227.943 -199.421
L226.338 -201.819
L225.432 -202.738
L223.235 -204.527
L220.133 -206.034
L220.063 -206.055
L217.031 -207.038
L213.929 -207.872
L210.827 -208.689
L208.158 -209.373
L207.725 -209.506
L204.623 -210.195
L201.52 -210.45
L198.418 -210.296
L195.316 -209.814
L193.538 -209.373
L192.214 -209.037
L189.112 -207.973
L186.01 -206.718
L184.349 -206.055
L182.907 -205.436
L179.805 -204.437
L176.703 -203.972
L173.601 -204.138
L170.499 -205.002
L168.53 -206.055
L167.397 -206.656
L164.294 -209.237
L164.174 -209.373
L161.394 -212.69
L161.192 -212.956
L159.303 -216.007
L158.09 -218.364
L157.657 -219.324
L156.477 -222.642
L155.656 -225.959
L155.125 -229.276
L154.988 -230.6
L154.796 -232.593
L154.598 -235.911
L154.474 -239.228
L154.41 -242.545
L154.391 -245.862
L154.406 -249.18
L154.414 -252.497
L154.368 -255.814
L154.27 -259.131
L154.13 -262.448
L154 -265.766
L153.944 -269.083
L154.015 -272.4
L154.216 -275.717
L154.583 -279.035
L154.988 -281.57
L155.111 -282.352
L155.817 -285.669
L156.743 -288.986
L157.905 -292.304
L158.09 -292.747
L159.412 -295.621
L161.192 -298.764
L161.303 -298.938
L163.751 -302.255
L164.294 -302.894
L166.814 -305.573
L167.397 -306.148
L170.481 -308.89
L170.499 -308.905
L173.601 -311.266
L175.122 -312.207
L176.703 -313.188
L179.805 -314.6
L182.907 -315.494
L183.128 -315.524
L186.01 -315.929
L189.112 -316.016
L192.214 -315.899
L195.316 -315.753
L198.418 -315.63
L201.52 -315.549
L203.508 -315.524
L204.623 -315.508
L205.141 -315.524
L207.725 -315.597
L210.827 -316
L213.929 -316.878
L217.031 -318.377
L217.709 -318.842
L220.133 -320.354
L222.483 -322.159
L223.235 -322.707
L226.338 -325.252
L226.601 -325.476
L229.44 -327.942
L230.464 -328.793
L232.542 -330.624
L234.514 -332.111
L235.644 -333.012
L238.746 -334.959
L239.763 -335.428
L241.848 -336.407
L244.951 -337.398
L248.053 -337.952
L251.155 -338.014
L254.257 -337.472
L257.359 -336.184
L258.529 -335.428
L260.461 -334.019
L262.358 -332.111
L263.564 -330.762
L264.963 -328.793
L266.666 -326.245
L267.101 -325.476
L269.05 -322.159
L269.768 -320.942
L270.911 -318.842
L272.707 -315.524
L272.87 -315.214
L274.415 -312.207
L275.972 -308.896
L275.975 -308.89
L277.398 -305.573
L278.649 -302.255
L279.074 -301.01
L279.818 -298.938
L280.9 -295.621
L281.88 -292.304
L282.176 -291.209
L282.854 -288.986
L283.811 -285.669
L284.785 -282.352
L285.279 -280.864
L285.96 -279.035
L287.441 -275.717
L288.381 -273.925
L289.256 -272.4
L291.32 -269.083
L291.483 -268.827
L293.647 -265.766
L294.585 -264.438
L296.415 -262.448
L297.687 -261.153
L300.789 -259.479
L303.892 -259.312
L306.994 -260.41
L310.096 -262.448
L310.096 -262.448
L313.198 -265.129
L313.901 -265.766
L316.3 -267.998
L317.544 -269.083
L319.402 -270.866
L321.191 -272.4
L322.505 -273.801
L324.542 -275.717
L325.607 -277.044
L327.636 -279.035
L328.709 -280.263
L331.811 -282.144
L334.913 -282.253
L338.015 -280.915
L340.566 -279.035
L341.118 -278.664
L344.22 -275.843
L344.329 -275.717
L347.2 -272.4
L347.322 -272.248
L349.26 -269.083
L350.424 -266.787
L350.849 -265.766
L352.055 -262.448
L353.186 -259.131
L353.526 -258.22
L354.326 -255.814
L355.571 -252.497
L356.628 -249.861
L356.883 -249.18
L358.13 -245.862
L359.176 -242.545
L359.73 -239.868
L359.862 -239.228
L360.077 -235.911
L359.815 -232.593
L359.73 -232.143
L359.196 -229.276
L358.44 -225.959
L357.749 -222.642
L357.235 -219.324
L356.896 -216.007
L356.641 -212.69
L356.628 -212.539
L356.366 -209.373
L355.95 -206.055
L355.337 -202.738
L354.548 -199.421
L353.643 -196.104
L353.526 -195.702
L352.654 -192.786
L351.578 -189.469
L350.424 -186.442
L350.308 -186.152
L348.667 -182.835
L347.322 -180.632
L346.583 -179.517
L344.22 -176.443
L344.01 -176.2
L341.118 -173.103
L340.871 -172.883
L338.015 -170.376
L336.823 -169.566
L334.913 -168.283
L331.811 -166.834
L329.779 -166.248
L328.709 -165.936
L325.607 -165.486
L322.505 -165.463
L319.402 -165.906
L318.247 -166.248
L316.3 -166.938
L313.198 -168.583
L311.532 -169.566
L310.096 -170.581
L306.994 -172.308
L304.832 -172.883
L303.892 -173.13
L300.789 -173.042
L300.142 -172.883
L297.687 -172.362
L294.585 -171.395
L291.483 -170.311
L289.664 -169.566
L288.381 -169.092
L285.279 -167.607
L283.109 -166.248
L282.176 -165.682
L279.074 -163.42
L278.439 -162.931
L275.972 -161.084
L273.74 -159.614
L272.87 -159.028
L269.768 -157.386
L266.666 -156.3
L266.647 -156.297
L263.564 -155.683
L260.461 -155.729" id="C1_0_acd8e966c8"/>
    </defs>
    <g clip-path="url(#pa3d1d417d9)">
     <use style="fill:#0000ff;fill-opacity:0.5;" x="0.0" xlink:href="#C1_0_acd8e966c8" y="432.0"/>
    </g>
   </g>
   <g id="PathCollection_3">
    <defs>
     <path d="
M260.461 -155.729
L263.564 -155.683
L266.647 -156.297
L266.666 -156.3
L269.768 -157.386
L272.87 -159.028
L273.74 -159.614
L275.972 -161.084
L278.439 -162.931
L279.074 -163.42
L282.176 -165.682
L283.109 -166.248
L285.279 -167.607
L288.381 -169.092
L289.664 -169.566
L291.483 -170.311
L294.585 -171.395
L297.687 -172.362
L300.142 -172.883
L300.789 -173.042
L303.892 -173.13
L304.832 -172.883
L306.994 -172.308
L310.096 -170.581
L311.532 -169.566
L313.198 -168.583
L316.3 -166.938
L318.247 -166.248
L319.402 -165.906
L322.505 -165.463
L325.607 -165.486
L328.709 -165.936
L329.779 -166.248
L331.811 -166.834
L334.913 -168.283
L336.823 -169.566
L338.015 -170.376
L340.871 -172.883
L341.118 -173.103
L344.01 -176.2
L344.22 -176.443
L346.583 -179.517
L347.322 -180.632
L348.667 -182.835
L350.308 -186.152
L350.424 -186.442
L351.578 -189.469
L352.654 -192.786
L353.526 -195.702
L353.643 -196.104
L354.548 -199.421
L355.337 -202.738
L355.95 -206.055
L356.366 -209.373
L356.628 -212.539
L356.641 -212.69
L356.896 -216.007
L357.235 -219.324
L357.749 -222.642
L358.44 -225.959
L359.196 -229.276
L359.73 -232.143
L359.815 -232.593
L360.077 -235.911
L359.862 -239.228
L359.73 -239.868
L359.176 -242.545
L358.13 -245.862
L356.883 -249.18
L356.628 -249.861
L355.571 -252.497
L354.326 -255.814
L353.526 -258.22
L353.186 -259.131
L352.055 -262.448
L350.849 -265.766
L350.424 -266.787
L349.26 -269.083
L347.322 -272.248
L347.2 -272.4
L344.329 -275.717
L344.22 -275.843
L341.118 -278.664
L340.566 -279.035
L338.015 -280.915
L334.913 -282.253
L331.811 -282.144
L328.709 -280.263
L327.636 -279.035
L325.607 -277.044
L324.542 -275.717
L322.505 -273.801
L321.191 -272.4
L319.402 -270.866
L317.544 -269.083
L316.3 -267.998
L313.901 -265.766
L313.198 -265.129
L310.096 -262.448
L310.096 -262.448
L306.994 -260.41
L303.892 -259.312
L300.789 -259.479
L297.687 -261.153
L296.415 -262.448
L294.585 -264.438
L293.647 -265.766
L291.483 -268.827
L291.32 -269.083
L289.256 -272.4
L288.381 -273.925
L287.441 -275.717
L285.96 -279.035
L285.279 -280.864
L284.785 -282.352
L283.811 -285.669
L282.854 -288.986
L282.176 -291.209
L281.88 -292.304
L280.9 -295.621
L279.818 -298.938
L279.074 -301.01
L278.649 -302.255
L277.398 -305.573
L275.975 -308.89
L275.972 -308.896
L274.415 -312.207
L272.87 -315.214
L272.707 -315.524
L270.911 -318.842
L269.768 -320.942
L269.05 -322.159
L267.101 -325.476
L266.666 -326.245
L264.963 -328.793
L263.564 -330.762
L262.358 -332.111
L260.461 -334.019
L258.529 -335.428
L257.359 -336.184
L254.257 -337.472
L251.155 -338.014
L248.053 -337.952
L244.951 -337.398
L241.848 -336.407
L239.763 -335.428
L238.746 -334.959
L235.644 -333.012
L234.514 -332.111
L232.542 -330.624
L230.464 -328.793
L229.44 -327.942
L226.601 -325.476
L226.338 -325.252
L223.235 -322.707
L222.483 -322.159
L220.133 -320.354
L217.709 -318.842
L217.031 -318.377
L213.929 -316.878
L210.827 -316
L207.725 -315.597
L205.141 -315.524
L204.623 -315.508
L203.508 -315.524
L201.52 -315.549
L198.418 -315.63
L195.316 -315.753
L192.214 -315.899
L189.112 -316.016
L186.01 -315.929
L183.128 -315.524
L182.907 -315.494
L179.805 -314.6
L176.703 -313.188
L175.122 -312.207
L173.601 -311.266
L170.499 -308.905
L170.481 -308.89
L167.397 -306.148
L166.814 -305.573
L164.294 -302.894
L163.751 -302.255
L161.303 -298.938
L161.192 -298.764
L159.412 -295.621
L158.09 -292.747
L157.905 -292.304
L156.743 -288.986
L155.817 -285.669
L155.111 -282.352
L154.988 -281.57
L154.583 -279.035
L154.216 -275.717
L154.015 -272.4
L153.944 -269.083
L154 -265.766
L154.13 -262.448
L154.27 -259.131
L154.368 -255.814
L154.414 -252.497
L154.406 -249.18
L154.391 -245.862
L154.41 -242.545
L154.474 -239.228
L154.598 -235.911
L154.796 -232.593
L154.988 -230.6
L155.125 -229.276
L155.656 -225.959
L156.477 -222.642
L157.657 -219.324
L158.09 -218.364
L159.303 -216.007
L161.192 -212.956
L161.394 -212.69
L164.174 -209.373
L164.294 -209.237
L167.397 -206.656
L168.53 -206.055
L170.499 -205.002
L173.601 -204.138
L176.703 -203.972
L179.805 -204.437
L182.907 -205.436
L184.349 -206.055
L186.01 -206.718
L189.112 -207.973
L192.214 -209.037
L193.538 -209.373
L195.316 -209.814
L198.418 -210.296
L201.52 -210.45
L204.623 -210.195
L207.725 -209.506
L208.158 -209.373
L210.827 -208.689
L213.929 -207.872
L217.031 -207.038
L220.063 -206.055
L220.133 -206.034
L223.235 -204.527
L225.432 -202.738
L226.338 -201.819
L227.943 -199.421
L229.44 -196.244
L229.495 -196.104
L230.57 -192.786
L231.634 -189.469
L232.542 -187.119
L232.972 -186.152
L234.911 -182.835
L235.644 -181.818
L237.599 -179.517
L238.746 -178.216
L240.533 -176.2
L241.848 -174.529
L243.01 -172.883
L244.951 -169.728
L245.045 -169.566
L246.938 -166.248
L248.053 -164.439
L249.148 -162.931
L251.155 -160.553
L252.247 -159.614
L254.257 -158.013
L257.359 -156.498
L258.197 -156.297
L260.461 -155.729" id="C2_0_586956d428"/>
    </defs>
    <g clip-path="url(#pa3d1d417d9)">
     <use style="fill:#0000ff;" x="0.0" xlink:href="#C2_0_586956d428" y="432.0"/>
    </g>
   </g>
   <g id="line2d_1">
    <path clip-path="url(#pa3d1d417d9)" d="
M149.185 191.114" style="fill:none;stroke:#fa8072;stroke-linecap:square;"/>
    <defs>
     <path d="
M-7.5 0
L7.5 0
M0 7.5
L0 -7.5" id="m415119b0dc" style="stroke:#fa8072;stroke-width:3;"/>
    </defs>
    <g clip-path="url(#pa3d1d417d9)">
     <use style="fill:#fa8072;stroke:#fa8072;stroke-width:3;" x="149.185458154" xlink:href="#m415119b0dc" y="191.11359375"/>
    </g>
   </g>
   <g id="matplotlib.axis_1">
    <g id="xtick_1">
     <g id="line2d_2">
      <path clip-path="url(#pa3d1d417d9)" d="
M102.251 355.317
L102.251 26.91" style="fill:none;stroke:#000000;stroke-dasharray:1.000000,3.000000;stroke-dashoffset:0.0;stroke-width:0.5;"/>
     </g>
     <g id="line2d_3">
      <defs>
       <path d="
M0 0
L0 -4" id="m93b0483c22" style="stroke:#000000;stroke-width:0.5;"/>
      </defs>
      <g>
       <use style="stroke:#000000;stroke-width:0.5;" x="102.25125" xlink:href="#m93b0483c22" y="355.3171875"/>
      </g>
     </g>
     <g id="line2d_4">
      <defs>
       <path d="
M0 0
L0 4" id="m741efc42ff" style="stroke:#000000;stroke-width:0.5;"/>
      </defs>
      <g>
       <use style="stroke:#000000;stroke-width:0.5;" x="102.25125" xlink:href="#m741efc42ff" y="26.91"/>
      </g>
     </g>
     <g id="text_1">
      <!-- −6 -->
      <defs>
       <path d="
M33.0156 40.375
Q26.375 40.375 22.4844 35.8281
Q18.6094 31.2969 18.6094 23.3906
Q18.6094 15.5312 22.4844 10.9531
Q26.375 6.39062 33.0156 6.39062
Q39.6562 6.39062 43.5312 10.9531
Q47.4062 15.5312 47.4062 23.3906
Q47.4062 31.2969 43.5312 35.8281
Q39.6562 40.375 33.0156 40.375
M52.5938 71.2969
L52.5938 62.3125
Q48.875 64.0625 45.0938 64.9844
Q41.3125 65.9219 37.5938 65.9219
Q27.8281 65.9219 22.6719 59.3281
Q17.5312 52.7344 16.7969 39.4062
Q19.6719 43.6562 24.0156 45.9219
Q28.375 48.1875 33.5938 48.1875
Q44.5781 48.1875 50.9531 41.5156
Q57.3281 34.8594 57.3281 23.3906
Q57.3281 12.1562 50.6875 5.35938
Q44.0469 -1.42188 33.0156 -1.42188
Q20.3594 -1.42188 13.6719 8.26562
Q6.98438 17.9688 6.98438 36.375
Q6.98438 53.6562 15.1875 63.9375
Q23.3906 74.2188 37.2031 74.2188
Q40.9219 74.2188 44.7031 73.4844
Q48.4844 72.75 52.5938 71.2969" id="DejaVuSans-36"/>
       <path d="
M10.5938 35.5
L73.1875 35.5
L73.1875 27.2031
L10.5938 27.2031
z
" id="DejaVuSans-2212"/>
      </defs>
      <g transform="translate(91.15609375 372.23453125)scale(0.17 -0.17)">
       <use xlink:href="#DejaVuSans-2212"/>
       <use x="83.7890625" xlink:href="#DejaVuSans-36"/>
      </g>
     </g>
    </g>
    <g id="xtick_2">
     <g id="line2d_5">
      <path clip-path="url(#pa3d1d417d9)" d="
M153.437 355.317
L153.437 26.91" style="fill:none;stroke:#000000;stroke-dasharray:1.000000,3.000000;stroke-dashoffset:0.0;stroke-width:0.5;"/>
     </g>
     <g id="line2d_6">
      <g>
       <use style="stroke:#000000;stroke-width:0.5;" x="153.436875" xlink:href="#m93b0483c22" y="355.3171875"/>
      </g>
     </g>
     <g id="line2d_7">
      <g>
       <use style="stroke:#000000;stroke-width:0.5;" x="153.436875" xlink:href="#m741efc42ff" y="26.91"/>
      </g>
     </g>
     <g id="text_2">
      <!-- −4 -->
      <defs>
       <path d="
M37.7969 64.3125
L12.8906 25.3906
L37.7969 25.3906
z

M35.2031 72.9062
L47.6094 72.9062
L47.6094 25.3906
L58.0156 25.3906
L58.0156 17.1875
L47.6094 17.1875
L47.6094 0
L37.7969 0
L37.7969 17.1875
L4.89062 17.1875
L4.89062 26.7031
z
" id="DejaVuSans-34"/>
      </defs>
      <g transform="translate(142.28328125 372.23453125)scale(0.17 -0.17)">
       <use xlink:href="#DejaVuSans-2212"/>
       <use x="83.7890625" xlink:href="#DejaVuSans-34"/>
      </g>
     </g>
    </g>
    <g id="xtick_3">
     <g id="line2d_8">
      <path clip-path="url(#pa3d1d417d9)" d="
M204.623 355.317
L204.623 26.91" style="fill:none;stroke:#000000;stroke-dasharray:1.000000,3.000000;stroke-dashoffset:0.0;stroke-width:0.5;"/>
     </g>
     <g id="line2d_9">
      <g>
       <use style="stroke:#000000;stroke-width:0.5;" x="204.6225" xlink:href="#m93b0483c22" y="355.3171875"/>
      </g>
     </g>
     <g id="line2d_10">
      <g>
       <use style="stroke:#000000;stroke-width:0.5;" x="204.6225" xlink:href="#m741efc42ff" y="26.91"/>
      </g>
     </g>
     <g id="text_3">
      <!-- −2 -->
      <defs>
       <path d="
M19.1875 8.29688
L53.6094 8.29688
L53.6094 0
L7.32812 0
L7.32812 8.29688
Q12.9375 14.1094 22.625 23.8906
Q32.3281 33.6875 34.8125 36.5312
Q39.5469 41.8438 41.4219 45.5312
Q43.3125 49.2188 43.3125 52.7812
Q43.3125 58.5938 39.2344 62.25
Q35.1562 65.9219 28.6094 65.9219
Q23.9688 65.9219 18.8125 64.3125
Q13.6719 62.7031 7.8125 59.4219
L7.8125 69.3906
Q13.7656 71.7812 18.9375 73
Q24.125 74.2188 28.4219 74.2188
Q39.75 74.2188 46.4844 68.5469
Q53.2188 62.8906 53.2188 53.4219
Q53.2188 48.9219 51.5312 44.8906
Q49.8594 40.875 45.4062 35.4062
Q44.1875 33.9844 37.6406 27.2188
Q31.1094 20.4531 19.1875 8.29688" id="DejaVuSans-32"/>
      </defs>
      <g transform="translate(193.8434375 372.23453125)scale(0.17 -0.17)">
       <use xlink:href="#DejaVuSans-2212"/>
       <use x="83.7890625" xlink:href="#DejaVuSans-32"/>
      </g>
     </g>
    </g>
    <g id="xtick_4">
     <g id="line2d_11">
      <path clip-path="url(#pa3d1d417d9)" d="
M255.808 355.317
L255.808 26.91" style="fill:none;stroke:#000000;stroke-dasharray:1.000000,3.000000;stroke-dashoffset:0.0;stroke-width:0.5;"/>
     </g>
     <g id="line2d_12">
      <g>
       <use style="stroke:#000000;stroke-width:0.5;" x="255.808125" xlink:href="#m93b0483c22" y="355.3171875"/>
      </g>
     </g>
     <g id="line2d_13">
      <g>
       <use style="stroke:#000000;stroke-width:0.5;" x="255.808125" xlink:href="#m741efc42ff" y="26.91"/>
      </g>
     </g>
     <g id="text_4">
      <!-- 0 -->
      <defs>
       <path d="
M31.7812 66.4062
Q24.1719 66.4062 20.3281 58.9062
Q16.5 51.4219 16.5 36.375
Q16.5 21.3906 20.3281 13.8906
Q24.1719 6.39062 31.7812 6.39062
Q39.4531 6.39062 43.2812 13.8906
Q47.125 21.3906 47.125 36.375
Q47.125 51.4219 43.2812 58.9062
Q39.4531 66.4062 31.7812 66.4062
M31.7812 74.2188
Q44.0469 74.2188 50.5156 64.5156
Q56.9844 54.8281 56.9844 36.375
Q56.9844 17.9688 50.5156 8.26562
Q44.0469 -1.42188 31.7812 -1.42188
Q19.5312 -1.42188 13.0625 8.26562
Q6.59375 17.9688 6.59375 36.375
Q6.59375 54.8281 13.0625 64.5156
Q19.5312 74.2188 31.7812 74.2188" id="DejaVuSans-30"/>
      </defs>
      <g transform="translate(251.524921875 372.23453125)scale(0.17 -0.17)">
       <use xlink:href="#DejaVuSans-30"/>
      </g>
     </g>
    </g>
    <g id="xtick_5">
     <g id="line2d_14">
      <path clip-path="url(#pa3d1d417d9)" d="
M306.994 355.317
L306.994 26.91" style="fill:none;stroke:#000000;stroke-dasharray:1.000000,3.000000;stroke-dashoffset:0.0;stroke-width:0.5;"/>
     </g>
     <g id="line2d_15">
      <g>
       <use style="stroke:#000000;stroke-width:0.5;" x="306.99375" xlink:href="#m93b0483c22" y="355.3171875"/>
      </g>
     </g>
     <g id="line2d_16">
      <g>
       <use style="stroke:#000000;stroke-width:0.5;" x="306.99375" xlink:href="#m741efc42ff" y="26.91"/>
      </g>
     </g>
     <g id="text_5">
      <!-- 2 -->
      <g transform="translate(303.05984375 372.23453125)scale(0.17 -0.17)">
       <use xlink:href="#DejaVuSans-32"/>
      </g>
     </g>
    </g>
    <g id="xtick_6">
     <g id="line2d_17">
      <path clip-path="url(#pa3d1d417d9)" d="
M358.179 355.317
L358.179 26.91" style="fill:none;stroke:#000000;stroke-dasharray:1.000000,3.000000;stroke-dashoffset:0.0;stroke-width:0.5;"/>
     </g>
     <g id="line2d_18">
      <g>
       <use style="stroke:#000000;stroke-width:0.5;" x="358.179375" xlink:href="#m93b0483c22" y="355.3171875"/>
      </g>
     </g>
     <g id="line2d_19">
      <g>
       <use style="stroke:#000000;stroke-width:0.5;" x="358.179375" xlink:href="#m741efc42ff" y="26.91"/>
      </g>
     </g>
     <g id="text_6">
      <!-- 4 -->
      <g transform="translate(353.66375 372.23453125)scale(0.17 -0.17)">
       <use xlink:href="#DejaVuSans-34"/>
      </g>
     </g>
    </g>
    <g id="xtick_7">
     <g id="line2d_20">
      <path clip-path="url(#pa3d1d417d9)" d="
M409.365 355.317
L409.365 26.91" style="fill:none;stroke:#000000;stroke-dasharray:1.000000,3.000000;stroke-dashoffset:0.0;stroke-width:0.5;"/>
     </g>
     <g id="line2d_21">
      <g>
       <use style="stroke:#000000;stroke-width:0.5;" x="409.365" xlink:href="#m93b0483c22" y="355.3171875"/>
      </g>
     </g>
     <g id="line2d_22">
      <g>
       <use style="stroke:#000000;stroke-width:0.5;" x="409.365" xlink:href="#m741efc42ff" y="26.91"/>
      </g>
     </g>
     <g id="text_7">
      <!-- 6 -->
      <g transform="translate(405.08578125 372.23453125)scale(0.17 -0.17)">
       <use xlink:href="#DejaVuSans-36"/>
      </g>
     </g>
    </g>
    <g id="xtick_8">
     <g id="line2d_23">
      <defs>
       <path d="
M0 0
L0 -2" id="m177f7580d0" style="stroke:#000000;stroke-width:0.5;"/>
      </defs>
      <g>
       <use style="stroke:#000000;stroke-width:0.5;" x="115.04765625" xlink:href="#m177f7580d0" y="355.3171875"/>
      </g>
     </g>
     <g id="line2d_24">
      <defs>
       <path d="
M0 0
L0 2" id="m5284c7e2a0" style="stroke:#000000;stroke-width:0.5;"/>
      </defs>
      <g>
       <use style="stroke:#000000;stroke-width:0.5;" x="115.04765625" xlink:href="#m5284c7e2a0" y="26.91"/>
      </g>
     </g>
    </g>
    <g id="xtick_9">
     <g id="line2d_25">
      <g>
       <use style="stroke:#000000;stroke-width:0.5;" x="127.8440625" xlink:href="#m177f7580d0" y="355.3171875"/>
      </g>
     </g>
     <g id="line2d_26">
      <g>
       <use style="stroke:#000000;stroke-width:0.5;" x="127.8440625" xlink:href="#m5284c7e2a0" y="26.91"/>
      </g>
     </g>
    </g>
    <g id="xtick_10">
     <g id="line2d_27">
      <g>
       <use style="stroke:#000000;stroke-width:0.5;" x="140.64046875" xlink:href="#m177f7580d0" y="355.3171875"/>
      </g>
     </g>
     <g id="line2d_28">
      <g>
       <use style="stroke:#000000;stroke-width:0.5;" x="140.64046875" xlink:href="#m5284c7e2a0" y="26.91"/>
      </g>
     </g>
    </g>
    <g id="xtick_11">
     <g id="line2d_29">
      <g>
       <use style="stroke:#000000;stroke-width:0.5;" x="166.23328125" xlink:href="#m177f7580d0" y="355.3171875"/>
      </g>
     </g>
     <g id="line2d_30">
      <g>
       <use style="stroke:#000000;stroke-width:0.5;" x="166.23328125" xlink:href="#m5284c7e2a0" y="26.91"/>
      </g>
     </g>
    </g>
    <g id="xtick_12">
     <g id="line2d_31">
      <g>
       <use style="stroke:#000000;stroke-width:0.5;" x="179.0296875" xlink:href="#m177f7580d0" y="355.3171875"/>
      </g>
     </g>
     <g id="line2d_32">
      <g>
       <use style="stroke:#000000;stroke-width:0.5;" x="179.0296875" xlink:href="#m5284c7e2a0" y="26.91"/>
      </g>
     </g>
    </g>
    <g id="xtick_13">
     <g id="line2d_33">
      <g>
       <use style="stroke:#000000;stroke-width:0.5;" x="191.82609375" xlink:href="#m177f7580d0" y="355.3171875"/>
      </g>
     </g>
     <g id="line2d_34">
      <g>
       <use style="stroke:#000000;stroke-width:0.5;" x="191.82609375" xlink:href="#m5284c7e2a0" y="26.91"/>
      </g>
     </g>
    </g>
    <g id="xtick_14">
     <g id="line2d_35">
      <g>
       <use style="stroke:#000000;stroke-width:0.5;" x="217.41890625" xlink:href="#m177f7580d0" y="355.3171875"/>
      </g>
     </g>
     <g id="line2d_36">
      <g>
       <use style="stroke:#000000;stroke-width:0.5;" x="217.41890625" xlink:href="#m5284c7e2a0" y="26.91"/>
      </g>
     </g>
    </g>
    <g id="xtick_15">
     <g id="line2d_37">
      <g>
       <use style="stroke:#000000;stroke-width:0.5;" x="230.2153125" xlink:href="#m177f7580d0" y="355.3171875"/>
      </g>
     </g>
     <g id="line2d_38">
      <g>
       <use style="stroke:#000000;stroke-width:0.5;" x="230.2153125" xlink:href="#m5284c7e2a0" y="26.91"/>
      </g>
     </g>
    </g>
    <g id="xtick_16">
     <g id="line2d_39">
      <g>
       <use style="stroke:#000000;stroke-width:0.5;" x="243.01171875" xlink:href="#m177f7580d0" y="355.3171875"/>
      </g>
     </g>
     <g id="line2d_40">
      <g>
       <use style="stroke:#000000;stroke-width:0.5;" x="243.01171875" xlink:href="#m5284c7e2a0" y="26.91"/>
      </g>
     </g>
    </g>
    <g id="xtick_17">
     <g id="line2d_41">
      <g>
       <use style="stroke:#000000;stroke-width:0.5;" x="268.60453125" xlink:href="#m177f7580d0" y="355.3171875"/>
      </g>
     </g>
     <g id="line2d_42">
      <g>
       <use style="stroke:#000000;stroke-width:0.5;" x="268.60453125" xlink:href="#m5284c7e2a0" y="26.91"/>
      </g>
     </g>
    </g>
    <g id="xtick_18">
     <g id="line2d_43">
      <g>
       <use style="stroke:#000000;stroke-width:0.5;" x="281.4009375" xlink:href="#m177f7580d0" y="355.3171875"/>
      </g>
     </g>
     <g id="line2d_44">
      <g>
       <use style="stroke:#000000;stroke-width:0.5;" x="281.4009375" xlink:href="#m5284c7e2a0" y="26.91"/>
      </g>
     </g>
    </g>
    <g id="xtick_19">
     <g id="line2d_45">
      <g>
       <use style="stroke:#000000;stroke-width:0.5;" x="294.19734375" xlink:href="#m177f7580d0" y="355.3171875"/>
      </g>
     </g>
     <g id="line2d_46">
      <g>
       <use style="stroke:#000000;stroke-width:0.5;" x="294.19734375" xlink:href="#m5284c7e2a0" y="26.91"/>
      </g>
     </g>
    </g>
    <g id="xtick_20">
     <g id="line2d_47">
      <g>
       <use style="stroke:#000000;stroke-width:0.5;" x="319.79015625" xlink:href="#m177f7580d0" y="355.3171875"/>
      </g>
     </g>
     <g id="line2d_48">
      <g>
       <use style="stroke:#000000;stroke-width:0.5;" x="319.79015625" xlink:href="#m5284c7e2a0" y="26.91"/>
      </g>
     </g>
    </g>
    <g id="xtick_21">
     <g id="line2d_49">
      <g>
       <use style="stroke:#000000;stroke-width:0.5;" x="332.5865625" xlink:href="#m177f7580d0" y="355.3171875"/>
      </g>
     </g>
     <g id="line2d_50">
      <g>
       <use style="stroke:#000000;stroke-width:0.5;" x="332.5865625" xlink:href="#m5284c7e2a0" y="26.91"/>
      </g>
     </g>
    </g>
    <g id="xtick_22">
     <g id="line2d_51">
      <g>
       <use style="stroke:#000000;stroke-width:0.5;" x="345.38296875" xlink:href="#m177f7580d0" y="355.3171875"/>
      </g>
     </g>
     <g id="line2d_52">
      <g>
       <use style="stroke:#000000;stroke-width:0.5;" x="345.38296875" xlink:href="#m5284c7e2a0" y="26.91"/>
      </g>
     </g>
    </g>
    <g id="xtick_23">
     <g id="line2d_53">
      <g>
       <use style="stroke:#000000;stroke-width:0.5;" x="370.97578125" xlink:href="#m177f7580d0" y="355.3171875"/>
      </g>
     </g>
     <g id="line2d_54">
      <g>
       <use style="stroke:#000000;stroke-width:0.5;" x="370.97578125" xlink:href="#m5284c7e2a0" y="26.91"/>
      </g>
     </g>
    </g>
    <g id="xtick_24">
     <g id="line2d_55">
      <g>
       <use style="stroke:#000000;stroke-width:0.5;" x="383.7721875" xlink:href="#m177f7580d0" y="355.3171875"/>
      </g>
     </g>
     <g id="line2d_56">
      <g>
       <use style="stroke:#000000;stroke-width:0.5;" x="383.7721875" xlink:href="#m5284c7e2a0" y="26.91"/>
      </g>
     </g>
    </g>
    <g id="xtick_25">
     <g id="line2d_57">
      <g>
       <use style="stroke:#000000;stroke-width:0.5;" x="396.56859375" xlink:href="#m177f7580d0" y="355.3171875"/>
      </g>
     </g>
     <g id="line2d_58">
      <g>
       <use style="stroke:#000000;stroke-width:0.5;" x="396.56859375" xlink:href="#m5284c7e2a0" y="26.91"/>
      </g>
     </g>
    </g>
    <g id="text_8">
     <!-- $\mathcal{C}_{10}$ -->
     <defs>
      <path d="
M9.28125 0
L9.28125 3.51562
Q21.7812 3.51562 21.7812 6.6875
L21.7812 59.1875
Q16.6094 56.6875 8.6875 56.6875
L8.6875 60.2031
Q20.9531 60.2031 27.2031 66.6094
L28.6094 66.6094
Q28.9531 66.6094 29.2656 66.3281
Q29.5938 66.0625 29.5938 65.7188
L29.5938 6.6875
Q29.5938 3.51562 42.0938 3.51562
L42.0938 0
z
" id="Cmr10-31"/>
      <path d="
M25 -2.20312
Q12.75 -2.20312 8.32812 7.875
Q3.90625 17.9688 3.90625 31.8906
Q3.90625 40.5781 5.48438 48.2344
Q7.07812 55.9062 11.7812 61.25
Q16.5 66.6094 25 66.6094
Q31.5938 66.6094 35.7812 63.375
Q39.9844 60.1562 42.1875 55.0469
Q44.3906 49.9531 45.1875 44.1094
Q46 38.2812 46 31.8906
Q46 23.2969 44.4062 15.7969
Q42.8281 8.29688 38.1875 3.04688
Q33.5469 -2.20312 25 -2.20312
M25 0.390625
Q30.5625 0.390625 33.2969 6.09375
Q36.0312 11.8125 36.6719 18.75
Q37.3125 25.6875 37.3125 33.5
Q37.3125 41.0156 36.6719 47.3594
Q36.0312 53.7188 33.3125 58.8594
Q30.6094 64.0156 25 64.0156
Q19.3438 64.0156 16.6094 58.8281
Q13.875 53.6562 13.2344 47.3281
Q12.5938 41.0156 12.5938 33.5
Q12.5938 27.9375 12.8594 23
Q13.1406 18.0625 14.3125 12.8125
Q15.4844 7.5625 18.0938 3.96875
Q20.7031 0.390625 25 0.390625" id="Cmr10-30"/>
      <path d="
M19.6719 -2.39062
Q14.9375 -2.39062 11.4375 -0.5625
Q7.95312 1.26562 5.64062 4.5625
Q3.32812 7.85938 2.26562 11.8125
Q1.21875 15.7656 1.21875 20.3125
Q1.21875 29.25 4.51562 38.3594
Q7.8125 47.4688 13.7656 54.7188
Q19.7344 61.9688 27.9062 66.2344
Q36.0781 70.5156 45.5156 70.5156
L46.0938 70.5156
Q49.3594 70.5156 51.3906 68.8438
Q53.4219 67.1875 53.4219 64.0156
Q53.4219 61.2344 51.8125 57.4688
Q50.2031 53.7188 47.9062 49.6094
Q46.8281 47.7969 44.6562 46.4844
Q42.4844 45.1719 40.1875 44.9219
L39.7031 44.9219
Q39.0156 45.2656 39.0156 45.6094
Q39.0156 46.0469 40.5938 49.1719
Q42.1875 52.2969 43.3281 55.0469
Q44.4844 57.8125 44.4844 59.8125
Q44.4844 62.25 42.9375 63.4219
Q41.4062 64.5938 38.8125 64.5938
Q31.4531 64.5938 26.4375 61.0781
Q21.4375 57.5625 17.3906 50.6875
Q14.0156 44.875 12.0625 38.1094
Q10.1094 31.3438 10.1094 24.6094
Q10.1094 19.0938 11.8594 14.2344
Q13.625 9.375 17.4219 6.4375
Q21.2344 3.51562 27 3.51562
Q33.0625 3.51562 37.7969 8.01562
Q38.4219 8.6875 40.4062 11.2969
Q42.3906 13.9219 44.0938 15.1406
Q45.7969 16.3594 48.4844 16.6094
L49.0312 16.6094
Q49.7031 16.2656 49.7031 15.8281
Q49.7031 15.4375 49.4219 14.9844
Q46.5781 10.2969 41.7969 6.29688
Q37.0156 2.29688 31.2969 -0.046875
Q25.5938 -2.39062 20.3125 -2.39062
z
" id="Cmsy10-43"/>
     </defs>
     <g transform="translate(237.358125 402.07)scale(0.3 -0.3)">
      <use transform="translate(0.0 0.484375)" xlink:href="#Cmsy10-43"/>
      <use transform="translate(52.587890625 -25.025)scale(0.7)" xlink:href="#Cmr10-31"/>
      <use transform="translate(87.587890625 -25.025)scale(0.7)" xlink:href="#Cmr10-30"/>
     </g>
    </g>
   </g>
   <g id="matplotlib.axis_2">
    <g id="ytick_1">
     <g id="text_9">
      <!-- −0.6 -->
      <defs>
       <path d="
M10.6875 12.4062
L21 12.4062
L21 0
L10.6875 0
z
" id="DejaVuSans-2e"/>
      </defs>
      <g transform="translate(59.841875 360.008125)scale(0.17 -0.17)">
       <use xlink:href="#DejaVuSans-2212"/>
       <use x="83.7890625" xlink:href="#DejaVuSans-30"/>
       <use x="147.412109375" xlink:href="#DejaVuSans-2e"/>
       <use x="179.19921875" xlink:href="#DejaVuSans-36"/>
      </g>
     </g>
    </g>
    <g id="ytick_2">
     <g id="line2d_59">
      <path clip-path="url(#pa3d1d417d9)" d="
M102.251 300.583
L409.365 300.583" style="fill:none;stroke:#000000;stroke-dasharray:1.000000,3.000000;stroke-dashoffset:0.0;stroke-width:0.5;"/>
     </g>
     <g id="line2d_60">
      <defs>
       <path d="
M0 0
L4 0" id="m728421d6d4" style="stroke:#000000;stroke-width:0.5;"/>
      </defs>
      <g>
       <use style="stroke:#000000;stroke-width:0.5;" x="102.25125" xlink:href="#m728421d6d4" y="300.58265625"/>
      </g>
     </g>
     <g id="line2d_61">
      <defs>
       <path d="
M0 0
L-4 0" id="mcb0005524f" style="stroke:#000000;stroke-width:0.5;"/>
      </defs>
      <g>
       <use style="stroke:#000000;stroke-width:0.5;" x="409.365" xlink:href="#mcb0005524f" y="300.58265625"/>
      </g>
     </g>
     <g id="text_10">
      <!-- −0.4 -->
      <g transform="translate(59.725 305.27359375)scale(0.17 -0.17)">
       <use xlink:href="#DejaVuSans-2212"/>
       <use x="83.7890625" xlink:href="#DejaVuSans-30"/>
       <use x="147.412109375" xlink:href="#DejaVuSans-2e"/>
       <use x="179.19921875" xlink:href="#DejaVuSans-34"/>
      </g>
     </g>
    </g>
    <g id="ytick_3">
     <g id="line2d_62">
      <path clip-path="url(#pa3d1d417d9)" d="
M102.251 245.848
L409.365 245.848" style="fill:none;stroke:#000000;stroke-dasharray:1.000000,3.000000;stroke-dashoffset:0.0;stroke-width:0.5;"/>
     </g>
     <g id="line2d_63">
      <g>
       <use style="stroke:#000000;stroke-width:0.5;" x="102.25125" xlink:href="#m728421d6d4" y="245.848125"/>
      </g>
     </g>
     <g id="line2d_64">
      <g>
       <use style="stroke:#000000;stroke-width:0.5;" x="409.365" xlink:href="#mcb0005524f" y="245.848125"/>
      </g>
     </g>
     <g id="text_11">
      <!-- −0.2 -->
      <g transform="translate(60.4740625 250.5390625)scale(0.17 -0.17)">
       <use xlink:href="#DejaVuSans-2212"/>
       <use x="83.7890625" xlink:href="#DejaVuSans-30"/>
       <use x="147.412109375" xlink:href="#DejaVuSans-2e"/>
       <use x="179.19921875" xlink:href="#DejaVuSans-32"/>
      </g>
     </g>
    </g>
    <g id="ytick_4">
     <g id="line2d_65">
      <path clip-path="url(#pa3d1d417d9)" d="
M102.251 191.114
L409.365 191.114" style="fill:none;stroke:#000000;stroke-dasharray:1.000000,3.000000;stroke-dashoffset:0.0;stroke-width:0.5;"/>
     </g>
     <g id="line2d_66">
      <g>
       <use style="stroke:#000000;stroke-width:0.5;" x="102.25125" xlink:href="#m728421d6d4" y="191.11359375"/>
      </g>
     </g>
     <g id="line2d_67">
      <g>
       <use style="stroke:#000000;stroke-width:0.5;" x="409.365" xlink:href="#mcb0005524f" y="191.11359375"/>
      </g>
     </g>
     <g id="text_12">
      <!-- 0.0 -->
      <g transform="translate(73.46578125 195.80453125)scale(0.17 -0.17)">
       <use xlink:href="#DejaVuSans-30"/>
       <use x="63.623046875" xlink:href="#DejaVuSans-2e"/>
       <use x="95.41015625" xlink:href="#DejaVuSans-30"/>
      </g>
     </g>
    </g>
    <g id="ytick_5">
     <g id="line2d_68">
      <path clip-path="url(#pa3d1d417d9)" d="
M102.251 136.379
L409.365 136.379" style="fill:none;stroke:#000000;stroke-dasharray:1.000000,3.000000;stroke-dashoffset:0.0;stroke-width:0.5;"/>
     </g>
     <g id="line2d_69">
      <g>
       <use style="stroke:#000000;stroke-width:0.5;" x="102.25125" xlink:href="#m728421d6d4" y="136.3790625"/>
      </g>
     </g>
     <g id="line2d_70">
      <g>
       <use style="stroke:#000000;stroke-width:0.5;" x="409.365" xlink:href="#mcb0005524f" y="136.3790625"/>
      </g>
     </g>
     <g id="text_13">
      <!-- 0.2 -->
      <g transform="translate(74.03953125 141.07)scale(0.17 -0.17)">
       <use xlink:href="#DejaVuSans-30"/>
       <use x="63.623046875" xlink:href="#DejaVuSans-2e"/>
       <use x="95.41015625" xlink:href="#DejaVuSans-32"/>
      </g>
     </g>
    </g>
    <g id="ytick_6">
     <g id="line2d_71">
      <path clip-path="url(#pa3d1d417d9)" d="
M102.251 81.6445
L409.365 81.6445" style="fill:none;stroke:#000000;stroke-dasharray:1.000000,3.000000;stroke-dashoffset:0.0;stroke-width:0.5;"/>
     </g>
     <g id="line2d_72">
      <g>
       <use style="stroke:#000000;stroke-width:0.5;" x="102.25125" xlink:href="#m728421d6d4" y="81.64453125"/>
      </g>
     </g>
     <g id="line2d_73">
      <g>
       <use style="stroke:#000000;stroke-width:0.5;" x="409.365" xlink:href="#mcb0005524f" y="81.64453125"/>
      </g>
     </g>
     <g id="text_14">
      <!-- 0.4 -->
      <g transform="translate(73.29046875 86.33546875)scale(0.17 -0.17)">
       <use xlink:href="#DejaVuSans-30"/>
       <use x="63.623046875" xlink:href="#DejaVuSans-2e"/>
       <use x="95.41015625" xlink:href="#DejaVuSans-34"/>
      </g>
     </g>
    </g>
    <g id="ytick_7">
     <g id="text_15">
      <!-- 0.6 -->
      <g transform="translate(73.40734375 31.6009375)scale(0.17 -0.17)">
       <use xlink:href="#DejaVuSans-30"/>
       <use x="63.623046875" xlink:href="#DejaVuSans-2e"/>
       <use x="95.41015625" xlink:href="#DejaVuSans-36"/>
      </g>
     </g>
    </g>
    <g id="ytick_8">
     <g id="line2d_74">
      <defs>
       <path d="
M0 0
L2 0" id="mf0c55a9a47" style="stroke:#000000;stroke-width:0.5;"/>
      </defs>
      <g>
       <use style="stroke:#000000;stroke-width:0.5;" x="102.25125" xlink:href="#mf0c55a9a47" y="341.633554688"/>
      </g>
     </g>
     <g id="line2d_75">
      <defs>
       <path d="
M0 0
L-2 0" id="ma4f294b3af" style="stroke:#000000;stroke-width:0.5;"/>
      </defs>
      <g>
       <use style="stroke:#000000;stroke-width:0.5;" x="409.365" xlink:href="#ma4f294b3af" y="341.633554688"/>
      </g>
     </g>
    </g>
    <g id="ytick_9">
     <g id="line2d_76">
      <g>
       <use style="stroke:#000000;stroke-width:0.5;" x="102.25125" xlink:href="#mf0c55a9a47" y="327.949921875"/>
      </g>
     </g>
     <g id="line2d_77">
      <g>
       <use style="stroke:#000000;stroke-width:0.5;" x="409.365" xlink:href="#ma4f294b3af" y="327.949921875"/>
      </g>
     </g>
    </g>
    <g id="ytick_10">
     <g id="line2d_78">
      <g>
       <use style="stroke:#000000;stroke-width:0.5;" x="102.25125" xlink:href="#mf0c55a9a47" y="314.266289063"/>
      </g>
     </g>
     <g id="line2d_79">
      <g>
       <use style="stroke:#000000;stroke-width:0.5;" x="409.365" xlink:href="#ma4f294b3af" y="314.266289063"/>
      </g>
     </g>
    </g>
    <g id="ytick_11">
     <g id="line2d_80">
      <g>
       <use style="stroke:#000000;stroke-width:0.5;" x="102.25125" xlink:href="#mf0c55a9a47" y="286.899023438"/>
      </g>
     </g>
     <g id="line2d_81">
      <g>
       <use style="stroke:#000000;stroke-width:0.5;" x="409.365" xlink:href="#ma4f294b3af" y="286.899023438"/>
      </g>
     </g>
    </g>
    <g id="ytick_12">
     <g id="line2d_82">
      <g>
       <use style="stroke:#000000;stroke-width:0.5;" x="102.25125" xlink:href="#mf0c55a9a47" y="273.215390625"/>
      </g>
     </g>
     <g id="line2d_83">
      <g>
       <use style="stroke:#000000;stroke-width:0.5;" x="409.365" xlink:href="#ma4f294b3af" y="273.215390625"/>
      </g>
     </g>
    </g>
    <g id="ytick_13">
     <g id="line2d_84">
      <g>
       <use style="stroke:#000000;stroke-width:0.5;" x="102.25125" xlink:href="#mf0c55a9a47" y="259.531757813"/>
      </g>
     </g>
     <g id="line2d_85">
      <g>
       <use style="stroke:#000000;stroke-width:0.5;" x="409.365" xlink:href="#ma4f294b3af" y="259.531757813"/>
      </g>
     </g>
    </g>
    <g id="ytick_14">
     <g id="line2d_86">
      <g>
       <use style="stroke:#000000;stroke-width:0.5;" x="102.25125" xlink:href="#mf0c55a9a47" y="232.164492188"/>
      </g>
     </g>
     <g id="line2d_87">
      <g>
       <use style="stroke:#000000;stroke-width:0.5;" x="409.365" xlink:href="#ma4f294b3af" y="232.164492188"/>
      </g>
     </g>
    </g>
    <g id="ytick_15">
     <g id="line2d_88">
      <g>
       <use style="stroke:#000000;stroke-width:0.5;" x="102.25125" xlink:href="#mf0c55a9a47" y="218.480859375"/>
      </g>
     </g>
     <g id="line2d_89">
      <g>
       <use style="stroke:#000000;stroke-width:0.5;" x="409.365" xlink:href="#ma4f294b3af" y="218.480859375"/>
      </g>
     </g>
    </g>
    <g id="ytick_16">
     <g id="line2d_90">
      <g>
       <use style="stroke:#000000;stroke-width:0.5;" x="102.25125" xlink:href="#mf0c55a9a47" y="204.797226563"/>
      </g>
     </g>
     <g id="line2d_91">
      <g>
       <use style="stroke:#000000;stroke-width:0.5;" x="409.365" xlink:href="#ma4f294b3af" y="204.797226563"/>
      </g>
     </g>
    </g>
    <g id="ytick_17">
     <g id="line2d_92">
      <g>
       <use style="stroke:#000000;stroke-width:0.5;" x="102.25125" xlink:href="#mf0c55a9a47" y="177.429960937"/>
      </g>
     </g>
     <g id="line2d_93">
      <g>
       <use style="stroke:#000000;stroke-width:0.5;" x="409.365" xlink:href="#ma4f294b3af" y="177.429960937"/>
      </g>
     </g>
    </g>
    <g id="ytick_18">
     <g id="line2d_94">
      <g>
       <use style="stroke:#000000;stroke-width:0.5;" x="102.25125" xlink:href="#mf0c55a9a47" y="163.746328125"/>
      </g>
     </g>
     <g id="line2d_95">
      <g>
       <use style="stroke:#000000;stroke-width:0.5;" x="409.365" xlink:href="#ma4f294b3af" y="163.746328125"/>
      </g>
     </g>
    </g>
    <g id="ytick_19">
     <g id="line2d_96">
      <g>
       <use style="stroke:#000000;stroke-width:0.5;" x="102.25125" xlink:href="#mf0c55a9a47" y="150.062695313"/>
      </g>
     </g>
     <g id="line2d_97">
      <g>
       <use style="stroke:#000000;stroke-width:0.5;" x="409.365" xlink:href="#ma4f294b3af" y="150.062695313"/>
      </g>
     </g>
    </g>
    <g id="ytick_20">
     <g id="line2d_98">
      <g>
       <use style="stroke:#000000;stroke-width:0.5;" x="102.25125" xlink:href="#mf0c55a9a47" y="122.695429687"/>
      </g>
     </g>
     <g id="line2d_99">
      <g>
       <use style="stroke:#000000;stroke-width:0.5;" x="409.365" xlink:href="#ma4f294b3af" y="122.695429687"/>
      </g>
     </g>
    </g>
    <g id="ytick_21">
     <g id="line2d_100">
      <g>
       <use style="stroke:#000000;stroke-width:0.5;" x="102.25125" xlink:href="#mf0c55a9a47" y="109.011796875"/>
      </g>
     </g>
     <g id="line2d_101">
      <g>
       <use style="stroke:#000000;stroke-width:0.5;" x="409.365" xlink:href="#ma4f294b3af" y="109.011796875"/>
      </g>
     </g>
    </g>
    <g id="ytick_22">
     <g id="line2d_102">
      <g>
       <use style="stroke:#000000;stroke-width:0.5;" x="102.25125" xlink:href="#mf0c55a9a47" y="95.3281640625"/>
      </g>
     </g>
     <g id="line2d_103">
      <g>
       <use style="stroke:#000000;stroke-width:0.5;" x="409.365" xlink:href="#ma4f294b3af" y="95.3281640625"/>
      </g>
     </g>
    </g>
    <g id="ytick_23">
     <g id="line2d_104">
      <g>
       <use style="stroke:#000000;stroke-width:0.5;" x="102.25125" xlink:href="#mf0c55a9a47" y="81.64453125"/>
      </g>
     </g>
     <g id="line2d_105">
      <g>
       <use style="stroke:#000000;stroke-width:0.5;" x="409.365" xlink:href="#ma4f294b3af" y="81.64453125"/>
      </g>
     </g>
    </g>
    <g id="ytick_24">
     <g id="line2d_106">
      <g>
       <use style="stroke:#000000;stroke-width:0.5;" x="102.25125" xlink:href="#mf0c55a9a47" y="67.9608984375"/>
      </g>
     </g>
     <g id="line2d_107">
      <g>
       <use style="stroke:#000000;stroke-width:0.5;" x="409.365" xlink:href="#ma4f294b3af" y="67.9608984375"/>
      </g>
     </g>
    </g>
    <g id="ytick_25">
     <g id="line2d_108">
      <g>
       <use style="stroke:#000000;stroke-width:0.5;" x="102.25125" xlink:href="#mf0c55a9a47" y="54.277265625"/>
      </g>
     </g>
     <g id="line2d_109">
      <g>
       <use style="stroke:#000000;stroke-width:0.5;" x="409.365" xlink:href="#ma4f294b3af" y="54.277265625"/>
      </g>
     </g>
    </g>
    <g id="ytick_26">
     <g id="line2d_110">
      <g>
       <use style="stroke:#000000;stroke-width:0.5;" x="102.25125" xlink:href="#mf0c55a9a47" y="40.5936328125"/>
      </g>
     </g>
     <g id="line2d_111">
      <g>
       <use style="stroke:#000000;stroke-width:0.5;" x="409.365" xlink:href="#ma4f294b3af" y="40.5936328125"/>
      </g>
     </g>
    </g>
    <g id="text_16">
     <!-- $\mathcal{C}_{P}^{\prime}$ -->
     <defs>
      <path d="
M3.51562 5.42188
Q2.875 5.60938 2.875 6.39062
L15.0938 51.8125
Q15.6719 53.6562 17.0781 54.7812
Q18.5 55.9062 20.3125 55.9062
Q22.6562 55.9062 24.4375 54.3594
Q26.2188 52.8281 26.2188 50.4844
Q26.2188 49.4688 25.6875 48.1875
L7.625 4.98438
Q7.28125 4.29688 6.6875 4.29688
Q6.15625 4.29688 5 4.78125
Q3.85938 5.28125 3.51562 5.42188" id="Cmsy10-30"/>
      <path d="
M4.89062 0
Q3.90625 0 3.90625 1.3125
Q3.95312 1.5625 4.09375 2.17188
Q4.25 2.78125 4.51562 3.14062
Q4.78125 3.51562 5.17188 3.51562
Q11.2812 3.51562 13.7188 4.20312
Q14.9844 4.64062 15.5781 6.89062
L29.2969 61.8125
Q29.5 62.7969 29.5 63.1875
Q29.5 64.2656 28.3281 64.4062
Q26.4219 64.7969 21.0938 64.7969
Q20.125 64.7969 20.125 66.1094
Q20.1719 66.3594 20.3125 66.9688
Q20.4531 67.5781 20.7188 67.9375
Q21 68.3125 21.3906 68.3125
L55.9062 68.3125
Q60.6406 68.3125 65.0781 66.625
Q69.5312 64.9375 72.3594 61.4688
Q75.2031 58.0156 75.2031 53.0781
Q75.2031 46.7344 70.7344 41.75
Q66.2656 36.7656 59.5938 33.9844
Q52.9375 31.2031 46.6875 31.2031
L30.4219 31.2031
L24.3125 6.5
Q24.125 5.51562 24.125 5.07812
Q24.125 4.6875 24.2344 4.42188
Q24.3594 4.15625 24.5781 4.07812
Q24.8125 4 25.2969 3.90625
Q27.2031 3.51562 32.5156 3.51562
Q33.5 3.51562 33.5 2.20312
Q33.1562 0.78125 32.9531 0.390625
Q32.7656 0 31.7812 0
z

M30.9062 34.1875
L44.9219 34.1875
Q54.6406 34.1875 59.7188 39.4062
Q62.3125 42 63.9375 46.875
Q65.5781 51.7656 65.5781 55.7188
Q65.5781 60.6406 61.8125 62.7188
Q58.0625 64.7969 52.4844 64.7969
L42.9219 64.7969
Q40.1875 64.7969 39.2969 64.3281
Q38.4219 63.875 37.7031 61.375
z
" id="Cmmi10-50"/>
     </defs>
     <g transform="translate(46.925 205.81359375)rotate(-90.0)scale(0.3 -0.3)">
      <use transform="translate(0.0 0.859375)" xlink:href="#Cmsy10-43"/>
      <use transform="translate(52.587890625 45.865625)scale(0.7)" xlink:href="#Cmsy10-30"/>
      <use transform="translate(52.587890625 -24.65)scale(0.7)" xlink:href="#Cmmi10-50"/>
     </g>
    </g>
   </g>
   <g id="patch_3">
    <path d="
M102.251 26.91
L409.365 26.91" style="fill:none;stroke:#000000;"/>
   </g>
   <g id="patch_4">
    <path d="
M409.365 355.317
L409.365 26.91" style="fill:none;stroke:#000000;"/>
   </g>
   <g id="patch_5">
    <path d="
M102.251 355.317
L409.365 355.317" style="fill:none;stroke:#000000;"/>
   </g>
   <g id="patch_6">
    <path d="
M102.251 355.317
L102.251 26.91" style="fill:none;stroke:#000000;"/>
   </g>
  </g>
 </g>
 <defs>
  <clipPath id="pa3d1d417d9">
   <rect height="328.4071875" width="307.11375" x="102.25125" y="26.91"/>
  </clipPath>
 </defs>
</svg>
