<?xml version="1.0" encoding="utf-8" standalone="no"?>
<!DOCTYPE svg PUBLIC "-//W3C//DTD SVG 1.1//EN"
  "http://www.w3.org/Graphics/SVG/1.1/DTD/svg11.dtd">
<!-- Created with matplotlib (http://matplotlib.org/) -->
<svg height="432pt" version="1.1" viewBox="0 0 432 432" width="432pt" xmlns="http://www.w3.org/2000/svg" xmlns:xlink="http://www.w3.org/1999/xlink">
 <defs>
  <style type="text/css">
*{stroke-linecap:butt;stroke-linejoin:round;}
  </style>
 </defs>
 <g id="figure_1">
  <g id="patch_1">
   <path d="
M0 432
L432 432
L432 0
L0 0
z
" style="fill:#ffffff;"/>
  </g>
  <g id="axes_1">
   <g id="patch_2">
    <path d="
M66.7125 381.779
L416.052 381.779
L416.052 19.26
L66.7125 19.26
z
" style="fill:#ffffff;"/>
   </g>
   <g id="PathCollection_1">
    <defs>
     <path d="
M66.7125 -50.2211
L73.8419 -50.2211
L80.9712 -50.2211
L88.1006 -50.2211
L95.23 -50.2211
L102.359 -50.2211
L109.489 -50.2211
L116.618 -50.2211
L123.747 -50.2211
L130.877 -50.2211
L138.006 -50.2211
L145.136 -50.2211
L152.265 -50.2211
L159.394 -50.2211
L166.524 -50.2211
L173.653 -50.2211
L180.782 -50.2211
L187.912 -50.2211
L195.041 -50.2211
L202.171 -50.2211
L209.3 -50.2211
L216.429 -50.2211
L223.559 -50.2211
L230.688 -50.2211
L237.817 -50.2211
L244.947 -50.2211
L252.076 -50.2211
L259.206 -50.2211
L266.335 -50.2211
L273.464 -50.2211
L280.594 -50.2211
L287.723 -50.2211
L294.852 -50.2211
L301.982 -50.2211
L309.111 -50.2211
L316.241 -50.2211
L323.37 -50.2211
L330.499 -50.2211
L337.629 -50.2211
L344.758 -50.2211
L351.887 -50.2211
L359.017 -50.2211
L366.146 -50.2211
L373.275 -50.2211
L380.405 -50.2211
L387.534 -50.2211
L394.664 -50.2211
L401.793 -50.2211
L408.922 -50.2211
L416.052 -50.2211
L416.052 -57.6195
L416.052 -65.0178
L416.052 -72.4162
L416.052 -79.8145
L416.052 -87.2128
L416.052 -94.6112
L416.052 -102.01
L416.052 -109.408
L416.052 -116.806
L416.052 -124.205
L416.052 -131.603
L416.052 -139.001
L416.052 -146.4
L416.052 -153.798
L416.052 -161.196
L416.052 -168.595
L416.052 -175.993
L416.052 -183.391
L416.052 -190.79
L416.052 -198.188
L416.052 -205.586
L416.052 -212.985
L416.052 -220.383
L416.052 -227.781
L416.052 -235.18
L416.052 -242.578
L416.052 -249.976
L416.052 -257.375
L416.052 -264.773
L416.052 -272.171
L416.052 -279.57
L416.052 -286.968
L416.052 -294.366
L416.052 -301.765
L416.052 -309.163
L416.052 -316.562
L416.052 -323.96
L416.052 -331.358
L416.052 -338.757
L416.052 -346.155
L416.052 -353.553
L416.052 -360.952
L416.052 -368.35
L416.052 -375.748
L416.052 -383.147
L416.052 -390.545
L416.052 -397.943
L416.052 -405.342
L416.052 -412.74
L408.922 -412.74
L401.793 -412.74
L394.664 -412.74
L387.534 -412.74
L380.405 -412.74
L373.275 -412.74
L366.146 -412.74
L359.017 -412.74
L351.887 -412.74
L344.758 -412.74
L337.629 -412.74
L330.499 -412.74
L323.37 -412.74
L316.241 -412.74
L309.111 -412.74
L301.982 -412.74
L294.852 -412.74
L287.723 -412.74
L280.594 -412.74
L273.464 -412.74
L266.335 -412.74
L259.206 -412.74
L252.076 -412.74
L244.947 -412.74
L237.817 -412.74
L230.688 -412.74
L223.559 -412.74
L216.429 -412.74
L209.3 -412.74
L202.171 -412.74
L195.041 -412.74
L187.912 -412.74
L180.782 -412.74
L173.653 -412.74
L166.524 -412.74
L159.394 -412.74
L152.265 -412.74
L145.136 -412.74
L138.006 -412.74
L130.877 -412.74
L123.747 -412.74
L116.618 -412.74
L109.489 -412.74
L102.359 -412.74
L95.23 -412.74
L88.1006 -412.74
L80.9712 -412.74
L73.8419 -412.74
L66.7125 -412.74
L66.7125 -405.342
L66.7125 -397.943
L66.7125 -390.545
L66.7125 -383.147
L66.7125 -375.748
L66.7125 -368.35
L66.7125 -360.952
L66.7125 -353.553
L66.7125 -346.155
L66.7125 -338.757
L66.7125 -331.358
L66.7125 -323.96
L66.7125 -316.562
L66.7125 -309.163
L66.7125 -301.765
L66.7125 -294.366
L66.7125 -286.968
L66.7125 -279.57
L66.7125 -272.171
L66.7125 -264.773
L66.7125 -257.375
L66.7125 -249.976
L66.7125 -242.578
L66.7125 -235.18
L66.7125 -227.781
L66.7125 -220.383
L66.7125 -212.985
L66.7125 -205.586
L66.7125 -198.188
L66.7125 -190.79
L66.7125 -183.391
L66.7125 -175.993
L66.7125 -168.595
L66.7125 -161.196
L66.7125 -153.798
L66.7125 -146.4
L66.7125 -139.001
L66.7125 -131.603
L66.7125 -124.205
L66.7125 -116.806
L66.7125 -109.408
L66.7125 -102.01
L66.7125 -94.6112
L66.7125 -87.2128
L66.7125 -79.8145
L66.7125 -72.4162
L66.7125 -65.0178
L66.7125 -57.6195
L66.7125 -50.2211
M95.23 -177.095
L92.2811 -183.391
L95.23 -188.964
L99.3481 -183.391
L95.23 -177.095
M187.912 -119.313
L183.367 -124.205
L187.912 -129.209
L192.533 -124.205
L187.912 -119.313
M202.171 -99.1942
L200.412 -102.01
L202.171 -104.145
L204.361 -102.01
L202.171 -99.1942
M209.3 -81.1923
L203.15 -87.2128
L209.3 -93.4531
L216.042 -94.6112
L215.762 -102.01
L216.429 -103.383
L217.7 -102.01
L220.849 -94.6112
L216.429 -94.227
L215.268 -87.2128
L209.3 -81.1923
M223.559 -84.5779
L220.846 -87.2128
L223.559 -94.2277
L230.476 -87.2128
L223.559 -84.5779
M259.206 -92.6018
L255.988 -94.6112
L259.206 -98.4147
L263.205 -102.01
L259.206 -102.829
L252.32 -102.01
L252.076 -101.811
L244.947 -98.0782
L237.817 -96.0804
L233.51 -102.01
L230.688 -106.404
L223.559 -106.119
L220.301 -109.408
L216.429 -113.101
L209.3 -111.16
L204.159 -116.806
L206.185 -124.205
L202.171 -126.195
L195.803 -131.603
L195.041 -134.532
L193.738 -139.001
L195.041 -140.876
L196.863 -146.4
L195.041 -151.677
L192.674 -153.798
L187.912 -159.608
L180.782 -154.986
L173.653 -158.915
L171.18 -153.798
L172.422 -146.4
L166.524 -140.102
L165.17 -139.001
L159.394 -134.266
L153.29 -131.603
L152.265 -130.941
L147.639 -131.603
L145.136 -132.945
L138.006 -135.656
L133.242 -139.001
L130.877 -140.605
L123.747 -142.657
L118.633 -146.4
L118.959 -153.798
L116.618 -158.058
L112.629 -161.196
L109.765 -168.595
L109.489 -169.291
L105.767 -175.993
L104.107 -183.391
L106.044 -190.79
L102.359 -197.32
L101.951 -198.188
L99.282 -205.586
L97.3033 -212.985
L102.359 -217.605
L106.567 -220.383
L104.348 -227.781
L103.45 -235.18
L102.359 -235.865
L98.8175 -242.578
L97.4569 -249.976
L102.359 -255.478
L104.082 -257.375
L102.359 -261.066
L98.1647 -264.773
L100.498 -272.171
L102.359 -275.563
L103.547 -279.57
L103.26 -286.968
L103.869 -294.366
L108.194 -301.765
L109.489 -308.164
L109.643 -309.163
L111.282 -316.562
L116.618 -320.909
L121.627 -316.562
L123.747 -314.231
L124.962 -316.562
L125.923 -323.96
L123.747 -328.049
L120.586 -331.358
L123.747 -335.397
L130.877 -336.772
L137.402 -338.757
L133.43 -346.155
L138.006 -350.05
L145.136 -347.64
L152.265 -351.053
L159.394 -348.516
L166.524 -348.917
L173.653 -352.95
L180.782 -353.279
L184.148 -353.553
L187.912 -357.242
L195.041 -354.651
L202.171 -359.243
L206.273 -360.952
L205.945 -368.35
L209.3 -373.543
L212.282 -368.35
L216.429 -366.217
L216.802 -368.35
L223.559 -375.667
L230.688 -373.462
L237.817 -374.509
L241.085 -375.748
L237.817 -376.816
L230.688 -377.156
L225.016 -383.147
L230.688 -387.064
L237.817 -388.971
L244.947 -386.826
L249.553 -383.147
L252.076 -380.533
L255.334 -375.748
L257.977 -368.35
L259.206 -367.633
L266.335 -365.367
L269.74 -368.35
L273.464 -371.046
L277.923 -368.35
L275.84 -360.952
L278.104 -353.553
L276.12 -346.155
L276.995 -338.757
L279.974 -331.358
L280.594 -329.289
L282.489 -323.96
L287.723 -318.001
L294.852 -321.388
L297.712 -316.562
L294.852 -313.7
L292.743 -309.163
L294.852 -304.887
L300.954 -309.163
L301.982 -310.286
L303.613 -309.163
L309.111 -307.904
L316.241 -306.861
L323.37 -307.974
L325.768 -309.163
L326.232 -316.562
L325.253 -323.96
L330.499 -328.01
L336.679 -323.96
L337.629 -323.776
L340.513 -323.96
L340.175 -331.358
L344.758 -335.026
L347.895 -331.358
L346.144 -323.96
L350.482 -316.562
L351.887 -315.148
L359.017 -312.062
L360.118 -316.562
L366.146 -320.898
L370.447 -316.562
L373.275 -312.536
L376.386 -309.163
L373.275 -305.255
L368.732 -309.163
L366.146 -310.93
L360.963 -309.163
L365.398 -301.765
L366.146 -298.078
L373.275 -297.347
L375.523 -294.366
L376.119 -286.968
L380.405 -285.802
L387.534 -279.928
L388.528 -279.57
L387.534 -279.213
L380.405 -273.392
L378.425 -272.171
L380.405 -269.186
L387.11 -264.773
L387.534 -261.495
L388.296 -257.375
L387.534 -255.993
L385.99 -257.375
L380.405 -259.027
L378.832 -257.375
L380.405 -254.787
L384.733 -249.976
L382.795 -242.578
L381.956 -235.18
L387.534 -228.219
L387.834 -227.781
L387.534 -227.086
L384.933 -220.383
L386.196 -212.985
L383.183 -205.586
L387.534 -203.813
L389.082 -198.188
L387.534 -195.569
L383.198 -198.188
L380.405 -203.825
L379.057 -198.188
L380.405 -191.167
L380.538 -190.79
L382.551 -183.391
L380.405 -179.867
L376.284 -175.993
L373.275 -169.019
L373.204 -168.595
L373.275 -168.223
L378.552 -168.595
L380.405 -168.708
L380.457 -168.595
L380.405 -168.434
L377.154 -161.196
L380.405 -156.757
L381.504 -153.798
L380.405 -151.602
L376.841 -153.798
L373.275 -156.451
L366.146 -154.974
L359.017 -154.013
L358.774 -153.798
L359.017 -152.125
L366.146 -152.456
L372.125 -146.4
L366.146 -142.316
L361.026 -139.001
L359.017 -134.994
L351.887 -132.462
L350.425 -131.603
L344.758 -126.484
L343.507 -124.205
L344.758 -123.275
L350.306 -116.806
L344.758 -111.664
L340.585 -109.408
L337.629 -106.743
L334.902 -109.408
L330.499 -116.806
L330.499 -116.806
L330.499 -116.806
L326.862 -109.408
L323.37 -105.837
L316.241 -106.579
L309.111 -105.383
L308.391 -102.01
L301.982 -95.5886
L296.042 -102.01
L301.982 -109.236
L303.054 -109.408
L303.873 -116.806
L301.982 -117.15
L297.943 -116.806
L294.852 -110.075
L287.723 -109.964
L280.594 -109.755
L279.308 -109.408
L273.464 -105.494
L268.889 -109.408
L266.335 -113.648
L264.84 -109.408
L266.335 -103.997
L267.67 -102.01
L266.335 -98.3937
L263.225 -94.6112
L259.206 -92.6018
M187.912 -362.506
L185.746 -368.35
L187.912 -370.637
L190.504 -368.35
L187.912 -362.506
M266.335 -379.602
L260.846 -383.147
L266.335 -384.676
L271.455 -383.147
L266.335 -379.602
M287.723 -360.213
L286.959 -360.952
L287.723 -361.951
L288.502 -360.952
L287.723 -360.213
M294.852 -349.406
L290.363 -353.553
L294.852 -358.383
L298.72 -353.553
L294.852 -349.406
M309.111 -337.701
L307.554 -338.757
L309.111 -340.341
L310.024 -338.757
L309.111 -337.701
M316.241 -312.582
L313.058 -316.562
L316.241 -318.726
L320.841 -316.562
L316.241 -312.582
M380.405 -299.39
L377.487 -301.765
L380.405 -304.161
L382.413 -301.765
L380.405 -299.39
M380.405 -322.986
L377.131 -323.96
L380.405 -324.651
L380.971 -323.96
L380.405 -322.986
M373.275 -113.449
L370.809 -116.806
L366.146 -123.367
L361.239 -124.205
L361.918 -131.603
L366.146 -134.016
L369.048 -131.603
L373.275 -129.971
L378.238 -124.205
L375.552 -116.806
L373.275 -113.449
M394.664 -323.478
L394.235 -323.96
L394.664 -324.403
L395.085 -323.96
L394.664 -323.478" id="C0_0_c7f3e30726"/>
     <path d="
M223.559 -113.737
L224.2 -116.806
L223.559 -117.816
L220.9 -116.806
L223.559 -113.737" id="C0_1_48b45250fc"/>
     <path d="
M316.241 -112.186
L318.272 -116.806
L316.241 -120.593
L311.718 -116.806
L316.241 -112.186" id="C0_2_d78522a702"/>
     <path d="
M202.171 -138.179
L202.756 -139.001
L202.171 -139.548
L199.272 -139.001
L202.171 -138.179" id="C0_3_86c4f3ad41"/>
     <path d="
M159.394 -146.216
L159.527 -146.4
L159.394 -146.706
L159.191 -146.4
L159.394 -146.216" id="C0_4_d35e43c9c7"/>
     <path d="
M209.3 -146.063
L209.567 -146.4
L209.3 -146.981
L209.009 -146.4
L209.3 -146.063" id="C0_5_0791e28888"/>
     <path d="
M180.782 -168.479
L181.196 -168.595
L180.782 -168.702
L180.64 -168.595
L180.782 -168.479" id="C0_6_47c4203f42"/>
     <path d="
M373.275 -181.064
L375.195 -183.391
L373.275 -184.76
L372.061 -183.391
L373.275 -181.064" id="C0_7_ab8a8cb35d"/>
     <path d="
M373.275 -279.203
L373.462 -279.57
L373.275 -280.883
L372.521 -279.57
L373.275 -279.203" id="C0_8_a382257c1f"/>
    </defs>
    <g clip-path="url(#p9dab66bff7)">
     <use style="fill:#ffffff;" x="0.0" xlink:href="#C0_0_c7f3e30726" y="432.0"/>
    </g>
    <g clip-path="url(#p9dab66bff7)">
     <use style="fill:#ffffff;" x="0.0" xlink:href="#C0_1_48b45250fc" y="432.0"/>
    </g>
    <g clip-path="url(#p9dab66bff7)">
     <use style="fill:#ffffff;" x="0.0" xlink:href="#C0_2_d78522a702" y="432.0"/>
    </g>
    <g clip-path="url(#p9dab66bff7)">
     <use style="fill:#ffffff;" x="0.0" xlink:href="#C0_3_86c4f3ad41" y="432.0"/>
    </g>
    <g clip-path="url(#p9dab66bff7)">
     <use style="fill:#ffffff;" x="0.0" xlink:href="#C0_4_d35e43c9c7" y="432.0"/>
    </g>
    <g clip-path="url(#p9dab66bff7)">
     <use style="fill:#ffffff;" x="0.0" xlink:href="#C0_5_0791e28888" y="432.0"/>
    </g>
    <g clip-path="url(#p9dab66bff7)">
     <use style="fill:#ffffff;" x="0.0" xlink:href="#C0_6_47c4203f42" y="432.0"/>
    </g>
    <g clip-path="url(#p9dab66bff7)">
     <use style="fill:#ffffff;" x="0.0" xlink:href="#C0_7_ab8a8cb35d" y="432.0"/>
    </g>
    <g clip-path="url(#p9dab66bff7)">
     <use style="fill:#ffffff;" x="0.0" xlink:href="#C0_8_a382257c1f" y="432.0"/>
    </g>
   </g>
   <g id="PathCollection_2">
    <defs>
     <path d="
M209.3 -81.1923
L215.268 -87.2128
L216.429 -94.227
L220.849 -94.6112
L217.7 -102.01
L216.429 -103.383
L215.762 -102.01
L216.042 -94.6112
L209.3 -93.4531
L203.15 -87.2128
L209.3 -81.1923
M209.3 -85.8387
L207.896 -87.2128
L209.3 -88.6372
L210.662 -87.2128
L209.3 -85.8387" id="C1_0_456563e61e"/>
     <path d="
M223.559 -84.5779
L230.476 -87.2128
L223.559 -94.2277
L220.846 -87.2128
L223.559 -84.5779" id="C1_1_79a2540e49"/>
     <path d="
M259.206 -92.6018
L263.225 -94.6112
L266.335 -98.3937
L267.67 -102.01
L266.335 -103.997
L264.84 -109.408
L266.335 -113.648
L268.889 -109.408
L273.464 -105.494
L279.308 -109.408
L280.594 -109.755
L287.723 -109.964
L294.852 -110.075
L297.943 -116.806
L301.982 -117.15
L303.873 -116.806
L303.054 -109.408
L301.982 -109.236
L296.042 -102.01
L301.982 -95.5886
L308.391 -102.01
L309.111 -105.383
L316.241 -106.579
L323.37 -105.837
L326.862 -109.408
L330.499 -116.806
L330.499 -116.806
L330.499 -116.806
L334.902 -109.408
L337.629 -106.743
L340.585 -109.408
L344.758 -111.664
L350.306 -116.806
L344.758 -123.275
L343.507 -124.205
L344.758 -126.484
L350.425 -131.603
L351.887 -132.462
L359.017 -134.994
L361.026 -139.001
L366.146 -142.316
L372.125 -146.4
L366.146 -152.456
L359.017 -152.125
L358.774 -153.798
L359.017 -154.013
L366.146 -154.974
L373.275 -156.451
L376.841 -153.798
L380.405 -151.602
L381.504 -153.798
L380.405 -156.757
L377.154 -161.196
L380.405 -168.434
L380.457 -168.595
L380.405 -168.708
L378.552 -168.595
L373.275 -168.223
L373.204 -168.595
L373.275 -169.019
L376.284 -175.993
L380.405 -179.867
L382.551 -183.391
L380.538 -190.79
L380.405 -191.167
L379.057 -198.188
L380.405 -203.825
L383.198 -198.188
L387.534 -195.569
L389.082 -198.188
L387.534 -203.813
L383.183 -205.586
L386.196 -212.985
L384.933 -220.383
L387.534 -227.086
L387.834 -227.781
L387.534 -228.219
L381.956 -235.18
L382.795 -242.578
L384.733 -249.976
L380.405 -254.787
L378.832 -257.375
L380.405 -259.027
L385.99 -257.375
L387.534 -255.993
L388.296 -257.375
L387.534 -261.495
L387.11 -264.773
L380.405 -269.186
L378.425 -272.171
L380.405 -273.392
L387.534 -279.213
L388.528 -279.57
L387.534 -279.928
L380.405 -285.802
L376.119 -286.968
L375.523 -294.366
L373.275 -297.347
L366.146 -298.078
L365.398 -301.765
L360.963 -309.163
L366.146 -310.93
L368.732 -309.163
L373.275 -305.255
L376.386 -309.163
L373.275 -312.536
L370.447 -316.562
L366.146 -320.898
L360.118 -316.562
L359.017 -312.062
L351.887 -315.148
L350.482 -316.562
L346.144 -323.96
L347.895 -331.358
L344.758 -335.026
L340.175 -331.358
L340.513 -323.96
L337.629 -323.776
L336.679 -323.96
L330.499 -328.01
L325.253 -323.96
L326.232 -316.562
L325.768 -309.163
L323.37 -307.974
L316.241 -306.861
L309.111 -307.904
L303.613 -309.163
L301.982 -310.286
L300.954 -309.163
L294.852 -304.887
L292.743 -309.163
L294.852 -313.7
L297.712 -316.562
L294.852 -321.388
L287.723 -318.001
L282.489 -323.96
L280.594 -329.289
L279.974 -331.358
L276.995 -338.757
L276.12 -346.155
L278.104 -353.553
L275.84 -360.952
L277.923 -368.35
L273.464 -371.046
L269.74 -368.35
L266.335 -365.367
L259.206 -367.633
L257.977 -368.35
L255.334 -375.748
L252.076 -380.533
L249.553 -383.147
L244.947 -386.826
L237.817 -388.971
L230.688 -387.064
L225.016 -383.147
L230.688 -377.156
L237.817 -376.816
L241.085 -375.748
L237.817 -374.509
L230.688 -373.462
L223.559 -375.667
L216.802 -368.35
L216.429 -366.217
L212.282 -368.35
L209.3 -373.543
L205.945 -368.35
L206.273 -360.952
L202.171 -359.243
L195.041 -354.651
L187.912 -357.242
L184.148 -353.553
L180.782 -353.279
L173.653 -352.95
L166.524 -348.917
L159.394 -348.516
L152.265 -351.053
L145.136 -347.64
L138.006 -350.05
L133.43 -346.155
L137.402 -338.757
L130.877 -336.772
L123.747 -335.397
L120.586 -331.358
L123.747 -328.049
L125.923 -323.96
L124.962 -316.562
L123.747 -314.231
L121.627 -316.562
L116.618 -320.909
L111.282 -316.562
L109.643 -309.163
L109.489 -308.164
L108.194 -301.765
L103.869 -294.366
L103.26 -286.968
L103.547 -279.57
L102.359 -275.563
L100.498 -272.171
L98.1647 -264.773
L102.359 -261.066
L104.082 -257.375
L102.359 -255.478
L97.4569 -249.976
L98.8175 -242.578
L102.359 -235.865
L103.45 -235.18
L104.348 -227.781
L106.567 -220.383
L102.359 -217.605
L97.3033 -212.985
L99.282 -205.586
L101.951 -198.188
L102.359 -197.32
L106.044 -190.79
L104.107 -183.391
L105.767 -175.993
L109.489 -169.291
L109.765 -168.595
L112.629 -161.196
L116.618 -158.058
L118.959 -153.798
L118.633 -146.4
L123.747 -142.657
L130.877 -140.605
L133.242 -139.001
L138.006 -135.656
L145.136 -132.945
L147.639 -131.603
L152.265 -130.941
L153.29 -131.603
L159.394 -134.266
L165.17 -139.001
L166.524 -140.102
L172.422 -146.4
L171.18 -153.798
L173.653 -158.915
L180.782 -154.986
L187.912 -159.608
L192.674 -153.798
L195.041 -151.677
L196.863 -146.4
L195.041 -140.876
L193.738 -139.001
L195.041 -134.532
L195.803 -131.603
L202.171 -126.195
L206.185 -124.205
L204.159 -116.806
L209.3 -111.16
L216.429 -113.101
L220.301 -109.408
L223.559 -106.119
L230.688 -106.404
L233.51 -102.01
L237.817 -96.0804
L244.947 -98.0782
L252.076 -101.811
L252.32 -102.01
L259.206 -102.829
L263.205 -102.01
L259.206 -98.4147
L255.988 -94.6112
L259.206 -92.6018
M280.594 -115.293
L279.034 -116.806
L280.594 -119.153
L282.49 -116.806
L280.594 -115.293
M301.982 -101.598
L301.601 -102.01
L301.982 -102.473
L302.392 -102.01
L301.982 -101.598
M316.241 -112.186
L311.718 -116.806
L316.241 -120.593
L318.272 -116.806
L316.241 -112.186
M366.146 -188.313
L362.003 -190.79
L366.146 -193.891
L368.499 -190.79
L366.146 -188.313
M373.275 -181.064
L372.061 -183.391
L373.275 -184.76
L375.195 -183.391
L373.275 -181.064
M373.275 -279.203
L372.521 -279.57
L373.275 -280.883
L373.462 -279.57
L373.275 -279.203
M380.405 -279.449
L380.27 -279.57
L380.405 -279.691
L380.545 -279.57
L380.405 -279.449
M145.136 -182.981
L144.038 -183.391
L145.136 -185.116
L145.691 -183.391
L145.136 -182.981
M159.394 -146.216
L159.191 -146.4
L159.394 -146.706
L159.527 -146.4
L159.394 -146.216
M180.782 -168.479
L180.64 -168.595
L180.782 -168.702
L181.196 -168.595
L180.782 -168.479
M202.171 -138.179
L199.272 -139.001
L202.171 -139.548
L202.756 -139.001
L202.171 -138.179
M209.3 -146.063
L209.009 -146.4
L209.3 -146.981
L209.567 -146.4
L209.3 -146.063
M223.559 -113.737
L220.9 -116.806
L223.559 -117.816
L224.2 -116.806
L223.559 -113.737
M237.817 -135.722
L236.066 -139.001
L230.688 -145.761
L230.271 -146.4
L230.304 -153.798
L224.641 -161.196
L223.559 -164.07
L216.429 -162.336
L211.917 -168.595
L213.605 -175.993
L211.95 -183.391
L214.596 -190.79
L211.92 -198.188
L209.3 -199.651
L207.83 -198.188
L202.171 -193.233
L195.041 -194.424
L187.926 -190.79
L187.912 -190.771
L187.885 -190.79
L181.471 -198.188
L187.912 -203.64
L195.041 -204.718
L196.723 -205.586
L197.648 -212.985
L195.041 -216.683
L191.43 -212.985
L187.912 -208.133
L182.527 -212.985
L180.782 -213.713
L179.54 -212.985
L178.415 -205.586
L179.36 -198.188
L173.653 -195.688
L168.049 -198.188
L166.524 -199.712
L159.394 -199.072
L159.214 -198.188
L152.265 -193.357
L145.136 -191.579
L138.006 -193.414
L133.894 -198.188
L134.811 -205.586
L130.877 -207.029
L125.992 -212.985
L124.404 -220.383
L124.585 -227.781
L126.145 -235.18
L129.088 -242.578
L127.025 -249.976
L123.747 -252.356
L120.887 -257.375
L123.747 -261.22
L127.834 -264.773
L128.938 -272.171
L125.235 -279.57
L126.511 -286.968
L130.227 -294.366
L129.189 -301.765
L130.877 -302.679
L132.937 -301.765
L138.006 -297.864
L141.34 -301.765
L145.136 -307.174
L146.739 -309.163
L152.265 -312.451
L157.556 -316.562
L159.394 -319.153
L166.524 -320.968
L170.905 -316.562
L173.653 -314.497
L180.12 -309.163
L180.782 -304.616
L182.961 -301.765
L187.912 -300.563
L195.041 -300.348
L196.403 -301.765
L201.296 -309.163
L202.171 -316.204
L202.542 -316.562
L202.171 -316.971
L201.821 -323.96
L202.171 -324.124
L209.3 -329.053
L216.429 -328.306
L219.812 -331.358
L223.487 -338.757
L223.559 -338.863
L224.242 -338.757
L230.688 -333.478
L231.919 -338.757
L237.817 -344.994
L244.947 -341.891
L252.076 -339.068
L253.118 -338.757
L252.076 -335.13
L244.947 -333.649
L241.223 -331.358
L243.522 -323.96
L244.947 -322.94
L248.252 -323.96
L252.076 -330.134
L253.776 -323.96
L259.206 -317.702
L260.759 -316.562
L264.385 -309.163
L263.683 -301.765
L266.335 -298.497
L269.292 -294.366
L266.42 -286.968
L266.335 -286.707
L265.657 -279.57
L266.335 -276.385
L270.055 -279.57
L273.464 -281.288
L274.541 -279.57
L274.404 -272.171
L273.464 -271.155
L270.13 -264.773
L273.464 -262.858
L280.594 -263.802
L286.202 -257.375
L284.888 -249.976
L283.825 -242.578
L287.494 -235.18
L287.723 -234.341
L294.852 -233.448
L301.982 -234.575
L303.898 -235.18
L301.982 -235.92
L295.928 -242.578
L294.852 -248.585
L293.439 -249.976
L294.852 -250.502
L295.646 -249.976
L301.982 -248.148
L306.699 -249.976
L308.434 -257.375
L309.111 -258.025
L313.418 -264.773
L314.477 -272.171
L316.241 -273.742
L319.883 -272.171
L321.618 -264.773
L323.37 -261.525
L324.827 -264.773
L326.041 -272.171
L323.37 -279.57
L323.37 -279.57
L318.67 -286.968
L323.37 -290.669
L328.133 -286.968
L330.499 -282.888
L334.858 -279.57
L334.624 -272.171
L337.629 -268.363
L343.625 -272.171
L344.758 -272.757
L345.623 -272.171
L350.175 -264.773
L351.887 -258.76
L352.389 -257.375
L351.887 -251.74
L351.602 -249.976
L349.712 -242.578
L351.887 -238.905
L354.394 -235.18
L359.017 -234.29
L364.225 -227.781
L359.017 -221.196
L355.505 -220.383
L351.887 -214.774
L351.515 -212.985
L349.883 -205.586
L351.887 -202.564
L359.017 -201.638
L360.482 -198.188
L359.017 -195.731
L354.966 -190.79
L354.515 -183.391
L351.887 -177.118
L351.063 -175.993
L349.792 -168.595
L348.325 -161.196
L344.758 -159.192
L340.446 -161.196
L337.629 -162.389
L335.857 -161.196
L337.629 -159.316
L340.595 -153.798
L337.629 -149.671
L334.282 -146.4
L330.499 -142.412
L325.086 -146.4
L327.496 -153.798
L323.37 -155.121
L321.549 -153.798
L320.705 -146.4
L318.656 -139.001
L316.241 -136.484
L312.167 -139.001
L309.271 -146.4
L310.239 -153.798
L311.604 -161.196
L309.29 -168.595
L309.111 -171.805
L308.478 -168.595
L301.982 -161.281
L296.734 -168.595
L294.852 -173.821
L287.723 -169.226
L283.393 -168.595
L284.005 -161.196
L287.723 -156.287
L294.852 -157.221
L300.373 -153.798
L294.852 -149.984
L287.723 -151.502
L283.804 -146.4
L280.594 -143.969
L278.153 -146.4
L276.41 -153.798
L273.464 -156.135
L271.409 -153.798
L266.335 -152.888
L262.525 -146.4
L259.206 -142.154
L256.355 -139.001
L252.076 -134.107
L247.194 -139.001
L244.947 -142.147
L239.69 -139.001
L237.817 -135.722
M152.265 -331.191
L152.196 -331.358
L152.265 -331.415
L152.34 -331.358
L152.265 -331.191
M187.912 -309.894
L183.096 -316.562
L187.912 -321.688
L192.951 -316.562
L187.912 -309.894
M209.3 -342.32
L206.018 -346.155
L209.3 -349.854
L215.572 -346.155
L209.3 -342.32
M223.559 -364.911
L220.769 -368.35
L223.559 -371.372
L226.781 -368.35
L223.559 -364.911
M280.594 -285.561
L278.559 -286.968
L280.594 -288.151
L281.685 -286.968
L280.594 -285.561
M294.852 -285.421
L293.158 -286.968
L294.852 -288.259
L296.179 -286.968
L294.852 -285.421
M309.111 -284.794
L307.369 -286.968
L309.111 -289.113
L312.377 -286.968
L309.111 -284.794
M337.629 -316.191
L337.391 -316.562
L337.629 -316.783
L337.884 -316.562
L337.629 -316.191
M359.017 -211.743
L356.673 -212.985
L359.017 -214.011
L360.669 -212.985
L359.017 -211.743
M252.076 -114.603
L249.59 -116.806
L252.076 -120.873
L254.675 -116.806
L252.076 -114.603" id="C1_2_e45c40c7c6"/>
     <path d="
M202.171 -99.1942
L204.361 -102.01
L202.171 -104.145
L200.412 -102.01
L202.171 -99.1942" id="C1_3_dfa30f8b72"/>
     <path d="
M373.275 -113.449
L375.552 -116.806
L378.238 -124.205
L373.275 -129.971
L369.048 -131.603
L366.146 -134.016
L361.918 -131.603
L361.239 -124.205
L366.146 -123.367
L370.809 -116.806
L373.275 -113.449" id="C1_4_5b50293850"/>
     <path d="
M187.912 -119.313
L192.533 -124.205
L187.912 -129.209
L183.367 -124.205
L187.912 -119.313" id="C1_5_2f0dc2f70d"/>
     <path d="
M252.076 -145.483
L253.046 -146.4
L252.076 -148.801
L250.756 -146.4
L252.076 -145.483" id="C1_6_a7254c5475"/>
     <path d="
M266.335 -156.867
L270.731 -161.196
L266.335 -163.46
L264.94 -161.196
L266.335 -156.867" id="C1_7_178ff93082"/>
     <path d="
M230.688 -166.146
L233.838 -168.595
L230.688 -169.592
L226.146 -168.595
L230.688 -166.146" id="C1_8_527753e09f"/>
     <path d="
M280.594 -171.959
L281.074 -175.993
L280.594 -176.779
L279.873 -175.993
L280.594 -171.959" id="C1_9_849a9da6c6"/>
     <path d="
M95.23 -177.095
L99.3481 -183.391
L95.23 -188.964
L92.2811 -183.391
L95.23 -177.095" id="C1_a_91c6dd4f85"/>
     <path d="
M273.464 -189.636
L278.109 -190.79
L273.464 -196.573
L272.319 -190.79
L273.464 -189.636" id="C1_b_ee2a05bde5"/>
     <path d="
M294.852 -190.7
L301.982 -190.304
L302.578 -190.79
L301.982 -191.358
L294.852 -190.875
L294.229 -190.79
L294.852 -190.7" id="C1_c_fbf4fca841"/>
     <path d="
M287.723 -194.034
L288.681 -198.188
L287.723 -200.878
L284.777 -198.188
L287.723 -194.034" id="C1_d_31f0b8a3b2"/>
     <path d="
M280.594 -204.334
L281.605 -205.586
L280.594 -205.695
L279.902 -205.586
L280.594 -204.334" id="C1_e_4b735f7b42"/>
     <path d="
M280.594 -220.2
L281.484 -220.383
L280.594 -223.168
L277.307 -220.383
L280.594 -220.2" id="C1_f_3a5ee6c5c0"/>
     <path d="
M180.782 -227.708
L187.912 -225.034
L195.041 -227.306
L195.57 -227.781
L195.041 -228.386
L189.849 -235.18
L187.912 -237.085
L187.069 -235.18
L180.782 -227.88
L180.519 -227.781
L180.782 -227.708" id="C1_10_bf57cce868"/>
     <path d="
M180.782 -279.31
L181.033 -279.57
L180.782 -279.823
L180.565 -279.57
L180.782 -279.31" id="C1_11_11b8b34f82"/>
     <path d="
M380.405 -299.39
L382.413 -301.765
L380.405 -304.161
L377.487 -301.765
L380.405 -299.39" id="C1_12_9b08d44a55"/>
     <path d="
M166.524 -306.432
L169.499 -309.163
L166.524 -313.137
L162.1 -309.163
L166.524 -306.432" id="C1_13_27a5939e9f"/>
     <path d="
M316.241 -312.582
L320.841 -316.562
L316.241 -318.726
L313.058 -316.562
L316.241 -312.582" id="C1_14_7ec39ab40d"/>
     <path d="
M380.405 -322.986
L380.971 -323.96
L380.405 -324.651
L377.131 -323.96
L380.405 -322.986" id="C1_15_1df4ec7afc"/>
     <path d="
M394.664 -323.478
L395.085 -323.96
L394.664 -324.403
L394.235 -323.96
L394.664 -323.478" id="C1_16_60b8504e30"/>
     <path d="
M309.111 -337.701
L310.024 -338.757
L309.111 -340.341
L307.554 -338.757
L309.111 -337.701" id="C1_17_47dd80633d"/>
     <path d="
M294.852 -349.406
L298.72 -353.553
L294.852 -358.383
L290.363 -353.553
L294.852 -349.406" id="C1_18_a467f47b4f"/>
     <path d="
M287.723 -360.213
L288.502 -360.952
L287.723 -361.951
L286.959 -360.952
L287.723 -360.213" id="C1_19_e81bbf5ebe"/>
     <path d="
M187.912 -362.506
L190.504 -368.35
L187.912 -370.637
L185.746 -368.35
L187.912 -362.506" id="C1_1a_314872089b"/>
     <path d="
M266.335 -379.602
L271.455 -383.147
L266.335 -384.676
L260.846 -383.147
L266.335 -379.602" id="C1_1b_e79678a1b2"/>
    </defs>
    <g clip-path="url(#p9dab66bff7)">
     <use style="fill:#0000ff;fill-opacity:0.5;" x="0.0" xlink:href="#C1_0_456563e61e" y="432.0"/>
    </g>
    <g clip-path="url(#p9dab66bff7)">
     <use style="fill:#0000ff;fill-opacity:0.5;" x="0.0" xlink:href="#C1_1_79a2540e49" y="432.0"/>
    </g>
    <g clip-path="url(#p9dab66bff7)">
     <use style="fill:#0000ff;fill-opacity:0.5;" x="0.0" xlink:href="#C1_2_e45c40c7c6" y="432.0"/>
    </g>
    <g clip-path="url(#p9dab66bff7)">
     <use style="fill:#0000ff;fill-opacity:0.5;" x="0.0" xlink:href="#C1_3_dfa30f8b72" y="432.0"/>
    </g>
    <g clip-path="url(#p9dab66bff7)">
     <use style="fill:#0000ff;fill-opacity:0.5;" x="0.0" xlink:href="#C1_4_5b50293850" y="432.0"/>
    </g>
    <g clip-path="url(#p9dab66bff7)">
     <use style="fill:#0000ff;fill-opacity:0.5;" x="0.0" xlink:href="#C1_5_2f0dc2f70d" y="432.0"/>
    </g>
    <g clip-path="url(#p9dab66bff7)">
     <use style="fill:#0000ff;fill-opacity:0.5;" x="0.0" xlink:href="#C1_6_a7254c5475" y="432.0"/>
    </g>
    <g clip-path="url(#p9dab66bff7)">
     <use style="fill:#0000ff;fill-opacity:0.5;" x="0.0" xlink:href="#C1_7_178ff93082" y="432.0"/>
    </g>
    <g clip-path="url(#p9dab66bff7)">
     <use style="fill:#0000ff;fill-opacity:0.5;" x="0.0" xlink:href="#C1_8_527753e09f" y="432.0"/>
    </g>
    <g clip-path="url(#p9dab66bff7)">
     <use style="fill:#0000ff;fill-opacity:0.5;" x="0.0" xlink:href="#C1_9_849a9da6c6" y="432.0"/>
    </g>
    <g clip-path="url(#p9dab66bff7)">
     <use style="fill:#0000ff;fill-opacity:0.5;" x="0.0" xlink:href="#C1_a_91c6dd4f85" y="432.0"/>
    </g>
    <g clip-path="url(#p9dab66bff7)">
     <use style="fill:#0000ff;fill-opacity:0.5;" x="0.0" xlink:href="#C1_b_ee2a05bde5" y="432.0"/>
    </g>
    <g clip-path="url(#p9dab66bff7)">
     <use style="fill:#0000ff;fill-opacity:0.5;" x="0.0" xlink:href="#C1_c_fbf4fca841" y="432.0"/>
    </g>
    <g clip-path="url(#p9dab66bff7)">
     <use style="fill:#0000ff;fill-opacity:0.5;" x="0.0" xlink:href="#C1_d_31f0b8a3b2" y="432.0"/>
    </g>
    <g clip-path="url(#p9dab66bff7)">
     <use style="fill:#0000ff;fill-opacity:0.5;" x="0.0" xlink:href="#C1_e_4b735f7b42" y="432.0"/>
    </g>
    <g clip-path="url(#p9dab66bff7)">
     <use style="fill:#0000ff;fill-opacity:0.5;" x="0.0" xlink:href="#C1_f_3a5ee6c5c0" y="432.0"/>
    </g>
    <g clip-path="url(#p9dab66bff7)">
     <use style="fill:#0000ff;fill-opacity:0.5;" x="0.0" xlink:href="#C1_10_bf57cce868" y="432.0"/>
    </g>
    <g clip-path="url(#p9dab66bff7)">
     <use style="fill:#0000ff;fill-opacity:0.5;" x="0.0" xlink:href="#C1_11_11b8b34f82" y="432.0"/>
    </g>
    <g clip-path="url(#p9dab66bff7)">
     <use style="fill:#0000ff;fill-opacity:0.5;" x="0.0" xlink:href="#C1_12_9b08d44a55" y="432.0"/>
    </g>
    <g clip-path="url(#p9dab66bff7)">
     <use style="fill:#0000ff;fill-opacity:0.5;" x="0.0" xlink:href="#C1_13_27a5939e9f" y="432.0"/>
    </g>
    <g clip-path="url(#p9dab66bff7)">
     <use style="fill:#0000ff;fill-opacity:0.5;" x="0.0" xlink:href="#C1_14_7ec39ab40d" y="432.0"/>
    </g>
    <g clip-path="url(#p9dab66bff7)">
     <use style="fill:#0000ff;fill-opacity:0.5;" x="0.0" xlink:href="#C1_15_1df4ec7afc" y="432.0"/>
    </g>
    <g clip-path="url(#p9dab66bff7)">
     <use style="fill:#0000ff;fill-opacity:0.5;" x="0.0" xlink:href="#C1_16_60b8504e30" y="432.0"/>
    </g>
    <g clip-path="url(#p9dab66bff7)">
     <use style="fill:#0000ff;fill-opacity:0.5;" x="0.0" xlink:href="#C1_17_47dd80633d" y="432.0"/>
    </g>
    <g clip-path="url(#p9dab66bff7)">
     <use style="fill:#0000ff;fill-opacity:0.5;" x="0.0" xlink:href="#C1_18_a467f47b4f" y="432.0"/>
    </g>
    <g clip-path="url(#p9dab66bff7)">
     <use style="fill:#0000ff;fill-opacity:0.5;" x="0.0" xlink:href="#C1_19_e81bbf5ebe" y="432.0"/>
    </g>
    <g clip-path="url(#p9dab66bff7)">
     <use style="fill:#0000ff;fill-opacity:0.5;" x="0.0" xlink:href="#C1_1a_314872089b" y="432.0"/>
    </g>
    <g clip-path="url(#p9dab66bff7)">
     <use style="fill:#0000ff;fill-opacity:0.5;" x="0.0" xlink:href="#C1_1b_e79678a1b2" y="432.0"/>
    </g>
   </g>
   <g id="PathCollection_3">
    <defs>
     <path d="
M209.3 -85.8387
L210.662 -87.2128
L209.3 -88.6372
L207.896 -87.2128
L209.3 -85.8387" id="C2_0_26de3530c5"/>
     <path d="
M301.982 -101.598
L302.392 -102.01
L301.982 -102.473
L301.601 -102.01
L301.982 -101.598" id="C2_1_b34c2aeb65"/>
     <path d="
M252.076 -114.603
L254.675 -116.806
L252.076 -120.873
L249.59 -116.806
L252.076 -114.603" id="C2_2_2077314f34"/>
     <path d="
M280.594 -115.293
L282.49 -116.806
L280.594 -119.153
L279.034 -116.806
L280.594 -115.293" id="C2_3_fc419d719e"/>
     <path d="
M237.817 -135.722
L239.69 -139.001
L244.947 -142.147
L247.194 -139.001
L252.076 -134.107
L256.355 -139.001
L259.206 -142.154
L262.525 -146.4
L266.335 -152.888
L271.409 -153.798
L273.464 -156.135
L276.41 -153.798
L278.153 -146.4
L280.594 -143.969
L283.804 -146.4
L287.723 -151.502
L294.852 -149.984
L300.373 -153.798
L294.852 -157.221
L287.723 -156.287
L284.005 -161.196
L283.393 -168.595
L287.723 -169.226
L294.852 -173.821
L296.734 -168.595
L301.982 -161.281
L308.478 -168.595
L309.111 -171.805
L309.29 -168.595
L311.604 -161.196
L310.239 -153.798
L309.271 -146.4
L312.167 -139.001
L316.241 -136.484
L318.656 -139.001
L320.705 -146.4
L321.549 -153.798
L323.37 -155.121
L327.496 -153.798
L325.086 -146.4
L330.499 -142.412
L334.282 -146.4
L337.629 -149.671
L340.595 -153.798
L337.629 -159.316
L335.857 -161.196
L337.629 -162.389
L340.446 -161.196
L344.758 -159.192
L348.325 -161.196
L349.792 -168.595
L351.063 -175.993
L351.887 -177.118
L354.515 -183.391
L354.966 -190.79
L359.017 -195.731
L360.482 -198.188
L359.017 -201.638
L351.887 -202.564
L349.883 -205.586
L351.515 -212.985
L351.887 -214.774
L355.505 -220.383
L359.017 -221.196
L364.225 -227.781
L359.017 -234.29
L354.394 -235.18
L351.887 -238.905
L349.712 -242.578
L351.602 -249.976
L351.887 -251.74
L352.389 -257.375
L351.887 -258.76
L350.175 -264.773
L345.623 -272.171
L344.758 -272.757
L343.625 -272.171
L337.629 -268.363
L334.624 -272.171
L334.858 -279.57
L330.499 -282.888
L328.133 -286.968
L323.37 -290.669
L318.67 -286.968
L323.37 -279.57
L323.37 -279.57
L326.041 -272.171
L324.827 -264.773
L323.37 -261.525
L321.618 -264.773
L319.883 -272.171
L316.241 -273.742
L314.477 -272.171
L313.418 -264.773
L309.111 -258.025
L308.434 -257.375
L306.699 -249.976
L301.982 -248.148
L295.646 -249.976
L294.852 -250.502
L293.439 -249.976
L294.852 -248.585
L295.928 -242.578
L301.982 -235.92
L303.898 -235.18
L301.982 -234.575
L294.852 -233.448
L287.723 -234.341
L287.494 -235.18
L283.825 -242.578
L284.888 -249.976
L286.202 -257.375
L280.594 -263.802
L273.464 -262.858
L270.13 -264.773
L273.464 -271.155
L274.404 -272.171
L274.541 -279.57
L273.464 -281.288
L270.055 -279.57
L266.335 -276.385
L265.657 -279.57
L266.335 -286.707
L266.42 -286.968
L269.292 -294.366
L266.335 -298.497
L263.683 -301.765
L264.385 -309.163
L260.759 -316.562
L259.206 -317.702
L253.776 -323.96
L252.076 -330.134
L248.252 -323.96
L244.947 -322.94
L243.522 -323.96
L241.223 -331.358
L244.947 -333.649
L252.076 -335.13
L253.118 -338.757
L252.076 -339.068
L244.947 -341.891
L237.817 -344.994
L231.919 -338.757
L230.688 -333.478
L224.242 -338.757
L223.559 -338.863
L223.487 -338.757
L219.812 -331.358
L216.429 -328.306
L209.3 -329.053
L202.171 -324.124
L201.821 -323.96
L202.171 -316.971
L202.542 -316.562
L202.171 -316.204
L201.296 -309.163
L196.403 -301.765
L195.041 -300.348
L187.912 -300.563
L182.961 -301.765
L180.782 -304.616
L180.12 -309.163
L173.653 -314.497
L170.905 -316.562
L166.524 -320.968
L159.394 -319.153
L157.556 -316.562
L152.265 -312.451
L146.739 -309.163
L145.136 -307.174
L141.34 -301.765
L138.006 -297.864
L132.937 -301.765
L130.877 -302.679
L129.189 -301.765
L130.227 -294.366
L126.511 -286.968
L125.235 -279.57
L128.938 -272.171
L127.834 -264.773
L123.747 -261.22
L120.887 -257.375
L123.747 -252.356
L127.025 -249.976
L129.088 -242.578
L126.145 -235.18
L124.585 -227.781
L124.404 -220.383
L125.992 -212.985
L130.877 -207.029
L134.811 -205.586
L133.894 -198.188
L138.006 -193.414
L145.136 -191.579
L152.265 -193.357
L159.214 -198.188
L159.394 -199.072
L166.524 -199.712
L168.049 -198.188
L173.653 -195.688
L179.36 -198.188
L178.415 -205.586
L179.54 -212.985
L180.782 -213.713
L182.527 -212.985
L187.912 -208.133
L191.43 -212.985
L195.041 -216.683
L197.648 -212.985
L196.723 -205.586
L195.041 -204.718
L187.912 -203.64
L181.471 -198.188
L187.885 -190.79
L187.912 -190.771
L187.926 -190.79
L195.041 -194.424
L202.171 -193.233
L207.83 -198.188
L209.3 -199.651
L211.92 -198.188
L214.596 -190.79
L211.95 -183.391
L213.605 -175.993
L211.917 -168.595
L216.429 -162.336
L223.559 -164.07
L224.641 -161.196
L230.304 -153.798
L230.271 -146.4
L230.688 -145.761
L236.066 -139.001
L237.817 -135.722
M252.076 -145.483
L250.756 -146.4
L252.076 -148.801
L253.046 -146.4
L252.076 -145.483
M266.335 -156.867
L264.94 -161.196
L266.335 -163.46
L270.731 -161.196
L266.335 -156.867
M273.464 -189.636
L272.319 -190.79
L273.464 -196.573
L278.109 -190.79
L273.464 -189.636
M280.594 -171.959
L279.873 -175.993
L280.594 -176.779
L281.074 -175.993
L280.594 -171.959
M280.594 -204.334
L279.902 -205.586
L280.594 -205.695
L281.605 -205.586
L280.594 -204.334
M280.594 -220.2
L277.307 -220.383
L280.594 -223.168
L281.484 -220.383
L280.594 -220.2
M287.723 -194.034
L284.777 -198.188
L287.723 -200.878
L288.681 -198.188
L287.723 -194.034
M294.852 -190.7
L294.229 -190.79
L294.852 -190.875
L301.982 -191.358
L302.578 -190.79
L301.982 -190.304
L294.852 -190.7
M166.524 -306.432
L162.1 -309.163
L166.524 -313.137
L169.499 -309.163
L166.524 -306.432
M180.782 -227.708
L180.519 -227.781
L180.782 -227.88
L187.069 -235.18
L187.912 -237.085
L189.849 -235.18
L195.041 -228.386
L195.57 -227.781
L195.041 -227.306
L187.912 -225.034
L180.782 -227.708
M180.782 -279.31
L180.565 -279.57
L180.782 -279.823
L181.033 -279.57
L180.782 -279.31
M230.688 -166.146
L226.146 -168.595
L230.688 -169.592
L233.838 -168.595
L230.688 -166.146" id="C2_4_375dc3f506"/>
     <path d="
M145.136 -182.981
L145.691 -183.391
L145.136 -185.116
L144.038 -183.391
L145.136 -182.981" id="C2_5_74703e7d84"/>
     <path d="
M366.146 -188.313
L368.499 -190.79
L366.146 -193.891
L362.003 -190.79
L366.146 -188.313" id="C2_6_63495185e5"/>
     <path d="
M359.017 -211.743
L360.669 -212.985
L359.017 -214.011
L356.673 -212.985
L359.017 -211.743" id="C2_7_d7a97bc53f"/>
     <path d="
M380.405 -279.449
L380.545 -279.57
L380.405 -279.691
L380.27 -279.57
L380.405 -279.449" id="C2_8_da716a465a"/>
     <path d="
M280.594 -285.561
L281.685 -286.968
L280.594 -288.151
L278.559 -286.968
L280.594 -285.561" id="C2_9_af34f2a75c"/>
     <path d="
M294.852 -285.421
L296.179 -286.968
L294.852 -288.259
L293.158 -286.968
L294.852 -285.421" id="C2_a_ccac04c8be"/>
     <path d="
M309.111 -284.794
L312.377 -286.968
L309.111 -289.113
L307.369 -286.968
L309.111 -284.794" id="C2_b_8c265884c6"/>
     <path d="
M187.912 -309.894
L192.951 -316.562
L187.912 -321.688
L183.096 -316.562
L187.912 -309.894" id="C2_c_9a8c7ef4ef"/>
     <path d="
M337.629 -316.191
L337.884 -316.562
L337.629 -316.783
L337.391 -316.562
L337.629 -316.191" id="C2_d_f77c8f2a24"/>
     <path d="
M152.265 -331.191
L152.34 -331.358
L152.265 -331.415
L152.196 -331.358
L152.265 -331.191" id="C2_e_7661209363"/>
     <path d="
M209.3 -342.32
L215.572 -346.155
L209.3 -349.854
L206.018 -346.155
L209.3 -342.32" id="C2_f_37637090cb"/>
     <path d="
M223.559 -364.911
L226.781 -368.35
L223.559 -371.372
L220.769 -368.35
L223.559 -364.911" id="C2_10_b8a53bc4a4"/>
    </defs>
    <g clip-path="url(#p9dab66bff7)">
     <use style="fill:#0000ff;" x="0.0" xlink:href="#C2_0_26de3530c5" y="432.0"/>
    </g>
    <g clip-path="url(#p9dab66bff7)">
     <use style="fill:#0000ff;" x="0.0" xlink:href="#C2_1_b34c2aeb65" y="432.0"/>
    </g>
    <g clip-path="url(#p9dab66bff7)">
     <use style="fill:#0000ff;" x="0.0" xlink:href="#C2_2_2077314f34" y="432.0"/>
    </g>
    <g clip-path="url(#p9dab66bff7)">
     <use style="fill:#0000ff;" x="0.0" xlink:href="#C2_3_fc419d719e" y="432.0"/>
    </g>
    <g clip-path="url(#p9dab66bff7)">
     <use style="fill:#0000ff;" x="0.0" xlink:href="#C2_4_375dc3f506" y="432.0"/>
    </g>
    <g clip-path="url(#p9dab66bff7)">
     <use style="fill:#0000ff;" x="0.0" xlink:href="#C2_5_74703e7d84" y="432.0"/>
    </g>
    <g clip-path="url(#p9dab66bff7)">
     <use style="fill:#0000ff;" x="0.0" xlink:href="#C2_6_63495185e5" y="432.0"/>
    </g>
    <g clip-path="url(#p9dab66bff7)">
     <use style="fill:#0000ff;" x="0.0" xlink:href="#C2_7_d7a97bc53f" y="432.0"/>
    </g>
    <g clip-path="url(#p9dab66bff7)">
     <use style="fill:#0000ff;" x="0.0" xlink:href="#C2_8_da716a465a" y="432.0"/>
    </g>
    <g clip-path="url(#p9dab66bff7)">
     <use style="fill:#0000ff;" x="0.0" xlink:href="#C2_9_af34f2a75c" y="432.0"/>
    </g>
    <g clip-path="url(#p9dab66bff7)">
     <use style="fill:#0000ff;" x="0.0" xlink:href="#C2_a_ccac04c8be" y="432.0"/>
    </g>
    <g clip-path="url(#p9dab66bff7)">
     <use style="fill:#0000ff;" x="0.0" xlink:href="#C2_b_8c265884c6" y="432.0"/>
    </g>
    <g clip-path="url(#p9dab66bff7)">
     <use style="fill:#0000ff;" x="0.0" xlink:href="#C2_c_9a8c7ef4ef" y="432.0"/>
    </g>
    <g clip-path="url(#p9dab66bff7)">
     <use style="fill:#0000ff;" x="0.0" xlink:href="#C2_d_f77c8f2a24" y="432.0"/>
    </g>
    <g clip-path="url(#p9dab66bff7)">
     <use style="fill:#0000ff;" x="0.0" xlink:href="#C2_e_7661209363" y="432.0"/>
    </g>
    <g clip-path="url(#p9dab66bff7)">
     <use style="fill:#0000ff;" x="0.0" xlink:href="#C2_f_37637090cb" y="432.0"/>
    </g>
    <g clip-path="url(#p9dab66bff7)">
     <use style="fill:#0000ff;" x="0.0" xlink:href="#C2_10_b8a53bc4a4" y="432.0"/>
    </g>
   </g>
   <g id="line2d_1">
    <path clip-path="url(#p9dab66bff7)" d="
M120.1 200.519" style="fill:none;stroke:#fa8072;stroke-linecap:square;"/>
    <defs>
     <path d="
M-7.5 0
L7.5 0
M0 7.5
L0 -7.5" id="m415119b0dc" style="stroke:#fa8072;stroke-width:3;"/>
    </defs>
    <g clip-path="url(#p9dab66bff7)">
     <use style="fill:#fa8072;stroke:#fa8072;stroke-width:3;" x="120.09975345" xlink:href="#m415119b0dc" y="200.5194375"/>
    </g>
   </g>
   <g id="matplotlib.axis_1">
    <g id="xtick_1">
     <g id="line2d_2">
      <path clip-path="url(#p9dab66bff7)" d="
M66.7125 381.779
L66.7125 19.26" style="fill:none;stroke:#000000;stroke-dasharray:1.000000,3.000000;stroke-dashoffset:0.0;stroke-width:0.5;"/>
     </g>
     <g id="line2d_3">
      <defs>
       <path d="
M0 0
L0 -4" id="m93b0483c22" style="stroke:#000000;stroke-width:0.5;"/>
      </defs>
      <g>
       <use style="stroke:#000000;stroke-width:0.5;" x="66.7125" xlink:href="#m93b0483c22" y="381.778875"/>
      </g>
     </g>
     <g id="line2d_4">
      <defs>
       <path d="
M0 0
L0 4" id="m741efc42ff" style="stroke:#000000;stroke-width:0.5;"/>
      </defs>
      <g>
       <use style="stroke:#000000;stroke-width:0.5;" x="66.7125" xlink:href="#m741efc42ff" y="19.26"/>
      </g>
     </g>
     <g id="text_1">
      <!-- −6 -->
      <defs>
       <path d="
M33.0156 40.375
Q26.375 40.375 22.4844 35.8281
Q18.6094 31.2969 18.6094 23.3906
Q18.6094 15.5312 22.4844 10.9531
Q26.375 6.39062 33.0156 6.39062
Q39.6562 6.39062 43.5312 10.9531
Q47.4062 15.5312 47.4062 23.3906
Q47.4062 31.2969 43.5312 35.8281
Q39.6562 40.375 33.0156 40.375
M52.5938 71.2969
L52.5938 62.3125
Q48.875 64.0625 45.0938 64.9844
Q41.3125 65.9219 37.5938 65.9219
Q27.8281 65.9219 22.6719 59.3281
Q17.5312 52.7344 16.7969 39.4062
Q19.6719 43.6562 24.0156 45.9219
Q28.375 48.1875 33.5938 48.1875
Q44.5781 48.1875 50.9531 41.5156
Q57.3281 34.8594 57.3281 23.3906
Q57.3281 12.1562 50.6875 5.35938
Q44.0469 -1.42188 33.0156 -1.42188
Q20.3594 -1.42188 13.6719 8.26562
Q6.98438 17.9688 6.98438 36.375
Q6.98438 53.6562 15.1875 63.9375
Q23.3906 74.2188 37.2031 74.2188
Q40.9219 74.2188 44.7031 73.4844
Q48.4844 72.75 52.5938 71.2969" id="DejaVuSans-36"/>
       <path d="
M10.5938 35.5
L73.1875 35.5
L73.1875 27.2031
L10.5938 27.2031
z
" id="DejaVuSans-2212"/>
      </defs>
      <g transform="translate(58.880625 394.897)scale(0.12 -0.12)">
       <use xlink:href="#DejaVuSans-2212"/>
       <use x="83.7890625" xlink:href="#DejaVuSans-36"/>
      </g>
     </g>
    </g>
    <g id="xtick_2">
     <g id="line2d_5">
      <path clip-path="url(#p9dab66bff7)" d="
M124.936 381.779
L124.936 19.26" style="fill:none;stroke:#000000;stroke-dasharray:1.000000,3.000000;stroke-dashoffset:0.0;stroke-width:0.5;"/>
     </g>
     <g id="line2d_6">
      <g>
       <use style="stroke:#000000;stroke-width:0.5;" x="124.935703125" xlink:href="#m93b0483c22" y="381.778875"/>
      </g>
     </g>
     <g id="line2d_7">
      <g>
       <use style="stroke:#000000;stroke-width:0.5;" x="124.935703125" xlink:href="#m741efc42ff" y="19.26"/>
      </g>
     </g>
     <g id="text_2">
      <!-- −4 -->
      <defs>
       <path d="
M37.7969 64.3125
L12.8906 25.3906
L37.7969 25.3906
z

M35.2031 72.9062
L47.6094 72.9062
L47.6094 25.3906
L58.0156 25.3906
L58.0156 17.1875
L47.6094 17.1875
L47.6094 0
L37.7969 0
L37.7969 17.1875
L4.89062 17.1875
L4.89062 26.7031
z
" id="DejaVuSans-34"/>
      </defs>
      <g transform="translate(117.062578125 394.897)scale(0.12 -0.12)">
       <use xlink:href="#DejaVuSans-2212"/>
       <use x="83.7890625" xlink:href="#DejaVuSans-34"/>
      </g>
     </g>
    </g>
    <g id="xtick_3">
     <g id="line2d_8">
      <path clip-path="url(#p9dab66bff7)" d="
M183.159 381.779
L183.159 19.26" style="fill:none;stroke:#000000;stroke-dasharray:1.000000,3.000000;stroke-dashoffset:0.0;stroke-width:0.5;"/>
     </g>
     <g id="line2d_9">
      <g>
       <use style="stroke:#000000;stroke-width:0.5;" x="183.15890625" xlink:href="#m93b0483c22" y="381.778875"/>
      </g>
     </g>
     <g id="line2d_10">
      <g>
       <use style="stroke:#000000;stroke-width:0.5;" x="183.15890625" xlink:href="#m741efc42ff" y="19.26"/>
      </g>
     </g>
     <g id="text_3">
      <!-- −2 -->
      <defs>
       <path d="
M19.1875 8.29688
L53.6094 8.29688
L53.6094 0
L7.32812 0
L7.32812 8.29688
Q12.9375 14.1094 22.625 23.8906
Q32.3281 33.6875 34.8125 36.5312
Q39.5469 41.8438 41.4219 45.5312
Q43.3125 49.2188 43.3125 52.7812
Q43.3125 58.5938 39.2344 62.25
Q35.1562 65.9219 28.6094 65.9219
Q23.9688 65.9219 18.8125 64.3125
Q13.6719 62.7031 7.8125 59.4219
L7.8125 69.3906
Q13.7656 71.7812 18.9375 73
Q24.125 74.2188 28.4219 74.2188
Q39.75 74.2188 46.4844 68.5469
Q53.2188 62.8906 53.2188 53.4219
Q53.2188 48.9219 51.5312 44.8906
Q49.8594 40.875 45.4062 35.4062
Q44.1875 33.9844 37.6406 27.2188
Q31.1094 20.4531 19.1875 8.29688" id="DejaVuSans-32"/>
      </defs>
      <g transform="translate(175.55015625 394.897)scale(0.12 -0.12)">
       <use xlink:href="#DejaVuSans-2212"/>
       <use x="83.7890625" xlink:href="#DejaVuSans-32"/>
      </g>
     </g>
    </g>
    <g id="xtick_4">
     <g id="line2d_11">
      <path clip-path="url(#p9dab66bff7)" d="
M241.382 381.779
L241.382 19.26" style="fill:none;stroke:#000000;stroke-dasharray:1.000000,3.000000;stroke-dashoffset:0.0;stroke-width:0.5;"/>
     </g>
     <g id="line2d_12">
      <g>
       <use style="stroke:#000000;stroke-width:0.5;" x="241.382109375" xlink:href="#m93b0483c22" y="381.778875"/>
      </g>
     </g>
     <g id="line2d_13">
      <g>
       <use style="stroke:#000000;stroke-width:0.5;" x="241.382109375" xlink:href="#m741efc42ff" y="19.26"/>
      </g>
     </g>
     <g id="text_4">
      <!-- 0 -->
      <defs>
       <path d="
M31.7812 66.4062
Q24.1719 66.4062 20.3281 58.9062
Q16.5 51.4219 16.5 36.375
Q16.5 21.3906 20.3281 13.8906
Q24.1719 6.39062 31.7812 6.39062
Q39.4531 6.39062 43.2812 13.8906
Q47.125 21.3906 47.125 36.375
Q47.125 51.4219 43.2812 58.9062
Q39.4531 66.4062 31.7812 66.4062
M31.7812 74.2188
Q44.0469 74.2188 50.5156 64.5156
Q56.9844 54.8281 56.9844 36.375
Q56.9844 17.9688 50.5156 8.26562
Q44.0469 -1.42188 31.7812 -1.42188
Q19.5312 -1.42188 13.0625 8.26562
Q6.59375 17.9688 6.59375 36.375
Q6.59375 54.8281 13.0625 64.5156
Q19.5312 74.2188 31.7812 74.2188" id="DejaVuSans-30"/>
      </defs>
      <g transform="translate(238.358671875 394.897)scale(0.12 -0.12)">
       <use xlink:href="#DejaVuSans-30"/>
      </g>
     </g>
    </g>
    <g id="xtick_5">
     <g id="line2d_14">
      <path clip-path="url(#p9dab66bff7)" d="
M299.605 381.779
L299.605 19.26" style="fill:none;stroke:#000000;stroke-dasharray:1.000000,3.000000;stroke-dashoffset:0.0;stroke-width:0.5;"/>
     </g>
     <g id="line2d_15">
      <g>
       <use style="stroke:#000000;stroke-width:0.5;" x="299.6053125" xlink:href="#m93b0483c22" y="381.778875"/>
      </g>
     </g>
     <g id="line2d_16">
      <g>
       <use style="stroke:#000000;stroke-width:0.5;" x="299.6053125" xlink:href="#m741efc42ff" y="19.26"/>
      </g>
     </g>
     <g id="text_5">
      <!-- 2 -->
      <g transform="translate(296.8284375 394.897)scale(0.12 -0.12)">
       <use xlink:href="#DejaVuSans-32"/>
      </g>
     </g>
    </g>
    <g id="xtick_6">
     <g id="line2d_17">
      <path clip-path="url(#p9dab66bff7)" d="
M357.829 381.779
L357.829 19.26" style="fill:none;stroke:#000000;stroke-dasharray:1.000000,3.000000;stroke-dashoffset:0.0;stroke-width:0.5;"/>
     </g>
     <g id="line2d_18">
      <g>
       <use style="stroke:#000000;stroke-width:0.5;" x="357.828515625" xlink:href="#m93b0483c22" y="381.778875"/>
      </g>
     </g>
     <g id="line2d_19">
      <g>
       <use style="stroke:#000000;stroke-width:0.5;" x="357.828515625" xlink:href="#m741efc42ff" y="19.26"/>
      </g>
     </g>
     <g id="text_6">
      <!-- 4 -->
      <g transform="translate(354.641015625 394.897)scale(0.12 -0.12)">
       <use xlink:href="#DejaVuSans-34"/>
      </g>
     </g>
    </g>
    <g id="xtick_7">
     <g id="line2d_20">
      <path clip-path="url(#p9dab66bff7)" d="
M416.052 381.779
L416.052 19.26" style="fill:none;stroke:#000000;stroke-dasharray:1.000000,3.000000;stroke-dashoffset:0.0;stroke-width:0.5;"/>
     </g>
     <g id="line2d_21">
      <g>
       <use style="stroke:#000000;stroke-width:0.5;" x="416.05171875" xlink:href="#m93b0483c22" y="381.778875"/>
      </g>
     </g>
     <g id="line2d_22">
      <g>
       <use style="stroke:#000000;stroke-width:0.5;" x="416.05171875" xlink:href="#m741efc42ff" y="19.26"/>
      </g>
     </g>
     <g id="text_7">
      <!-- 6 -->
      <g transform="translate(413.03109375 394.897)scale(0.12 -0.12)">
       <use xlink:href="#DejaVuSans-36"/>
      </g>
     </g>
    </g>
    <g id="xtick_8">
     <g id="line2d_23">
      <defs>
       <path d="
M0 0
L0 -2" id="m177f7580d0" style="stroke:#000000;stroke-width:0.5;"/>
      </defs>
      <g>
       <use style="stroke:#000000;stroke-width:0.5;" x="81.2683007813" xlink:href="#m177f7580d0" y="381.778875"/>
      </g>
     </g>
     <g id="line2d_24">
      <defs>
       <path d="
M0 0
L0 2" id="m5284c7e2a0" style="stroke:#000000;stroke-width:0.5;"/>
      </defs>
      <g>
       <use style="stroke:#000000;stroke-width:0.5;" x="81.2683007813" xlink:href="#m5284c7e2a0" y="19.26"/>
      </g>
     </g>
    </g>
    <g id="xtick_9">
     <g id="line2d_25">
      <g>
       <use style="stroke:#000000;stroke-width:0.5;" x="95.8241015625" xlink:href="#m177f7580d0" y="381.778875"/>
      </g>
     </g>
     <g id="line2d_26">
      <g>
       <use style="stroke:#000000;stroke-width:0.5;" x="95.8241015625" xlink:href="#m5284c7e2a0" y="19.26"/>
      </g>
     </g>
    </g>
    <g id="xtick_10">
     <g id="line2d_27">
      <g>
       <use style="stroke:#000000;stroke-width:0.5;" x="110.379902344" xlink:href="#m177f7580d0" y="381.778875"/>
      </g>
     </g>
     <g id="line2d_28">
      <g>
       <use style="stroke:#000000;stroke-width:0.5;" x="110.379902344" xlink:href="#m5284c7e2a0" y="19.26"/>
      </g>
     </g>
    </g>
    <g id="xtick_11">
     <g id="line2d_29">
      <g>
       <use style="stroke:#000000;stroke-width:0.5;" x="139.491503906" xlink:href="#m177f7580d0" y="381.778875"/>
      </g>
     </g>
     <g id="line2d_30">
      <g>
       <use style="stroke:#000000;stroke-width:0.5;" x="139.491503906" xlink:href="#m5284c7e2a0" y="19.26"/>
      </g>
     </g>
    </g>
    <g id="xtick_12">
     <g id="line2d_31">
      <g>
       <use style="stroke:#000000;stroke-width:0.5;" x="154.047304688" xlink:href="#m177f7580d0" y="381.778875"/>
      </g>
     </g>
     <g id="line2d_32">
      <g>
       <use style="stroke:#000000;stroke-width:0.5;" x="154.047304688" xlink:href="#m5284c7e2a0" y="19.26"/>
      </g>
     </g>
    </g>
    <g id="xtick_13">
     <g id="line2d_33">
      <g>
       <use style="stroke:#000000;stroke-width:0.5;" x="168.603105469" xlink:href="#m177f7580d0" y="381.778875"/>
      </g>
     </g>
     <g id="line2d_34">
      <g>
       <use style="stroke:#000000;stroke-width:0.5;" x="168.603105469" xlink:href="#m5284c7e2a0" y="19.26"/>
      </g>
     </g>
    </g>
    <g id="xtick_14">
     <g id="line2d_35">
      <g>
       <use style="stroke:#000000;stroke-width:0.5;" x="197.714707031" xlink:href="#m177f7580d0" y="381.778875"/>
      </g>
     </g>
     <g id="line2d_36">
      <g>
       <use style="stroke:#000000;stroke-width:0.5;" x="197.714707031" xlink:href="#m5284c7e2a0" y="19.26"/>
      </g>
     </g>
    </g>
    <g id="xtick_15">
     <g id="line2d_37">
      <g>
       <use style="stroke:#000000;stroke-width:0.5;" x="212.270507812" xlink:href="#m177f7580d0" y="381.778875"/>
      </g>
     </g>
     <g id="line2d_38">
      <g>
       <use style="stroke:#000000;stroke-width:0.5;" x="212.270507812" xlink:href="#m5284c7e2a0" y="19.26"/>
      </g>
     </g>
    </g>
    <g id="xtick_16">
     <g id="line2d_39">
      <g>
       <use style="stroke:#000000;stroke-width:0.5;" x="226.826308594" xlink:href="#m177f7580d0" y="381.778875"/>
      </g>
     </g>
     <g id="line2d_40">
      <g>
       <use style="stroke:#000000;stroke-width:0.5;" x="226.826308594" xlink:href="#m5284c7e2a0" y="19.26"/>
      </g>
     </g>
    </g>
    <g id="xtick_17">
     <g id="line2d_41">
      <g>
       <use style="stroke:#000000;stroke-width:0.5;" x="255.937910156" xlink:href="#m177f7580d0" y="381.778875"/>
      </g>
     </g>
     <g id="line2d_42">
      <g>
       <use style="stroke:#000000;stroke-width:0.5;" x="255.937910156" xlink:href="#m5284c7e2a0" y="19.26"/>
      </g>
     </g>
    </g>
    <g id="xtick_18">
     <g id="line2d_43">
      <g>
       <use style="stroke:#000000;stroke-width:0.5;" x="270.493710937" xlink:href="#m177f7580d0" y="381.778875"/>
      </g>
     </g>
     <g id="line2d_44">
      <g>
       <use style="stroke:#000000;stroke-width:0.5;" x="270.493710937" xlink:href="#m5284c7e2a0" y="19.26"/>
      </g>
     </g>
    </g>
    <g id="xtick_19">
     <g id="line2d_45">
      <g>
       <use style="stroke:#000000;stroke-width:0.5;" x="285.049511719" xlink:href="#m177f7580d0" y="381.778875"/>
      </g>
     </g>
     <g id="line2d_46">
      <g>
       <use style="stroke:#000000;stroke-width:0.5;" x="285.049511719" xlink:href="#m5284c7e2a0" y="19.26"/>
      </g>
     </g>
    </g>
    <g id="xtick_20">
     <g id="line2d_47">
      <g>
       <use style="stroke:#000000;stroke-width:0.5;" x="314.161113281" xlink:href="#m177f7580d0" y="381.778875"/>
      </g>
     </g>
     <g id="line2d_48">
      <g>
       <use style="stroke:#000000;stroke-width:0.5;" x="314.161113281" xlink:href="#m5284c7e2a0" y="19.26"/>
      </g>
     </g>
    </g>
    <g id="xtick_21">
     <g id="line2d_49">
      <g>
       <use style="stroke:#000000;stroke-width:0.5;" x="328.716914062" xlink:href="#m177f7580d0" y="381.778875"/>
      </g>
     </g>
     <g id="line2d_50">
      <g>
       <use style="stroke:#000000;stroke-width:0.5;" x="328.716914062" xlink:href="#m5284c7e2a0" y="19.26"/>
      </g>
     </g>
    </g>
    <g id="xtick_22">
     <g id="line2d_51">
      <g>
       <use style="stroke:#000000;stroke-width:0.5;" x="343.272714844" xlink:href="#m177f7580d0" y="381.778875"/>
      </g>
     </g>
     <g id="line2d_52">
      <g>
       <use style="stroke:#000000;stroke-width:0.5;" x="343.272714844" xlink:href="#m5284c7e2a0" y="19.26"/>
      </g>
     </g>
    </g>
    <g id="xtick_23">
     <g id="line2d_53">
      <g>
       <use style="stroke:#000000;stroke-width:0.5;" x="372.384316406" xlink:href="#m177f7580d0" y="381.778875"/>
      </g>
     </g>
     <g id="line2d_54">
      <g>
       <use style="stroke:#000000;stroke-width:0.5;" x="372.384316406" xlink:href="#m5284c7e2a0" y="19.26"/>
      </g>
     </g>
    </g>
    <g id="xtick_24">
     <g id="line2d_55">
      <g>
       <use style="stroke:#000000;stroke-width:0.5;" x="386.940117187" xlink:href="#m177f7580d0" y="381.778875"/>
      </g>
     </g>
     <g id="line2d_56">
      <g>
       <use style="stroke:#000000;stroke-width:0.5;" x="386.940117187" xlink:href="#m5284c7e2a0" y="19.26"/>
      </g>
     </g>
    </g>
    <g id="xtick_25">
     <g id="line2d_57">
      <g>
       <use style="stroke:#000000;stroke-width:0.5;" x="401.495917969" xlink:href="#m177f7580d0" y="381.778875"/>
      </g>
     </g>
     <g id="line2d_58">
      <g>
       <use style="stroke:#000000;stroke-width:0.5;" x="401.495917969" xlink:href="#m5284c7e2a0" y="19.26"/>
      </g>
     </g>
    </g>
    <g id="text_8">
     <!-- $\mathcal{C}_{10}$ -->
     <defs>
      <path d="
M9.28125 0
L9.28125 3.51562
Q21.7812 3.51562 21.7812 6.6875
L21.7812 59.1875
Q16.6094 56.6875 8.6875 56.6875
L8.6875 60.2031
Q20.9531 60.2031 27.2031 66.6094
L28.6094 66.6094
Q28.9531 66.6094 29.2656 66.3281
Q29.5938 66.0625 29.5938 65.7188
L29.5938 6.6875
Q29.5938 3.51562 42.0938 3.51562
L42.0938 0
z
" id="Cmr10-31"/>
      <path d="
M25 -2.20312
Q12.75 -2.20312 8.32812 7.875
Q3.90625 17.9688 3.90625 31.8906
Q3.90625 40.5781 5.48438 48.2344
Q7.07812 55.9062 11.7812 61.25
Q16.5 66.6094 25 66.6094
Q31.5938 66.6094 35.7812 63.375
Q39.9844 60.1562 42.1875 55.0469
Q44.3906 49.9531 45.1875 44.1094
Q46 38.2812 46 31.8906
Q46 23.2969 44.4062 15.7969
Q42.8281 8.29688 38.1875 3.04688
Q33.5469 -2.20312 25 -2.20312
M25 0.390625
Q30.5625 0.390625 33.2969 6.09375
Q36.0312 11.8125 36.6719 18.75
Q37.3125 25.6875 37.3125 33.5
Q37.3125 41.0156 36.6719 47.3594
Q36.0312 53.7188 33.3125 58.8594
Q30.6094 64.0156 25 64.0156
Q19.3438 64.0156 16.6094 58.8281
Q13.875 53.6562 13.2344 47.3281
Q12.5938 41.0156 12.5938 33.5
Q12.5938 27.9375 12.8594 23
Q13.1406 18.0625 14.3125 12.8125
Q15.4844 7.5625 18.0938 3.96875
Q20.7031 0.390625 25 0.390625" id="Cmr10-30"/>
      <path d="
M19.6719 -2.39062
Q14.9375 -2.39062 11.4375 -0.5625
Q7.95312 1.26562 5.64062 4.5625
Q3.32812 7.85938 2.26562 11.8125
Q1.21875 15.7656 1.21875 20.3125
Q1.21875 29.25 4.51562 38.3594
Q7.8125 47.4688 13.7656 54.7188
Q19.7344 61.9688 27.9062 66.2344
Q36.0781 70.5156 45.5156 70.5156
L46.0938 70.5156
Q49.3594 70.5156 51.3906 68.8438
Q53.4219 67.1875 53.4219 64.0156
Q53.4219 61.2344 51.8125 57.4688
Q50.2031 53.7188 47.9062 49.6094
Q46.8281 47.7969 44.6562 46.4844
Q42.4844 45.1719 40.1875 44.9219
L39.7031 44.9219
Q39.0156 45.2656 39.0156 45.6094
Q39.0156 46.0469 40.5938 49.1719
Q42.1875 52.2969 43.3281 55.0469
Q44.4844 57.8125 44.4844 59.8125
Q44.4844 62.25 42.9375 63.4219
Q41.4062 64.5938 38.8125 64.5938
Q31.4531 64.5938 26.4375 61.0781
Q21.4375 57.5625 17.3906 50.6875
Q14.0156 44.875 12.0625 38.1094
Q10.1094 31.3438 10.1094 24.6094
Q10.1094 19.0938 11.8594 14.2344
Q13.625 9.375 17.4219 6.4375
Q21.2344 3.51562 27 3.51562
Q33.0625 3.51562 37.7969 8.01562
Q38.4219 8.6875 40.4062 11.2969
Q42.3906 13.9219 44.0938 15.1406
Q45.7969 16.3594 48.4844 16.6094
L49.0312 16.6094
Q49.7031 16.2656 49.7031 15.8281
Q49.7031 15.4375 49.4219 14.9844
Q46.5781 10.2969 41.7969 6.29688
Q37.0156 2.29688 31.2969 -0.046875
Q25.5938 -2.39062 20.3125 -2.39062
z
" id="Cmsy10-43"/>
     </defs>
     <g transform="translate(234.002109375 410.912625)scale(0.12 -0.12)">
      <use transform="translate(0.0 0.484375)" xlink:href="#Cmsy10-43"/>
      <use transform="translate(52.587890625 -25.025)scale(0.7)" xlink:href="#Cmr10-31"/>
      <use transform="translate(87.587890625 -25.025)scale(0.7)" xlink:href="#Cmr10-30"/>
     </g>
    </g>
   </g>
   <g id="matplotlib.axis_2">
    <g id="ytick_1">
     <g id="text_9">
      <!-- −0.6 -->
      <defs>
       <path d="
M10.6875 12.4062
L21 12.4062
L21 0
L10.6875 0
z
" id="DejaVuSans-2e"/>
      </defs>
      <g transform="translate(35.6 385.090125)scale(0.12 -0.12)">
       <use xlink:href="#DejaVuSans-2212"/>
       <use x="83.7890625" xlink:href="#DejaVuSans-30"/>
       <use x="147.412109375" xlink:href="#DejaVuSans-2e"/>
       <use x="179.19921875" xlink:href="#DejaVuSans-36"/>
      </g>
     </g>
    </g>
    <g id="ytick_2">
     <g id="line2d_59">
      <path clip-path="url(#p9dab66bff7)" d="
M66.7125 321.359
L416.052 321.359" style="fill:none;stroke:#000000;stroke-dasharray:1.000000,3.000000;stroke-dashoffset:0.0;stroke-width:0.5;"/>
     </g>
     <g id="line2d_60">
      <defs>
       <path d="
M0 0
L4 0" id="m728421d6d4" style="stroke:#000000;stroke-width:0.5;"/>
      </defs>
      <g>
       <use style="stroke:#000000;stroke-width:0.5;" x="66.7125" xlink:href="#m728421d6d4" y="321.3590625"/>
      </g>
     </g>
     <g id="line2d_61">
      <defs>
       <path d="
M0 0
L-4 0" id="mcb0005524f" style="stroke:#000000;stroke-width:0.5;"/>
      </defs>
      <g>
       <use style="stroke:#000000;stroke-width:0.5;" x="416.05171875" xlink:href="#mcb0005524f" y="321.3590625"/>
      </g>
     </g>
     <g id="text_10">
      <!-- −0.4 -->
      <g transform="translate(35.5175 324.6703125)scale(0.12 -0.12)">
       <use xlink:href="#DejaVuSans-2212"/>
       <use x="83.7890625" xlink:href="#DejaVuSans-30"/>
       <use x="147.412109375" xlink:href="#DejaVuSans-2e"/>
       <use x="179.19921875" xlink:href="#DejaVuSans-34"/>
      </g>
     </g>
    </g>
    <g id="ytick_3">
     <g id="line2d_62">
      <path clip-path="url(#p9dab66bff7)" d="
M66.7125 260.939
L416.052 260.939" style="fill:none;stroke:#000000;stroke-dasharray:1.000000,3.000000;stroke-dashoffset:0.0;stroke-width:0.5;"/>
     </g>
     <g id="line2d_63">
      <g>
       <use style="stroke:#000000;stroke-width:0.5;" x="66.7125" xlink:href="#m728421d6d4" y="260.93925"/>
      </g>
     </g>
     <g id="line2d_64">
      <g>
       <use style="stroke:#000000;stroke-width:0.5;" x="416.05171875" xlink:href="#mcb0005524f" y="260.93925"/>
      </g>
     </g>
     <g id="text_11">
      <!-- −0.2 -->
      <g transform="translate(36.04625 264.2505)scale(0.12 -0.12)">
       <use xlink:href="#DejaVuSans-2212"/>
       <use x="83.7890625" xlink:href="#DejaVuSans-30"/>
       <use x="147.412109375" xlink:href="#DejaVuSans-2e"/>
       <use x="179.19921875" xlink:href="#DejaVuSans-32"/>
      </g>
     </g>
    </g>
    <g id="ytick_4">
     <g id="line2d_65">
      <path clip-path="url(#p9dab66bff7)" d="
M66.7125 200.519
L416.052 200.519" style="fill:none;stroke:#000000;stroke-dasharray:1.000000,3.000000;stroke-dashoffset:0.0;stroke-width:0.5;"/>
     </g>
     <g id="line2d_66">
      <g>
       <use style="stroke:#000000;stroke-width:0.5;" x="66.7125" xlink:href="#m728421d6d4" y="200.5194375"/>
      </g>
     </g>
     <g id="line2d_67">
      <g>
       <use style="stroke:#000000;stroke-width:0.5;" x="416.05171875" xlink:href="#mcb0005524f" y="200.5194375"/>
      </g>
     </g>
     <g id="text_12">
      <!-- 0.0 -->
      <g transform="translate(45.216875 203.8306875)scale(0.12 -0.12)">
       <use xlink:href="#DejaVuSans-30"/>
       <use x="63.623046875" xlink:href="#DejaVuSans-2e"/>
       <use x="95.41015625" xlink:href="#DejaVuSans-30"/>
      </g>
     </g>
    </g>
    <g id="ytick_5">
     <g id="line2d_68">
      <path clip-path="url(#p9dab66bff7)" d="
M66.7125 140.1
L416.052 140.1" style="fill:none;stroke:#000000;stroke-dasharray:1.000000,3.000000;stroke-dashoffset:0.0;stroke-width:0.5;"/>
     </g>
     <g id="line2d_69">
      <g>
       <use style="stroke:#000000;stroke-width:0.5;" x="66.7125" xlink:href="#m728421d6d4" y="140.099625"/>
      </g>
     </g>
     <g id="line2d_70">
      <g>
       <use style="stroke:#000000;stroke-width:0.5;" x="416.05171875" xlink:href="#mcb0005524f" y="140.099625"/>
      </g>
     </g>
     <g id="text_13">
      <!-- 0.2 -->
      <g transform="translate(45.621875 143.410875)scale(0.12 -0.12)">
       <use xlink:href="#DejaVuSans-30"/>
       <use x="63.623046875" xlink:href="#DejaVuSans-2e"/>
       <use x="95.41015625" xlink:href="#DejaVuSans-32"/>
      </g>
     </g>
    </g>
    <g id="ytick_6">
     <g id="line2d_71">
      <path clip-path="url(#p9dab66bff7)" d="
M66.7125 79.6798
L416.052 79.6798" style="fill:none;stroke:#000000;stroke-dasharray:1.000000,3.000000;stroke-dashoffset:0.0;stroke-width:0.5;"/>
     </g>
     <g id="line2d_72">
      <g>
       <use style="stroke:#000000;stroke-width:0.5;" x="66.7125" xlink:href="#m728421d6d4" y="79.6798125"/>
      </g>
     </g>
     <g id="line2d_73">
      <g>
       <use style="stroke:#000000;stroke-width:0.5;" x="416.05171875" xlink:href="#mcb0005524f" y="79.6798125"/>
      </g>
     </g>
     <g id="text_14">
      <!-- 0.4 -->
      <g transform="translate(45.093125 82.9910625)scale(0.12 -0.12)">
       <use xlink:href="#DejaVuSans-30"/>
       <use x="63.623046875" xlink:href="#DejaVuSans-2e"/>
       <use x="95.41015625" xlink:href="#DejaVuSans-34"/>
      </g>
     </g>
    </g>
    <g id="ytick_7">
     <g id="text_15">
      <!-- 0.6 -->
      <g transform="translate(45.175625 22.57125)scale(0.12 -0.12)">
       <use xlink:href="#DejaVuSans-30"/>
       <use x="63.623046875" xlink:href="#DejaVuSans-2e"/>
       <use x="95.41015625" xlink:href="#DejaVuSans-36"/>
      </g>
     </g>
    </g>
    <g id="ytick_8">
     <g id="line2d_74">
      <defs>
       <path d="
M0 0
L2 0" id="mf0c55a9a47" style="stroke:#000000;stroke-width:0.5;"/>
      </defs>
      <g>
       <use style="stroke:#000000;stroke-width:0.5;" x="66.7125" xlink:href="#mf0c55a9a47" y="366.673921875"/>
      </g>
     </g>
     <g id="line2d_75">
      <defs>
       <path d="
M0 0
L-2 0" id="ma4f294b3af" style="stroke:#000000;stroke-width:0.5;"/>
      </defs>
      <g>
       <use style="stroke:#000000;stroke-width:0.5;" x="416.05171875" xlink:href="#ma4f294b3af" y="366.673921875"/>
      </g>
     </g>
    </g>
    <g id="ytick_9">
     <g id="line2d_76">
      <g>
       <use style="stroke:#000000;stroke-width:0.5;" x="66.7125" xlink:href="#mf0c55a9a47" y="351.56896875"/>
      </g>
     </g>
     <g id="line2d_77">
      <g>
       <use style="stroke:#000000;stroke-width:0.5;" x="416.05171875" xlink:href="#ma4f294b3af" y="351.56896875"/>
      </g>
     </g>
    </g>
    <g id="ytick_10">
     <g id="line2d_78">
      <g>
       <use style="stroke:#000000;stroke-width:0.5;" x="66.7125" xlink:href="#mf0c55a9a47" y="336.464015625"/>
      </g>
     </g>
     <g id="line2d_79">
      <g>
       <use style="stroke:#000000;stroke-width:0.5;" x="416.05171875" xlink:href="#ma4f294b3af" y="336.464015625"/>
      </g>
     </g>
    </g>
    <g id="ytick_11">
     <g id="line2d_80">
      <g>
       <use style="stroke:#000000;stroke-width:0.5;" x="66.7125" xlink:href="#mf0c55a9a47" y="306.254109375"/>
      </g>
     </g>
     <g id="line2d_81">
      <g>
       <use style="stroke:#000000;stroke-width:0.5;" x="416.05171875" xlink:href="#ma4f294b3af" y="306.254109375"/>
      </g>
     </g>
    </g>
    <g id="ytick_12">
     <g id="line2d_82">
      <g>
       <use style="stroke:#000000;stroke-width:0.5;" x="66.7125" xlink:href="#mf0c55a9a47" y="291.14915625"/>
      </g>
     </g>
     <g id="line2d_83">
      <g>
       <use style="stroke:#000000;stroke-width:0.5;" x="416.05171875" xlink:href="#ma4f294b3af" y="291.14915625"/>
      </g>
     </g>
    </g>
    <g id="ytick_13">
     <g id="line2d_84">
      <g>
       <use style="stroke:#000000;stroke-width:0.5;" x="66.7125" xlink:href="#mf0c55a9a47" y="276.044203125"/>
      </g>
     </g>
     <g id="line2d_85">
      <g>
       <use style="stroke:#000000;stroke-width:0.5;" x="416.05171875" xlink:href="#ma4f294b3af" y="276.044203125"/>
      </g>
     </g>
    </g>
    <g id="ytick_14">
     <g id="line2d_86">
      <g>
       <use style="stroke:#000000;stroke-width:0.5;" x="66.7125" xlink:href="#mf0c55a9a47" y="245.834296875"/>
      </g>
     </g>
     <g id="line2d_87">
      <g>
       <use style="stroke:#000000;stroke-width:0.5;" x="416.05171875" xlink:href="#ma4f294b3af" y="245.834296875"/>
      </g>
     </g>
    </g>
    <g id="ytick_15">
     <g id="line2d_88">
      <g>
       <use style="stroke:#000000;stroke-width:0.5;" x="66.7125" xlink:href="#mf0c55a9a47" y="230.72934375"/>
      </g>
     </g>
     <g id="line2d_89">
      <g>
       <use style="stroke:#000000;stroke-width:0.5;" x="416.05171875" xlink:href="#ma4f294b3af" y="230.72934375"/>
      </g>
     </g>
    </g>
    <g id="ytick_16">
     <g id="line2d_90">
      <g>
       <use style="stroke:#000000;stroke-width:0.5;" x="66.7125" xlink:href="#mf0c55a9a47" y="215.624390625"/>
      </g>
     </g>
     <g id="line2d_91">
      <g>
       <use style="stroke:#000000;stroke-width:0.5;" x="416.05171875" xlink:href="#ma4f294b3af" y="215.624390625"/>
      </g>
     </g>
    </g>
    <g id="ytick_17">
     <g id="line2d_92">
      <g>
       <use style="stroke:#000000;stroke-width:0.5;" x="66.7125" xlink:href="#mf0c55a9a47" y="185.414484375"/>
      </g>
     </g>
     <g id="line2d_93">
      <g>
       <use style="stroke:#000000;stroke-width:0.5;" x="416.05171875" xlink:href="#ma4f294b3af" y="185.414484375"/>
      </g>
     </g>
    </g>
    <g id="ytick_18">
     <g id="line2d_94">
      <g>
       <use style="stroke:#000000;stroke-width:0.5;" x="66.7125" xlink:href="#mf0c55a9a47" y="170.30953125"/>
      </g>
     </g>
     <g id="line2d_95">
      <g>
       <use style="stroke:#000000;stroke-width:0.5;" x="416.05171875" xlink:href="#ma4f294b3af" y="170.30953125"/>
      </g>
     </g>
    </g>
    <g id="ytick_19">
     <g id="line2d_96">
      <g>
       <use style="stroke:#000000;stroke-width:0.5;" x="66.7125" xlink:href="#mf0c55a9a47" y="155.204578125"/>
      </g>
     </g>
     <g id="line2d_97">
      <g>
       <use style="stroke:#000000;stroke-width:0.5;" x="416.05171875" xlink:href="#ma4f294b3af" y="155.204578125"/>
      </g>
     </g>
    </g>
    <g id="ytick_20">
     <g id="line2d_98">
      <g>
       <use style="stroke:#000000;stroke-width:0.5;" x="66.7125" xlink:href="#mf0c55a9a47" y="124.994671875"/>
      </g>
     </g>
     <g id="line2d_99">
      <g>
       <use style="stroke:#000000;stroke-width:0.5;" x="416.05171875" xlink:href="#ma4f294b3af" y="124.994671875"/>
      </g>
     </g>
    </g>
    <g id="ytick_21">
     <g id="line2d_100">
      <g>
       <use style="stroke:#000000;stroke-width:0.5;" x="66.7125" xlink:href="#mf0c55a9a47" y="109.88971875"/>
      </g>
     </g>
     <g id="line2d_101">
      <g>
       <use style="stroke:#000000;stroke-width:0.5;" x="416.05171875" xlink:href="#ma4f294b3af" y="109.88971875"/>
      </g>
     </g>
    </g>
    <g id="ytick_22">
     <g id="line2d_102">
      <g>
       <use style="stroke:#000000;stroke-width:0.5;" x="66.7125" xlink:href="#mf0c55a9a47" y="94.784765625"/>
      </g>
     </g>
     <g id="line2d_103">
      <g>
       <use style="stroke:#000000;stroke-width:0.5;" x="416.05171875" xlink:href="#ma4f294b3af" y="94.784765625"/>
      </g>
     </g>
    </g>
    <g id="ytick_23">
     <g id="line2d_104">
      <g>
       <use style="stroke:#000000;stroke-width:0.5;" x="66.7125" xlink:href="#mf0c55a9a47" y="79.6798125"/>
      </g>
     </g>
     <g id="line2d_105">
      <g>
       <use style="stroke:#000000;stroke-width:0.5;" x="416.05171875" xlink:href="#ma4f294b3af" y="79.6798125"/>
      </g>
     </g>
    </g>
    <g id="ytick_24">
     <g id="line2d_106">
      <g>
       <use style="stroke:#000000;stroke-width:0.5;" x="66.7125" xlink:href="#mf0c55a9a47" y="64.574859375"/>
      </g>
     </g>
     <g id="line2d_107">
      <g>
       <use style="stroke:#000000;stroke-width:0.5;" x="416.05171875" xlink:href="#ma4f294b3af" y="64.574859375"/>
      </g>
     </g>
    </g>
    <g id="ytick_25">
     <g id="line2d_108">
      <g>
       <use style="stroke:#000000;stroke-width:0.5;" x="66.7125" xlink:href="#mf0c55a9a47" y="49.46990625"/>
      </g>
     </g>
     <g id="line2d_109">
      <g>
       <use style="stroke:#000000;stroke-width:0.5;" x="416.05171875" xlink:href="#ma4f294b3af" y="49.46990625"/>
      </g>
     </g>
    </g>
    <g id="ytick_26">
     <g id="line2d_110">
      <g>
       <use style="stroke:#000000;stroke-width:0.5;" x="66.7125" xlink:href="#mf0c55a9a47" y="34.364953125"/>
      </g>
     </g>
     <g id="line2d_111">
      <g>
       <use style="stroke:#000000;stroke-width:0.5;" x="416.05171875" xlink:href="#ma4f294b3af" y="34.364953125"/>
      </g>
     </g>
    </g>
    <g id="text_16">
     <!-- $\mathcal{C}_{P}^{\prime}$ -->
     <defs>
      <path d="
M3.51562 5.42188
Q2.875 5.60938 2.875 6.39062
L15.0938 51.8125
Q15.6719 53.6562 17.0781 54.7812
Q18.5 55.9062 20.3125 55.9062
Q22.6562 55.9062 24.4375 54.3594
Q26.2188 52.8281 26.2188 50.4844
Q26.2188 49.4688 25.6875 48.1875
L7.625 4.98438
Q7.28125 4.29688 6.6875 4.29688
Q6.15625 4.29688 5 4.78125
Q3.85938 5.28125 3.51562 5.42188" id="Cmsy10-30"/>
      <path d="
M4.89062 0
Q3.90625 0 3.90625 1.3125
Q3.95312 1.5625 4.09375 2.17188
Q4.25 2.78125 4.51562 3.14062
Q4.78125 3.51562 5.17188 3.51562
Q11.2812 3.51562 13.7188 4.20312
Q14.9844 4.64062 15.5781 6.89062
L29.2969 61.8125
Q29.5 62.7969 29.5 63.1875
Q29.5 64.2656 28.3281 64.4062
Q26.4219 64.7969 21.0938 64.7969
Q20.125 64.7969 20.125 66.1094
Q20.1719 66.3594 20.3125 66.9688
Q20.4531 67.5781 20.7188 67.9375
Q21 68.3125 21.3906 68.3125
L55.9062 68.3125
Q60.6406 68.3125 65.0781 66.625
Q69.5312 64.9375 72.3594 61.4688
Q75.2031 58.0156 75.2031 53.0781
Q75.2031 46.7344 70.7344 41.75
Q66.2656 36.7656 59.5938 33.9844
Q52.9375 31.2031 46.6875 31.2031
L30.4219 31.2031
L24.3125 6.5
Q24.125 5.51562 24.125 5.07812
Q24.125 4.6875 24.2344 4.42188
Q24.3594 4.15625 24.5781 4.07812
Q24.8125 4 25.2969 3.90625
Q27.2031 3.51562 32.5156 3.51562
Q33.5 3.51562 33.5 2.20312
Q33.1562 0.78125 32.9531 0.390625
Q32.7656 0 31.7812 0
z

M30.9062 34.1875
L44.9219 34.1875
Q54.6406 34.1875 59.7188 39.4062
Q62.3125 42 63.9375 46.875
Q65.5781 51.7656 65.5781 55.7188
Q65.5781 60.6406 61.8125 62.7188
Q58.0625 64.7969 52.4844 64.7969
L42.9219 64.7969
Q40.1875 64.7969 39.2969 64.3281
Q38.4219 63.875 37.7031 61.375
z
" id="Cmmi10-50"/>
     </defs>
     <g transform="translate(27.3975 206.3994375)rotate(-90.0)scale(0.12 -0.12)">
      <use transform="translate(0.0 0.859375)" xlink:href="#Cmsy10-43"/>
      <use transform="translate(52.587890625 45.865625)scale(0.7)" xlink:href="#Cmsy10-30"/>
      <use transform="translate(52.587890625 -24.65)scale(0.7)" xlink:href="#Cmmi10-50"/>
     </g>
    </g>
   </g>
   <g id="patch_3">
    <path d="
M66.7125 19.26
L416.052 19.26" style="fill:none;stroke:#000000;"/>
   </g>
   <g id="patch_4">
    <path d="
M416.052 381.779
L416.052 19.26" style="fill:none;stroke:#000000;"/>
   </g>
   <g id="patch_5">
    <path d="
M66.7125 381.779
L416.052 381.779" style="fill:none;stroke:#000000;"/>
   </g>
   <g id="patch_6">
    <path d="
M66.7125 381.779
L66.7125 19.26" style="fill:none;stroke:#000000;"/>
   </g>
  </g>
 </g>
 <defs>
  <clipPath id="p9dab66bff7">
   <rect height="362.518875" width="349.33921875" x="66.7125" y="19.26"/>
  </clipPath>
 </defs>
</svg>
