<?xml version="1.0" encoding="utf-8" standalone="no"?>
<!DOCTYPE svg PUBLIC "-//W3C//DTD SVG 1.1//EN"
  "http://www.w3.org/Graphics/SVG/1.1/DTD/svg11.dtd">
<!-- Created with matplotlib (http://matplotlib.org/) -->
<svg height="432pt" version="1.1" viewBox="0 0 432 432" width="432pt" xmlns="http://www.w3.org/2000/svg" xmlns:xlink="http://www.w3.org/1999/xlink">
 <defs>
  <style type="text/css">
*{stroke-linecap:butt;stroke-linejoin:round;}
  </style>
 </defs>
 <g id="figure_1">
  <g id="patch_1">
   <path d="
M0 432
L432 432
L432 0
L0 0
z
" style="fill:#ffffff;"/>
  </g>
  <g id="axes_1">
   <g id="patch_2">
    <path d="
M64.7336 381.779
L416.052 381.779
L416.052 19.26
L64.7336 19.26
z
" style="fill:#ffffff;"/>
   </g>
   <g id="PathCollection_1">
    <defs>
     <path d="
M64.7336 -50.2211
L71.9034 -50.2211
L79.0731 -50.2211
L86.2429 -50.2211
L93.4127 -50.2211
L100.582 -50.2211
L107.752 -50.2211
L114.922 -50.2211
L122.092 -50.2211
L129.261 -50.2211
L136.431 -50.2211
L143.601 -50.2211
L150.771 -50.2211
L157.94 -50.2211
L165.11 -50.2211
L172.28 -50.2211
L179.45 -50.2211
L186.619 -50.2211
L193.789 -50.2211
L200.959 -50.2211
L208.129 -50.2211
L215.299 -50.2211
L222.468 -50.2211
L229.638 -50.2211
L236.808 -50.2211
L243.978 -50.2211
L251.147 -50.2211
L258.317 -50.2211
L265.487 -50.2211
L272.657 -50.2211
L279.826 -50.2211
L286.996 -50.2211
L294.166 -50.2211
L301.336 -50.2211
L308.505 -50.2211
L315.675 -50.2211
L322.845 -50.2211
L330.015 -50.2211
L337.184 -50.2211
L344.354 -50.2211
L351.524 -50.2211
L358.694 -50.2211
L365.863 -50.2211
L373.033 -50.2211
L380.203 -50.2211
L387.373 -50.2211
L394.542 -50.2211
L401.712 -50.2211
L408.882 -50.2211
L416.052 -50.2211
L416.052 -57.6195
L416.052 -65.0178
L416.052 -72.4162
L416.052 -79.8145
L416.052 -87.2128
L416.052 -94.6112
L416.052 -102.01
L416.052 -109.408
L416.052 -116.806
L416.052 -124.205
L416.052 -131.603
L416.052 -139.001
L416.052 -146.4
L416.052 -153.798
L416.052 -161.196
L416.052 -168.595
L416.052 -175.993
L416.052 -183.391
L416.052 -190.79
L416.052 -198.188
L416.052 -205.586
L416.052 -212.985
L416.052 -220.383
L416.052 -227.781
L416.052 -235.18
L416.052 -242.578
L416.052 -249.976
L416.052 -257.375
L416.052 -264.773
L416.052 -272.171
L416.052 -279.57
L416.052 -286.968
L416.052 -294.366
L416.052 -301.765
L416.052 -309.163
L416.052 -316.562
L416.052 -323.96
L416.052 -331.358
L416.052 -338.757
L416.052 -346.155
L416.052 -353.553
L416.052 -360.952
L416.052 -368.35
L416.052 -375.748
L416.052 -383.147
L416.052 -390.545
L416.052 -397.943
L416.052 -405.342
L416.052 -412.74
L408.882 -412.74
L401.712 -412.74
L394.542 -412.74
L387.373 -412.74
L380.203 -412.74
L373.033 -412.74
L365.863 -412.74
L358.694 -412.74
L351.524 -412.74
L344.354 -412.74
L337.184 -412.74
L330.015 -412.74
L322.845 -412.74
L315.675 -412.74
L308.505 -412.74
L301.336 -412.74
L294.166 -412.74
L286.996 -412.74
L279.826 -412.74
L272.657 -412.74
L265.487 -412.74
L258.317 -412.74
L251.147 -412.74
L243.978 -412.74
L236.808 -412.74
L229.638 -412.74
L222.468 -412.74
L215.299 -412.74
L208.129 -412.74
L200.959 -412.74
L193.789 -412.74
L186.619 -412.74
L179.45 -412.74
L172.28 -412.74
L165.11 -412.74
L157.94 -412.74
L150.771 -412.74
L143.601 -412.74
L136.431 -412.74
L129.261 -412.74
L122.092 -412.74
L114.922 -412.74
L107.752 -412.74
L100.582 -412.74
L93.4127 -412.74
L86.2429 -412.74
L79.0731 -412.74
L71.9034 -412.74
L64.7336 -412.74
L64.7336 -405.342
L64.7336 -397.943
L64.7336 -390.545
L64.7336 -383.147
L64.7336 -375.748
L64.7336 -368.35
L64.7336 -360.952
L64.7336 -353.553
L64.7336 -346.155
L64.7336 -338.757
L64.7336 -331.358
L64.7336 -323.96
L64.7336 -316.562
L64.7336 -309.163
L64.7336 -301.765
L64.7336 -294.366
L64.7336 -286.968
L64.7336 -279.57
L64.7336 -272.171
L64.7336 -264.773
L64.7336 -257.375
L64.7336 -249.976
L64.7336 -242.578
L64.7336 -235.18
L64.7336 -227.781
L64.7336 -220.383
L64.7336 -212.985
L64.7336 -205.586
L64.7336 -198.188
L64.7336 -190.79
L64.7336 -183.391
L64.7336 -175.993
L64.7336 -168.595
L64.7336 -161.196
L64.7336 -153.798
L64.7336 -146.4
L64.7336 -139.001
L64.7336 -131.603
L64.7336 -124.205
L64.7336 -116.806
L64.7336 -109.408
L64.7336 -102.01
L64.7336 -94.6112
L64.7336 -87.2128
L64.7336 -79.8145
L64.7336 -72.4162
L64.7336 -65.0178
L64.7336 -57.6195
L64.7336 -50.2211
M322.845 -85.6971
L320.16 -87.2128
L322.845 -88.5072
L324.203 -87.2128
L322.845 -85.6971
M337.184 -71.6928
L336.491 -72.4162
L337.184 -74.0824
L338.142 -72.4162
L337.184 -71.6928
M344.354 -77.5652
L341.116 -79.8145
L344.354 -83.5544
L346.154 -79.8145
L344.354 -77.5652
M351.524 -85.3974
L347.954 -87.2128
L344.354 -88.2703
L337.184 -90.4853
L330.015 -92.5614
L328.165 -94.6112
L323.394 -102.01
L322.845 -102.225
L318.845 -102.01
L315.801 -94.6112
L315.675 -94.2549
L308.505 -91.9927
L305.399 -94.6112
L308.505 -99.9371
L314.344 -102.01
L308.505 -102.683
L301.336 -102.387
L294.32 -109.408
L294.166 -110.324
L286.996 -113.986
L283.723 -116.806
L279.826 -120.33
L278.285 -116.806
L272.657 -111.633
L266.439 -116.806
L265.487 -118.307
L258.317 -117.546
L251.147 -117.876
L249.802 -116.806
L243.978 -112.412
L239.212 -116.806
L236.808 -120.679
L229.638 -124.114
L229.539 -124.205
L224.829 -131.603
L222.468 -133.506
L215.299 -133.261
L210.183 -139.001
L209.292 -146.4
L210.142 -153.798
L208.129 -160.31
L205.232 -153.798
L207.005 -146.4
L200.959 -141.626
L195.459 -146.4
L198.286 -153.798
L193.789 -161.15
L186.619 -159.881
L182.762 -161.196
L179.45 -163.337
L176.486 -168.595
L172.28 -170.751
L169.439 -168.595
L165.11 -165.208
L160.702 -161.196
L157.94 -157.787
L154.975 -161.196
L150.771 -166.969
L143.601 -165.186
L136.431 -167.083
L134.331 -168.595
L129.261 -175.638
L129.059 -175.993
L125.028 -183.391
L122.092 -189.466
L120.275 -190.79
L122.092 -197.418
L123.619 -198.188
L122.092 -198.281
L114.922 -202.561
L111.124 -205.586
L114.922 -209.745
L117.588 -212.985
L114.922 -218.636
L107.752 -219.208
L102.464 -220.383
L105.651 -227.781
L107.752 -234.91
L107.849 -235.18
L107.752 -235.705
L106.233 -242.578
L103.786 -249.976
L103.333 -257.375
L103.444 -264.773
L105.132 -272.171
L103.095 -279.57
L100.582 -283.456
L99.1798 -286.968
L97.2918 -294.366
L100.582 -300.309
L101.375 -301.765
L101.556 -309.163
L100.582 -312.177
L98.9549 -316.562
L100.582 -319.571
L102.709 -323.96
L100.582 -328.319
L99.1772 -331.358
L100.582 -333.213
L102.469 -338.757
L100.582 -343.963
L98.2882 -346.155
L100.582 -348.129
L103.546 -353.553
L107.752 -358.36
L114.922 -360.84
L115.073 -360.952
L122.092 -365.583
L126.712 -368.35
L129.261 -372.35
L134.864 -368.35
L136.431 -367.646
L137.226 -368.35
L143.601 -373.04
L150.771 -373.122
L157.94 -373.761
L165.11 -368.858
L172.28 -372.499
L175.298 -368.35
L174.353 -360.952
L178.628 -353.553
L179.45 -352.416
L182.706 -353.553
L186.619 -355.487
L192.006 -353.553
L192.361 -346.155
L193.789 -339.624
L197.159 -346.155
L200.959 -349.312
L206.11 -353.553
L204.435 -360.952
L202.514 -368.35
L208.129 -373.923
L213.918 -368.35
L211.169 -360.952
L215.299 -354.903
L217.331 -353.553
L222.468 -349.093
L225.987 -353.553
L229.638 -357.806
L233.687 -353.553
L236.808 -350.616
L243.268 -346.155
L243.767 -338.757
L243.978 -337.901
L248.679 -338.757
L251.147 -346.155
L258.317 -342.983
L264.515 -338.757
L258.317 -332.012
L257.5 -331.358
L258.317 -329.003
L265.487 -324.485
L269.381 -323.96
L271.635 -316.562
L272.657 -312.099
L273.672 -309.163
L276.861 -301.765
L279.826 -296.58
L283.009 -301.765
L286.996 -305.722
L291.309 -301.765
L290.21 -294.366
L292.649 -286.968
L294.166 -281.935
L299.112 -286.968
L297.669 -294.366
L301.336 -297.575
L308.505 -296.112
L310.505 -294.366
L308.505 -290.086
L305.557 -286.968
L308.505 -286.667
L311.896 -286.968
L315.675 -288.736
L318.185 -286.968
L322.845 -284.695
L330.015 -284.147
L335.31 -286.968
L337.184 -289.459
L339.729 -286.968
L344.354 -285.176
L346.268 -286.968
L351.524 -291.184
L355.66 -286.968
L358.694 -281.932
L361.796 -279.57
L358.694 -275.29
L355.987 -272.171
L358.694 -270.278
L362.244 -264.773
L358.694 -259.532
L357.536 -257.375
L358.694 -251.678
L365.863 -253.076
L373.033 -254.049
L376.432 -257.375
L380.203 -261.271
L383.498 -257.375
L382 -249.976
L380.203 -248.296
L373.033 -243.915
L369.644 -242.578
L372.688 -235.18
L373.033 -234.383
L374.977 -227.781
L375.357 -220.383
L380.203 -214.592
L383.516 -212.985
L380.203 -210.937
L375.472 -205.586
L377.134 -198.188
L380.203 -195.43
L384.877 -190.79
L386.883 -183.391
L383.008 -175.993
L387.373 -170.438
L389.713 -168.595
L387.373 -166.427
L384.118 -161.196
L383.778 -153.798
L380.203 -149.301
L378.101 -146.4
L380.203 -141.734
L383.832 -139.001
L383.59 -131.603
L387.373 -124.797
L387.891 -124.205
L387.373 -123.712
L380.203 -121.405
L373.033 -119.681
L371.054 -116.806
L373.033 -111.396
L374.494 -109.408
L373.033 -108.467
L368.527 -102.01
L373.033 -95.7637
L374.065 -94.6112
L373.033 -91.2883
L365.863 -93.2814
L362.474 -94.6112
L361.343 -102.01
L358.694 -103.859
L356.352 -102.01
L357.765 -94.6112
L358.622 -87.2128
L351.524 -85.3974
M114.922 -381.484
L114.43 -383.147
L114.922 -383.609
L115.492 -383.147
L114.922 -381.484
M193.789 -355.299
L191.817 -360.952
L193.789 -362.981
L196.329 -360.952
L193.789 -355.299
M265.487 -350.456
L261.008 -353.553
L265.487 -356.294
L268.172 -353.553
L265.487 -350.456
M330.015 -293.336
L328.877 -294.366
L329.82 -301.765
L330.015 -301.967
L330.688 -301.765
L331.365 -294.366
L330.015 -293.336
M337.184 -305.043
L335.36 -309.163
L337.184 -310.486
L339.125 -309.163
L337.184 -305.043
M344.354 -293.16
L343.262 -294.366
L344.354 -295.406
L344.97 -294.366
L344.354 -293.16
M373.033 -74.7492
L368.342 -79.8145
L373.033 -86.4476
L377.894 -79.8145
L373.033 -74.7492" id="C0_0_e404d03cd6"/>
     <path d="
M107.752 -330.382
L108.313 -331.358
L107.752 -331.789
L105.309 -331.358
L107.752 -330.382" id="C0_1_de5f790a82"/>
     <path d="
M229.638 -344.449
L231.575 -346.155
L229.638 -348.391
L226.73 -346.155
L229.638 -344.449" id="C0_2_0b0136f081"/>
    </defs>
    <g clip-path="url(#p949199959d)">
     <use style="fill:#ffffff;" x="0.0" xlink:href="#C0_0_e404d03cd6" y="432.0"/>
    </g>
    <g clip-path="url(#p949199959d)">
     <use style="fill:#ffffff;" x="0.0" xlink:href="#C0_1_de5f790a82" y="432.0"/>
    </g>
    <g clip-path="url(#p949199959d)">
     <use style="fill:#ffffff;" x="0.0" xlink:href="#C0_2_0b0136f081" y="432.0"/>
    </g>
   </g>
   <g id="PathCollection_2">
    <defs>
     <path d="
M337.184 -71.6928
L338.142 -72.4162
L337.184 -74.0824
L336.491 -72.4162
L337.184 -71.6928" id="C1_0_5188ce0f43"/>
     <path d="
M344.354 -77.5652
L346.154 -79.8145
L344.354 -83.5544
L341.116 -79.8145
L344.354 -77.5652" id="C1_1_39bc9d476b"/>
     <path d="
M373.033 -74.7492
L377.894 -79.8145
L373.033 -86.4476
L368.342 -79.8145
L373.033 -74.7492" id="C1_2_87cdcc0b9b"/>
     <path d="
M322.845 -85.6971
L324.203 -87.2128
L322.845 -88.5072
L320.16 -87.2128
L322.845 -85.6971" id="C1_3_25da8629be"/>
     <path d="
M351.524 -85.3974
L358.622 -87.2128
L357.765 -94.6112
L356.352 -102.01
L358.694 -103.859
L361.343 -102.01
L362.474 -94.6112
L365.863 -93.2814
L373.033 -91.2883
L374.065 -94.6112
L373.033 -95.7637
L368.527 -102.01
L373.033 -108.467
L374.494 -109.408
L373.033 -111.396
L371.054 -116.806
L373.033 -119.681
L380.203 -121.405
L387.373 -123.712
L387.891 -124.205
L387.373 -124.797
L383.59 -131.603
L383.832 -139.001
L380.203 -141.734
L378.101 -146.4
L380.203 -149.301
L383.778 -153.798
L384.118 -161.196
L387.373 -166.427
L389.713 -168.595
L387.373 -170.438
L383.008 -175.993
L386.883 -183.391
L384.877 -190.79
L380.203 -195.43
L377.134 -198.188
L375.472 -205.586
L380.203 -210.937
L383.516 -212.985
L380.203 -214.592
L375.357 -220.383
L374.977 -227.781
L373.033 -234.383
L372.688 -235.18
L369.644 -242.578
L373.033 -243.915
L380.203 -248.296
L382 -249.976
L383.498 -257.375
L380.203 -261.271
L376.432 -257.375
L373.033 -254.049
L365.863 -253.076
L358.694 -251.678
L357.536 -257.375
L358.694 -259.532
L362.244 -264.773
L358.694 -270.278
L355.987 -272.171
L358.694 -275.29
L361.796 -279.57
L358.694 -281.932
L355.66 -286.968
L351.524 -291.184
L346.268 -286.968
L344.354 -285.176
L339.729 -286.968
L337.184 -289.459
L335.31 -286.968
L330.015 -284.147
L322.845 -284.695
L318.185 -286.968
L315.675 -288.736
L311.896 -286.968
L308.505 -286.667
L305.557 -286.968
L308.505 -290.086
L310.505 -294.366
L308.505 -296.112
L301.336 -297.575
L297.669 -294.366
L299.112 -286.968
L294.166 -281.935
L292.649 -286.968
L290.21 -294.366
L291.309 -301.765
L286.996 -305.722
L283.009 -301.765
L279.826 -296.58
L276.861 -301.765
L273.672 -309.163
L272.657 -312.099
L271.635 -316.562
L269.381 -323.96
L265.487 -324.485
L258.317 -329.003
L257.5 -331.358
L258.317 -332.012
L264.515 -338.757
L258.317 -342.983
L251.147 -346.155
L248.679 -338.757
L243.978 -337.901
L243.767 -338.757
L243.268 -346.155
L236.808 -350.616
L233.687 -353.553
L229.638 -357.806
L225.987 -353.553
L222.468 -349.093
L217.331 -353.553
L215.299 -354.903
L211.169 -360.952
L213.918 -368.35
L208.129 -373.923
L202.514 -368.35
L204.435 -360.952
L206.11 -353.553
L200.959 -349.312
L197.159 -346.155
L193.789 -339.624
L192.361 -346.155
L192.006 -353.553
L186.619 -355.487
L182.706 -353.553
L179.45 -352.416
L178.628 -353.553
L174.353 -360.952
L175.298 -368.35
L172.28 -372.499
L165.11 -368.858
L157.94 -373.761
L150.771 -373.122
L143.601 -373.04
L137.226 -368.35
L136.431 -367.646
L134.864 -368.35
L129.261 -372.35
L126.712 -368.35
L122.092 -365.583
L115.073 -360.952
L114.922 -360.84
L107.752 -358.36
L103.546 -353.553
L100.582 -348.129
L98.2882 -346.155
L100.582 -343.963
L102.469 -338.757
L100.582 -333.213
L99.1772 -331.358
L100.582 -328.319
L102.709 -323.96
L100.582 -319.571
L98.9549 -316.562
L100.582 -312.177
L101.556 -309.163
L101.375 -301.765
L100.582 -300.309
L97.2918 -294.366
L99.1798 -286.968
L100.582 -283.456
L103.095 -279.57
L105.132 -272.171
L103.444 -264.773
L103.333 -257.375
L103.786 -249.976
L106.233 -242.578
L107.752 -235.705
L107.849 -235.18
L107.752 -234.91
L105.651 -227.781
L102.464 -220.383
L107.752 -219.208
L114.922 -218.636
L117.588 -212.985
L114.922 -209.745
L111.124 -205.586
L114.922 -202.561
L122.092 -198.281
L123.619 -198.188
L122.092 -197.418
L120.275 -190.79
L122.092 -189.466
L125.028 -183.391
L129.059 -175.993
L129.261 -175.638
L134.331 -168.595
L136.431 -167.083
L143.601 -165.186
L150.771 -166.969
L154.975 -161.196
L157.94 -157.787
L160.702 -161.196
L165.11 -165.208
L169.439 -168.595
L172.28 -170.751
L176.486 -168.595
L179.45 -163.337
L182.762 -161.196
L186.619 -159.881
L193.789 -161.15
L198.286 -153.798
L195.459 -146.4
L200.959 -141.626
L207.005 -146.4
L205.232 -153.798
L208.129 -160.31
L210.142 -153.798
L209.292 -146.4
L210.183 -139.001
L215.299 -133.261
L222.468 -133.506
L224.829 -131.603
L229.539 -124.205
L229.638 -124.114
L236.808 -120.679
L239.212 -116.806
L243.978 -112.412
L249.802 -116.806
L251.147 -117.876
L258.317 -117.546
L265.487 -118.307
L266.439 -116.806
L272.657 -111.633
L278.285 -116.806
L279.826 -120.33
L283.723 -116.806
L286.996 -113.986
L294.166 -110.324
L294.32 -109.408
L301.336 -102.387
L308.505 -102.683
L314.344 -102.01
L308.505 -99.9371
L305.399 -94.6112
L308.505 -91.9927
L315.675 -94.2549
L315.801 -94.6112
L318.845 -102.01
L322.845 -102.225
L323.394 -102.01
L328.165 -94.6112
L330.015 -92.5614
L337.184 -90.4853
L344.354 -88.2703
L347.954 -87.2128
L351.524 -85.3974
M380.203 -182.37
L378.755 -183.391
L380.203 -184.529
L381.039 -183.391
L380.203 -182.37
M107.752 -330.382
L105.309 -331.358
L107.752 -331.789
L108.313 -331.358
L107.752 -330.382
M165.11 -197.09
L163.732 -198.188
L165.11 -202.78
L166.102 -198.188
L165.11 -197.09
M172.28 -204.579
L167.86 -205.586
L172.28 -209.212
L177.031 -205.586
L172.28 -204.579
M186.619 -202.935
L180.686 -205.586
L186.619 -208.346
L189.717 -205.586
L186.619 -202.935
M193.789 -175.515
L192.878 -175.993
L193.789 -176.774
L194.841 -175.993
L193.789 -175.515
M258.317 -126.888
L253.568 -131.603
L258.317 -136.569
L262.76 -131.603
L258.317 -126.888
M301.336 -143.318
L298.783 -146.4
L301.336 -152.819
L305.249 -146.4
L301.336 -143.318
M315.675 -119.463
L312.488 -124.205
L315.675 -129.822
L320.889 -124.205
L315.675 -119.463
M330.015 -125.603
L323.064 -131.603
L330.015 -138.629
L330.237 -139.001
L330.015 -140.042
L322.845 -141.09
L321.444 -139.001
L315.675 -133.538
L310.097 -139.001
L315.675 -145.638
L316.8 -146.4
L315.675 -147.365
L310.689 -153.798
L309.043 -161.196
L308.505 -161.972
L305.011 -161.196
L301.336 -156.982
L294.166 -155.631
L288.149 -161.196
L286.996 -168.059
L285.959 -161.196
L286.961 -153.798
L279.826 -152.625
L273.201 -153.798
L272.657 -153.967
L266.259 -161.196
L265.487 -163.045
L265.426 -161.196
L258.317 -153.882
L257.752 -153.798
L258.317 -152.31
L262.151 -146.4
L258.317 -143.918
L251.147 -144.646
L245.074 -146.4
L243.978 -147.005
L239.303 -153.798
L239.952 -161.196
L236.808 -163.01
L232.709 -161.196
L231.973 -153.798
L229.638 -152.088
L223.706 -153.798
L228.179 -161.196
L222.468 -168.01
L219.754 -168.595
L217.345 -175.993
L215.299 -179.528
L213.712 -175.993
L214.765 -168.595
L208.129 -165.085
L204.489 -168.595
L203.642 -175.993
L208.129 -180.964
L212.511 -183.391
L211.285 -190.79
L208.129 -194.223
L200.959 -190.79
L193.789 -197.124
L192.839 -198.188
L193.789 -199.462
L197.372 -205.586
L193.789 -209.895
L191.213 -212.985
L186.619 -217.669
L181.653 -220.383
L186.619 -223.666
L193.102 -227.781
L187.119 -235.18
L186.619 -238.63
L183.724 -235.18
L179.45 -230.812
L178.255 -227.781
L172.28 -223.331
L170.254 -220.383
L165.11 -214.115
L159.862 -220.383
L157.94 -223.649
L154.671 -220.383
L151.902 -212.985
L150.771 -212.225
L150.197 -212.985
L148.69 -220.383
L143.601 -223.07
L137.173 -220.383
L136.431 -219.431
L135.842 -220.383
L136.431 -226.341
L136.543 -227.781
L141.283 -235.18
L136.431 -241.102
L129.261 -240.585
L127.84 -242.578
L124.002 -249.976
L129.261 -254.457
L130.937 -257.375
L129.261 -261.75
L124.388 -264.773
L125.149 -272.171
L126.612 -279.57
L122.841 -286.968
L124.325 -294.366
L125.473 -301.765
L125.087 -309.163
L124.24 -316.562
L129.261 -322.304
L130.411 -323.96
L133.341 -331.358
L131.756 -338.757
L136.431 -343.404
L142.421 -338.757
L142.609 -331.358
L139.949 -323.96
L143.601 -320.898
L146.956 -323.96
L145.877 -331.358
L150.771 -333.954
L153.995 -331.358
L157.94 -326.055
L160.742 -323.96
L165.11 -317.89
L172.28 -319.458
L178.313 -316.562
L177.043 -309.163
L179.45 -304.483
L182.684 -309.163
L186.619 -314.514
L190.131 -316.562
L193.789 -317.785
L200.959 -321.811
L208.129 -318.926
L214.594 -323.96
L215.299 -324.606
L219.865 -331.358
L218.035 -338.757
L222.468 -342.919
L226.683 -338.757
L229.638 -332.011
L230.616 -331.358
L229.638 -329.122
L227.925 -323.96
L229.638 -320.977
L234.644 -323.96
L236.808 -324.968
L238.499 -323.96
L240.537 -316.562
L236.808 -309.557
L236.413 -309.163
L236.808 -307.627
L243.978 -304.318
L251.147 -302.386
L254.758 -301.765
L251.147 -297.627
L250.827 -294.366
L251.147 -293.993
L257.807 -294.366
L258.317 -294.793
L265.487 -296.639
L266.936 -294.366
L270.925 -286.968
L265.487 -281.203
L264.433 -279.57
L265.487 -278.074
L272.657 -277.014
L275.478 -272.171
L272.657 -266.971
L270.473 -264.773
L272.657 -263.374
L276.159 -264.773
L279.826 -266.423
L284.305 -264.773
L282.243 -257.375
L279.826 -255.966
L276.121 -249.976
L279.826 -245.132
L285.957 -249.976
L286.996 -251.96
L294.166 -252.811
L296.015 -249.976
L301.336 -247.718
L308.267 -242.578
L301.642 -235.18
L308.505 -229.405
L315.675 -229.298
L318.931 -235.18
L315.675 -238.761
L309.286 -242.578
L315.675 -245.295
L321.368 -242.578
L322.845 -241.195
L330.015 -241.069
L337.184 -240.717
L341.904 -235.18
L344.354 -233.349
L351.524 -227.839
L351.572 -227.781
L351.524 -227.67
L344.354 -221.231
L342.168 -220.383
L344.354 -217.988
L348.884 -212.985
L346.533 -205.586
L350.603 -198.188
L351.524 -192.757
L353.148 -190.79
L354.063 -183.391
L351.524 -177.341
L350.262 -175.993
L351.524 -174.782
L352.972 -175.993
L358.694 -178.401
L360.716 -175.993
L358.694 -172.699
L355.176 -168.595
L354.032 -161.196
L351.524 -156.628
L344.354 -156.28
L342.807 -153.798
L344.354 -151.653
L351.524 -146.864
L358.694 -152.306
L362.86 -146.4
L358.694 -141.122
L351.524 -146.249
L344.354 -141.791
L343.255 -139.001
L341.873 -131.603
L337.184 -125.795
L330.015 -125.603
M229.638 -344.449
L226.73 -346.155
L229.638 -348.391
L231.575 -346.155
L229.638 -344.449
M279.826 -279.382
L279.32 -279.57
L279.826 -279.996
L280.116 -279.57
L279.826 -279.382
M308.505 -254.815
L305.939 -257.375
L308.505 -258.968
L313.8 -264.773
L315.675 -267.552
L322.845 -267.304
L326.096 -264.773
L323.52 -257.375
L322.845 -256.833
L315.675 -253.754
L308.505 -254.815
M308.505 -278.439
L307.644 -279.57
L308.505 -280.313
L309.998 -279.57
L308.505 -278.439
M344.354 -111.684
L340.922 -116.806
L344.354 -119.116
L345.902 -116.806
L344.354 -111.684" id="C1_4_7136494c3f"/>
     <path d="
M294.166 -166.75
L298.498 -168.595
L294.166 -170.9
L287.305 -168.595
L294.166 -166.75" id="C1_5_0e5474e69a"/>
     <path d="
M279.826 -175.875
L286.996 -168.987
L288.912 -175.993
L286.996 -178.45
L279.826 -176.148
L279.638 -175.993
L279.826 -175.875" id="C1_6_9f276ee6b4"/>
     <path d="
M286.996 -187.247
L291.165 -190.79
L286.996 -194.55
L283.381 -190.79
L286.996 -187.247" id="C1_7_9b330a193a"/>
     <path d="
M272.657 -205.335
L272.689 -205.586
L272.657 -205.649
L272.61 -205.586
L272.657 -205.335" id="C1_8_daa82ff0b2"/>
     <path d="
M200.959 -210.546
L202.211 -212.985
L200.959 -217.432
L198.041 -212.985
L200.959 -210.546" id="C1_9_659c81aace"/>
     <path d="
M294.166 -210.504
L297.611 -212.985
L294.166 -218.804
L289.484 -212.985
L294.166 -210.504" id="C1_a_60863f9ba3"/>
     <path d="
M308.505 -215.624
L310.197 -220.383
L308.505 -226.363
L306.814 -220.383
L308.505 -215.624" id="C1_b_13038ae5bd"/>
     <path d="
M322.845 -218.647
L324.171 -220.383
L322.845 -221.799
L320.589 -220.383
L322.845 -218.647" id="C1_c_eab658f81f"/>
     <path d="
M165.11 -226.763
L166.629 -227.781
L165.11 -229.735
L163.272 -227.781
L165.11 -226.763" id="C1_d_fa2d05ac75"/>
     <path d="
M286.996 -232.475
L287.735 -235.18
L286.996 -237.627
L285.612 -235.18
L286.996 -232.475" id="C1_e_acf7209f4c"/>
     <path d="
M186.619 -289.255
L193.789 -294.008
L194.948 -294.366
L193.789 -295.017
L186.619 -301.23
L184.937 -294.366
L186.619 -289.255" id="C1_f_b21f87ad43"/>
     <path d="
M330.015 -293.336
L331.365 -294.366
L330.688 -301.765
L330.015 -301.967
L329.82 -301.765
L328.877 -294.366
L330.015 -293.336" id="C1_10_af52771e68"/>
     <path d="
M344.354 -293.16
L344.97 -294.366
L344.354 -295.406
L343.262 -294.366
L344.354 -293.16" id="C1_11_2192349523"/>
     <path d="
M215.299 -309.072
L215.419 -309.163
L215.299 -316.309
L215.131 -309.163
L215.299 -309.072" id="C1_12_d7a66650a7"/>
     <path d="
M337.184 -305.043
L339.125 -309.163
L337.184 -310.486
L335.36 -309.163
L337.184 -305.043" id="C1_13_239e5f291d"/>
     <path d="
M265.487 -350.456
L268.172 -353.553
L265.487 -356.294
L261.008 -353.553
L265.487 -350.456" id="C1_14_85623d7232"/>
     <path d="
M193.789 -355.299
L196.329 -360.952
L193.789 -362.981
L191.817 -360.952
L193.789 -355.299" id="C1_15_daa440b513"/>
     <path d="
M114.922 -381.484
L115.492 -383.147
L114.922 -383.609
L114.43 -383.147
L114.922 -381.484" id="C1_16_b88324dcd4"/>
    </defs>
    <g clip-path="url(#p949199959d)">
     <use style="fill:#0000ff;fill-opacity:0.5;" x="0.0" xlink:href="#C1_0_5188ce0f43" y="432.0"/>
    </g>
    <g clip-path="url(#p949199959d)">
     <use style="fill:#0000ff;fill-opacity:0.5;" x="0.0" xlink:href="#C1_1_39bc9d476b" y="432.0"/>
    </g>
    <g clip-path="url(#p949199959d)">
     <use style="fill:#0000ff;fill-opacity:0.5;" x="0.0" xlink:href="#C1_2_87cdcc0b9b" y="432.0"/>
    </g>
    <g clip-path="url(#p949199959d)">
     <use style="fill:#0000ff;fill-opacity:0.5;" x="0.0" xlink:href="#C1_3_25da8629be" y="432.0"/>
    </g>
    <g clip-path="url(#p949199959d)">
     <use style="fill:#0000ff;fill-opacity:0.5;" x="0.0" xlink:href="#C1_4_7136494c3f" y="432.0"/>
    </g>
    <g clip-path="url(#p949199959d)">
     <use style="fill:#0000ff;fill-opacity:0.5;" x="0.0" xlink:href="#C1_5_0e5474e69a" y="432.0"/>
    </g>
    <g clip-path="url(#p949199959d)">
     <use style="fill:#0000ff;fill-opacity:0.5;" x="0.0" xlink:href="#C1_6_9f276ee6b4" y="432.0"/>
    </g>
    <g clip-path="url(#p949199959d)">
     <use style="fill:#0000ff;fill-opacity:0.5;" x="0.0" xlink:href="#C1_7_9b330a193a" y="432.0"/>
    </g>
    <g clip-path="url(#p949199959d)">
     <use style="fill:#0000ff;fill-opacity:0.5;" x="0.0" xlink:href="#C1_8_daa82ff0b2" y="432.0"/>
    </g>
    <g clip-path="url(#p949199959d)">
     <use style="fill:#0000ff;fill-opacity:0.5;" x="0.0" xlink:href="#C1_9_659c81aace" y="432.0"/>
    </g>
    <g clip-path="url(#p949199959d)">
     <use style="fill:#0000ff;fill-opacity:0.5;" x="0.0" xlink:href="#C1_a_60863f9ba3" y="432.0"/>
    </g>
    <g clip-path="url(#p949199959d)">
     <use style="fill:#0000ff;fill-opacity:0.5;" x="0.0" xlink:href="#C1_b_13038ae5bd" y="432.0"/>
    </g>
    <g clip-path="url(#p949199959d)">
     <use style="fill:#0000ff;fill-opacity:0.5;" x="0.0" xlink:href="#C1_c_eab658f81f" y="432.0"/>
    </g>
    <g clip-path="url(#p949199959d)">
     <use style="fill:#0000ff;fill-opacity:0.5;" x="0.0" xlink:href="#C1_d_fa2d05ac75" y="432.0"/>
    </g>
    <g clip-path="url(#p949199959d)">
     <use style="fill:#0000ff;fill-opacity:0.5;" x="0.0" xlink:href="#C1_e_acf7209f4c" y="432.0"/>
    </g>
    <g clip-path="url(#p949199959d)">
     <use style="fill:#0000ff;fill-opacity:0.5;" x="0.0" xlink:href="#C1_f_b21f87ad43" y="432.0"/>
    </g>
    <g clip-path="url(#p949199959d)">
     <use style="fill:#0000ff;fill-opacity:0.5;" x="0.0" xlink:href="#C1_10_af52771e68" y="432.0"/>
    </g>
    <g clip-path="url(#p949199959d)">
     <use style="fill:#0000ff;fill-opacity:0.5;" x="0.0" xlink:href="#C1_11_2192349523" y="432.0"/>
    </g>
    <g clip-path="url(#p949199959d)">
     <use style="fill:#0000ff;fill-opacity:0.5;" x="0.0" xlink:href="#C1_12_d7a66650a7" y="432.0"/>
    </g>
    <g clip-path="url(#p949199959d)">
     <use style="fill:#0000ff;fill-opacity:0.5;" x="0.0" xlink:href="#C1_13_239e5f291d" y="432.0"/>
    </g>
    <g clip-path="url(#p949199959d)">
     <use style="fill:#0000ff;fill-opacity:0.5;" x="0.0" xlink:href="#C1_14_85623d7232" y="432.0"/>
    </g>
    <g clip-path="url(#p949199959d)">
     <use style="fill:#0000ff;fill-opacity:0.5;" x="0.0" xlink:href="#C1_15_daa440b513" y="432.0"/>
    </g>
    <g clip-path="url(#p949199959d)">
     <use style="fill:#0000ff;fill-opacity:0.5;" x="0.0" xlink:href="#C1_16_b88324dcd4" y="432.0"/>
    </g>
   </g>
   <g id="PathCollection_3">
    <defs>
     <path d="
M344.354 -111.684
L345.902 -116.806
L344.354 -119.116
L340.922 -116.806
L344.354 -111.684" id="C2_0_40163d6a46"/>
     <path d="
M315.675 -119.463
L320.889 -124.205
L315.675 -129.822
L312.488 -124.205
L315.675 -119.463" id="C2_1_cdf7188e49"/>
     <path d="
M258.317 -126.888
L262.76 -131.603
L258.317 -136.569
L253.568 -131.603
L258.317 -126.888" id="C2_2_e0094fa2c8"/>
     <path d="
M330.015 -125.603
L337.184 -125.795
L341.873 -131.603
L343.255 -139.001
L344.354 -141.791
L351.524 -146.249
L358.694 -141.122
L362.86 -146.4
L358.694 -152.306
L351.524 -146.864
L344.354 -151.653
L342.807 -153.798
L344.354 -156.28
L351.524 -156.628
L354.032 -161.196
L355.176 -168.595
L358.694 -172.699
L360.716 -175.993
L358.694 -178.401
L352.972 -175.993
L351.524 -174.782
L350.262 -175.993
L351.524 -177.341
L354.063 -183.391
L353.148 -190.79
L351.524 -192.757
L350.603 -198.188
L346.533 -205.586
L348.884 -212.985
L344.354 -217.988
L342.168 -220.383
L344.354 -221.231
L351.524 -227.67
L351.572 -227.781
L351.524 -227.839
L344.354 -233.349
L341.904 -235.18
L337.184 -240.717
L330.015 -241.069
L322.845 -241.195
L321.368 -242.578
L315.675 -245.295
L309.286 -242.578
L315.675 -238.761
L318.931 -235.18
L315.675 -229.298
L308.505 -229.405
L301.642 -235.18
L308.267 -242.578
L301.336 -247.718
L296.015 -249.976
L294.166 -252.811
L286.996 -251.96
L285.957 -249.976
L279.826 -245.132
L276.121 -249.976
L279.826 -255.966
L282.243 -257.375
L284.305 -264.773
L279.826 -266.423
L276.159 -264.773
L272.657 -263.374
L270.473 -264.773
L272.657 -266.971
L275.478 -272.171
L272.657 -277.014
L265.487 -278.074
L264.433 -279.57
L265.487 -281.203
L270.925 -286.968
L266.936 -294.366
L265.487 -296.639
L258.317 -294.793
L257.807 -294.366
L251.147 -293.993
L250.827 -294.366
L251.147 -297.627
L254.758 -301.765
L251.147 -302.386
L243.978 -304.318
L236.808 -307.627
L236.413 -309.163
L236.808 -309.557
L240.537 -316.562
L238.499 -323.96
L236.808 -324.968
L234.644 -323.96
L229.638 -320.977
L227.925 -323.96
L229.638 -329.122
L230.616 -331.358
L229.638 -332.011
L226.683 -338.757
L222.468 -342.919
L218.035 -338.757
L219.865 -331.358
L215.299 -324.606
L214.594 -323.96
L208.129 -318.926
L200.959 -321.811
L193.789 -317.785
L190.131 -316.562
L186.619 -314.514
L182.684 -309.163
L179.45 -304.483
L177.043 -309.163
L178.313 -316.562
L172.28 -319.458
L165.11 -317.89
L160.742 -323.96
L157.94 -326.055
L153.995 -331.358
L150.771 -333.954
L145.877 -331.358
L146.956 -323.96
L143.601 -320.898
L139.949 -323.96
L142.609 -331.358
L142.421 -338.757
L136.431 -343.404
L131.756 -338.757
L133.341 -331.358
L130.411 -323.96
L129.261 -322.304
L124.24 -316.562
L125.087 -309.163
L125.473 -301.765
L124.325 -294.366
L122.841 -286.968
L126.612 -279.57
L125.149 -272.171
L124.388 -264.773
L129.261 -261.75
L130.937 -257.375
L129.261 -254.457
L124.002 -249.976
L127.84 -242.578
L129.261 -240.585
L136.431 -241.102
L141.283 -235.18
L136.543 -227.781
L136.431 -226.341
L135.842 -220.383
L136.431 -219.431
L137.173 -220.383
L143.601 -223.07
L148.69 -220.383
L150.197 -212.985
L150.771 -212.225
L151.902 -212.985
L154.671 -220.383
L157.94 -223.649
L159.862 -220.383
L165.11 -214.115
L170.254 -220.383
L172.28 -223.331
L178.255 -227.781
L179.45 -230.812
L183.724 -235.18
L186.619 -238.63
L187.119 -235.18
L193.102 -227.781
L186.619 -223.666
L181.653 -220.383
L186.619 -217.669
L191.213 -212.985
L193.789 -209.895
L197.372 -205.586
L193.789 -199.462
L192.839 -198.188
L193.789 -197.124
L200.959 -190.79
L208.129 -194.223
L211.285 -190.79
L212.511 -183.391
L208.129 -180.964
L203.642 -175.993
L204.489 -168.595
L208.129 -165.085
L214.765 -168.595
L213.712 -175.993
L215.299 -179.528
L217.345 -175.993
L219.754 -168.595
L222.468 -168.01
L228.179 -161.196
L223.706 -153.798
L229.638 -152.088
L231.973 -153.798
L232.709 -161.196
L236.808 -163.01
L239.952 -161.196
L239.303 -153.798
L243.978 -147.005
L245.074 -146.4
L251.147 -144.646
L258.317 -143.918
L262.151 -146.4
L258.317 -152.31
L257.752 -153.798
L258.317 -153.882
L265.426 -161.196
L265.487 -163.045
L266.259 -161.196
L272.657 -153.967
L273.201 -153.798
L279.826 -152.625
L286.961 -153.798
L285.959 -161.196
L286.996 -168.059
L288.149 -161.196
L294.166 -155.631
L301.336 -156.982
L305.011 -161.196
L308.505 -161.972
L309.043 -161.196
L310.689 -153.798
L315.675 -147.365
L316.8 -146.4
L315.675 -145.638
L310.097 -139.001
L315.675 -133.538
L321.444 -139.001
L322.845 -141.09
L330.015 -140.042
L330.237 -139.001
L330.015 -138.629
L323.064 -131.603
L330.015 -125.603
M165.11 -226.763
L163.272 -227.781
L165.11 -229.735
L166.629 -227.781
L165.11 -226.763
M186.619 -289.255
L184.937 -294.366
L186.619 -301.23
L193.789 -295.017
L194.948 -294.366
L193.789 -294.008
L186.619 -289.255
M200.959 -210.546
L198.041 -212.985
L200.959 -217.432
L202.211 -212.985
L200.959 -210.546
M215.299 -309.072
L215.131 -309.163
L215.299 -316.309
L215.419 -309.163
L215.299 -309.072
M272.657 -205.335
L272.61 -205.586
L272.657 -205.649
L272.689 -205.586
L272.657 -205.335
M279.826 -175.875
L279.638 -175.993
L279.826 -176.148
L286.996 -178.45
L288.912 -175.993
L286.996 -168.987
L279.826 -175.875
M286.996 -187.247
L283.381 -190.79
L286.996 -194.55
L291.165 -190.79
L286.996 -187.247
M286.996 -232.475
L285.612 -235.18
L286.996 -237.627
L287.735 -235.18
L286.996 -232.475
M294.166 -166.75
L287.305 -168.595
L294.166 -170.9
L298.498 -168.595
L294.166 -166.75
M294.166 -210.504
L289.484 -212.985
L294.166 -218.804
L297.611 -212.985
L294.166 -210.504
M308.505 -215.624
L306.814 -220.383
L308.505 -226.363
L310.197 -220.383
L308.505 -215.624
M322.845 -218.647
L320.589 -220.383
L322.845 -221.799
L324.171 -220.383
L322.845 -218.647" id="C2_3_eb38508692"/>
     <path d="
M301.336 -143.318
L305.249 -146.4
L301.336 -152.819
L298.783 -146.4
L301.336 -143.318" id="C2_4_947af14e60"/>
     <path d="
M193.789 -175.515
L194.841 -175.993
L193.789 -176.774
L192.878 -175.993
L193.789 -175.515" id="C2_5_bbab4b8b78"/>
     <path d="
M380.203 -182.37
L381.039 -183.391
L380.203 -184.529
L378.755 -183.391
L380.203 -182.37" id="C2_6_05e023a8c8"/>
     <path d="
M165.11 -197.09
L166.102 -198.188
L165.11 -202.78
L163.732 -198.188
L165.11 -197.09" id="C2_7_7d42471d96"/>
     <path d="
M172.28 -204.579
L177.031 -205.586
L172.28 -209.212
L167.86 -205.586
L172.28 -204.579" id="C2_8_83d73992bb"/>
     <path d="
M186.619 -202.935
L189.717 -205.586
L186.619 -208.346
L180.686 -205.586
L186.619 -202.935" id="C2_9_81c1dcda4c"/>
     <path d="
M308.505 -254.815
L315.675 -253.754
L322.845 -256.833
L323.52 -257.375
L326.096 -264.773
L322.845 -267.304
L315.675 -267.552
L313.8 -264.773
L308.505 -258.968
L305.939 -257.375
L308.505 -254.815" id="C2_a_703b53d135"/>
     <path d="
M279.826 -279.382
L280.116 -279.57
L279.826 -279.996
L279.32 -279.57
L279.826 -279.382" id="C2_b_3d58049b9a"/>
     <path d="
M308.505 -278.439
L309.998 -279.57
L308.505 -280.313
L307.644 -279.57
L308.505 -278.439" id="C2_c_61b20982a3"/>
    </defs>
    <g clip-path="url(#p949199959d)">
     <use style="fill:#0000ff;" x="0.0" xlink:href="#C2_0_40163d6a46" y="432.0"/>
    </g>
    <g clip-path="url(#p949199959d)">
     <use style="fill:#0000ff;" x="0.0" xlink:href="#C2_1_cdf7188e49" y="432.0"/>
    </g>
    <g clip-path="url(#p949199959d)">
     <use style="fill:#0000ff;" x="0.0" xlink:href="#C2_2_e0094fa2c8" y="432.0"/>
    </g>
    <g clip-path="url(#p949199959d)">
     <use style="fill:#0000ff;" x="0.0" xlink:href="#C2_3_eb38508692" y="432.0"/>
    </g>
    <g clip-path="url(#p949199959d)">
     <use style="fill:#0000ff;" x="0.0" xlink:href="#C2_4_947af14e60" y="432.0"/>
    </g>
    <g clip-path="url(#p949199959d)">
     <use style="fill:#0000ff;" x="0.0" xlink:href="#C2_5_bbab4b8b78" y="432.0"/>
    </g>
    <g clip-path="url(#p949199959d)">
     <use style="fill:#0000ff;" x="0.0" xlink:href="#C2_6_05e023a8c8" y="432.0"/>
    </g>
    <g clip-path="url(#p949199959d)">
     <use style="fill:#0000ff;" x="0.0" xlink:href="#C2_7_7d42471d96" y="432.0"/>
    </g>
    <g clip-path="url(#p949199959d)">
     <use style="fill:#0000ff;" x="0.0" xlink:href="#C2_8_83d73992bb" y="432.0"/>
    </g>
    <g clip-path="url(#p949199959d)">
     <use style="fill:#0000ff;" x="0.0" xlink:href="#C2_9_81c1dcda4c" y="432.0"/>
    </g>
    <g clip-path="url(#p949199959d)">
     <use style="fill:#0000ff;" x="0.0" xlink:href="#C2_a_703b53d135" y="432.0"/>
    </g>
    <g clip-path="url(#p949199959d)">
     <use style="fill:#0000ff;" x="0.0" xlink:href="#C2_b_3d58049b9a" y="432.0"/>
    </g>
    <g clip-path="url(#p949199959d)">
     <use style="fill:#0000ff;" x="0.0" xlink:href="#C2_c_61b20982a3" y="432.0"/>
    </g>
   </g>
   <g id="line2d_1">
    <path clip-path="url(#p949199959d)" d="
M118.423 200.519" style="fill:none;stroke:#fa8072;stroke-linecap:square;"/>
    <defs>
     <path d="
M-7.5 0
L7.5 0
M0 7.5
L0 -7.5" id="m415119b0dc" style="stroke:#fa8072;stroke-width:3;"/>
    </defs>
    <g clip-path="url(#p949199959d)">
     <use style="fill:#fa8072;stroke:#fa8072;stroke-width:3;" x="118.423297118" xlink:href="#m415119b0dc" y="200.5194375"/>
    </g>
   </g>
   <g id="matplotlib.axis_1">
    <g id="xtick_1">
     <g id="line2d_2">
      <path clip-path="url(#p949199959d)" d="
M64.7336 381.779
L64.7336 19.26" style="fill:none;stroke:#000000;stroke-dasharray:1.000000,3.000000;stroke-dashoffset:0.0;stroke-width:0.5;"/>
     </g>
     <g id="line2d_3">
      <defs>
       <path d="
M0 0
L0 -4" id="m93b0483c22" style="stroke:#000000;stroke-width:0.5;"/>
      </defs>
      <g>
       <use style="stroke:#000000;stroke-width:0.5;" x="64.733625" xlink:href="#m93b0483c22" y="381.778875"/>
      </g>
     </g>
     <g id="line2d_4">
      <defs>
       <path d="
M0 0
L0 4" id="m741efc42ff" style="stroke:#000000;stroke-width:0.5;"/>
      </defs>
      <g>
       <use style="stroke:#000000;stroke-width:0.5;" x="64.733625" xlink:href="#m741efc42ff" y="19.26"/>
      </g>
     </g>
     <g id="text_1">
      <!-- −6 -->
      <defs>
       <path d="
M33.0156 40.375
Q26.375 40.375 22.4844 35.8281
Q18.6094 31.2969 18.6094 23.3906
Q18.6094 15.5312 22.4844 10.9531
Q26.375 6.39062 33.0156 6.39062
Q39.6562 6.39062 43.5312 10.9531
Q47.4062 15.5312 47.4062 23.3906
Q47.4062 31.2969 43.5312 35.8281
Q39.6562 40.375 33.0156 40.375
M52.5938 71.2969
L52.5938 62.3125
Q48.875 64.0625 45.0938 64.9844
Q41.3125 65.9219 37.5938 65.9219
Q27.8281 65.9219 22.6719 59.3281
Q17.5312 52.7344 16.7969 39.4062
Q19.6719 43.6562 24.0156 45.9219
Q28.375 48.1875 33.5938 48.1875
Q44.5781 48.1875 50.9531 41.5156
Q57.3281 34.8594 57.3281 23.3906
Q57.3281 12.1562 50.6875 5.35938
Q44.0469 -1.42188 33.0156 -1.42188
Q20.3594 -1.42188 13.6719 8.26562
Q6.98438 17.9688 6.98438 36.375
Q6.98438 53.6562 15.1875 63.9375
Q23.3906 74.2188 37.2031 74.2188
Q40.9219 74.2188 44.7031 73.4844
Q48.4844 72.75 52.5938 71.2969" id="DejaVuSans-36"/>
       <path d="
M10.5938 35.5
L73.1875 35.5
L73.1875 27.2031
L10.5938 27.2031
z
" id="DejaVuSans-2212"/>
      </defs>
      <g transform="translate(56.90175 394.897)scale(0.12 -0.12)">
       <use xlink:href="#DejaVuSans-2212"/>
       <use x="83.7890625" xlink:href="#DejaVuSans-36"/>
      </g>
     </g>
    </g>
    <g id="xtick_2">
     <g id="line2d_5">
      <path clip-path="url(#p949199959d)" d="
M123.287 381.779
L123.287 19.26" style="fill:none;stroke:#000000;stroke-dasharray:1.000000,3.000000;stroke-dashoffset:0.0;stroke-width:0.5;"/>
     </g>
     <g id="line2d_6">
      <g>
       <use style="stroke:#000000;stroke-width:0.5;" x="123.286640625" xlink:href="#m93b0483c22" y="381.778875"/>
      </g>
     </g>
     <g id="line2d_7">
      <g>
       <use style="stroke:#000000;stroke-width:0.5;" x="123.286640625" xlink:href="#m741efc42ff" y="19.26"/>
      </g>
     </g>
     <g id="text_2">
      <!-- −4 -->
      <defs>
       <path d="
M37.7969 64.3125
L12.8906 25.3906
L37.7969 25.3906
z

M35.2031 72.9062
L47.6094 72.9062
L47.6094 25.3906
L58.0156 25.3906
L58.0156 17.1875
L47.6094 17.1875
L47.6094 0
L37.7969 0
L37.7969 17.1875
L4.89062 17.1875
L4.89062 26.7031
z
" id="DejaVuSans-34"/>
      </defs>
      <g transform="translate(115.413515625 394.897)scale(0.12 -0.12)">
       <use xlink:href="#DejaVuSans-2212"/>
       <use x="83.7890625" xlink:href="#DejaVuSans-34"/>
      </g>
     </g>
    </g>
    <g id="xtick_3">
     <g id="line2d_8">
      <path clip-path="url(#p949199959d)" d="
M181.84 381.779
L181.84 19.26" style="fill:none;stroke:#000000;stroke-dasharray:1.000000,3.000000;stroke-dashoffset:0.0;stroke-width:0.5;"/>
     </g>
     <g id="line2d_9">
      <g>
       <use style="stroke:#000000;stroke-width:0.5;" x="181.83965625" xlink:href="#m93b0483c22" y="381.778875"/>
      </g>
     </g>
     <g id="line2d_10">
      <g>
       <use style="stroke:#000000;stroke-width:0.5;" x="181.83965625" xlink:href="#m741efc42ff" y="19.26"/>
      </g>
     </g>
     <g id="text_3">
      <!-- −2 -->
      <defs>
       <path d="
M19.1875 8.29688
L53.6094 8.29688
L53.6094 0
L7.32812 0
L7.32812 8.29688
Q12.9375 14.1094 22.625 23.8906
Q32.3281 33.6875 34.8125 36.5312
Q39.5469 41.8438 41.4219 45.5312
Q43.3125 49.2188 43.3125 52.7812
Q43.3125 58.5938 39.2344 62.25
Q35.1562 65.9219 28.6094 65.9219
Q23.9688 65.9219 18.8125 64.3125
Q13.6719 62.7031 7.8125 59.4219
L7.8125 69.3906
Q13.7656 71.7812 18.9375 73
Q24.125 74.2188 28.4219 74.2188
Q39.75 74.2188 46.4844 68.5469
Q53.2188 62.8906 53.2188 53.4219
Q53.2188 48.9219 51.5312 44.8906
Q49.8594 40.875 45.4062 35.4062
Q44.1875 33.9844 37.6406 27.2188
Q31.1094 20.4531 19.1875 8.29688" id="DejaVuSans-32"/>
      </defs>
      <g transform="translate(174.23090625 394.897)scale(0.12 -0.12)">
       <use xlink:href="#DejaVuSans-2212"/>
       <use x="83.7890625" xlink:href="#DejaVuSans-32"/>
      </g>
     </g>
    </g>
    <g id="xtick_4">
     <g id="line2d_11">
      <path clip-path="url(#p949199959d)" d="
M240.393 381.779
L240.393 19.26" style="fill:none;stroke:#000000;stroke-dasharray:1.000000,3.000000;stroke-dashoffset:0.0;stroke-width:0.5;"/>
     </g>
     <g id="line2d_12">
      <g>
       <use style="stroke:#000000;stroke-width:0.5;" x="240.392671875" xlink:href="#m93b0483c22" y="381.778875"/>
      </g>
     </g>
     <g id="line2d_13">
      <g>
       <use style="stroke:#000000;stroke-width:0.5;" x="240.392671875" xlink:href="#m741efc42ff" y="19.26"/>
      </g>
     </g>
     <g id="text_4">
      <!-- 0 -->
      <defs>
       <path d="
M31.7812 66.4062
Q24.1719 66.4062 20.3281 58.9062
Q16.5 51.4219 16.5 36.375
Q16.5 21.3906 20.3281 13.8906
Q24.1719 6.39062 31.7812 6.39062
Q39.4531 6.39062 43.2812 13.8906
Q47.125 21.3906 47.125 36.375
Q47.125 51.4219 43.2812 58.9062
Q39.4531 66.4062 31.7812 66.4062
M31.7812 74.2188
Q44.0469 74.2188 50.5156 64.5156
Q56.9844 54.8281 56.9844 36.375
Q56.9844 17.9688 50.5156 8.26562
Q44.0469 -1.42188 31.7812 -1.42188
Q19.5312 -1.42188 13.0625 8.26562
Q6.59375 17.9688 6.59375 36.375
Q6.59375 54.8281 13.0625 64.5156
Q19.5312 74.2188 31.7812 74.2188" id="DejaVuSans-30"/>
      </defs>
      <g transform="translate(237.369234375 394.897)scale(0.12 -0.12)">
       <use xlink:href="#DejaVuSans-30"/>
      </g>
     </g>
    </g>
    <g id="xtick_5">
     <g id="line2d_14">
      <path clip-path="url(#p949199959d)" d="
M298.946 381.779
L298.946 19.26" style="fill:none;stroke:#000000;stroke-dasharray:1.000000,3.000000;stroke-dashoffset:0.0;stroke-width:0.5;"/>
     </g>
     <g id="line2d_15">
      <g>
       <use style="stroke:#000000;stroke-width:0.5;" x="298.9456875" xlink:href="#m93b0483c22" y="381.778875"/>
      </g>
     </g>
     <g id="line2d_16">
      <g>
       <use style="stroke:#000000;stroke-width:0.5;" x="298.9456875" xlink:href="#m741efc42ff" y="19.26"/>
      </g>
     </g>
     <g id="text_5">
      <!-- 2 -->
      <g transform="translate(296.1688125 394.897)scale(0.12 -0.12)">
       <use xlink:href="#DejaVuSans-32"/>
      </g>
     </g>
    </g>
    <g id="xtick_6">
     <g id="line2d_17">
      <path clip-path="url(#p949199959d)" d="
M357.499 381.779
L357.499 19.26" style="fill:none;stroke:#000000;stroke-dasharray:1.000000,3.000000;stroke-dashoffset:0.0;stroke-width:0.5;"/>
     </g>
     <g id="line2d_18">
      <g>
       <use style="stroke:#000000;stroke-width:0.5;" x="357.498703125" xlink:href="#m93b0483c22" y="381.778875"/>
      </g>
     </g>
     <g id="line2d_19">
      <g>
       <use style="stroke:#000000;stroke-width:0.5;" x="357.498703125" xlink:href="#m741efc42ff" y="19.26"/>
      </g>
     </g>
     <g id="text_6">
      <!-- 4 -->
      <g transform="translate(354.311203125 394.897)scale(0.12 -0.12)">
       <use xlink:href="#DejaVuSans-34"/>
      </g>
     </g>
    </g>
    <g id="xtick_7">
     <g id="line2d_20">
      <path clip-path="url(#p949199959d)" d="
M416.052 381.779
L416.052 19.26" style="fill:none;stroke:#000000;stroke-dasharray:1.000000,3.000000;stroke-dashoffset:0.0;stroke-width:0.5;"/>
     </g>
     <g id="line2d_21">
      <g>
       <use style="stroke:#000000;stroke-width:0.5;" x="416.05171875" xlink:href="#m93b0483c22" y="381.778875"/>
      </g>
     </g>
     <g id="line2d_22">
      <g>
       <use style="stroke:#000000;stroke-width:0.5;" x="416.05171875" xlink:href="#m741efc42ff" y="19.26"/>
      </g>
     </g>
     <g id="text_7">
      <!-- 6 -->
      <g transform="translate(413.03109375 394.897)scale(0.12 -0.12)">
       <use xlink:href="#DejaVuSans-36"/>
      </g>
     </g>
    </g>
    <g id="xtick_8">
     <g id="line2d_23">
      <defs>
       <path d="
M0 0
L0 -2" id="m177f7580d0" style="stroke:#000000;stroke-width:0.5;"/>
      </defs>
      <g>
       <use style="stroke:#000000;stroke-width:0.5;" x="79.3718789063" xlink:href="#m177f7580d0" y="381.778875"/>
      </g>
     </g>
     <g id="line2d_24">
      <defs>
       <path d="
M0 0
L0 2" id="m5284c7e2a0" style="stroke:#000000;stroke-width:0.5;"/>
      </defs>
      <g>
       <use style="stroke:#000000;stroke-width:0.5;" x="79.3718789063" xlink:href="#m5284c7e2a0" y="19.26"/>
      </g>
     </g>
    </g>
    <g id="xtick_9">
     <g id="line2d_25">
      <g>
       <use style="stroke:#000000;stroke-width:0.5;" x="94.0101328125" xlink:href="#m177f7580d0" y="381.778875"/>
      </g>
     </g>
     <g id="line2d_26">
      <g>
       <use style="stroke:#000000;stroke-width:0.5;" x="94.0101328125" xlink:href="#m5284c7e2a0" y="19.26"/>
      </g>
     </g>
    </g>
    <g id="xtick_10">
     <g id="line2d_27">
      <g>
       <use style="stroke:#000000;stroke-width:0.5;" x="108.648386719" xlink:href="#m177f7580d0" y="381.778875"/>
      </g>
     </g>
     <g id="line2d_28">
      <g>
       <use style="stroke:#000000;stroke-width:0.5;" x="108.648386719" xlink:href="#m5284c7e2a0" y="19.26"/>
      </g>
     </g>
    </g>
    <g id="xtick_11">
     <g id="line2d_29">
      <g>
       <use style="stroke:#000000;stroke-width:0.5;" x="137.924894531" xlink:href="#m177f7580d0" y="381.778875"/>
      </g>
     </g>
     <g id="line2d_30">
      <g>
       <use style="stroke:#000000;stroke-width:0.5;" x="137.924894531" xlink:href="#m5284c7e2a0" y="19.26"/>
      </g>
     </g>
    </g>
    <g id="xtick_12">
     <g id="line2d_31">
      <g>
       <use style="stroke:#000000;stroke-width:0.5;" x="152.563148438" xlink:href="#m177f7580d0" y="381.778875"/>
      </g>
     </g>
     <g id="line2d_32">
      <g>
       <use style="stroke:#000000;stroke-width:0.5;" x="152.563148438" xlink:href="#m5284c7e2a0" y="19.26"/>
      </g>
     </g>
    </g>
    <g id="xtick_13">
     <g id="line2d_33">
      <g>
       <use style="stroke:#000000;stroke-width:0.5;" x="167.201402344" xlink:href="#m177f7580d0" y="381.778875"/>
      </g>
     </g>
     <g id="line2d_34">
      <g>
       <use style="stroke:#000000;stroke-width:0.5;" x="167.201402344" xlink:href="#m5284c7e2a0" y="19.26"/>
      </g>
     </g>
    </g>
    <g id="xtick_14">
     <g id="line2d_35">
      <g>
       <use style="stroke:#000000;stroke-width:0.5;" x="196.477910156" xlink:href="#m177f7580d0" y="381.778875"/>
      </g>
     </g>
     <g id="line2d_36">
      <g>
       <use style="stroke:#000000;stroke-width:0.5;" x="196.477910156" xlink:href="#m5284c7e2a0" y="19.26"/>
      </g>
     </g>
    </g>
    <g id="xtick_15">
     <g id="line2d_37">
      <g>
       <use style="stroke:#000000;stroke-width:0.5;" x="211.116164063" xlink:href="#m177f7580d0" y="381.778875"/>
      </g>
     </g>
     <g id="line2d_38">
      <g>
       <use style="stroke:#000000;stroke-width:0.5;" x="211.116164063" xlink:href="#m5284c7e2a0" y="19.26"/>
      </g>
     </g>
    </g>
    <g id="xtick_16">
     <g id="line2d_39">
      <g>
       <use style="stroke:#000000;stroke-width:0.5;" x="225.754417969" xlink:href="#m177f7580d0" y="381.778875"/>
      </g>
     </g>
     <g id="line2d_40">
      <g>
       <use style="stroke:#000000;stroke-width:0.5;" x="225.754417969" xlink:href="#m5284c7e2a0" y="19.26"/>
      </g>
     </g>
    </g>
    <g id="xtick_17">
     <g id="line2d_41">
      <g>
       <use style="stroke:#000000;stroke-width:0.5;" x="255.030925781" xlink:href="#m177f7580d0" y="381.778875"/>
      </g>
     </g>
     <g id="line2d_42">
      <g>
       <use style="stroke:#000000;stroke-width:0.5;" x="255.030925781" xlink:href="#m5284c7e2a0" y="19.26"/>
      </g>
     </g>
    </g>
    <g id="xtick_18">
     <g id="line2d_43">
      <g>
       <use style="stroke:#000000;stroke-width:0.5;" x="269.669179687" xlink:href="#m177f7580d0" y="381.778875"/>
      </g>
     </g>
     <g id="line2d_44">
      <g>
       <use style="stroke:#000000;stroke-width:0.5;" x="269.669179687" xlink:href="#m5284c7e2a0" y="19.26"/>
      </g>
     </g>
    </g>
    <g id="xtick_19">
     <g id="line2d_45">
      <g>
       <use style="stroke:#000000;stroke-width:0.5;" x="284.307433594" xlink:href="#m177f7580d0" y="381.778875"/>
      </g>
     </g>
     <g id="line2d_46">
      <g>
       <use style="stroke:#000000;stroke-width:0.5;" x="284.307433594" xlink:href="#m5284c7e2a0" y="19.26"/>
      </g>
     </g>
    </g>
    <g id="xtick_20">
     <g id="line2d_47">
      <g>
       <use style="stroke:#000000;stroke-width:0.5;" x="313.583941406" xlink:href="#m177f7580d0" y="381.778875"/>
      </g>
     </g>
     <g id="line2d_48">
      <g>
       <use style="stroke:#000000;stroke-width:0.5;" x="313.583941406" xlink:href="#m5284c7e2a0" y="19.26"/>
      </g>
     </g>
    </g>
    <g id="xtick_21">
     <g id="line2d_49">
      <g>
       <use style="stroke:#000000;stroke-width:0.5;" x="328.222195313" xlink:href="#m177f7580d0" y="381.778875"/>
      </g>
     </g>
     <g id="line2d_50">
      <g>
       <use style="stroke:#000000;stroke-width:0.5;" x="328.222195313" xlink:href="#m5284c7e2a0" y="19.26"/>
      </g>
     </g>
    </g>
    <g id="xtick_22">
     <g id="line2d_51">
      <g>
       <use style="stroke:#000000;stroke-width:0.5;" x="342.860449219" xlink:href="#m177f7580d0" y="381.778875"/>
      </g>
     </g>
     <g id="line2d_52">
      <g>
       <use style="stroke:#000000;stroke-width:0.5;" x="342.860449219" xlink:href="#m5284c7e2a0" y="19.26"/>
      </g>
     </g>
    </g>
    <g id="xtick_23">
     <g id="line2d_53">
      <g>
       <use style="stroke:#000000;stroke-width:0.5;" x="372.136957031" xlink:href="#m177f7580d0" y="381.778875"/>
      </g>
     </g>
     <g id="line2d_54">
      <g>
       <use style="stroke:#000000;stroke-width:0.5;" x="372.136957031" xlink:href="#m5284c7e2a0" y="19.26"/>
      </g>
     </g>
    </g>
    <g id="xtick_24">
     <g id="line2d_55">
      <g>
       <use style="stroke:#000000;stroke-width:0.5;" x="386.775210937" xlink:href="#m177f7580d0" y="381.778875"/>
      </g>
     </g>
     <g id="line2d_56">
      <g>
       <use style="stroke:#000000;stroke-width:0.5;" x="386.775210937" xlink:href="#m5284c7e2a0" y="19.26"/>
      </g>
     </g>
    </g>
    <g id="xtick_25">
     <g id="line2d_57">
      <g>
       <use style="stroke:#000000;stroke-width:0.5;" x="401.413464844" xlink:href="#m177f7580d0" y="381.778875"/>
      </g>
     </g>
     <g id="line2d_58">
      <g>
       <use style="stroke:#000000;stroke-width:0.5;" x="401.413464844" xlink:href="#m5284c7e2a0" y="19.26"/>
      </g>
     </g>
    </g>
    <g id="text_8">
     <!-- $\mathcal{C}_{10}$ -->
     <defs>
      <path d="
M9.28125 0
L9.28125 3.51562
Q21.7812 3.51562 21.7812 6.6875
L21.7812 59.1875
Q16.6094 56.6875 8.6875 56.6875
L8.6875 60.2031
Q20.9531 60.2031 27.2031 66.6094
L28.6094 66.6094
Q28.9531 66.6094 29.2656 66.3281
Q29.5938 66.0625 29.5938 65.7188
L29.5938 6.6875
Q29.5938 3.51562 42.0938 3.51562
L42.0938 0
z
" id="Cmr10-31"/>
      <path d="
M25 -2.20312
Q12.75 -2.20312 8.32812 7.875
Q3.90625 17.9688 3.90625 31.8906
Q3.90625 40.5781 5.48438 48.2344
Q7.07812 55.9062 11.7812 61.25
Q16.5 66.6094 25 66.6094
Q31.5938 66.6094 35.7812 63.375
Q39.9844 60.1562 42.1875 55.0469
Q44.3906 49.9531 45.1875 44.1094
Q46 38.2812 46 31.8906
Q46 23.2969 44.4062 15.7969
Q42.8281 8.29688 38.1875 3.04688
Q33.5469 -2.20312 25 -2.20312
M25 0.390625
Q30.5625 0.390625 33.2969 6.09375
Q36.0312 11.8125 36.6719 18.75
Q37.3125 25.6875 37.3125 33.5
Q37.3125 41.0156 36.6719 47.3594
Q36.0312 53.7188 33.3125 58.8594
Q30.6094 64.0156 25 64.0156
Q19.3438 64.0156 16.6094 58.8281
Q13.875 53.6562 13.2344 47.3281
Q12.5938 41.0156 12.5938 33.5
Q12.5938 27.9375 12.8594 23
Q13.1406 18.0625 14.3125 12.8125
Q15.4844 7.5625 18.0938 3.96875
Q20.7031 0.390625 25 0.390625" id="Cmr10-30"/>
      <path d="
M19.6719 -2.39062
Q14.9375 -2.39062 11.4375 -0.5625
Q7.95312 1.26562 5.64062 4.5625
Q3.32812 7.85938 2.26562 11.8125
Q1.21875 15.7656 1.21875 20.3125
Q1.21875 29.25 4.51562 38.3594
Q7.8125 47.4688 13.7656 54.7188
Q19.7344 61.9688 27.9062 66.2344
Q36.0781 70.5156 45.5156 70.5156
L46.0938 70.5156
Q49.3594 70.5156 51.3906 68.8438
Q53.4219 67.1875 53.4219 64.0156
Q53.4219 61.2344 51.8125 57.4688
Q50.2031 53.7188 47.9062 49.6094
Q46.8281 47.7969 44.6562 46.4844
Q42.4844 45.1719 40.1875 44.9219
L39.7031 44.9219
Q39.0156 45.2656 39.0156 45.6094
Q39.0156 46.0469 40.5938 49.1719
Q42.1875 52.2969 43.3281 55.0469
Q44.4844 57.8125 44.4844 59.8125
Q44.4844 62.25 42.9375 63.4219
Q41.4062 64.5938 38.8125 64.5938
Q31.4531 64.5938 26.4375 61.0781
Q21.4375 57.5625 17.3906 50.6875
Q14.0156 44.875 12.0625 38.1094
Q10.1094 31.3438 10.1094 24.6094
Q10.1094 19.0938 11.8594 14.2344
Q13.625 9.375 17.4219 6.4375
Q21.2344 3.51562 27 3.51562
Q33.0625 3.51562 37.7969 8.01562
Q38.4219 8.6875 40.4062 11.2969
Q42.3906 13.9219 44.0938 15.1406
Q45.7969 16.3594 48.4844 16.6094
L49.0312 16.6094
Q49.7031 16.2656 49.7031 15.8281
Q49.7031 15.4375 49.4219 14.9844
Q46.5781 10.2969 41.7969 6.29688
Q37.0156 2.29688 31.2969 -0.046875
Q25.5938 -2.39062 20.3125 -2.39062
z
" id="Cmsy10-43"/>
     </defs>
     <g transform="translate(233.012671875 410.912625)scale(0.12 -0.12)">
      <use transform="translate(0.0 0.484375)" xlink:href="#Cmsy10-43"/>
      <use transform="translate(52.587890625 -25.025)scale(0.7)" xlink:href="#Cmr10-31"/>
      <use transform="translate(87.587890625 -25.025)scale(0.7)" xlink:href="#Cmr10-30"/>
     </g>
    </g>
   </g>
   <g id="matplotlib.axis_2">
    <g id="ytick_1">
     <g id="text_9">
      <!-- −0.6 -->
      <defs>
       <path d="
M10.6875 12.4062
L21 12.4062
L21 0
L10.6875 0
z
" id="DejaVuSans-2e"/>
      </defs>
      <g transform="translate(33.621125 385.090125)scale(0.12 -0.12)">
       <use xlink:href="#DejaVuSans-2212"/>
       <use x="83.7890625" xlink:href="#DejaVuSans-30"/>
       <use x="147.412109375" xlink:href="#DejaVuSans-2e"/>
       <use x="179.19921875" xlink:href="#DejaVuSans-36"/>
      </g>
     </g>
    </g>
    <g id="ytick_2">
     <g id="line2d_59">
      <path clip-path="url(#p949199959d)" d="
M64.7336 321.359
L416.052 321.359" style="fill:none;stroke:#000000;stroke-dasharray:1.000000,3.000000;stroke-dashoffset:0.0;stroke-width:0.5;"/>
     </g>
     <g id="line2d_60">
      <defs>
       <path d="
M0 0
L4 0" id="m728421d6d4" style="stroke:#000000;stroke-width:0.5;"/>
      </defs>
      <g>
       <use style="stroke:#000000;stroke-width:0.5;" x="64.733625" xlink:href="#m728421d6d4" y="321.3590625"/>
      </g>
     </g>
     <g id="line2d_61">
      <defs>
       <path d="
M0 0
L-4 0" id="mcb0005524f" style="stroke:#000000;stroke-width:0.5;"/>
      </defs>
      <g>
       <use style="stroke:#000000;stroke-width:0.5;" x="416.05171875" xlink:href="#mcb0005524f" y="321.3590625"/>
      </g>
     </g>
     <g id="text_10">
      <!-- −0.4 -->
      <g transform="translate(33.538625 324.6703125)scale(0.12 -0.12)">
       <use xlink:href="#DejaVuSans-2212"/>
       <use x="83.7890625" xlink:href="#DejaVuSans-30"/>
       <use x="147.412109375" xlink:href="#DejaVuSans-2e"/>
       <use x="179.19921875" xlink:href="#DejaVuSans-34"/>
      </g>
     </g>
    </g>
    <g id="ytick_3">
     <g id="line2d_62">
      <path clip-path="url(#p949199959d)" d="
M64.7336 260.939
L416.052 260.939" style="fill:none;stroke:#000000;stroke-dasharray:1.000000,3.000000;stroke-dashoffset:0.0;stroke-width:0.5;"/>
     </g>
     <g id="line2d_63">
      <g>
       <use style="stroke:#000000;stroke-width:0.5;" x="64.733625" xlink:href="#m728421d6d4" y="260.93925"/>
      </g>
     </g>
     <g id="line2d_64">
      <g>
       <use style="stroke:#000000;stroke-width:0.5;" x="416.05171875" xlink:href="#mcb0005524f" y="260.93925"/>
      </g>
     </g>
     <g id="text_11">
      <!-- −0.2 -->
      <g transform="translate(34.067375 264.2505)scale(0.12 -0.12)">
       <use xlink:href="#DejaVuSans-2212"/>
       <use x="83.7890625" xlink:href="#DejaVuSans-30"/>
       <use x="147.412109375" xlink:href="#DejaVuSans-2e"/>
       <use x="179.19921875" xlink:href="#DejaVuSans-32"/>
      </g>
     </g>
    </g>
    <g id="ytick_4">
     <g id="line2d_65">
      <path clip-path="url(#p949199959d)" d="
M64.7336 200.519
L416.052 200.519" style="fill:none;stroke:#000000;stroke-dasharray:1.000000,3.000000;stroke-dashoffset:0.0;stroke-width:0.5;"/>
     </g>
     <g id="line2d_66">
      <g>
       <use style="stroke:#000000;stroke-width:0.5;" x="64.733625" xlink:href="#m728421d6d4" y="200.5194375"/>
      </g>
     </g>
     <g id="line2d_67">
      <g>
       <use style="stroke:#000000;stroke-width:0.5;" x="416.05171875" xlink:href="#mcb0005524f" y="200.5194375"/>
      </g>
     </g>
     <g id="text_12">
      <!-- 0.0 -->
      <g transform="translate(43.238 203.8306875)scale(0.12 -0.12)">
       <use xlink:href="#DejaVuSans-30"/>
       <use x="63.623046875" xlink:href="#DejaVuSans-2e"/>
       <use x="95.41015625" xlink:href="#DejaVuSans-30"/>
      </g>
     </g>
    </g>
    <g id="ytick_5">
     <g id="line2d_68">
      <path clip-path="url(#p949199959d)" d="
M64.7336 140.1
L416.052 140.1" style="fill:none;stroke:#000000;stroke-dasharray:1.000000,3.000000;stroke-dashoffset:0.0;stroke-width:0.5;"/>
     </g>
     <g id="line2d_69">
      <g>
       <use style="stroke:#000000;stroke-width:0.5;" x="64.733625" xlink:href="#m728421d6d4" y="140.099625"/>
      </g>
     </g>
     <g id="line2d_70">
      <g>
       <use style="stroke:#000000;stroke-width:0.5;" x="416.05171875" xlink:href="#mcb0005524f" y="140.099625"/>
      </g>
     </g>
     <g id="text_13">
      <!-- 0.2 -->
      <g transform="translate(43.643 143.410875)scale(0.12 -0.12)">
       <use xlink:href="#DejaVuSans-30"/>
       <use x="63.623046875" xlink:href="#DejaVuSans-2e"/>
       <use x="95.41015625" xlink:href="#DejaVuSans-32"/>
      </g>
     </g>
    </g>
    <g id="ytick_6">
     <g id="line2d_71">
      <path clip-path="url(#p949199959d)" d="
M64.7336 79.6798
L416.052 79.6798" style="fill:none;stroke:#000000;stroke-dasharray:1.000000,3.000000;stroke-dashoffset:0.0;stroke-width:0.5;"/>
     </g>
     <g id="line2d_72">
      <g>
       <use style="stroke:#000000;stroke-width:0.5;" x="64.733625" xlink:href="#m728421d6d4" y="79.6798125"/>
      </g>
     </g>
     <g id="line2d_73">
      <g>
       <use style="stroke:#000000;stroke-width:0.5;" x="416.05171875" xlink:href="#mcb0005524f" y="79.6798125"/>
      </g>
     </g>
     <g id="text_14">
      <!-- 0.4 -->
      <g transform="translate(43.11425 82.9910625)scale(0.12 -0.12)">
       <use xlink:href="#DejaVuSans-30"/>
       <use x="63.623046875" xlink:href="#DejaVuSans-2e"/>
       <use x="95.41015625" xlink:href="#DejaVuSans-34"/>
      </g>
     </g>
    </g>
    <g id="ytick_7">
     <g id="text_15">
      <!-- 0.6 -->
      <g transform="translate(43.19675 22.57125)scale(0.12 -0.12)">
       <use xlink:href="#DejaVuSans-30"/>
       <use x="63.623046875" xlink:href="#DejaVuSans-2e"/>
       <use x="95.41015625" xlink:href="#DejaVuSans-36"/>
      </g>
     </g>
    </g>
    <g id="ytick_8">
     <g id="line2d_74">
      <defs>
       <path d="
M0 0
L2 0" id="mf0c55a9a47" style="stroke:#000000;stroke-width:0.5;"/>
      </defs>
      <g>
       <use style="stroke:#000000;stroke-width:0.5;" x="64.733625" xlink:href="#mf0c55a9a47" y="366.673921875"/>
      </g>
     </g>
     <g id="line2d_75">
      <defs>
       <path d="
M0 0
L-2 0" id="ma4f294b3af" style="stroke:#000000;stroke-width:0.5;"/>
      </defs>
      <g>
       <use style="stroke:#000000;stroke-width:0.5;" x="416.05171875" xlink:href="#ma4f294b3af" y="366.673921875"/>
      </g>
     </g>
    </g>
    <g id="ytick_9">
     <g id="line2d_76">
      <g>
       <use style="stroke:#000000;stroke-width:0.5;" x="64.733625" xlink:href="#mf0c55a9a47" y="351.56896875"/>
      </g>
     </g>
     <g id="line2d_77">
      <g>
       <use style="stroke:#000000;stroke-width:0.5;" x="416.05171875" xlink:href="#ma4f294b3af" y="351.56896875"/>
      </g>
     </g>
    </g>
    <g id="ytick_10">
     <g id="line2d_78">
      <g>
       <use style="stroke:#000000;stroke-width:0.5;" x="64.733625" xlink:href="#mf0c55a9a47" y="336.464015625"/>
      </g>
     </g>
     <g id="line2d_79">
      <g>
       <use style="stroke:#000000;stroke-width:0.5;" x="416.05171875" xlink:href="#ma4f294b3af" y="336.464015625"/>
      </g>
     </g>
    </g>
    <g id="ytick_11">
     <g id="line2d_80">
      <g>
       <use style="stroke:#000000;stroke-width:0.5;" x="64.733625" xlink:href="#mf0c55a9a47" y="306.254109375"/>
      </g>
     </g>
     <g id="line2d_81">
      <g>
       <use style="stroke:#000000;stroke-width:0.5;" x="416.05171875" xlink:href="#ma4f294b3af" y="306.254109375"/>
      </g>
     </g>
    </g>
    <g id="ytick_12">
     <g id="line2d_82">
      <g>
       <use style="stroke:#000000;stroke-width:0.5;" x="64.733625" xlink:href="#mf0c55a9a47" y="291.14915625"/>
      </g>
     </g>
     <g id="line2d_83">
      <g>
       <use style="stroke:#000000;stroke-width:0.5;" x="416.05171875" xlink:href="#ma4f294b3af" y="291.14915625"/>
      </g>
     </g>
    </g>
    <g id="ytick_13">
     <g id="line2d_84">
      <g>
       <use style="stroke:#000000;stroke-width:0.5;" x="64.733625" xlink:href="#mf0c55a9a47" y="276.044203125"/>
      </g>
     </g>
     <g id="line2d_85">
      <g>
       <use style="stroke:#000000;stroke-width:0.5;" x="416.05171875" xlink:href="#ma4f294b3af" y="276.044203125"/>
      </g>
     </g>
    </g>
    <g id="ytick_14">
     <g id="line2d_86">
      <g>
       <use style="stroke:#000000;stroke-width:0.5;" x="64.733625" xlink:href="#mf0c55a9a47" y="245.834296875"/>
      </g>
     </g>
     <g id="line2d_87">
      <g>
       <use style="stroke:#000000;stroke-width:0.5;" x="416.05171875" xlink:href="#ma4f294b3af" y="245.834296875"/>
      </g>
     </g>
    </g>
    <g id="ytick_15">
     <g id="line2d_88">
      <g>
       <use style="stroke:#000000;stroke-width:0.5;" x="64.733625" xlink:href="#mf0c55a9a47" y="230.72934375"/>
      </g>
     </g>
     <g id="line2d_89">
      <g>
       <use style="stroke:#000000;stroke-width:0.5;" x="416.05171875" xlink:href="#ma4f294b3af" y="230.72934375"/>
      </g>
     </g>
    </g>
    <g id="ytick_16">
     <g id="line2d_90">
      <g>
       <use style="stroke:#000000;stroke-width:0.5;" x="64.733625" xlink:href="#mf0c55a9a47" y="215.624390625"/>
      </g>
     </g>
     <g id="line2d_91">
      <g>
       <use style="stroke:#000000;stroke-width:0.5;" x="416.05171875" xlink:href="#ma4f294b3af" y="215.624390625"/>
      </g>
     </g>
    </g>
    <g id="ytick_17">
     <g id="line2d_92">
      <g>
       <use style="stroke:#000000;stroke-width:0.5;" x="64.733625" xlink:href="#mf0c55a9a47" y="185.414484375"/>
      </g>
     </g>
     <g id="line2d_93">
      <g>
       <use style="stroke:#000000;stroke-width:0.5;" x="416.05171875" xlink:href="#ma4f294b3af" y="185.414484375"/>
      </g>
     </g>
    </g>
    <g id="ytick_18">
     <g id="line2d_94">
      <g>
       <use style="stroke:#000000;stroke-width:0.5;" x="64.733625" xlink:href="#mf0c55a9a47" y="170.30953125"/>
      </g>
     </g>
     <g id="line2d_95">
      <g>
       <use style="stroke:#000000;stroke-width:0.5;" x="416.05171875" xlink:href="#ma4f294b3af" y="170.30953125"/>
      </g>
     </g>
    </g>
    <g id="ytick_19">
     <g id="line2d_96">
      <g>
       <use style="stroke:#000000;stroke-width:0.5;" x="64.733625" xlink:href="#mf0c55a9a47" y="155.204578125"/>
      </g>
     </g>
     <g id="line2d_97">
      <g>
       <use style="stroke:#000000;stroke-width:0.5;" x="416.05171875" xlink:href="#ma4f294b3af" y="155.204578125"/>
      </g>
     </g>
    </g>
    <g id="ytick_20">
     <g id="line2d_98">
      <g>
       <use style="stroke:#000000;stroke-width:0.5;" x="64.733625" xlink:href="#mf0c55a9a47" y="124.994671875"/>
      </g>
     </g>
     <g id="line2d_99">
      <g>
       <use style="stroke:#000000;stroke-width:0.5;" x="416.05171875" xlink:href="#ma4f294b3af" y="124.994671875"/>
      </g>
     </g>
    </g>
    <g id="ytick_21">
     <g id="line2d_100">
      <g>
       <use style="stroke:#000000;stroke-width:0.5;" x="64.733625" xlink:href="#mf0c55a9a47" y="109.88971875"/>
      </g>
     </g>
     <g id="line2d_101">
      <g>
       <use style="stroke:#000000;stroke-width:0.5;" x="416.05171875" xlink:href="#ma4f294b3af" y="109.88971875"/>
      </g>
     </g>
    </g>
    <g id="ytick_22">
     <g id="line2d_102">
      <g>
       <use style="stroke:#000000;stroke-width:0.5;" x="64.733625" xlink:href="#mf0c55a9a47" y="94.784765625"/>
      </g>
     </g>
     <g id="line2d_103">
      <g>
       <use style="stroke:#000000;stroke-width:0.5;" x="416.05171875" xlink:href="#ma4f294b3af" y="94.784765625"/>
      </g>
     </g>
    </g>
    <g id="ytick_23">
     <g id="line2d_104">
      <g>
       <use style="stroke:#000000;stroke-width:0.5;" x="64.733625" xlink:href="#mf0c55a9a47" y="79.6798125"/>
      </g>
     </g>
     <g id="line2d_105">
      <g>
       <use style="stroke:#000000;stroke-width:0.5;" x="416.05171875" xlink:href="#ma4f294b3af" y="79.6798125"/>
      </g>
     </g>
    </g>
    <g id="ytick_24">
     <g id="line2d_106">
      <g>
       <use style="stroke:#000000;stroke-width:0.5;" x="64.733625" xlink:href="#mf0c55a9a47" y="64.574859375"/>
      </g>
     </g>
     <g id="line2d_107">
      <g>
       <use style="stroke:#000000;stroke-width:0.5;" x="416.05171875" xlink:href="#ma4f294b3af" y="64.574859375"/>
      </g>
     </g>
    </g>
    <g id="ytick_25">
     <g id="line2d_108">
      <g>
       <use style="stroke:#000000;stroke-width:0.5;" x="64.733625" xlink:href="#mf0c55a9a47" y="49.46990625"/>
      </g>
     </g>
     <g id="line2d_109">
      <g>
       <use style="stroke:#000000;stroke-width:0.5;" x="416.05171875" xlink:href="#ma4f294b3af" y="49.46990625"/>
      </g>
     </g>
    </g>
    <g id="ytick_26">
     <g id="line2d_110">
      <g>
       <use style="stroke:#000000;stroke-width:0.5;" x="64.733625" xlink:href="#mf0c55a9a47" y="34.364953125"/>
      </g>
     </g>
     <g id="line2d_111">
      <g>
       <use style="stroke:#000000;stroke-width:0.5;" x="416.05171875" xlink:href="#ma4f294b3af" y="34.364953125"/>
      </g>
     </g>
    </g>
    <g id="text_16">
     <!-- $\mathcal{C}_{P}$ -->
     <defs>
      <path d="
M4.89062 0
Q3.90625 0 3.90625 1.3125
Q3.95312 1.5625 4.09375 2.17188
Q4.25 2.78125 4.51562 3.14062
Q4.78125 3.51562 5.17188 3.51562
Q11.2812 3.51562 13.7188 4.20312
Q14.9844 4.64062 15.5781 6.89062
L29.2969 61.8125
Q29.5 62.7969 29.5 63.1875
Q29.5 64.2656 28.3281 64.4062
Q26.4219 64.7969 21.0938 64.7969
Q20.125 64.7969 20.125 66.1094
Q20.1719 66.3594 20.3125 66.9688
Q20.4531 67.5781 20.7188 67.9375
Q21 68.3125 21.3906 68.3125
L55.9062 68.3125
Q60.6406 68.3125 65.0781 66.625
Q69.5312 64.9375 72.3594 61.4688
Q75.2031 58.0156 75.2031 53.0781
Q75.2031 46.7344 70.7344 41.75
Q66.2656 36.7656 59.5938 33.9844
Q52.9375 31.2031 46.6875 31.2031
L30.4219 31.2031
L24.3125 6.5
Q24.125 5.51562 24.125 5.07812
Q24.125 4.6875 24.2344 4.42188
Q24.3594 4.15625 24.5781 4.07812
Q24.8125 4 25.2969 3.90625
Q27.2031 3.51562 32.5156 3.51562
Q33.5 3.51562 33.5 2.20312
Q33.1562 0.78125 32.9531 0.390625
Q32.7656 0 31.7812 0
z

M30.9062 34.1875
L44.9219 34.1875
Q54.6406 34.1875 59.7188 39.4062
Q62.3125 42 63.9375 46.875
Q65.5781 51.7656 65.5781 55.7188
Q65.5781 60.6406 61.8125 62.7188
Q58.0625 64.7969 52.4844 64.7969
L42.9219 64.7969
Q40.1875 64.7969 39.2969 64.3281
Q38.4219 63.875 37.7031 61.375
z
" id="Cmmi10-50"/>
     </defs>
     <g transform="translate(25.418625 206.3994375)rotate(-90.0)scale(0.12 -0.12)">
      <use transform="translate(0.0 0.484375)" xlink:href="#Cmsy10-43"/>
      <use transform="translate(52.587890625 -25.025)scale(0.7)" xlink:href="#Cmmi10-50"/>
     </g>
    </g>
   </g>
   <g id="patch_3">
    <path d="
M64.7336 19.26
L416.052 19.26" style="fill:none;stroke:#000000;"/>
   </g>
   <g id="patch_4">
    <path d="
M416.052 381.779
L416.052 19.26" style="fill:none;stroke:#000000;"/>
   </g>
   <g id="patch_5">
    <path d="
M64.7336 381.779
L416.052 381.779" style="fill:none;stroke:#000000;"/>
   </g>
   <g id="patch_6">
    <path d="
M64.7336 381.779
L64.7336 19.26" style="fill:none;stroke:#000000;"/>
   </g>
  </g>
 </g>
 <defs>
  <clipPath id="p949199959d">
   <rect height="362.518875" width="351.31809375" x="64.733625" y="19.26"/>
  </clipPath>
 </defs>
</svg>
