<?xml version="1.0" encoding="utf-8" standalone="no"?>
<!DOCTYPE svg PUBLIC "-//W3C//DTD SVG 1.1//EN"
  "http://www.w3.org/Graphics/SVG/1.1/DTD/svg11.dtd">
<!-- Created with matplotlib (http://matplotlib.org/) -->
<svg height="432pt" version="1.1" viewBox="0 0 432 432" width="432pt" xmlns="http://www.w3.org/2000/svg" xmlns:xlink="http://www.w3.org/1999/xlink">
 <defs>
  <style type="text/css">
*{stroke-linecap:butt;stroke-linejoin:round;}
  </style>
 </defs>
 <g id="figure_1">
  <g id="patch_1">
   <path d="
M0 432
L432 432
L432 0
L0 0
z
" style="fill:#ffffff;"/>
  </g>
  <g id="axes_1">
   <g id="patch_2">
    <path d="
M97.8441 350.91
L409.365 350.91
L409.365 26.91
L97.8441 26.91
z
" style="fill:#ffffff;"/>
   </g>
   <g id="PathCollection_1">
    <defs>
     <path d="
M97.8441 -81.09
L100.991 -81.09
L104.137 -81.09
L107.284 -81.09
L110.431 -81.09
L113.577 -81.09
L116.724 -81.09
L119.871 -81.09
L123.017 -81.09
L126.164 -81.09
L129.311 -81.09
L132.458 -81.09
L135.604 -81.09
L138.751 -81.09
L141.898 -81.09
L145.044 -81.09
L148.191 -81.09
L151.338 -81.09
L154.484 -81.09
L157.631 -81.09
L160.778 -81.09
L163.924 -81.09
L167.071 -81.09
L170.218 -81.09
L173.364 -81.09
L176.511 -81.09
L179.658 -81.09
L182.804 -81.09
L185.951 -81.09
L189.098 -81.09
L192.244 -81.09
L195.391 -81.09
L198.538 -81.09
L201.684 -81.09
L204.831 -81.09
L207.978 -81.09
L211.124 -81.09
L214.271 -81.09
L217.418 -81.09
L220.564 -81.09
L223.711 -81.09
L226.858 -81.09
L230.004 -81.09
L233.151 -81.09
L236.298 -81.09
L239.444 -81.09
L242.591 -81.09
L245.738 -81.09
L248.885 -81.09
L252.031 -81.09
L255.178 -81.09
L258.325 -81.09
L261.471 -81.09
L264.618 -81.09
L267.765 -81.09
L270.911 -81.09
L274.058 -81.09
L277.205 -81.09
L280.351 -81.09
L283.498 -81.09
L286.645 -81.09
L289.791 -81.09
L292.938 -81.09
L296.085 -81.09
L299.231 -81.09
L302.378 -81.09
L305.525 -81.09
L308.671 -81.09
L311.818 -81.09
L314.965 -81.09
L318.111 -81.09
L321.258 -81.09
L324.405 -81.09
L327.551 -81.09
L330.698 -81.09
L333.845 -81.09
L336.991 -81.09
L340.138 -81.09
L343.285 -81.09
L346.431 -81.09
L349.578 -81.09
L352.725 -81.09
L355.872 -81.09
L359.018 -81.09
L362.165 -81.09
L365.312 -81.09
L368.458 -81.09
L371.605 -81.09
L374.752 -81.09
L377.898 -81.09
L381.045 -81.09
L384.192 -81.09
L387.338 -81.09
L390.485 -81.09
L393.632 -81.09
L396.778 -81.09
L399.925 -81.09
L403.072 -81.09
L406.218 -81.09
L409.365 -81.09
L409.365 -84.3627
L409.365 -87.6355
L409.365 -90.9082
L409.365 -94.1809
L409.365 -97.4536
L409.365 -100.726
L409.365 -103.999
L409.365 -107.272
L409.365 -110.545
L409.365 -113.817
L409.365 -117.09
L409.365 -120.363
L409.365 -123.635
L409.365 -126.908
L409.365 -130.181
L409.365 -133.454
L409.365 -136.726
L409.365 -139.999
L409.365 -143.272
L409.365 -146.545
L409.365 -149.817
L409.365 -153.09
L409.365 -156.363
L409.365 -159.635
L409.365 -162.908
L409.365 -166.181
L409.365 -169.454
L409.365 -172.726
L409.365 -175.999
L409.365 -179.272
L409.365 -182.545
L409.365 -185.817
L409.365 -189.09
L409.365 -192.363
L409.365 -195.635
L409.365 -198.908
L409.365 -202.181
L409.365 -205.454
L409.365 -208.726
L409.365 -211.999
L409.365 -215.272
L409.365 -218.545
L409.365 -221.817
L409.365 -225.09
L409.365 -228.363
L409.365 -231.635
L409.365 -234.908
L409.365 -238.181
L409.365 -241.454
L409.365 -244.726
L409.365 -247.999
L409.365 -251.272
L409.365 -254.545
L409.365 -257.817
L409.365 -261.09
L409.365 -264.363
L409.365 -267.635
L409.365 -270.908
L409.365 -274.181
L409.365 -277.454
L409.365 -280.726
L409.365 -283.999
L409.365 -287.272
L409.365 -290.545
L409.365 -293.817
L409.365 -297.09
L409.365 -300.363
L409.365 -303.635
L409.365 -306.908
L409.365 -310.181
L409.365 -313.454
L409.365 -316.726
L409.365 -319.999
L409.365 -323.272
L409.365 -326.545
L409.365 -329.817
L409.365 -333.09
L409.365 -336.363
L409.365 -339.635
L409.365 -342.908
L409.365 -346.181
L409.365 -349.454
L409.365 -352.726
L409.365 -355.999
L409.365 -359.272
L409.365 -362.545
L409.365 -365.817
L409.365 -369.09
L409.365 -372.363
L409.365 -375.635
L409.365 -378.908
L409.365 -382.181
L409.365 -385.454
L409.365 -388.726
L409.365 -391.999
L409.365 -395.272
L409.365 -398.545
L409.365 -401.817
L409.365 -405.09
L406.218 -405.09
L403.072 -405.09
L399.925 -405.09
L396.778 -405.09
L393.632 -405.09
L390.485 -405.09
L387.338 -405.09
L384.192 -405.09
L381.045 -405.09
L377.898 -405.09
L374.752 -405.09
L371.605 -405.09
L368.458 -405.09
L365.312 -405.09
L362.165 -405.09
L359.018 -405.09
L355.872 -405.09
L352.725 -405.09
L349.578 -405.09
L346.431 -405.09
L343.285 -405.09
L340.138 -405.09
L336.991 -405.09
L333.845 -405.09
L330.698 -405.09
L327.551 -405.09
L324.405 -405.09
L321.258 -405.09
L318.111 -405.09
L314.965 -405.09
L311.818 -405.09
L308.671 -405.09
L305.525 -405.09
L302.378 -405.09
L299.231 -405.09
L296.085 -405.09
L292.938 -405.09
L289.791 -405.09
L286.645 -405.09
L283.498 -405.09
L280.351 -405.09
L277.205 -405.09
L274.058 -405.09
L270.911 -405.09
L267.765 -405.09
L264.618 -405.09
L261.471 -405.09
L258.325 -405.09
L255.178 -405.09
L252.031 -405.09
L248.885 -405.09
L245.738 -405.09
L242.591 -405.09
L239.444 -405.09
L236.298 -405.09
L233.151 -405.09
L230.004 -405.09
L226.858 -405.09
L223.711 -405.09
L220.564 -405.09
L217.418 -405.09
L214.271 -405.09
L211.124 -405.09
L207.978 -405.09
L204.831 -405.09
L201.684 -405.09
L198.538 -405.09
L195.391 -405.09
L192.244 -405.09
L189.098 -405.09
L185.951 -405.09
L182.804 -405.09
L179.658 -405.09
L176.511 -405.09
L173.364 -405.09
L170.218 -405.09
L167.071 -405.09
L163.924 -405.09
L160.778 -405.09
L157.631 -405.09
L154.484 -405.09
L151.338 -405.09
L148.191 -405.09
L145.044 -405.09
L141.898 -405.09
L138.751 -405.09
L135.604 -405.09
L132.458 -405.09
L129.311 -405.09
L126.164 -405.09
L123.017 -405.09
L119.871 -405.09
L116.724 -405.09
L113.577 -405.09
L110.431 -405.09
L107.284 -405.09
L104.137 -405.09
L100.991 -405.09
L97.8441 -405.09
L97.8441 -401.817
L97.8441 -398.545
L97.8441 -395.272
L97.8441 -391.999
L97.8441 -388.726
L97.8441 -385.454
L97.8441 -382.181
L97.8441 -378.908
L97.8441 -375.635
L97.8441 -372.363
L97.8441 -369.09
L97.8441 -365.817
L97.8441 -362.545
L97.8441 -359.272
L97.8441 -355.999
L97.8441 -352.726
L97.8441 -349.454
L97.8441 -346.181
L97.8441 -342.908
L97.8441 -339.635
L97.8441 -336.363
L97.8441 -333.09
L97.8441 -329.817
L97.8441 -326.545
L97.8441 -323.272
L97.8441 -319.999
L97.8441 -316.726
L97.8441 -313.454
L97.8441 -310.181
L97.8441 -306.908
L97.8441 -303.635
L97.8441 -300.363
L97.8441 -297.09
L97.8441 -293.817
L97.8441 -290.545
L97.8441 -287.272
L97.8441 -283.999
L97.8441 -280.726
L97.8441 -277.454
L97.8441 -274.181
L97.8441 -270.908
L97.8441 -267.635
L97.8441 -264.363
L97.8441 -261.09
L97.8441 -257.817
L97.8441 -254.545
L97.8441 -251.272
L97.8441 -247.999
L97.8441 -244.726
L97.8441 -241.454
L97.8441 -238.181
L97.8441 -234.908
L97.8441 -231.635
L97.8441 -228.363
L97.8441 -225.09
L97.8441 -221.817
L97.8441 -218.545
L97.8441 -215.272
L97.8441 -211.999
L97.8441 -208.726
L97.8441 -205.454
L97.8441 -202.181
L97.8441 -198.908
L97.8441 -195.635
L97.8441 -192.363
L97.8441 -189.09
L97.8441 -185.817
L97.8441 -182.545
L97.8441 -179.272
L97.8441 -175.999
L97.8441 -172.726
L97.8441 -169.454
L97.8441 -166.181
L97.8441 -162.908
L97.8441 -159.635
L97.8441 -156.363
L97.8441 -153.09
L97.8441 -149.817
L97.8441 -146.545
L97.8441 -143.272
L97.8441 -139.999
L97.8441 -136.726
L97.8441 -133.454
L97.8441 -130.181
L97.8441 -126.908
L97.8441 -123.635
L97.8441 -120.363
L97.8441 -117.09
L97.8441 -113.817
L97.8441 -110.545
L97.8441 -107.272
L97.8441 -103.999
L97.8441 -100.726
L97.8441 -97.4536
L97.8441 -94.1809
L97.8441 -90.9082
L97.8441 -87.6355
L97.8441 -84.3627
L97.8441 -81.09
M242.591 -110.033
L241.166 -110.545
L239.444 -111.14
L236.298 -112.514
L233.864 -113.817
L233.151 -114.223
L230.004 -116.34
L229.049 -117.09
L226.858 -119.116
L225.709 -120.363
L223.711 -123.023
L223.303 -123.635
L221.39 -126.908
L220.564 -128.537
L219.764 -130.181
L218.273 -133.454
L217.418 -135.461
L216.862 -136.726
L215.415 -139.999
L214.271 -142.751
L214.03 -143.272
L212.552 -146.545
L211.124 -149.715
L211.067 -149.817
L209.254 -153.09
L207.978 -155.256
L206.989 -156.363
L204.831 -158.549
L202.548 -159.635
L201.684 -159.973
L198.538 -160.196
L195.391 -159.741
L194.987 -159.635
L192.244 -158.938
L189.098 -158.077
L185.951 -157.291
L182.804 -156.605
L181.504 -156.363
L179.658 -155.996
L176.511 -155.497
L173.364 -155.125
L170.218 -154.869
L167.071 -154.751
L163.924 -154.778
L160.778 -154.987
L157.631 -155.423
L154.484 -156.138
L153.761 -156.363
L151.338 -157.122
L148.191 -158.517
L146.305 -159.635
L145.044 -160.487
L142.278 -162.908
L141.898 -163.314
L139.641 -166.181
L138.751 -167.628
L137.714 -169.454
L136.241 -172.726
L135.604 -174.417
L135.016 -175.999
L133.93 -179.272
L132.964 -182.545
L132.458 -184.367
L132.038 -185.817
L131.113 -189.09
L130.241 -192.363
L129.431 -195.635
L129.311 -196.145
L128.593 -198.908
L127.804 -202.181
L127.083 -205.454
L126.413 -208.726
L126.164 -209.905
L125.663 -211.999
L124.824 -215.272
L123.936 -218.545
L123.017 -221.801
L123.012 -221.817
L121.955 -225.09
L121.008 -228.363
L120.218 -231.635
L119.871 -233.441
L119.548 -234.908
L119.024 -238.181
L118.691 -241.454
L118.53 -244.726
L118.509 -247.999
L118.617 -251.272
L118.843 -254.545
L119.177 -257.817
L119.616 -261.09
L119.871 -262.714
L120.094 -264.363
L120.588 -267.635
L121.126 -270.908
L121.733 -274.181
L122.401 -277.454
L123.017 -280.102
L123.142 -280.726
L123.89 -283.999
L124.765 -287.272
L125.792 -290.545
L126.164 -291.585
L126.879 -293.817
L128.067 -297.09
L129.311 -300.076
L129.421 -300.363
L130.727 -303.635
L132.186 -306.908
L132.458 -307.507
L133.592 -310.181
L135.071 -313.454
L135.604 -314.603
L136.533 -316.726
L138.076 -319.999
L138.751 -321.318
L139.696 -323.272
L141.508 -326.545
L141.898 -327.176
L143.478 -329.817
L145.044 -332.086
L145.725 -333.09
L148.191 -336.304
L148.237 -336.363
L150.992 -339.635
L151.338 -340.025
L154.126 -342.908
L154.484 -343.273
L157.631 -346.08
L157.766 -346.181
L160.778 -348.473
L162.404 -349.454
L163.924 -350.413
L167.071 -352.049
L168.566 -352.726
L170.218 -353.557
L173.364 -355.149
L174.987 -355.999
L176.511 -356.892
L179.658 -358.738
L180.614 -359.272
L182.804 -360.558
L185.951 -362.069
L187.461 -362.545
L189.098 -363.051
L192.244 -363.502
L195.391 -363.509
L198.538 -363.194
L201.684 -362.819
L204.831 -362.631
L207.978 -362.741
L211.124 -363.268
L214.271 -364.126
L217.418 -365.226
L218.921 -365.817
L220.564 -366.511
L223.711 -367.874
L226.679 -369.09
L226.858 -369.169
L230.004 -370.438
L233.151 -371.504
L236.245 -372.363
L236.298 -372.378
L239.444 -373.163
L242.591 -373.819
L245.738 -374.373
L248.885 -374.845
L252.031 -375.228
L255.178 -375.494
L258.325 -375.595
L261.471 -375.464
L264.618 -375.013
L267.765 -374.127
L270.911 -372.682
L271.424 -372.363
L274.058 -370.721
L276.064 -369.09
L277.205 -368.155
L279.607 -365.817
L280.351 -365.076
L282.642 -362.545
L283.498 -361.558
L285.357 -359.272
L286.645 -357.544
L287.76 -355.999
L289.791 -352.763
L289.814 -352.726
L291.571 -349.454
L292.937 -346.181
L292.938 -346.178
L294.194 -342.908
L295.246 -339.635
L296.085 -336.839
L296.251 -336.363
L297.479 -333.09
L298.759 -329.817
L299.231 -328.729
L300.463 -326.545
L302.378 -323.564
L302.668 -323.272
L305.525 -320.852
L307.7 -319.999
L308.671 -319.686
L311.818 -319.527
L314.965 -319.999
L314.965 -319.999
L318.111 -320.865
L321.258 -321.865
L324.405 -322.902
L325.52 -323.272
L327.551 -324.002
L330.698 -325.194
L333.845 -326.495
L333.961 -326.545
L336.991 -327.999
L340.138 -329.522
L340.903 -329.817
L343.285 -330.83
L346.431 -331.435
L349.578 -330.865
L351.281 -329.817
L352.725 -328.986
L355.457 -326.545
L355.872 -326.239
L359.018 -323.347
L359.091 -323.272
L362.165 -320.599
L362.789 -319.999
L365.312 -317.765
L366.352 -316.726
L368.458 -314.598
L369.456 -313.454
L371.605 -310.709
L371.981 -310.181
L374.025 -306.908
L374.752 -305.488
L375.674 -303.635
L376.964 -300.363
L377.892 -297.09
L377.898 -297.06
L378.551 -293.817
L378.906 -290.545
L379.039 -287.272
L379.08 -283.999
L379.124 -280.726
L379.23 -277.454
L379.443 -274.181
L379.757 -270.908
L380.141 -267.635
L380.574 -264.363
L381.019 -261.09
L381.045 -260.893
L381.519 -257.817
L381.951 -254.545
L382.297 -251.272
L382.562 -247.999
L382.758 -244.726
L382.931 -241.454
L383.103 -238.181
L383.306 -234.908
L383.539 -231.635
L383.771 -228.363
L383.967 -225.09
L384.056 -221.817
L383.978 -218.545
L383.683 -215.272
L383.152 -211.999
L382.391 -208.726
L381.466 -205.454
L381.045 -204.01
L380.541 -202.181
L379.784 -198.908
L379.224 -195.635
L378.79 -192.363
L378.385 -189.09
L377.898 -186.146
L377.847 -185.817
L377.09 -182.545
L376 -179.272
L374.752 -176.479
L374.537 -175.999
L372.809 -172.726
L371.605 -170.771
L370.751 -169.454
L368.458 -166.35
L368.323 -166.181
L365.401 -162.908
L365.312 -162.815
L362.165 -159.958
L361.772 -159.635
L359.018 -157.454
L357.559 -156.363
L355.872 -155.105
L353.149 -153.09
L352.725 -152.771
L349.578 -150.315
L348.963 -149.817
L346.431 -147.8
L344.812 -146.545
L343.285 -145.39
L340.197 -143.272
L340.138 -143.232
L336.991 -141.295
L334.445 -139.999
L333.845 -139.68
L330.698 -138.328
L327.551 -137.284
L325.344 -136.726
L324.405 -136.457
L321.258 -135.755
L318.111 -135.211
L314.965 -134.754
L311.818 -134.293
L308.671 -133.77
L307.243 -133.454
L305.525 -133.031
L302.378 -131.995
L299.231 -130.63
L298.419 -130.181
L296.085 -128.818
L293.168 -126.908
L292.938 -126.752
L289.791 -124.498
L288.545 -123.635
L286.645 -122.294
L283.618 -120.363
L283.498 -120.283
L280.351 -118.352
L277.909 -117.09
L277.205 -116.693
L274.058 -115.139
L270.911 -113.848
L270.826 -113.817
L267.765 -112.56
L264.618 -111.456
L261.574 -110.545
L261.471 -110.509
L258.325 -109.633
L255.178 -109.012
L252.031 -108.726
L248.885 -108.781
L245.738 -109.231
L242.591 -110.033" id="C0_0_f05e901096"/>
    </defs>
    <g clip-path="url(#p6105b2105a)">
     <use style="fill:#ffffff;" x="0.0" xlink:href="#C0_0_f05e901096" y="432.0"/>
    </g>
   </g>
   <g id="PathCollection_2">
    <defs>
     <path d="
M242.591 -110.033
L245.738 -109.231
L248.885 -108.781
L252.031 -108.726
L255.178 -109.012
L258.325 -109.633
L261.471 -110.509
L261.574 -110.545
L264.618 -111.456
L267.765 -112.56
L270.826 -113.817
L270.911 -113.848
L274.058 -115.139
L277.205 -116.693
L277.909 -117.09
L280.351 -118.352
L283.498 -120.283
L283.618 -120.363
L286.645 -122.294
L288.545 -123.635
L289.791 -124.498
L292.938 -126.752
L293.168 -126.908
L296.085 -128.818
L298.419 -130.181
L299.231 -130.63
L302.378 -131.995
L305.525 -133.031
L307.243 -133.454
L308.671 -133.77
L311.818 -134.293
L314.965 -134.754
L318.111 -135.211
L321.258 -135.755
L324.405 -136.457
L325.344 -136.726
L327.551 -137.284
L330.698 -138.328
L333.845 -139.68
L334.445 -139.999
L336.991 -141.295
L340.138 -143.232
L340.197 -143.272
L343.285 -145.39
L344.812 -146.545
L346.431 -147.8
L348.963 -149.817
L349.578 -150.315
L352.725 -152.771
L353.149 -153.09
L355.872 -155.105
L357.559 -156.363
L359.018 -157.454
L361.772 -159.635
L362.165 -159.958
L365.312 -162.815
L365.401 -162.908
L368.323 -166.181
L368.458 -166.35
L370.751 -169.454
L371.605 -170.771
L372.809 -172.726
L374.537 -175.999
L374.752 -176.479
L376 -179.272
L377.09 -182.545
L377.847 -185.817
L377.898 -186.146
L378.385 -189.09
L378.79 -192.363
L379.224 -195.635
L379.784 -198.908
L380.541 -202.181
L381.045 -204.01
L381.466 -205.454
L382.391 -208.726
L383.152 -211.999
L383.683 -215.272
L383.978 -218.545
L384.056 -221.817
L383.967 -225.09
L383.771 -228.363
L383.539 -231.635
L383.306 -234.908
L383.103 -238.181
L382.931 -241.454
L382.758 -244.726
L382.562 -247.999
L382.297 -251.272
L381.951 -254.545
L381.519 -257.817
L381.045 -260.893
L381.019 -261.09
L380.574 -264.363
L380.141 -267.635
L379.757 -270.908
L379.443 -274.181
L379.23 -277.454
L379.124 -280.726
L379.08 -283.999
L379.039 -287.272
L378.906 -290.545
L378.551 -293.817
L377.898 -297.06
L377.892 -297.09
L376.964 -300.363
L375.674 -303.635
L374.752 -305.488
L374.025 -306.908
L371.981 -310.181
L371.605 -310.709
L369.456 -313.454
L368.458 -314.598
L366.352 -316.726
L365.312 -317.765
L362.789 -319.999
L362.165 -320.599
L359.091 -323.272
L359.018 -323.347
L355.872 -326.239
L355.457 -326.545
L352.725 -328.986
L351.281 -329.817
L349.578 -330.865
L346.431 -331.435
L343.285 -330.83
L340.903 -329.817
L340.138 -329.522
L336.991 -327.999
L333.961 -326.545
L333.845 -326.495
L330.698 -325.194
L327.551 -324.002
L325.52 -323.272
L324.405 -322.902
L321.258 -321.865
L318.111 -320.865
L314.965 -319.999
L314.965 -319.999
L311.818 -319.527
L308.671 -319.686
L307.7 -319.999
L305.525 -320.852
L302.668 -323.272
L302.378 -323.564
L300.463 -326.545
L299.231 -328.729
L298.759 -329.817
L297.479 -333.09
L296.251 -336.363
L296.085 -336.839
L295.246 -339.635
L294.194 -342.908
L292.938 -346.178
L292.937 -346.181
L291.571 -349.454
L289.814 -352.726
L289.791 -352.763
L287.76 -355.999
L286.645 -357.544
L285.357 -359.272
L283.498 -361.558
L282.642 -362.545
L280.351 -365.076
L279.607 -365.817
L277.205 -368.155
L276.064 -369.09
L274.058 -370.721
L271.424 -372.363
L270.911 -372.682
L267.765 -374.127
L264.618 -375.013
L261.471 -375.464
L258.325 -375.595
L255.178 -375.494
L252.031 -375.228
L248.885 -374.845
L245.738 -374.373
L242.591 -373.819
L239.444 -373.163
L236.298 -372.378
L236.245 -372.363
L233.151 -371.504
L230.004 -370.438
L226.858 -369.169
L226.679 -369.09
L223.711 -367.874
L220.564 -366.511
L218.921 -365.817
L217.418 -365.226
L214.271 -364.126
L211.124 -363.268
L207.978 -362.741
L204.831 -362.631
L201.684 -362.819
L198.538 -363.194
L195.391 -363.509
L192.244 -363.502
L189.098 -363.051
L187.461 -362.545
L185.951 -362.069
L182.804 -360.558
L180.614 -359.272
L179.658 -358.738
L176.511 -356.892
L174.987 -355.999
L173.364 -355.149
L170.218 -353.557
L168.566 -352.726
L167.071 -352.049
L163.924 -350.413
L162.404 -349.454
L160.778 -348.473
L157.766 -346.181
L157.631 -346.08
L154.484 -343.273
L154.126 -342.908
L151.338 -340.025
L150.992 -339.635
L148.237 -336.363
L148.191 -336.304
L145.725 -333.09
L145.044 -332.086
L143.478 -329.817
L141.898 -327.176
L141.508 -326.545
L139.696 -323.272
L138.751 -321.318
L138.076 -319.999
L136.533 -316.726
L135.604 -314.603
L135.071 -313.454
L133.592 -310.181
L132.458 -307.507
L132.186 -306.908
L130.727 -303.635
L129.421 -300.363
L129.311 -300.076
L128.067 -297.09
L126.879 -293.817
L126.164 -291.585
L125.792 -290.545
L124.765 -287.272
L123.89 -283.999
L123.142 -280.726
L123.017 -280.102
L122.401 -277.454
L121.733 -274.181
L121.126 -270.908
L120.588 -267.635
L120.094 -264.363
L119.871 -262.714
L119.616 -261.09
L119.177 -257.817
L118.843 -254.545
L118.617 -251.272
L118.509 -247.999
L118.53 -244.726
L118.691 -241.454
L119.024 -238.181
L119.548 -234.908
L119.871 -233.441
L120.218 -231.635
L121.008 -228.363
L121.955 -225.09
L123.012 -221.817
L123.017 -221.801
L123.936 -218.545
L124.824 -215.272
L125.663 -211.999
L126.164 -209.905
L126.413 -208.726
L127.083 -205.454
L127.804 -202.181
L128.593 -198.908
L129.311 -196.145
L129.431 -195.635
L130.241 -192.363
L131.113 -189.09
L132.038 -185.817
L132.458 -184.367
L132.964 -182.545
L133.93 -179.272
L135.016 -175.999
L135.604 -174.417
L136.241 -172.726
L137.714 -169.454
L138.751 -167.628
L139.641 -166.181
L141.898 -163.314
L142.278 -162.908
L145.044 -160.487
L146.305 -159.635
L148.191 -158.517
L151.338 -157.122
L153.761 -156.363
L154.484 -156.138
L157.631 -155.423
L160.778 -154.987
L163.924 -154.778
L167.071 -154.751
L170.218 -154.869
L173.364 -155.125
L176.511 -155.497
L179.658 -155.996
L181.504 -156.363
L182.804 -156.605
L185.951 -157.291
L189.098 -158.077
L192.244 -158.938
L194.987 -159.635
L195.391 -159.741
L198.538 -160.196
L201.684 -159.973
L202.548 -159.635
L204.831 -158.549
L206.989 -156.363
L207.978 -155.256
L209.254 -153.09
L211.067 -149.817
L211.124 -149.715
L212.552 -146.545
L214.03 -143.272
L214.271 -142.751
L215.415 -139.999
L216.862 -136.726
L217.418 -135.461
L218.273 -133.454
L219.764 -130.181
L220.564 -128.537
L221.39 -126.908
L223.303 -123.635
L223.711 -123.023
L225.709 -120.363
L226.858 -119.116
L229.049 -117.09
L230.004 -116.34
L233.151 -114.223
L233.864 -113.817
L236.298 -112.514
L239.444 -111.14
L241.166 -110.545
L242.591 -110.033
M252.031 -148.498
L249.865 -149.817
L248.885 -150.467
L246.036 -153.09
L245.738 -153.394
L243.413 -156.363
L242.591 -157.546
L241.349 -159.635
L239.651 -162.908
L239.444 -163.345
L238.224 -166.181
L236.952 -169.454
L236.298 -171.221
L235.749 -172.726
L234.532 -175.999
L233.24 -179.272
L233.151 -179.481
L231.771 -182.545
L230.16 -185.817
L230.004 -186.114
L228.289 -189.09
L226.858 -191.464
L226.241 -192.363
L223.977 -195.635
L223.711 -196.03
L221.436 -198.908
L220.564 -200.067
L218.653 -202.181
L217.418 -203.657
L215.471 -205.454
L214.271 -206.624
L211.2 -208.726
L211.124 -208.781
L207.978 -210.114
L204.831 -210.572
L201.684 -210.349
L198.538 -209.565
L196.453 -208.726
L195.391 -208.286
L192.244 -206.724
L189.777 -205.454
L189.098 -205.122
L185.951 -203.788
L182.804 -202.767
L179.768 -202.181
L179.658 -202.162
L176.511 -201.978
L173.364 -202.181
L173.364 -202.181
L170.218 -202.881
L167.071 -204.187
L165.133 -205.454
L163.924 -206.328
L161.575 -208.726
L160.778 -209.629
L159.138 -211.999
L157.631 -214.365
L157.146 -215.272
L155.437 -218.545
L154.484 -220.367
L153.813 -221.817
L152.289 -225.09
L151.338 -227.183
L150.844 -228.363
L149.577 -231.635
L148.512 -234.908
L148.191 -236.192
L147.723 -238.181
L147.214 -241.454
L146.953 -244.726
L146.911 -247.999
L147.043 -251.272
L147.31 -254.545
L147.662 -257.817
L148.084 -261.09
L148.191 -261.831
L148.543 -264.363
L149.036 -267.635
L149.565 -270.908
L150.154 -274.181
L150.833 -277.454
L151.338 -279.518
L151.633 -280.726
L152.586 -283.999
L153.741 -287.272
L154.484 -289.059
L155.119 -290.545
L156.753 -293.817
L157.631 -295.378
L158.643 -297.09
L160.752 -300.363
L160.778 -300.401
L163.072 -303.635
L163.924 -304.822
L165.58 -306.908
L167.071 -308.806
L168.326 -310.181
L170.218 -312.253
L171.574 -313.454
L173.364 -314.999
L176.035 -316.726
L176.511 -317.018
L179.658 -318.437
L182.804 -319.367
L185.951 -319.945
L186.433 -319.999
L189.098 -320.279
L192.244 -320.435
L195.391 -320.489
L198.538 -320.498
L201.684 -320.538
L204.831 -320.701
L207.978 -321.057
L211.124 -321.664
L214.271 -322.548
L216.341 -323.272
L217.418 -323.643
L220.564 -324.879
L223.711 -326.205
L224.479 -326.545
L226.858 -327.613
L230.004 -329.054
L231.658 -329.817
L233.151 -330.524
L236.298 -331.976
L238.917 -333.09
L239.444 -333.318
L242.591 -334.483
L245.738 -335.332
L248.885 -335.771
L252.031 -335.728
L255.178 -335.083
L258.325 -333.706
L259.209 -333.09
L261.471 -331.382
L262.945 -329.817
L264.618 -327.821
L265.474 -326.545
L267.434 -323.272
L267.765 -322.664
L269.058 -319.999
L270.528 -316.726
L270.911 -315.802
L271.851 -313.454
L273.081 -310.181
L274.058 -307.531
L274.292 -306.908
L275.554 -303.635
L276.871 -300.363
L277.205 -299.59
L278.354 -297.09
L279.971 -293.817
L280.351 -293.092
L281.801 -290.545
L283.498 -287.559
L283.681 -287.272
L285.694 -283.999
L286.645 -282.361
L287.765 -280.726
L289.791 -277.729
L290.03 -277.454
L292.938 -274.242
L293.017 -274.181
L296.085 -272.043
L298.7 -270.908
L299.231 -270.703
L302.378 -269.984
L305.525 -269.658
L308.671 -269.686
L311.818 -270.156
L314.19 -270.908
L314.965 -271.158
L318.111 -272.569
L321.243 -274.181
L321.258 -274.188
L324.405 -275.585
L327.551 -276.651
L330.698 -277.315
L333.464 -277.454
L333.845 -277.472
L334.008 -277.454
L336.991 -277.106
L340.138 -276.186
L343.285 -274.636
L343.937 -274.181
L346.431 -272.129
L347.545 -270.908
L349.578 -267.847
L349.692 -267.635
L350.895 -264.363
L351.513 -261.09
L351.721 -257.817
L351.643 -254.545
L351.413 -251.272
L351.146 -247.999
L350.956 -244.726
L350.91 -241.454
L351.038 -238.181
L351.317 -234.908
L351.66 -231.635
L351.984 -228.363
L352.228 -225.09
L352.325 -221.817
L352.249 -218.545
L351.982 -215.272
L351.526 -211.999
L350.865 -208.726
L349.99 -205.454
L349.578 -204.213
L348.862 -202.181
L347.468 -198.908
L346.431 -196.83
L345.759 -195.635
L343.707 -192.363
L343.285 -191.737
L341.248 -189.09
L340.138 -187.717
L338.421 -185.817
L336.991 -184.297
L335.21 -182.545
L333.845 -181.274
L331.546 -179.272
L330.698 -178.589
L327.551 -176.26
L327.167 -175.999
L324.405 -174.318
L321.258 -172.799
L321.069 -172.726
L318.111 -171.69
L314.965 -171.007
L311.818 -170.69
L308.671 -170.665
L305.525 -170.859
L302.378 -171.154
L299.231 -171.399
L296.085 -171.381
L292.938 -170.943
L289.791 -169.943
L288.816 -169.454
L286.645 -168.239
L283.923 -166.181
L283.498 -165.809
L280.704 -162.908
L280.351 -162.486
L278.101 -159.635
L277.205 -158.409
L275.645 -156.363
L274.058 -154.336
L272.917 -153.09
L270.911 -151.122
L269.143 -149.817
L267.765 -148.908
L264.618 -147.544
L261.471 -146.862
L258.325 -146.795
L255.178 -147.32
L252.031 -148.498" id="C1_0_9a8ae18200"/>
    </defs>
    <g clip-path="url(#p6105b2105a)">
     <use style="fill:#0000ff;fill-opacity:0.5;" x="0.0" xlink:href="#C1_0_9a8ae18200" y="432.0"/>
    </g>
   </g>
   <g id="PathCollection_3">
    <defs>
     <path d="
M252.031 -148.498
L255.178 -147.32
L258.325 -146.795
L261.471 -146.862
L264.618 -147.544
L267.765 -148.908
L269.143 -149.817
L270.911 -151.122
L272.917 -153.09
L274.058 -154.336
L275.645 -156.363
L277.205 -158.409
L278.101 -159.635
L280.351 -162.486
L280.704 -162.908
L283.498 -165.809
L283.923 -166.181
L286.645 -168.239
L288.816 -169.454
L289.791 -169.943
L292.938 -170.943
L296.085 -171.381
L299.231 -171.399
L302.378 -171.154
L305.525 -170.859
L308.671 -170.665
L311.818 -170.69
L314.965 -171.007
L318.111 -171.69
L321.069 -172.726
L321.258 -172.799
L324.405 -174.318
L327.167 -175.999
L327.551 -176.26
L330.698 -178.589
L331.546 -179.272
L333.845 -181.274
L335.21 -182.545
L336.991 -184.297
L338.421 -185.817
L340.138 -187.717
L341.248 -189.09
L343.285 -191.737
L343.707 -192.363
L345.759 -195.635
L346.431 -196.83
L347.468 -198.908
L348.862 -202.181
L349.578 -204.213
L349.99 -205.454
L350.865 -208.726
L351.526 -211.999
L351.982 -215.272
L352.249 -218.545
L352.325 -221.817
L352.228 -225.09
L351.984 -228.363
L351.66 -231.635
L351.317 -234.908
L351.038 -238.181
L350.91 -241.454
L350.956 -244.726
L351.146 -247.999
L351.413 -251.272
L351.643 -254.545
L351.721 -257.817
L351.513 -261.09
L350.895 -264.363
L349.692 -267.635
L349.578 -267.847
L347.545 -270.908
L346.431 -272.129
L343.937 -274.181
L343.285 -274.636
L340.138 -276.186
L336.991 -277.106
L334.008 -277.454
L333.845 -277.472
L333.464 -277.454
L330.698 -277.315
L327.551 -276.651
L324.405 -275.585
L321.258 -274.188
L321.243 -274.181
L318.111 -272.569
L314.965 -271.158
L314.19 -270.908
L311.818 -270.156
L308.671 -269.686
L305.525 -269.658
L302.378 -269.984
L299.231 -270.703
L298.7 -270.908
L296.085 -272.043
L293.017 -274.181
L292.938 -274.242
L290.03 -277.454
L289.791 -277.729
L287.765 -280.726
L286.645 -282.361
L285.694 -283.999
L283.681 -287.272
L283.498 -287.559
L281.801 -290.545
L280.351 -293.092
L279.971 -293.817
L278.354 -297.09
L277.205 -299.59
L276.871 -300.363
L275.554 -303.635
L274.292 -306.908
L274.058 -307.531
L273.081 -310.181
L271.851 -313.454
L270.911 -315.802
L270.528 -316.726
L269.058 -319.999
L267.765 -322.664
L267.434 -323.272
L265.474 -326.545
L264.618 -327.821
L262.945 -329.817
L261.471 -331.382
L259.209 -333.09
L258.325 -333.706
L255.178 -335.083
L252.031 -335.728
L248.885 -335.771
L245.738 -335.332
L242.591 -334.483
L239.444 -333.318
L238.917 -333.09
L236.298 -331.976
L233.151 -330.524
L231.658 -329.817
L230.004 -329.054
L226.858 -327.613
L224.479 -326.545
L223.711 -326.205
L220.564 -324.879
L217.418 -323.643
L216.341 -323.272
L214.271 -322.548
L211.124 -321.664
L207.978 -321.057
L204.831 -320.701
L201.684 -320.538
L198.538 -320.498
L195.391 -320.489
L192.244 -320.435
L189.098 -320.279
L186.433 -319.999
L185.951 -319.945
L182.804 -319.367
L179.658 -318.437
L176.511 -317.018
L176.035 -316.726
L173.364 -314.999
L171.574 -313.454
L170.218 -312.253
L168.326 -310.181
L167.071 -308.806
L165.58 -306.908
L163.924 -304.822
L163.072 -303.635
L160.778 -300.401
L160.752 -300.363
L158.643 -297.09
L157.631 -295.378
L156.753 -293.817
L155.119 -290.545
L154.484 -289.059
L153.741 -287.272
L152.586 -283.999
L151.633 -280.726
L151.338 -279.518
L150.833 -277.454
L150.154 -274.181
L149.565 -270.908
L149.036 -267.635
L148.543 -264.363
L148.191 -261.831
L148.084 -261.09
L147.662 -257.817
L147.31 -254.545
L147.043 -251.272
L146.911 -247.999
L146.953 -244.726
L147.214 -241.454
L147.723 -238.181
L148.191 -236.192
L148.512 -234.908
L149.577 -231.635
L150.844 -228.363
L151.338 -227.183
L152.289 -225.09
L153.813 -221.817
L154.484 -220.367
L155.437 -218.545
L157.146 -215.272
L157.631 -214.365
L159.138 -211.999
L160.778 -209.629
L161.575 -208.726
L163.924 -206.328
L165.133 -205.454
L167.071 -204.187
L170.218 -202.881
L173.364 -202.181
L173.364 -202.181
L176.511 -201.978
L179.658 -202.162
L179.768 -202.181
L182.804 -202.767
L185.951 -203.788
L189.098 -205.122
L189.777 -205.454
L192.244 -206.724
L195.391 -208.286
L196.453 -208.726
L198.538 -209.565
L201.684 -210.349
L204.831 -210.572
L207.978 -210.114
L211.124 -208.781
L211.2 -208.726
L214.271 -206.624
L215.471 -205.454
L217.418 -203.657
L218.653 -202.181
L220.564 -200.067
L221.436 -198.908
L223.711 -196.03
L223.977 -195.635
L226.241 -192.363
L226.858 -191.464
L228.289 -189.09
L230.004 -186.114
L230.16 -185.817
L231.771 -182.545
L233.151 -179.481
L233.24 -179.272
L234.532 -175.999
L235.749 -172.726
L236.298 -171.221
L236.952 -169.454
L238.224 -166.181
L239.444 -163.345
L239.651 -162.908
L241.349 -159.635
L242.591 -157.546
L243.413 -156.363
L245.738 -153.394
L246.036 -153.09
L248.885 -150.467
L249.865 -149.817
L252.031 -148.498" id="C2_0_d8fa2f4ec3"/>
    </defs>
    <g clip-path="url(#p6105b2105a)">
     <use style="fill:#0000ff;" x="0.0" xlink:href="#C2_0_d8fa2f4ec3" y="432.0"/>
    </g>
   </g>
   <g id="line2d_1">
    <path clip-path="url(#p6105b2105a)" d="
M253.605 188.91" style="fill:none;stroke:#fa8072;stroke-linecap:square;"/>
    <defs>
     <path d="
M-7.5 0
L7.5 0
M0 7.5
L0 -7.5" id="m415119b0dc" style="stroke:#fa8072;stroke-width:3;"/>
    </defs>
    <g clip-path="url(#p6105b2105a)">
     <use style="fill:#fa8072;stroke:#fa8072;stroke-width:3;" x="253.60453125" xlink:href="#m415119b0dc" y="188.91"/>
    </g>
   </g>
   <g id="matplotlib.axis_1">
    <g id="xtick_1">
     <g id="line2d_2">
      <path clip-path="url(#p6105b2105a)" d="
M97.8441 350.91
L97.8441 26.91" style="fill:none;stroke:#000000;stroke-dasharray:1.000000,3.000000;stroke-dashoffset:0.0;stroke-width:0.5;"/>
     </g>
     <g id="line2d_3">
      <defs>
       <path d="
M0 0
L0 -4" id="m93b0483c22" style="stroke:#000000;stroke-width:0.5;"/>
      </defs>
      <g>
       <use style="stroke:#000000;stroke-width:0.5;" x="97.8440625" xlink:href="#m93b0483c22" y="350.91"/>
      </g>
     </g>
     <g id="line2d_4">
      <defs>
       <path d="
M0 0
L0 4" id="m741efc42ff" style="stroke:#000000;stroke-width:0.5;"/>
      </defs>
      <g>
       <use style="stroke:#000000;stroke-width:0.5;" x="97.8440625" xlink:href="#m741efc42ff" y="26.91"/>
      </g>
     </g>
     <g id="text_1">
      <!-- −6 -->
      <defs>
       <path d="
M33.0156 40.375
Q26.375 40.375 22.4844 35.8281
Q18.6094 31.2969 18.6094 23.3906
Q18.6094 15.5312 22.4844 10.9531
Q26.375 6.39062 33.0156 6.39062
Q39.6562 6.39062 43.5312 10.9531
Q47.4062 15.5312 47.4062 23.3906
Q47.4062 31.2969 43.5312 35.8281
Q39.6562 40.375 33.0156 40.375
M52.5938 71.2969
L52.5938 62.3125
Q48.875 64.0625 45.0938 64.9844
Q41.3125 65.9219 37.5938 65.9219
Q27.8281 65.9219 22.6719 59.3281
Q17.5312 52.7344 16.7969 39.4062
Q19.6719 43.6562 24.0156 45.9219
Q28.375 48.1875 33.5938 48.1875
Q44.5781 48.1875 50.9531 41.5156
Q57.3281 34.8594 57.3281 23.3906
Q57.3281 12.1562 50.6875 5.35938
Q44.0469 -1.42188 33.0156 -1.42188
Q20.3594 -1.42188 13.6719 8.26562
Q6.98438 17.9688 6.98438 36.375
Q6.98438 53.6562 15.1875 63.9375
Q23.3906 74.2188 37.2031 74.2188
Q40.9219 74.2188 44.7031 73.4844
Q48.4844 72.75 52.5938 71.2969" id="DejaVuSans-36"/>
       <path d="
M10.5938 35.5
L73.1875 35.5
L73.1875 27.2031
L10.5938 27.2031
z
" id="DejaVuSans-2212"/>
      </defs>
      <g transform="translate(86.74890625 367.82734375)scale(0.17 -0.17)">
       <use xlink:href="#DejaVuSans-2212"/>
       <use x="83.7890625" xlink:href="#DejaVuSans-36"/>
      </g>
     </g>
    </g>
    <g id="xtick_2">
     <g id="line2d_5">
      <path clip-path="url(#p6105b2105a)" d="
M149.764 350.91
L149.764 26.91" style="fill:none;stroke:#000000;stroke-dasharray:1.000000,3.000000;stroke-dashoffset:0.0;stroke-width:0.5;"/>
     </g>
     <g id="line2d_6">
      <g>
       <use style="stroke:#000000;stroke-width:0.5;" x="149.76421875" xlink:href="#m93b0483c22" y="350.91"/>
      </g>
     </g>
     <g id="line2d_7">
      <g>
       <use style="stroke:#000000;stroke-width:0.5;" x="149.76421875" xlink:href="#m741efc42ff" y="26.91"/>
      </g>
     </g>
     <g id="text_2">
      <!-- −4 -->
      <defs>
       <path d="
M37.7969 64.3125
L12.8906 25.3906
L37.7969 25.3906
z

M35.2031 72.9062
L47.6094 72.9062
L47.6094 25.3906
L58.0156 25.3906
L58.0156 17.1875
L47.6094 17.1875
L47.6094 0
L37.7969 0
L37.7969 17.1875
L4.89062 17.1875
L4.89062 26.7031
z
" id="DejaVuSans-34"/>
      </defs>
      <g transform="translate(138.610625 367.82734375)scale(0.17 -0.17)">
       <use xlink:href="#DejaVuSans-2212"/>
       <use x="83.7890625" xlink:href="#DejaVuSans-34"/>
      </g>
     </g>
    </g>
    <g id="xtick_3">
     <g id="line2d_8">
      <path clip-path="url(#p6105b2105a)" d="
M201.684 350.91
L201.684 26.91" style="fill:none;stroke:#000000;stroke-dasharray:1.000000,3.000000;stroke-dashoffset:0.0;stroke-width:0.5;"/>
     </g>
     <g id="line2d_9">
      <g>
       <use style="stroke:#000000;stroke-width:0.5;" x="201.684375" xlink:href="#m93b0483c22" y="350.91"/>
      </g>
     </g>
     <g id="line2d_10">
      <g>
       <use style="stroke:#000000;stroke-width:0.5;" x="201.684375" xlink:href="#m741efc42ff" y="26.91"/>
      </g>
     </g>
     <g id="text_3">
      <!-- −2 -->
      <defs>
       <path d="
M19.1875 8.29688
L53.6094 8.29688
L53.6094 0
L7.32812 0
L7.32812 8.29688
Q12.9375 14.1094 22.625 23.8906
Q32.3281 33.6875 34.8125 36.5312
Q39.5469 41.8438 41.4219 45.5312
Q43.3125 49.2188 43.3125 52.7812
Q43.3125 58.5938 39.2344 62.25
Q35.1562 65.9219 28.6094 65.9219
Q23.9688 65.9219 18.8125 64.3125
Q13.6719 62.7031 7.8125 59.4219
L7.8125 69.3906
Q13.7656 71.7812 18.9375 73
Q24.125 74.2188 28.4219 74.2188
Q39.75 74.2188 46.4844 68.5469
Q53.2188 62.8906 53.2188 53.4219
Q53.2188 48.9219 51.5312 44.8906
Q49.8594 40.875 45.4062 35.4062
Q44.1875 33.9844 37.6406 27.2188
Q31.1094 20.4531 19.1875 8.29688" id="DejaVuSans-32"/>
      </defs>
      <g transform="translate(190.9053125 367.82734375)scale(0.17 -0.17)">
       <use xlink:href="#DejaVuSans-2212"/>
       <use x="83.7890625" xlink:href="#DejaVuSans-32"/>
      </g>
     </g>
    </g>
    <g id="xtick_4">
     <g id="line2d_11">
      <path clip-path="url(#p6105b2105a)" d="
M253.605 350.91
L253.605 26.91" style="fill:none;stroke:#000000;stroke-dasharray:1.000000,3.000000;stroke-dashoffset:0.0;stroke-width:0.5;"/>
     </g>
     <g id="line2d_12">
      <g>
       <use style="stroke:#000000;stroke-width:0.5;" x="253.60453125" xlink:href="#m93b0483c22" y="350.91"/>
      </g>
     </g>
     <g id="line2d_13">
      <g>
       <use style="stroke:#000000;stroke-width:0.5;" x="253.60453125" xlink:href="#m741efc42ff" y="26.91"/>
      </g>
     </g>
     <g id="text_4">
      <!-- 0 -->
      <defs>
       <path d="
M31.7812 66.4062
Q24.1719 66.4062 20.3281 58.9062
Q16.5 51.4219 16.5 36.375
Q16.5 21.3906 20.3281 13.8906
Q24.1719 6.39062 31.7812 6.39062
Q39.4531 6.39062 43.2812 13.8906
Q47.125 21.3906 47.125 36.375
Q47.125 51.4219 43.2812 58.9062
Q39.4531 66.4062 31.7812 66.4062
M31.7812 74.2188
Q44.0469 74.2188 50.5156 64.5156
Q56.9844 54.8281 56.9844 36.375
Q56.9844 17.9688 50.5156 8.26562
Q44.0469 -1.42188 31.7812 -1.42188
Q19.5312 -1.42188 13.0625 8.26562
Q6.59375 17.9688 6.59375 36.375
Q6.59375 54.8281 13.0625 64.5156
Q19.5312 74.2188 31.7812 74.2188" id="DejaVuSans-30"/>
      </defs>
      <g transform="translate(249.321328125 367.82734375)scale(0.17 -0.17)">
       <use xlink:href="#DejaVuSans-30"/>
      </g>
     </g>
    </g>
    <g id="xtick_5">
     <g id="line2d_14">
      <path clip-path="url(#p6105b2105a)" d="
M305.525 350.91
L305.525 26.91" style="fill:none;stroke:#000000;stroke-dasharray:1.000000,3.000000;stroke-dashoffset:0.0;stroke-width:0.5;"/>
     </g>
     <g id="line2d_15">
      <g>
       <use style="stroke:#000000;stroke-width:0.5;" x="305.5246875" xlink:href="#m93b0483c22" y="350.91"/>
      </g>
     </g>
     <g id="line2d_16">
      <g>
       <use style="stroke:#000000;stroke-width:0.5;" x="305.5246875" xlink:href="#m741efc42ff" y="26.91"/>
      </g>
     </g>
     <g id="text_5">
      <!-- 2 -->
      <g transform="translate(301.59078125 367.82734375)scale(0.17 -0.17)">
       <use xlink:href="#DejaVuSans-32"/>
      </g>
     </g>
    </g>
    <g id="xtick_6">
     <g id="line2d_17">
      <path clip-path="url(#p6105b2105a)" d="
M357.445 350.91
L357.445 26.91" style="fill:none;stroke:#000000;stroke-dasharray:1.000000,3.000000;stroke-dashoffset:0.0;stroke-width:0.5;"/>
     </g>
     <g id="line2d_18">
      <g>
       <use style="stroke:#000000;stroke-width:0.5;" x="357.44484375" xlink:href="#m93b0483c22" y="350.91"/>
      </g>
     </g>
     <g id="line2d_19">
      <g>
       <use style="stroke:#000000;stroke-width:0.5;" x="357.44484375" xlink:href="#m741efc42ff" y="26.91"/>
      </g>
     </g>
     <g id="text_6">
      <!-- 4 -->
      <g transform="translate(352.92921875 367.82734375)scale(0.17 -0.17)">
       <use xlink:href="#DejaVuSans-34"/>
      </g>
     </g>
    </g>
    <g id="xtick_7">
     <g id="line2d_20">
      <path clip-path="url(#p6105b2105a)" d="
M409.365 350.91
L409.365 26.91" style="fill:none;stroke:#000000;stroke-dasharray:1.000000,3.000000;stroke-dashoffset:0.0;stroke-width:0.5;"/>
     </g>
     <g id="line2d_21">
      <g>
       <use style="stroke:#000000;stroke-width:0.5;" x="409.365" xlink:href="#m93b0483c22" y="350.91"/>
      </g>
     </g>
     <g id="line2d_22">
      <g>
       <use style="stroke:#000000;stroke-width:0.5;" x="409.365" xlink:href="#m741efc42ff" y="26.91"/>
      </g>
     </g>
     <g id="text_7">
      <!-- 6 -->
      <g transform="translate(405.08578125 367.82734375)scale(0.17 -0.17)">
       <use xlink:href="#DejaVuSans-36"/>
      </g>
     </g>
    </g>
    <g id="xtick_8">
     <g id="line2d_23">
      <defs>
       <path d="
M0 0
L0 -2" id="m177f7580d0" style="stroke:#000000;stroke-width:0.5;"/>
      </defs>
      <g>
       <use style="stroke:#000000;stroke-width:0.5;" x="110.824101563" xlink:href="#m177f7580d0" y="350.91"/>
      </g>
     </g>
     <g id="line2d_24">
      <defs>
       <path d="
M0 0
L0 2" id="m5284c7e2a0" style="stroke:#000000;stroke-width:0.5;"/>
      </defs>
      <g>
       <use style="stroke:#000000;stroke-width:0.5;" x="110.824101563" xlink:href="#m5284c7e2a0" y="26.91"/>
      </g>
     </g>
    </g>
    <g id="xtick_9">
     <g id="line2d_25">
      <g>
       <use style="stroke:#000000;stroke-width:0.5;" x="123.804140625" xlink:href="#m177f7580d0" y="350.91"/>
      </g>
     </g>
     <g id="line2d_26">
      <g>
       <use style="stroke:#000000;stroke-width:0.5;" x="123.804140625" xlink:href="#m5284c7e2a0" y="26.91"/>
      </g>
     </g>
    </g>
    <g id="xtick_10">
     <g id="line2d_27">
      <g>
       <use style="stroke:#000000;stroke-width:0.5;" x="136.784179688" xlink:href="#m177f7580d0" y="350.91"/>
      </g>
     </g>
     <g id="line2d_28">
      <g>
       <use style="stroke:#000000;stroke-width:0.5;" x="136.784179688" xlink:href="#m5284c7e2a0" y="26.91"/>
      </g>
     </g>
    </g>
    <g id="xtick_11">
     <g id="line2d_29">
      <g>
       <use style="stroke:#000000;stroke-width:0.5;" x="162.744257813" xlink:href="#m177f7580d0" y="350.91"/>
      </g>
     </g>
     <g id="line2d_30">
      <g>
       <use style="stroke:#000000;stroke-width:0.5;" x="162.744257813" xlink:href="#m5284c7e2a0" y="26.91"/>
      </g>
     </g>
    </g>
    <g id="xtick_12">
     <g id="line2d_31">
      <g>
       <use style="stroke:#000000;stroke-width:0.5;" x="175.724296875" xlink:href="#m177f7580d0" y="350.91"/>
      </g>
     </g>
     <g id="line2d_32">
      <g>
       <use style="stroke:#000000;stroke-width:0.5;" x="175.724296875" xlink:href="#m5284c7e2a0" y="26.91"/>
      </g>
     </g>
    </g>
    <g id="xtick_13">
     <g id="line2d_33">
      <g>
       <use style="stroke:#000000;stroke-width:0.5;" x="188.704335938" xlink:href="#m177f7580d0" y="350.91"/>
      </g>
     </g>
     <g id="line2d_34">
      <g>
       <use style="stroke:#000000;stroke-width:0.5;" x="188.704335938" xlink:href="#m5284c7e2a0" y="26.91"/>
      </g>
     </g>
    </g>
    <g id="xtick_14">
     <g id="line2d_35">
      <g>
       <use style="stroke:#000000;stroke-width:0.5;" x="214.664414063" xlink:href="#m177f7580d0" y="350.91"/>
      </g>
     </g>
     <g id="line2d_36">
      <g>
       <use style="stroke:#000000;stroke-width:0.5;" x="214.664414063" xlink:href="#m5284c7e2a0" y="26.91"/>
      </g>
     </g>
    </g>
    <g id="xtick_15">
     <g id="line2d_37">
      <g>
       <use style="stroke:#000000;stroke-width:0.5;" x="227.644453125" xlink:href="#m177f7580d0" y="350.91"/>
      </g>
     </g>
     <g id="line2d_38">
      <g>
       <use style="stroke:#000000;stroke-width:0.5;" x="227.644453125" xlink:href="#m5284c7e2a0" y="26.91"/>
      </g>
     </g>
    </g>
    <g id="xtick_16">
     <g id="line2d_39">
      <g>
       <use style="stroke:#000000;stroke-width:0.5;" x="240.624492188" xlink:href="#m177f7580d0" y="350.91"/>
      </g>
     </g>
     <g id="line2d_40">
      <g>
       <use style="stroke:#000000;stroke-width:0.5;" x="240.624492188" xlink:href="#m5284c7e2a0" y="26.91"/>
      </g>
     </g>
    </g>
    <g id="xtick_17">
     <g id="line2d_41">
      <g>
       <use style="stroke:#000000;stroke-width:0.5;" x="266.584570313" xlink:href="#m177f7580d0" y="350.91"/>
      </g>
     </g>
     <g id="line2d_42">
      <g>
       <use style="stroke:#000000;stroke-width:0.5;" x="266.584570313" xlink:href="#m5284c7e2a0" y="26.91"/>
      </g>
     </g>
    </g>
    <g id="xtick_18">
     <g id="line2d_43">
      <g>
       <use style="stroke:#000000;stroke-width:0.5;" x="279.564609375" xlink:href="#m177f7580d0" y="350.91"/>
      </g>
     </g>
     <g id="line2d_44">
      <g>
       <use style="stroke:#000000;stroke-width:0.5;" x="279.564609375" xlink:href="#m5284c7e2a0" y="26.91"/>
      </g>
     </g>
    </g>
    <g id="xtick_19">
     <g id="line2d_45">
      <g>
       <use style="stroke:#000000;stroke-width:0.5;" x="292.544648438" xlink:href="#m177f7580d0" y="350.91"/>
      </g>
     </g>
     <g id="line2d_46">
      <g>
       <use style="stroke:#000000;stroke-width:0.5;" x="292.544648438" xlink:href="#m5284c7e2a0" y="26.91"/>
      </g>
     </g>
    </g>
    <g id="xtick_20">
     <g id="line2d_47">
      <g>
       <use style="stroke:#000000;stroke-width:0.5;" x="318.504726563" xlink:href="#m177f7580d0" y="350.91"/>
      </g>
     </g>
     <g id="line2d_48">
      <g>
       <use style="stroke:#000000;stroke-width:0.5;" x="318.504726563" xlink:href="#m5284c7e2a0" y="26.91"/>
      </g>
     </g>
    </g>
    <g id="xtick_21">
     <g id="line2d_49">
      <g>
       <use style="stroke:#000000;stroke-width:0.5;" x="331.484765625" xlink:href="#m177f7580d0" y="350.91"/>
      </g>
     </g>
     <g id="line2d_50">
      <g>
       <use style="stroke:#000000;stroke-width:0.5;" x="331.484765625" xlink:href="#m5284c7e2a0" y="26.91"/>
      </g>
     </g>
    </g>
    <g id="xtick_22">
     <g id="line2d_51">
      <g>
       <use style="stroke:#000000;stroke-width:0.5;" x="344.464804688" xlink:href="#m177f7580d0" y="350.91"/>
      </g>
     </g>
     <g id="line2d_52">
      <g>
       <use style="stroke:#000000;stroke-width:0.5;" x="344.464804688" xlink:href="#m5284c7e2a0" y="26.91"/>
      </g>
     </g>
    </g>
    <g id="xtick_23">
     <g id="line2d_53">
      <g>
       <use style="stroke:#000000;stroke-width:0.5;" x="370.424882813" xlink:href="#m177f7580d0" y="350.91"/>
      </g>
     </g>
     <g id="line2d_54">
      <g>
       <use style="stroke:#000000;stroke-width:0.5;" x="370.424882813" xlink:href="#m5284c7e2a0" y="26.91"/>
      </g>
     </g>
    </g>
    <g id="xtick_24">
     <g id="line2d_55">
      <g>
       <use style="stroke:#000000;stroke-width:0.5;" x="383.404921875" xlink:href="#m177f7580d0" y="350.91"/>
      </g>
     </g>
     <g id="line2d_56">
      <g>
       <use style="stroke:#000000;stroke-width:0.5;" x="383.404921875" xlink:href="#m5284c7e2a0" y="26.91"/>
      </g>
     </g>
    </g>
    <g id="xtick_25">
     <g id="line2d_57">
      <g>
       <use style="stroke:#000000;stroke-width:0.5;" x="396.384960938" xlink:href="#m177f7580d0" y="350.91"/>
      </g>
     </g>
     <g id="line2d_58">
      <g>
       <use style="stroke:#000000;stroke-width:0.5;" x="396.384960938" xlink:href="#m5284c7e2a0" y="26.91"/>
      </g>
     </g>
    </g>
    <g id="text_8">
     <!-- $\mathcal{C}_{10}^{\prime}$ -->
     <defs>
      <path d="
M3.51562 5.42188
Q2.875 5.60938 2.875 6.39062
L15.0938 51.8125
Q15.6719 53.6562 17.0781 54.7812
Q18.5 55.9062 20.3125 55.9062
Q22.6562 55.9062 24.4375 54.3594
Q26.2188 52.8281 26.2188 50.4844
Q26.2188 49.4688 25.6875 48.1875
L7.625 4.98438
Q7.28125 4.29688 6.6875 4.29688
Q6.15625 4.29688 5 4.78125
Q3.85938 5.28125 3.51562 5.42188" id="Cmsy10-30"/>
      <path d="
M9.28125 0
L9.28125 3.51562
Q21.7812 3.51562 21.7812 6.6875
L21.7812 59.1875
Q16.6094 56.6875 8.6875 56.6875
L8.6875 60.2031
Q20.9531 60.2031 27.2031 66.6094
L28.6094 66.6094
Q28.9531 66.6094 29.2656 66.3281
Q29.5938 66.0625 29.5938 65.7188
L29.5938 6.6875
Q29.5938 3.51562 42.0938 3.51562
L42.0938 0
z
" id="Cmr10-31"/>
      <path d="
M25 -2.20312
Q12.75 -2.20312 8.32812 7.875
Q3.90625 17.9688 3.90625 31.8906
Q3.90625 40.5781 5.48438 48.2344
Q7.07812 55.9062 11.7812 61.25
Q16.5 66.6094 25 66.6094
Q31.5938 66.6094 35.7812 63.375
Q39.9844 60.1562 42.1875 55.0469
Q44.3906 49.9531 45.1875 44.1094
Q46 38.2812 46 31.8906
Q46 23.2969 44.4062 15.7969
Q42.8281 8.29688 38.1875 3.04688
Q33.5469 -2.20312 25 -2.20312
M25 0.390625
Q30.5625 0.390625 33.2969 6.09375
Q36.0312 11.8125 36.6719 18.75
Q37.3125 25.6875 37.3125 33.5
Q37.3125 41.0156 36.6719 47.3594
Q36.0312 53.7188 33.3125 58.8594
Q30.6094 64.0156 25 64.0156
Q19.3438 64.0156 16.6094 58.8281
Q13.875 53.6562 13.2344 47.3281
Q12.5938 41.0156 12.5938 33.5
Q12.5938 27.9375 12.8594 23
Q13.1406 18.0625 14.3125 12.8125
Q15.4844 7.5625 18.0938 3.96875
Q20.7031 0.390625 25 0.390625" id="Cmr10-30"/>
      <path d="
M19.6719 -2.39062
Q14.9375 -2.39062 11.4375 -0.5625
Q7.95312 1.26562 5.64062 4.5625
Q3.32812 7.85938 2.26562 11.8125
Q1.21875 15.7656 1.21875 20.3125
Q1.21875 29.25 4.51562 38.3594
Q7.8125 47.4688 13.7656 54.7188
Q19.7344 61.9688 27.9062 66.2344
Q36.0781 70.5156 45.5156 70.5156
L46.0938 70.5156
Q49.3594 70.5156 51.3906 68.8438
Q53.4219 67.1875 53.4219 64.0156
Q53.4219 61.2344 51.8125 57.4688
Q50.2031 53.7188 47.9062 49.6094
Q46.8281 47.7969 44.6562 46.4844
Q42.4844 45.1719 40.1875 44.9219
L39.7031 44.9219
Q39.0156 45.2656 39.0156 45.6094
Q39.0156 46.0469 40.5938 49.1719
Q42.1875 52.2969 43.3281 55.0469
Q44.4844 57.8125 44.4844 59.8125
Q44.4844 62.25 42.9375 63.4219
Q41.4062 64.5938 38.8125 64.5938
Q31.4531 64.5938 26.4375 61.0781
Q21.4375 57.5625 17.3906 50.6875
Q14.0156 44.875 12.0625 38.1094
Q10.1094 31.3438 10.1094 24.6094
Q10.1094 19.0938 11.8594 14.2344
Q13.625 9.375 17.4219 6.4375
Q21.2344 3.51562 27 3.51562
Q33.0625 3.51562 37.7969 8.01562
Q38.4219 8.6875 40.4062 11.2969
Q42.3906 13.9219 44.0938 15.1406
Q45.7969 16.3594 48.4844 16.6094
L49.0312 16.6094
Q49.7031 16.2656 49.7031 15.8281
Q49.7031 15.4375 49.4219 14.9844
Q46.5781 10.2969 41.7969 6.29688
Q37.0156 2.29688 31.2969 -0.046875
Q25.5938 -2.39062 20.3125 -2.39062
z
" id="Cmsy10-43"/>
     </defs>
     <g transform="translate(235.15453125 401.8628125)scale(0.3 -0.3)">
      <use transform="translate(0.0 0.859375)" xlink:href="#Cmsy10-43"/>
      <use transform="translate(52.587890625 45.865625)scale(0.7)" xlink:href="#Cmsy10-30"/>
      <use transform="translate(52.587890625 -24.65)scale(0.7)" xlink:href="#Cmr10-31"/>
      <use transform="translate(87.587890625 -24.65)scale(0.7)" xlink:href="#Cmr10-30"/>
     </g>
    </g>
   </g>
   <g id="matplotlib.axis_2">
    <g id="ytick_1">
     <g id="text_9">
      <!-- −0.6 -->
      <defs>
       <path d="
M10.6875 12.4062
L21 12.4062
L21 0
L10.6875 0
z
" id="DejaVuSans-2e"/>
      </defs>
      <g transform="translate(55.4346875 355.6009375)scale(0.17 -0.17)">
       <use xlink:href="#DejaVuSans-2212"/>
       <use x="83.7890625" xlink:href="#DejaVuSans-30"/>
       <use x="147.412109375" xlink:href="#DejaVuSans-2e"/>
       <use x="179.19921875" xlink:href="#DejaVuSans-36"/>
      </g>
     </g>
    </g>
    <g id="ytick_2">
     <g id="line2d_59">
      <path clip-path="url(#p6105b2105a)" d="
M97.8441 296.91
L409.365 296.91" style="fill:none;stroke:#000000;stroke-dasharray:1.000000,3.000000;stroke-dashoffset:0.0;stroke-width:0.5;"/>
     </g>
     <g id="line2d_60">
      <defs>
       <path d="
M0 0
L4 0" id="m728421d6d4" style="stroke:#000000;stroke-width:0.5;"/>
      </defs>
      <g>
       <use style="stroke:#000000;stroke-width:0.5;" x="97.8440625" xlink:href="#m728421d6d4" y="296.91"/>
      </g>
     </g>
     <g id="line2d_61">
      <defs>
       <path d="
M0 0
L-4 0" id="mcb0005524f" style="stroke:#000000;stroke-width:0.5;"/>
      </defs>
      <g>
       <use style="stroke:#000000;stroke-width:0.5;" x="409.365" xlink:href="#mcb0005524f" y="296.91"/>
      </g>
     </g>
     <g id="text_10">
      <!-- −0.4 -->
      <g transform="translate(55.3178125 301.6009375)scale(0.17 -0.17)">
       <use xlink:href="#DejaVuSans-2212"/>
       <use x="83.7890625" xlink:href="#DejaVuSans-30"/>
       <use x="147.412109375" xlink:href="#DejaVuSans-2e"/>
       <use x="179.19921875" xlink:href="#DejaVuSans-34"/>
      </g>
     </g>
    </g>
    <g id="ytick_3">
     <g id="line2d_62">
      <path clip-path="url(#p6105b2105a)" d="
M97.8441 242.91
L409.365 242.91" style="fill:none;stroke:#000000;stroke-dasharray:1.000000,3.000000;stroke-dashoffset:0.0;stroke-width:0.5;"/>
     </g>
     <g id="line2d_63">
      <g>
       <use style="stroke:#000000;stroke-width:0.5;" x="97.8440625" xlink:href="#m728421d6d4" y="242.91"/>
      </g>
     </g>
     <g id="line2d_64">
      <g>
       <use style="stroke:#000000;stroke-width:0.5;" x="409.365" xlink:href="#mcb0005524f" y="242.91"/>
      </g>
     </g>
     <g id="text_11">
      <!-- −0.2 -->
      <g transform="translate(56.066875 247.6009375)scale(0.17 -0.17)">
       <use xlink:href="#DejaVuSans-2212"/>
       <use x="83.7890625" xlink:href="#DejaVuSans-30"/>
       <use x="147.412109375" xlink:href="#DejaVuSans-2e"/>
       <use x="179.19921875" xlink:href="#DejaVuSans-32"/>
      </g>
     </g>
    </g>
    <g id="ytick_4">
     <g id="line2d_65">
      <path clip-path="url(#p6105b2105a)" d="
M97.8441 188.91
L409.365 188.91" style="fill:none;stroke:#000000;stroke-dasharray:1.000000,3.000000;stroke-dashoffset:0.0;stroke-width:0.5;"/>
     </g>
     <g id="line2d_66">
      <g>
       <use style="stroke:#000000;stroke-width:0.5;" x="97.8440625" xlink:href="#m728421d6d4" y="188.91"/>
      </g>
     </g>
     <g id="line2d_67">
      <g>
       <use style="stroke:#000000;stroke-width:0.5;" x="409.365" xlink:href="#mcb0005524f" y="188.91"/>
      </g>
     </g>
     <g id="text_12">
      <!-- 0.0 -->
      <g transform="translate(69.05859375 193.6009375)scale(0.17 -0.17)">
       <use xlink:href="#DejaVuSans-30"/>
       <use x="63.623046875" xlink:href="#DejaVuSans-2e"/>
       <use x="95.41015625" xlink:href="#DejaVuSans-30"/>
      </g>
     </g>
    </g>
    <g id="ytick_5">
     <g id="line2d_68">
      <path clip-path="url(#p6105b2105a)" d="
M97.8441 134.91
L409.365 134.91" style="fill:none;stroke:#000000;stroke-dasharray:1.000000,3.000000;stroke-dashoffset:0.0;stroke-width:0.5;"/>
     </g>
     <g id="line2d_69">
      <g>
       <use style="stroke:#000000;stroke-width:0.5;" x="97.8440625" xlink:href="#m728421d6d4" y="134.91"/>
      </g>
     </g>
     <g id="line2d_70">
      <g>
       <use style="stroke:#000000;stroke-width:0.5;" x="409.365" xlink:href="#mcb0005524f" y="134.91"/>
      </g>
     </g>
     <g id="text_13">
      <!-- 0.2 -->
      <g transform="translate(69.63234375 139.6009375)scale(0.17 -0.17)">
       <use xlink:href="#DejaVuSans-30"/>
       <use x="63.623046875" xlink:href="#DejaVuSans-2e"/>
       <use x="95.41015625" xlink:href="#DejaVuSans-32"/>
      </g>
     </g>
    </g>
    <g id="ytick_6">
     <g id="line2d_71">
      <path clip-path="url(#p6105b2105a)" d="
M97.8441 80.91
L409.365 80.91" style="fill:none;stroke:#000000;stroke-dasharray:1.000000,3.000000;stroke-dashoffset:0.0;stroke-width:0.5;"/>
     </g>
     <g id="line2d_72">
      <g>
       <use style="stroke:#000000;stroke-width:0.5;" x="97.8440625" xlink:href="#m728421d6d4" y="80.91"/>
      </g>
     </g>
     <g id="line2d_73">
      <g>
       <use style="stroke:#000000;stroke-width:0.5;" x="409.365" xlink:href="#mcb0005524f" y="80.91"/>
      </g>
     </g>
     <g id="text_14">
      <!-- 0.4 -->
      <g transform="translate(68.88328125 85.6009375)scale(0.17 -0.17)">
       <use xlink:href="#DejaVuSans-30"/>
       <use x="63.623046875" xlink:href="#DejaVuSans-2e"/>
       <use x="95.41015625" xlink:href="#DejaVuSans-34"/>
      </g>
     </g>
    </g>
    <g id="ytick_7">
     <g id="text_15">
      <!-- 0.6 -->
      <g transform="translate(69.00015625 31.6009375)scale(0.17 -0.17)">
       <use xlink:href="#DejaVuSans-30"/>
       <use x="63.623046875" xlink:href="#DejaVuSans-2e"/>
       <use x="95.41015625" xlink:href="#DejaVuSans-36"/>
      </g>
     </g>
    </g>
    <g id="ytick_8">
     <g id="line2d_74">
      <defs>
       <path d="
M0 0
L2 0" id="mf0c55a9a47" style="stroke:#000000;stroke-width:0.5;"/>
      </defs>
      <g>
       <use style="stroke:#000000;stroke-width:0.5;" x="97.8440625" xlink:href="#mf0c55a9a47" y="337.41"/>
      </g>
     </g>
     <g id="line2d_75">
      <defs>
       <path d="
M0 0
L-2 0" id="ma4f294b3af" style="stroke:#000000;stroke-width:0.5;"/>
      </defs>
      <g>
       <use style="stroke:#000000;stroke-width:0.5;" x="409.365" xlink:href="#ma4f294b3af" y="337.41"/>
      </g>
     </g>
    </g>
    <g id="ytick_9">
     <g id="line2d_76">
      <g>
       <use style="stroke:#000000;stroke-width:0.5;" x="97.8440625" xlink:href="#mf0c55a9a47" y="323.91"/>
      </g>
     </g>
     <g id="line2d_77">
      <g>
       <use style="stroke:#000000;stroke-width:0.5;" x="409.365" xlink:href="#ma4f294b3af" y="323.91"/>
      </g>
     </g>
    </g>
    <g id="ytick_10">
     <g id="line2d_78">
      <g>
       <use style="stroke:#000000;stroke-width:0.5;" x="97.8440625" xlink:href="#mf0c55a9a47" y="310.41"/>
      </g>
     </g>
     <g id="line2d_79">
      <g>
       <use style="stroke:#000000;stroke-width:0.5;" x="409.365" xlink:href="#ma4f294b3af" y="310.41"/>
      </g>
     </g>
    </g>
    <g id="ytick_11">
     <g id="line2d_80">
      <g>
       <use style="stroke:#000000;stroke-width:0.5;" x="97.8440625" xlink:href="#mf0c55a9a47" y="283.41"/>
      </g>
     </g>
     <g id="line2d_81">
      <g>
       <use style="stroke:#000000;stroke-width:0.5;" x="409.365" xlink:href="#ma4f294b3af" y="283.41"/>
      </g>
     </g>
    </g>
    <g id="ytick_12">
     <g id="line2d_82">
      <g>
       <use style="stroke:#000000;stroke-width:0.5;" x="97.8440625" xlink:href="#mf0c55a9a47" y="269.91"/>
      </g>
     </g>
     <g id="line2d_83">
      <g>
       <use style="stroke:#000000;stroke-width:0.5;" x="409.365" xlink:href="#ma4f294b3af" y="269.91"/>
      </g>
     </g>
    </g>
    <g id="ytick_13">
     <g id="line2d_84">
      <g>
       <use style="stroke:#000000;stroke-width:0.5;" x="97.8440625" xlink:href="#mf0c55a9a47" y="256.41"/>
      </g>
     </g>
     <g id="line2d_85">
      <g>
       <use style="stroke:#000000;stroke-width:0.5;" x="409.365" xlink:href="#ma4f294b3af" y="256.41"/>
      </g>
     </g>
    </g>
    <g id="ytick_14">
     <g id="line2d_86">
      <g>
       <use style="stroke:#000000;stroke-width:0.5;" x="97.8440625" xlink:href="#mf0c55a9a47" y="229.41"/>
      </g>
     </g>
     <g id="line2d_87">
      <g>
       <use style="stroke:#000000;stroke-width:0.5;" x="409.365" xlink:href="#ma4f294b3af" y="229.41"/>
      </g>
     </g>
    </g>
    <g id="ytick_15">
     <g id="line2d_88">
      <g>
       <use style="stroke:#000000;stroke-width:0.5;" x="97.8440625" xlink:href="#mf0c55a9a47" y="215.91"/>
      </g>
     </g>
     <g id="line2d_89">
      <g>
       <use style="stroke:#000000;stroke-width:0.5;" x="409.365" xlink:href="#ma4f294b3af" y="215.91"/>
      </g>
     </g>
    </g>
    <g id="ytick_16">
     <g id="line2d_90">
      <g>
       <use style="stroke:#000000;stroke-width:0.5;" x="97.8440625" xlink:href="#mf0c55a9a47" y="202.41"/>
      </g>
     </g>
     <g id="line2d_91">
      <g>
       <use style="stroke:#000000;stroke-width:0.5;" x="409.365" xlink:href="#ma4f294b3af" y="202.41"/>
      </g>
     </g>
    </g>
    <g id="ytick_17">
     <g id="line2d_92">
      <g>
       <use style="stroke:#000000;stroke-width:0.5;" x="97.8440625" xlink:href="#mf0c55a9a47" y="175.41"/>
      </g>
     </g>
     <g id="line2d_93">
      <g>
       <use style="stroke:#000000;stroke-width:0.5;" x="409.365" xlink:href="#ma4f294b3af" y="175.41"/>
      </g>
     </g>
    </g>
    <g id="ytick_18">
     <g id="line2d_94">
      <g>
       <use style="stroke:#000000;stroke-width:0.5;" x="97.8440625" xlink:href="#mf0c55a9a47" y="161.91"/>
      </g>
     </g>
     <g id="line2d_95">
      <g>
       <use style="stroke:#000000;stroke-width:0.5;" x="409.365" xlink:href="#ma4f294b3af" y="161.91"/>
      </g>
     </g>
    </g>
    <g id="ytick_19">
     <g id="line2d_96">
      <g>
       <use style="stroke:#000000;stroke-width:0.5;" x="97.8440625" xlink:href="#mf0c55a9a47" y="148.41"/>
      </g>
     </g>
     <g id="line2d_97">
      <g>
       <use style="stroke:#000000;stroke-width:0.5;" x="409.365" xlink:href="#ma4f294b3af" y="148.41"/>
      </g>
     </g>
    </g>
    <g id="ytick_20">
     <g id="line2d_98">
      <g>
       <use style="stroke:#000000;stroke-width:0.5;" x="97.8440625" xlink:href="#mf0c55a9a47" y="121.41"/>
      </g>
     </g>
     <g id="line2d_99">
      <g>
       <use style="stroke:#000000;stroke-width:0.5;" x="409.365" xlink:href="#ma4f294b3af" y="121.41"/>
      </g>
     </g>
    </g>
    <g id="ytick_21">
     <g id="line2d_100">
      <g>
       <use style="stroke:#000000;stroke-width:0.5;" x="97.8440625" xlink:href="#mf0c55a9a47" y="107.91"/>
      </g>
     </g>
     <g id="line2d_101">
      <g>
       <use style="stroke:#000000;stroke-width:0.5;" x="409.365" xlink:href="#ma4f294b3af" y="107.91"/>
      </g>
     </g>
    </g>
    <g id="ytick_22">
     <g id="line2d_102">
      <g>
       <use style="stroke:#000000;stroke-width:0.5;" x="97.8440625" xlink:href="#mf0c55a9a47" y="94.41"/>
      </g>
     </g>
     <g id="line2d_103">
      <g>
       <use style="stroke:#000000;stroke-width:0.5;" x="409.365" xlink:href="#ma4f294b3af" y="94.41"/>
      </g>
     </g>
    </g>
    <g id="ytick_23">
     <g id="line2d_104">
      <g>
       <use style="stroke:#000000;stroke-width:0.5;" x="97.8440625" xlink:href="#mf0c55a9a47" y="80.91"/>
      </g>
     </g>
     <g id="line2d_105">
      <g>
       <use style="stroke:#000000;stroke-width:0.5;" x="409.365" xlink:href="#ma4f294b3af" y="80.91"/>
      </g>
     </g>
    </g>
    <g id="ytick_24">
     <g id="line2d_106">
      <g>
       <use style="stroke:#000000;stroke-width:0.5;" x="97.8440625" xlink:href="#mf0c55a9a47" y="67.41"/>
      </g>
     </g>
     <g id="line2d_107">
      <g>
       <use style="stroke:#000000;stroke-width:0.5;" x="409.365" xlink:href="#ma4f294b3af" y="67.41"/>
      </g>
     </g>
    </g>
    <g id="ytick_25">
     <g id="line2d_108">
      <g>
       <use style="stroke:#000000;stroke-width:0.5;" x="97.8440625" xlink:href="#mf0c55a9a47" y="53.91"/>
      </g>
     </g>
     <g id="line2d_109">
      <g>
       <use style="stroke:#000000;stroke-width:0.5;" x="409.365" xlink:href="#ma4f294b3af" y="53.91"/>
      </g>
     </g>
    </g>
    <g id="ytick_26">
     <g id="line2d_110">
      <g>
       <use style="stroke:#000000;stroke-width:0.5;" x="97.8440625" xlink:href="#mf0c55a9a47" y="40.41"/>
      </g>
     </g>
     <g id="line2d_111">
      <g>
       <use style="stroke:#000000;stroke-width:0.5;" x="409.365" xlink:href="#ma4f294b3af" y="40.41"/>
      </g>
     </g>
    </g>
    <g id="text_16">
     <!-- $\mathcal{C}_{P}$ -->
     <defs>
      <path d="
M4.89062 0
Q3.90625 0 3.90625 1.3125
Q3.95312 1.5625 4.09375 2.17188
Q4.25 2.78125 4.51562 3.14062
Q4.78125 3.51562 5.17188 3.51562
Q11.2812 3.51562 13.7188 4.20312
Q14.9844 4.64062 15.5781 6.89062
L29.2969 61.8125
Q29.5 62.7969 29.5 63.1875
Q29.5 64.2656 28.3281 64.4062
Q26.4219 64.7969 21.0938 64.7969
Q20.125 64.7969 20.125 66.1094
Q20.1719 66.3594 20.3125 66.9688
Q20.4531 67.5781 20.7188 67.9375
Q21 68.3125 21.3906 68.3125
L55.9062 68.3125
Q60.6406 68.3125 65.0781 66.625
Q69.5312 64.9375 72.3594 61.4688
Q75.2031 58.0156 75.2031 53.0781
Q75.2031 46.7344 70.7344 41.75
Q66.2656 36.7656 59.5938 33.9844
Q52.9375 31.2031 46.6875 31.2031
L30.4219 31.2031
L24.3125 6.5
Q24.125 5.51562 24.125 5.07812
Q24.125 4.6875 24.2344 4.42188
Q24.3594 4.15625 24.5781 4.07812
Q24.8125 4 25.2969 3.90625
Q27.2031 3.51562 32.5156 3.51562
Q33.5 3.51562 33.5 2.20312
Q33.1562 0.78125 32.9531 0.390625
Q32.7656 0 31.7812 0
z

M30.9062 34.1875
L44.9219 34.1875
Q54.6406 34.1875 59.7188 39.4062
Q62.3125 42 63.9375 46.875
Q65.5781 51.7656 65.5781 55.7188
Q65.5781 60.6406 61.8125 62.7188
Q58.0625 64.7969 52.4844 64.7969
L42.9219 64.7969
Q40.1875 64.7969 39.2969 64.3281
Q38.4219 63.875 37.7031 61.375
z
" id="Cmmi10-50"/>
     </defs>
     <g transform="translate(42.5178125 203.61)rotate(-90.0)scale(0.3 -0.3)">
      <use transform="translate(0.0 0.484375)" xlink:href="#Cmsy10-43"/>
      <use transform="translate(52.587890625 -25.025)scale(0.7)" xlink:href="#Cmmi10-50"/>
     </g>
    </g>
   </g>
   <g id="patch_3">
    <path d="
M97.8441 26.91
L409.365 26.91" style="fill:none;stroke:#000000;"/>
   </g>
   <g id="patch_4">
    <path d="
M409.365 350.91
L409.365 26.91" style="fill:none;stroke:#000000;"/>
   </g>
   <g id="patch_5">
    <path d="
M97.8441 350.91
L409.365 350.91" style="fill:none;stroke:#000000;"/>
   </g>
   <g id="patch_6">
    <path d="
M97.8441 350.91
L97.8441 26.91" style="fill:none;stroke:#000000;"/>
   </g>
  </g>
 </g>
 <defs>
  <clipPath id="p6105b2105a">
   <rect height="324.0" width="311.5209375" x="97.8440625" y="26.91"/>
  </clipPath>
 </defs>
</svg>
