<?xml version="1.0" encoding="utf-8" standalone="no"?>
<!DOCTYPE svg PUBLIC "-//W3C//DTD SVG 1.1//EN"
  "http://www.w3.org/Graphics/SVG/1.1/DTD/svg11.dtd">
<!-- Created with matplotlib (http://matplotlib.org/) -->
<svg height="432pt" version="1.1" viewBox="0 0 432 432" width="432pt" xmlns="http://www.w3.org/2000/svg" xmlns:xlink="http://www.w3.org/1999/xlink">
 <defs>
  <style type="text/css">
*{stroke-linecap:butt;stroke-linejoin:round;}
  </style>
 </defs>
 <g id="figure_1">
  <g id="patch_1">
   <path d="
M0 432
L432 432
L432 0
L0 0
z
" style="fill:#ffffff;"/>
  </g>
  <g id="axes_1">
   <g id="patch_2">
    <path d="
M64.7336 379.8
L416.052 379.8
L416.052 19.26
L64.7336 19.26
z
" style="fill:#ffffff;"/>
   </g>
   <g id="PathCollection_1">
    <defs>
     <path d="
M64.7336 -52.2
L71.9034 -52.2
L79.0731 -52.2
L86.2429 -52.2
L93.4127 -52.2
L100.582 -52.2
L107.752 -52.2
L114.922 -52.2
L122.092 -52.2
L129.261 -52.2
L136.431 -52.2
L143.601 -52.2
L150.771 -52.2
L157.94 -52.2
L165.11 -52.2
L172.28 -52.2
L179.45 -52.2
L186.619 -52.2
L193.789 -52.2
L200.959 -52.2
L208.129 -52.2
L215.299 -52.2
L222.468 -52.2
L229.638 -52.2
L236.808 -52.2
L243.978 -52.2
L251.147 -52.2
L258.317 -52.2
L265.487 -52.2
L272.657 -52.2
L279.826 -52.2
L286.996 -52.2
L294.166 -52.2
L301.336 -52.2
L308.505 -52.2
L315.675 -52.2
L322.845 -52.2
L330.015 -52.2
L337.184 -52.2
L344.354 -52.2
L351.524 -52.2
L358.694 -52.2
L365.863 -52.2
L373.033 -52.2
L380.203 -52.2
L387.373 -52.2
L394.542 -52.2
L401.712 -52.2
L408.882 -52.2
L416.052 -52.2
L416.052 -59.558
L416.052 -66.9159
L416.052 -74.2739
L416.052 -81.6318
L416.052 -88.9898
L416.052 -96.3478
L416.052 -103.706
L416.052 -111.064
L416.052 -118.422
L416.052 -125.78
L416.052 -133.138
L416.052 -140.496
L416.052 -147.853
L416.052 -155.211
L416.052 -162.569
L416.052 -169.927
L416.052 -177.285
L416.052 -184.643
L416.052 -192.001
L416.052 -199.359
L416.052 -206.717
L416.052 -214.075
L416.052 -221.433
L416.052 -228.791
L416.052 -236.149
L416.052 -243.507
L416.052 -250.865
L416.052 -258.223
L416.052 -265.581
L416.052 -272.939
L416.052 -280.297
L416.052 -287.655
L416.052 -295.013
L416.052 -302.371
L416.052 -309.729
L416.052 -317.087
L416.052 -324.444
L416.052 -331.802
L416.052 -339.16
L416.052 -346.518
L416.052 -353.876
L416.052 -361.234
L416.052 -368.592
L416.052 -375.95
L416.052 -383.308
L416.052 -390.666
L416.052 -398.024
L416.052 -405.382
L416.052 -412.74
L408.882 -412.74
L401.712 -412.74
L394.542 -412.74
L387.373 -412.74
L380.203 -412.74
L373.033 -412.74
L365.863 -412.74
L358.694 -412.74
L351.524 -412.74
L344.354 -412.74
L337.184 -412.74
L330.015 -412.74
L322.845 -412.74
L315.675 -412.74
L308.505 -412.74
L301.336 -412.74
L294.166 -412.74
L286.996 -412.74
L279.826 -412.74
L272.657 -412.74
L265.487 -412.74
L258.317 -412.74
L251.147 -412.74
L243.978 -412.74
L236.808 -412.74
L229.638 -412.74
L222.468 -412.74
L215.299 -412.74
L208.129 -412.74
L200.959 -412.74
L193.789 -412.74
L186.619 -412.74
L179.45 -412.74
L172.28 -412.74
L165.11 -412.74
L157.94 -412.74
L150.771 -412.74
L143.601 -412.74
L136.431 -412.74
L129.261 -412.74
L122.092 -412.74
L114.922 -412.74
L107.752 -412.74
L100.582 -412.74
L93.4127 -412.74
L86.2429 -412.74
L79.0731 -412.74
L71.9034 -412.74
L64.7336 -412.74
L64.7336 -405.382
L64.7336 -398.024
L64.7336 -390.666
L64.7336 -383.308
L64.7336 -375.95
L64.7336 -368.592
L64.7336 -361.234
L64.7336 -353.876
L64.7336 -346.518
L64.7336 -339.16
L64.7336 -331.802
L64.7336 -324.444
L64.7336 -317.087
L64.7336 -309.729
L64.7336 -302.371
L64.7336 -295.013
L64.7336 -287.655
L64.7336 -280.297
L64.7336 -272.939
L64.7336 -265.581
L64.7336 -258.223
L64.7336 -250.865
L64.7336 -243.507
L64.7336 -236.149
L64.7336 -228.791
L64.7336 -221.433
L64.7336 -214.075
L64.7336 -206.717
L64.7336 -199.359
L64.7336 -192.001
L64.7336 -184.643
L64.7336 -177.285
L64.7336 -169.927
L64.7336 -162.569
L64.7336 -155.211
L64.7336 -147.853
L64.7336 -140.496
L64.7336 -133.138
L64.7336 -125.78
L64.7336 -118.422
L64.7336 -111.064
L64.7336 -103.706
L64.7336 -96.3478
L64.7336 -88.9898
L64.7336 -81.6318
L64.7336 -74.2739
L64.7336 -66.9159
L64.7336 -59.558
L64.7336 -52.2
M79.0731 -247.527
L76.293 -250.865
L79.0731 -255.489
L83.2587 -250.865
L79.0731 -247.527
M93.4127 -147.455
L93.1285 -147.853
L93.4127 -148.24
L93.7298 -147.853
L93.4127 -147.455
M136.431 -131.242
L134.224 -133.138
L136.431 -135.742
L138.561 -133.138
L136.431 -131.242
M150.771 -115.541
L147.925 -118.422
L150.771 -121.594
L153.594 -118.422
L150.771 -115.541
M193.789 -103.662
L193.712 -103.706
L193.789 -103.797
L193.858 -103.706
L193.789 -103.662
M200.959 -76.6166
L196.523 -81.6318
L200.959 -86.9734
L206.459 -81.6318
L200.959 -76.6166
M200.959 -94.5475
L199.827 -96.3478
L200.959 -98.0569
L203.044 -96.3478
L200.959 -94.5475
M236.808 -80.3029
L234.413 -81.6318
L229.638 -85.8892
L222.468 -84.1119
L220.1 -88.9898
L215.299 -92.7332
L211.534 -96.3478
L215.299 -99.7184
L220.838 -103.706
L215.299 -104.956
L208.895 -111.064
L212.115 -118.422
L208.129 -125.78
L208.129 -125.78
L208.129 -125.78
L200.959 -120.414
L197.283 -125.78
L200.959 -131.367
L201.677 -133.138
L200.959 -135.97
L197.828 -140.496
L199.818 -147.853
L193.789 -152.579
L189.428 -155.211
L187.733 -162.569
L186.619 -163.971
L181.493 -162.569
L179.45 -159.125
L172.28 -156.96
L165.11 -156.24
L164.233 -155.211
L165.11 -154.861
L171.108 -147.853
L165.11 -141.739
L158.176 -147.853
L157.94 -148.491
L157.037 -147.853
L151.379 -140.496
L150.771 -140.118
L150.44 -140.496
L143.601 -142.866
L136.431 -142.115
L129.261 -140.794
L122.092 -146.063
L119.315 -140.496
L114.922 -136.313
L109.692 -140.496
L113.89 -147.853
L114.922 -149.227
L117.454 -155.211
L114.922 -156.888
L109.796 -162.569
L107.752 -165.746
L104.082 -169.927
L107.612 -177.285
L100.582 -181.895
L98.6631 -184.643
L100.582 -187.675
L104.901 -192.001
L100.582 -195.978
L98.2919 -199.359
L100.482 -206.717
L96.4138 -214.075
L95.1058 -221.433
L93.4127 -224.185
L90.2306 -228.791
L91.8687 -236.149
L93.4127 -240.18
L100.582 -243.279
L100.676 -243.507
L100.582 -243.77
L95.36 -250.865
L95.1965 -258.223
L93.4127 -264.669
L92.9362 -265.581
L93.4127 -266.912
L100.582 -270.3
L101.422 -272.939
L100.582 -276.201
L98.2965 -280.297
L94.1567 -287.655
L100.582 -290.541
L106.817 -295.013
L107.752 -300.122
L108.919 -302.371
L110.789 -309.729
L114.922 -315.635
L116.728 -317.087
L118.721 -324.444
L122.092 -326.494
L124.056 -331.802
L127.968 -339.16
L129.261 -346.219
L136.431 -341.541
L142.815 -346.518
L143.601 -347.255
L146.782 -346.518
L150.771 -346.051
L151.889 -346.518
L157.94 -353.552
L165.11 -349.19
L167.016 -353.876
L165.11 -355.738
L159.825 -361.234
L165.11 -364.911
L165.992 -368.592
L172.28 -374.749
L178.171 -368.592
L172.28 -361.674
L170.041 -361.234
L172.28 -358.83
L178.963 -353.876
L179.45 -353.269
L186.619 -350.673
L193.789 -353.286
L194.478 -353.876
L196.647 -361.234
L200.959 -364.809
L205.624 -361.234
L208.129 -357.335
L215.299 -360.93
L216.907 -361.234
L215.299 -361.585
L208.84 -368.592
L212.775 -375.95
L215.299 -378.129
L219.103 -375.95
L222.468 -373.182
L229.638 -372.134
L236.808 -371.345
L242.767 -375.95
L243.978 -377.801
L251.147 -381.158
L253.389 -383.308
L258.317 -388.097
L261.38 -383.308
L258.317 -380.2
L254.347 -375.95
L253.371 -368.592
L258.317 -367.197
L262.948 -368.592
L265.487 -369.944
L266.5 -368.592
L272.657 -363.999
L275.907 -361.234
L276.668 -353.876
L279.826 -352.499
L286.547 -353.876
L286.996 -354.063
L287.433 -353.876
L286.996 -353.622
L284.843 -346.518
L279.826 -340.369
L275.589 -339.16
L279.826 -337.266
L285.444 -331.802
L286.996 -329.271
L289.55 -324.444
L291.716 -317.087
L286.996 -311.654
L284.264 -309.729
L286.996 -307.241
L294.166 -303.596
L300.876 -309.729
L301.336 -310.257
L301.956 -309.729
L306.375 -302.371
L308.146 -295.013
L308.505 -294.849
L309.064 -295.013
L309.948 -302.371
L315.675 -307.245
L321.692 -309.729
L322.845 -310.918
L323.632 -309.729
L330.015 -304.871
L333.461 -309.729
L337.184 -313.262
L340.961 -309.729
L344.354 -305.829
L347.985 -302.371
L351.524 -301.873
L354.326 -302.371
L351.691 -309.729
L358.694 -316.322
L364.413 -309.729
L363.607 -302.371
L365.863 -301.736
L372.738 -295.013
L373.033 -293.295
L377.582 -295.013
L380.203 -295.66
L380.763 -295.013
L385.646 -287.655
L380.203 -282.162
L373.033 -284.329
L372.068 -280.297
L369.646 -272.939
L373.033 -266.936
L378.018 -265.581
L376.529 -258.223
L375.106 -250.865
L375.734 -243.507
L380.049 -236.149
L373.033 -229.581
L372.371 -228.791
L373.033 -225.168
L377.16 -221.433
L380.203 -219.417
L383.976 -214.075
L387.373 -210.183
L391.28 -206.717
L390.521 -199.359
L388.407 -192.001
L387.373 -190.868
L384.298 -192.001
L380.203 -193.131
L377.964 -192.001
L373.033 -185.639
L371.885 -184.643
L365.863 -180.342
L363.578 -177.285
L365.337 -169.927
L358.694 -162.847
L358.247 -162.569
L358.694 -158.769
L365.863 -160.655
L370.258 -155.211
L370.571 -147.853
L370.287 -140.496
L365.863 -136.312
L358.694 -140.028
L357.739 -140.496
L352.217 -147.853
L351.524 -148.028
L351.388 -147.853
L349.065 -140.496
L344.354 -136.609
L342.218 -133.138
L341.199 -125.78
L337.184 -123.337
L330.015 -120.573
L322.845 -122.288
L317.487 -118.422
L315.675 -116.838
L308.505 -112.868
L301.336 -116.322
L294.166 -114.298
L289.562 -111.064
L286.996 -109.715
L279.826 -105.667
L272.657 -104.7
L271.187 -103.706
L266.503 -96.3478
L265.487 -95.71
L258.317 -90.8971
L251.633 -88.9898
L251.147 -88.6959
L250.918 -88.9898
L245.481 -96.3478
L243.978 -96.9985
L236.808 -99.4275
L236.059 -96.3478
L236.808 -94.5507
L241.274 -88.9898
L237.96 -81.6318
L236.808 -80.3029
M129.261 -367.933
L128.551 -368.592
L129.261 -369.059
L130.212 -368.592
L129.261 -367.933
M136.431 -351.624
L135.275 -353.876
L136.431 -355.027
L138.475 -353.876
L136.431 -351.624
M186.619 -358.094
L183.32 -361.234
L186.619 -363.802
L190.232 -361.234
L186.619 -358.094
M308.505 -312.767
L304.652 -317.087
L308.505 -320.235
L315.058 -317.087
L308.505 -312.767
M308.505 -335.815
L305.197 -339.16
L308.505 -342.409
L312.267 -339.16
L308.505 -335.815
M315.675 -350.548
L312.44 -353.876
L315.675 -357.183
L318.827 -353.876
L315.675 -350.548
M330.015 -315.142
L327.435 -317.087
L325.494 -324.444
L330.015 -328.482
L333.352 -331.802
L337.184 -336.311
L341.771 -331.802
L337.184 -327.241
L334.555 -324.444
L331.7 -317.087
L330.015 -315.142
M344.354 -315.782
L343.266 -317.087
L344.354 -318.217
L345.777 -324.444
L351.524 -329.859
L357.064 -324.444
L351.524 -318.682
L345.356 -317.087
L344.354 -315.782
M351.524 -333.049
L345.734 -339.16
L351.524 -345.145
L358.47 -339.16
L351.524 -333.049
M380.203 -313.742
L375.908 -317.087
L380.203 -321.584
L383.137 -317.087
L380.203 -313.742
M387.373 -247.365
L383.59 -250.865
L387.373 -253.512
L391.546 -250.865
L387.373 -247.365
M243.978 -71.777
L240.88 -74.2739
L243.978 -77.2021
L246.444 -74.2739
L243.978 -71.777
M373.033 -163.311
L366.113 -169.927
L373.033 -177.177
L380.203 -175.503
L385.5 -169.927
L380.203 -164.678
L373.033 -163.311
M401.712 -184.251
L401.236 -184.643
L401.712 -185.003
L402.092 -184.643
L401.712 -184.251" id="C0_0_780f92fba3"/>
     <path d="
M279.826 -117.456
L286.996 -116.918
L287.72 -118.422
L286.996 -118.734
L279.826 -119.645
L278.115 -118.422
L279.826 -117.456" id="C0_1_9b9df26d4f"/>
     <path d="
M179.45 -164.779
L180.736 -169.927
L179.45 -170.205
L178.322 -169.927
L179.45 -164.779" id="C0_2_8592f77dc6"/>
     <path d="
M373.033 -195.665
L375.092 -199.359
L373.033 -204.001
L369.98 -199.359
L373.033 -195.665" id="C0_3_22cc30c5c0"/>
     <path d="
M107.752 -203.445
L109.157 -206.717
L107.752 -212.269
L100.93 -206.717
L107.752 -203.445" id="C0_4_38ba9e6877"/>
     <path d="
M107.752 -256.622
L108.239 -258.223
L107.752 -260.079
L106.723 -258.223
L107.752 -256.622" id="C0_5_853d5c2885"/>
     <path d="
M358.694 -272.465
L360.622 -272.939
L358.694 -276.097
L357.288 -272.939
L358.694 -272.465" id="C0_6_1820c7c084"/>
     <path d="
M365.863 -287.485
L366.98 -287.655
L365.863 -287.841
L364.831 -287.655
L365.863 -287.485" id="C0_7_a914592782"/>
     <path d="
M294.166 -290.411
L294.849 -295.013
L294.166 -298.747
L293.012 -295.013
L294.166 -290.411" id="C0_8_cd81b3181e"/>
     <path d="
M272.657 -329.533
L273.784 -331.802
L272.657 -335.02
L271.532 -331.802
L272.657 -329.533" id="C0_9_f604832fda"/>
     <path d="
M265.487 -352.581
L268.185 -353.876
L265.487 -358.044
L264.227 -353.876
L265.487 -352.581" id="C0_a_6f5a8674d6"/>
    </defs>
    <g clip-path="url(#p732ca3aedf)">
     <use style="fill:#ffffff;" x="0.0" xlink:href="#C0_0_780f92fba3" y="432.0"/>
    </g>
    <g clip-path="url(#p732ca3aedf)">
     <use style="fill:#ffffff;" x="0.0" xlink:href="#C0_1_9b9df26d4f" y="432.0"/>
    </g>
    <g clip-path="url(#p732ca3aedf)">
     <use style="fill:#ffffff;" x="0.0" xlink:href="#C0_2_8592f77dc6" y="432.0"/>
    </g>
    <g clip-path="url(#p732ca3aedf)">
     <use style="fill:#ffffff;" x="0.0" xlink:href="#C0_3_22cc30c5c0" y="432.0"/>
    </g>
    <g clip-path="url(#p732ca3aedf)">
     <use style="fill:#ffffff;" x="0.0" xlink:href="#C0_4_38ba9e6877" y="432.0"/>
    </g>
    <g clip-path="url(#p732ca3aedf)">
     <use style="fill:#ffffff;" x="0.0" xlink:href="#C0_5_853d5c2885" y="432.0"/>
    </g>
    <g clip-path="url(#p732ca3aedf)">
     <use style="fill:#ffffff;" x="0.0" xlink:href="#C0_6_1820c7c084" y="432.0"/>
    </g>
    <g clip-path="url(#p732ca3aedf)">
     <use style="fill:#ffffff;" x="0.0" xlink:href="#C0_7_a914592782" y="432.0"/>
    </g>
    <g clip-path="url(#p732ca3aedf)">
     <use style="fill:#ffffff;" x="0.0" xlink:href="#C0_8_cd81b3181e" y="432.0"/>
    </g>
    <g clip-path="url(#p732ca3aedf)">
     <use style="fill:#ffffff;" x="0.0" xlink:href="#C0_9_f604832fda" y="432.0"/>
    </g>
    <g clip-path="url(#p732ca3aedf)">
     <use style="fill:#ffffff;" x="0.0" xlink:href="#C0_a_6f5a8674d6" y="432.0"/>
    </g>
   </g>
   <g id="PathCollection_2">
    <defs>
     <path d="
M243.978 -71.777
L246.444 -74.2739
L243.978 -77.2021
L240.88 -74.2739
L243.978 -71.777" id="C1_0_02a72ccf18"/>
     <path d="
M200.959 -76.6166
L206.459 -81.6318
L200.959 -86.9734
L196.523 -81.6318
L200.959 -76.6166" id="C1_1_c3d7d23c4c"/>
     <path d="
M236.808 -80.3029
L237.96 -81.6318
L241.274 -88.9898
L236.808 -94.5507
L236.059 -96.3478
L236.808 -99.4275
L243.978 -96.9985
L245.481 -96.3478
L250.918 -88.9898
L251.147 -88.6959
L251.633 -88.9898
L258.317 -90.8971
L265.487 -95.71
L266.503 -96.3478
L271.187 -103.706
L272.657 -104.7
L279.826 -105.667
L286.996 -109.715
L289.562 -111.064
L294.166 -114.298
L301.336 -116.322
L308.505 -112.868
L315.675 -116.838
L317.487 -118.422
L322.845 -122.288
L330.015 -120.573
L337.184 -123.337
L341.199 -125.78
L342.218 -133.138
L344.354 -136.609
L349.065 -140.496
L351.388 -147.853
L351.524 -148.028
L352.217 -147.853
L357.739 -140.496
L358.694 -140.028
L365.863 -136.312
L370.287 -140.496
L370.571 -147.853
L370.258 -155.211
L365.863 -160.655
L358.694 -158.769
L358.247 -162.569
L358.694 -162.847
L365.337 -169.927
L363.578 -177.285
L365.863 -180.342
L371.885 -184.643
L373.033 -185.639
L377.964 -192.001
L380.203 -193.131
L384.298 -192.001
L387.373 -190.868
L388.407 -192.001
L390.521 -199.359
L391.28 -206.717
L387.373 -210.183
L383.976 -214.075
L380.203 -219.417
L377.16 -221.433
L373.033 -225.168
L372.371 -228.791
L373.033 -229.581
L380.049 -236.149
L375.734 -243.507
L375.106 -250.865
L376.529 -258.223
L378.018 -265.581
L373.033 -266.936
L369.646 -272.939
L372.068 -280.297
L373.033 -284.329
L380.203 -282.162
L385.646 -287.655
L380.763 -295.013
L380.203 -295.66
L377.582 -295.013
L373.033 -293.295
L372.738 -295.013
L365.863 -301.736
L363.607 -302.371
L364.413 -309.729
L358.694 -316.322
L351.691 -309.729
L354.326 -302.371
L351.524 -301.873
L347.985 -302.371
L344.354 -305.829
L340.961 -309.729
L337.184 -313.262
L333.461 -309.729
L330.015 -304.871
L323.632 -309.729
L322.845 -310.918
L321.692 -309.729
L315.675 -307.245
L309.948 -302.371
L309.064 -295.013
L308.505 -294.849
L308.146 -295.013
L306.375 -302.371
L301.956 -309.729
L301.336 -310.257
L300.876 -309.729
L294.166 -303.596
L286.996 -307.241
L284.264 -309.729
L286.996 -311.654
L291.716 -317.087
L289.55 -324.444
L286.996 -329.271
L285.444 -331.802
L279.826 -337.266
L275.589 -339.16
L279.826 -340.369
L284.843 -346.518
L286.996 -353.622
L287.433 -353.876
L286.996 -354.063
L286.547 -353.876
L279.826 -352.499
L276.668 -353.876
L275.907 -361.234
L272.657 -363.999
L266.5 -368.592
L265.487 -369.944
L262.948 -368.592
L258.317 -367.197
L253.371 -368.592
L254.347 -375.95
L258.317 -380.2
L261.38 -383.308
L258.317 -388.097
L253.389 -383.308
L251.147 -381.158
L243.978 -377.801
L242.767 -375.95
L236.808 -371.345
L229.638 -372.134
L222.468 -373.182
L219.103 -375.95
L215.299 -378.129
L212.775 -375.95
L208.84 -368.592
L215.299 -361.585
L216.907 -361.234
L215.299 -360.93
L208.129 -357.335
L205.624 -361.234
L200.959 -364.809
L196.647 -361.234
L194.478 -353.876
L193.789 -353.286
L186.619 -350.673
L179.45 -353.269
L178.963 -353.876
L172.28 -358.83
L170.041 -361.234
L172.28 -361.674
L178.171 -368.592
L172.28 -374.749
L165.992 -368.592
L165.11 -364.911
L159.825 -361.234
L165.11 -355.738
L167.016 -353.876
L165.11 -349.19
L157.94 -353.552
L151.889 -346.518
L150.771 -346.051
L146.782 -346.518
L143.601 -347.255
L142.815 -346.518
L136.431 -341.541
L129.261 -346.219
L127.968 -339.16
L124.056 -331.802
L122.092 -326.494
L118.721 -324.444
L116.728 -317.087
L114.922 -315.635
L110.789 -309.729
L108.919 -302.371
L107.752 -300.122
L106.817 -295.013
L100.582 -290.541
L94.1567 -287.655
L98.2965 -280.297
L100.582 -276.201
L101.422 -272.939
L100.582 -270.3
L93.4127 -266.912
L92.9362 -265.581
L93.4127 -264.669
L95.1965 -258.223
L95.36 -250.865
L100.582 -243.77
L100.676 -243.507
L100.582 -243.279
L93.4127 -240.18
L91.8687 -236.149
L90.2306 -228.791
L93.4127 -224.185
L95.1058 -221.433
L96.4138 -214.075
L100.482 -206.717
L98.2919 -199.359
L100.582 -195.978
L104.901 -192.001
L100.582 -187.675
L98.6631 -184.643
L100.582 -181.895
L107.612 -177.285
L104.082 -169.927
L107.752 -165.746
L109.796 -162.569
L114.922 -156.888
L117.454 -155.211
L114.922 -149.227
L113.89 -147.853
L109.692 -140.496
L114.922 -136.313
L119.315 -140.496
L122.092 -146.063
L129.261 -140.794
L136.431 -142.115
L143.601 -142.866
L150.44 -140.496
L150.771 -140.118
L151.379 -140.496
L157.037 -147.853
L157.94 -148.491
L158.176 -147.853
L165.11 -141.739
L171.108 -147.853
L165.11 -154.861
L164.233 -155.211
L165.11 -156.24
L172.28 -156.96
L179.45 -159.125
L181.493 -162.569
L186.619 -163.971
L187.733 -162.569
L189.428 -155.211
L193.789 -152.579
L199.818 -147.853
L197.828 -140.496
L200.959 -135.97
L201.677 -133.138
L200.959 -131.367
L197.283 -125.78
L200.959 -120.414
L208.129 -125.78
L208.129 -125.78
L208.129 -125.78
L212.115 -118.422
L208.895 -111.064
L215.299 -104.956
L220.838 -103.706
L215.299 -99.7184
L211.534 -96.3478
L215.299 -92.7332
L220.1 -88.9898
L222.468 -84.1119
L229.638 -85.8892
L234.413 -81.6318
L236.808 -80.3029
M258.317 -121.407
L253.544 -125.78
L251.147 -128.117
L243.978 -126.526
L238.402 -133.138
L237.613 -140.496
L236.808 -141.556
L229.638 -140.806
L223.765 -147.853
L226.721 -155.211
L222.468 -158.366
L220.634 -162.569
L215.299 -168.093
L213.617 -169.927
L208.129 -176.755
L207.559 -177.285
L208.129 -180.08
L209.221 -184.643
L212.059 -192.001
L208.129 -194.753
L203.539 -199.359
L200.959 -204.97
L193.789 -201.266
L188.487 -199.359
L186.619 -198.989
L179.45 -196.304
L175.61 -199.359
L179.45 -202.362
L186.619 -202.559
L187.609 -206.717
L191.507 -214.075
L186.619 -218.245
L185.596 -214.075
L179.45 -208.473
L172.546 -206.717
L172.28 -206.272
L169.192 -199.359
L165.11 -195.916
L159.556 -199.359
L164.052 -206.717
L157.94 -208.744
L155.197 -206.717
L156.848 -199.359
L157.94 -196.274
L159.816 -192.001
L157.94 -189.338
L150.771 -190.263
L148.478 -184.643
L143.601 -182.218
L139.884 -184.643
L136.431 -187.224
L132.861 -192.001
L136.431 -198.963
L137.369 -199.359
L136.431 -199.704
L131.756 -206.717
L129.261 -211.736
L122.092 -211.4
L118.69 -214.075
L122.092 -219.27
L125.4 -221.433
L122.092 -227.2
L121.278 -228.791
L122.092 -230.457
L127.981 -236.149
L122.667 -243.507
L122.092 -248.69
L121.446 -250.865
L122.092 -251.716
L124.815 -258.223
L126.31 -265.581
L129.261 -270.115
L131.251 -272.939
L130.714 -280.297
L129.261 -281.533
L125.78 -287.655
L129.261 -291.752
L134.398 -295.013
L136.431 -296.93
L143.321 -302.371
L143.601 -302.601
L150.425 -309.729
L145.669 -317.087
L150.771 -320.508
L157.94 -319.453
L163.485 -317.087
L158.039 -309.729
L165.11 -307.023
L168.544 -309.729
L165.747 -317.087
L172.28 -320.484
L179.45 -322.126
L184.437 -317.087
L186.619 -310.036
L187.055 -309.729
L193.789 -306.599
L196.443 -309.729
L193.789 -316.655
L193.5 -317.087
L193.789 -318.298
L200.959 -320.105
L207.642 -324.444
L208.129 -324.984
L215.299 -326.146
L222.468 -325.21
L226.92 -331.802
L229.638 -337.17
L236.808 -338.831
L243.978 -333.035
L251.147 -333.314
L251.319 -331.802
L251.904 -324.444
L258.317 -319.483
L261.063 -317.087
L258.317 -312.624
L256.177 -309.729
L258.317 -307.337
L263.218 -302.371
L265.487 -297.516
L266.587 -295.013
L265.487 -293.59
L262.17 -287.655
L263.901 -280.297
L265.487 -273.464
L266.931 -280.297
L272.657 -286.808
L277.629 -280.297
L273.553 -272.939
L278.894 -265.581
L279.826 -265.41
L283.326 -258.223
L279.826 -252.321
L277.57 -250.865
L279.826 -250.093
L286.996 -245.93
L294.166 -248.318
L301.336 -249.715
L308.422 -243.507
L308.505 -242.891
L308.94 -243.507
L314.53 -250.865
L315.675 -253.386
L322.845 -256.382
L324.738 -258.223
L322.845 -259.326
L315.675 -263.738
L308.505 -264.927
L307.903 -265.581
L308.505 -266.213
L315.675 -266.85
L320.391 -272.939
L322.845 -274.668
L326.524 -272.939
L330.015 -270.872
L336.849 -265.581
L337.184 -265.412
L337.435 -265.581
L344.354 -269.733
L349.378 -265.581
L351.524 -263.914
L355.728 -265.581
L358.694 -266.692
L362.865 -265.581
L358.694 -264.165
L355.363 -258.223
L355.097 -250.865
L352.495 -243.507
L351.524 -242.965
L345.595 -236.149
L344.354 -234.39
L340.913 -228.791
L344.354 -224.643
L351.414 -221.433
L345.499 -214.075
L351.524 -212.161
L356.169 -206.717
L351.524 -200.596
L349.264 -199.359
L350.03 -192.001
L346.267 -184.643
L345.798 -177.285
L344.354 -174.276
L341.911 -169.927
L337.184 -167.393
L333.243 -162.569
L330.015 -158.101
L322.845 -161.511
L321.711 -162.569
L322.845 -163.416
L327.666 -169.927
L322.845 -172.246
L315.675 -174.092
L309.153 -177.285
L308.505 -179.04
L301.336 -179.122
L299.444 -177.285
L299.751 -169.927
L294.745 -162.569
L300.536 -155.211
L295.138 -147.853
L294.166 -146.685
L292.941 -147.853
L292.27 -155.211
L286.996 -157.825
L279.92 -162.569
L279.826 -163.358
L279.737 -162.569
L277.033 -155.211
L272.657 -153.941
L265.487 -148.322
L264.536 -147.853
L265.487 -146.755
L268.615 -140.496
L265.487 -137.767
L258.599 -133.138
L265.487 -127.989
L267.636 -125.78
L265.487 -123.817
L258.317 -121.407
M157.94 -328.912
L156.039 -331.802
L157.94 -333.48
L159.536 -331.802
L157.94 -328.912
M222.468 -338.283
L221.774 -339.16
L222.468 -340.813
L225.152 -339.16
L222.468 -338.283
M265.487 -352.581
L264.227 -353.876
L265.487 -358.044
L268.185 -353.876
L265.487 -352.581
M272.657 -329.533
L271.532 -331.802
L272.657 -335.02
L273.784 -331.802
L272.657 -329.533
M294.166 -257.649
L293.669 -258.223
L291.284 -265.581
L294.166 -268.226
L297.892 -265.581
L301.336 -260.003
L303.152 -258.223
L301.336 -257.295
L294.166 -257.649
M294.166 -290.411
L293.012 -295.013
L294.166 -298.747
L294.849 -295.013
L294.166 -290.411
M308.505 -287.559
L308.339 -287.655
L308.505 -287.748
L308.63 -287.655
L308.505 -287.559
M351.524 -290.217
L347.559 -295.013
L351.524 -298.084
L356.153 -295.013
L351.524 -290.217
M358.694 -272.465
L357.288 -272.939
L358.694 -276.097
L360.622 -272.939
L358.694 -272.465
M279.826 -117.456
L278.115 -118.422
L279.826 -119.645
L286.996 -118.734
L287.72 -118.422
L286.996 -116.918
L279.826 -117.456
M308.505 -155.583
L301.647 -162.569
L308.505 -169.783
L315.433 -162.569
L308.505 -155.583
M322.845 -129.179
L318.322 -133.138
L322.845 -137.021
L327.96 -133.138
L322.845 -129.179
M337.184 -154.129
L335.673 -155.211
L337.184 -156.123
L338.265 -155.211
L337.184 -154.129
M358.694 -219.216
L351.606 -221.433
L358.694 -223.672
L360.194 -221.433
L358.694 -219.216
M365.863 -225.933
L362.192 -228.791
L365.863 -231.856
L368.264 -228.791
L365.863 -225.933
M365.863 -279.496
L365.173 -280.297
L365.863 -280.919
L366.401 -280.297
L365.863 -279.496
M365.863 -287.485
L364.831 -287.655
L365.863 -287.841
L366.98 -287.655
L365.863 -287.485
M373.033 -195.665
L369.98 -199.359
L373.033 -204.001
L375.092 -199.359
L373.033 -195.665
M373.033 -234.486
L370.933 -236.149
L373.033 -238.145
L374.81 -236.149
L373.033 -234.486
M172.28 -368.055
L171.792 -368.592
L172.28 -369.07
L172.737 -368.592
L172.28 -368.055
M107.752 -203.445
L100.93 -206.717
L107.752 -212.269
L109.157 -206.717
L107.752 -203.445
M107.752 -256.622
L106.723 -258.223
L107.752 -260.079
L108.239 -258.223
L107.752 -256.622
M165.11 -172.686
L160.581 -177.285
L165.11 -184.483
L169.508 -177.285
L165.11 -172.686
M179.45 -164.779
L178.322 -169.927
L179.45 -170.205
L180.736 -169.927
L179.45 -164.779
M179.45 -174.788
L175.844 -177.285
L179.45 -180.597
L182.764 -177.285
L179.45 -174.788
M193.789 -180.417
L191.442 -184.643
L193.789 -188.23
L198.943 -184.643
L193.789 -180.417
M200.959 -190.551
L200.359 -192.001
L200.959 -192.721
L201.623 -192.001
L200.959 -190.551
M229.638 -125.418
L229.465 -125.78
L229.638 -125.992
L229.845 -125.78
L229.638 -125.418" id="C1_2_68da960a4f"/>
     <path d="
M200.959 -94.5475
L203.044 -96.3478
L200.959 -98.0569
L199.827 -96.3478
L200.959 -94.5475" id="C1_3_2f96f12b0b"/>
     <path d="
M193.789 -103.662
L193.858 -103.706
L193.789 -103.797
L193.712 -103.706
L193.789 -103.662" id="C1_4_92ea5137a3"/>
     <path d="
M150.771 -115.541
L153.594 -118.422
L150.771 -121.594
L147.925 -118.422
L150.771 -115.541" id="C1_5_d9ea4e6595"/>
     <path d="
M136.431 -131.242
L138.561 -133.138
L136.431 -135.742
L134.224 -133.138
L136.431 -131.242" id="C1_6_c8236fa36f"/>
     <path d="
M93.4127 -147.455
L93.7298 -147.853
L93.4127 -148.24
L93.1285 -147.853
L93.4127 -147.455" id="C1_7_03e3fb827b"/>
     <path d="
M373.033 -163.311
L380.203 -164.678
L385.5 -169.927
L380.203 -175.503
L373.033 -177.177
L366.113 -169.927
L373.033 -163.311
M373.033 -167.976
L370.992 -169.927
L373.033 -172.066
L376.693 -169.927
L373.033 -167.976" id="C1_8_005e6d3352"/>
     <path d="
M286.996 -175.503
L287.69 -177.285
L286.996 -177.556
L286.602 -177.285
L286.996 -175.503" id="C1_9_ee7bf00837"/>
     <path d="
M337.184 -177.1
L337.668 -177.285
L337.184 -177.379
L337.015 -177.285
L337.184 -177.1" id="C1_a_331f3f106b"/>
     <path d="
M294.166 -181.581
L297.021 -184.643
L301.336 -189.239
L306.589 -192.001
L306.687 -199.359
L301.336 -205.955
L299.915 -199.359
L294.166 -194.143
L286.996 -193.522
L286.407 -192.001
L286.996 -191.484
L292.714 -184.643
L294.166 -181.581" id="C1_b_341658c1fc"/>
     <path d="
M401.712 -184.251
L402.092 -184.643
L401.712 -185.003
L401.236 -184.643
L401.712 -184.251" id="C1_c_f11696d489"/>
     <path d="
M286.996 -220.829
L287.509 -221.433
L286.996 -221.455
L286.469 -221.433
L286.996 -220.829" id="C1_d_9312ba5361"/>
     <path d="
M193.789 -227.63
L195.074 -228.791
L193.789 -230.813
L192.584 -228.791
L193.789 -227.63" id="C1_e_8c403b4071"/>
     <path d="
M308.505 -227.829
L310.124 -228.791
L308.505 -229.281
L305.223 -228.791
L308.505 -227.829" id="C1_f_3c8a024533"/>
     <path d="
M322.845 -227.711
L323.833 -228.791
L322.845 -229.682
L319.191 -228.791
L322.845 -227.711" id="C1_10_6892bf5c4b"/>
     <path d="
M330.015 -235.348
L331.308 -236.149
L330.015 -236.702
L329.331 -236.149
L330.015 -235.348" id="C1_11_bb11438165"/>
     <path d="
M79.0731 -247.527
L83.2587 -250.865
L79.0731 -255.489
L76.293 -250.865
L79.0731 -247.527" id="C1_12_860b9455f9"/>
     <path d="
M387.373 -247.365
L391.546 -250.865
L387.373 -253.512
L383.59 -250.865
L387.373 -247.365" id="C1_13_75dd966dc8"/>
     <path d="
M186.619 -285.155
L187.234 -287.655
L186.619 -290.685
L184.347 -287.655
L186.619 -285.155" id="C1_14_a49c24338c"/>
     <path d="
M179.45 -292.714
L182.367 -295.013
L179.45 -296.632
L177.918 -295.013
L179.45 -292.714" id="C1_15_d4a9ccb1d7"/>
     <path d="
M200.959 -294.578
L201.316 -295.013
L200.959 -295.917
L199.839 -295.013
L200.959 -294.578" id="C1_16_1a49af5de5"/>
     <path d="
M308.505 -312.767
L315.058 -317.087
L308.505 -320.235
L304.652 -317.087
L308.505 -312.767" id="C1_17_091d40ffc5"/>
     <path d="
M330.015 -315.142
L331.7 -317.087
L334.555 -324.444
L337.184 -327.241
L341.771 -331.802
L337.184 -336.311
L333.352 -331.802
L330.015 -328.482
L325.494 -324.444
L327.435 -317.087
L330.015 -315.142" id="C1_18_b96a915475"/>
     <path d="
M344.354 -315.782
L345.356 -317.087
L351.524 -318.682
L357.064 -324.444
L351.524 -329.859
L345.777 -324.444
L344.354 -318.217
L343.266 -317.087
L344.354 -315.782" id="C1_19_474a046680"/>
     <path d="
M380.203 -313.742
L383.137 -317.087
L380.203 -321.584
L375.908 -317.087
L380.203 -313.742" id="C1_1a_0272644398"/>
     <path d="
M308.505 -335.815
L312.267 -339.16
L308.505 -342.409
L305.197 -339.16
L308.505 -335.815" id="C1_1b_afe18e1e16"/>
     <path d="
M351.524 -333.049
L358.47 -339.16
L351.524 -345.145
L345.734 -339.16
L351.524 -333.049
M351.524 -337.819
L350.253 -339.16
L351.524 -340.474
L353.048 -339.16
L351.524 -337.819" id="C1_1c_59431f2a72"/>
     <path d="
M136.431 -351.624
L138.475 -353.876
L136.431 -355.027
L135.275 -353.876
L136.431 -351.624" id="C1_1d_b2c32be81e"/>
     <path d="
M315.675 -350.548
L318.827 -353.876
L315.675 -357.183
L312.44 -353.876
L315.675 -350.548" id="C1_1e_6eb6a761e6"/>
     <path d="
M186.619 -358.094
L190.232 -361.234
L186.619 -363.802
L183.32 -361.234
L186.619 -358.094" id="C1_1f_67c80bbcd3"/>
     <path d="
M129.261 -367.933
L130.212 -368.592
L129.261 -369.059
L128.551 -368.592
L129.261 -367.933" id="C1_20_0ecaeee0eb"/>
    </defs>
    <g clip-path="url(#p732ca3aedf)">
     <use style="fill:#0000ff;fill-opacity:0.5;" x="0.0" xlink:href="#C1_0_02a72ccf18" y="432.0"/>
    </g>
    <g clip-path="url(#p732ca3aedf)">
     <use style="fill:#0000ff;fill-opacity:0.5;" x="0.0" xlink:href="#C1_1_c3d7d23c4c" y="432.0"/>
    </g>
    <g clip-path="url(#p732ca3aedf)">
     <use style="fill:#0000ff;fill-opacity:0.5;" x="0.0" xlink:href="#C1_2_68da960a4f" y="432.0"/>
    </g>
    <g clip-path="url(#p732ca3aedf)">
     <use style="fill:#0000ff;fill-opacity:0.5;" x="0.0" xlink:href="#C1_3_2f96f12b0b" y="432.0"/>
    </g>
    <g clip-path="url(#p732ca3aedf)">
     <use style="fill:#0000ff;fill-opacity:0.5;" x="0.0" xlink:href="#C1_4_92ea5137a3" y="432.0"/>
    </g>
    <g clip-path="url(#p732ca3aedf)">
     <use style="fill:#0000ff;fill-opacity:0.5;" x="0.0" xlink:href="#C1_5_d9ea4e6595" y="432.0"/>
    </g>
    <g clip-path="url(#p732ca3aedf)">
     <use style="fill:#0000ff;fill-opacity:0.5;" x="0.0" xlink:href="#C1_6_c8236fa36f" y="432.0"/>
    </g>
    <g clip-path="url(#p732ca3aedf)">
     <use style="fill:#0000ff;fill-opacity:0.5;" x="0.0" xlink:href="#C1_7_03e3fb827b" y="432.0"/>
    </g>
    <g clip-path="url(#p732ca3aedf)">
     <use style="fill:#0000ff;fill-opacity:0.5;" x="0.0" xlink:href="#C1_8_005e6d3352" y="432.0"/>
    </g>
    <g clip-path="url(#p732ca3aedf)">
     <use style="fill:#0000ff;fill-opacity:0.5;" x="0.0" xlink:href="#C1_9_ee7bf00837" y="432.0"/>
    </g>
    <g clip-path="url(#p732ca3aedf)">
     <use style="fill:#0000ff;fill-opacity:0.5;" x="0.0" xlink:href="#C1_a_331f3f106b" y="432.0"/>
    </g>
    <g clip-path="url(#p732ca3aedf)">
     <use style="fill:#0000ff;fill-opacity:0.5;" x="0.0" xlink:href="#C1_b_341658c1fc" y="432.0"/>
    </g>
    <g clip-path="url(#p732ca3aedf)">
     <use style="fill:#0000ff;fill-opacity:0.5;" x="0.0" xlink:href="#C1_c_f11696d489" y="432.0"/>
    </g>
    <g clip-path="url(#p732ca3aedf)">
     <use style="fill:#0000ff;fill-opacity:0.5;" x="0.0" xlink:href="#C1_d_9312ba5361" y="432.0"/>
    </g>
    <g clip-path="url(#p732ca3aedf)">
     <use style="fill:#0000ff;fill-opacity:0.5;" x="0.0" xlink:href="#C1_e_8c403b4071" y="432.0"/>
    </g>
    <g clip-path="url(#p732ca3aedf)">
     <use style="fill:#0000ff;fill-opacity:0.5;" x="0.0" xlink:href="#C1_f_3c8a024533" y="432.0"/>
    </g>
    <g clip-path="url(#p732ca3aedf)">
     <use style="fill:#0000ff;fill-opacity:0.5;" x="0.0" xlink:href="#C1_10_6892bf5c4b" y="432.0"/>
    </g>
    <g clip-path="url(#p732ca3aedf)">
     <use style="fill:#0000ff;fill-opacity:0.5;" x="0.0" xlink:href="#C1_11_bb11438165" y="432.0"/>
    </g>
    <g clip-path="url(#p732ca3aedf)">
     <use style="fill:#0000ff;fill-opacity:0.5;" x="0.0" xlink:href="#C1_12_860b9455f9" y="432.0"/>
    </g>
    <g clip-path="url(#p732ca3aedf)">
     <use style="fill:#0000ff;fill-opacity:0.5;" x="0.0" xlink:href="#C1_13_75dd966dc8" y="432.0"/>
    </g>
    <g clip-path="url(#p732ca3aedf)">
     <use style="fill:#0000ff;fill-opacity:0.5;" x="0.0" xlink:href="#C1_14_a49c24338c" y="432.0"/>
    </g>
    <g clip-path="url(#p732ca3aedf)">
     <use style="fill:#0000ff;fill-opacity:0.5;" x="0.0" xlink:href="#C1_15_d4a9ccb1d7" y="432.0"/>
    </g>
    <g clip-path="url(#p732ca3aedf)">
     <use style="fill:#0000ff;fill-opacity:0.5;" x="0.0" xlink:href="#C1_16_1a49af5de5" y="432.0"/>
    </g>
    <g clip-path="url(#p732ca3aedf)">
     <use style="fill:#0000ff;fill-opacity:0.5;" x="0.0" xlink:href="#C1_17_091d40ffc5" y="432.0"/>
    </g>
    <g clip-path="url(#p732ca3aedf)">
     <use style="fill:#0000ff;fill-opacity:0.5;" x="0.0" xlink:href="#C1_18_b96a915475" y="432.0"/>
    </g>
    <g clip-path="url(#p732ca3aedf)">
     <use style="fill:#0000ff;fill-opacity:0.5;" x="0.0" xlink:href="#C1_19_474a046680" y="432.0"/>
    </g>
    <g clip-path="url(#p732ca3aedf)">
     <use style="fill:#0000ff;fill-opacity:0.5;" x="0.0" xlink:href="#C1_1a_0272644398" y="432.0"/>
    </g>
    <g clip-path="url(#p732ca3aedf)">
     <use style="fill:#0000ff;fill-opacity:0.5;" x="0.0" xlink:href="#C1_1b_afe18e1e16" y="432.0"/>
    </g>
    <g clip-path="url(#p732ca3aedf)">
     <use style="fill:#0000ff;fill-opacity:0.5;" x="0.0" xlink:href="#C1_1c_59431f2a72" y="432.0"/>
    </g>
    <g clip-path="url(#p732ca3aedf)">
     <use style="fill:#0000ff;fill-opacity:0.5;" x="0.0" xlink:href="#C1_1d_b2c32be81e" y="432.0"/>
    </g>
    <g clip-path="url(#p732ca3aedf)">
     <use style="fill:#0000ff;fill-opacity:0.5;" x="0.0" xlink:href="#C1_1e_6eb6a761e6" y="432.0"/>
    </g>
    <g clip-path="url(#p732ca3aedf)">
     <use style="fill:#0000ff;fill-opacity:0.5;" x="0.0" xlink:href="#C1_1f_67c80bbcd3" y="432.0"/>
    </g>
    <g clip-path="url(#p732ca3aedf)">
     <use style="fill:#0000ff;fill-opacity:0.5;" x="0.0" xlink:href="#C1_20_0ecaeee0eb" y="432.0"/>
    </g>
   </g>
   <g id="PathCollection_3">
    <defs>
     <path d="
M229.638 -125.418
L229.845 -125.78
L229.638 -125.992
L229.465 -125.78
L229.638 -125.418" id="C2_0_c0fce2cd46"/>
     <path d="
M258.317 -121.407
L265.487 -123.817
L267.636 -125.78
L265.487 -127.989
L258.599 -133.138
L265.487 -137.767
L268.615 -140.496
L265.487 -146.755
L264.536 -147.853
L265.487 -148.322
L272.657 -153.941
L277.033 -155.211
L279.737 -162.569
L279.826 -163.358
L279.92 -162.569
L286.996 -157.825
L292.27 -155.211
L292.941 -147.853
L294.166 -146.685
L295.138 -147.853
L300.536 -155.211
L294.745 -162.569
L299.751 -169.927
L299.444 -177.285
L301.336 -179.122
L308.505 -179.04
L309.153 -177.285
L315.675 -174.092
L322.845 -172.246
L327.666 -169.927
L322.845 -163.416
L321.711 -162.569
L322.845 -161.511
L330.015 -158.101
L333.243 -162.569
L337.184 -167.393
L341.911 -169.927
L344.354 -174.276
L345.798 -177.285
L346.267 -184.643
L350.03 -192.001
L349.264 -199.359
L351.524 -200.596
L356.169 -206.717
L351.524 -212.161
L345.499 -214.075
L351.414 -221.433
L344.354 -224.643
L340.913 -228.791
L344.354 -234.39
L345.595 -236.149
L351.524 -242.965
L352.495 -243.507
L355.097 -250.865
L355.363 -258.223
L358.694 -264.165
L362.865 -265.581
L358.694 -266.692
L355.728 -265.581
L351.524 -263.914
L349.378 -265.581
L344.354 -269.733
L337.435 -265.581
L337.184 -265.412
L336.849 -265.581
L330.015 -270.872
L326.524 -272.939
L322.845 -274.668
L320.391 -272.939
L315.675 -266.85
L308.505 -266.213
L307.903 -265.581
L308.505 -264.927
L315.675 -263.738
L322.845 -259.326
L324.738 -258.223
L322.845 -256.382
L315.675 -253.386
L314.53 -250.865
L308.94 -243.507
L308.505 -242.891
L308.422 -243.507
L301.336 -249.715
L294.166 -248.318
L286.996 -245.93
L279.826 -250.093
L277.57 -250.865
L279.826 -252.321
L283.326 -258.223
L279.826 -265.41
L278.894 -265.581
L273.553 -272.939
L277.629 -280.297
L272.657 -286.808
L266.931 -280.297
L265.487 -273.464
L263.901 -280.297
L262.17 -287.655
L265.487 -293.59
L266.587 -295.013
L265.487 -297.516
L263.218 -302.371
L258.317 -307.337
L256.177 -309.729
L258.317 -312.624
L261.063 -317.087
L258.317 -319.483
L251.904 -324.444
L251.319 -331.802
L251.147 -333.314
L243.978 -333.035
L236.808 -338.831
L229.638 -337.17
L226.92 -331.802
L222.468 -325.21
L215.299 -326.146
L208.129 -324.984
L207.642 -324.444
L200.959 -320.105
L193.789 -318.298
L193.5 -317.087
L193.789 -316.655
L196.443 -309.729
L193.789 -306.599
L187.055 -309.729
L186.619 -310.036
L184.437 -317.087
L179.45 -322.126
L172.28 -320.484
L165.747 -317.087
L168.544 -309.729
L165.11 -307.023
L158.039 -309.729
L163.485 -317.087
L157.94 -319.453
L150.771 -320.508
L145.669 -317.087
L150.425 -309.729
L143.601 -302.601
L143.321 -302.371
L136.431 -296.93
L134.398 -295.013
L129.261 -291.752
L125.78 -287.655
L129.261 -281.533
L130.714 -280.297
L131.251 -272.939
L129.261 -270.115
L126.31 -265.581
L124.815 -258.223
L122.092 -251.716
L121.446 -250.865
L122.092 -248.69
L122.667 -243.507
L127.981 -236.149
L122.092 -230.457
L121.278 -228.791
L122.092 -227.2
L125.4 -221.433
L122.092 -219.27
L118.69 -214.075
L122.092 -211.4
L129.261 -211.736
L131.756 -206.717
L136.431 -199.704
L137.369 -199.359
L136.431 -198.963
L132.861 -192.001
L136.431 -187.224
L139.884 -184.643
L143.601 -182.218
L148.478 -184.643
L150.771 -190.263
L157.94 -189.338
L159.816 -192.001
L157.94 -196.274
L156.848 -199.359
L155.197 -206.717
L157.94 -208.744
L164.052 -206.717
L159.556 -199.359
L165.11 -195.916
L169.192 -199.359
L172.28 -206.272
L172.546 -206.717
L179.45 -208.473
L185.596 -214.075
L186.619 -218.245
L191.507 -214.075
L187.609 -206.717
L186.619 -202.559
L179.45 -202.362
L175.61 -199.359
L179.45 -196.304
L186.619 -198.989
L188.487 -199.359
L193.789 -201.266
L200.959 -204.97
L203.539 -199.359
L208.129 -194.753
L212.059 -192.001
L209.221 -184.643
L208.129 -180.08
L207.559 -177.285
L208.129 -176.755
L213.617 -169.927
L215.299 -168.093
L220.634 -162.569
L222.468 -158.366
L226.721 -155.211
L223.765 -147.853
L229.638 -140.806
L236.808 -141.556
L237.613 -140.496
L238.402 -133.138
L243.978 -126.526
L251.147 -128.117
L253.544 -125.78
L258.317 -121.407
M286.996 -175.503
L286.602 -177.285
L286.996 -177.556
L287.69 -177.285
L286.996 -175.503
M294.166 -181.581
L292.714 -184.643
L286.996 -191.484
L286.407 -192.001
L286.996 -193.522
L294.166 -194.143
L299.915 -199.359
L301.336 -205.955
L306.687 -199.359
L306.589 -192.001
L301.336 -189.239
L297.021 -184.643
L294.166 -181.581
M286.996 -220.829
L286.469 -221.433
L286.996 -221.455
L287.509 -221.433
L286.996 -220.829
M308.505 -227.829
L305.223 -228.791
L308.505 -229.281
L310.124 -228.791
L308.505 -227.829
M322.845 -227.711
L319.191 -228.791
L322.845 -229.682
L323.833 -228.791
L322.845 -227.711
M330.015 -235.348
L329.331 -236.149
L330.015 -236.702
L331.308 -236.149
L330.015 -235.348
M337.184 -177.1
L337.015 -177.285
L337.184 -177.379
L337.668 -177.285
L337.184 -177.1
M179.45 -292.714
L177.918 -295.013
L179.45 -296.632
L182.367 -295.013
L179.45 -292.714
M186.619 -285.155
L184.347 -287.655
L186.619 -290.685
L187.234 -287.655
L186.619 -285.155
M193.789 -227.63
L192.584 -228.791
L193.789 -230.813
L195.074 -228.791
L193.789 -227.63
M200.959 -294.578
L199.839 -295.013
L200.959 -295.917
L201.316 -295.013
L200.959 -294.578" id="C2_1_ea6b570eb8"/>
     <path d="
M322.845 -129.179
L327.96 -133.138
L322.845 -137.021
L318.322 -133.138
L322.845 -129.179" id="C2_2_bda2fefb3a"/>
     <path d="
M337.184 -154.129
L338.265 -155.211
L337.184 -156.123
L335.673 -155.211
L337.184 -154.129" id="C2_3_d7c50ef452"/>
     <path d="
M308.505 -155.583
L315.433 -162.569
L308.505 -169.783
L301.647 -162.569
L308.505 -155.583" id="C2_4_c21fd97ef6"/>
     <path d="
M373.033 -167.976
L376.693 -169.927
L373.033 -172.066
L370.992 -169.927
L373.033 -167.976" id="C2_5_9c94611708"/>
     <path d="
M165.11 -172.686
L169.508 -177.285
L165.11 -184.483
L160.581 -177.285
L165.11 -172.686" id="C2_6_21a2250461"/>
     <path d="
M179.45 -174.788
L182.764 -177.285
L179.45 -180.597
L175.844 -177.285
L179.45 -174.788" id="C2_7_78e8ef94e5"/>
     <path d="
M193.789 -180.417
L198.943 -184.643
L193.789 -188.23
L191.442 -184.643
L193.789 -180.417" id="C2_8_150ed3158a"/>
     <path d="
M200.959 -190.551
L201.623 -192.001
L200.959 -192.721
L200.359 -192.001
L200.959 -190.551" id="C2_9_54b66e8c4a"/>
     <path d="
M358.694 -219.216
L360.194 -221.433
L358.694 -223.672
L351.606 -221.433
L358.694 -219.216" id="C2_a_464cd5ebe7"/>
     <path d="
M365.863 -225.933
L368.264 -228.791
L365.863 -231.856
L362.192 -228.791
L365.863 -225.933" id="C2_b_4b10f055c4"/>
     <path d="
M373.033 -234.486
L374.81 -236.149
L373.033 -238.145
L370.933 -236.149
L373.033 -234.486" id="C2_c_df34ca8085"/>
     <path d="
M294.166 -257.649
L301.336 -257.295
L303.152 -258.223
L301.336 -260.003
L297.892 -265.581
L294.166 -268.226
L291.284 -265.581
L293.669 -258.223
L294.166 -257.649" id="C2_d_b4e1af8049"/>
     <path d="
M365.863 -279.496
L366.401 -280.297
L365.863 -280.919
L365.173 -280.297
L365.863 -279.496" id="C2_e_637ce52127"/>
     <path d="
M308.505 -287.559
L308.63 -287.655
L308.505 -287.748
L308.339 -287.655
L308.505 -287.559" id="C2_f_1a6c62a776"/>
     <path d="
M351.524 -290.217
L356.153 -295.013
L351.524 -298.084
L347.559 -295.013
L351.524 -290.217" id="C2_10_f1e85b29e2"/>
     <path d="
M157.94 -328.912
L159.536 -331.802
L157.94 -333.48
L156.039 -331.802
L157.94 -328.912" id="C2_11_ce46760b21"/>
     <path d="
M222.468 -338.283
L225.152 -339.16
L222.468 -340.813
L221.774 -339.16
L222.468 -338.283" id="C2_12_d1717cd111"/>
     <path d="
M351.524 -337.819
L353.048 -339.16
L351.524 -340.474
L350.253 -339.16
L351.524 -337.819" id="C2_13_8cde18791c"/>
     <path d="
M172.28 -368.055
L172.737 -368.592
L172.28 -369.07
L171.792 -368.592
L172.28 -368.055" id="C2_14_1795ddb94e"/>
    </defs>
    <g clip-path="url(#p732ca3aedf)">
     <use style="fill:#0000ff;" x="0.0" xlink:href="#C2_0_c0fce2cd46" y="432.0"/>
    </g>
    <g clip-path="url(#p732ca3aedf)">
     <use style="fill:#0000ff;" x="0.0" xlink:href="#C2_1_ea6b570eb8" y="432.0"/>
    </g>
    <g clip-path="url(#p732ca3aedf)">
     <use style="fill:#0000ff;" x="0.0" xlink:href="#C2_2_bda2fefb3a" y="432.0"/>
    </g>
    <g clip-path="url(#p732ca3aedf)">
     <use style="fill:#0000ff;" x="0.0" xlink:href="#C2_3_d7c50ef452" y="432.0"/>
    </g>
    <g clip-path="url(#p732ca3aedf)">
     <use style="fill:#0000ff;" x="0.0" xlink:href="#C2_4_c21fd97ef6" y="432.0"/>
    </g>
    <g clip-path="url(#p732ca3aedf)">
     <use style="fill:#0000ff;" x="0.0" xlink:href="#C2_5_9c94611708" y="432.0"/>
    </g>
    <g clip-path="url(#p732ca3aedf)">
     <use style="fill:#0000ff;" x="0.0" xlink:href="#C2_6_21a2250461" y="432.0"/>
    </g>
    <g clip-path="url(#p732ca3aedf)">
     <use style="fill:#0000ff;" x="0.0" xlink:href="#C2_7_78e8ef94e5" y="432.0"/>
    </g>
    <g clip-path="url(#p732ca3aedf)">
     <use style="fill:#0000ff;" x="0.0" xlink:href="#C2_8_150ed3158a" y="432.0"/>
    </g>
    <g clip-path="url(#p732ca3aedf)">
     <use style="fill:#0000ff;" x="0.0" xlink:href="#C2_9_54b66e8c4a" y="432.0"/>
    </g>
    <g clip-path="url(#p732ca3aedf)">
     <use style="fill:#0000ff;" x="0.0" xlink:href="#C2_a_464cd5ebe7" y="432.0"/>
    </g>
    <g clip-path="url(#p732ca3aedf)">
     <use style="fill:#0000ff;" x="0.0" xlink:href="#C2_b_4b10f055c4" y="432.0"/>
    </g>
    <g clip-path="url(#p732ca3aedf)">
     <use style="fill:#0000ff;" x="0.0" xlink:href="#C2_c_df34ca8085" y="432.0"/>
    </g>
    <g clip-path="url(#p732ca3aedf)">
     <use style="fill:#0000ff;" x="0.0" xlink:href="#C2_d_b4e1af8049" y="432.0"/>
    </g>
    <g clip-path="url(#p732ca3aedf)">
     <use style="fill:#0000ff;" x="0.0" xlink:href="#C2_e_637ce52127" y="432.0"/>
    </g>
    <g clip-path="url(#p732ca3aedf)">
     <use style="fill:#0000ff;" x="0.0" xlink:href="#C2_f_1a6c62a776" y="432.0"/>
    </g>
    <g clip-path="url(#p732ca3aedf)">
     <use style="fill:#0000ff;" x="0.0" xlink:href="#C2_10_f1e85b29e2" y="432.0"/>
    </g>
    <g clip-path="url(#p732ca3aedf)">
     <use style="fill:#0000ff;" x="0.0" xlink:href="#C2_11_ce46760b21" y="432.0"/>
    </g>
    <g clip-path="url(#p732ca3aedf)">
     <use style="fill:#0000ff;" x="0.0" xlink:href="#C2_12_d1717cd111" y="432.0"/>
    </g>
    <g clip-path="url(#p732ca3aedf)">
     <use style="fill:#0000ff;" x="0.0" xlink:href="#C2_13_8cde18791c" y="432.0"/>
    </g>
    <g clip-path="url(#p732ca3aedf)">
     <use style="fill:#0000ff;" x="0.0" xlink:href="#C2_14_1795ddb94e" y="432.0"/>
    </g>
   </g>
   <g id="line2d_1">
    <path clip-path="url(#p732ca3aedf)" d="
M240.393 199.53" style="fill:none;stroke:#fa8072;stroke-linecap:square;"/>
    <defs>
     <path d="
M-7.5 0
L7.5 0
M0 7.5
L0 -7.5" id="m415119b0dc" style="stroke:#fa8072;stroke-width:3;"/>
    </defs>
    <g clip-path="url(#p732ca3aedf)">
     <use style="fill:#fa8072;stroke:#fa8072;stroke-width:3;" x="240.392671875" xlink:href="#m415119b0dc" y="199.53"/>
    </g>
   </g>
   <g id="matplotlib.axis_1">
    <g id="xtick_1">
     <g id="line2d_2">
      <path clip-path="url(#p732ca3aedf)" d="
M64.7336 379.8
L64.7336 19.26" style="fill:none;stroke:#000000;stroke-dasharray:1.000000,3.000000;stroke-dashoffset:0.0;stroke-width:0.5;"/>
     </g>
     <g id="line2d_3">
      <defs>
       <path d="
M0 0
L0 -4" id="m93b0483c22" style="stroke:#000000;stroke-width:0.5;"/>
      </defs>
      <g>
       <use style="stroke:#000000;stroke-width:0.5;" x="64.733625" xlink:href="#m93b0483c22" y="379.8"/>
      </g>
     </g>
     <g id="line2d_4">
      <defs>
       <path d="
M0 0
L0 4" id="m741efc42ff" style="stroke:#000000;stroke-width:0.5;"/>
      </defs>
      <g>
       <use style="stroke:#000000;stroke-width:0.5;" x="64.733625" xlink:href="#m741efc42ff" y="19.26"/>
      </g>
     </g>
     <g id="text_1">
      <!-- −6 -->
      <defs>
       <path d="
M33.0156 40.375
Q26.375 40.375 22.4844 35.8281
Q18.6094 31.2969 18.6094 23.3906
Q18.6094 15.5312 22.4844 10.9531
Q26.375 6.39062 33.0156 6.39062
Q39.6562 6.39062 43.5312 10.9531
Q47.4062 15.5312 47.4062 23.3906
Q47.4062 31.2969 43.5312 35.8281
Q39.6562 40.375 33.0156 40.375
M52.5938 71.2969
L52.5938 62.3125
Q48.875 64.0625 45.0938 64.9844
Q41.3125 65.9219 37.5938 65.9219
Q27.8281 65.9219 22.6719 59.3281
Q17.5312 52.7344 16.7969 39.4062
Q19.6719 43.6562 24.0156 45.9219
Q28.375 48.1875 33.5938 48.1875
Q44.5781 48.1875 50.9531 41.5156
Q57.3281 34.8594 57.3281 23.3906
Q57.3281 12.1562 50.6875 5.35938
Q44.0469 -1.42188 33.0156 -1.42188
Q20.3594 -1.42188 13.6719 8.26562
Q6.98438 17.9688 6.98438 36.375
Q6.98438 53.6562 15.1875 63.9375
Q23.3906 74.2188 37.2031 74.2188
Q40.9219 74.2188 44.7031 73.4844
Q48.4844 72.75 52.5938 71.2969" id="DejaVuSans-36"/>
       <path d="
M10.5938 35.5
L73.1875 35.5
L73.1875 27.2031
L10.5938 27.2031
z
" id="DejaVuSans-2212"/>
      </defs>
      <g transform="translate(56.90175 392.918125)scale(0.12 -0.12)">
       <use xlink:href="#DejaVuSans-2212"/>
       <use x="83.7890625" xlink:href="#DejaVuSans-36"/>
      </g>
     </g>
    </g>
    <g id="xtick_2">
     <g id="line2d_5">
      <path clip-path="url(#p732ca3aedf)" d="
M123.287 379.8
L123.287 19.26" style="fill:none;stroke:#000000;stroke-dasharray:1.000000,3.000000;stroke-dashoffset:0.0;stroke-width:0.5;"/>
     </g>
     <g id="line2d_6">
      <g>
       <use style="stroke:#000000;stroke-width:0.5;" x="123.286640625" xlink:href="#m93b0483c22" y="379.8"/>
      </g>
     </g>
     <g id="line2d_7">
      <g>
       <use style="stroke:#000000;stroke-width:0.5;" x="123.286640625" xlink:href="#m741efc42ff" y="19.26"/>
      </g>
     </g>
     <g id="text_2">
      <!-- −4 -->
      <defs>
       <path d="
M37.7969 64.3125
L12.8906 25.3906
L37.7969 25.3906
z

M35.2031 72.9062
L47.6094 72.9062
L47.6094 25.3906
L58.0156 25.3906
L58.0156 17.1875
L47.6094 17.1875
L47.6094 0
L37.7969 0
L37.7969 17.1875
L4.89062 17.1875
L4.89062 26.7031
z
" id="DejaVuSans-34"/>
      </defs>
      <g transform="translate(115.413515625 392.918125)scale(0.12 -0.12)">
       <use xlink:href="#DejaVuSans-2212"/>
       <use x="83.7890625" xlink:href="#DejaVuSans-34"/>
      </g>
     </g>
    </g>
    <g id="xtick_3">
     <g id="line2d_8">
      <path clip-path="url(#p732ca3aedf)" d="
M181.84 379.8
L181.84 19.26" style="fill:none;stroke:#000000;stroke-dasharray:1.000000,3.000000;stroke-dashoffset:0.0;stroke-width:0.5;"/>
     </g>
     <g id="line2d_9">
      <g>
       <use style="stroke:#000000;stroke-width:0.5;" x="181.83965625" xlink:href="#m93b0483c22" y="379.8"/>
      </g>
     </g>
     <g id="line2d_10">
      <g>
       <use style="stroke:#000000;stroke-width:0.5;" x="181.83965625" xlink:href="#m741efc42ff" y="19.26"/>
      </g>
     </g>
     <g id="text_3">
      <!-- −2 -->
      <defs>
       <path d="
M19.1875 8.29688
L53.6094 8.29688
L53.6094 0
L7.32812 0
L7.32812 8.29688
Q12.9375 14.1094 22.625 23.8906
Q32.3281 33.6875 34.8125 36.5312
Q39.5469 41.8438 41.4219 45.5312
Q43.3125 49.2188 43.3125 52.7812
Q43.3125 58.5938 39.2344 62.25
Q35.1562 65.9219 28.6094 65.9219
Q23.9688 65.9219 18.8125 64.3125
Q13.6719 62.7031 7.8125 59.4219
L7.8125 69.3906
Q13.7656 71.7812 18.9375 73
Q24.125 74.2188 28.4219 74.2188
Q39.75 74.2188 46.4844 68.5469
Q53.2188 62.8906 53.2188 53.4219
Q53.2188 48.9219 51.5312 44.8906
Q49.8594 40.875 45.4062 35.4062
Q44.1875 33.9844 37.6406 27.2188
Q31.1094 20.4531 19.1875 8.29688" id="DejaVuSans-32"/>
      </defs>
      <g transform="translate(174.23090625 392.918125)scale(0.12 -0.12)">
       <use xlink:href="#DejaVuSans-2212"/>
       <use x="83.7890625" xlink:href="#DejaVuSans-32"/>
      </g>
     </g>
    </g>
    <g id="xtick_4">
     <g id="line2d_11">
      <path clip-path="url(#p732ca3aedf)" d="
M240.393 379.8
L240.393 19.26" style="fill:none;stroke:#000000;stroke-dasharray:1.000000,3.000000;stroke-dashoffset:0.0;stroke-width:0.5;"/>
     </g>
     <g id="line2d_12">
      <g>
       <use style="stroke:#000000;stroke-width:0.5;" x="240.392671875" xlink:href="#m93b0483c22" y="379.8"/>
      </g>
     </g>
     <g id="line2d_13">
      <g>
       <use style="stroke:#000000;stroke-width:0.5;" x="240.392671875" xlink:href="#m741efc42ff" y="19.26"/>
      </g>
     </g>
     <g id="text_4">
      <!-- 0 -->
      <defs>
       <path d="
M31.7812 66.4062
Q24.1719 66.4062 20.3281 58.9062
Q16.5 51.4219 16.5 36.375
Q16.5 21.3906 20.3281 13.8906
Q24.1719 6.39062 31.7812 6.39062
Q39.4531 6.39062 43.2812 13.8906
Q47.125 21.3906 47.125 36.375
Q47.125 51.4219 43.2812 58.9062
Q39.4531 66.4062 31.7812 66.4062
M31.7812 74.2188
Q44.0469 74.2188 50.5156 64.5156
Q56.9844 54.8281 56.9844 36.375
Q56.9844 17.9688 50.5156 8.26562
Q44.0469 -1.42188 31.7812 -1.42188
Q19.5312 -1.42188 13.0625 8.26562
Q6.59375 17.9688 6.59375 36.375
Q6.59375 54.8281 13.0625 64.5156
Q19.5312 74.2188 31.7812 74.2188" id="DejaVuSans-30"/>
      </defs>
      <g transform="translate(237.369234375 392.918125)scale(0.12 -0.12)">
       <use xlink:href="#DejaVuSans-30"/>
      </g>
     </g>
    </g>
    <g id="xtick_5">
     <g id="line2d_14">
      <path clip-path="url(#p732ca3aedf)" d="
M298.946 379.8
L298.946 19.26" style="fill:none;stroke:#000000;stroke-dasharray:1.000000,3.000000;stroke-dashoffset:0.0;stroke-width:0.5;"/>
     </g>
     <g id="line2d_15">
      <g>
       <use style="stroke:#000000;stroke-width:0.5;" x="298.9456875" xlink:href="#m93b0483c22" y="379.8"/>
      </g>
     </g>
     <g id="line2d_16">
      <g>
       <use style="stroke:#000000;stroke-width:0.5;" x="298.9456875" xlink:href="#m741efc42ff" y="19.26"/>
      </g>
     </g>
     <g id="text_5">
      <!-- 2 -->
      <g transform="translate(296.1688125 392.918125)scale(0.12 -0.12)">
       <use xlink:href="#DejaVuSans-32"/>
      </g>
     </g>
    </g>
    <g id="xtick_6">
     <g id="line2d_17">
      <path clip-path="url(#p732ca3aedf)" d="
M357.499 379.8
L357.499 19.26" style="fill:none;stroke:#000000;stroke-dasharray:1.000000,3.000000;stroke-dashoffset:0.0;stroke-width:0.5;"/>
     </g>
     <g id="line2d_18">
      <g>
       <use style="stroke:#000000;stroke-width:0.5;" x="357.498703125" xlink:href="#m93b0483c22" y="379.8"/>
      </g>
     </g>
     <g id="line2d_19">
      <g>
       <use style="stroke:#000000;stroke-width:0.5;" x="357.498703125" xlink:href="#m741efc42ff" y="19.26"/>
      </g>
     </g>
     <g id="text_6">
      <!-- 4 -->
      <g transform="translate(354.311203125 392.918125)scale(0.12 -0.12)">
       <use xlink:href="#DejaVuSans-34"/>
      </g>
     </g>
    </g>
    <g id="xtick_7">
     <g id="line2d_20">
      <path clip-path="url(#p732ca3aedf)" d="
M416.052 379.8
L416.052 19.26" style="fill:none;stroke:#000000;stroke-dasharray:1.000000,3.000000;stroke-dashoffset:0.0;stroke-width:0.5;"/>
     </g>
     <g id="line2d_21">
      <g>
       <use style="stroke:#000000;stroke-width:0.5;" x="416.05171875" xlink:href="#m93b0483c22" y="379.8"/>
      </g>
     </g>
     <g id="line2d_22">
      <g>
       <use style="stroke:#000000;stroke-width:0.5;" x="416.05171875" xlink:href="#m741efc42ff" y="19.26"/>
      </g>
     </g>
     <g id="text_7">
      <!-- 6 -->
      <g transform="translate(413.03109375 392.918125)scale(0.12 -0.12)">
       <use xlink:href="#DejaVuSans-36"/>
      </g>
     </g>
    </g>
    <g id="xtick_8">
     <g id="line2d_23">
      <defs>
       <path d="
M0 0
L0 -2" id="m177f7580d0" style="stroke:#000000;stroke-width:0.5;"/>
      </defs>
      <g>
       <use style="stroke:#000000;stroke-width:0.5;" x="79.3718789063" xlink:href="#m177f7580d0" y="379.8"/>
      </g>
     </g>
     <g id="line2d_24">
      <defs>
       <path d="
M0 0
L0 2" id="m5284c7e2a0" style="stroke:#000000;stroke-width:0.5;"/>
      </defs>
      <g>
       <use style="stroke:#000000;stroke-width:0.5;" x="79.3718789063" xlink:href="#m5284c7e2a0" y="19.26"/>
      </g>
     </g>
    </g>
    <g id="xtick_9">
     <g id="line2d_25">
      <g>
       <use style="stroke:#000000;stroke-width:0.5;" x="94.0101328125" xlink:href="#m177f7580d0" y="379.8"/>
      </g>
     </g>
     <g id="line2d_26">
      <g>
       <use style="stroke:#000000;stroke-width:0.5;" x="94.0101328125" xlink:href="#m5284c7e2a0" y="19.26"/>
      </g>
     </g>
    </g>
    <g id="xtick_10">
     <g id="line2d_27">
      <g>
       <use style="stroke:#000000;stroke-width:0.5;" x="108.648386719" xlink:href="#m177f7580d0" y="379.8"/>
      </g>
     </g>
     <g id="line2d_28">
      <g>
       <use style="stroke:#000000;stroke-width:0.5;" x="108.648386719" xlink:href="#m5284c7e2a0" y="19.26"/>
      </g>
     </g>
    </g>
    <g id="xtick_11">
     <g id="line2d_29">
      <g>
       <use style="stroke:#000000;stroke-width:0.5;" x="137.924894531" xlink:href="#m177f7580d0" y="379.8"/>
      </g>
     </g>
     <g id="line2d_30">
      <g>
       <use style="stroke:#000000;stroke-width:0.5;" x="137.924894531" xlink:href="#m5284c7e2a0" y="19.26"/>
      </g>
     </g>
    </g>
    <g id="xtick_12">
     <g id="line2d_31">
      <g>
       <use style="stroke:#000000;stroke-width:0.5;" x="152.563148438" xlink:href="#m177f7580d0" y="379.8"/>
      </g>
     </g>
     <g id="line2d_32">
      <g>
       <use style="stroke:#000000;stroke-width:0.5;" x="152.563148438" xlink:href="#m5284c7e2a0" y="19.26"/>
      </g>
     </g>
    </g>
    <g id="xtick_13">
     <g id="line2d_33">
      <g>
       <use style="stroke:#000000;stroke-width:0.5;" x="167.201402344" xlink:href="#m177f7580d0" y="379.8"/>
      </g>
     </g>
     <g id="line2d_34">
      <g>
       <use style="stroke:#000000;stroke-width:0.5;" x="167.201402344" xlink:href="#m5284c7e2a0" y="19.26"/>
      </g>
     </g>
    </g>
    <g id="xtick_14">
     <g id="line2d_35">
      <g>
       <use style="stroke:#000000;stroke-width:0.5;" x="196.477910156" xlink:href="#m177f7580d0" y="379.8"/>
      </g>
     </g>
     <g id="line2d_36">
      <g>
       <use style="stroke:#000000;stroke-width:0.5;" x="196.477910156" xlink:href="#m5284c7e2a0" y="19.26"/>
      </g>
     </g>
    </g>
    <g id="xtick_15">
     <g id="line2d_37">
      <g>
       <use style="stroke:#000000;stroke-width:0.5;" x="211.116164063" xlink:href="#m177f7580d0" y="379.8"/>
      </g>
     </g>
     <g id="line2d_38">
      <g>
       <use style="stroke:#000000;stroke-width:0.5;" x="211.116164063" xlink:href="#m5284c7e2a0" y="19.26"/>
      </g>
     </g>
    </g>
    <g id="xtick_16">
     <g id="line2d_39">
      <g>
       <use style="stroke:#000000;stroke-width:0.5;" x="225.754417969" xlink:href="#m177f7580d0" y="379.8"/>
      </g>
     </g>
     <g id="line2d_40">
      <g>
       <use style="stroke:#000000;stroke-width:0.5;" x="225.754417969" xlink:href="#m5284c7e2a0" y="19.26"/>
      </g>
     </g>
    </g>
    <g id="xtick_17">
     <g id="line2d_41">
      <g>
       <use style="stroke:#000000;stroke-width:0.5;" x="255.030925781" xlink:href="#m177f7580d0" y="379.8"/>
      </g>
     </g>
     <g id="line2d_42">
      <g>
       <use style="stroke:#000000;stroke-width:0.5;" x="255.030925781" xlink:href="#m5284c7e2a0" y="19.26"/>
      </g>
     </g>
    </g>
    <g id="xtick_18">
     <g id="line2d_43">
      <g>
       <use style="stroke:#000000;stroke-width:0.5;" x="269.669179687" xlink:href="#m177f7580d0" y="379.8"/>
      </g>
     </g>
     <g id="line2d_44">
      <g>
       <use style="stroke:#000000;stroke-width:0.5;" x="269.669179687" xlink:href="#m5284c7e2a0" y="19.26"/>
      </g>
     </g>
    </g>
    <g id="xtick_19">
     <g id="line2d_45">
      <g>
       <use style="stroke:#000000;stroke-width:0.5;" x="284.307433594" xlink:href="#m177f7580d0" y="379.8"/>
      </g>
     </g>
     <g id="line2d_46">
      <g>
       <use style="stroke:#000000;stroke-width:0.5;" x="284.307433594" xlink:href="#m5284c7e2a0" y="19.26"/>
      </g>
     </g>
    </g>
    <g id="xtick_20">
     <g id="line2d_47">
      <g>
       <use style="stroke:#000000;stroke-width:0.5;" x="313.583941406" xlink:href="#m177f7580d0" y="379.8"/>
      </g>
     </g>
     <g id="line2d_48">
      <g>
       <use style="stroke:#000000;stroke-width:0.5;" x="313.583941406" xlink:href="#m5284c7e2a0" y="19.26"/>
      </g>
     </g>
    </g>
    <g id="xtick_21">
     <g id="line2d_49">
      <g>
       <use style="stroke:#000000;stroke-width:0.5;" x="328.222195313" xlink:href="#m177f7580d0" y="379.8"/>
      </g>
     </g>
     <g id="line2d_50">
      <g>
       <use style="stroke:#000000;stroke-width:0.5;" x="328.222195313" xlink:href="#m5284c7e2a0" y="19.26"/>
      </g>
     </g>
    </g>
    <g id="xtick_22">
     <g id="line2d_51">
      <g>
       <use style="stroke:#000000;stroke-width:0.5;" x="342.860449219" xlink:href="#m177f7580d0" y="379.8"/>
      </g>
     </g>
     <g id="line2d_52">
      <g>
       <use style="stroke:#000000;stroke-width:0.5;" x="342.860449219" xlink:href="#m5284c7e2a0" y="19.26"/>
      </g>
     </g>
    </g>
    <g id="xtick_23">
     <g id="line2d_53">
      <g>
       <use style="stroke:#000000;stroke-width:0.5;" x="372.136957031" xlink:href="#m177f7580d0" y="379.8"/>
      </g>
     </g>
     <g id="line2d_54">
      <g>
       <use style="stroke:#000000;stroke-width:0.5;" x="372.136957031" xlink:href="#m5284c7e2a0" y="19.26"/>
      </g>
     </g>
    </g>
    <g id="xtick_24">
     <g id="line2d_55">
      <g>
       <use style="stroke:#000000;stroke-width:0.5;" x="386.775210937" xlink:href="#m177f7580d0" y="379.8"/>
      </g>
     </g>
     <g id="line2d_56">
      <g>
       <use style="stroke:#000000;stroke-width:0.5;" x="386.775210937" xlink:href="#m5284c7e2a0" y="19.26"/>
      </g>
     </g>
    </g>
    <g id="xtick_25">
     <g id="line2d_57">
      <g>
       <use style="stroke:#000000;stroke-width:0.5;" x="401.413464844" xlink:href="#m177f7580d0" y="379.8"/>
      </g>
     </g>
     <g id="line2d_58">
      <g>
       <use style="stroke:#000000;stroke-width:0.5;" x="401.413464844" xlink:href="#m5284c7e2a0" y="19.26"/>
      </g>
     </g>
    </g>
    <g id="text_8">
     <!-- $\mathcal{C}_{10}^{\prime}$ -->
     <defs>
      <path d="
M3.51562 5.42188
Q2.875 5.60938 2.875 6.39062
L15.0938 51.8125
Q15.6719 53.6562 17.0781 54.7812
Q18.5 55.9062 20.3125 55.9062
Q22.6562 55.9062 24.4375 54.3594
Q26.2188 52.8281 26.2188 50.4844
Q26.2188 49.4688 25.6875 48.1875
L7.625 4.98438
Q7.28125 4.29688 6.6875 4.29688
Q6.15625 4.29688 5 4.78125
Q3.85938 5.28125 3.51562 5.42188" id="Cmsy10-30"/>
      <path d="
M9.28125 0
L9.28125 3.51562
Q21.7812 3.51562 21.7812 6.6875
L21.7812 59.1875
Q16.6094 56.6875 8.6875 56.6875
L8.6875 60.2031
Q20.9531 60.2031 27.2031 66.6094
L28.6094 66.6094
Q28.9531 66.6094 29.2656 66.3281
Q29.5938 66.0625 29.5938 65.7188
L29.5938 6.6875
Q29.5938 3.51562 42.0938 3.51562
L42.0938 0
z
" id="Cmr10-31"/>
      <path d="
M25 -2.20312
Q12.75 -2.20312 8.32812 7.875
Q3.90625 17.9688 3.90625 31.8906
Q3.90625 40.5781 5.48438 48.2344
Q7.07812 55.9062 11.7812 61.25
Q16.5 66.6094 25 66.6094
Q31.5938 66.6094 35.7812 63.375
Q39.9844 60.1562 42.1875 55.0469
Q44.3906 49.9531 45.1875 44.1094
Q46 38.2812 46 31.8906
Q46 23.2969 44.4062 15.7969
Q42.8281 8.29688 38.1875 3.04688
Q33.5469 -2.20312 25 -2.20312
M25 0.390625
Q30.5625 0.390625 33.2969 6.09375
Q36.0312 11.8125 36.6719 18.75
Q37.3125 25.6875 37.3125 33.5
Q37.3125 41.0156 36.6719 47.3594
Q36.0312 53.7188 33.3125 58.8594
Q30.6094 64.0156 25 64.0156
Q19.3438 64.0156 16.6094 58.8281
Q13.875 53.6562 13.2344 47.3281
Q12.5938 41.0156 12.5938 33.5
Q12.5938 27.9375 12.8594 23
Q13.1406 18.0625 14.3125 12.8125
Q15.4844 7.5625 18.0938 3.96875
Q20.7031 0.390625 25 0.390625" id="Cmr10-30"/>
      <path d="
M19.6719 -2.39062
Q14.9375 -2.39062 11.4375 -0.5625
Q7.95312 1.26562 5.64062 4.5625
Q3.32812 7.85938 2.26562 11.8125
Q1.21875 15.7656 1.21875 20.3125
Q1.21875 29.25 4.51562 38.3594
Q7.8125 47.4688 13.7656 54.7188
Q19.7344 61.9688 27.9062 66.2344
Q36.0781 70.5156 45.5156 70.5156
L46.0938 70.5156
Q49.3594 70.5156 51.3906 68.8438
Q53.4219 67.1875 53.4219 64.0156
Q53.4219 61.2344 51.8125 57.4688
Q50.2031 53.7188 47.9062 49.6094
Q46.8281 47.7969 44.6562 46.4844
Q42.4844 45.1719 40.1875 44.9219
L39.7031 44.9219
Q39.0156 45.2656 39.0156 45.6094
Q39.0156 46.0469 40.5938 49.1719
Q42.1875 52.2969 43.3281 55.0469
Q44.4844 57.8125 44.4844 59.8125
Q44.4844 62.25 42.9375 63.4219
Q41.4062 64.5938 38.8125 64.5938
Q31.4531 64.5938 26.4375 61.0781
Q21.4375 57.5625 17.3906 50.6875
Q14.0156 44.875 12.0625 38.1094
Q10.1094 31.3438 10.1094 24.6094
Q10.1094 19.0938 11.8594 14.2344
Q13.625 9.375 17.4219 6.4375
Q21.2344 3.51562 27 3.51562
Q33.0625 3.51562 37.7969 8.01562
Q38.4219 8.6875 40.4062 11.2969
Q42.3906 13.9219 44.0938 15.1406
Q45.7969 16.3594 48.4844 16.6094
L49.0312 16.6094
Q49.7031 16.2656 49.7031 15.8281
Q49.7031 15.4375 49.4219 14.9844
Q46.5781 10.2969 41.7969 6.29688
Q37.0156 2.29688 31.2969 -0.046875
Q25.5938 -2.39062 20.3125 -2.39062
z
" id="Cmsy10-43"/>
     </defs>
     <g transform="translate(233.012671875 410.61375)scale(0.12 -0.12)">
      <use transform="translate(0.0 0.859375)" xlink:href="#Cmsy10-43"/>
      <use transform="translate(52.587890625 45.865625)scale(0.7)" xlink:href="#Cmsy10-30"/>
      <use transform="translate(52.587890625 -24.65)scale(0.7)" xlink:href="#Cmr10-31"/>
      <use transform="translate(87.587890625 -24.65)scale(0.7)" xlink:href="#Cmr10-30"/>
     </g>
    </g>
   </g>
   <g id="matplotlib.axis_2">
    <g id="ytick_1">
     <g id="text_9">
      <!-- −0.6 -->
      <defs>
       <path d="
M10.6875 12.4062
L21 12.4062
L21 0
L10.6875 0
z
" id="DejaVuSans-2e"/>
      </defs>
      <g transform="translate(33.621125 383.11125)scale(0.12 -0.12)">
       <use xlink:href="#DejaVuSans-2212"/>
       <use x="83.7890625" xlink:href="#DejaVuSans-30"/>
       <use x="147.412109375" xlink:href="#DejaVuSans-2e"/>
       <use x="179.19921875" xlink:href="#DejaVuSans-36"/>
      </g>
     </g>
    </g>
    <g id="ytick_2">
     <g id="line2d_59">
      <path clip-path="url(#p732ca3aedf)" d="
M64.7336 319.71
L416.052 319.71" style="fill:none;stroke:#000000;stroke-dasharray:1.000000,3.000000;stroke-dashoffset:0.0;stroke-width:0.5;"/>
     </g>
     <g id="line2d_60">
      <defs>
       <path d="
M0 0
L4 0" id="m728421d6d4" style="stroke:#000000;stroke-width:0.5;"/>
      </defs>
      <g>
       <use style="stroke:#000000;stroke-width:0.5;" x="64.733625" xlink:href="#m728421d6d4" y="319.71"/>
      </g>
     </g>
     <g id="line2d_61">
      <defs>
       <path d="
M0 0
L-4 0" id="mcb0005524f" style="stroke:#000000;stroke-width:0.5;"/>
      </defs>
      <g>
       <use style="stroke:#000000;stroke-width:0.5;" x="416.05171875" xlink:href="#mcb0005524f" y="319.71"/>
      </g>
     </g>
     <g id="text_10">
      <!-- −0.4 -->
      <g transform="translate(33.538625 323.02125)scale(0.12 -0.12)">
       <use xlink:href="#DejaVuSans-2212"/>
       <use x="83.7890625" xlink:href="#DejaVuSans-30"/>
       <use x="147.412109375" xlink:href="#DejaVuSans-2e"/>
       <use x="179.19921875" xlink:href="#DejaVuSans-34"/>
      </g>
     </g>
    </g>
    <g id="ytick_3">
     <g id="line2d_62">
      <path clip-path="url(#p732ca3aedf)" d="
M64.7336 259.62
L416.052 259.62" style="fill:none;stroke:#000000;stroke-dasharray:1.000000,3.000000;stroke-dashoffset:0.0;stroke-width:0.5;"/>
     </g>
     <g id="line2d_63">
      <g>
       <use style="stroke:#000000;stroke-width:0.5;" x="64.733625" xlink:href="#m728421d6d4" y="259.62"/>
      </g>
     </g>
     <g id="line2d_64">
      <g>
       <use style="stroke:#000000;stroke-width:0.5;" x="416.05171875" xlink:href="#mcb0005524f" y="259.62"/>
      </g>
     </g>
     <g id="text_11">
      <!-- −0.2 -->
      <g transform="translate(34.067375 262.93125)scale(0.12 -0.12)">
       <use xlink:href="#DejaVuSans-2212"/>
       <use x="83.7890625" xlink:href="#DejaVuSans-30"/>
       <use x="147.412109375" xlink:href="#DejaVuSans-2e"/>
       <use x="179.19921875" xlink:href="#DejaVuSans-32"/>
      </g>
     </g>
    </g>
    <g id="ytick_4">
     <g id="line2d_65">
      <path clip-path="url(#p732ca3aedf)" d="
M64.7336 199.53
L416.052 199.53" style="fill:none;stroke:#000000;stroke-dasharray:1.000000,3.000000;stroke-dashoffset:0.0;stroke-width:0.5;"/>
     </g>
     <g id="line2d_66">
      <g>
       <use style="stroke:#000000;stroke-width:0.5;" x="64.733625" xlink:href="#m728421d6d4" y="199.53"/>
      </g>
     </g>
     <g id="line2d_67">
      <g>
       <use style="stroke:#000000;stroke-width:0.5;" x="416.05171875" xlink:href="#mcb0005524f" y="199.53"/>
      </g>
     </g>
     <g id="text_12">
      <!-- 0.0 -->
      <g transform="translate(43.238 202.84125)scale(0.12 -0.12)">
       <use xlink:href="#DejaVuSans-30"/>
       <use x="63.623046875" xlink:href="#DejaVuSans-2e"/>
       <use x="95.41015625" xlink:href="#DejaVuSans-30"/>
      </g>
     </g>
    </g>
    <g id="ytick_5">
     <g id="line2d_68">
      <path clip-path="url(#p732ca3aedf)" d="
M64.7336 139.44
L416.052 139.44" style="fill:none;stroke:#000000;stroke-dasharray:1.000000,3.000000;stroke-dashoffset:0.0;stroke-width:0.5;"/>
     </g>
     <g id="line2d_69">
      <g>
       <use style="stroke:#000000;stroke-width:0.5;" x="64.733625" xlink:href="#m728421d6d4" y="139.44"/>
      </g>
     </g>
     <g id="line2d_70">
      <g>
       <use style="stroke:#000000;stroke-width:0.5;" x="416.05171875" xlink:href="#mcb0005524f" y="139.44"/>
      </g>
     </g>
     <g id="text_13">
      <!-- 0.2 -->
      <g transform="translate(43.643 142.75125)scale(0.12 -0.12)">
       <use xlink:href="#DejaVuSans-30"/>
       <use x="63.623046875" xlink:href="#DejaVuSans-2e"/>
       <use x="95.41015625" xlink:href="#DejaVuSans-32"/>
      </g>
     </g>
    </g>
    <g id="ytick_6">
     <g id="line2d_71">
      <path clip-path="url(#p732ca3aedf)" d="
M64.7336 79.35
L416.052 79.35" style="fill:none;stroke:#000000;stroke-dasharray:1.000000,3.000000;stroke-dashoffset:0.0;stroke-width:0.5;"/>
     </g>
     <g id="line2d_72">
      <g>
       <use style="stroke:#000000;stroke-width:0.5;" x="64.733625" xlink:href="#m728421d6d4" y="79.35"/>
      </g>
     </g>
     <g id="line2d_73">
      <g>
       <use style="stroke:#000000;stroke-width:0.5;" x="416.05171875" xlink:href="#mcb0005524f" y="79.35"/>
      </g>
     </g>
     <g id="text_14">
      <!-- 0.4 -->
      <g transform="translate(43.11425 82.66125)scale(0.12 -0.12)">
       <use xlink:href="#DejaVuSans-30"/>
       <use x="63.623046875" xlink:href="#DejaVuSans-2e"/>
       <use x="95.41015625" xlink:href="#DejaVuSans-34"/>
      </g>
     </g>
    </g>
    <g id="ytick_7">
     <g id="text_15">
      <!-- 0.6 -->
      <g transform="translate(43.19675 22.57125)scale(0.12 -0.12)">
       <use xlink:href="#DejaVuSans-30"/>
       <use x="63.623046875" xlink:href="#DejaVuSans-2e"/>
       <use x="95.41015625" xlink:href="#DejaVuSans-36"/>
      </g>
     </g>
    </g>
    <g id="ytick_8">
     <g id="line2d_74">
      <defs>
       <path d="
M0 0
L2 0" id="mf0c55a9a47" style="stroke:#000000;stroke-width:0.5;"/>
      </defs>
      <g>
       <use style="stroke:#000000;stroke-width:0.5;" x="64.733625" xlink:href="#mf0c55a9a47" y="364.7775"/>
      </g>
     </g>
     <g id="line2d_75">
      <defs>
       <path d="
M0 0
L-2 0" id="ma4f294b3af" style="stroke:#000000;stroke-width:0.5;"/>
      </defs>
      <g>
       <use style="stroke:#000000;stroke-width:0.5;" x="416.05171875" xlink:href="#ma4f294b3af" y="364.7775"/>
      </g>
     </g>
    </g>
    <g id="ytick_9">
     <g id="line2d_76">
      <g>
       <use style="stroke:#000000;stroke-width:0.5;" x="64.733625" xlink:href="#mf0c55a9a47" y="349.755"/>
      </g>
     </g>
     <g id="line2d_77">
      <g>
       <use style="stroke:#000000;stroke-width:0.5;" x="416.05171875" xlink:href="#ma4f294b3af" y="349.755"/>
      </g>
     </g>
    </g>
    <g id="ytick_10">
     <g id="line2d_78">
      <g>
       <use style="stroke:#000000;stroke-width:0.5;" x="64.733625" xlink:href="#mf0c55a9a47" y="334.7325"/>
      </g>
     </g>
     <g id="line2d_79">
      <g>
       <use style="stroke:#000000;stroke-width:0.5;" x="416.05171875" xlink:href="#ma4f294b3af" y="334.7325"/>
      </g>
     </g>
    </g>
    <g id="ytick_11">
     <g id="line2d_80">
      <g>
       <use style="stroke:#000000;stroke-width:0.5;" x="64.733625" xlink:href="#mf0c55a9a47" y="304.6875"/>
      </g>
     </g>
     <g id="line2d_81">
      <g>
       <use style="stroke:#000000;stroke-width:0.5;" x="416.05171875" xlink:href="#ma4f294b3af" y="304.6875"/>
      </g>
     </g>
    </g>
    <g id="ytick_12">
     <g id="line2d_82">
      <g>
       <use style="stroke:#000000;stroke-width:0.5;" x="64.733625" xlink:href="#mf0c55a9a47" y="289.665"/>
      </g>
     </g>
     <g id="line2d_83">
      <g>
       <use style="stroke:#000000;stroke-width:0.5;" x="416.05171875" xlink:href="#ma4f294b3af" y="289.665"/>
      </g>
     </g>
    </g>
    <g id="ytick_13">
     <g id="line2d_84">
      <g>
       <use style="stroke:#000000;stroke-width:0.5;" x="64.733625" xlink:href="#mf0c55a9a47" y="274.6425"/>
      </g>
     </g>
     <g id="line2d_85">
      <g>
       <use style="stroke:#000000;stroke-width:0.5;" x="416.05171875" xlink:href="#ma4f294b3af" y="274.6425"/>
      </g>
     </g>
    </g>
    <g id="ytick_14">
     <g id="line2d_86">
      <g>
       <use style="stroke:#000000;stroke-width:0.5;" x="64.733625" xlink:href="#mf0c55a9a47" y="244.5975"/>
      </g>
     </g>
     <g id="line2d_87">
      <g>
       <use style="stroke:#000000;stroke-width:0.5;" x="416.05171875" xlink:href="#ma4f294b3af" y="244.5975"/>
      </g>
     </g>
    </g>
    <g id="ytick_15">
     <g id="line2d_88">
      <g>
       <use style="stroke:#000000;stroke-width:0.5;" x="64.733625" xlink:href="#mf0c55a9a47" y="229.575"/>
      </g>
     </g>
     <g id="line2d_89">
      <g>
       <use style="stroke:#000000;stroke-width:0.5;" x="416.05171875" xlink:href="#ma4f294b3af" y="229.575"/>
      </g>
     </g>
    </g>
    <g id="ytick_16">
     <g id="line2d_90">
      <g>
       <use style="stroke:#000000;stroke-width:0.5;" x="64.733625" xlink:href="#mf0c55a9a47" y="214.5525"/>
      </g>
     </g>
     <g id="line2d_91">
      <g>
       <use style="stroke:#000000;stroke-width:0.5;" x="416.05171875" xlink:href="#ma4f294b3af" y="214.5525"/>
      </g>
     </g>
    </g>
    <g id="ytick_17">
     <g id="line2d_92">
      <g>
       <use style="stroke:#000000;stroke-width:0.5;" x="64.733625" xlink:href="#mf0c55a9a47" y="184.5075"/>
      </g>
     </g>
     <g id="line2d_93">
      <g>
       <use style="stroke:#000000;stroke-width:0.5;" x="416.05171875" xlink:href="#ma4f294b3af" y="184.5075"/>
      </g>
     </g>
    </g>
    <g id="ytick_18">
     <g id="line2d_94">
      <g>
       <use style="stroke:#000000;stroke-width:0.5;" x="64.733625" xlink:href="#mf0c55a9a47" y="169.485"/>
      </g>
     </g>
     <g id="line2d_95">
      <g>
       <use style="stroke:#000000;stroke-width:0.5;" x="416.05171875" xlink:href="#ma4f294b3af" y="169.485"/>
      </g>
     </g>
    </g>
    <g id="ytick_19">
     <g id="line2d_96">
      <g>
       <use style="stroke:#000000;stroke-width:0.5;" x="64.733625" xlink:href="#mf0c55a9a47" y="154.4625"/>
      </g>
     </g>
     <g id="line2d_97">
      <g>
       <use style="stroke:#000000;stroke-width:0.5;" x="416.05171875" xlink:href="#ma4f294b3af" y="154.4625"/>
      </g>
     </g>
    </g>
    <g id="ytick_20">
     <g id="line2d_98">
      <g>
       <use style="stroke:#000000;stroke-width:0.5;" x="64.733625" xlink:href="#mf0c55a9a47" y="124.4175"/>
      </g>
     </g>
     <g id="line2d_99">
      <g>
       <use style="stroke:#000000;stroke-width:0.5;" x="416.05171875" xlink:href="#ma4f294b3af" y="124.4175"/>
      </g>
     </g>
    </g>
    <g id="ytick_21">
     <g id="line2d_100">
      <g>
       <use style="stroke:#000000;stroke-width:0.5;" x="64.733625" xlink:href="#mf0c55a9a47" y="109.395"/>
      </g>
     </g>
     <g id="line2d_101">
      <g>
       <use style="stroke:#000000;stroke-width:0.5;" x="416.05171875" xlink:href="#ma4f294b3af" y="109.395"/>
      </g>
     </g>
    </g>
    <g id="ytick_22">
     <g id="line2d_102">
      <g>
       <use style="stroke:#000000;stroke-width:0.5;" x="64.733625" xlink:href="#mf0c55a9a47" y="94.3725"/>
      </g>
     </g>
     <g id="line2d_103">
      <g>
       <use style="stroke:#000000;stroke-width:0.5;" x="416.05171875" xlink:href="#ma4f294b3af" y="94.3725"/>
      </g>
     </g>
    </g>
    <g id="ytick_23">
     <g id="line2d_104">
      <g>
       <use style="stroke:#000000;stroke-width:0.5;" x="64.733625" xlink:href="#mf0c55a9a47" y="79.35"/>
      </g>
     </g>
     <g id="line2d_105">
      <g>
       <use style="stroke:#000000;stroke-width:0.5;" x="416.05171875" xlink:href="#ma4f294b3af" y="79.35"/>
      </g>
     </g>
    </g>
    <g id="ytick_24">
     <g id="line2d_106">
      <g>
       <use style="stroke:#000000;stroke-width:0.5;" x="64.733625" xlink:href="#mf0c55a9a47" y="64.3275"/>
      </g>
     </g>
     <g id="line2d_107">
      <g>
       <use style="stroke:#000000;stroke-width:0.5;" x="416.05171875" xlink:href="#ma4f294b3af" y="64.3275"/>
      </g>
     </g>
    </g>
    <g id="ytick_25">
     <g id="line2d_108">
      <g>
       <use style="stroke:#000000;stroke-width:0.5;" x="64.733625" xlink:href="#mf0c55a9a47" y="49.305"/>
      </g>
     </g>
     <g id="line2d_109">
      <g>
       <use style="stroke:#000000;stroke-width:0.5;" x="416.05171875" xlink:href="#ma4f294b3af" y="49.305"/>
      </g>
     </g>
    </g>
    <g id="ytick_26">
     <g id="line2d_110">
      <g>
       <use style="stroke:#000000;stroke-width:0.5;" x="64.733625" xlink:href="#mf0c55a9a47" y="34.2825"/>
      </g>
     </g>
     <g id="line2d_111">
      <g>
       <use style="stroke:#000000;stroke-width:0.5;" x="416.05171875" xlink:href="#ma4f294b3af" y="34.2825"/>
      </g>
     </g>
    </g>
    <g id="text_16">
     <!-- $\mathcal{C}_{P}$ -->
     <defs>
      <path d="
M4.89062 0
Q3.90625 0 3.90625 1.3125
Q3.95312 1.5625 4.09375 2.17188
Q4.25 2.78125 4.51562 3.14062
Q4.78125 3.51562 5.17188 3.51562
Q11.2812 3.51562 13.7188 4.20312
Q14.9844 4.64062 15.5781 6.89062
L29.2969 61.8125
Q29.5 62.7969 29.5 63.1875
Q29.5 64.2656 28.3281 64.4062
Q26.4219 64.7969 21.0938 64.7969
Q20.125 64.7969 20.125 66.1094
Q20.1719 66.3594 20.3125 66.9688
Q20.4531 67.5781 20.7188 67.9375
Q21 68.3125 21.3906 68.3125
L55.9062 68.3125
Q60.6406 68.3125 65.0781 66.625
Q69.5312 64.9375 72.3594 61.4688
Q75.2031 58.0156 75.2031 53.0781
Q75.2031 46.7344 70.7344 41.75
Q66.2656 36.7656 59.5938 33.9844
Q52.9375 31.2031 46.6875 31.2031
L30.4219 31.2031
L24.3125 6.5
Q24.125 5.51562 24.125 5.07812
Q24.125 4.6875 24.2344 4.42188
Q24.3594 4.15625 24.5781 4.07812
Q24.8125 4 25.2969 3.90625
Q27.2031 3.51562 32.5156 3.51562
Q33.5 3.51562 33.5 2.20312
Q33.1562 0.78125 32.9531 0.390625
Q32.7656 0 31.7812 0
z

M30.9062 34.1875
L44.9219 34.1875
Q54.6406 34.1875 59.7188 39.4062
Q62.3125 42 63.9375 46.875
Q65.5781 51.7656 65.5781 55.7188
Q65.5781 60.6406 61.8125 62.7188
Q58.0625 64.7969 52.4844 64.7969
L42.9219 64.7969
Q40.1875 64.7969 39.2969 64.3281
Q38.4219 63.875 37.7031 61.375
z
" id="Cmmi10-50"/>
     </defs>
     <g transform="translate(25.418625 205.41)rotate(-90.0)scale(0.12 -0.12)">
      <use transform="translate(0.0 0.484375)" xlink:href="#Cmsy10-43"/>
      <use transform="translate(52.587890625 -25.025)scale(0.7)" xlink:href="#Cmmi10-50"/>
     </g>
    </g>
   </g>
   <g id="patch_3">
    <path d="
M64.7336 19.26
L416.052 19.26" style="fill:none;stroke:#000000;"/>
   </g>
   <g id="patch_4">
    <path d="
M416.052 379.8
L416.052 19.26" style="fill:none;stroke:#000000;"/>
   </g>
   <g id="patch_5">
    <path d="
M64.7336 379.8
L416.052 379.8" style="fill:none;stroke:#000000;"/>
   </g>
   <g id="patch_6">
    <path d="
M64.7336 379.8
L64.7336 19.26" style="fill:none;stroke:#000000;"/>
   </g>
  </g>
 </g>
 <defs>
  <clipPath id="p732ca3aedf">
   <rect height="360.54" width="351.31809375" x="64.733625" y="19.26"/>
  </clipPath>
 </defs>
</svg>
