<?xml version="1.0" encoding="utf-8" standalone="no"?>
<!DOCTYPE svg PUBLIC "-//W3C//DTD SVG 1.1//EN"
  "http://www.w3.org/Graphics/SVG/1.1/DTD/svg11.dtd">
<!-- Created with matplotlib (http://matplotlib.org/) -->
<svg height="432pt" version="1.1" viewBox="0 0 432 432" width="432pt" xmlns="http://www.w3.org/2000/svg" xmlns:xlink="http://www.w3.org/1999/xlink">
 <defs>
  <style type="text/css">
*{stroke-linecap:butt;stroke-linejoin:round;}
  </style>
 </defs>
 <g id="figure_1">
  <g id="patch_1">
   <path d="
M0 432
L432 432
L432 0
L0 0
z
" style="fill:#ffffff;"/>
  </g>
  <g id="axes_1">
   <g id="patch_2">
    <path d="
M102.251 350.91
L409.365 350.91
L409.365 26.91
L102.251 26.91
z
" style="fill:#ffffff;"/>
   </g>
   <g id="PathCollection_1">
    <defs>
     <path d="
M102.251 -81.09
L105.353 -81.09
L108.456 -81.09
L111.558 -81.09
L114.66 -81.09
L117.762 -81.09
L120.864 -81.09
L123.966 -81.09
L127.069 -81.09
L130.171 -81.09
L133.273 -81.09
L136.375 -81.09
L139.477 -81.09
L142.579 -81.09
L145.681 -81.09
L148.784 -81.09
L151.886 -81.09
L154.988 -81.09
L158.09 -81.09
L161.192 -81.09
L164.294 -81.09
L167.397 -81.09
L170.499 -81.09
L173.601 -81.09
L176.703 -81.09
L179.805 -81.09
L182.907 -81.09
L186.01 -81.09
L189.112 -81.09
L192.214 -81.09
L195.316 -81.09
L198.418 -81.09
L201.52 -81.09
L204.623 -81.09
L207.725 -81.09
L210.827 -81.09
L213.929 -81.09
L217.031 -81.09
L220.133 -81.09
L223.235 -81.09
L226.338 -81.09
L229.44 -81.09
L232.542 -81.09
L235.644 -81.09
L238.746 -81.09
L241.848 -81.09
L244.951 -81.09
L248.053 -81.09
L251.155 -81.09
L254.257 -81.09
L257.359 -81.09
L260.461 -81.09
L263.564 -81.09
L266.666 -81.09
L269.768 -81.09
L272.87 -81.09
L275.972 -81.09
L279.074 -81.09
L282.176 -81.09
L285.279 -81.09
L288.381 -81.09
L291.483 -81.09
L294.585 -81.09
L297.687 -81.09
L300.789 -81.09
L303.892 -81.09
L306.994 -81.09
L310.096 -81.09
L313.198 -81.09
L316.3 -81.09
L319.402 -81.09
L322.505 -81.09
L325.607 -81.09
L328.709 -81.09
L331.811 -81.09
L334.913 -81.09
L338.015 -81.09
L341.118 -81.09
L344.22 -81.09
L347.322 -81.09
L350.424 -81.09
L353.526 -81.09
L356.628 -81.09
L359.73 -81.09
L362.833 -81.09
L365.935 -81.09
L369.037 -81.09
L372.139 -81.09
L375.241 -81.09
L378.343 -81.09
L381.446 -81.09
L384.548 -81.09
L387.65 -81.09
L390.752 -81.09
L393.854 -81.09
L396.956 -81.09
L400.059 -81.09
L403.161 -81.09
L406.263 -81.09
L409.365 -81.09
L409.365 -84.3627
L409.365 -87.6355
L409.365 -90.9082
L409.365 -94.1809
L409.365 -97.4536
L409.365 -100.726
L409.365 -103.999
L409.365 -107.272
L409.365 -110.545
L409.365 -113.817
L409.365 -117.09
L409.365 -120.363
L409.365 -123.635
L409.365 -126.908
L409.365 -130.181
L409.365 -133.454
L409.365 -136.726
L409.365 -139.999
L409.365 -143.272
L409.365 -146.545
L409.365 -149.817
L409.365 -153.09
L409.365 -156.363
L409.365 -159.635
L409.365 -162.908
L409.365 -166.181
L409.365 -169.454
L409.365 -172.726
L409.365 -175.999
L409.365 -179.272
L409.365 -182.545
L409.365 -185.817
L409.365 -189.09
L409.365 -192.363
L409.365 -195.635
L409.365 -198.908
L409.365 -202.181
L409.365 -205.454
L409.365 -208.726
L409.365 -211.999
L409.365 -215.272
L409.365 -218.545
L409.365 -221.817
L409.365 -225.09
L409.365 -228.363
L409.365 -231.635
L409.365 -234.908
L409.365 -238.181
L409.365 -241.454
L409.365 -244.726
L409.365 -247.999
L409.365 -251.272
L409.365 -254.545
L409.365 -257.817
L409.365 -261.09
L409.365 -264.363
L409.365 -267.635
L409.365 -270.908
L409.365 -274.181
L409.365 -277.454
L409.365 -280.726
L409.365 -283.999
L409.365 -287.272
L409.365 -290.545
L409.365 -293.817
L409.365 -297.09
L409.365 -300.363
L409.365 -303.635
L409.365 -306.908
L409.365 -310.181
L409.365 -313.454
L409.365 -316.726
L409.365 -319.999
L409.365 -323.272
L409.365 -326.545
L409.365 -329.817
L409.365 -333.09
L409.365 -336.363
L409.365 -339.635
L409.365 -342.908
L409.365 -346.181
L409.365 -349.454
L409.365 -352.726
L409.365 -355.999
L409.365 -359.272
L409.365 -362.545
L409.365 -365.817
L409.365 -369.09
L409.365 -372.363
L409.365 -375.635
L409.365 -378.908
L409.365 -382.181
L409.365 -382.181
L406.263 -385.454
L406.263 -385.454
L403.161 -388.726
L403.161 -388.726
L400.059 -391.999
L400.059 -391.999
L396.956 -395.272
L393.854 -392.238
L393.696 -391.999
L390.752 -391.678
L387.65 -391.125
L387.638 -391.999
L384.548 -395.247
L384.531 -395.272
L381.446 -398.53
L381.435 -398.545
L378.343 -401.817
L378.343 -401.817
L375.241 -405.09
L375.241 -405.09
L372.139 -405.09
L369.037 -405.09
L365.935 -405.09
L362.833 -405.09
L359.73 -405.09
L356.628 -405.09
L353.526 -405.09
L350.424 -405.09
L350.41 -405.09
L350.424 -405.071
L353.526 -405.06
L356.574 -401.817
L356.628 -401.712
L359.572 -398.545
L359.118 -395.272
L356.628 -394.516
L353.526 -395.26
L352.558 -395.272
L350.424 -396
L347.322 -397.157
L344.22 -397.964
L341.118 -398.538
L341.091 -398.545
L338.015 -400.111
L334.913 -401.054
L331.811 -401.664
L330.893 -401.817
L328.709 -403.034
L325.607 -405.069
L325.585 -405.09
L322.505 -405.09
L319.402 -405.09
L316.3 -405.09
L313.198 -405.09
L310.096 -405.09
L306.994 -405.09
L303.892 -405.09
L300.789 -405.09
L297.687 -405.09
L294.585 -405.09
L291.483 -405.09
L288.381 -405.09
L285.279 -405.09
L282.176 -405.09
L279.074 -405.09
L275.972 -405.09
L272.87 -405.09
L269.768 -405.09
L266.666 -405.09
L263.564 -405.09
L260.461 -405.09
L257.359 -405.09
L254.257 -405.09
L251.155 -405.09
L248.053 -405.09
L244.951 -405.09
L241.848 -405.09
L238.746 -405.09
L235.644 -405.09
L232.542 -405.09
L229.44 -405.09
L226.338 -405.09
L223.235 -405.09
L220.133 -405.09
L217.031 -405.09
L213.929 -405.09
L210.827 -405.09
L207.725 -405.09
L204.623 -405.09
L201.52 -405.09
L198.418 -405.09
L195.316 -405.09
L192.214 -405.09
L189.112 -405.09
L186.01 -405.09
L182.907 -405.09
L179.805 -405.09
L176.703 -405.09
L173.601 -405.09
L170.499 -405.09
L167.397 -405.09
L164.294 -405.09
L161.192 -405.09
L158.09 -405.09
L154.988 -405.09
L151.886 -405.09
L148.784 -405.09
L145.681 -405.09
L142.579 -405.09
L139.477 -405.09
L136.375 -405.09
L133.273 -405.09
L130.171 -405.09
L127.069 -405.09
L123.966 -405.09
L120.864 -405.09
L117.762 -405.09
L114.66 -405.09
L111.558 -405.09
L108.456 -405.09
L105.353 -405.09
L102.251 -405.09
L102.251 -401.817
L102.251 -398.545
L102.251 -395.272
L102.251 -391.999
L102.251 -388.726
L102.251 -385.454
L102.251 -382.181
L102.251 -378.908
L102.251 -375.635
L102.251 -372.363
L102.251 -369.09
L102.251 -365.817
L102.251 -362.545
L102.251 -359.272
L102.251 -355.999
L102.251 -352.726
L102.251 -349.454
L102.251 -346.181
L102.251 -342.908
L102.251 -339.635
L102.251 -336.363
L102.251 -333.09
L102.251 -329.817
L102.251 -326.545
L102.251 -323.272
L102.251 -319.999
L102.251 -316.726
L102.251 -313.454
L102.251 -310.181
L102.251 -306.908
L102.251 -303.635
L102.251 -300.363
L102.251 -297.09
L102.251 -293.817
L102.251 -290.545
L102.251 -287.272
L102.251 -283.999
L102.251 -280.726
L102.251 -277.454
L102.251 -274.181
L102.251 -270.908
L102.251 -267.635
L102.251 -264.363
L102.251 -261.09
L102.251 -257.817
L102.251 -254.545
L102.251 -251.272
L102.251 -247.999
L102.251 -244.726
L102.251 -241.454
L102.251 -238.181
L102.251 -234.908
L102.251 -231.635
L102.251 -228.363
L102.251 -225.09
L102.251 -221.817
L102.251 -218.545
L102.251 -215.272
L102.251 -211.999
L102.251 -208.726
L102.251 -205.454
L102.251 -202.181
L102.251 -198.908
L102.251 -195.635
L102.251 -192.363
L102.251 -189.09
L102.251 -185.817
L102.251 -182.545
L102.251 -179.272
L102.251 -175.999
L102.251 -172.726
L102.251 -169.454
L102.251 -166.181
L102.251 -162.908
L102.251 -159.635
L102.251 -156.363
L102.251 -153.09
L102.251 -149.817
L102.251 -146.545
L102.251 -143.272
L102.251 -139.999
L102.251 -136.726
L102.251 -133.454
L102.251 -130.181
L102.251 -126.908
L102.251 -123.635
L102.251 -120.363
L102.251 -117.09
L102.251 -113.817
L102.251 -110.545
L102.251 -107.272
L102.251 -103.999
L102.251 -100.726
L102.251 -97.4536
L102.251 -94.1809
L102.251 -90.9082
L102.251 -87.6355
L102.251 -84.3627
L102.251 -81.09
M334.913 -119.849
L332.093 -120.363
L331.811 -120.408
L328.709 -121.199
L325.607 -122.201
L322.505 -123.286
L321.448 -123.635
L319.402 -124.225
L316.3 -125.001
L313.198 -125.654
L310.096 -126.222
L306.994 -126.787
L306.393 -126.908
L303.892 -127.429
L300.789 -128.204
L297.687 -129.064
L294.585 -129.882
L292.911 -130.181
L291.483 -130.42
L288.381 -130.605
L285.279 -130.506
L282.176 -130.269
L281.135 -130.181
L279.074 -129.99
L275.972 -129.757
L272.87 -129.663
L269.768 -129.733
L266.666 -130.004
L265.605 -130.181
L263.564 -130.47
L260.461 -131.151
L257.359 -132.127
L254.304 -133.454
L254.257 -133.472
L251.155 -135.007
L248.485 -136.726
L248.053 -136.995
L244.951 -139.291
L244.11 -139.999
L241.848 -141.934
L240.368 -143.272
L238.746 -144.786
L236.784 -146.545
L235.644 -147.596
L232.962 -149.817
L232.542 -150.178
L229.44 -152.544
L228.659 -153.09
L226.338 -154.914
L224.71 -156.363
L223.235 -157.842
L221.713 -159.635
L220.133 -161.661
L219.259 -162.908
L217.031 -165.992
L216.895 -166.181
L214.256 -169.454
L213.929 -169.826
L210.987 -172.726
L210.827 -172.868
L207.725 -174.999
L205.81 -175.999
L204.623 -176.544
L201.52 -177.494
L198.418 -178.209
L195.316 -178.827
L193.106 -179.272
L192.214 -179.429
L189.112 -180.016
L186.01 -180.686
L182.907 -181.459
L179.805 -182.336
L179.151 -182.545
L176.703 -183.248
L173.601 -184.329
L170.499 -185.713
L170.306 -185.817
L167.397 -187.28
L164.618 -189.09
L164.294 -189.288
L161.192 -191.509
L160.168 -192.363
L158.09 -194.055
L156.319 -195.635
L154.988 -196.829
L152.763 -198.908
L151.886 -199.766
L149.502 -202.181
L148.784 -202.995
L146.717 -205.454
L145.681 -206.949
L144.514 -208.726
L142.815 -211.999
L142.579 -212.541
L141.385 -215.272
L140.17 -218.545
L139.477 -220.597
L139.03 -221.817
L137.828 -225.09
L136.685 -228.363
L136.375 -229.232
L135.418 -231.635
L134.249 -234.908
L133.273 -238.176
L133.271 -238.181
L132.373 -241.454
L131.689 -244.726
L131.182 -247.999
L130.746 -251.272
L130.321 -254.545
L130.171 -255.655
L129.84 -257.817
L129.33 -261.09
L128.85 -264.363
L128.424 -267.635
L128.07 -270.908
L127.764 -274.181
L127.51 -277.454
L127.248 -280.726
L127.069 -282.865
L126.955 -283.999
L126.601 -287.272
L126.238 -290.545
L125.899 -293.817
L125.607 -297.09
L125.408 -300.363
L125.316 -303.635
L125.352 -306.908
L125.532 -310.181
L125.871 -313.454
L126.386 -316.726
L127.069 -319.869
L127.094 -319.999
L127.823 -323.272
L128.685 -326.545
L129.653 -329.817
L130.171 -331.491
L130.619 -333.09
L131.539 -336.363
L132.487 -339.635
L133.273 -342.285
L133.445 -342.908
L134.342 -346.181
L135.347 -349.454
L136.375 -352.39
L136.492 -352.726
L137.859 -355.999
L139.477 -358.956
L139.665 -359.272
L142.07 -362.545
L142.579 -363.123
L145.229 -365.817
L145.681 -366.232
L148.784 -368.894
L149.019 -369.09
L151.886 -371.488
L152.974 -372.363
L154.988 -374
L157.202 -375.635
L158.09 -376.288
L161.192 -378.088
L163.275 -378.908
L164.294 -379.289
L167.397 -379.931
L170.499 -380.098
L173.601 -379.893
L176.703 -379.389
L178.713 -378.908
L179.805 -378.664
L182.907 -377.781
L186.01 -376.705
L188.612 -375.635
L189.112 -375.434
L192.214 -374.036
L195.316 -372.402
L195.385 -372.363
L198.418 -370.616
L200.801 -369.09
L201.52 -368.628
L204.623 -366.567
L205.751 -365.817
L207.725 -364.547
L210.827 -362.744
L211.236 -362.545
L213.929 -361.339
L217.031 -360.221
L220.133 -359.33
L220.367 -359.272
L223.235 -358.663
L226.338 -358.06
L229.44 -357.466
L232.542 -356.851
L235.644 -356.217
L236.684 -355.999
L238.746 -355.622
L241.848 -355.031
L244.951 -354.412
L248.053 -353.702
L251.155 -352.859
L251.584 -352.726
L254.257 -351.97
L257.359 -350.918
L260.461 -349.654
L260.897 -349.454
L263.564 -348.335
L266.666 -346.752
L267.611 -346.181
L269.768 -344.951
L272.602 -342.908
L272.87 -342.718
L275.972 -340.1
L276.449 -339.635
L279.074 -336.913
L279.564 -336.363
L282.176 -333.217
L282.281 -333.09
L284.946 -329.817
L285.279 -329.412
L287.786 -326.545
L288.381 -325.902
L290.964 -323.272
L291.483 -322.773
L294.432 -319.999
L294.585 -319.858
L297.687 -317.049
L298.049 -316.726
L300.789 -314.305
L301.834 -313.454
L303.892 -311.842
L306.42 -310.181
L306.994 -309.831
L310.096 -308.431
L313.198 -307.383
L315.001 -306.908
L316.3 -306.601
L319.402 -305.955
L322.505 -305.312
L325.607 -304.675
L328.709 -304.066
L331.522 -303.635
L331.811 -303.589
L334.913 -303.242
L338.015 -302.963
L341.118 -302.465
L344.22 -301.095
L345.036 -300.363
L347.322 -297.158
L347.356 -297.09
L349.299 -293.817
L350.424 -292.395
L351.934 -290.545
L353.526 -289.108
L355.547 -287.272
L356.628 -286.416
L359.154 -283.999
L359.73 -283.426
L361.746 -280.726
L362.833 -279.087
L363.705 -277.454
L365.407 -274.181
L365.935 -273.191
L367.138 -270.908
L368.916 -267.635
L369.037 -267.414
L370.915 -264.363
L372.139 -262.112
L372.76 -261.09
L374.249 -257.817
L375.123 -254.545
L375.241 -253.696
L375.591 -251.272
L375.874 -247.999
L376.196 -244.726
L376.707 -241.454
L377.412 -238.181
L378.196 -234.908
L378.343 -234.269
L379.044 -231.635
L379.716 -228.363
L380.111 -225.09
L380.255 -221.817
L380.223 -218.545
L380.122 -215.272
L380.061 -211.999
L380.156 -208.726
L380.394 -205.454
L380.739 -202.181
L381.097 -198.908
L381.446 -195.635
L381.446 -195.635
L381.748 -192.363
L381.908 -189.09
L381.924 -185.817
L381.818 -182.545
L381.669 -179.272
L381.555 -175.999
L381.572 -172.726
L381.761 -169.454
L382.072 -166.181
L382.398 -162.908
L382.625 -159.635
L382.653 -156.363
L382.386 -153.09
L381.67 -149.817
L381.446 -149.22
L380.352 -146.545
L378.343 -143.37
L378.272 -143.272
L375.305 -139.999
L375.241 -139.933
L372.139 -137.087
L371.69 -136.726
L369.037 -134.277
L368.038 -133.454
L365.935 -131.23
L364.768 -130.181
L362.833 -127.985
L361.523 -126.908
L359.73 -125.356
L356.628 -123.774
L356.285 -123.635
L353.526 -122.615
L350.424 -121.701
L347.322 -120.932
L344.483 -120.363
L344.22 -120.309
L341.118 -119.835
L338.015 -119.663
L334.913 -119.849
M403.161 -349.14
L402.561 -349.454
L400.477 -352.726
L400.059 -353.06
L398.386 -355.999
L400.059 -359.272
L403.161 -355.999
L403.161 -355.999
L406.263 -355.999
L409.365 -352.726
L407.514 -349.454
L406.263 -349.373
L403.161 -349.14" id="C0_0_0ffd6d4069"/>
    </defs>
    <g clip-path="url(#pdec9723c13)">
     <use style="fill:#ffffff;" x="0.0" xlink:href="#C0_0_0ffd6d4069" y="432.0"/>
    </g>
   </g>
   <g id="PathCollection_2">
    <defs>
     <path d="
M334.913 -119.849
L338.015 -119.663
L341.118 -119.835
L344.22 -120.309
L344.483 -120.363
L347.322 -120.932
L350.424 -121.701
L353.526 -122.615
L356.285 -123.635
L356.628 -123.774
L359.73 -125.356
L361.523 -126.908
L362.833 -127.985
L364.768 -130.181
L365.935 -131.23
L368.038 -133.454
L369.037 -134.277
L371.69 -136.726
L372.139 -137.087
L375.241 -139.933
L375.305 -139.999
L378.272 -143.272
L378.343 -143.37
L380.352 -146.545
L381.446 -149.22
L381.67 -149.817
L382.386 -153.09
L382.653 -156.363
L382.625 -159.635
L382.398 -162.908
L382.072 -166.181
L381.761 -169.454
L381.572 -172.726
L381.555 -175.999
L381.669 -179.272
L381.818 -182.545
L381.924 -185.817
L381.908 -189.09
L381.748 -192.363
L381.446 -195.635
L381.446 -195.635
L381.097 -198.908
L380.739 -202.181
L380.394 -205.454
L380.156 -208.726
L380.061 -211.999
L380.122 -215.272
L380.223 -218.545
L380.255 -221.817
L380.111 -225.09
L379.716 -228.363
L379.044 -231.635
L378.343 -234.269
L378.196 -234.908
L377.412 -238.181
L376.707 -241.454
L376.196 -244.726
L375.874 -247.999
L375.591 -251.272
L375.241 -253.696
L375.123 -254.545
L374.249 -257.817
L372.76 -261.09
L372.139 -262.112
L370.915 -264.363
L369.037 -267.414
L368.916 -267.635
L367.138 -270.908
L365.935 -273.191
L365.407 -274.181
L363.705 -277.454
L362.833 -279.087
L361.746 -280.726
L359.73 -283.426
L359.154 -283.999
L356.628 -286.416
L355.547 -287.272
L353.526 -289.108
L351.934 -290.545
L350.424 -292.395
L349.299 -293.817
L347.356 -297.09
L347.322 -297.158
L345.036 -300.363
L344.22 -301.095
L341.118 -302.465
L338.015 -302.963
L334.913 -303.242
L331.811 -303.589
L331.522 -303.635
L328.709 -304.066
L325.607 -304.675
L322.505 -305.312
L319.402 -305.955
L316.3 -306.601
L315.001 -306.908
L313.198 -307.383
L310.096 -308.431
L306.994 -309.831
L306.42 -310.181
L303.892 -311.842
L301.834 -313.454
L300.789 -314.305
L298.049 -316.726
L297.687 -317.049
L294.585 -319.858
L294.432 -319.999
L291.483 -322.773
L290.964 -323.272
L288.381 -325.902
L287.786 -326.545
L285.279 -329.412
L284.946 -329.817
L282.281 -333.09
L282.176 -333.217
L279.564 -336.363
L279.074 -336.913
L276.449 -339.635
L275.972 -340.1
L272.87 -342.718
L272.602 -342.908
L269.768 -344.951
L267.611 -346.181
L266.666 -346.752
L263.564 -348.335
L260.897 -349.454
L260.461 -349.654
L257.359 -350.918
L254.257 -351.97
L251.584 -352.726
L251.155 -352.859
L248.053 -353.702
L244.951 -354.412
L241.848 -355.031
L238.746 -355.622
L236.684 -355.999
L235.644 -356.217
L232.542 -356.851
L229.44 -357.466
L226.338 -358.06
L223.235 -358.663
L220.367 -359.272
L220.133 -359.33
L217.031 -360.221
L213.929 -361.339
L211.236 -362.545
L210.827 -362.744
L207.725 -364.547
L205.751 -365.817
L204.623 -366.567
L201.52 -368.628
L200.801 -369.09
L198.418 -370.616
L195.385 -372.363
L195.316 -372.402
L192.214 -374.036
L189.112 -375.434
L188.612 -375.635
L186.01 -376.705
L182.907 -377.781
L179.805 -378.664
L178.713 -378.908
L176.703 -379.389
L173.601 -379.893
L170.499 -380.098
L167.397 -379.931
L164.294 -379.289
L163.275 -378.908
L161.192 -378.088
L158.09 -376.288
L157.202 -375.635
L154.988 -374
L152.974 -372.363
L151.886 -371.488
L149.019 -369.09
L148.784 -368.894
L145.681 -366.232
L145.229 -365.817
L142.579 -363.123
L142.07 -362.545
L139.665 -359.272
L139.477 -358.956
L137.859 -355.999
L136.492 -352.726
L136.375 -352.39
L135.347 -349.454
L134.342 -346.181
L133.445 -342.908
L133.273 -342.285
L132.487 -339.635
L131.539 -336.363
L130.619 -333.09
L130.171 -331.491
L129.653 -329.817
L128.685 -326.545
L127.823 -323.272
L127.094 -319.999
L127.069 -319.869
L126.386 -316.726
L125.871 -313.454
L125.532 -310.181
L125.352 -306.908
L125.316 -303.635
L125.408 -300.363
L125.607 -297.09
L125.899 -293.817
L126.238 -290.545
L126.601 -287.272
L126.955 -283.999
L127.069 -282.865
L127.248 -280.726
L127.51 -277.454
L127.764 -274.181
L128.07 -270.908
L128.424 -267.635
L128.85 -264.363
L129.33 -261.09
L129.84 -257.817
L130.171 -255.655
L130.321 -254.545
L130.746 -251.272
L131.182 -247.999
L131.689 -244.726
L132.373 -241.454
L133.271 -238.181
L133.273 -238.176
L134.249 -234.908
L135.418 -231.635
L136.375 -229.232
L136.685 -228.363
L137.828 -225.09
L139.03 -221.817
L139.477 -220.597
L140.17 -218.545
L141.385 -215.272
L142.579 -212.541
L142.815 -211.999
L144.514 -208.726
L145.681 -206.949
L146.717 -205.454
L148.784 -202.995
L149.502 -202.181
L151.886 -199.766
L152.763 -198.908
L154.988 -196.829
L156.319 -195.635
L158.09 -194.055
L160.168 -192.363
L161.192 -191.509
L164.294 -189.288
L164.618 -189.09
L167.397 -187.28
L170.306 -185.817
L170.499 -185.713
L173.601 -184.329
L176.703 -183.248
L179.151 -182.545
L179.805 -182.336
L182.907 -181.459
L186.01 -180.686
L189.112 -180.016
L192.214 -179.429
L193.106 -179.272
L195.316 -178.827
L198.418 -178.209
L201.52 -177.494
L204.623 -176.544
L205.81 -175.999
L207.725 -174.999
L210.827 -172.868
L210.987 -172.726
L213.929 -169.826
L214.256 -169.454
L216.895 -166.181
L217.031 -165.992
L219.259 -162.908
L220.133 -161.661
L221.713 -159.635
L223.235 -157.842
L224.71 -156.363
L226.338 -154.914
L228.659 -153.09
L229.44 -152.544
L232.542 -150.178
L232.962 -149.817
L235.644 -147.596
L236.784 -146.545
L238.746 -144.786
L240.368 -143.272
L241.848 -141.934
L244.11 -139.999
L244.951 -139.291
L248.053 -136.995
L248.485 -136.726
L251.155 -135.007
L254.257 -133.472
L254.304 -133.454
L257.359 -132.127
L260.461 -131.151
L263.564 -130.47
L265.605 -130.181
L266.666 -130.004
L269.768 -129.733
L272.87 -129.663
L275.972 -129.757
L279.074 -129.99
L281.135 -130.181
L282.176 -130.269
L285.279 -130.506
L288.381 -130.605
L291.483 -130.42
L292.911 -130.181
L294.585 -129.882
L297.687 -129.064
L300.789 -128.204
L303.892 -127.429
L306.393 -126.908
L306.994 -126.787
L310.096 -126.222
L313.198 -125.654
L316.3 -125.001
L319.402 -124.225
L321.448 -123.635
L322.505 -123.286
L325.607 -122.201
L328.709 -121.199
L331.811 -120.408
L332.093 -120.363
L334.913 -119.849
M263.564 -162.558
L262.102 -162.908
L260.461 -163.298
L257.359 -164.582
L254.68 -166.181
L254.257 -166.432
L251.155 -168.76
L250.366 -169.454
L248.053 -171.494
L246.789 -172.726
L244.951 -174.539
L243.583 -175.999
L241.848 -177.919
L240.711 -179.272
L238.746 -181.788
L238.188 -182.545
L235.973 -185.817
L235.644 -186.339
L233.95 -189.09
L232.542 -191.535
L232.051 -192.363
L230.11 -195.635
L229.44 -196.728
L227.969 -198.908
L226.338 -201.261
L225.602 -202.181
L223.235 -205.096
L222.894 -205.454
L220.133 -208.409
L219.78 -208.726
L217.031 -211.36
L216.2 -211.999
L213.929 -213.912
L211.819 -215.272
L210.827 -216.014
L207.725 -217.642
L204.916 -218.545
L204.623 -218.668
L201.52 -219.245
L198.418 -219.47
L195.316 -219.683
L192.214 -220.182
L189.112 -221.037
L187.034 -221.817
L186.01 -222.224
L182.907 -223.62
L179.873 -225.09
L179.805 -225.123
L176.703 -226.937
L174.685 -228.363
L173.601 -229.182
L171.064 -231.635
L170.499 -232.228
L168.454 -234.908
L167.397 -236.4
L166.359 -238.181
L164.598 -241.454
L164.294 -242.054
L163.162 -244.726
L161.901 -247.999
L161.192 -250
L160.795 -251.272
L159.832 -254.545
L158.929 -257.817
L158.09 -261.006
L158.069 -261.09
L157.266 -264.363
L156.526 -267.635
L155.844 -270.908
L155.269 -274.181
L154.988 -276.157
L154.809 -277.454
L154.475 -280.726
L154.267 -283.999
L154.176 -287.272
L154.178 -290.545
L154.25 -293.817
L154.367 -297.09
L154.517 -300.363
L154.701 -303.635
L154.968 -306.908
L154.988 -307.054
L155.416 -310.181
L156.117 -313.454
L157.156 -316.726
L158.09 -318.941
L158.58 -319.999
L160.435 -323.272
L161.192 -324.443
L162.776 -326.545
L164.294 -328.388
L165.794 -329.817
L167.397 -331.253
L170.463 -333.09
L170.499 -333.11
L173.601 -334.085
L176.703 -334.32
L179.805 -333.973
L182.907 -333.18
L183.152 -333.09
L186.01 -332.072
L189.112 -330.693
L190.81 -329.817
L192.214 -329.111
L195.316 -327.399
L196.771 -326.545
L198.418 -325.601
L201.52 -323.798
L202.475 -323.272
L204.623 -322.094
L207.725 -320.611
L209.509 -319.999
L210.827 -319.535
L213.929 -319.021
L217.031 -319.072
L220.133 -319.577
L221.861 -319.999
L223.235 -320.307
L226.338 -321.049
L229.44 -321.68
L232.542 -322.111
L235.644 -322.365
L238.746 -322.426
L241.848 -322.328
L244.951 -322.062
L248.053 -321.615
L251.155 -320.941
L254.257 -319.999
L254.257 -319.999
L257.359 -318.72
L260.461 -316.969
L260.803 -316.726
L263.564 -314.766
L265.104 -313.454
L266.666 -312.13
L268.735 -310.181
L269.768 -309.213
L272.1 -306.908
L272.87 -306.129
L275.256 -303.635
L275.972 -302.827
L278.067 -300.363
L279.074 -299.002
L280.43 -297.09
L282.176 -294.018
L282.289 -293.817
L283.842 -290.545
L285.14 -287.272
L285.279 -286.898
L286.4 -283.999
L287.649 -280.726
L288.381 -278.845
L288.982 -277.454
L290.47 -274.181
L291.483 -272.079
L292.16 -270.908
L294.15 -267.635
L294.585 -266.945
L296.647 -264.363
L297.687 -263.029
L299.581 -261.09
L300.789 -259.79
L302.971 -257.817
L303.892 -256.807
L306.267 -254.545
L306.994 -253.749
L309.711 -251.272
L310.096 -250.9
L313.198 -248.814
L315.634 -247.999
L316.3 -247.803
L319.402 -247.723
L321.207 -247.999
L322.505 -248.196
L325.607 -248.706
L328.709 -248.963
L331.811 -248.674
L334.059 -247.999
L334.913 -247.744
L338.015 -246.144
L339.97 -244.726
L341.118 -243.863
L343.631 -241.454
L344.22 -240.843
L346.36 -238.181
L347.322 -236.828
L348.491 -234.908
L350.101 -231.635
L350.424 -230.731
L351.144 -228.363
L351.739 -225.09
L352.001 -221.817
L352.029 -218.545
L351.914 -215.272
L351.723 -211.999
L351.507 -208.726
L351.312 -205.454
L351.2 -202.181
L351.214 -198.908
L351.332 -195.635
L351.466 -192.363
L351.48 -189.09
L351.263 -185.817
L350.763 -182.545
L350.424 -181.092
L349.975 -179.272
L348.887 -175.999
L347.519 -172.726
L347.322 -172.327
L345.566 -169.454
L344.22 -167.684
L342.577 -166.181
L341.118 -165.068
L338.015 -163.718
L334.913 -163.242
L331.811 -163.475
L328.709 -164.298
L325.607 -165.568
L324.451 -166.181
L322.505 -167.213
L319.402 -169.025
L318.661 -169.454
L316.3 -170.832
L313.198 -172.493
L312.678 -172.726
L310.096 -173.929
L306.994 -175.098
L303.892 -175.831
L300.789 -175.922
L297.687 -175.207
L294.585 -173.803
L292.763 -172.726
L291.483 -172.051
L288.381 -170.249
L287.049 -169.454
L285.279 -168.466
L282.176 -166.801
L280.914 -166.181
L279.074 -165.301
L275.972 -164.041
L272.87 -163.096
L271.873 -162.908
L269.768 -162.502
L266.666 -162.306
L263.564 -162.558" id="C1_0_49e4442d2a"/>
    </defs>
    <g clip-path="url(#pdec9723c13)">
     <use style="fill:#0000ff;fill-opacity:0.5;" x="0.0" xlink:href="#C1_0_49e4442d2a" y="432.0"/>
    </g>
   </g>
   <g id="PathCollection_3">
    <defs>
     <path d="
M263.564 -162.558
L266.666 -162.306
L269.768 -162.502
L271.873 -162.908
L272.87 -163.096
L275.972 -164.041
L279.074 -165.301
L280.914 -166.181
L282.176 -166.801
L285.279 -168.466
L287.049 -169.454
L288.381 -170.249
L291.483 -172.051
L292.763 -172.726
L294.585 -173.803
L297.687 -175.207
L300.789 -175.922
L303.892 -175.831
L306.994 -175.098
L310.096 -173.929
L312.678 -172.726
L313.198 -172.493
L316.3 -170.832
L318.661 -169.454
L319.402 -169.025
L322.505 -167.213
L324.451 -166.181
L325.607 -165.568
L328.709 -164.298
L331.811 -163.475
L334.913 -163.242
L338.015 -163.718
L341.118 -165.068
L342.577 -166.181
L344.22 -167.684
L345.566 -169.454
L347.322 -172.327
L347.519 -172.726
L348.887 -175.999
L349.975 -179.272
L350.424 -181.092
L350.763 -182.545
L351.263 -185.817
L351.48 -189.09
L351.466 -192.363
L351.332 -195.635
L351.214 -198.908
L351.2 -202.181
L351.312 -205.454
L351.507 -208.726
L351.723 -211.999
L351.914 -215.272
L352.029 -218.545
L352.001 -221.817
L351.739 -225.09
L351.144 -228.363
L350.424 -230.731
L350.101 -231.635
L348.491 -234.908
L347.322 -236.828
L346.36 -238.181
L344.22 -240.843
L343.631 -241.454
L341.118 -243.863
L339.97 -244.726
L338.015 -246.144
L334.913 -247.744
L334.059 -247.999
L331.811 -248.674
L328.709 -248.963
L325.607 -248.706
L322.505 -248.196
L321.207 -247.999
L319.402 -247.723
L316.3 -247.803
L315.634 -247.999
L313.198 -248.814
L310.096 -250.9
L309.711 -251.272
L306.994 -253.749
L306.267 -254.545
L303.892 -256.807
L302.971 -257.817
L300.789 -259.79
L299.581 -261.09
L297.687 -263.029
L296.647 -264.363
L294.585 -266.945
L294.15 -267.635
L292.16 -270.908
L291.483 -272.079
L290.47 -274.181
L288.982 -277.454
L288.381 -278.845
L287.649 -280.726
L286.4 -283.999
L285.279 -286.898
L285.14 -287.272
L283.842 -290.545
L282.289 -293.817
L282.176 -294.018
L280.43 -297.09
L279.074 -299.002
L278.067 -300.363
L275.972 -302.827
L275.256 -303.635
L272.87 -306.129
L272.1 -306.908
L269.768 -309.213
L268.735 -310.181
L266.666 -312.13
L265.104 -313.454
L263.564 -314.766
L260.803 -316.726
L260.461 -316.969
L257.359 -318.72
L254.257 -319.999
L254.257 -319.999
L251.155 -320.941
L248.053 -321.615
L244.951 -322.062
L241.848 -322.328
L238.746 -322.426
L235.644 -322.365
L232.542 -322.111
L229.44 -321.68
L226.338 -321.049
L223.235 -320.307
L221.861 -319.999
L220.133 -319.577
L217.031 -319.072
L213.929 -319.021
L210.827 -319.535
L209.509 -319.999
L207.725 -320.611
L204.623 -322.094
L202.475 -323.272
L201.52 -323.798
L198.418 -325.601
L196.771 -326.545
L195.316 -327.399
L192.214 -329.111
L190.81 -329.817
L189.112 -330.693
L186.01 -332.072
L183.152 -333.09
L182.907 -333.18
L179.805 -333.973
L176.703 -334.32
L173.601 -334.085
L170.499 -333.11
L170.463 -333.09
L167.397 -331.253
L165.794 -329.817
L164.294 -328.388
L162.776 -326.545
L161.192 -324.443
L160.435 -323.272
L158.58 -319.999
L158.09 -318.941
L157.156 -316.726
L156.117 -313.454
L155.416 -310.181
L154.988 -307.054
L154.968 -306.908
L154.701 -303.635
L154.517 -300.363
L154.367 -297.09
L154.25 -293.817
L154.178 -290.545
L154.176 -287.272
L154.267 -283.999
L154.475 -280.726
L154.809 -277.454
L154.988 -276.157
L155.269 -274.181
L155.844 -270.908
L156.526 -267.635
L157.266 -264.363
L158.069 -261.09
L158.09 -261.006
L158.929 -257.817
L159.832 -254.545
L160.795 -251.272
L161.192 -250
L161.901 -247.999
L163.162 -244.726
L164.294 -242.054
L164.598 -241.454
L166.359 -238.181
L167.397 -236.4
L168.454 -234.908
L170.499 -232.228
L171.064 -231.635
L173.601 -229.182
L174.685 -228.363
L176.703 -226.937
L179.805 -225.123
L179.873 -225.09
L182.907 -223.62
L186.01 -222.224
L187.034 -221.817
L189.112 -221.037
L192.214 -220.182
L195.316 -219.683
L198.418 -219.47
L201.52 -219.245
L204.623 -218.668
L204.916 -218.545
L207.725 -217.642
L210.827 -216.014
L211.819 -215.272
L213.929 -213.912
L216.2 -211.999
L217.031 -211.36
L219.78 -208.726
L220.133 -208.409
L222.894 -205.454
L223.235 -205.096
L225.602 -202.181
L226.338 -201.261
L227.969 -198.908
L229.44 -196.728
L230.11 -195.635
L232.051 -192.363
L232.542 -191.535
L233.95 -189.09
L235.644 -186.339
L235.973 -185.817
L238.188 -182.545
L238.746 -181.788
L240.711 -179.272
L241.848 -177.919
L243.583 -175.999
L244.951 -174.539
L246.789 -172.726
L248.053 -171.494
L250.366 -169.454
L251.155 -168.76
L254.257 -166.432
L254.68 -166.181
L257.359 -164.582
L260.461 -163.298
L262.102 -162.908
L263.564 -162.558" id="C2_0_a2f71200c7"/>
    </defs>
    <g clip-path="url(#pdec9723c13)">
     <use style="fill:#0000ff;" x="0.0" xlink:href="#C2_0_a2f71200c7" y="432.0"/>
    </g>
   </g>
   <g id="line2d_1">
    <path clip-path="url(#pdec9723c13)" d="
M255.808 188.91" style="fill:none;stroke:#fa8072;stroke-linecap:square;"/>
    <defs>
     <path d="
M-7.5 0
L7.5 0
M0 7.5
L0 -7.5" id="m415119b0dc" style="stroke:#fa8072;stroke-width:3;"/>
    </defs>
    <g clip-path="url(#pdec9723c13)">
     <use style="fill:#fa8072;stroke:#fa8072;stroke-width:3;" x="255.808125" xlink:href="#m415119b0dc" y="188.91"/>
    </g>
   </g>
   <g id="matplotlib.axis_1">
    <g id="xtick_1">
     <g id="line2d_2">
      <path clip-path="url(#pdec9723c13)" d="
M102.251 350.91
L102.251 26.91" style="fill:none;stroke:#000000;stroke-dasharray:1.000000,3.000000;stroke-dashoffset:0.0;stroke-width:0.5;"/>
     </g>
     <g id="line2d_3">
      <defs>
       <path d="
M0 0
L0 -4" id="m93b0483c22" style="stroke:#000000;stroke-width:0.5;"/>
      </defs>
      <g>
       <use style="stroke:#000000;stroke-width:0.5;" x="102.25125" xlink:href="#m93b0483c22" y="350.91"/>
      </g>
     </g>
     <g id="line2d_4">
      <defs>
       <path d="
M0 0
L0 4" id="m741efc42ff" style="stroke:#000000;stroke-width:0.5;"/>
      </defs>
      <g>
       <use style="stroke:#000000;stroke-width:0.5;" x="102.25125" xlink:href="#m741efc42ff" y="26.91"/>
      </g>
     </g>
     <g id="text_1">
      <!-- −6 -->
      <defs>
       <path d="
M33.0156 40.375
Q26.375 40.375 22.4844 35.8281
Q18.6094 31.2969 18.6094 23.3906
Q18.6094 15.5312 22.4844 10.9531
Q26.375 6.39062 33.0156 6.39062
Q39.6562 6.39062 43.5312 10.9531
Q47.4062 15.5312 47.4062 23.3906
Q47.4062 31.2969 43.5312 35.8281
Q39.6562 40.375 33.0156 40.375
M52.5938 71.2969
L52.5938 62.3125
Q48.875 64.0625 45.0938 64.9844
Q41.3125 65.9219 37.5938 65.9219
Q27.8281 65.9219 22.6719 59.3281
Q17.5312 52.7344 16.7969 39.4062
Q19.6719 43.6562 24.0156 45.9219
Q28.375 48.1875 33.5938 48.1875
Q44.5781 48.1875 50.9531 41.5156
Q57.3281 34.8594 57.3281 23.3906
Q57.3281 12.1562 50.6875 5.35938
Q44.0469 -1.42188 33.0156 -1.42188
Q20.3594 -1.42188 13.6719 8.26562
Q6.98438 17.9688 6.98438 36.375
Q6.98438 53.6562 15.1875 63.9375
Q23.3906 74.2188 37.2031 74.2188
Q40.9219 74.2188 44.7031 73.4844
Q48.4844 72.75 52.5938 71.2969" id="DejaVuSans-36"/>
       <path d="
M10.5938 35.5
L73.1875 35.5
L73.1875 27.2031
L10.5938 27.2031
z
" id="DejaVuSans-2212"/>
      </defs>
      <g transform="translate(91.15609375 367.82734375)scale(0.17 -0.17)">
       <use xlink:href="#DejaVuSans-2212"/>
       <use x="83.7890625" xlink:href="#DejaVuSans-36"/>
      </g>
     </g>
    </g>
    <g id="xtick_2">
     <g id="line2d_5">
      <path clip-path="url(#pdec9723c13)" d="
M153.437 350.91
L153.437 26.91" style="fill:none;stroke:#000000;stroke-dasharray:1.000000,3.000000;stroke-dashoffset:0.0;stroke-width:0.5;"/>
     </g>
     <g id="line2d_6">
      <g>
       <use style="stroke:#000000;stroke-width:0.5;" x="153.436875" xlink:href="#m93b0483c22" y="350.91"/>
      </g>
     </g>
     <g id="line2d_7">
      <g>
       <use style="stroke:#000000;stroke-width:0.5;" x="153.436875" xlink:href="#m741efc42ff" y="26.91"/>
      </g>
     </g>
     <g id="text_2">
      <!-- −4 -->
      <defs>
       <path d="
M37.7969 64.3125
L12.8906 25.3906
L37.7969 25.3906
z

M35.2031 72.9062
L47.6094 72.9062
L47.6094 25.3906
L58.0156 25.3906
L58.0156 17.1875
L47.6094 17.1875
L47.6094 0
L37.7969 0
L37.7969 17.1875
L4.89062 17.1875
L4.89062 26.7031
z
" id="DejaVuSans-34"/>
      </defs>
      <g transform="translate(142.28328125 367.82734375)scale(0.17 -0.17)">
       <use xlink:href="#DejaVuSans-2212"/>
       <use x="83.7890625" xlink:href="#DejaVuSans-34"/>
      </g>
     </g>
    </g>
    <g id="xtick_3">
     <g id="line2d_8">
      <path clip-path="url(#pdec9723c13)" d="
M204.623 350.91
L204.623 26.91" style="fill:none;stroke:#000000;stroke-dasharray:1.000000,3.000000;stroke-dashoffset:0.0;stroke-width:0.5;"/>
     </g>
     <g id="line2d_9">
      <g>
       <use style="stroke:#000000;stroke-width:0.5;" x="204.6225" xlink:href="#m93b0483c22" y="350.91"/>
      </g>
     </g>
     <g id="line2d_10">
      <g>
       <use style="stroke:#000000;stroke-width:0.5;" x="204.6225" xlink:href="#m741efc42ff" y="26.91"/>
      </g>
     </g>
     <g id="text_3">
      <!-- −2 -->
      <defs>
       <path d="
M19.1875 8.29688
L53.6094 8.29688
L53.6094 0
L7.32812 0
L7.32812 8.29688
Q12.9375 14.1094 22.625 23.8906
Q32.3281 33.6875 34.8125 36.5312
Q39.5469 41.8438 41.4219 45.5312
Q43.3125 49.2188 43.3125 52.7812
Q43.3125 58.5938 39.2344 62.25
Q35.1562 65.9219 28.6094 65.9219
Q23.9688 65.9219 18.8125 64.3125
Q13.6719 62.7031 7.8125 59.4219
L7.8125 69.3906
Q13.7656 71.7812 18.9375 73
Q24.125 74.2188 28.4219 74.2188
Q39.75 74.2188 46.4844 68.5469
Q53.2188 62.8906 53.2188 53.4219
Q53.2188 48.9219 51.5312 44.8906
Q49.8594 40.875 45.4062 35.4062
Q44.1875 33.9844 37.6406 27.2188
Q31.1094 20.4531 19.1875 8.29688" id="DejaVuSans-32"/>
      </defs>
      <g transform="translate(193.8434375 367.82734375)scale(0.17 -0.17)">
       <use xlink:href="#DejaVuSans-2212"/>
       <use x="83.7890625" xlink:href="#DejaVuSans-32"/>
      </g>
     </g>
    </g>
    <g id="xtick_4">
     <g id="line2d_11">
      <path clip-path="url(#pdec9723c13)" d="
M255.808 350.91
L255.808 26.91" style="fill:none;stroke:#000000;stroke-dasharray:1.000000,3.000000;stroke-dashoffset:0.0;stroke-width:0.5;"/>
     </g>
     <g id="line2d_12">
      <g>
       <use style="stroke:#000000;stroke-width:0.5;" x="255.808125" xlink:href="#m93b0483c22" y="350.91"/>
      </g>
     </g>
     <g id="line2d_13">
      <g>
       <use style="stroke:#000000;stroke-width:0.5;" x="255.808125" xlink:href="#m741efc42ff" y="26.91"/>
      </g>
     </g>
     <g id="text_4">
      <!-- 0 -->
      <defs>
       <path d="
M31.7812 66.4062
Q24.1719 66.4062 20.3281 58.9062
Q16.5 51.4219 16.5 36.375
Q16.5 21.3906 20.3281 13.8906
Q24.1719 6.39062 31.7812 6.39062
Q39.4531 6.39062 43.2812 13.8906
Q47.125 21.3906 47.125 36.375
Q47.125 51.4219 43.2812 58.9062
Q39.4531 66.4062 31.7812 66.4062
M31.7812 74.2188
Q44.0469 74.2188 50.5156 64.5156
Q56.9844 54.8281 56.9844 36.375
Q56.9844 17.9688 50.5156 8.26562
Q44.0469 -1.42188 31.7812 -1.42188
Q19.5312 -1.42188 13.0625 8.26562
Q6.59375 17.9688 6.59375 36.375
Q6.59375 54.8281 13.0625 64.5156
Q19.5312 74.2188 31.7812 74.2188" id="DejaVuSans-30"/>
      </defs>
      <g transform="translate(251.524921875 367.82734375)scale(0.17 -0.17)">
       <use xlink:href="#DejaVuSans-30"/>
      </g>
     </g>
    </g>
    <g id="xtick_5">
     <g id="line2d_14">
      <path clip-path="url(#pdec9723c13)" d="
M306.994 350.91
L306.994 26.91" style="fill:none;stroke:#000000;stroke-dasharray:1.000000,3.000000;stroke-dashoffset:0.0;stroke-width:0.5;"/>
     </g>
     <g id="line2d_15">
      <g>
       <use style="stroke:#000000;stroke-width:0.5;" x="306.99375" xlink:href="#m93b0483c22" y="350.91"/>
      </g>
     </g>
     <g id="line2d_16">
      <g>
       <use style="stroke:#000000;stroke-width:0.5;" x="306.99375" xlink:href="#m741efc42ff" y="26.91"/>
      </g>
     </g>
     <g id="text_5">
      <!-- 2 -->
      <g transform="translate(303.05984375 367.82734375)scale(0.17 -0.17)">
       <use xlink:href="#DejaVuSans-32"/>
      </g>
     </g>
    </g>
    <g id="xtick_6">
     <g id="line2d_17">
      <path clip-path="url(#pdec9723c13)" d="
M358.179 350.91
L358.179 26.91" style="fill:none;stroke:#000000;stroke-dasharray:1.000000,3.000000;stroke-dashoffset:0.0;stroke-width:0.5;"/>
     </g>
     <g id="line2d_18">
      <g>
       <use style="stroke:#000000;stroke-width:0.5;" x="358.179375" xlink:href="#m93b0483c22" y="350.91"/>
      </g>
     </g>
     <g id="line2d_19">
      <g>
       <use style="stroke:#000000;stroke-width:0.5;" x="358.179375" xlink:href="#m741efc42ff" y="26.91"/>
      </g>
     </g>
     <g id="text_6">
      <!-- 4 -->
      <g transform="translate(353.66375 367.82734375)scale(0.17 -0.17)">
       <use xlink:href="#DejaVuSans-34"/>
      </g>
     </g>
    </g>
    <g id="xtick_7">
     <g id="line2d_20">
      <path clip-path="url(#pdec9723c13)" d="
M409.365 350.91
L409.365 26.91" style="fill:none;stroke:#000000;stroke-dasharray:1.000000,3.000000;stroke-dashoffset:0.0;stroke-width:0.5;"/>
     </g>
     <g id="line2d_21">
      <g>
       <use style="stroke:#000000;stroke-width:0.5;" x="409.365" xlink:href="#m93b0483c22" y="350.91"/>
      </g>
     </g>
     <g id="line2d_22">
      <g>
       <use style="stroke:#000000;stroke-width:0.5;" x="409.365" xlink:href="#m741efc42ff" y="26.91"/>
      </g>
     </g>
     <g id="text_7">
      <!-- 6 -->
      <g transform="translate(405.08578125 367.82734375)scale(0.17 -0.17)">
       <use xlink:href="#DejaVuSans-36"/>
      </g>
     </g>
    </g>
    <g id="xtick_8">
     <g id="line2d_23">
      <defs>
       <path d="
M0 0
L0 -2" id="m177f7580d0" style="stroke:#000000;stroke-width:0.5;"/>
      </defs>
      <g>
       <use style="stroke:#000000;stroke-width:0.5;" x="115.04765625" xlink:href="#m177f7580d0" y="350.91"/>
      </g>
     </g>
     <g id="line2d_24">
      <defs>
       <path d="
M0 0
L0 2" id="m5284c7e2a0" style="stroke:#000000;stroke-width:0.5;"/>
      </defs>
      <g>
       <use style="stroke:#000000;stroke-width:0.5;" x="115.04765625" xlink:href="#m5284c7e2a0" y="26.91"/>
      </g>
     </g>
    </g>
    <g id="xtick_9">
     <g id="line2d_25">
      <g>
       <use style="stroke:#000000;stroke-width:0.5;" x="127.8440625" xlink:href="#m177f7580d0" y="350.91"/>
      </g>
     </g>
     <g id="line2d_26">
      <g>
       <use style="stroke:#000000;stroke-width:0.5;" x="127.8440625" xlink:href="#m5284c7e2a0" y="26.91"/>
      </g>
     </g>
    </g>
    <g id="xtick_10">
     <g id="line2d_27">
      <g>
       <use style="stroke:#000000;stroke-width:0.5;" x="140.64046875" xlink:href="#m177f7580d0" y="350.91"/>
      </g>
     </g>
     <g id="line2d_28">
      <g>
       <use style="stroke:#000000;stroke-width:0.5;" x="140.64046875" xlink:href="#m5284c7e2a0" y="26.91"/>
      </g>
     </g>
    </g>
    <g id="xtick_11">
     <g id="line2d_29">
      <g>
       <use style="stroke:#000000;stroke-width:0.5;" x="166.23328125" xlink:href="#m177f7580d0" y="350.91"/>
      </g>
     </g>
     <g id="line2d_30">
      <g>
       <use style="stroke:#000000;stroke-width:0.5;" x="166.23328125" xlink:href="#m5284c7e2a0" y="26.91"/>
      </g>
     </g>
    </g>
    <g id="xtick_12">
     <g id="line2d_31">
      <g>
       <use style="stroke:#000000;stroke-width:0.5;" x="179.0296875" xlink:href="#m177f7580d0" y="350.91"/>
      </g>
     </g>
     <g id="line2d_32">
      <g>
       <use style="stroke:#000000;stroke-width:0.5;" x="179.0296875" xlink:href="#m5284c7e2a0" y="26.91"/>
      </g>
     </g>
    </g>
    <g id="xtick_13">
     <g id="line2d_33">
      <g>
       <use style="stroke:#000000;stroke-width:0.5;" x="191.82609375" xlink:href="#m177f7580d0" y="350.91"/>
      </g>
     </g>
     <g id="line2d_34">
      <g>
       <use style="stroke:#000000;stroke-width:0.5;" x="191.82609375" xlink:href="#m5284c7e2a0" y="26.91"/>
      </g>
     </g>
    </g>
    <g id="xtick_14">
     <g id="line2d_35">
      <g>
       <use style="stroke:#000000;stroke-width:0.5;" x="217.41890625" xlink:href="#m177f7580d0" y="350.91"/>
      </g>
     </g>
     <g id="line2d_36">
      <g>
       <use style="stroke:#000000;stroke-width:0.5;" x="217.41890625" xlink:href="#m5284c7e2a0" y="26.91"/>
      </g>
     </g>
    </g>
    <g id="xtick_15">
     <g id="line2d_37">
      <g>
       <use style="stroke:#000000;stroke-width:0.5;" x="230.2153125" xlink:href="#m177f7580d0" y="350.91"/>
      </g>
     </g>
     <g id="line2d_38">
      <g>
       <use style="stroke:#000000;stroke-width:0.5;" x="230.2153125" xlink:href="#m5284c7e2a0" y="26.91"/>
      </g>
     </g>
    </g>
    <g id="xtick_16">
     <g id="line2d_39">
      <g>
       <use style="stroke:#000000;stroke-width:0.5;" x="243.01171875" xlink:href="#m177f7580d0" y="350.91"/>
      </g>
     </g>
     <g id="line2d_40">
      <g>
       <use style="stroke:#000000;stroke-width:0.5;" x="243.01171875" xlink:href="#m5284c7e2a0" y="26.91"/>
      </g>
     </g>
    </g>
    <g id="xtick_17">
     <g id="line2d_41">
      <g>
       <use style="stroke:#000000;stroke-width:0.5;" x="268.60453125" xlink:href="#m177f7580d0" y="350.91"/>
      </g>
     </g>
     <g id="line2d_42">
      <g>
       <use style="stroke:#000000;stroke-width:0.5;" x="268.60453125" xlink:href="#m5284c7e2a0" y="26.91"/>
      </g>
     </g>
    </g>
    <g id="xtick_18">
     <g id="line2d_43">
      <g>
       <use style="stroke:#000000;stroke-width:0.5;" x="281.4009375" xlink:href="#m177f7580d0" y="350.91"/>
      </g>
     </g>
     <g id="line2d_44">
      <g>
       <use style="stroke:#000000;stroke-width:0.5;" x="281.4009375" xlink:href="#m5284c7e2a0" y="26.91"/>
      </g>
     </g>
    </g>
    <g id="xtick_19">
     <g id="line2d_45">
      <g>
       <use style="stroke:#000000;stroke-width:0.5;" x="294.19734375" xlink:href="#m177f7580d0" y="350.91"/>
      </g>
     </g>
     <g id="line2d_46">
      <g>
       <use style="stroke:#000000;stroke-width:0.5;" x="294.19734375" xlink:href="#m5284c7e2a0" y="26.91"/>
      </g>
     </g>
    </g>
    <g id="xtick_20">
     <g id="line2d_47">
      <g>
       <use style="stroke:#000000;stroke-width:0.5;" x="319.79015625" xlink:href="#m177f7580d0" y="350.91"/>
      </g>
     </g>
     <g id="line2d_48">
      <g>
       <use style="stroke:#000000;stroke-width:0.5;" x="319.79015625" xlink:href="#m5284c7e2a0" y="26.91"/>
      </g>
     </g>
    </g>
    <g id="xtick_21">
     <g id="line2d_49">
      <g>
       <use style="stroke:#000000;stroke-width:0.5;" x="332.5865625" xlink:href="#m177f7580d0" y="350.91"/>
      </g>
     </g>
     <g id="line2d_50">
      <g>
       <use style="stroke:#000000;stroke-width:0.5;" x="332.5865625" xlink:href="#m5284c7e2a0" y="26.91"/>
      </g>
     </g>
    </g>
    <g id="xtick_22">
     <g id="line2d_51">
      <g>
       <use style="stroke:#000000;stroke-width:0.5;" x="345.38296875" xlink:href="#m177f7580d0" y="350.91"/>
      </g>
     </g>
     <g id="line2d_52">
      <g>
       <use style="stroke:#000000;stroke-width:0.5;" x="345.38296875" xlink:href="#m5284c7e2a0" y="26.91"/>
      </g>
     </g>
    </g>
    <g id="xtick_23">
     <g id="line2d_53">
      <g>
       <use style="stroke:#000000;stroke-width:0.5;" x="370.97578125" xlink:href="#m177f7580d0" y="350.91"/>
      </g>
     </g>
     <g id="line2d_54">
      <g>
       <use style="stroke:#000000;stroke-width:0.5;" x="370.97578125" xlink:href="#m5284c7e2a0" y="26.91"/>
      </g>
     </g>
    </g>
    <g id="xtick_24">
     <g id="line2d_55">
      <g>
       <use style="stroke:#000000;stroke-width:0.5;" x="383.7721875" xlink:href="#m177f7580d0" y="350.91"/>
      </g>
     </g>
     <g id="line2d_56">
      <g>
       <use style="stroke:#000000;stroke-width:0.5;" x="383.7721875" xlink:href="#m5284c7e2a0" y="26.91"/>
      </g>
     </g>
    </g>
    <g id="xtick_25">
     <g id="line2d_57">
      <g>
       <use style="stroke:#000000;stroke-width:0.5;" x="396.56859375" xlink:href="#m177f7580d0" y="350.91"/>
      </g>
     </g>
     <g id="line2d_58">
      <g>
       <use style="stroke:#000000;stroke-width:0.5;" x="396.56859375" xlink:href="#m5284c7e2a0" y="26.91"/>
      </g>
     </g>
    </g>
    <g id="text_8">
     <!-- $\mathcal{C}_{10}^{\prime}$ -->
     <defs>
      <path d="
M3.51562 5.42188
Q2.875 5.60938 2.875 6.39062
L15.0938 51.8125
Q15.6719 53.6562 17.0781 54.7812
Q18.5 55.9062 20.3125 55.9062
Q22.6562 55.9062 24.4375 54.3594
Q26.2188 52.8281 26.2188 50.4844
Q26.2188 49.4688 25.6875 48.1875
L7.625 4.98438
Q7.28125 4.29688 6.6875 4.29688
Q6.15625 4.29688 5 4.78125
Q3.85938 5.28125 3.51562 5.42188" id="Cmsy10-30"/>
      <path d="
M9.28125 0
L9.28125 3.51562
Q21.7812 3.51562 21.7812 6.6875
L21.7812 59.1875
Q16.6094 56.6875 8.6875 56.6875
L8.6875 60.2031
Q20.9531 60.2031 27.2031 66.6094
L28.6094 66.6094
Q28.9531 66.6094 29.2656 66.3281
Q29.5938 66.0625 29.5938 65.7188
L29.5938 6.6875
Q29.5938 3.51562 42.0938 3.51562
L42.0938 0
z
" id="Cmr10-31"/>
      <path d="
M25 -2.20312
Q12.75 -2.20312 8.32812 7.875
Q3.90625 17.9688 3.90625 31.8906
Q3.90625 40.5781 5.48438 48.2344
Q7.07812 55.9062 11.7812 61.25
Q16.5 66.6094 25 66.6094
Q31.5938 66.6094 35.7812 63.375
Q39.9844 60.1562 42.1875 55.0469
Q44.3906 49.9531 45.1875 44.1094
Q46 38.2812 46 31.8906
Q46 23.2969 44.4062 15.7969
Q42.8281 8.29688 38.1875 3.04688
Q33.5469 -2.20312 25 -2.20312
M25 0.390625
Q30.5625 0.390625 33.2969 6.09375
Q36.0312 11.8125 36.6719 18.75
Q37.3125 25.6875 37.3125 33.5
Q37.3125 41.0156 36.6719 47.3594
Q36.0312 53.7188 33.3125 58.8594
Q30.6094 64.0156 25 64.0156
Q19.3438 64.0156 16.6094 58.8281
Q13.875 53.6562 13.2344 47.3281
Q12.5938 41.0156 12.5938 33.5
Q12.5938 27.9375 12.8594 23
Q13.1406 18.0625 14.3125 12.8125
Q15.4844 7.5625 18.0938 3.96875
Q20.7031 0.390625 25 0.390625" id="Cmr10-30"/>
      <path d="
M19.6719 -2.39062
Q14.9375 -2.39062 11.4375 -0.5625
Q7.95312 1.26562 5.64062 4.5625
Q3.32812 7.85938 2.26562 11.8125
Q1.21875 15.7656 1.21875 20.3125
Q1.21875 29.25 4.51562 38.3594
Q7.8125 47.4688 13.7656 54.7188
Q19.7344 61.9688 27.9062 66.2344
Q36.0781 70.5156 45.5156 70.5156
L46.0938 70.5156
Q49.3594 70.5156 51.3906 68.8438
Q53.4219 67.1875 53.4219 64.0156
Q53.4219 61.2344 51.8125 57.4688
Q50.2031 53.7188 47.9062 49.6094
Q46.8281 47.7969 44.6562 46.4844
Q42.4844 45.1719 40.1875 44.9219
L39.7031 44.9219
Q39.0156 45.2656 39.0156 45.6094
Q39.0156 46.0469 40.5938 49.1719
Q42.1875 52.2969 43.3281 55.0469
Q44.4844 57.8125 44.4844 59.8125
Q44.4844 62.25 42.9375 63.4219
Q41.4062 64.5938 38.8125 64.5938
Q31.4531 64.5938 26.4375 61.0781
Q21.4375 57.5625 17.3906 50.6875
Q14.0156 44.875 12.0625 38.1094
Q10.1094 31.3438 10.1094 24.6094
Q10.1094 19.0938 11.8594 14.2344
Q13.625 9.375 17.4219 6.4375
Q21.2344 3.51562 27 3.51562
Q33.0625 3.51562 37.7969 8.01562
Q38.4219 8.6875 40.4062 11.2969
Q42.3906 13.9219 44.0938 15.1406
Q45.7969 16.3594 48.4844 16.6094
L49.0312 16.6094
Q49.7031 16.2656 49.7031 15.8281
Q49.7031 15.4375 49.4219 14.9844
Q46.5781 10.2969 41.7969 6.29688
Q37.0156 2.29688 31.2969 -0.046875
Q25.5938 -2.39062 20.3125 -2.39062
z
" id="Cmsy10-43"/>
     </defs>
     <g transform="translate(237.358125 401.8628125)scale(0.3 -0.3)">
      <use transform="translate(0.0 0.859375)" xlink:href="#Cmsy10-43"/>
      <use transform="translate(52.587890625 45.865625)scale(0.7)" xlink:href="#Cmsy10-30"/>
      <use transform="translate(52.587890625 -24.65)scale(0.7)" xlink:href="#Cmr10-31"/>
      <use transform="translate(87.587890625 -24.65)scale(0.7)" xlink:href="#Cmr10-30"/>
     </g>
    </g>
   </g>
   <g id="matplotlib.axis_2">
    <g id="ytick_1">
     <g id="text_9">
      <!-- −0.6 -->
      <defs>
       <path d="
M10.6875 12.4062
L21 12.4062
L21 0
L10.6875 0
z
" id="DejaVuSans-2e"/>
      </defs>
      <g transform="translate(59.841875 355.6009375)scale(0.17 -0.17)">
       <use xlink:href="#DejaVuSans-2212"/>
       <use x="83.7890625" xlink:href="#DejaVuSans-30"/>
       <use x="147.412109375" xlink:href="#DejaVuSans-2e"/>
       <use x="179.19921875" xlink:href="#DejaVuSans-36"/>
      </g>
     </g>
    </g>
    <g id="ytick_2">
     <g id="line2d_59">
      <path clip-path="url(#pdec9723c13)" d="
M102.251 296.91
L409.365 296.91" style="fill:none;stroke:#000000;stroke-dasharray:1.000000,3.000000;stroke-dashoffset:0.0;stroke-width:0.5;"/>
     </g>
     <g id="line2d_60">
      <defs>
       <path d="
M0 0
L4 0" id="m728421d6d4" style="stroke:#000000;stroke-width:0.5;"/>
      </defs>
      <g>
       <use style="stroke:#000000;stroke-width:0.5;" x="102.25125" xlink:href="#m728421d6d4" y="296.91"/>
      </g>
     </g>
     <g id="line2d_61">
      <defs>
       <path d="
M0 0
L-4 0" id="mcb0005524f" style="stroke:#000000;stroke-width:0.5;"/>
      </defs>
      <g>
       <use style="stroke:#000000;stroke-width:0.5;" x="409.365" xlink:href="#mcb0005524f" y="296.91"/>
      </g>
     </g>
     <g id="text_10">
      <!-- −0.4 -->
      <g transform="translate(59.725 301.6009375)scale(0.17 -0.17)">
       <use xlink:href="#DejaVuSans-2212"/>
       <use x="83.7890625" xlink:href="#DejaVuSans-30"/>
       <use x="147.412109375" xlink:href="#DejaVuSans-2e"/>
       <use x="179.19921875" xlink:href="#DejaVuSans-34"/>
      </g>
     </g>
    </g>
    <g id="ytick_3">
     <g id="line2d_62">
      <path clip-path="url(#pdec9723c13)" d="
M102.251 242.91
L409.365 242.91" style="fill:none;stroke:#000000;stroke-dasharray:1.000000,3.000000;stroke-dashoffset:0.0;stroke-width:0.5;"/>
     </g>
     <g id="line2d_63">
      <g>
       <use style="stroke:#000000;stroke-width:0.5;" x="102.25125" xlink:href="#m728421d6d4" y="242.91"/>
      </g>
     </g>
     <g id="line2d_64">
      <g>
       <use style="stroke:#000000;stroke-width:0.5;" x="409.365" xlink:href="#mcb0005524f" y="242.91"/>
      </g>
     </g>
     <g id="text_11">
      <!-- −0.2 -->
      <g transform="translate(60.4740625 247.6009375)scale(0.17 -0.17)">
       <use xlink:href="#DejaVuSans-2212"/>
       <use x="83.7890625" xlink:href="#DejaVuSans-30"/>
       <use x="147.412109375" xlink:href="#DejaVuSans-2e"/>
       <use x="179.19921875" xlink:href="#DejaVuSans-32"/>
      </g>
     </g>
    </g>
    <g id="ytick_4">
     <g id="line2d_65">
      <path clip-path="url(#pdec9723c13)" d="
M102.251 188.91
L409.365 188.91" style="fill:none;stroke:#000000;stroke-dasharray:1.000000,3.000000;stroke-dashoffset:0.0;stroke-width:0.5;"/>
     </g>
     <g id="line2d_66">
      <g>
       <use style="stroke:#000000;stroke-width:0.5;" x="102.25125" xlink:href="#m728421d6d4" y="188.91"/>
      </g>
     </g>
     <g id="line2d_67">
      <g>
       <use style="stroke:#000000;stroke-width:0.5;" x="409.365" xlink:href="#mcb0005524f" y="188.91"/>
      </g>
     </g>
     <g id="text_12">
      <!-- 0.0 -->
      <g transform="translate(73.46578125 193.6009375)scale(0.17 -0.17)">
       <use xlink:href="#DejaVuSans-30"/>
       <use x="63.623046875" xlink:href="#DejaVuSans-2e"/>
       <use x="95.41015625" xlink:href="#DejaVuSans-30"/>
      </g>
     </g>
    </g>
    <g id="ytick_5">
     <g id="line2d_68">
      <path clip-path="url(#pdec9723c13)" d="
M102.251 134.91
L409.365 134.91" style="fill:none;stroke:#000000;stroke-dasharray:1.000000,3.000000;stroke-dashoffset:0.0;stroke-width:0.5;"/>
     </g>
     <g id="line2d_69">
      <g>
       <use style="stroke:#000000;stroke-width:0.5;" x="102.25125" xlink:href="#m728421d6d4" y="134.91"/>
      </g>
     </g>
     <g id="line2d_70">
      <g>
       <use style="stroke:#000000;stroke-width:0.5;" x="409.365" xlink:href="#mcb0005524f" y="134.91"/>
      </g>
     </g>
     <g id="text_13">
      <!-- 0.2 -->
      <g transform="translate(74.03953125 139.6009375)scale(0.17 -0.17)">
       <use xlink:href="#DejaVuSans-30"/>
       <use x="63.623046875" xlink:href="#DejaVuSans-2e"/>
       <use x="95.41015625" xlink:href="#DejaVuSans-32"/>
      </g>
     </g>
    </g>
    <g id="ytick_6">
     <g id="line2d_71">
      <path clip-path="url(#pdec9723c13)" d="
M102.251 80.91
L409.365 80.91" style="fill:none;stroke:#000000;stroke-dasharray:1.000000,3.000000;stroke-dashoffset:0.0;stroke-width:0.5;"/>
     </g>
     <g id="line2d_72">
      <g>
       <use style="stroke:#000000;stroke-width:0.5;" x="102.25125" xlink:href="#m728421d6d4" y="80.91"/>
      </g>
     </g>
     <g id="line2d_73">
      <g>
       <use style="stroke:#000000;stroke-width:0.5;" x="409.365" xlink:href="#mcb0005524f" y="80.91"/>
      </g>
     </g>
     <g id="text_14">
      <!-- 0.4 -->
      <g transform="translate(73.29046875 85.6009375)scale(0.17 -0.17)">
       <use xlink:href="#DejaVuSans-30"/>
       <use x="63.623046875" xlink:href="#DejaVuSans-2e"/>
       <use x="95.41015625" xlink:href="#DejaVuSans-34"/>
      </g>
     </g>
    </g>
    <g id="ytick_7">
     <g id="text_15">
      <!-- 0.6 -->
      <g transform="translate(73.40734375 31.6009375)scale(0.17 -0.17)">
       <use xlink:href="#DejaVuSans-30"/>
       <use x="63.623046875" xlink:href="#DejaVuSans-2e"/>
       <use x="95.41015625" xlink:href="#DejaVuSans-36"/>
      </g>
     </g>
    </g>
    <g id="ytick_8">
     <g id="line2d_74">
      <defs>
       <path d="
M0 0
L2 0" id="mf0c55a9a47" style="stroke:#000000;stroke-width:0.5;"/>
      </defs>
      <g>
       <use style="stroke:#000000;stroke-width:0.5;" x="102.25125" xlink:href="#mf0c55a9a47" y="337.41"/>
      </g>
     </g>
     <g id="line2d_75">
      <defs>
       <path d="
M0 0
L-2 0" id="ma4f294b3af" style="stroke:#000000;stroke-width:0.5;"/>
      </defs>
      <g>
       <use style="stroke:#000000;stroke-width:0.5;" x="409.365" xlink:href="#ma4f294b3af" y="337.41"/>
      </g>
     </g>
    </g>
    <g id="ytick_9">
     <g id="line2d_76">
      <g>
       <use style="stroke:#000000;stroke-width:0.5;" x="102.25125" xlink:href="#mf0c55a9a47" y="323.91"/>
      </g>
     </g>
     <g id="line2d_77">
      <g>
       <use style="stroke:#000000;stroke-width:0.5;" x="409.365" xlink:href="#ma4f294b3af" y="323.91"/>
      </g>
     </g>
    </g>
    <g id="ytick_10">
     <g id="line2d_78">
      <g>
       <use style="stroke:#000000;stroke-width:0.5;" x="102.25125" xlink:href="#mf0c55a9a47" y="310.41"/>
      </g>
     </g>
     <g id="line2d_79">
      <g>
       <use style="stroke:#000000;stroke-width:0.5;" x="409.365" xlink:href="#ma4f294b3af" y="310.41"/>
      </g>
     </g>
    </g>
    <g id="ytick_11">
     <g id="line2d_80">
      <g>
       <use style="stroke:#000000;stroke-width:0.5;" x="102.25125" xlink:href="#mf0c55a9a47" y="283.41"/>
      </g>
     </g>
     <g id="line2d_81">
      <g>
       <use style="stroke:#000000;stroke-width:0.5;" x="409.365" xlink:href="#ma4f294b3af" y="283.41"/>
      </g>
     </g>
    </g>
    <g id="ytick_12">
     <g id="line2d_82">
      <g>
       <use style="stroke:#000000;stroke-width:0.5;" x="102.25125" xlink:href="#mf0c55a9a47" y="269.91"/>
      </g>
     </g>
     <g id="line2d_83">
      <g>
       <use style="stroke:#000000;stroke-width:0.5;" x="409.365" xlink:href="#ma4f294b3af" y="269.91"/>
      </g>
     </g>
    </g>
    <g id="ytick_13">
     <g id="line2d_84">
      <g>
       <use style="stroke:#000000;stroke-width:0.5;" x="102.25125" xlink:href="#mf0c55a9a47" y="256.41"/>
      </g>
     </g>
     <g id="line2d_85">
      <g>
       <use style="stroke:#000000;stroke-width:0.5;" x="409.365" xlink:href="#ma4f294b3af" y="256.41"/>
      </g>
     </g>
    </g>
    <g id="ytick_14">
     <g id="line2d_86">
      <g>
       <use style="stroke:#000000;stroke-width:0.5;" x="102.25125" xlink:href="#mf0c55a9a47" y="229.41"/>
      </g>
     </g>
     <g id="line2d_87">
      <g>
       <use style="stroke:#000000;stroke-width:0.5;" x="409.365" xlink:href="#ma4f294b3af" y="229.41"/>
      </g>
     </g>
    </g>
    <g id="ytick_15">
     <g id="line2d_88">
      <g>
       <use style="stroke:#000000;stroke-width:0.5;" x="102.25125" xlink:href="#mf0c55a9a47" y="215.91"/>
      </g>
     </g>
     <g id="line2d_89">
      <g>
       <use style="stroke:#000000;stroke-width:0.5;" x="409.365" xlink:href="#ma4f294b3af" y="215.91"/>
      </g>
     </g>
    </g>
    <g id="ytick_16">
     <g id="line2d_90">
      <g>
       <use style="stroke:#000000;stroke-width:0.5;" x="102.25125" xlink:href="#mf0c55a9a47" y="202.41"/>
      </g>
     </g>
     <g id="line2d_91">
      <g>
       <use style="stroke:#000000;stroke-width:0.5;" x="409.365" xlink:href="#ma4f294b3af" y="202.41"/>
      </g>
     </g>
    </g>
    <g id="ytick_17">
     <g id="line2d_92">
      <g>
       <use style="stroke:#000000;stroke-width:0.5;" x="102.25125" xlink:href="#mf0c55a9a47" y="175.41"/>
      </g>
     </g>
     <g id="line2d_93">
      <g>
       <use style="stroke:#000000;stroke-width:0.5;" x="409.365" xlink:href="#ma4f294b3af" y="175.41"/>
      </g>
     </g>
    </g>
    <g id="ytick_18">
     <g id="line2d_94">
      <g>
       <use style="stroke:#000000;stroke-width:0.5;" x="102.25125" xlink:href="#mf0c55a9a47" y="161.91"/>
      </g>
     </g>
     <g id="line2d_95">
      <g>
       <use style="stroke:#000000;stroke-width:0.5;" x="409.365" xlink:href="#ma4f294b3af" y="161.91"/>
      </g>
     </g>
    </g>
    <g id="ytick_19">
     <g id="line2d_96">
      <g>
       <use style="stroke:#000000;stroke-width:0.5;" x="102.25125" xlink:href="#mf0c55a9a47" y="148.41"/>
      </g>
     </g>
     <g id="line2d_97">
      <g>
       <use style="stroke:#000000;stroke-width:0.5;" x="409.365" xlink:href="#ma4f294b3af" y="148.41"/>
      </g>
     </g>
    </g>
    <g id="ytick_20">
     <g id="line2d_98">
      <g>
       <use style="stroke:#000000;stroke-width:0.5;" x="102.25125" xlink:href="#mf0c55a9a47" y="121.41"/>
      </g>
     </g>
     <g id="line2d_99">
      <g>
       <use style="stroke:#000000;stroke-width:0.5;" x="409.365" xlink:href="#ma4f294b3af" y="121.41"/>
      </g>
     </g>
    </g>
    <g id="ytick_21">
     <g id="line2d_100">
      <g>
       <use style="stroke:#000000;stroke-width:0.5;" x="102.25125" xlink:href="#mf0c55a9a47" y="107.91"/>
      </g>
     </g>
     <g id="line2d_101">
      <g>
       <use style="stroke:#000000;stroke-width:0.5;" x="409.365" xlink:href="#ma4f294b3af" y="107.91"/>
      </g>
     </g>
    </g>
    <g id="ytick_22">
     <g id="line2d_102">
      <g>
       <use style="stroke:#000000;stroke-width:0.5;" x="102.25125" xlink:href="#mf0c55a9a47" y="94.41"/>
      </g>
     </g>
     <g id="line2d_103">
      <g>
       <use style="stroke:#000000;stroke-width:0.5;" x="409.365" xlink:href="#ma4f294b3af" y="94.41"/>
      </g>
     </g>
    </g>
    <g id="ytick_23">
     <g id="line2d_104">
      <g>
       <use style="stroke:#000000;stroke-width:0.5;" x="102.25125" xlink:href="#mf0c55a9a47" y="80.91"/>
      </g>
     </g>
     <g id="line2d_105">
      <g>
       <use style="stroke:#000000;stroke-width:0.5;" x="409.365" xlink:href="#ma4f294b3af" y="80.91"/>
      </g>
     </g>
    </g>
    <g id="ytick_24">
     <g id="line2d_106">
      <g>
       <use style="stroke:#000000;stroke-width:0.5;" x="102.25125" xlink:href="#mf0c55a9a47" y="67.41"/>
      </g>
     </g>
     <g id="line2d_107">
      <g>
       <use style="stroke:#000000;stroke-width:0.5;" x="409.365" xlink:href="#ma4f294b3af" y="67.41"/>
      </g>
     </g>
    </g>
    <g id="ytick_25">
     <g id="line2d_108">
      <g>
       <use style="stroke:#000000;stroke-width:0.5;" x="102.25125" xlink:href="#mf0c55a9a47" y="53.91"/>
      </g>
     </g>
     <g id="line2d_109">
      <g>
       <use style="stroke:#000000;stroke-width:0.5;" x="409.365" xlink:href="#ma4f294b3af" y="53.91"/>
      </g>
     </g>
    </g>
    <g id="ytick_26">
     <g id="line2d_110">
      <g>
       <use style="stroke:#000000;stroke-width:0.5;" x="102.25125" xlink:href="#mf0c55a9a47" y="40.41"/>
      </g>
     </g>
     <g id="line2d_111">
      <g>
       <use style="stroke:#000000;stroke-width:0.5;" x="409.365" xlink:href="#ma4f294b3af" y="40.41"/>
      </g>
     </g>
    </g>
    <g id="text_16">
     <!-- $\mathcal{C}_{P}^{\prime}$ -->
     <defs>
      <path d="
M4.89062 0
Q3.90625 0 3.90625 1.3125
Q3.95312 1.5625 4.09375 2.17188
Q4.25 2.78125 4.51562 3.14062
Q4.78125 3.51562 5.17188 3.51562
Q11.2812 3.51562 13.7188 4.20312
Q14.9844 4.64062 15.5781 6.89062
L29.2969 61.8125
Q29.5 62.7969 29.5 63.1875
Q29.5 64.2656 28.3281 64.4062
Q26.4219 64.7969 21.0938 64.7969
Q20.125 64.7969 20.125 66.1094
Q20.1719 66.3594 20.3125 66.9688
Q20.4531 67.5781 20.7188 67.9375
Q21 68.3125 21.3906 68.3125
L55.9062 68.3125
Q60.6406 68.3125 65.0781 66.625
Q69.5312 64.9375 72.3594 61.4688
Q75.2031 58.0156 75.2031 53.0781
Q75.2031 46.7344 70.7344 41.75
Q66.2656 36.7656 59.5938 33.9844
Q52.9375 31.2031 46.6875 31.2031
L30.4219 31.2031
L24.3125 6.5
Q24.125 5.51562 24.125 5.07812
Q24.125 4.6875 24.2344 4.42188
Q24.3594 4.15625 24.5781 4.07812
Q24.8125 4 25.2969 3.90625
Q27.2031 3.51562 32.5156 3.51562
Q33.5 3.51562 33.5 2.20312
Q33.1562 0.78125 32.9531 0.390625
Q32.7656 0 31.7812 0
z

M30.9062 34.1875
L44.9219 34.1875
Q54.6406 34.1875 59.7188 39.4062
Q62.3125 42 63.9375 46.875
Q65.5781 51.7656 65.5781 55.7188
Q65.5781 60.6406 61.8125 62.7188
Q58.0625 64.7969 52.4844 64.7969
L42.9219 64.7969
Q40.1875 64.7969 39.2969 64.3281
Q38.4219 63.875 37.7031 61.375
z
" id="Cmmi10-50"/>
     </defs>
     <g transform="translate(46.925 203.61)rotate(-90.0)scale(0.3 -0.3)">
      <use transform="translate(0.0 0.859375)" xlink:href="#Cmsy10-43"/>
      <use transform="translate(52.587890625 45.865625)scale(0.7)" xlink:href="#Cmsy10-30"/>
      <use transform="translate(52.587890625 -24.65)scale(0.7)" xlink:href="#Cmmi10-50"/>
     </g>
    </g>
   </g>
   <g id="patch_3">
    <path d="
M102.251 26.91
L409.365 26.91" style="fill:none;stroke:#000000;"/>
   </g>
   <g id="patch_4">
    <path d="
M409.365 350.91
L409.365 26.91" style="fill:none;stroke:#000000;"/>
   </g>
   <g id="patch_5">
    <path d="
M102.251 350.91
L409.365 350.91" style="fill:none;stroke:#000000;"/>
   </g>
   <g id="patch_6">
    <path d="
M102.251 350.91
L102.251 26.91" style="fill:none;stroke:#000000;"/>
   </g>
  </g>
 </g>
 <defs>
  <clipPath id="pdec9723c13">
   <rect height="324.0" width="307.11375" x="102.25125" y="26.91"/>
  </clipPath>
 </defs>
</svg>
