<?xml version="1.0" encoding="utf-8" standalone="no"?>
<!DOCTYPE svg PUBLIC "-//W3C//DTD SVG 1.1//EN"
  "http://www.w3.org/Graphics/SVG/1.1/DTD/svg11.dtd">
<!-- Created with matplotlib (http://matplotlib.org/) -->
<svg height="432pt" version="1.1" viewBox="0 0 432 432" width="432pt" xmlns="http://www.w3.org/2000/svg" xmlns:xlink="http://www.w3.org/1999/xlink">
 <defs>
  <style type="text/css">
*{stroke-linecap:butt;stroke-linejoin:round;}
  </style>
 </defs>
 <g id="figure_1">
  <g id="patch_1">
   <path d="
M0 432
L432 432
L432 0
L0 0
z
" style="fill:#ffffff;"/>
  </g>
  <g id="axes_1">
   <g id="patch_2">
    <path d="
M66.7125 379.8
L416.052 379.8
L416.052 19.26
L66.7125 19.26
z
" style="fill:#ffffff;"/>
   </g>
   <g id="PathCollection_1">
    <defs>
     <path d="
M66.7125 -52.2
L73.8419 -52.2
L80.9712 -52.2
L88.1006 -52.2
L95.23 -52.2
L102.359 -52.2
L109.489 -52.2
L116.618 -52.2
L123.747 -52.2
L130.877 -52.2
L138.006 -52.2
L145.136 -52.2
L152.265 -52.2
L159.394 -52.2
L166.524 -52.2
L173.653 -52.2
L180.782 -52.2
L187.912 -52.2
L195.041 -52.2
L202.171 -52.2
L209.3 -52.2
L216.429 -52.2
L223.559 -52.2
L230.688 -52.2
L237.817 -52.2
L244.947 -52.2
L252.076 -52.2
L259.206 -52.2
L266.335 -52.2
L273.464 -52.2
L280.594 -52.2
L287.723 -52.2
L294.852 -52.2
L301.982 -52.2
L309.111 -52.2
L316.241 -52.2
L323.37 -52.2
L330.499 -52.2
L337.629 -52.2
L344.758 -52.2
L351.887 -52.2
L359.017 -52.2
L366.146 -52.2
L373.275 -52.2
L380.405 -52.2
L387.534 -52.2
L394.664 -52.2
L401.793 -52.2
L408.922 -52.2
L416.052 -52.2
L416.052 -59.558
L416.052 -66.9159
L416.052 -74.2739
L416.052 -81.6318
L416.052 -88.9898
L416.052 -96.3478
L416.052 -103.706
L416.052 -111.064
L416.052 -118.422
L416.052 -125.78
L416.052 -133.138
L416.052 -140.496
L416.052 -147.853
L416.052 -155.211
L416.052 -162.569
L416.052 -169.927
L416.052 -177.285
L416.052 -184.643
L416.052 -192.001
L416.052 -199.359
L416.052 -206.717
L416.052 -214.075
L416.052 -221.433
L416.052 -228.791
L416.052 -236.149
L416.052 -243.507
L416.052 -250.865
L416.052 -258.223
L416.052 -265.581
L416.052 -272.939
L416.052 -280.297
L416.052 -287.655
L416.052 -295.013
L416.052 -302.371
L416.052 -309.729
L416.052 -317.087
L416.052 -324.444
L416.052 -331.802
L416.052 -339.16
L416.052 -346.518
L416.052 -353.876
L416.052 -361.234
L416.052 -368.592
L416.052 -375.95
L416.052 -383.308
L416.052 -390.666
L416.052 -398.024
L416.052 -405.382
L416.052 -412.74
L408.922 -412.74
L401.793 -412.74
L394.664 -412.74
L387.534 -412.74
L380.405 -412.74
L373.275 -412.74
L366.146 -412.74
L359.017 -412.74
L351.887 -412.74
L344.758 -412.74
L337.629 -412.74
L330.499 -412.74
L323.37 -412.74
L316.241 -412.74
L309.111 -412.74
L301.982 -412.74
L294.852 -412.74
L287.723 -412.74
L280.594 -412.74
L273.464 -412.74
L266.335 -412.74
L259.206 -412.74
L252.076 -412.74
L244.947 -412.74
L237.817 -412.74
L230.688 -412.74
L223.559 -412.74
L216.429 -412.74
L209.3 -412.74
L202.171 -412.74
L195.041 -412.74
L187.912 -412.74
L180.782 -412.74
L173.653 -412.74
L166.524 -412.74
L159.394 -412.74
L152.265 -412.74
L145.136 -412.74
L138.006 -412.74
L130.877 -412.74
L123.747 -412.74
L116.618 -412.74
L109.489 -412.74
L102.359 -412.74
L95.23 -412.74
L88.1006 -412.74
L80.9712 -412.74
L73.8419 -412.74
L66.7125 -412.74
L66.7125 -405.382
L66.7125 -398.024
L66.7125 -390.666
L66.7125 -383.308
L66.7125 -375.95
L66.7125 -368.592
L66.7125 -361.234
L66.7125 -353.876
L66.7125 -346.518
L66.7125 -339.16
L66.7125 -331.802
L66.7125 -324.444
L66.7125 -317.087
L66.7125 -309.729
L66.7125 -302.371
L66.7125 -295.013
L66.7125 -287.655
L66.7125 -280.297
L66.7125 -272.939
L66.7125 -265.581
L66.7125 -258.223
L66.7125 -250.865
L66.7125 -243.507
L66.7125 -236.149
L66.7125 -228.791
L66.7125 -221.433
L66.7125 -214.075
L66.7125 -206.717
L66.7125 -199.359
L66.7125 -192.001
L66.7125 -184.643
L66.7125 -177.285
L66.7125 -169.927
L66.7125 -162.569
L66.7125 -155.211
L66.7125 -147.853
L66.7125 -140.496
L66.7125 -133.138
L66.7125 -125.78
L66.7125 -118.422
L66.7125 -111.064
L66.7125 -103.706
L66.7125 -96.3478
L66.7125 -88.9898
L66.7125 -81.6318
L66.7125 -74.2739
L66.7125 -66.9159
L66.7125 -59.558
L66.7125 -52.2
M80.9712 -350.334
L77.8723 -353.876
L80.9712 -358.56
L84.475 -353.876
L80.9712 -350.334
M95.23 -256.234
L94.2671 -258.223
L95.23 -259.553
L97.887 -258.223
L95.23 -256.234
M102.359 -219.225
L99.5594 -221.433
L102.359 -226.284
L104.555 -221.433
L102.359 -219.225
M116.618 -181.89
L113.318 -184.643
L116.618 -188.407
L119.491 -184.643
L116.618 -181.89
M138.006 -153.571
L136.432 -155.211
L138.006 -157.121
L140.822 -155.211
L138.006 -153.571
M202.171 -117.062
L201.193 -118.422
L197.707 -125.78
L202.171 -131.156
L207.277 -125.78
L203.155 -118.422
L202.171 -117.062
M330.499 -87.6501
L328.396 -88.9898
L327.195 -96.3478
L330.499 -100.648
L336.33 -103.706
L330.499 -106.495
L323.37 -105.747
L316.241 -107.968
L309.111 -106.362
L304.527 -111.064
L301.982 -116.038
L296.39 -111.064
L300.523 -103.706
L294.852 -97.4168
L288.998 -103.706
L293.452 -111.064
L288.096 -118.422
L287.723 -118.635
L283.277 -125.78
L280.594 -128.317
L277.915 -125.78
L277.576 -118.422
L280.594 -115.836
L283.528 -111.064
L280.594 -107.422
L275.999 -111.064
L273.464 -114.21
L268.722 -111.064
L266.335 -110.098
L265.013 -111.064
L259.206 -113.507
L252.681 -111.064
L252.076 -110.144
L249.797 -111.064
L244.947 -112.904
L241.924 -111.064
L237.817 -109.942
L235.743 -111.064
L237.817 -117.238
L238.387 -118.422
L237.817 -118.544
L236.384 -118.422
L230.688 -116.67
L229.748 -118.422
L224.541 -125.78
L223.559 -128.378
L221.681 -133.138
L216.429 -137.497
L212.7 -140.496
L209.3 -143.175
L204.888 -147.853
L202.804 -155.211
L202.171 -155.656
L195.041 -161.442
L193.032 -162.569
L187.912 -166.032
L180.782 -167.254
L177.277 -162.569
L173.653 -159.495
L169.801 -162.569
L166.524 -167.656
L164.496 -169.927
L159.394 -174.75
L152.265 -171.847
L146.706 -177.285
L145.136 -178.238
L138.006 -178.724
L132.319 -184.643
L130.877 -189.162
L126.098 -192.001
L123.747 -193.216
L118.508 -199.359
L116.618 -200.844
L109.611 -206.717
L113.274 -214.075
L116.618 -220.754
L116.828 -221.433
L116.618 -221.69
L109.489 -228.791
L109.489 -228.791
L102.359 -232.147
L100.741 -236.149
L102.359 -238.023
L106.298 -243.507
L109.489 -249.243
L109.879 -250.865
L109.489 -251.131
L105.715 -250.865
L102.359 -249.62
L100.817 -250.865
L102.359 -253.123
L102.859 -258.223
L102.359 -261.896
L100.424 -265.581
L100.69 -272.939
L95.23 -280.11
L95.0435 -280.297
L95.23 -280.504
L100.531 -287.655
L95.23 -294.019
L94.4435 -295.013
L95.23 -301.671
L95.4517 -302.371
L95.23 -302.622
L93.1806 -309.729
L95.23 -312.109
L97.4504 -317.087
L101.966 -324.444
L102.359 -326.541
L109.489 -330.833
L109.684 -331.802
L109.489 -335.815
L108.671 -339.16
L105.999 -346.518
L104.933 -353.876
L102.359 -359.48
L101.193 -361.234
L102.359 -367.092
L104.467 -361.234
L109.489 -359.054
L113.659 -361.234
L116.618 -368.557
L123.747 -366.058
L128.887 -368.592
L130.877 -372.84
L132.688 -375.95
L130.877 -376.716
L126.735 -383.308
L130.877 -387.841
L137.88 -383.308
L138.006 -382.94
L138.186 -383.308
L145.136 -387.168
L152.265 -386.219
L155.174 -383.308
L152.265 -377.189
L146.779 -375.95
L152.265 -375.275
L159.394 -374.891
L165.573 -368.592
L165.565 -361.234
L166.524 -359.583
L173.653 -359.355
L178.943 -361.234
L173.653 -364.867
L171.22 -368.592
L173.653 -371.559
L180.782 -373.854
L186.286 -368.592
L181.781 -361.234
L186.236 -353.876
L187.912 -353.238
L190.517 -353.876
L195.041 -360.276
L199.758 -353.876
L202.171 -352.961
L209.3 -353.495
L216.429 -351.843
L223.559 -351.198
L230.688 -350.748
L237.817 -351.904
L244.947 -348.898
L247.558 -346.518
L244.947 -344.137
L241.52 -339.16
L244.947 -337.73
L252.076 -338.018
L252.731 -339.16
L259.206 -344.899
L262.538 -339.16
L265.609 -331.802
L263.868 -324.444
L266.335 -321.988
L272.025 -317.087
L273.464 -315.734
L274.488 -317.087
L280.594 -321.098
L286.432 -317.087
L287.394 -309.729
L287.723 -309.488
L292.274 -302.371
L292.771 -295.013
L294.852 -294.038
L301.982 -291.728
L307.294 -295.013
L309.111 -298.017
L310.895 -295.013
L316.241 -291.938
L323.004 -295.013
L323.37 -297.975
L324.832 -295.013
L323.37 -294.183
L321.704 -287.655
L323.37 -285.966
L330.499 -286.597
L337.629 -280.48
L337.76 -280.297
L337.629 -280.157
L335.899 -272.939
L337.629 -271.886
L343.008 -272.939
L344.758 -274.708
L349.529 -272.939
L351.887 -272.284
L352.645 -272.939
L359.017 -276.273
L366.146 -274.265
L367.381 -272.939
L366.146 -271.061
L359.638 -265.581
L366.146 -260.306
L367.567 -258.223
L366.146 -255.285
L363.297 -250.865
L366.146 -249.43
L372.394 -243.507
L373.275 -240.863
L375.664 -236.149
L373.275 -233.333
L370.937 -228.791
L373.275 -223.183
L374.712 -221.433
L380.405 -218.451
L385.903 -214.075
L387.534 -209.757
L388.782 -206.717
L387.534 -204.963
L385.348 -206.717
L380.405 -209.077
L373.275 -210.391
L372.699 -206.717
L373.275 -200.86
L380.405 -200.987
L381.598 -199.359
L380.405 -197.895
L373.439 -192.001
L380.405 -188.044
L383.168 -184.643
L380.405 -180.779
L377.556 -177.285
L380.114 -169.927
L378.401 -162.569
L375.83 -155.211
L373.275 -148.317
L372.722 -147.853
L372.707 -140.496
L371.413 -133.138
L373.275 -130.416
L380.405 -132.254
L381.927 -133.138
L380.405 -133.984
L374.376 -140.496
L380.405 -146.838
L382.811 -147.853
L387.534 -150.547
L390.579 -147.853
L387.534 -145.295
L384.89 -140.496
L387.534 -136.436
L391.019 -133.138
L387.534 -128.861
L385.638 -125.78
L383.429 -118.422
L380.405 -115.206
L374.77 -118.422
L373.275 -119.67
L366.146 -120.066
L363.606 -118.422
L359.017 -113.809
L352.606 -111.064
L353.533 -103.706
L352.793 -96.3478
L351.887 -95.4289
L350.59 -96.3478
L344.758 -103.371
L337.629 -99.7519
L336.773 -96.3478
L332.551 -88.9898
L330.499 -87.6501
M301.982 -308.116
L300.709 -309.729
L301.982 -311.102
L303.392 -309.729
L301.982 -308.116
M309.111 -336.434
L306.45 -339.16
L309.111 -341.875
L311.752 -339.16
L309.111 -336.434
M316.241 -343.902
L313.716 -346.518
L316.241 -349.124
L318.769 -346.518
L316.241 -343.902
M337.629 -290.155
L331.396 -295.013
L337.629 -301.149
L341.181 -295.013
L337.629 -290.155
M351.887 -293.56
L350.536 -295.013
L346.118 -302.371
L351.887 -308.218
L357.523 -302.371
L353.085 -295.013
L351.887 -293.56
M366.146 -282.034
L360.394 -287.655
L366.146 -293.147
L371.882 -287.655
L366.146 -282.034
M380.405 -245.097
L374.534 -250.865
L380.405 -256.46
L385.855 -250.865
L380.405 -245.097
M387.534 -169.532
L385.973 -169.927
L387.534 -170.368
L387.857 -169.927
L387.534 -169.532
M373.275 -82.8814
L366.29 -88.9898
L366.146 -92.2008
L365.125 -96.3478
L366.146 -97.9782
L366.799 -96.3478
L373.275 -94.8113
L378.918 -88.9898
L373.275 -82.8814" id="C0_0_ca888278ee"/>
     <path d="
M294.852 -121.787
L298.724 -125.78
L294.852 -127.22
L292.063 -125.78
L294.852 -121.787" id="C0_1_bf483bcf7e"/>
     <path d="
M301.982 -129.87
L302.763 -133.138
L301.982 -134.246
L300.979 -133.138
L301.982 -129.87" id="C0_2_eb50d07890"/>
     <path d="
M173.653 -174.937
L174.841 -177.285
L173.653 -177.677
L173.426 -177.285
L173.653 -174.937" id="C0_3_f47519e56e"/>
     <path d="
M366.146 -198.902
L370.416 -199.359
L366.146 -199.599
L365.88 -199.359
L366.146 -198.902" id="C0_4_5c13329968"/>
     <path d="
M366.146 -233.791
L370.488 -236.149
L366.146 -238.221
L364.054 -236.149
L366.146 -233.791" id="C0_5_4bc3e6e24f"/>
     <path d="
M294.852 -279.665
L295.103 -280.297
L294.852 -280.39
L294.637 -280.297
L294.852 -279.665" id="C0_6_14065cfe3a"/>
     <path d="
M102.359 -306.916
L104.428 -309.729
L102.359 -310.673
L99.4726 -309.729
L102.359 -306.916" id="C0_7_ab7e4839be"/>
    </defs>
    <g clip-path="url(#p3b6e3cd78f)">
     <use style="fill:#ffffff;" x="0.0" xlink:href="#C0_0_ca888278ee" y="432.0"/>
    </g>
    <g clip-path="url(#p3b6e3cd78f)">
     <use style="fill:#ffffff;" x="0.0" xlink:href="#C0_1_bf483bcf7e" y="432.0"/>
    </g>
    <g clip-path="url(#p3b6e3cd78f)">
     <use style="fill:#ffffff;" x="0.0" xlink:href="#C0_2_eb50d07890" y="432.0"/>
    </g>
    <g clip-path="url(#p3b6e3cd78f)">
     <use style="fill:#ffffff;" x="0.0" xlink:href="#C0_3_f47519e56e" y="432.0"/>
    </g>
    <g clip-path="url(#p3b6e3cd78f)">
     <use style="fill:#ffffff;" x="0.0" xlink:href="#C0_4_5c13329968" y="432.0"/>
    </g>
    <g clip-path="url(#p3b6e3cd78f)">
     <use style="fill:#ffffff;" x="0.0" xlink:href="#C0_5_4bc3e6e24f" y="432.0"/>
    </g>
    <g clip-path="url(#p3b6e3cd78f)">
     <use style="fill:#ffffff;" x="0.0" xlink:href="#C0_6_14065cfe3a" y="432.0"/>
    </g>
    <g clip-path="url(#p3b6e3cd78f)">
     <use style="fill:#ffffff;" x="0.0" xlink:href="#C0_7_ab7e4839be" y="432.0"/>
    </g>
   </g>
   <g id="PathCollection_2">
    <defs>
     <path d="
M330.499 -87.6501
L332.551 -88.9898
L336.773 -96.3478
L337.629 -99.7519
L344.758 -103.371
L350.59 -96.3478
L351.887 -95.4289
L352.793 -96.3478
L353.533 -103.706
L352.606 -111.064
L359.017 -113.809
L363.606 -118.422
L366.146 -120.066
L373.275 -119.67
L374.77 -118.422
L380.405 -115.206
L383.429 -118.422
L385.638 -125.78
L387.534 -128.861
L391.019 -133.138
L387.534 -136.436
L384.89 -140.496
L387.534 -145.295
L390.579 -147.853
L387.534 -150.547
L382.811 -147.853
L380.405 -146.838
L374.376 -140.496
L380.405 -133.984
L381.927 -133.138
L380.405 -132.254
L373.275 -130.416
L371.413 -133.138
L372.707 -140.496
L372.722 -147.853
L373.275 -148.317
L375.83 -155.211
L378.401 -162.569
L380.114 -169.927
L377.556 -177.285
L380.405 -180.779
L383.168 -184.643
L380.405 -188.044
L373.439 -192.001
L380.405 -197.895
L381.598 -199.359
L380.405 -200.987
L373.275 -200.86
L372.699 -206.717
L373.275 -210.391
L380.405 -209.077
L385.348 -206.717
L387.534 -204.963
L388.782 -206.717
L387.534 -209.757
L385.903 -214.075
L380.405 -218.451
L374.712 -221.433
L373.275 -223.183
L370.937 -228.791
L373.275 -233.333
L375.664 -236.149
L373.275 -240.863
L372.394 -243.507
L366.146 -249.43
L363.297 -250.865
L366.146 -255.285
L367.567 -258.223
L366.146 -260.306
L359.638 -265.581
L366.146 -271.061
L367.381 -272.939
L366.146 -274.265
L359.017 -276.273
L352.645 -272.939
L351.887 -272.284
L349.529 -272.939
L344.758 -274.708
L343.008 -272.939
L337.629 -271.886
L335.899 -272.939
L337.629 -280.157
L337.76 -280.297
L337.629 -280.48
L330.499 -286.597
L323.37 -285.966
L321.704 -287.655
L323.37 -294.183
L324.832 -295.013
L323.37 -297.975
L323.004 -295.013
L316.241 -291.938
L310.895 -295.013
L309.111 -298.017
L307.294 -295.013
L301.982 -291.728
L294.852 -294.038
L292.771 -295.013
L292.274 -302.371
L287.723 -309.488
L287.394 -309.729
L286.432 -317.087
L280.594 -321.098
L274.488 -317.087
L273.464 -315.734
L272.025 -317.087
L266.335 -321.988
L263.868 -324.444
L265.609 -331.802
L262.538 -339.16
L259.206 -344.899
L252.731 -339.16
L252.076 -338.018
L244.947 -337.73
L241.52 -339.16
L244.947 -344.137
L247.558 -346.518
L244.947 -348.898
L237.817 -351.904
L230.688 -350.748
L223.559 -351.198
L216.429 -351.843
L209.3 -353.495
L202.171 -352.961
L199.758 -353.876
L195.041 -360.276
L190.517 -353.876
L187.912 -353.238
L186.236 -353.876
L181.781 -361.234
L186.286 -368.592
L180.782 -373.854
L173.653 -371.559
L171.22 -368.592
L173.653 -364.867
L178.943 -361.234
L173.653 -359.355
L166.524 -359.583
L165.565 -361.234
L165.573 -368.592
L159.394 -374.891
L152.265 -375.275
L146.779 -375.95
L152.265 -377.189
L155.174 -383.308
L152.265 -386.219
L145.136 -387.168
L138.186 -383.308
L138.006 -382.94
L137.88 -383.308
L130.877 -387.841
L126.735 -383.308
L130.877 -376.716
L132.688 -375.95
L130.877 -372.84
L128.887 -368.592
L123.747 -366.058
L116.618 -368.557
L113.659 -361.234
L109.489 -359.054
L104.467 -361.234
L102.359 -367.092
L101.193 -361.234
L102.359 -359.48
L104.933 -353.876
L105.999 -346.518
L108.671 -339.16
L109.489 -335.815
L109.684 -331.802
L109.489 -330.833
L102.359 -326.541
L101.966 -324.444
L97.4504 -317.087
L95.23 -312.109
L93.1806 -309.729
L95.23 -302.622
L95.4517 -302.371
L95.23 -301.671
L94.4435 -295.013
L95.23 -294.019
L100.531 -287.655
L95.23 -280.504
L95.0435 -280.297
L95.23 -280.11
L100.69 -272.939
L100.424 -265.581
L102.359 -261.896
L102.859 -258.223
L102.359 -253.123
L100.817 -250.865
L102.359 -249.62
L105.715 -250.865
L109.489 -251.131
L109.879 -250.865
L109.489 -249.243
L106.298 -243.507
L102.359 -238.023
L100.741 -236.149
L102.359 -232.147
L109.489 -228.791
L109.489 -228.791
L116.618 -221.69
L116.828 -221.433
L116.618 -220.754
L113.274 -214.075
L109.611 -206.717
L116.618 -200.844
L118.508 -199.359
L123.747 -193.216
L126.098 -192.001
L130.877 -189.162
L132.319 -184.643
L138.006 -178.724
L145.136 -178.238
L146.706 -177.285
L152.265 -171.847
L159.394 -174.75
L164.496 -169.927
L166.524 -167.656
L169.801 -162.569
L173.653 -159.495
L177.277 -162.569
L180.782 -167.254
L187.912 -166.032
L193.032 -162.569
L195.041 -161.442
L202.171 -155.656
L202.804 -155.211
L204.888 -147.853
L209.3 -143.175
L212.7 -140.496
L216.429 -137.497
L221.681 -133.138
L223.559 -128.378
L224.541 -125.78
L229.748 -118.422
L230.688 -116.67
L236.384 -118.422
L237.817 -118.544
L238.387 -118.422
L237.817 -117.238
L235.743 -111.064
L237.817 -109.942
L241.924 -111.064
L244.947 -112.904
L249.797 -111.064
L252.076 -110.144
L252.681 -111.064
L259.206 -113.507
L265.013 -111.064
L266.335 -110.098
L268.722 -111.064
L273.464 -114.21
L275.999 -111.064
L280.594 -107.422
L283.528 -111.064
L280.594 -115.836
L277.576 -118.422
L277.915 -125.78
L280.594 -128.317
L283.277 -125.78
L287.723 -118.635
L288.096 -118.422
L293.452 -111.064
L288.998 -103.706
L294.852 -97.4168
L300.523 -103.706
L296.39 -111.064
L301.982 -116.038
L304.527 -111.064
L309.111 -106.362
L316.241 -107.968
L323.37 -105.747
L330.499 -106.495
L336.33 -103.706
L330.499 -100.648
L327.195 -96.3478
L328.396 -88.9898
L330.499 -87.6501
M366.146 -198.902
L365.88 -199.359
L366.146 -199.599
L370.416 -199.359
L366.146 -198.902
M366.146 -233.791
L364.054 -236.149
L366.146 -238.221
L370.488 -236.149
L366.146 -233.791
M373.275 -168.404
L371.651 -169.927
L373.275 -171.36
L374.379 -169.927
L373.275 -168.404
M102.359 -306.916
L99.4726 -309.729
L102.359 -310.673
L104.428 -309.729
L102.359 -306.916
M116.618 -293.764
L115.377 -295.013
L116.618 -295.863
L118.549 -295.013
L116.618 -293.764
M166.524 -195.561
L163.159 -199.359
L160.258 -206.717
L166.524 -213.659
L172.184 -206.717
L170.201 -199.359
L166.524 -195.561
M173.653 -174.937
L173.426 -177.285
L173.653 -177.677
L174.841 -177.285
L173.653 -174.937
M180.782 -195.014
L175.322 -199.359
L180.782 -205.969
L186.394 -199.359
L180.782 -195.014
M244.947 -136.898
L240.624 -140.496
L244.947 -144.839
L246.956 -147.853
L244.947 -151.683
L237.817 -148.446
L230.688 -154.495
L230.288 -155.211
L224.671 -162.569
L223.559 -164.725
L219.239 -169.927
L216.429 -176.699
L215.879 -177.285
L216.429 -178.063
L218.759 -184.643
L216.429 -185.549
L210.142 -192.001
L209.3 -193.875
L202.171 -192.001
L195.041 -195.064
L191.198 -199.359
L195.041 -203.562
L198.066 -206.717
L195.041 -209.337
L188.753 -214.075
L187.912 -215.181
L181.873 -221.433
L187.912 -227.322
L190.518 -228.791
L187.912 -229.792
L180.782 -233.416
L178.586 -228.791
L173.653 -222.749
L171.1 -221.433
L166.524 -216.292
L159.394 -218.875
L155.111 -214.075
L152.265 -212.581
L145.136 -210.919
L143.062 -214.075
L145.136 -218.732
L146.271 -221.433
L145.136 -225.238
L141.403 -228.791
L138.006 -232.715
L136.789 -228.791
L130.877 -225.709
L126.143 -228.791
L130.877 -232.642
L136.828 -236.149
L133.398 -243.507
L130.877 -248.012
L129.196 -250.865
L129.753 -258.223
L125.204 -265.581
L125.202 -272.939
L123.747 -277.65
L122.77 -280.297
L123.747 -283.565
L130.877 -287.568
L130.906 -287.655
L131.929 -295.013
L130.877 -298.42
L127.178 -302.371
L124.04 -309.729
L127.873 -317.087
L130.877 -321.326
L137.519 -324.444
L138.006 -325.011
L145.136 -331.154
L145.734 -331.802
L145.968 -339.16
L152.265 -341.099
L154.757 -339.16
L154.303 -331.802
L159.394 -329.383
L166.524 -328.499
L171.03 -324.444
L173.653 -322.259
L176.373 -324.444
L180.782 -331.747
L183.485 -324.444
L180.782 -320.176
L178.419 -317.087
L180.782 -314.865
L185.619 -309.729
L187.912 -302.509
L195.041 -303.125
L196.229 -309.729
L195.041 -310.582
L191.455 -317.087
L195.041 -322.56
L202.171 -318.777
L205.048 -324.444
L209.3 -328.931
L211.867 -324.444
L216.429 -321.595
L223.559 -319.439
L230.688 -321.674
L237.817 -320.495
L242.252 -317.087
L244.947 -311.847
L252.076 -311.962
L252.442 -309.729
L259.206 -303.599
L262.145 -302.371
L263.501 -295.013
L266.335 -290.852
L271.149 -295.013
L273.464 -296.015
L274.317 -295.013
L274.551 -287.655
L273.464 -281.889
L272.962 -280.297
L273.464 -279.797
L277.584 -272.939
L279.062 -265.581
L280.594 -260.029
L281.124 -258.223
L287.723 -250.872
L287.761 -250.865
L294.852 -247.758
L296.653 -250.865
L298.93 -258.223
L301.982 -260.054
L304.132 -258.223
L303.992 -250.865
L302.081 -243.507
L301.982 -243.435
L294.852 -239.823
L294.026 -236.149
L294.852 -233.818
L298.512 -228.791
L299.595 -221.433
L301.982 -218.291
L309.111 -219.062
L311.98 -221.433
L316.241 -226.261
L321.47 -228.791
L323.37 -232.2
L325.061 -236.149
L325.032 -243.507
L323.37 -245.733
L319.106 -250.865
L323.37 -253.791
L326.288 -250.865
L330.499 -247.165
L333.081 -243.507
L336.342 -236.149
L337.629 -235.6
L341.969 -228.791
L344.758 -224.97
L348.057 -228.791
L351.887 -232.851
L355.453 -228.791
L351.887 -222.406
L350.744 -221.433
L351.887 -220.663
L358.709 -214.075
L351.887 -208.646
L345.472 -214.075
L344.758 -215.207
L343.351 -214.075
L340.377 -206.717
L344.758 -205.59
L350.904 -199.359
L351.887 -195.989
L353.339 -192.001
L351.887 -189.67
L347.299 -192.001
L344.758 -192.7
L343.926 -192.001
L344.306 -184.643
L344.758 -184.429
L351.887 -177.766
L352.589 -177.285
L351.887 -176.314
L344.758 -171.108
L344.402 -169.927
L344.758 -169.189
L349.33 -162.569
L351.887 -157.431
L353.342 -155.211
L351.887 -152.545
L344.758 -154.162
L342.682 -155.211
L337.629 -158.577
L336.196 -155.211
L337.629 -153.207
L341.333 -147.853
L344.758 -144.756
L348.468 -140.496
L344.758 -136.053
L340.499 -140.496
L337.629 -143.892
L330.499 -141.365
L323.759 -147.853
L323.37 -148.041
L316.339 -155.211
L316.241 -155.99
L315.326 -155.211
L309.111 -153.736
L305.075 -155.211
L306.909 -162.569
L302.724 -169.927
L302.595 -177.285
L301.982 -177.493
L294.852 -179.924
L287.723 -177.901
L287.385 -177.285
L287.723 -170.609
L288.101 -169.927
L287.723 -169.721
L281.501 -162.569
L284.063 -155.211
L280.627 -147.853
L280.594 -147.831
L273.464 -147.384
L271.381 -147.853
L266.335 -148.949
L265.871 -147.853
L259.206 -140.598
L252.076 -143.486
L248.171 -140.496
L244.947 -136.898
M138.006 -335.454
L134.708 -339.16
L138.006 -341.836
L144.552 -339.16
L138.006 -335.454
M173.653 -342.298
L169.927 -346.518
L173.653 -350.159
L177.175 -346.518
L173.653 -342.298
M252.076 -319.966
L250.738 -324.444
L252.076 -325.363
L252.975 -324.444
L252.076 -319.966
M294.852 -279.665
L294.637 -280.297
L294.852 -280.39
L295.103 -280.297
L294.852 -279.665
M330.499 -278.831
L329.539 -280.297
L330.499 -280.962
L331.254 -280.297
L330.499 -278.831
M337.629 -265.49
L337.549 -265.581
L337.629 -265.625
L337.684 -265.581
L337.629 -265.49
M351.887 -257.734
L351.518 -258.223
L351.887 -258.569
L352.171 -258.223
L351.887 -257.734
M266.335 -123.959
L263.887 -125.78
L266.335 -128.311
L268.277 -125.78
L266.335 -123.959
M287.723 -132.888
L287.476 -133.138
L287.723 -133.474
L288.05 -133.138
L287.723 -132.888
M294.852 -121.787
L292.063 -125.78
L294.852 -127.22
L298.724 -125.78
L294.852 -121.787
M294.852 -145.866
L292.169 -147.853
L294.852 -154.34
L299.949 -147.853
L294.852 -145.866
M294.852 -156.984
L293.263 -162.569
L294.852 -165.199
L297.331 -162.569
L294.852 -156.984
M301.982 -129.87
L300.979 -133.138
L301.982 -134.246
L302.763 -133.138
L301.982 -129.87
M309.111 -117.458
L308.388 -118.422
L309.111 -120.837
L309.81 -118.422
L309.111 -117.458" id="C1_0_eb8b352c94"/>
     <path d="
M373.275 -82.8814
L378.918 -88.9898
L373.275 -94.8113
L366.799 -96.3478
L366.146 -97.9782
L365.125 -96.3478
L366.146 -92.2008
L366.29 -88.9898
L373.275 -82.8814
M373.275 -88.0415
L372.191 -88.9898
L373.275 -89.8935
L374.151 -88.9898
L373.275 -88.0415" id="C1_1_35f2fccb24"/>
     <path d="
M202.171 -117.062
L203.155 -118.422
L207.277 -125.78
L202.171 -131.156
L197.707 -125.78
L201.193 -118.422
L202.171 -117.062" id="C1_2_4bcb888621"/>
     <path d="
M138.006 -153.571
L140.822 -155.211
L138.006 -157.121
L136.432 -155.211
L138.006 -153.571" id="C1_3_5a3ade857b"/>
     <path d="
M330.499 -169.659
L330.674 -169.927
L330.499 -171.695
L329.423 -169.927
L330.499 -169.659" id="C1_4_dcd55b5416"/>
     <path d="
M387.534 -169.532
L387.857 -169.927
L387.534 -170.368
L385.973 -169.927
L387.534 -169.532" id="C1_5_b021c07858"/>
     <path d="
M116.618 -181.89
L119.491 -184.643
L116.618 -188.407
L113.318 -184.643
L116.618 -181.89" id="C1_6_ce1a01d87a"/>
     <path d="
M316.241 -183.3
L317.475 -184.643
L316.241 -190.147
L316.111 -184.643
L316.241 -183.3" id="C1_7_7b7bacb0d5"/>
     <path d="
M287.723 -191.997
L287.736 -192.001
L287.723 -192.004
L287.715 -192.001
L287.723 -191.997" id="C1_8_3d8e45c242"/>
     <path d="
M301.982 -190.221
L309.111 -191.792
L314.991 -192.001
L309.74 -199.359
L309.161 -206.717
L309.111 -206.862
L308.557 -206.717
L308.732 -199.359
L301.982 -192.798
L298.382 -192.001
L301.982 -190.221" id="C1_9_9591c51862"/>
     <path d="
M330.499 -206.485
L332.455 -206.717
L330.499 -210.122
L329.647 -206.717
L330.499 -206.485" id="C1_a_3a3cb4ed40"/>
     <path d="
M102.359 -219.225
L104.555 -221.433
L102.359 -226.284
L99.5594 -221.433
L102.359 -219.225" id="C1_b_9404152fc4"/>
     <path d="
M330.499 -215.108
L334.038 -221.433
L330.499 -224.554
L328.827 -221.433
L330.499 -215.108" id="C1_c_7258ec8466"/>
     <path d="
M166.524 -226.698
L167.481 -228.791
L166.524 -229.969
L165.269 -228.791
L166.524 -226.698" id="C1_d_492eafa3ae"/>
     <path d="
M380.405 -245.097
L385.855 -250.865
L380.405 -256.46
L374.534 -250.865
L380.405 -245.097" id="C1_e_858d7eb1ec"/>
     <path d="
M95.23 -256.234
L97.887 -258.223
L95.23 -259.553
L94.2671 -258.223
L95.23 -256.234" id="C1_f_971f4d0c31"/>
     <path d="
M195.041 -286.697
L195.903 -287.655
L195.041 -288.855
L194.023 -287.655
L195.041 -286.697" id="C1_10_1c466c9928"/>
     <path d="
M366.146 -282.034
L371.882 -287.655
L366.146 -293.147
L360.394 -287.655
L366.146 -282.034" id="C1_11_6825c2c08c"/>
     <path d="
M337.629 -290.155
L341.181 -295.013
L337.629 -301.149
L331.396 -295.013
L337.629 -290.155" id="C1_12_178129f9d4"/>
     <path d="
M351.887 -293.56
L353.085 -295.013
L357.523 -302.371
L351.887 -308.218
L346.118 -302.371
L350.536 -295.013
L351.887 -293.56
M351.887 -301.101
L350.94 -302.371
L351.887 -303.331
L352.813 -302.371
L351.887 -301.101" id="C1_13_1ae522d1e6"/>
     <path d="
M173.653 -309.5
L174.682 -309.729
L173.653 -310.921
L171.744 -309.729
L173.653 -309.5" id="C1_14_19576f350e"/>
     <path d="
M209.3 -308.958
L213.136 -309.729
L209.3 -311.794
L208.152 -309.729
L209.3 -308.958" id="C1_15_80aa00105a"/>
     <path d="
M301.982 -308.116
L303.392 -309.729
L301.982 -311.102
L300.709 -309.729
L301.982 -308.116" id="C1_16_73f181997e"/>
     <path d="
M309.111 -336.434
L311.752 -339.16
L309.111 -341.875
L306.45 -339.16
L309.111 -336.434" id="C1_17_1983bdd997"/>
     <path d="
M316.241 -343.902
L318.769 -346.518
L316.241 -349.124
L313.716 -346.518
L316.241 -343.902" id="C1_18_187abee222"/>
     <path d="
M80.9712 -350.334
L84.475 -353.876
L80.9712 -358.56
L77.8723 -353.876
L80.9712 -350.334" id="C1_19_95f5de5026"/>
    </defs>
    <g clip-path="url(#p3b6e3cd78f)">
     <use style="fill:#0000ff;fill-opacity:0.5;" x="0.0" xlink:href="#C1_0_eb8b352c94" y="432.0"/>
    </g>
    <g clip-path="url(#p3b6e3cd78f)">
     <use style="fill:#0000ff;fill-opacity:0.5;" x="0.0" xlink:href="#C1_1_35f2fccb24" y="432.0"/>
    </g>
    <g clip-path="url(#p3b6e3cd78f)">
     <use style="fill:#0000ff;fill-opacity:0.5;" x="0.0" xlink:href="#C1_2_4bcb888621" y="432.0"/>
    </g>
    <g clip-path="url(#p3b6e3cd78f)">
     <use style="fill:#0000ff;fill-opacity:0.5;" x="0.0" xlink:href="#C1_3_5a3ade857b" y="432.0"/>
    </g>
    <g clip-path="url(#p3b6e3cd78f)">
     <use style="fill:#0000ff;fill-opacity:0.5;" x="0.0" xlink:href="#C1_4_dcd55b5416" y="432.0"/>
    </g>
    <g clip-path="url(#p3b6e3cd78f)">
     <use style="fill:#0000ff;fill-opacity:0.5;" x="0.0" xlink:href="#C1_5_b021c07858" y="432.0"/>
    </g>
    <g clip-path="url(#p3b6e3cd78f)">
     <use style="fill:#0000ff;fill-opacity:0.5;" x="0.0" xlink:href="#C1_6_ce1a01d87a" y="432.0"/>
    </g>
    <g clip-path="url(#p3b6e3cd78f)">
     <use style="fill:#0000ff;fill-opacity:0.5;" x="0.0" xlink:href="#C1_7_7b7bacb0d5" y="432.0"/>
    </g>
    <g clip-path="url(#p3b6e3cd78f)">
     <use style="fill:#0000ff;fill-opacity:0.5;" x="0.0" xlink:href="#C1_8_3d8e45c242" y="432.0"/>
    </g>
    <g clip-path="url(#p3b6e3cd78f)">
     <use style="fill:#0000ff;fill-opacity:0.5;" x="0.0" xlink:href="#C1_9_9591c51862" y="432.0"/>
    </g>
    <g clip-path="url(#p3b6e3cd78f)">
     <use style="fill:#0000ff;fill-opacity:0.5;" x="0.0" xlink:href="#C1_a_3a3cb4ed40" y="432.0"/>
    </g>
    <g clip-path="url(#p3b6e3cd78f)">
     <use style="fill:#0000ff;fill-opacity:0.5;" x="0.0" xlink:href="#C1_b_9404152fc4" y="432.0"/>
    </g>
    <g clip-path="url(#p3b6e3cd78f)">
     <use style="fill:#0000ff;fill-opacity:0.5;" x="0.0" xlink:href="#C1_c_7258ec8466" y="432.0"/>
    </g>
    <g clip-path="url(#p3b6e3cd78f)">
     <use style="fill:#0000ff;fill-opacity:0.5;" x="0.0" xlink:href="#C1_d_492eafa3ae" y="432.0"/>
    </g>
    <g clip-path="url(#p3b6e3cd78f)">
     <use style="fill:#0000ff;fill-opacity:0.5;" x="0.0" xlink:href="#C1_e_858d7eb1ec" y="432.0"/>
    </g>
    <g clip-path="url(#p3b6e3cd78f)">
     <use style="fill:#0000ff;fill-opacity:0.5;" x="0.0" xlink:href="#C1_f_971f4d0c31" y="432.0"/>
    </g>
    <g clip-path="url(#p3b6e3cd78f)">
     <use style="fill:#0000ff;fill-opacity:0.5;" x="0.0" xlink:href="#C1_10_1c466c9928" y="432.0"/>
    </g>
    <g clip-path="url(#p3b6e3cd78f)">
     <use style="fill:#0000ff;fill-opacity:0.5;" x="0.0" xlink:href="#C1_11_6825c2c08c" y="432.0"/>
    </g>
    <g clip-path="url(#p3b6e3cd78f)">
     <use style="fill:#0000ff;fill-opacity:0.5;" x="0.0" xlink:href="#C1_12_178129f9d4" y="432.0"/>
    </g>
    <g clip-path="url(#p3b6e3cd78f)">
     <use style="fill:#0000ff;fill-opacity:0.5;" x="0.0" xlink:href="#C1_13_1ae522d1e6" y="432.0"/>
    </g>
    <g clip-path="url(#p3b6e3cd78f)">
     <use style="fill:#0000ff;fill-opacity:0.5;" x="0.0" xlink:href="#C1_14_19576f350e" y="432.0"/>
    </g>
    <g clip-path="url(#p3b6e3cd78f)">
     <use style="fill:#0000ff;fill-opacity:0.5;" x="0.0" xlink:href="#C1_15_80aa00105a" y="432.0"/>
    </g>
    <g clip-path="url(#p3b6e3cd78f)">
     <use style="fill:#0000ff;fill-opacity:0.5;" x="0.0" xlink:href="#C1_16_73f181997e" y="432.0"/>
    </g>
    <g clip-path="url(#p3b6e3cd78f)">
     <use style="fill:#0000ff;fill-opacity:0.5;" x="0.0" xlink:href="#C1_17_1983bdd997" y="432.0"/>
    </g>
    <g clip-path="url(#p3b6e3cd78f)">
     <use style="fill:#0000ff;fill-opacity:0.5;" x="0.0" xlink:href="#C1_18_187abee222" y="432.0"/>
    </g>
    <g clip-path="url(#p3b6e3cd78f)">
     <use style="fill:#0000ff;fill-opacity:0.5;" x="0.0" xlink:href="#C1_19_95f5de5026" y="432.0"/>
    </g>
   </g>
   <g id="PathCollection_3">
    <defs>
     <path d="
M373.275 -88.0415
L374.151 -88.9898
L373.275 -89.8935
L372.191 -88.9898
L373.275 -88.0415" id="C2_0_96091fcf8a"/>
     <path d="
M309.111 -117.458
L309.81 -118.422
L309.111 -120.837
L308.388 -118.422
L309.111 -117.458" id="C2_1_269597e2ac"/>
     <path d="
M266.335 -123.959
L268.277 -125.78
L266.335 -128.311
L263.887 -125.78
L266.335 -123.959" id="C2_2_2788f0ed13"/>
     <path d="
M287.723 -132.888
L288.05 -133.138
L287.723 -133.474
L287.476 -133.138
L287.723 -132.888" id="C2_3_3b8fb5fbce"/>
     <path d="
M244.947 -136.898
L248.171 -140.496
L252.076 -143.486
L259.206 -140.598
L265.871 -147.853
L266.335 -148.949
L271.381 -147.853
L273.464 -147.384
L280.594 -147.831
L280.627 -147.853
L284.063 -155.211
L281.501 -162.569
L287.723 -169.721
L288.101 -169.927
L287.723 -170.609
L287.385 -177.285
L287.723 -177.901
L294.852 -179.924
L301.982 -177.493
L302.595 -177.285
L302.724 -169.927
L306.909 -162.569
L305.075 -155.211
L309.111 -153.736
L315.326 -155.211
L316.241 -155.99
L316.339 -155.211
L323.37 -148.041
L323.759 -147.853
L330.499 -141.365
L337.629 -143.892
L340.499 -140.496
L344.758 -136.053
L348.468 -140.496
L344.758 -144.756
L341.333 -147.853
L337.629 -153.207
L336.196 -155.211
L337.629 -158.577
L342.682 -155.211
L344.758 -154.162
L351.887 -152.545
L353.342 -155.211
L351.887 -157.431
L349.33 -162.569
L344.758 -169.189
L344.402 -169.927
L344.758 -171.108
L351.887 -176.314
L352.589 -177.285
L351.887 -177.766
L344.758 -184.429
L344.306 -184.643
L343.926 -192.001
L344.758 -192.7
L347.299 -192.001
L351.887 -189.67
L353.339 -192.001
L351.887 -195.989
L350.904 -199.359
L344.758 -205.59
L340.377 -206.717
L343.351 -214.075
L344.758 -215.207
L345.472 -214.075
L351.887 -208.646
L358.709 -214.075
L351.887 -220.663
L350.744 -221.433
L351.887 -222.406
L355.453 -228.791
L351.887 -232.851
L348.057 -228.791
L344.758 -224.97
L341.969 -228.791
L337.629 -235.6
L336.342 -236.149
L333.081 -243.507
L330.499 -247.165
L326.288 -250.865
L323.37 -253.791
L319.106 -250.865
L323.37 -245.733
L325.032 -243.507
L325.061 -236.149
L323.37 -232.2
L321.47 -228.791
L316.241 -226.261
L311.98 -221.433
L309.111 -219.062
L301.982 -218.291
L299.595 -221.433
L298.512 -228.791
L294.852 -233.818
L294.026 -236.149
L294.852 -239.823
L301.982 -243.435
L302.081 -243.507
L303.992 -250.865
L304.132 -258.223
L301.982 -260.054
L298.93 -258.223
L296.653 -250.865
L294.852 -247.758
L287.761 -250.865
L287.723 -250.872
L281.124 -258.223
L280.594 -260.029
L279.062 -265.581
L277.584 -272.939
L273.464 -279.797
L272.962 -280.297
L273.464 -281.889
L274.551 -287.655
L274.317 -295.013
L273.464 -296.015
L271.149 -295.013
L266.335 -290.852
L263.501 -295.013
L262.145 -302.371
L259.206 -303.599
L252.442 -309.729
L252.076 -311.962
L244.947 -311.847
L242.252 -317.087
L237.817 -320.495
L230.688 -321.674
L223.559 -319.439
L216.429 -321.595
L211.867 -324.444
L209.3 -328.931
L205.048 -324.444
L202.171 -318.777
L195.041 -322.56
L191.455 -317.087
L195.041 -310.582
L196.229 -309.729
L195.041 -303.125
L187.912 -302.509
L185.619 -309.729
L180.782 -314.865
L178.419 -317.087
L180.782 -320.176
L183.485 -324.444
L180.782 -331.747
L176.373 -324.444
L173.653 -322.259
L171.03 -324.444
L166.524 -328.499
L159.394 -329.383
L154.303 -331.802
L154.757 -339.16
L152.265 -341.099
L145.968 -339.16
L145.734 -331.802
L145.136 -331.154
L138.006 -325.011
L137.519 -324.444
L130.877 -321.326
L127.873 -317.087
L124.04 -309.729
L127.178 -302.371
L130.877 -298.42
L131.929 -295.013
L130.906 -287.655
L130.877 -287.568
L123.747 -283.565
L122.77 -280.297
L123.747 -277.65
L125.202 -272.939
L125.204 -265.581
L129.753 -258.223
L129.196 -250.865
L130.877 -248.012
L133.398 -243.507
L136.828 -236.149
L130.877 -232.642
L126.143 -228.791
L130.877 -225.709
L136.789 -228.791
L138.006 -232.715
L141.403 -228.791
L145.136 -225.238
L146.271 -221.433
L145.136 -218.732
L143.062 -214.075
L145.136 -210.919
L152.265 -212.581
L155.111 -214.075
L159.394 -218.875
L166.524 -216.292
L171.1 -221.433
L173.653 -222.749
L178.586 -228.791
L180.782 -233.416
L187.912 -229.792
L190.518 -228.791
L187.912 -227.322
L181.873 -221.433
L187.912 -215.181
L188.753 -214.075
L195.041 -209.337
L198.066 -206.717
L195.041 -203.562
L191.198 -199.359
L195.041 -195.064
L202.171 -192.001
L209.3 -193.875
L210.142 -192.001
L216.429 -185.549
L218.759 -184.643
L216.429 -178.063
L215.879 -177.285
L216.429 -176.699
L219.239 -169.927
L223.559 -164.725
L224.671 -162.569
L230.288 -155.211
L230.688 -154.495
L237.817 -148.446
L244.947 -151.683
L246.956 -147.853
L244.947 -144.839
L240.624 -140.496
L244.947 -136.898
M287.723 -191.997
L287.715 -192.001
L287.723 -192.004
L287.736 -192.001
L287.723 -191.997
M301.982 -190.221
L298.382 -192.001
L301.982 -192.798
L308.732 -199.359
L308.557 -206.717
L309.111 -206.862
L309.161 -206.717
L309.74 -199.359
L314.991 -192.001
L309.111 -191.792
L301.982 -190.221
M316.241 -183.3
L316.111 -184.643
L316.241 -190.147
L317.475 -184.643
L316.241 -183.3
M330.499 -169.659
L329.423 -169.927
L330.499 -171.695
L330.674 -169.927
L330.499 -169.659
M330.499 -206.485
L329.647 -206.717
L330.499 -210.122
L332.455 -206.717
L330.499 -206.485
M330.499 -215.108
L328.827 -221.433
L330.499 -224.554
L334.038 -221.433
L330.499 -215.108
M166.524 -226.698
L165.269 -228.791
L166.524 -229.969
L167.481 -228.791
L166.524 -226.698
M173.653 -309.5
L171.744 -309.729
L173.653 -310.921
L174.682 -309.729
L173.653 -309.5
M195.041 -286.697
L194.023 -287.655
L195.041 -288.855
L195.903 -287.655
L195.041 -286.697
M209.3 -308.958
L208.152 -309.729
L209.3 -311.794
L213.136 -309.729
L209.3 -308.958" id="C2_4_4217738163"/>
     <path d="
M294.852 -145.866
L299.949 -147.853
L294.852 -154.34
L292.169 -147.853
L294.852 -145.866" id="C2_5_2ed6564be6"/>
     <path d="
M294.852 -156.984
L297.331 -162.569
L294.852 -165.199
L293.263 -162.569
L294.852 -156.984" id="C2_6_d7e14fc519"/>
     <path d="
M373.275 -168.404
L374.379 -169.927
L373.275 -171.36
L371.651 -169.927
L373.275 -168.404" id="C2_7_4756858533"/>
     <path d="
M166.524 -195.561
L170.201 -199.359
L172.184 -206.717
L166.524 -213.659
L160.258 -206.717
L163.159 -199.359
L166.524 -195.561" id="C2_8_6f141a652e"/>
     <path d="
M180.782 -195.014
L186.394 -199.359
L180.782 -205.969
L175.322 -199.359
L180.782 -195.014" id="C2_9_a4dc45c1cf"/>
     <path d="
M351.887 -257.734
L352.171 -258.223
L351.887 -258.569
L351.518 -258.223
L351.887 -257.734" id="C2_a_46d1bc12f9"/>
     <path d="
M337.629 -265.49
L337.684 -265.581
L337.629 -265.625
L337.549 -265.581
L337.629 -265.49" id="C2_b_1c44c5af90"/>
     <path d="
M330.499 -278.831
L331.254 -280.297
L330.499 -280.962
L329.539 -280.297
L330.499 -278.831" id="C2_c_7f3fbbd61b"/>
     <path d="
M116.618 -293.764
L118.549 -295.013
L116.618 -295.863
L115.377 -295.013
L116.618 -293.764" id="C2_d_510f1c39d8"/>
     <path d="
M351.887 -301.101
L352.813 -302.371
L351.887 -303.331
L350.94 -302.371
L351.887 -301.101" id="C2_e_f32e167435"/>
     <path d="
M252.076 -319.966
L252.975 -324.444
L252.076 -325.363
L250.738 -324.444
L252.076 -319.966" id="C2_f_464a670b60"/>
     <path d="
M138.006 -335.454
L144.552 -339.16
L138.006 -341.836
L134.708 -339.16
L138.006 -335.454" id="C2_10_b8714d26df"/>
     <path d="
M173.653 -342.298
L177.175 -346.518
L173.653 -350.159
L169.927 -346.518
L173.653 -342.298" id="C2_11_15feec3089"/>
    </defs>
    <g clip-path="url(#p3b6e3cd78f)">
     <use style="fill:#0000ff;" x="0.0" xlink:href="#C2_0_96091fcf8a" y="432.0"/>
    </g>
    <g clip-path="url(#p3b6e3cd78f)">
     <use style="fill:#0000ff;" x="0.0" xlink:href="#C2_1_269597e2ac" y="432.0"/>
    </g>
    <g clip-path="url(#p3b6e3cd78f)">
     <use style="fill:#0000ff;" x="0.0" xlink:href="#C2_2_2788f0ed13" y="432.0"/>
    </g>
    <g clip-path="url(#p3b6e3cd78f)">
     <use style="fill:#0000ff;" x="0.0" xlink:href="#C2_3_3b8fb5fbce" y="432.0"/>
    </g>
    <g clip-path="url(#p3b6e3cd78f)">
     <use style="fill:#0000ff;" x="0.0" xlink:href="#C2_4_4217738163" y="432.0"/>
    </g>
    <g clip-path="url(#p3b6e3cd78f)">
     <use style="fill:#0000ff;" x="0.0" xlink:href="#C2_5_2ed6564be6" y="432.0"/>
    </g>
    <g clip-path="url(#p3b6e3cd78f)">
     <use style="fill:#0000ff;" x="0.0" xlink:href="#C2_6_d7e14fc519" y="432.0"/>
    </g>
    <g clip-path="url(#p3b6e3cd78f)">
     <use style="fill:#0000ff;" x="0.0" xlink:href="#C2_7_4756858533" y="432.0"/>
    </g>
    <g clip-path="url(#p3b6e3cd78f)">
     <use style="fill:#0000ff;" x="0.0" xlink:href="#C2_8_6f141a652e" y="432.0"/>
    </g>
    <g clip-path="url(#p3b6e3cd78f)">
     <use style="fill:#0000ff;" x="0.0" xlink:href="#C2_9_a4dc45c1cf" y="432.0"/>
    </g>
    <g clip-path="url(#p3b6e3cd78f)">
     <use style="fill:#0000ff;" x="0.0" xlink:href="#C2_a_46d1bc12f9" y="432.0"/>
    </g>
    <g clip-path="url(#p3b6e3cd78f)">
     <use style="fill:#0000ff;" x="0.0" xlink:href="#C2_b_1c44c5af90" y="432.0"/>
    </g>
    <g clip-path="url(#p3b6e3cd78f)">
     <use style="fill:#0000ff;" x="0.0" xlink:href="#C2_c_7f3fbbd61b" y="432.0"/>
    </g>
    <g clip-path="url(#p3b6e3cd78f)">
     <use style="fill:#0000ff;" x="0.0" xlink:href="#C2_d_510f1c39d8" y="432.0"/>
    </g>
    <g clip-path="url(#p3b6e3cd78f)">
     <use style="fill:#0000ff;" x="0.0" xlink:href="#C2_e_f32e167435" y="432.0"/>
    </g>
    <g clip-path="url(#p3b6e3cd78f)">
     <use style="fill:#0000ff;" x="0.0" xlink:href="#C2_f_464a670b60" y="432.0"/>
    </g>
    <g clip-path="url(#p3b6e3cd78f)">
     <use style="fill:#0000ff;" x="0.0" xlink:href="#C2_10_b8714d26df" y="432.0"/>
    </g>
    <g clip-path="url(#p3b6e3cd78f)">
     <use style="fill:#0000ff;" x="0.0" xlink:href="#C2_11_15feec3089" y="432.0"/>
    </g>
   </g>
   <g id="line2d_1">
    <path clip-path="url(#p3b6e3cd78f)" d="
M241.382 199.53" style="fill:none;stroke:#fa8072;stroke-linecap:square;"/>
    <defs>
     <path d="
M-7.5 0
L7.5 0
M0 7.5
L0 -7.5" id="m415119b0dc" style="stroke:#fa8072;stroke-width:3;"/>
    </defs>
    <g clip-path="url(#p3b6e3cd78f)">
     <use style="fill:#fa8072;stroke:#fa8072;stroke-width:3;" x="241.382109375" xlink:href="#m415119b0dc" y="199.53"/>
    </g>
   </g>
   <g id="matplotlib.axis_1">
    <g id="xtick_1">
     <g id="line2d_2">
      <path clip-path="url(#p3b6e3cd78f)" d="
M66.7125 379.8
L66.7125 19.26" style="fill:none;stroke:#000000;stroke-dasharray:1.000000,3.000000;stroke-dashoffset:0.0;stroke-width:0.5;"/>
     </g>
     <g id="line2d_3">
      <defs>
       <path d="
M0 0
L0 -4" id="m93b0483c22" style="stroke:#000000;stroke-width:0.5;"/>
      </defs>
      <g>
       <use style="stroke:#000000;stroke-width:0.5;" x="66.7125" xlink:href="#m93b0483c22" y="379.8"/>
      </g>
     </g>
     <g id="line2d_4">
      <defs>
       <path d="
M0 0
L0 4" id="m741efc42ff" style="stroke:#000000;stroke-width:0.5;"/>
      </defs>
      <g>
       <use style="stroke:#000000;stroke-width:0.5;" x="66.7125" xlink:href="#m741efc42ff" y="19.26"/>
      </g>
     </g>
     <g id="text_1">
      <!-- −6 -->
      <defs>
       <path d="
M33.0156 40.375
Q26.375 40.375 22.4844 35.8281
Q18.6094 31.2969 18.6094 23.3906
Q18.6094 15.5312 22.4844 10.9531
Q26.375 6.39062 33.0156 6.39062
Q39.6562 6.39062 43.5312 10.9531
Q47.4062 15.5312 47.4062 23.3906
Q47.4062 31.2969 43.5312 35.8281
Q39.6562 40.375 33.0156 40.375
M52.5938 71.2969
L52.5938 62.3125
Q48.875 64.0625 45.0938 64.9844
Q41.3125 65.9219 37.5938 65.9219
Q27.8281 65.9219 22.6719 59.3281
Q17.5312 52.7344 16.7969 39.4062
Q19.6719 43.6562 24.0156 45.9219
Q28.375 48.1875 33.5938 48.1875
Q44.5781 48.1875 50.9531 41.5156
Q57.3281 34.8594 57.3281 23.3906
Q57.3281 12.1562 50.6875 5.35938
Q44.0469 -1.42188 33.0156 -1.42188
Q20.3594 -1.42188 13.6719 8.26562
Q6.98438 17.9688 6.98438 36.375
Q6.98438 53.6562 15.1875 63.9375
Q23.3906 74.2188 37.2031 74.2188
Q40.9219 74.2188 44.7031 73.4844
Q48.4844 72.75 52.5938 71.2969" id="DejaVuSans-36"/>
       <path d="
M10.5938 35.5
L73.1875 35.5
L73.1875 27.2031
L10.5938 27.2031
z
" id="DejaVuSans-2212"/>
      </defs>
      <g transform="translate(58.880625 392.918125)scale(0.12 -0.12)">
       <use xlink:href="#DejaVuSans-2212"/>
       <use x="83.7890625" xlink:href="#DejaVuSans-36"/>
      </g>
     </g>
    </g>
    <g id="xtick_2">
     <g id="line2d_5">
      <path clip-path="url(#p3b6e3cd78f)" d="
M124.936 379.8
L124.936 19.26" style="fill:none;stroke:#000000;stroke-dasharray:1.000000,3.000000;stroke-dashoffset:0.0;stroke-width:0.5;"/>
     </g>
     <g id="line2d_6">
      <g>
       <use style="stroke:#000000;stroke-width:0.5;" x="124.935703125" xlink:href="#m93b0483c22" y="379.8"/>
      </g>
     </g>
     <g id="line2d_7">
      <g>
       <use style="stroke:#000000;stroke-width:0.5;" x="124.935703125" xlink:href="#m741efc42ff" y="19.26"/>
      </g>
     </g>
     <g id="text_2">
      <!-- −4 -->
      <defs>
       <path d="
M37.7969 64.3125
L12.8906 25.3906
L37.7969 25.3906
z

M35.2031 72.9062
L47.6094 72.9062
L47.6094 25.3906
L58.0156 25.3906
L58.0156 17.1875
L47.6094 17.1875
L47.6094 0
L37.7969 0
L37.7969 17.1875
L4.89062 17.1875
L4.89062 26.7031
z
" id="DejaVuSans-34"/>
      </defs>
      <g transform="translate(117.062578125 392.918125)scale(0.12 -0.12)">
       <use xlink:href="#DejaVuSans-2212"/>
       <use x="83.7890625" xlink:href="#DejaVuSans-34"/>
      </g>
     </g>
    </g>
    <g id="xtick_3">
     <g id="line2d_8">
      <path clip-path="url(#p3b6e3cd78f)" d="
M183.159 379.8
L183.159 19.26" style="fill:none;stroke:#000000;stroke-dasharray:1.000000,3.000000;stroke-dashoffset:0.0;stroke-width:0.5;"/>
     </g>
     <g id="line2d_9">
      <g>
       <use style="stroke:#000000;stroke-width:0.5;" x="183.15890625" xlink:href="#m93b0483c22" y="379.8"/>
      </g>
     </g>
     <g id="line2d_10">
      <g>
       <use style="stroke:#000000;stroke-width:0.5;" x="183.15890625" xlink:href="#m741efc42ff" y="19.26"/>
      </g>
     </g>
     <g id="text_3">
      <!-- −2 -->
      <defs>
       <path d="
M19.1875 8.29688
L53.6094 8.29688
L53.6094 0
L7.32812 0
L7.32812 8.29688
Q12.9375 14.1094 22.625 23.8906
Q32.3281 33.6875 34.8125 36.5312
Q39.5469 41.8438 41.4219 45.5312
Q43.3125 49.2188 43.3125 52.7812
Q43.3125 58.5938 39.2344 62.25
Q35.1562 65.9219 28.6094 65.9219
Q23.9688 65.9219 18.8125 64.3125
Q13.6719 62.7031 7.8125 59.4219
L7.8125 69.3906
Q13.7656 71.7812 18.9375 73
Q24.125 74.2188 28.4219 74.2188
Q39.75 74.2188 46.4844 68.5469
Q53.2188 62.8906 53.2188 53.4219
Q53.2188 48.9219 51.5312 44.8906
Q49.8594 40.875 45.4062 35.4062
Q44.1875 33.9844 37.6406 27.2188
Q31.1094 20.4531 19.1875 8.29688" id="DejaVuSans-32"/>
      </defs>
      <g transform="translate(175.55015625 392.918125)scale(0.12 -0.12)">
       <use xlink:href="#DejaVuSans-2212"/>
       <use x="83.7890625" xlink:href="#DejaVuSans-32"/>
      </g>
     </g>
    </g>
    <g id="xtick_4">
     <g id="line2d_11">
      <path clip-path="url(#p3b6e3cd78f)" d="
M241.382 379.8
L241.382 19.26" style="fill:none;stroke:#000000;stroke-dasharray:1.000000,3.000000;stroke-dashoffset:0.0;stroke-width:0.5;"/>
     </g>
     <g id="line2d_12">
      <g>
       <use style="stroke:#000000;stroke-width:0.5;" x="241.382109375" xlink:href="#m93b0483c22" y="379.8"/>
      </g>
     </g>
     <g id="line2d_13">
      <g>
       <use style="stroke:#000000;stroke-width:0.5;" x="241.382109375" xlink:href="#m741efc42ff" y="19.26"/>
      </g>
     </g>
     <g id="text_4">
      <!-- 0 -->
      <defs>
       <path d="
M31.7812 66.4062
Q24.1719 66.4062 20.3281 58.9062
Q16.5 51.4219 16.5 36.375
Q16.5 21.3906 20.3281 13.8906
Q24.1719 6.39062 31.7812 6.39062
Q39.4531 6.39062 43.2812 13.8906
Q47.125 21.3906 47.125 36.375
Q47.125 51.4219 43.2812 58.9062
Q39.4531 66.4062 31.7812 66.4062
M31.7812 74.2188
Q44.0469 74.2188 50.5156 64.5156
Q56.9844 54.8281 56.9844 36.375
Q56.9844 17.9688 50.5156 8.26562
Q44.0469 -1.42188 31.7812 -1.42188
Q19.5312 -1.42188 13.0625 8.26562
Q6.59375 17.9688 6.59375 36.375
Q6.59375 54.8281 13.0625 64.5156
Q19.5312 74.2188 31.7812 74.2188" id="DejaVuSans-30"/>
      </defs>
      <g transform="translate(238.358671875 392.918125)scale(0.12 -0.12)">
       <use xlink:href="#DejaVuSans-30"/>
      </g>
     </g>
    </g>
    <g id="xtick_5">
     <g id="line2d_14">
      <path clip-path="url(#p3b6e3cd78f)" d="
M299.605 379.8
L299.605 19.26" style="fill:none;stroke:#000000;stroke-dasharray:1.000000,3.000000;stroke-dashoffset:0.0;stroke-width:0.5;"/>
     </g>
     <g id="line2d_15">
      <g>
       <use style="stroke:#000000;stroke-width:0.5;" x="299.6053125" xlink:href="#m93b0483c22" y="379.8"/>
      </g>
     </g>
     <g id="line2d_16">
      <g>
       <use style="stroke:#000000;stroke-width:0.5;" x="299.6053125" xlink:href="#m741efc42ff" y="19.26"/>
      </g>
     </g>
     <g id="text_5">
      <!-- 2 -->
      <g transform="translate(296.8284375 392.918125)scale(0.12 -0.12)">
       <use xlink:href="#DejaVuSans-32"/>
      </g>
     </g>
    </g>
    <g id="xtick_6">
     <g id="line2d_17">
      <path clip-path="url(#p3b6e3cd78f)" d="
M357.829 379.8
L357.829 19.26" style="fill:none;stroke:#000000;stroke-dasharray:1.000000,3.000000;stroke-dashoffset:0.0;stroke-width:0.5;"/>
     </g>
     <g id="line2d_18">
      <g>
       <use style="stroke:#000000;stroke-width:0.5;" x="357.828515625" xlink:href="#m93b0483c22" y="379.8"/>
      </g>
     </g>
     <g id="line2d_19">
      <g>
       <use style="stroke:#000000;stroke-width:0.5;" x="357.828515625" xlink:href="#m741efc42ff" y="19.26"/>
      </g>
     </g>
     <g id="text_6">
      <!-- 4 -->
      <g transform="translate(354.641015625 392.918125)scale(0.12 -0.12)">
       <use xlink:href="#DejaVuSans-34"/>
      </g>
     </g>
    </g>
    <g id="xtick_7">
     <g id="line2d_20">
      <path clip-path="url(#p3b6e3cd78f)" d="
M416.052 379.8
L416.052 19.26" style="fill:none;stroke:#000000;stroke-dasharray:1.000000,3.000000;stroke-dashoffset:0.0;stroke-width:0.5;"/>
     </g>
     <g id="line2d_21">
      <g>
       <use style="stroke:#000000;stroke-width:0.5;" x="416.05171875" xlink:href="#m93b0483c22" y="379.8"/>
      </g>
     </g>
     <g id="line2d_22">
      <g>
       <use style="stroke:#000000;stroke-width:0.5;" x="416.05171875" xlink:href="#m741efc42ff" y="19.26"/>
      </g>
     </g>
     <g id="text_7">
      <!-- 6 -->
      <g transform="translate(413.03109375 392.918125)scale(0.12 -0.12)">
       <use xlink:href="#DejaVuSans-36"/>
      </g>
     </g>
    </g>
    <g id="xtick_8">
     <g id="line2d_23">
      <defs>
       <path d="
M0 0
L0 -2" id="m177f7580d0" style="stroke:#000000;stroke-width:0.5;"/>
      </defs>
      <g>
       <use style="stroke:#000000;stroke-width:0.5;" x="81.2683007813" xlink:href="#m177f7580d0" y="379.8"/>
      </g>
     </g>
     <g id="line2d_24">
      <defs>
       <path d="
M0 0
L0 2" id="m5284c7e2a0" style="stroke:#000000;stroke-width:0.5;"/>
      </defs>
      <g>
       <use style="stroke:#000000;stroke-width:0.5;" x="81.2683007813" xlink:href="#m5284c7e2a0" y="19.26"/>
      </g>
     </g>
    </g>
    <g id="xtick_9">
     <g id="line2d_25">
      <g>
       <use style="stroke:#000000;stroke-width:0.5;" x="95.8241015625" xlink:href="#m177f7580d0" y="379.8"/>
      </g>
     </g>
     <g id="line2d_26">
      <g>
       <use style="stroke:#000000;stroke-width:0.5;" x="95.8241015625" xlink:href="#m5284c7e2a0" y="19.26"/>
      </g>
     </g>
    </g>
    <g id="xtick_10">
     <g id="line2d_27">
      <g>
       <use style="stroke:#000000;stroke-width:0.5;" x="110.379902344" xlink:href="#m177f7580d0" y="379.8"/>
      </g>
     </g>
     <g id="line2d_28">
      <g>
       <use style="stroke:#000000;stroke-width:0.5;" x="110.379902344" xlink:href="#m5284c7e2a0" y="19.26"/>
      </g>
     </g>
    </g>
    <g id="xtick_11">
     <g id="line2d_29">
      <g>
       <use style="stroke:#000000;stroke-width:0.5;" x="139.491503906" xlink:href="#m177f7580d0" y="379.8"/>
      </g>
     </g>
     <g id="line2d_30">
      <g>
       <use style="stroke:#000000;stroke-width:0.5;" x="139.491503906" xlink:href="#m5284c7e2a0" y="19.26"/>
      </g>
     </g>
    </g>
    <g id="xtick_12">
     <g id="line2d_31">
      <g>
       <use style="stroke:#000000;stroke-width:0.5;" x="154.047304688" xlink:href="#m177f7580d0" y="379.8"/>
      </g>
     </g>
     <g id="line2d_32">
      <g>
       <use style="stroke:#000000;stroke-width:0.5;" x="154.047304688" xlink:href="#m5284c7e2a0" y="19.26"/>
      </g>
     </g>
    </g>
    <g id="xtick_13">
     <g id="line2d_33">
      <g>
       <use style="stroke:#000000;stroke-width:0.5;" x="168.603105469" xlink:href="#m177f7580d0" y="379.8"/>
      </g>
     </g>
     <g id="line2d_34">
      <g>
       <use style="stroke:#000000;stroke-width:0.5;" x="168.603105469" xlink:href="#m5284c7e2a0" y="19.26"/>
      </g>
     </g>
    </g>
    <g id="xtick_14">
     <g id="line2d_35">
      <g>
       <use style="stroke:#000000;stroke-width:0.5;" x="197.714707031" xlink:href="#m177f7580d0" y="379.8"/>
      </g>
     </g>
     <g id="line2d_36">
      <g>
       <use style="stroke:#000000;stroke-width:0.5;" x="197.714707031" xlink:href="#m5284c7e2a0" y="19.26"/>
      </g>
     </g>
    </g>
    <g id="xtick_15">
     <g id="line2d_37">
      <g>
       <use style="stroke:#000000;stroke-width:0.5;" x="212.270507812" xlink:href="#m177f7580d0" y="379.8"/>
      </g>
     </g>
     <g id="line2d_38">
      <g>
       <use style="stroke:#000000;stroke-width:0.5;" x="212.270507812" xlink:href="#m5284c7e2a0" y="19.26"/>
      </g>
     </g>
    </g>
    <g id="xtick_16">
     <g id="line2d_39">
      <g>
       <use style="stroke:#000000;stroke-width:0.5;" x="226.826308594" xlink:href="#m177f7580d0" y="379.8"/>
      </g>
     </g>
     <g id="line2d_40">
      <g>
       <use style="stroke:#000000;stroke-width:0.5;" x="226.826308594" xlink:href="#m5284c7e2a0" y="19.26"/>
      </g>
     </g>
    </g>
    <g id="xtick_17">
     <g id="line2d_41">
      <g>
       <use style="stroke:#000000;stroke-width:0.5;" x="255.937910156" xlink:href="#m177f7580d0" y="379.8"/>
      </g>
     </g>
     <g id="line2d_42">
      <g>
       <use style="stroke:#000000;stroke-width:0.5;" x="255.937910156" xlink:href="#m5284c7e2a0" y="19.26"/>
      </g>
     </g>
    </g>
    <g id="xtick_18">
     <g id="line2d_43">
      <g>
       <use style="stroke:#000000;stroke-width:0.5;" x="270.493710937" xlink:href="#m177f7580d0" y="379.8"/>
      </g>
     </g>
     <g id="line2d_44">
      <g>
       <use style="stroke:#000000;stroke-width:0.5;" x="270.493710937" xlink:href="#m5284c7e2a0" y="19.26"/>
      </g>
     </g>
    </g>
    <g id="xtick_19">
     <g id="line2d_45">
      <g>
       <use style="stroke:#000000;stroke-width:0.5;" x="285.049511719" xlink:href="#m177f7580d0" y="379.8"/>
      </g>
     </g>
     <g id="line2d_46">
      <g>
       <use style="stroke:#000000;stroke-width:0.5;" x="285.049511719" xlink:href="#m5284c7e2a0" y="19.26"/>
      </g>
     </g>
    </g>
    <g id="xtick_20">
     <g id="line2d_47">
      <g>
       <use style="stroke:#000000;stroke-width:0.5;" x="314.161113281" xlink:href="#m177f7580d0" y="379.8"/>
      </g>
     </g>
     <g id="line2d_48">
      <g>
       <use style="stroke:#000000;stroke-width:0.5;" x="314.161113281" xlink:href="#m5284c7e2a0" y="19.26"/>
      </g>
     </g>
    </g>
    <g id="xtick_21">
     <g id="line2d_49">
      <g>
       <use style="stroke:#000000;stroke-width:0.5;" x="328.716914062" xlink:href="#m177f7580d0" y="379.8"/>
      </g>
     </g>
     <g id="line2d_50">
      <g>
       <use style="stroke:#000000;stroke-width:0.5;" x="328.716914062" xlink:href="#m5284c7e2a0" y="19.26"/>
      </g>
     </g>
    </g>
    <g id="xtick_22">
     <g id="line2d_51">
      <g>
       <use style="stroke:#000000;stroke-width:0.5;" x="343.272714844" xlink:href="#m177f7580d0" y="379.8"/>
      </g>
     </g>
     <g id="line2d_52">
      <g>
       <use style="stroke:#000000;stroke-width:0.5;" x="343.272714844" xlink:href="#m5284c7e2a0" y="19.26"/>
      </g>
     </g>
    </g>
    <g id="xtick_23">
     <g id="line2d_53">
      <g>
       <use style="stroke:#000000;stroke-width:0.5;" x="372.384316406" xlink:href="#m177f7580d0" y="379.8"/>
      </g>
     </g>
     <g id="line2d_54">
      <g>
       <use style="stroke:#000000;stroke-width:0.5;" x="372.384316406" xlink:href="#m5284c7e2a0" y="19.26"/>
      </g>
     </g>
    </g>
    <g id="xtick_24">
     <g id="line2d_55">
      <g>
       <use style="stroke:#000000;stroke-width:0.5;" x="386.940117187" xlink:href="#m177f7580d0" y="379.8"/>
      </g>
     </g>
     <g id="line2d_56">
      <g>
       <use style="stroke:#000000;stroke-width:0.5;" x="386.940117187" xlink:href="#m5284c7e2a0" y="19.26"/>
      </g>
     </g>
    </g>
    <g id="xtick_25">
     <g id="line2d_57">
      <g>
       <use style="stroke:#000000;stroke-width:0.5;" x="401.495917969" xlink:href="#m177f7580d0" y="379.8"/>
      </g>
     </g>
     <g id="line2d_58">
      <g>
       <use style="stroke:#000000;stroke-width:0.5;" x="401.495917969" xlink:href="#m5284c7e2a0" y="19.26"/>
      </g>
     </g>
    </g>
    <g id="text_8">
     <!-- $\mathcal{C}_{10}^{\prime}$ -->
     <defs>
      <path d="
M3.51562 5.42188
Q2.875 5.60938 2.875 6.39062
L15.0938 51.8125
Q15.6719 53.6562 17.0781 54.7812
Q18.5 55.9062 20.3125 55.9062
Q22.6562 55.9062 24.4375 54.3594
Q26.2188 52.8281 26.2188 50.4844
Q26.2188 49.4688 25.6875 48.1875
L7.625 4.98438
Q7.28125 4.29688 6.6875 4.29688
Q6.15625 4.29688 5 4.78125
Q3.85938 5.28125 3.51562 5.42188" id="Cmsy10-30"/>
      <path d="
M9.28125 0
L9.28125 3.51562
Q21.7812 3.51562 21.7812 6.6875
L21.7812 59.1875
Q16.6094 56.6875 8.6875 56.6875
L8.6875 60.2031
Q20.9531 60.2031 27.2031 66.6094
L28.6094 66.6094
Q28.9531 66.6094 29.2656 66.3281
Q29.5938 66.0625 29.5938 65.7188
L29.5938 6.6875
Q29.5938 3.51562 42.0938 3.51562
L42.0938 0
z
" id="Cmr10-31"/>
      <path d="
M25 -2.20312
Q12.75 -2.20312 8.32812 7.875
Q3.90625 17.9688 3.90625 31.8906
Q3.90625 40.5781 5.48438 48.2344
Q7.07812 55.9062 11.7812 61.25
Q16.5 66.6094 25 66.6094
Q31.5938 66.6094 35.7812 63.375
Q39.9844 60.1562 42.1875 55.0469
Q44.3906 49.9531 45.1875 44.1094
Q46 38.2812 46 31.8906
Q46 23.2969 44.4062 15.7969
Q42.8281 8.29688 38.1875 3.04688
Q33.5469 -2.20312 25 -2.20312
M25 0.390625
Q30.5625 0.390625 33.2969 6.09375
Q36.0312 11.8125 36.6719 18.75
Q37.3125 25.6875 37.3125 33.5
Q37.3125 41.0156 36.6719 47.3594
Q36.0312 53.7188 33.3125 58.8594
Q30.6094 64.0156 25 64.0156
Q19.3438 64.0156 16.6094 58.8281
Q13.875 53.6562 13.2344 47.3281
Q12.5938 41.0156 12.5938 33.5
Q12.5938 27.9375 12.8594 23
Q13.1406 18.0625 14.3125 12.8125
Q15.4844 7.5625 18.0938 3.96875
Q20.7031 0.390625 25 0.390625" id="Cmr10-30"/>
      <path d="
M19.6719 -2.39062
Q14.9375 -2.39062 11.4375 -0.5625
Q7.95312 1.26562 5.64062 4.5625
Q3.32812 7.85938 2.26562 11.8125
Q1.21875 15.7656 1.21875 20.3125
Q1.21875 29.25 4.51562 38.3594
Q7.8125 47.4688 13.7656 54.7188
Q19.7344 61.9688 27.9062 66.2344
Q36.0781 70.5156 45.5156 70.5156
L46.0938 70.5156
Q49.3594 70.5156 51.3906 68.8438
Q53.4219 67.1875 53.4219 64.0156
Q53.4219 61.2344 51.8125 57.4688
Q50.2031 53.7188 47.9062 49.6094
Q46.8281 47.7969 44.6562 46.4844
Q42.4844 45.1719 40.1875 44.9219
L39.7031 44.9219
Q39.0156 45.2656 39.0156 45.6094
Q39.0156 46.0469 40.5938 49.1719
Q42.1875 52.2969 43.3281 55.0469
Q44.4844 57.8125 44.4844 59.8125
Q44.4844 62.25 42.9375 63.4219
Q41.4062 64.5938 38.8125 64.5938
Q31.4531 64.5938 26.4375 61.0781
Q21.4375 57.5625 17.3906 50.6875
Q14.0156 44.875 12.0625 38.1094
Q10.1094 31.3438 10.1094 24.6094
Q10.1094 19.0938 11.8594 14.2344
Q13.625 9.375 17.4219 6.4375
Q21.2344 3.51562 27 3.51562
Q33.0625 3.51562 37.7969 8.01562
Q38.4219 8.6875 40.4062 11.2969
Q42.3906 13.9219 44.0938 15.1406
Q45.7969 16.3594 48.4844 16.6094
L49.0312 16.6094
Q49.7031 16.2656 49.7031 15.8281
Q49.7031 15.4375 49.4219 14.9844
Q46.5781 10.2969 41.7969 6.29688
Q37.0156 2.29688 31.2969 -0.046875
Q25.5938 -2.39062 20.3125 -2.39062
z
" id="Cmsy10-43"/>
     </defs>
     <g transform="translate(234.002109375 410.61375)scale(0.12 -0.12)">
      <use transform="translate(0.0 0.859375)" xlink:href="#Cmsy10-43"/>
      <use transform="translate(52.587890625 45.865625)scale(0.7)" xlink:href="#Cmsy10-30"/>
      <use transform="translate(52.587890625 -24.65)scale(0.7)" xlink:href="#Cmr10-31"/>
      <use transform="translate(87.587890625 -24.65)scale(0.7)" xlink:href="#Cmr10-30"/>
     </g>
    </g>
   </g>
   <g id="matplotlib.axis_2">
    <g id="ytick_1">
     <g id="text_9">
      <!-- −0.6 -->
      <defs>
       <path d="
M10.6875 12.4062
L21 12.4062
L21 0
L10.6875 0
z
" id="DejaVuSans-2e"/>
      </defs>
      <g transform="translate(35.6 383.11125)scale(0.12 -0.12)">
       <use xlink:href="#DejaVuSans-2212"/>
       <use x="83.7890625" xlink:href="#DejaVuSans-30"/>
       <use x="147.412109375" xlink:href="#DejaVuSans-2e"/>
       <use x="179.19921875" xlink:href="#DejaVuSans-36"/>
      </g>
     </g>
    </g>
    <g id="ytick_2">
     <g id="line2d_59">
      <path clip-path="url(#p3b6e3cd78f)" d="
M66.7125 319.71
L416.052 319.71" style="fill:none;stroke:#000000;stroke-dasharray:1.000000,3.000000;stroke-dashoffset:0.0;stroke-width:0.5;"/>
     </g>
     <g id="line2d_60">
      <defs>
       <path d="
M0 0
L4 0" id="m728421d6d4" style="stroke:#000000;stroke-width:0.5;"/>
      </defs>
      <g>
       <use style="stroke:#000000;stroke-width:0.5;" x="66.7125" xlink:href="#m728421d6d4" y="319.71"/>
      </g>
     </g>
     <g id="line2d_61">
      <defs>
       <path d="
M0 0
L-4 0" id="mcb0005524f" style="stroke:#000000;stroke-width:0.5;"/>
      </defs>
      <g>
       <use style="stroke:#000000;stroke-width:0.5;" x="416.05171875" xlink:href="#mcb0005524f" y="319.71"/>
      </g>
     </g>
     <g id="text_10">
      <!-- −0.4 -->
      <g transform="translate(35.5175 323.02125)scale(0.12 -0.12)">
       <use xlink:href="#DejaVuSans-2212"/>
       <use x="83.7890625" xlink:href="#DejaVuSans-30"/>
       <use x="147.412109375" xlink:href="#DejaVuSans-2e"/>
       <use x="179.19921875" xlink:href="#DejaVuSans-34"/>
      </g>
     </g>
    </g>
    <g id="ytick_3">
     <g id="line2d_62">
      <path clip-path="url(#p3b6e3cd78f)" d="
M66.7125 259.62
L416.052 259.62" style="fill:none;stroke:#000000;stroke-dasharray:1.000000,3.000000;stroke-dashoffset:0.0;stroke-width:0.5;"/>
     </g>
     <g id="line2d_63">
      <g>
       <use style="stroke:#000000;stroke-width:0.5;" x="66.7125" xlink:href="#m728421d6d4" y="259.62"/>
      </g>
     </g>
     <g id="line2d_64">
      <g>
       <use style="stroke:#000000;stroke-width:0.5;" x="416.05171875" xlink:href="#mcb0005524f" y="259.62"/>
      </g>
     </g>
     <g id="text_11">
      <!-- −0.2 -->
      <g transform="translate(36.04625 262.93125)scale(0.12 -0.12)">
       <use xlink:href="#DejaVuSans-2212"/>
       <use x="83.7890625" xlink:href="#DejaVuSans-30"/>
       <use x="147.412109375" xlink:href="#DejaVuSans-2e"/>
       <use x="179.19921875" xlink:href="#DejaVuSans-32"/>
      </g>
     </g>
    </g>
    <g id="ytick_4">
     <g id="line2d_65">
      <path clip-path="url(#p3b6e3cd78f)" d="
M66.7125 199.53
L416.052 199.53" style="fill:none;stroke:#000000;stroke-dasharray:1.000000,3.000000;stroke-dashoffset:0.0;stroke-width:0.5;"/>
     </g>
     <g id="line2d_66">
      <g>
       <use style="stroke:#000000;stroke-width:0.5;" x="66.7125" xlink:href="#m728421d6d4" y="199.53"/>
      </g>
     </g>
     <g id="line2d_67">
      <g>
       <use style="stroke:#000000;stroke-width:0.5;" x="416.05171875" xlink:href="#mcb0005524f" y="199.53"/>
      </g>
     </g>
     <g id="text_12">
      <!-- 0.0 -->
      <g transform="translate(45.216875 202.84125)scale(0.12 -0.12)">
       <use xlink:href="#DejaVuSans-30"/>
       <use x="63.623046875" xlink:href="#DejaVuSans-2e"/>
       <use x="95.41015625" xlink:href="#DejaVuSans-30"/>
      </g>
     </g>
    </g>
    <g id="ytick_5">
     <g id="line2d_68">
      <path clip-path="url(#p3b6e3cd78f)" d="
M66.7125 139.44
L416.052 139.44" style="fill:none;stroke:#000000;stroke-dasharray:1.000000,3.000000;stroke-dashoffset:0.0;stroke-width:0.5;"/>
     </g>
     <g id="line2d_69">
      <g>
       <use style="stroke:#000000;stroke-width:0.5;" x="66.7125" xlink:href="#m728421d6d4" y="139.44"/>
      </g>
     </g>
     <g id="line2d_70">
      <g>
       <use style="stroke:#000000;stroke-width:0.5;" x="416.05171875" xlink:href="#mcb0005524f" y="139.44"/>
      </g>
     </g>
     <g id="text_13">
      <!-- 0.2 -->
      <g transform="translate(45.621875 142.75125)scale(0.12 -0.12)">
       <use xlink:href="#DejaVuSans-30"/>
       <use x="63.623046875" xlink:href="#DejaVuSans-2e"/>
       <use x="95.41015625" xlink:href="#DejaVuSans-32"/>
      </g>
     </g>
    </g>
    <g id="ytick_6">
     <g id="line2d_71">
      <path clip-path="url(#p3b6e3cd78f)" d="
M66.7125 79.35
L416.052 79.35" style="fill:none;stroke:#000000;stroke-dasharray:1.000000,3.000000;stroke-dashoffset:0.0;stroke-width:0.5;"/>
     </g>
     <g id="line2d_72">
      <g>
       <use style="stroke:#000000;stroke-width:0.5;" x="66.7125" xlink:href="#m728421d6d4" y="79.35"/>
      </g>
     </g>
     <g id="line2d_73">
      <g>
       <use style="stroke:#000000;stroke-width:0.5;" x="416.05171875" xlink:href="#mcb0005524f" y="79.35"/>
      </g>
     </g>
     <g id="text_14">
      <!-- 0.4 -->
      <g transform="translate(45.093125 82.66125)scale(0.12 -0.12)">
       <use xlink:href="#DejaVuSans-30"/>
       <use x="63.623046875" xlink:href="#DejaVuSans-2e"/>
       <use x="95.41015625" xlink:href="#DejaVuSans-34"/>
      </g>
     </g>
    </g>
    <g id="ytick_7">
     <g id="text_15">
      <!-- 0.6 -->
      <g transform="translate(45.175625 22.57125)scale(0.12 -0.12)">
       <use xlink:href="#DejaVuSans-30"/>
       <use x="63.623046875" xlink:href="#DejaVuSans-2e"/>
       <use x="95.41015625" xlink:href="#DejaVuSans-36"/>
      </g>
     </g>
    </g>
    <g id="ytick_8">
     <g id="line2d_74">
      <defs>
       <path d="
M0 0
L2 0" id="mf0c55a9a47" style="stroke:#000000;stroke-width:0.5;"/>
      </defs>
      <g>
       <use style="stroke:#000000;stroke-width:0.5;" x="66.7125" xlink:href="#mf0c55a9a47" y="364.7775"/>
      </g>
     </g>
     <g id="line2d_75">
      <defs>
       <path d="
M0 0
L-2 0" id="ma4f294b3af" style="stroke:#000000;stroke-width:0.5;"/>
      </defs>
      <g>
       <use style="stroke:#000000;stroke-width:0.5;" x="416.05171875" xlink:href="#ma4f294b3af" y="364.7775"/>
      </g>
     </g>
    </g>
    <g id="ytick_9">
     <g id="line2d_76">
      <g>
       <use style="stroke:#000000;stroke-width:0.5;" x="66.7125" xlink:href="#mf0c55a9a47" y="349.755"/>
      </g>
     </g>
     <g id="line2d_77">
      <g>
       <use style="stroke:#000000;stroke-width:0.5;" x="416.05171875" xlink:href="#ma4f294b3af" y="349.755"/>
      </g>
     </g>
    </g>
    <g id="ytick_10">
     <g id="line2d_78">
      <g>
       <use style="stroke:#000000;stroke-width:0.5;" x="66.7125" xlink:href="#mf0c55a9a47" y="334.7325"/>
      </g>
     </g>
     <g id="line2d_79">
      <g>
       <use style="stroke:#000000;stroke-width:0.5;" x="416.05171875" xlink:href="#ma4f294b3af" y="334.7325"/>
      </g>
     </g>
    </g>
    <g id="ytick_11">
     <g id="line2d_80">
      <g>
       <use style="stroke:#000000;stroke-width:0.5;" x="66.7125" xlink:href="#mf0c55a9a47" y="304.6875"/>
      </g>
     </g>
     <g id="line2d_81">
      <g>
       <use style="stroke:#000000;stroke-width:0.5;" x="416.05171875" xlink:href="#ma4f294b3af" y="304.6875"/>
      </g>
     </g>
    </g>
    <g id="ytick_12">
     <g id="line2d_82">
      <g>
       <use style="stroke:#000000;stroke-width:0.5;" x="66.7125" xlink:href="#mf0c55a9a47" y="289.665"/>
      </g>
     </g>
     <g id="line2d_83">
      <g>
       <use style="stroke:#000000;stroke-width:0.5;" x="416.05171875" xlink:href="#ma4f294b3af" y="289.665"/>
      </g>
     </g>
    </g>
    <g id="ytick_13">
     <g id="line2d_84">
      <g>
       <use style="stroke:#000000;stroke-width:0.5;" x="66.7125" xlink:href="#mf0c55a9a47" y="274.6425"/>
      </g>
     </g>
     <g id="line2d_85">
      <g>
       <use style="stroke:#000000;stroke-width:0.5;" x="416.05171875" xlink:href="#ma4f294b3af" y="274.6425"/>
      </g>
     </g>
    </g>
    <g id="ytick_14">
     <g id="line2d_86">
      <g>
       <use style="stroke:#000000;stroke-width:0.5;" x="66.7125" xlink:href="#mf0c55a9a47" y="244.5975"/>
      </g>
     </g>
     <g id="line2d_87">
      <g>
       <use style="stroke:#000000;stroke-width:0.5;" x="416.05171875" xlink:href="#ma4f294b3af" y="244.5975"/>
      </g>
     </g>
    </g>
    <g id="ytick_15">
     <g id="line2d_88">
      <g>
       <use style="stroke:#000000;stroke-width:0.5;" x="66.7125" xlink:href="#mf0c55a9a47" y="229.575"/>
      </g>
     </g>
     <g id="line2d_89">
      <g>
       <use style="stroke:#000000;stroke-width:0.5;" x="416.05171875" xlink:href="#ma4f294b3af" y="229.575"/>
      </g>
     </g>
    </g>
    <g id="ytick_16">
     <g id="line2d_90">
      <g>
       <use style="stroke:#000000;stroke-width:0.5;" x="66.7125" xlink:href="#mf0c55a9a47" y="214.5525"/>
      </g>
     </g>
     <g id="line2d_91">
      <g>
       <use style="stroke:#000000;stroke-width:0.5;" x="416.05171875" xlink:href="#ma4f294b3af" y="214.5525"/>
      </g>
     </g>
    </g>
    <g id="ytick_17">
     <g id="line2d_92">
      <g>
       <use style="stroke:#000000;stroke-width:0.5;" x="66.7125" xlink:href="#mf0c55a9a47" y="184.5075"/>
      </g>
     </g>
     <g id="line2d_93">
      <g>
       <use style="stroke:#000000;stroke-width:0.5;" x="416.05171875" xlink:href="#ma4f294b3af" y="184.5075"/>
      </g>
     </g>
    </g>
    <g id="ytick_18">
     <g id="line2d_94">
      <g>
       <use style="stroke:#000000;stroke-width:0.5;" x="66.7125" xlink:href="#mf0c55a9a47" y="169.485"/>
      </g>
     </g>
     <g id="line2d_95">
      <g>
       <use style="stroke:#000000;stroke-width:0.5;" x="416.05171875" xlink:href="#ma4f294b3af" y="169.485"/>
      </g>
     </g>
    </g>
    <g id="ytick_19">
     <g id="line2d_96">
      <g>
       <use style="stroke:#000000;stroke-width:0.5;" x="66.7125" xlink:href="#mf0c55a9a47" y="154.4625"/>
      </g>
     </g>
     <g id="line2d_97">
      <g>
       <use style="stroke:#000000;stroke-width:0.5;" x="416.05171875" xlink:href="#ma4f294b3af" y="154.4625"/>
      </g>
     </g>
    </g>
    <g id="ytick_20">
     <g id="line2d_98">
      <g>
       <use style="stroke:#000000;stroke-width:0.5;" x="66.7125" xlink:href="#mf0c55a9a47" y="124.4175"/>
      </g>
     </g>
     <g id="line2d_99">
      <g>
       <use style="stroke:#000000;stroke-width:0.5;" x="416.05171875" xlink:href="#ma4f294b3af" y="124.4175"/>
      </g>
     </g>
    </g>
    <g id="ytick_21">
     <g id="line2d_100">
      <g>
       <use style="stroke:#000000;stroke-width:0.5;" x="66.7125" xlink:href="#mf0c55a9a47" y="109.395"/>
      </g>
     </g>
     <g id="line2d_101">
      <g>
       <use style="stroke:#000000;stroke-width:0.5;" x="416.05171875" xlink:href="#ma4f294b3af" y="109.395"/>
      </g>
     </g>
    </g>
    <g id="ytick_22">
     <g id="line2d_102">
      <g>
       <use style="stroke:#000000;stroke-width:0.5;" x="66.7125" xlink:href="#mf0c55a9a47" y="94.3725"/>
      </g>
     </g>
     <g id="line2d_103">
      <g>
       <use style="stroke:#000000;stroke-width:0.5;" x="416.05171875" xlink:href="#ma4f294b3af" y="94.3725"/>
      </g>
     </g>
    </g>
    <g id="ytick_23">
     <g id="line2d_104">
      <g>
       <use style="stroke:#000000;stroke-width:0.5;" x="66.7125" xlink:href="#mf0c55a9a47" y="79.35"/>
      </g>
     </g>
     <g id="line2d_105">
      <g>
       <use style="stroke:#000000;stroke-width:0.5;" x="416.05171875" xlink:href="#ma4f294b3af" y="79.35"/>
      </g>
     </g>
    </g>
    <g id="ytick_24">
     <g id="line2d_106">
      <g>
       <use style="stroke:#000000;stroke-width:0.5;" x="66.7125" xlink:href="#mf0c55a9a47" y="64.3275"/>
      </g>
     </g>
     <g id="line2d_107">
      <g>
       <use style="stroke:#000000;stroke-width:0.5;" x="416.05171875" xlink:href="#ma4f294b3af" y="64.3275"/>
      </g>
     </g>
    </g>
    <g id="ytick_25">
     <g id="line2d_108">
      <g>
       <use style="stroke:#000000;stroke-width:0.5;" x="66.7125" xlink:href="#mf0c55a9a47" y="49.305"/>
      </g>
     </g>
     <g id="line2d_109">
      <g>
       <use style="stroke:#000000;stroke-width:0.5;" x="416.05171875" xlink:href="#ma4f294b3af" y="49.305"/>
      </g>
     </g>
    </g>
    <g id="ytick_26">
     <g id="line2d_110">
      <g>
       <use style="stroke:#000000;stroke-width:0.5;" x="66.7125" xlink:href="#mf0c55a9a47" y="34.2825"/>
      </g>
     </g>
     <g id="line2d_111">
      <g>
       <use style="stroke:#000000;stroke-width:0.5;" x="416.05171875" xlink:href="#ma4f294b3af" y="34.2825"/>
      </g>
     </g>
    </g>
    <g id="text_16">
     <!-- $\mathcal{C}_{P}^{\prime}$ -->
     <defs>
      <path d="
M4.89062 0
Q3.90625 0 3.90625 1.3125
Q3.95312 1.5625 4.09375 2.17188
Q4.25 2.78125 4.51562 3.14062
Q4.78125 3.51562 5.17188 3.51562
Q11.2812 3.51562 13.7188 4.20312
Q14.9844 4.64062 15.5781 6.89062
L29.2969 61.8125
Q29.5 62.7969 29.5 63.1875
Q29.5 64.2656 28.3281 64.4062
Q26.4219 64.7969 21.0938 64.7969
Q20.125 64.7969 20.125 66.1094
Q20.1719 66.3594 20.3125 66.9688
Q20.4531 67.5781 20.7188 67.9375
Q21 68.3125 21.3906 68.3125
L55.9062 68.3125
Q60.6406 68.3125 65.0781 66.625
Q69.5312 64.9375 72.3594 61.4688
Q75.2031 58.0156 75.2031 53.0781
Q75.2031 46.7344 70.7344 41.75
Q66.2656 36.7656 59.5938 33.9844
Q52.9375 31.2031 46.6875 31.2031
L30.4219 31.2031
L24.3125 6.5
Q24.125 5.51562 24.125 5.07812
Q24.125 4.6875 24.2344 4.42188
Q24.3594 4.15625 24.5781 4.07812
Q24.8125 4 25.2969 3.90625
Q27.2031 3.51562 32.5156 3.51562
Q33.5 3.51562 33.5 2.20312
Q33.1562 0.78125 32.9531 0.390625
Q32.7656 0 31.7812 0
z

M30.9062 34.1875
L44.9219 34.1875
Q54.6406 34.1875 59.7188 39.4062
Q62.3125 42 63.9375 46.875
Q65.5781 51.7656 65.5781 55.7188
Q65.5781 60.6406 61.8125 62.7188
Q58.0625 64.7969 52.4844 64.7969
L42.9219 64.7969
Q40.1875 64.7969 39.2969 64.3281
Q38.4219 63.875 37.7031 61.375
z
" id="Cmmi10-50"/>
     </defs>
     <g transform="translate(27.3975 205.41)rotate(-90.0)scale(0.12 -0.12)">
      <use transform="translate(0.0 0.859375)" xlink:href="#Cmsy10-43"/>
      <use transform="translate(52.587890625 45.865625)scale(0.7)" xlink:href="#Cmsy10-30"/>
      <use transform="translate(52.587890625 -24.65)scale(0.7)" xlink:href="#Cmmi10-50"/>
     </g>
    </g>
   </g>
   <g id="patch_3">
    <path d="
M66.7125 19.26
L416.052 19.26" style="fill:none;stroke:#000000;"/>
   </g>
   <g id="patch_4">
    <path d="
M416.052 379.8
L416.052 19.26" style="fill:none;stroke:#000000;"/>
   </g>
   <g id="patch_5">
    <path d="
M66.7125 379.8
L416.052 379.8" style="fill:none;stroke:#000000;"/>
   </g>
   <g id="patch_6">
    <path d="
M66.7125 379.8
L66.7125 19.26" style="fill:none;stroke:#000000;"/>
   </g>
  </g>
 </g>
 <defs>
  <clipPath id="p3b6e3cd78f">
   <rect height="360.54" width="349.33921875" x="66.7125" y="19.26"/>
  </clipPath>
 </defs>
</svg>
