<?xml version="1.0" encoding="UTF-8" standalone="no"?>
<!-- Created with Inkscape (http://www.inkscape.org/) -->

<svg
   xmlns:dc="http://purl.org/dc/elements/1.1/"
   xmlns:cc="http://creativecommons.org/ns#"
   xmlns:rdf="http://www.w3.org/1999/02/22-rdf-syntax-ns#"
   xmlns:svg="http://www.w3.org/2000/svg"
   xmlns="http://www.w3.org/2000/svg"
   xmlns:sodipodi="http://sodipodi.sourceforge.net/DTD/sodipodi-0.dtd"
   xmlns:inkscape="http://www.inkscape.org/namespaces/inkscape"
   width="281.25"
   height="150.6581"
   id="svg3827"
   version="1.1"
   inkscape:version="0.48.4 r9939"
   sodipodi:docname="bayes_formula_two_models.svg">
  <defs
     id="defs3829">
    <clipPath
       clipPathUnits="userSpaceOnUse"
       id="clipPath96">
      <path
         inkscape:connector-curvature="0"
         d="m 55.7,357.1 476,0 0,420 -476,0 0,-420 z"
         clip-rule="evenodd"
         id="path98" />
    </clipPath>
  </defs>
  <sodipodi:namedview
     id="base"
     pagecolor="#ffffff"
     bordercolor="#666666"
     borderopacity="1.0"
     inkscape:pageopacity="0.0"
     inkscape:pageshadow="2"
     inkscape:zoom="2.8"
     inkscape:cx="175.24822"
     inkscape:cy="85.333533"
     inkscape:document-units="px"
     inkscape:current-layer="layer1"
     showgrid="false"
     fit-margin-top="10"
     fit-margin-left="10"
     fit-margin-right="10"
     fit-margin-bottom="10"
     inkscape:window-width="1280"
     inkscape:window-height="948"
     inkscape:window-x="0"
     inkscape:window-y="24"
     inkscape:window-maximized="1" />
  <metadata
     id="metadata3832">
    <rdf:RDF>
      <cc:Work
         rdf:about="">
        <dc:format>image/svg+xml</dc:format>
        <dc:type
           rdf:resource="http://purl.org/dc/dcmitype/StillImage" />
        <dc:title />
      </cc:Work>
    </rdf:RDF>
  </metadata>
  <g
     inkscape:label="Layer 1"
     inkscape:groupmode="layer"
     id="layer1"
     transform="translate(-116.16072,-479.56881)">
    <g
       id="g100"
       transform="matrix(1.25,0,0,-1.25,-110.33928,1263.6893)">
      <text
         transform="matrix(1,0,0,-1,226.9,601.2)"
         id="text102">
        <tspan
           style="font-size:12px;font-style:italic;font-variant:normal;writing-mode:lr-tb;fill:#000000;fill-opacity:1;fill-rule:nonzero;stroke:none;font-family:Liberation Serif;-inkscape-font-specification:LiberationSerif-Italic"
           x="0"
           y="0"
           id="tspan104">P</tspan>
      </text>
    </g>
    <g
       id="g106"
       transform="matrix(1.25,0,0,-1.25,-110.33928,1263.6893)">
      <text
         transform="matrix(1,0,0,-1,235.4,601.2)"
         id="text108">
        <tspan
           style="font-size:12px;font-variant:normal;font-weight:normal;writing-mode:lr-tb;fill:#000000;fill-opacity:1;fill-rule:nonzero;stroke:none;font-family:OpenSymbol;-inkscape-font-specification:OpenSymbol"
           x="0"
           y="0"
           id="tspan110">(</tspan>
      </text>
    </g>
    <g
       id="g112"
       transform="matrix(1.25,0,0,-1.25,-110.33928,1263.6893)">
      <text
         transform="matrix(1,0,0,-1,240.7,601.2)"
         id="text114">
        <tspan
           style="font-size:12px;font-style:italic;font-variant:normal;writing-mode:lr-tb;fill:#000000;fill-opacity:1;fill-rule:nonzero;stroke:none;font-family:Liberation Serif;-inkscape-font-specification:LiberationSerif-Italic"
           x="0"
           y="0"
           id="tspan116">M</tspan>
      </text>
    </g>
    <g
       id="g118"
       transform="matrix(1.25,0,0,-1.25,-110.33928,1263.6893)">
      <text
         transform="matrix(1,0,0,-1,251.8,598.4)"
         id="text120">
        <tspan
           style="font-size:7.19999981px;font-style:italic;font-variant:normal;writing-mode:lr-tb;fill:#000000;fill-opacity:1;fill-rule:nonzero;stroke:none;font-family:Liberation Serif;-inkscape-font-specification:LiberationSerif-Italic"
           x="0"
           y="0"
           id="tspan122">i</tspan>
      </text>
    </g>
    <g
       id="g124"
       transform="matrix(1.25,0,0,-1.25,-110.33928,1263.6893)">
      <text
         transform="matrix(1,0,0,-1,252.9,601.2)"
         id="text126">
        <tspan
           style="font-size:12px;font-variant:normal;font-weight:normal;writing-mode:lr-tb;fill:#000000;fill-opacity:1;fill-rule:nonzero;stroke:none;font-family:OpenSymbol;-inkscape-font-specification:OpenSymbol"
           x="0"
           y="0"
           id="tspan128">∣</tspan>
      </text>
    </g>
    <g
       id="g130"
       transform="matrix(1.25,0,0,-1.25,-110.33928,1263.6893)">
      <text
         transform="matrix(1,0,0,-1,257,601.2)"
         id="text132">
        <tspan
           style="font-size:12px;font-variant:normal;font-weight:normal;writing-mode:lr-tb;fill:#000000;fill-opacity:1;fill-rule:nonzero;stroke:none;font-family:Cmsy10;-inkscape-font-specification:Cmsy10"
           x="0"
           y="0"
           id="tspan134">D</tspan>
      </text>
    </g>
    <g
       id="g136"
       transform="matrix(1.25,0,0,-1.25,-110.33928,1263.6893)">
      <text
         transform="matrix(1,0,0,-1,267.3,601.2)"
         id="text138">
        <tspan
           style="font-size:12px;font-variant:normal;font-weight:normal;writing-mode:lr-tb;fill:#000000;fill-opacity:1;fill-rule:nonzero;stroke:none;font-family:OpenSymbol;-inkscape-font-specification:OpenSymbol"
           x="0"
           y="0"
           id="tspan140">)</tspan>
      </text>
    </g>
    <g
       id="g142"
       transform="matrix(1.25,0,0,-1.25,-110.33928,1263.6893)">
      <text
         transform="matrix(1,0,0,-1,271.2,601.2)"
         id="text144">
        <tspan
           style="font-size:12px;font-variant:normal;font-weight:normal;writing-mode:lr-tb;fill:#000000;fill-opacity:1;fill-rule:nonzero;stroke:none;font-family:OpenSymbol;-inkscape-font-specification:OpenSymbol"
           x="0"
           y="0"
           id="tspan146">=</tspan>
      </text>
    </g>
    <g
       id="g148"
       transform="matrix(1.25,0,0,-1.25,-110.33928,1273.7607)">
      <text
         transform="matrix(1,0,0,-1,282.8,617)"
         id="text150">
        <tspan
           style="font-size:12px;font-style:italic;font-variant:normal;writing-mode:lr-tb;fill:#000000;fill-opacity:1;fill-rule:nonzero;stroke:none;font-family:Liberation Serif;-inkscape-font-specification:LiberationSerif-Italic"
           x="0"
           y="0"
           id="tspan152">P</tspan>
      </text>
    </g>
    <g
       id="g154"
       transform="matrix(1.25,0,0,-1.25,-110.33928,1273.7607)">
      <text
         transform="matrix(1,0,0,-1,291.3,617)"
         id="text156">
        <tspan
           style="font-size:12px;font-variant:normal;font-weight:normal;writing-mode:lr-tb;fill:#000000;fill-opacity:1;fill-rule:nonzero;stroke:none;font-family:OpenSymbol;-inkscape-font-specification:OpenSymbol"
           x="0"
           y="0"
           id="tspan158">(</tspan>
      </text>
    </g>
    <g
       id="g160"
       transform="matrix(1.25,0,0,-1.25,-110.33928,1273.7607)">
      <text
         transform="matrix(1,0,0,-1,296.2,617)"
         id="text162">
        <tspan
           style="font-size:12px;font-variant:normal;font-weight:normal;writing-mode:lr-tb;fill:#000000;fill-opacity:1;fill-rule:nonzero;stroke:none;font-family:Cmsy10;-inkscape-font-specification:Cmsy10"
           x="0"
           y="0"
           id="tspan164">D</tspan>
      </text>
    </g>
    <g
       id="g166"
       transform="matrix(1.25,0,0,-1.25,-110.33928,1273.7607)">
      <text
         transform="matrix(1,0,0,-1,305,617)"
         id="text168">
        <tspan
           style="font-size:12px;font-variant:normal;font-weight:normal;writing-mode:lr-tb;fill:#000000;fill-opacity:1;fill-rule:nonzero;stroke:none;font-family:OpenSymbol;-inkscape-font-specification:OpenSymbol"
           x="0"
           y="0"
           id="tspan170">∣</tspan>
      </text>
    </g>
    <g
       id="g172"
       transform="matrix(1.25,0,0,-1.25,-110.33928,1273.7607)">
      <text
         transform="matrix(1,0,0,-1,309.5,617)"
         id="text174">
        <tspan
           style="font-size:12px;font-style:italic;font-variant:normal;writing-mode:lr-tb;fill:#000000;fill-opacity:1;fill-rule:nonzero;stroke:none;font-family:Liberation Serif;-inkscape-font-specification:LiberationSerif-Italic"
           x="0"
           y="0"
           id="tspan176">M</tspan>
      </text>
    </g>
    <g
       id="g178"
       transform="matrix(1.25,0,0,-1.25,-110.33928,1273.7607)">
      <text
         transform="matrix(1,0,0,-1,320.6,614.3)"
         id="text180">
        <tspan
           style="font-size:7.19999981px;font-style:italic;font-variant:normal;writing-mode:lr-tb;fill:#000000;fill-opacity:1;fill-rule:nonzero;stroke:none;font-family:Liberation Serif;-inkscape-font-specification:LiberationSerif-Italic"
           x="0"
           y="0"
           id="tspan182">i</tspan>
      </text>
    </g>
    <g
       id="g184"
       transform="matrix(1.25,0,0,-1.25,-110.33928,1273.7607)">
      <text
         transform="matrix(1,0,0,-1,323.2,617)"
         id="text186">
        <tspan
           style="font-size:12px;font-variant:normal;font-weight:normal;writing-mode:lr-tb;fill:#000000;fill-opacity:1;fill-rule:nonzero;stroke:none;font-family:OpenSymbol;-inkscape-font-specification:OpenSymbol"
           x="0"
           y="0"
           id="tspan188">)</tspan>
      </text>
    </g>
    <g
       id="g190"
       transform="matrix(1.25,0,0,-1.25,-110.33928,1273.7607)">
      <text
         transform="matrix(1,0,0,-1,328.8,617)"
         id="text192">
        <tspan
           style="font-size:12px;font-style:italic;font-variant:normal;writing-mode:lr-tb;fill:#000000;fill-opacity:1;fill-rule:nonzero;stroke:none;font-family:Liberation Serif;-inkscape-font-specification:LiberationSerif-Italic"
           x="0"
           y="0"
           id="tspan194">P</tspan>
      </text>
    </g>
    <g
       id="g196"
       transform="matrix(1.25,0,0,-1.25,-110.33928,1273.7607)">
      <text
         transform="matrix(1,0,0,-1,337.2,617)"
         id="text198">
        <tspan
           style="font-size:12px;font-variant:normal;font-weight:normal;writing-mode:lr-tb;fill:#000000;fill-opacity:1;fill-rule:nonzero;stroke:none;font-family:OpenSymbol;-inkscape-font-specification:OpenSymbol"
           x="0"
           y="0"
           id="tspan200">(</tspan>
      </text>
    </g>
    <g
       id="g202"
       transform="matrix(1.25,0,0,-1.25,-110.33928,1273.7607)">
      <text
         transform="matrix(1,0,0,-1,342.5,617)"
         id="text204">
        <tspan
           style="font-size:12px;font-style:italic;font-variant:normal;writing-mode:lr-tb;fill:#000000;fill-opacity:1;fill-rule:nonzero;stroke:none;font-family:Liberation Serif;-inkscape-font-specification:LiberationSerif-Italic"
           x="0"
           y="0"
           id="tspan206">M</tspan>
      </text>
    </g>
    <g
       id="g208"
       transform="matrix(1.25,0,0,-1.25,-110.33928,1273.7607)">
      <text
         transform="matrix(1,0,0,-1,353.6,614.3)"
         id="text210">
        <tspan
           style="font-size:7.19999981px;font-style:italic;font-variant:normal;writing-mode:lr-tb;fill:#000000;fill-opacity:1;fill-rule:nonzero;stroke:none;font-family:Liberation Serif;-inkscape-font-specification:LiberationSerif-Italic"
           x="0"
           y="0"
           id="tspan212">i</tspan>
      </text>
    </g>
    <g
       id="g214"
       transform="matrix(1.25,0,0,-1.25,-110.33928,1273.7607)">
      <text
         transform="matrix(1,0,0,-1,356.3,617)"
         id="text216">
        <tspan
           style="font-size:12px;font-variant:normal;font-weight:normal;writing-mode:lr-tb;fill:#000000;fill-opacity:1;fill-rule:nonzero;stroke:none;font-family:OpenSymbol;-inkscape-font-specification:OpenSymbol"
           x="0"
           y="0"
           id="tspan218">)</tspan>
      </text>
    </g>
    <path
       inkscape:connector-curvature="0"
       d="m 241.66072,508.3143 98.75,0 0,-0.75 -98.75,0 0,0.75 z"
       style="fill:#000000;fill-opacity:1;fill-rule:evenodd;stroke:none"
       id="path220" />
    <g
       id="g222"
       transform="matrix(1.25,0,0,-1.25,-110.33928,1263.6893)">
      <text
         transform="matrix(1,0,0,-1,307.7,592.8)"
         id="text224">
        <tspan
           style="font-size:12px;font-style:italic;font-variant:normal;writing-mode:lr-tb;fill:#000000;fill-opacity:1;fill-rule:nonzero;stroke:none;font-family:Liberation Serif;-inkscape-font-specification:LiberationSerif-Italic"
           x="0"
           y="0"
           id="tspan226">P</tspan>
      </text>
    </g>
    <g
       id="g228"
       transform="matrix(1.25,0,0,-1.25,-110.33928,1263.6893)">
      <text
         transform="matrix(1,0,0,-1,316.2,592.8)"
         id="text230">
        <tspan
           style="font-size:12px;font-variant:normal;font-weight:normal;writing-mode:lr-tb;fill:#000000;fill-opacity:1;fill-rule:nonzero;stroke:none;font-family:OpenSymbol;-inkscape-font-specification:OpenSymbol"
           x="0"
           y="0"
           id="tspan232">(</tspan>
      </text>
    </g>
    <g
       id="g234"
       transform="matrix(1.25,0,0,-1.25,-110.33928,1263.6893)">
      <text
         transform="matrix(1,0,0,-1,321.1,592.8)"
         id="text236">
        <tspan
           style="font-size:12px;font-variant:normal;font-weight:normal;writing-mode:lr-tb;fill:#000000;fill-opacity:1;fill-rule:nonzero;stroke:none;font-family:Cmsy10;-inkscape-font-specification:Cmsy10"
           x="0"
           y="0"
           id="tspan238">D</tspan>
      </text>
    </g>
    <g
       id="g240"
       transform="matrix(1.25,0,0,-1.25,-110.33928,1263.6893)">
      <text
         transform="matrix(1,0,0,-1,331.4,592.8)"
         id="text242">
        <tspan
           style="font-size:12px;font-variant:normal;font-weight:normal;writing-mode:lr-tb;fill:#000000;fill-opacity:1;fill-rule:nonzero;stroke:none;font-family:OpenSymbol;-inkscape-font-specification:OpenSymbol"
           x="0"
           y="0"
           id="tspan244">)</tspan>
      </text>
    </g>
    <g
       id="g246"
       transform="matrix(1.25,0,0,-1.25,-110.33928,1272.2607)">
      <text
         transform="matrix(1,0,0,-1,190.5,541.9)"
         id="text248">
        <tspan
           style="font-size:12px;font-style:italic;font-variant:normal;writing-mode:lr-tb;fill:#000000;fill-opacity:1;fill-rule:nonzero;stroke:none;font-family:Liberation Serif;-inkscape-font-specification:LiberationSerif-Italic"
           x="0"
           y="0"
           id="tspan250">P</tspan>
      </text>
    </g>
    <g
       id="g252"
       transform="matrix(1.25,0,0,-1.25,-110.33928,1272.2607)">
      <text
         transform="matrix(1,0,0,-1,198.9,541.9)"
         id="text254">
        <tspan
           style="font-size:12px;font-variant:normal;font-weight:normal;writing-mode:lr-tb;fill:#000000;fill-opacity:1;fill-rule:nonzero;stroke:none;font-family:OpenSymbol;-inkscape-font-specification:OpenSymbol"
           x="0"
           y="0"
           id="tspan256">(</tspan>
      </text>
    </g>
    <g
       id="g258"
       transform="matrix(1.25,0,0,-1.25,-110.33928,1272.2607)">
      <text
         transform="matrix(1,0,0,-1,204.2,541.9)"
         id="text260">
        <tspan
           style="font-size:12px;font-style:italic;font-variant:normal;writing-mode:lr-tb;fill:#000000;fill-opacity:1;fill-rule:nonzero;stroke:none;font-family:Liberation Serif;-inkscape-font-specification:LiberationSerif-Italic"
           x="0"
           y="0"
           id="tspan262">M</tspan>
      </text>
    </g>
    <g
       id="g264"
       transform="matrix(1.25,0,0,-1.25,-110.33928,1272.2607)">
      <text
         transform="matrix(1,0,0,-1,215.3,539.1)"
         id="text266">
        <tspan
           style="font-size:7.19999981px;font-variant:normal;font-weight:normal;writing-mode:lr-tb;fill:#000000;fill-opacity:1;fill-rule:nonzero;stroke:none;font-family:Liberation Serif;-inkscape-font-specification:LiberationSerif"
           x="0"
           y="0"
           id="tspan268">1</tspan>
      </text>
    </g>
    <g
       id="g270"
       transform="matrix(1.25,0,0,-1.25,-110.33928,1272.2607)">
      <text
         transform="matrix(1,0,0,-1,217.9,541.9)"
         id="text272">
        <tspan
           style="font-size:12px;font-variant:normal;font-weight:normal;writing-mode:lr-tb;fill:#000000;fill-opacity:1;fill-rule:nonzero;stroke:none;font-family:OpenSymbol;-inkscape-font-specification:OpenSymbol"
           x="0"
           y="0"
           id="tspan274">∣</tspan>
      </text>
    </g>
    <g
       id="g276"
       transform="matrix(1.25,0,0,-1.25,-110.33928,1272.2607)">
      <text
         transform="matrix(1,0,0,-1,222,541.9)"
         id="text278">
        <tspan
           style="font-size:12px;font-variant:normal;font-weight:normal;writing-mode:lr-tb;fill:#000000;fill-opacity:1;fill-rule:nonzero;stroke:none;font-family:Cmsy10;-inkscape-font-specification:Cmsy10"
           x="0"
           y="0"
           id="tspan280">D</tspan>
      </text>
    </g>
    <g
       id="g282"
       transform="matrix(1.25,0,0,-1.25,-110.33928,1272.2607)">
      <text
         transform="matrix(1,0,0,-1,232.3,541.9)"
         id="text284">
        <tspan
           style="font-size:12px;font-variant:normal;font-weight:normal;writing-mode:lr-tb;fill:#000000;fill-opacity:1;fill-rule:nonzero;stroke:none;font-family:OpenSymbol;-inkscape-font-specification:OpenSymbol"
           x="0"
           y="0"
           id="tspan286">)</tspan>
      </text>
    </g>
    <path
       inkscape:connector-curvature="0"
       d="m 126.16072,602.3143 59.25,0 0,-0.75 -59.25,0 0,0.75 z"
       style="fill:#000000;fill-opacity:1;fill-rule:evenodd;stroke:none"
       id="path288" />
    <g
       id="g290"
       transform="matrix(1.25,0,0,-1.25,-110.33928,1263.6893)">
      <text
         transform="matrix(1,0,0,-1,190.5,517.6)"
         id="text292">
        <tspan
           style="font-size:12px;font-style:italic;font-variant:normal;writing-mode:lr-tb;fill:#000000;fill-opacity:1;fill-rule:nonzero;stroke:none;font-family:Liberation Serif;-inkscape-font-specification:LiberationSerif-Italic"
           x="0"
           y="0"
           id="tspan294">P</tspan>
      </text>
    </g>
    <g
       id="g296"
       transform="matrix(1.25,0,0,-1.25,-110.33928,1263.6893)">
      <text
         transform="matrix(1,0,0,-1,198.9,517.6)"
         id="text298">
        <tspan
           style="font-size:12px;font-variant:normal;font-weight:normal;writing-mode:lr-tb;fill:#000000;fill-opacity:1;fill-rule:nonzero;stroke:none;font-family:OpenSymbol;-inkscape-font-specification:OpenSymbol"
           x="0"
           y="0"
           id="tspan300">(</tspan>
      </text>
    </g>
    <g
       id="g302"
       transform="matrix(1.25,0,0,-1.25,-110.33928,1263.6893)">
      <text
         transform="matrix(1,0,0,-1,204.2,517.6)"
         id="text304">
        <tspan
           style="font-size:12px;font-style:italic;font-variant:normal;writing-mode:lr-tb;fill:#000000;fill-opacity:1;fill-rule:nonzero;stroke:none;font-family:Liberation Serif;-inkscape-font-specification:LiberationSerif-Italic"
           x="0"
           y="0"
           id="tspan306">M</tspan>
      </text>
    </g>
    <g
       id="g308"
       transform="matrix(1.25,0,0,-1.25,-110.33928,1263.6893)">
      <text
         transform="matrix(1,0,0,-1,215.4,514.8)"
         id="text310">
        <tspan
           style="font-size:7.19999981px;font-variant:normal;font-weight:normal;writing-mode:lr-tb;fill:#000000;fill-opacity:1;fill-rule:nonzero;stroke:none;font-family:Liberation Serif;-inkscape-font-specification:LiberationSerif"
           x="0"
           y="0"
           id="tspan312">2</tspan>
      </text>
    </g>
    <g
       id="g314"
       transform="matrix(1.25,0,0,-1.25,-110.33928,1263.6893)">
      <text
         transform="matrix(1,0,0,-1,217.9,517.6)"
         id="text316">
        <tspan
           style="font-size:12px;font-variant:normal;font-weight:normal;writing-mode:lr-tb;fill:#000000;fill-opacity:1;fill-rule:nonzero;stroke:none;font-family:OpenSymbol;-inkscape-font-specification:OpenSymbol"
           x="0"
           y="0"
           id="tspan318">∣</tspan>
      </text>
    </g>
    <g
       id="g320"
       transform="matrix(1.25,0,0,-1.25,-110.33928,1263.6893)">
      <text
         transform="matrix(1,0,0,-1,222.1,517.6)"
         id="text322">
        <tspan
           style="font-size:12px;font-variant:normal;font-weight:normal;writing-mode:lr-tb;fill:#000000;fill-opacity:1;fill-rule:nonzero;stroke:none;font-family:Cmsy10;-inkscape-font-specification:Cmsy10"
           x="0"
           y="0"
           id="tspan324">D</tspan>
      </text>
    </g>
    <g
       id="g326"
       transform="matrix(1.25,0,0,-1.25,-110.33928,1263.6893)">
      <text
         transform="matrix(1,0,0,-1,232.4,517.6)"
         id="text328">
        <tspan
           style="font-size:12px;font-variant:normal;font-weight:normal;writing-mode:lr-tb;fill:#000000;fill-opacity:1;fill-rule:nonzero;stroke:none;font-family:OpenSymbol;-inkscape-font-specification:OpenSymbol"
           x="0"
           y="0"
           id="tspan330">)</tspan>
      </text>
    </g>
    <g
       id="g332"
       transform="matrix(1.25,0,0,-1.25,-110.33928,1263.6893)">
      <text
         transform="matrix(1,0,0,-1,237.5,526)"
         id="text334">
        <tspan
           style="font-size:12px;font-variant:normal;font-weight:normal;writing-mode:lr-tb;fill:#000000;fill-opacity:1;fill-rule:nonzero;stroke:none;font-family:OpenSymbol;-inkscape-font-specification:OpenSymbol"
           x="0"
           y="0"
           id="tspan336">=</tspan>
      </text>
    </g>
    <g
       id="g338"
       transform="matrix(1.25,0,0,-1.25,-110.33928,1272.2607)">
      <text
         transform="matrix(1,0,0,-1,249,541.9)"
         id="text340">
        <tspan
           style="font-size:12px;font-style:italic;font-variant:normal;writing-mode:lr-tb;fill:#000000;fill-opacity:1;fill-rule:nonzero;stroke:none;font-family:Liberation Serif;-inkscape-font-specification:LiberationSerif-Italic"
           x="0"
           y="0"
           id="tspan342">P</tspan>
      </text>
    </g>
    <g
       id="g344"
       transform="matrix(1.25,0,0,-1.25,-110.33928,1272.2607)">
      <text
         transform="matrix(1,0,0,-1,257.5,541.9)"
         id="text346">
        <tspan
           style="font-size:12px;font-variant:normal;font-weight:normal;writing-mode:lr-tb;fill:#000000;fill-opacity:1;fill-rule:nonzero;stroke:none;font-family:OpenSymbol;-inkscape-font-specification:OpenSymbol"
           x="0"
           y="0"
           id="tspan348">(</tspan>
      </text>
    </g>
    <g
       id="g350"
       transform="matrix(1.25,0,0,-1.25,-110.33928,1272.2607)">
      <text
         transform="matrix(1,0,0,-1,262.4,541.9)"
         id="text352">
        <tspan
           style="font-size:12px;font-variant:normal;font-weight:normal;writing-mode:lr-tb;fill:#000000;fill-opacity:1;fill-rule:nonzero;stroke:none;font-family:Cmsy10;-inkscape-font-specification:Cmsy10"
           x="0"
           y="0"
           id="tspan354">D</tspan>
      </text>
    </g>
    <g
       id="g356"
       transform="matrix(1.25,0,0,-1.25,-110.33928,1272.2607)">
      <text
         transform="matrix(1,0,0,-1,271.2,541.9)"
         id="text358">
        <tspan
           style="font-size:12px;font-variant:normal;font-weight:normal;writing-mode:lr-tb;fill:#000000;fill-opacity:1;fill-rule:nonzero;stroke:none;font-family:OpenSymbol;-inkscape-font-specification:OpenSymbol"
           x="0"
           y="0"
           id="tspan360">∣</tspan>
      </text>
    </g>
    <g
       id="g362"
       transform="matrix(1.25,0,0,-1.25,-110.33928,1272.2607)">
      <text
         transform="matrix(1,0,0,-1,275.7,541.9)"
         id="text364">
        <tspan
           style="font-size:12px;font-style:italic;font-variant:normal;writing-mode:lr-tb;fill:#000000;fill-opacity:1;fill-rule:nonzero;stroke:none;font-family:Liberation Serif;-inkscape-font-specification:LiberationSerif-Italic"
           x="0"
           y="0"
           id="tspan366">M</tspan>
      </text>
    </g>
    <g
       id="g368"
       transform="matrix(1.25,0,0,-1.25,-110.33928,1272.2607)">
      <text
         transform="matrix(1,0,0,-1,286.8,539.1)"
         id="text370">
        <tspan
           style="font-size:7.19999981px;font-variant:normal;font-weight:normal;writing-mode:lr-tb;fill:#000000;fill-opacity:1;fill-rule:nonzero;stroke:none;font-family:Liberation Serif;-inkscape-font-specification:LiberationSerif"
           x="0"
           y="0"
           id="tspan372">1</tspan>
      </text>
    </g>
    <g
       id="g374"
       transform="matrix(1.25,0,0,-1.25,-110.33928,1272.2607)">
      <text
         transform="matrix(1,0,0,-1,290.9,541.9)"
         id="text376">
        <tspan
           style="font-size:12px;font-variant:normal;font-weight:normal;writing-mode:lr-tb;fill:#000000;fill-opacity:1;fill-rule:nonzero;stroke:none;font-family:OpenSymbol;-inkscape-font-specification:OpenSymbol"
           x="0"
           y="0"
           id="tspan378">)</tspan>
      </text>
    </g>
    <path
       inkscape:connector-curvature="0"
       d="m 199.41072,602.3143 59.25,0 0,-0.75 -59.25,0 0,0.75 z"
       style="fill:#000000;fill-opacity:1;fill-rule:evenodd;stroke:none"
       id="path380" />
    <g
       id="g382"
       transform="matrix(1.25,0,0,-1.25,-110.33928,1263.6893)">
      <text
         transform="matrix(1,0,0,-1,249,517.6)"
         id="text384">
        <tspan
           style="font-size:12px;font-style:italic;font-variant:normal;writing-mode:lr-tb;fill:#000000;fill-opacity:1;fill-rule:nonzero;stroke:none;font-family:Liberation Serif;-inkscape-font-specification:LiberationSerif-Italic"
           x="0"
           y="0"
           id="tspan386">P</tspan>
      </text>
    </g>
    <g
       id="g388"
       transform="matrix(1.25,0,0,-1.25,-110.33928,1263.6893)">
      <text
         transform="matrix(1,0,0,-1,257.5,517.6)"
         id="text390">
        <tspan
           style="font-size:12px;font-variant:normal;font-weight:normal;writing-mode:lr-tb;fill:#000000;fill-opacity:1;fill-rule:nonzero;stroke:none;font-family:OpenSymbol;-inkscape-font-specification:OpenSymbol"
           x="0"
           y="0"
           id="tspan392">(</tspan>
      </text>
    </g>
    <g
       id="g394"
       transform="matrix(1.25,0,0,-1.25,-110.33928,1263.6893)">
      <text
         transform="matrix(1,0,0,-1,262.4,517.6)"
         id="text396">
        <tspan
           style="font-size:12px;font-variant:normal;font-weight:normal;writing-mode:lr-tb;fill:#000000;fill-opacity:1;fill-rule:nonzero;stroke:none;font-family:Cmsy10;-inkscape-font-specification:Cmsy10"
           x="0"
           y="0"
           id="tspan398">D</tspan>
      </text>
    </g>
    <g
       id="g400"
       transform="matrix(1.25,0,0,-1.25,-110.33928,1263.6893)">
      <text
         transform="matrix(1,0,0,-1,271.2,517.6)"
         id="text402">
        <tspan
           style="font-size:12px;font-variant:normal;font-weight:normal;writing-mode:lr-tb;fill:#000000;fill-opacity:1;fill-rule:nonzero;stroke:none;font-family:OpenSymbol;-inkscape-font-specification:OpenSymbol"
           x="0"
           y="0"
           id="tspan404">∣</tspan>
      </text>
    </g>
    <g
       id="g406"
       transform="matrix(1.25,0,0,-1.25,-110.33928,1263.6893)">
      <text
         transform="matrix(1,0,0,-1,275.7,517.6)"
         id="text408">
        <tspan
           style="font-size:12px;font-style:italic;font-variant:normal;writing-mode:lr-tb;fill:#000000;fill-opacity:1;fill-rule:nonzero;stroke:none;font-family:Liberation Serif;-inkscape-font-specification:LiberationSerif-Italic"
           x="0"
           y="0"
           id="tspan410">M</tspan>
      </text>
    </g>
    <g
       id="g412"
       transform="matrix(1.25,0,0,-1.25,-110.33928,1263.6893)">
      <text
         transform="matrix(1,0,0,-1,286.8,514.8)"
         id="text414">
        <tspan
           style="font-size:7.19999981px;font-variant:normal;font-weight:normal;writing-mode:lr-tb;fill:#000000;fill-opacity:1;fill-rule:nonzero;stroke:none;font-family:Liberation Serif;-inkscape-font-specification:LiberationSerif"
           x="0"
           y="0"
           id="tspan416">2</tspan>
      </text>
    </g>
    <g
       id="g418"
       transform="matrix(1.25,0,0,-1.25,-110.33928,1263.6893)">
      <text
         transform="matrix(1,0,0,-1,290.9,517.6)"
         id="text420">
        <tspan
           style="font-size:12px;font-variant:normal;font-weight:normal;writing-mode:lr-tb;fill:#000000;fill-opacity:1;fill-rule:nonzero;stroke:none;font-family:OpenSymbol;-inkscape-font-specification:OpenSymbol"
           x="0"
           y="0"
           id="tspan422">)</tspan>
      </text>
    </g>
    <g
       id="g424"
       transform="matrix(1.25,0,0,-1.25,-110.33928,1263.6893)">
      <text
         transform="matrix(1,0,0,-1,294.3,526)"
         id="text426">
        <tspan
           style="font-size:12px;font-variant:normal;font-weight:normal;writing-mode:lr-tb;fill:#000000;fill-opacity:1;fill-rule:nonzero;stroke:none;font-family:OpenSymbol;-inkscape-font-specification:OpenSymbol"
           x="0"
           y="0"
           id="tspan428">⋅</tspan>
      </text>
    </g>
    <g
       id="g430"
       transform="matrix(1.25,0,0,-1.25,-110.33928,1263.6893)">
      <text
         transform="matrix(1,0,0,-1,301.5,534.7)"
         id="text432">
        <tspan
           style="font-size:12px;font-style:italic;font-variant:normal;writing-mode:lr-tb;fill:#000000;fill-opacity:1;fill-rule:nonzero;stroke:none;font-family:Liberation Serif;-inkscape-font-specification:LiberationSerif-Italic"
           x="0"
           y="0"
           id="tspan434">P</tspan>
      </text>
    </g>
    <g
       id="g436"
       transform="matrix(1.25,0,0,-1.25,-110.33928,1263.6893)">
      <text
         transform="matrix(1,0,0,-1,310,534.7)"
         id="text438">
        <tspan
           style="font-size:12px;font-variant:normal;font-weight:normal;writing-mode:lr-tb;fill:#000000;fill-opacity:1;fill-rule:nonzero;stroke:none;font-family:OpenSymbol;-inkscape-font-specification:OpenSymbol"
           x="0"
           y="0"
           id="tspan440">(</tspan>
      </text>
    </g>
    <g
       id="g442"
       transform="matrix(1.25,0,0,-1.25,-110.33928,1263.6893)">
      <text
         transform="matrix(1,0,0,-1,315.3,534.7)"
         id="text444">
        <tspan
           style="font-size:12px;font-style:italic;font-variant:normal;writing-mode:lr-tb;fill:#000000;fill-opacity:1;fill-rule:nonzero;stroke:none;font-family:Liberation Serif;-inkscape-font-specification:LiberationSerif-Italic"
           x="0"
           y="0"
           id="tspan446">M</tspan>
      </text>
    </g>
    <g
       id="g448"
       transform="matrix(1.25,0,0,-1.25,-110.33928,1263.6893)">
      <text
         transform="matrix(1,0,0,-1,326.4,531.9)"
         id="text450">
        <tspan
           style="font-size:7.19999981px;font-variant:normal;font-weight:normal;writing-mode:lr-tb;fill:#000000;fill-opacity:1;fill-rule:nonzero;stroke:none;font-family:Liberation Serif;-inkscape-font-specification:LiberationSerif"
           x="0"
           y="0"
           id="tspan452">1</tspan>
      </text>
    </g>
    <g
       id="g454"
       transform="matrix(1.25,0,0,-1.25,-110.33928,1263.6893)">
      <text
         transform="matrix(1,0,0,-1,330.5,534.7)"
         id="text456">
        <tspan
           style="font-size:12px;font-variant:normal;font-weight:normal;writing-mode:lr-tb;fill:#000000;fill-opacity:1;fill-rule:nonzero;stroke:none;font-family:OpenSymbol;-inkscape-font-specification:OpenSymbol"
           x="0"
           y="0"
           id="tspan458">)</tspan>
      </text>
    </g>
    <path
       inkscape:connector-curvature="0"
       d="m 264.91072,602.3143 43.125,0 0,-0.75 -43.125,0 0,0.75 z"
       style="fill:#000000;fill-opacity:1;fill-rule:evenodd;stroke:none"
       id="path460" />
    <g
       id="g462"
       transform="matrix(1.25,0,0,-1.25,-110.33928,1263.6893)">
      <text
         transform="matrix(1,0,0,-1,301.5,517.6)"
         id="text464">
        <tspan
           style="font-size:12px;font-style:italic;font-variant:normal;writing-mode:lr-tb;fill:#000000;fill-opacity:1;fill-rule:nonzero;stroke:none;font-family:Liberation Serif;-inkscape-font-specification:LiberationSerif-Italic"
           x="0"
           y="0"
           id="tspan466">P</tspan>
      </text>
    </g>
    <g
       id="g468"
       transform="matrix(1.25,0,0,-1.25,-110.33928,1263.6893)">
      <text
         transform="matrix(1,0,0,-1,309.9,517.6)"
         id="text470">
        <tspan
           style="font-size:12px;font-variant:normal;font-weight:normal;writing-mode:lr-tb;fill:#000000;fill-opacity:1;fill-rule:nonzero;stroke:none;font-family:OpenSymbol;-inkscape-font-specification:OpenSymbol"
           x="0"
           y="0"
           id="tspan472">(</tspan>
      </text>
    </g>
    <g
       id="g474"
       transform="matrix(1.25,0,0,-1.25,-110.33928,1263.6893)">
      <text
         transform="matrix(1,0,0,-1,315.2,517.6)"
         id="text476">
        <tspan
           style="font-size:12px;font-style:italic;font-variant:normal;writing-mode:lr-tb;fill:#000000;fill-opacity:1;fill-rule:nonzero;stroke:none;font-family:Liberation Serif;-inkscape-font-specification:LiberationSerif-Italic"
           x="0"
           y="0"
           id="tspan478">M</tspan>
      </text>
    </g>
    <g
       id="g480"
       transform="matrix(1.25,0,0,-1.25,-110.33928,1263.6893)">
      <text
         transform="matrix(1,0,0,-1,326.4,514.8)"
         id="text482">
        <tspan
           style="font-size:7.19999981px;font-variant:normal;font-weight:normal;writing-mode:lr-tb;fill:#000000;fill-opacity:1;fill-rule:nonzero;stroke:none;font-family:Liberation Serif;-inkscape-font-specification:LiberationSerif"
           x="0"
           y="0"
           id="tspan484">2</tspan>
      </text>
    </g>
    <g
       id="g486"
       transform="matrix(1.25,0,0,-1.25,-110.33928,1263.6893)">
      <text
         transform="matrix(1,0,0,-1,330.5,517.6)"
         id="text488">
        <tspan
           style="font-size:12px;font-variant:normal;font-weight:normal;writing-mode:lr-tb;fill:#000000;fill-opacity:1;fill-rule:nonzero;stroke:none;font-family:OpenSymbol;-inkscape-font-specification:OpenSymbol"
           x="0"
           y="0"
           id="tspan490">)</tspan>
      </text>
    </g>
    <g
       id="g492"
       transform="matrix(1.25,0,0,-1.25,-110.33928,1263.6893)">
      <text
         transform="matrix(1,0,0,-1,335.6,526)"
         id="text494">
        <tspan
           style="font-size:12px;font-variant:normal;font-weight:normal;writing-mode:lr-tb;fill:#000000;fill-opacity:1;fill-rule:nonzero;stroke:none;font-family:OpenSymbol;-inkscape-font-specification:OpenSymbol"
           x="0"
           y="0"
           id="tspan496">≡</tspan>
      </text>
    </g>
    <g
       id="g498"
       transform="matrix(1.25,0,0,-1.25,-110.33928,1263.6893)">
      <text
         transform="matrix(1,0,0,-1,347,534.7)"
         id="text500">
        <tspan
           style="font-size:12px;font-style:italic;font-variant:normal;writing-mode:lr-tb;fill:#000000;fill-opacity:1;fill-rule:nonzero;stroke:none;font-family:Liberation Serif;-inkscape-font-specification:LiberationSerif-Italic"
           x="0"
           y="0"
           id="tspan502">Z</tspan>
      </text>
    </g>
    <g
       id="g504"
       transform="matrix(1.25,0,0,-1.25,-110.33928,1263.6893)">
      <text
         transform="matrix(1,0,0,-1,354.4,531.9)"
         id="text506">
        <tspan
           style="font-size:7.19999981px;font-variant:normal;font-weight:normal;writing-mode:lr-tb;fill:#000000;fill-opacity:1;fill-rule:nonzero;stroke:none;font-family:Liberation Serif;-inkscape-font-specification:LiberationSerif"
           x="0"
           y="0"
           id="tspan508">1</tspan>
      </text>
    </g>
    <path
       inkscape:connector-curvature="0"
       d="m 322.03572,602.3143 15.875,0 0,-0.75 -15.875,0 0,0.75 z"
       style="fill:#000000;fill-opacity:1;fill-rule:evenodd;stroke:none"
       id="path510" />
    <g
       id="g512"
       transform="matrix(1.25,0,0,-1.25,-110.33928,1263.6893)">
      <text
         transform="matrix(1,0,0,-1,346.9,517.9)"
         id="text514">
        <tspan
           style="font-size:12px;font-style:italic;font-variant:normal;writing-mode:lr-tb;fill:#000000;fill-opacity:1;fill-rule:nonzero;stroke:none;font-family:Liberation Serif;-inkscape-font-specification:LiberationSerif-Italic"
           x="0"
           y="0"
           id="tspan516">Z</tspan>
      </text>
    </g>
    <g
       id="g518"
       transform="matrix(1.25,0,0,-1.25,-110.33928,1263.6893)">
      <text
         transform="matrix(1,0,0,-1,354.4,515.1)"
         id="text520">
        <tspan
           style="font-size:7.19999981px;font-variant:normal;font-weight:normal;writing-mode:lr-tb;fill:#000000;fill-opacity:1;fill-rule:nonzero;stroke:none;font-family:Liberation Serif;-inkscape-font-specification:LiberationSerif"
           x="0"
           y="0"
           id="tspan522">2</tspan>
      </text>
    </g>
    <g
       id="g524"
       transform="matrix(1.25,0,0,-1.25,-110.33928,1263.6893)">
      <text
         transform="matrix(1,0,0,-1,357.7,526)"
         id="text526">
        <tspan
           style="font-size:12px;font-variant:normal;font-weight:normal;writing-mode:lr-tb;fill:#000000;fill-opacity:1;fill-rule:nonzero;stroke:none;font-family:OpenSymbol;-inkscape-font-specification:OpenSymbol"
           x="0"
           y="0"
           id="tspan528">⋅</tspan>
      </text>
    </g>
    <g
       id="g530"
       transform="matrix(1.25,0,0,-1.25,-110.33928,1263.6893)">
      <text
         transform="matrix(1,0,0,-1,365,534.7)"
         id="text532">
        <tspan
           style="font-size:12px;font-style:italic;font-variant:normal;writing-mode:lr-tb;fill:#000000;fill-opacity:1;fill-rule:nonzero;stroke:none;font-family:Liberation Serif;-inkscape-font-specification:LiberationSerif-Italic"
           x="0"
           y="0"
           id="tspan534">P</tspan>
      </text>
    </g>
    <g
       id="g536"
       transform="matrix(1.25,0,0,-1.25,-110.33928,1263.6893)">
      <text
         transform="matrix(1,0,0,-1,373.4,534.7)"
         id="text538">
        <tspan
           style="font-size:12px;font-variant:normal;font-weight:normal;writing-mode:lr-tb;fill:#000000;fill-opacity:1;fill-rule:nonzero;stroke:none;font-family:OpenSymbol;-inkscape-font-specification:OpenSymbol"
           x="0"
           y="0"
           id="tspan540">(</tspan>
      </text>
    </g>
    <g
       id="g542"
       transform="matrix(1.25,0,0,-1.25,-110.33928,1263.6893)">
      <text
         transform="matrix(1,0,0,-1,378.7,534.7)"
         id="text544">
        <tspan
           style="font-size:12px;font-style:italic;font-variant:normal;writing-mode:lr-tb;fill:#000000;fill-opacity:1;fill-rule:nonzero;stroke:none;font-family:Liberation Serif;-inkscape-font-specification:LiberationSerif-Italic"
           x="0"
           y="0"
           id="tspan546">M</tspan>
      </text>
    </g>
    <g
       id="g548"
       transform="matrix(1.25,0,0,-1.25,-110.33928,1263.6893)">
      <text
         transform="matrix(1,0,0,-1,389.8,531.9)"
         id="text550">
        <tspan
           style="font-size:7.19999981px;font-variant:normal;font-weight:normal;writing-mode:lr-tb;fill:#000000;fill-opacity:1;fill-rule:nonzero;stroke:none;font-family:Liberation Serif;-inkscape-font-specification:LiberationSerif"
           x="0"
           y="0"
           id="tspan552">1</tspan>
      </text>
    </g>
    <g
       id="g554"
       transform="matrix(1.25,0,0,-1.25,-110.33928,1263.6893)">
      <text
         transform="matrix(1,0,0,-1,393.9,534.7)"
         id="text556">
        <tspan
           style="font-size:12px;font-variant:normal;font-weight:normal;writing-mode:lr-tb;fill:#000000;fill-opacity:1;fill-rule:nonzero;stroke:none;font-family:OpenSymbol;-inkscape-font-specification:OpenSymbol"
           x="0"
           y="0"
           id="tspan558">)</tspan>
      </text>
    </g>
    <path
       inkscape:connector-curvature="0"
       d="m 344.28572,602.3143 43.125,0 0,-0.75 -43.125,0 0,0.75 z"
       style="fill:#000000;fill-opacity:1;fill-rule:evenodd;stroke:none"
       id="path560" />
    <g
       id="g562"
       transform="matrix(1.25,0,0,-1.25,-110.33928,1263.6893)">
      <text
         transform="matrix(1,0,0,-1,364.9,517.6)"
         id="text564">
        <tspan
           style="font-size:12px;font-style:italic;font-variant:normal;writing-mode:lr-tb;fill:#000000;fill-opacity:1;fill-rule:nonzero;stroke:none;font-family:Liberation Serif;-inkscape-font-specification:LiberationSerif-Italic"
           x="0"
           y="0"
           id="tspan566">P</tspan>
      </text>
    </g>
    <g
       id="g568"
       transform="matrix(1.25,0,0,-1.25,-110.33928,1263.6893)">
      <text
         transform="matrix(1,0,0,-1,373.4,517.6)"
         id="text570">
        <tspan
           style="font-size:12px;font-variant:normal;font-weight:normal;writing-mode:lr-tb;fill:#000000;fill-opacity:1;fill-rule:nonzero;stroke:none;font-family:OpenSymbol;-inkscape-font-specification:OpenSymbol"
           x="0"
           y="0"
           id="tspan572">(</tspan>
      </text>
    </g>
    <g
       id="g574"
       transform="matrix(1.25,0,0,-1.25,-110.33928,1263.6893)">
      <text
         transform="matrix(1,0,0,-1,378.7,517.6)"
         id="text576">
        <tspan
           style="font-size:12px;font-style:italic;font-variant:normal;writing-mode:lr-tb;fill:#000000;fill-opacity:1;fill-rule:nonzero;stroke:none;font-family:Liberation Serif;-inkscape-font-specification:LiberationSerif-Italic"
           x="0"
           y="0"
           id="tspan578">M</tspan>
      </text>
    </g>
    <g
       id="g580"
       transform="matrix(1.25,0,0,-1.25,-110.33928,1263.6893)">
      <text
         transform="matrix(1,0,0,-1,389.8,514.8)"
         id="text582">
        <tspan
           style="font-size:7.19999981px;font-variant:normal;font-weight:normal;writing-mode:lr-tb;fill:#000000;fill-opacity:1;fill-rule:nonzero;stroke:none;font-family:Liberation Serif;-inkscape-font-specification:LiberationSerif"
           x="0"
           y="0"
           id="tspan584">2</tspan>
      </text>
    </g>
    <g
       id="g586"
       transform="matrix(1.25,0,0,-1.25,-110.33928,1263.6893)">
      <text
         transform="matrix(1,0,0,-1,393.9,517.6)"
         id="text588">
        <tspan
           style="font-size:12px;font-variant:normal;font-weight:normal;writing-mode:lr-tb;fill:#000000;fill-opacity:1;fill-rule:nonzero;stroke:none;font-family:OpenSymbol;-inkscape-font-specification:OpenSymbol"
           x="0"
           y="0"
           id="tspan590">)</tspan>
      </text>
    </g>
  </g>
</svg>
