<?xml version="1.0" encoding="UTF-8" standalone="no"?>
<!-- Created with Inkscape (http://www.inkscape.org/) -->

<svg
   xmlns:dc="http://purl.org/dc/elements/1.1/"
   xmlns:cc="http://creativecommons.org/ns#"
   xmlns:rdf="http://www.w3.org/1999/02/22-rdf-syntax-ns#"
   xmlns:svg="http://www.w3.org/2000/svg"
   xmlns="http://www.w3.org/2000/svg"
   xmlns:sodipodi="http://sodipodi.sourceforge.net/DTD/sodipodi-0.dtd"
   xmlns:inkscape="http://www.inkscape.org/namespaces/inkscape"
   width="200.08057"
   height="36.729492"
   id="svg3311"
   version="1.1"
   inkscape:version="0.48.4 r9939"
   sodipodi:docname="New document 3">
  <defs
     id="defs3313">
    <clipPath
       clipPathUnits="userSpaceOnUse"
       id="clipPath54">
      <path
         inkscape:connector-curvature="0"
         d="m 55.7,198 476,0 0,579.1 -476,0 0,-579.1 z"
         clip-rule="evenodd"
         id="path56" />
    </clipPath>
  </defs>
  <sodipodi:namedview
     id="base"
     pagecolor="#ffffff"
     bordercolor="#666666"
     borderopacity="1.0"
     inkscape:pageopacity="0.0"
     inkscape:pageshadow="2"
     inkscape:zoom="0.98994949"
     inkscape:cx="209.52989"
     inkscape:cy="30.375421"
     inkscape:document-units="px"
     inkscape:current-layer="layer1"
     showgrid="false"
     fit-margin-top="0"
     fit-margin-left="0"
     fit-margin-right="0"
     fit-margin-bottom="0"
     inkscape:window-width="1280"
     inkscape:window-height="948"
     inkscape:window-x="0"
     inkscape:window-y="24"
     inkscape:window-maximized="1" />
  <metadata
     id="metadata3316">
    <rdf:RDF>
      <cc:Work
         rdf:about="">
        <dc:format>image/svg+xml</dc:format>
        <dc:type
           rdf:resource="http://purl.org/dc/dcmitype/StillImage" />
        <dc:title></dc:title>
      </cc:Work>
    </rdf:RDF>
  </metadata>
  <g
     inkscape:label="Layer 1"
     inkscape:groupmode="layer"
     id="layer1"
     transform="translate(-79.959714,-533.28311)">
    <g
       id="g58"
       transform="matrix(1.25,0,0,-1.25,-187.08472,1161.1)">
      <text
         transform="matrix(1,0,0,-1,213.7,484.1)"
         id="text60">
        <tspan
           style="font-size:12px;font-style:italic;font-variant:normal;writing-mode:lr-tb;fill:#000000;fill-opacity:1;fill-rule:nonzero;stroke:none;font-family:Liberation Serif;-inkscape-font-specification:LiberationSerif-Italic"
           x="0"
           y="0"
           id="tspan62">P</tspan>
      </text>
    </g>
    <g
       id="g64"
       transform="matrix(1.25,0,0,-1.25,-187.08472,1161.1)">
      <text
         transform="matrix(1,0,0,-1,222.1,484.1)"
         id="text66">
        <tspan
           style="font-size:12px;font-variant:normal;font-weight:normal;writing-mode:lr-tb;fill:#000000;fill-opacity:1;fill-rule:nonzero;stroke:none;font-family:OpenSymbol;-inkscape-font-specification:OpenSymbol"
           x="0"
           y="0"
           id="tspan68">(</tspan>
      </text>
    </g>
    <g
       id="g70"
       transform="matrix(1.25,0,0,-1.25,-187.08472,1161.1)">
      <text
         transform="matrix(1,0,0,-1,226.7,484.1)"
         id="text72">
        <tspan
           style="font-size:12px;font-variant:normal;font-weight:normal;writing-mode:lr-tb;fill:#000000;fill-opacity:1;fill-rule:nonzero;stroke:none;font-family:OpenSymbol;-inkscape-font-specification:OpenSymbol"
           x="0"
           y="0"
           id="tspan74">θ</tspan>
      </text>
    </g>
    <g
       id="g76"
       transform="matrix(1.25,0,0,-1.25,-187.08472,1161.1)">
      <text
         transform="matrix(1,0,0,-1,232,484.1)"
         id="text78">
        <tspan
           style="font-size:12px;font-variant:normal;font-weight:normal;writing-mode:lr-tb;fill:#000000;fill-opacity:1;fill-rule:nonzero;stroke:none;font-family:OpenSymbol;-inkscape-font-specification:OpenSymbol"
           x="0"
           y="0"
           id="tspan80">∣</tspan>
      </text>
    </g>
    <g
       id="g82"
       transform="matrix(1.25,0,0,-1.25,-187.08472,1161.1)">
      <text
         transform="matrix(1,0,0,-1,236.1,484.1)"
         id="text84">
        <tspan
           style="font-size:12px;font-variant:normal;font-weight:normal;writing-mode:lr-tb;fill:#000000;fill-opacity:1;fill-rule:nonzero;stroke:none;font-family:Cmsy10;-inkscape-font-specification:Cmsy10"
           x="0"
           y="0"
           id="tspan86">D</tspan>
      </text>
    </g>
    <g
       id="g88"
       transform="matrix(1.25,0,0,-1.25,-187.08472,1161.1)">
      <text
         transform="matrix(1,0,0,-1,247.3,484.1)"
         id="text90">
        <tspan
           style="font-size:12px;font-style:italic;font-variant:normal;writing-mode:lr-tb;fill:#000000;fill-opacity:1;fill-rule:nonzero;stroke:none;font-family:Liberation Serif;-inkscape-font-specification:LiberationSerif-Italic"
           x="0"
           y="0"
           id="tspan92">,</tspan>
      </text>
    </g>
    <g
       id="g94"
       transform="matrix(1.25,0,0,-1.25,-187.08472,1161.1)">
      <text
         transform="matrix(1,0,0,-1,252.2,484.1)"
         id="text96">
        <tspan
           style="font-size:12px;font-style:italic;font-variant:normal;writing-mode:lr-tb;fill:#000000;fill-opacity:1;fill-rule:nonzero;stroke:none;font-family:Liberation Serif;-inkscape-font-specification:LiberationSerif-Italic"
           x="0"
           y="0"
           id="tspan98">M</tspan>
      </text>
    </g>
    <g
       id="g100"
       transform="matrix(1.25,0,0,-1.25,-187.08472,1161.1)">
      <text
         transform="matrix(1,0,0,-1,263.8,484.1)"
         id="text102">
        <tspan
           style="font-size:12px;font-variant:normal;font-weight:normal;writing-mode:lr-tb;fill:#000000;fill-opacity:1;fill-rule:nonzero;stroke:none;font-family:OpenSymbol;-inkscape-font-specification:OpenSymbol"
           x="0"
           y="0"
           id="tspan104">)</tspan>
      </text>
    </g>
    <g
       id="g106"
       transform="matrix(1.25,0,0,-1.25,-187.08472,1161.1)">
      <text
         transform="matrix(1,0,0,-1,267.7,484.1)"
         id="text108">
        <tspan
           style="font-size:12px;font-variant:normal;font-weight:normal;writing-mode:lr-tb;fill:#000000;fill-opacity:1;fill-rule:nonzero;stroke:none;font-family:OpenSymbol;-inkscape-font-specification:OpenSymbol"
           x="0"
           y="0"
           id="tspan110">=</tspan>
      </text>
    </g>
    <g
       id="g112"
       transform="matrix(1.25,0,0,-1.25,-187.08472,1171.1)">
      <text
         transform="matrix(1,0,0,-1,279.3,499.9)"
         id="text114">
        <tspan
           style="font-size:12px;font-style:italic;font-variant:normal;writing-mode:lr-tb;fill:#000000;fill-opacity:1;fill-rule:nonzero;stroke:none;font-family:Liberation Serif;-inkscape-font-specification:LiberationSerif-Italic"
           x="0"
           y="0"
           id="tspan116">P</tspan>
      </text>
    </g>
    <g
       id="g118"
       transform="matrix(1.25,0,0,-1.25,-187.08472,1171.1)">
      <text
         transform="matrix(1,0,0,-1,287.7,499.9)"
         id="text120">
        <tspan
           style="font-size:12px;font-variant:normal;font-weight:normal;writing-mode:lr-tb;fill:#000000;fill-opacity:1;fill-rule:nonzero;stroke:none;font-family:OpenSymbol;-inkscape-font-specification:OpenSymbol"
           x="0"
           y="0"
           id="tspan122">(</tspan>
      </text>
    </g>
    <g
       id="g124"
       transform="matrix(1.25,0,0,-1.25,-187.08472,1171.1)">
      <text
         transform="matrix(1,0,0,-1,292.7,499.9)"
         id="text126">
        <tspan
           style="font-size:12px;font-variant:normal;font-weight:normal;writing-mode:lr-tb;fill:#000000;fill-opacity:1;fill-rule:nonzero;stroke:none;font-family:Cmsy10;-inkscape-font-specification:Cmsy10"
           x="0"
           y="0"
           id="tspan128">D</tspan>
      </text>
    </g>
    <g
       id="g130"
       transform="matrix(1.25,0,0,-1.25,-187.08472,1171.1)">
      <text
         transform="matrix(1,0,0,-1,301.4,499.9)"
         id="text132">
        <tspan
           style="font-size:12px;font-variant:normal;font-weight:normal;writing-mode:lr-tb;fill:#000000;fill-opacity:1;fill-rule:nonzero;stroke:none;font-family:OpenSymbol;-inkscape-font-specification:OpenSymbol"
           x="0"
           y="0"
           id="tspan134">∣</tspan>
      </text>
    </g>
    <g
       id="g136"
       transform="matrix(1.25,0,0,-1.25,-187.08472,1171.1)">
      <text
         transform="matrix(1,0,0,-1,305.2,499.9)"
         id="text138">
        <tspan
           style="font-size:12px;font-variant:normal;font-weight:normal;writing-mode:lr-tb;fill:#000000;fill-opacity:1;fill-rule:nonzero;stroke:none;font-family:OpenSymbol;-inkscape-font-specification:OpenSymbol"
           x="0"
           y="0"
           id="tspan140">θ</tspan>
      </text>
    </g>
    <g
       id="g142"
       transform="matrix(1.25,0,0,-1.25,-187.08472,1171.1)">
      <text
         transform="matrix(1,0,0,-1,312.9,499.9)"
         id="text144">
        <tspan
           style="font-size:12px;font-style:italic;font-variant:normal;writing-mode:lr-tb;fill:#000000;fill-opacity:1;fill-rule:nonzero;stroke:none;font-family:Liberation Serif;-inkscape-font-specification:LiberationSerif-Italic"
           x="0"
           y="0"
           id="tspan146">,</tspan>
      </text>
    </g>
    <g
       id="g148"
       transform="matrix(1.25,0,0,-1.25,-187.08472,1171.1)">
      <text
         transform="matrix(1,0,0,-1,317.8,499.9)"
         id="text150">
        <tspan
           style="font-size:12px;font-style:italic;font-variant:normal;writing-mode:lr-tb;fill:#000000;fill-opacity:1;fill-rule:nonzero;stroke:none;font-family:Liberation Serif;-inkscape-font-specification:LiberationSerif-Italic"
           x="0"
           y="0"
           id="tspan152">M</tspan>
      </text>
    </g>
    <g
       id="g154"
       transform="matrix(1.25,0,0,-1.25,-187.08472,1171.1)">
      <text
         transform="matrix(1,0,0,-1,329.4,499.9)"
         id="text156">
        <tspan
           style="font-size:12px;font-variant:normal;font-weight:normal;writing-mode:lr-tb;fill:#000000;fill-opacity:1;fill-rule:nonzero;stroke:none;font-family:OpenSymbol;-inkscape-font-specification:OpenSymbol"
           x="0"
           y="0"
           id="tspan158">)</tspan>
      </text>
    </g>
    <g
       id="g160"
       transform="matrix(1.25,0,0,-1.25,-187.08472,1171.1)">
      <text
         transform="matrix(1,0,0,-1,335,499.9)"
         id="text162">
        <tspan
           style="font-size:12px;font-style:italic;font-variant:normal;writing-mode:lr-tb;fill:#000000;fill-opacity:1;fill-rule:nonzero;stroke:none;font-family:Liberation Serif;-inkscape-font-specification:LiberationSerif-Italic"
           x="0"
           y="0"
           id="tspan164">P</tspan>
      </text>
    </g>
    <g
       id="g166"
       transform="matrix(1.25,0,0,-1.25,-187.08472,1171.1)">
      <text
         transform="matrix(1,0,0,-1,343.4,499.9)"
         id="text168">
        <tspan
           style="font-size:12px;font-variant:normal;font-weight:normal;writing-mode:lr-tb;fill:#000000;fill-opacity:1;fill-rule:nonzero;stroke:none;font-family:OpenSymbol;-inkscape-font-specification:OpenSymbol"
           x="0"
           y="0"
           id="tspan170">(</tspan>
      </text>
    </g>
    <g
       id="g172"
       transform="matrix(1.25,0,0,-1.25,-187.08472,1171.1)">
      <text
         transform="matrix(1,0,0,-1,348,499.9)"
         id="text174">
        <tspan
           style="font-size:12px;font-variant:normal;font-weight:normal;writing-mode:lr-tb;fill:#000000;fill-opacity:1;fill-rule:nonzero;stroke:none;font-family:OpenSymbol;-inkscape-font-specification:OpenSymbol"
           x="0"
           y="0"
           id="tspan176">θ</tspan>
      </text>
    </g>
    <g
       id="g178"
       transform="matrix(1.25,0,0,-1.25,-187.08472,1171.1)">
      <text
         transform="matrix(1,0,0,-1,353.3,499.9)"
         id="text180">
        <tspan
           style="font-size:12px;font-variant:normal;font-weight:normal;writing-mode:lr-tb;fill:#000000;fill-opacity:1;fill-rule:nonzero;stroke:none;font-family:OpenSymbol;-inkscape-font-specification:OpenSymbol"
           x="0"
           y="0"
           id="tspan182">∣</tspan>
      </text>
    </g>
    <g
       id="g184"
       transform="matrix(1.25,0,0,-1.25,-187.08472,1171.1)">
      <text
         transform="matrix(1,0,0,-1,357.8,499.9)"
         id="text186">
        <tspan
           style="font-size:12px;font-style:italic;font-variant:normal;writing-mode:lr-tb;fill:#000000;fill-opacity:1;fill-rule:nonzero;stroke:none;font-family:Liberation Serif;-inkscape-font-specification:LiberationSerif-Italic"
           x="0"
           y="0"
           id="tspan188">M</tspan>
      </text>
    </g>
    <g
       id="g190"
       transform="matrix(1.25,0,0,-1.25,-187.08472,1171.1)">
      <text
         transform="matrix(1,0,0,-1,369.4,499.9)"
         id="text192">
        <tspan
           style="font-size:12px;font-variant:normal;font-weight:normal;writing-mode:lr-tb;fill:#000000;fill-opacity:1;fill-rule:nonzero;stroke:none;font-family:OpenSymbol;-inkscape-font-specification:OpenSymbol"
           x="0"
           y="0"
           id="tspan194">)</tspan>
      </text>
    </g>
    <path
       inkscape:connector-curvature="0"
       d="m 160.54028,552.1 119.5,0 0,-0.75 -119.5,0 0,0.75 z"
       style="fill:#000000;fill-opacity:1;fill-rule:evenodd;stroke:none"
       id="path196" />
    <g
       id="g198"
       transform="matrix(1.25,0,0,-1.25,-187.08472,1161.1)">
      <text
         transform="matrix(1,0,0,-1,305.2,475.7)"
         id="text200">
        <tspan
           style="font-size:12px;font-style:italic;font-variant:normal;writing-mode:lr-tb;fill:#000000;fill-opacity:1;fill-rule:nonzero;stroke:none;font-family:Liberation Serif;-inkscape-font-specification:LiberationSerif-Italic"
           x="0"
           y="0"
           id="tspan202">P</tspan>
      </text>
    </g>
    <g
       id="g204"
       transform="matrix(1.25,0,0,-1.25,-187.08472,1161.1)">
      <text
         transform="matrix(1,0,0,-1,313.7,475.7)"
         id="text206">
        <tspan
           style="font-size:12px;font-variant:normal;font-weight:normal;writing-mode:lr-tb;fill:#000000;fill-opacity:1;fill-rule:nonzero;stroke:none;font-family:OpenSymbol;-inkscape-font-specification:OpenSymbol"
           x="0"
           y="0"
           id="tspan208">(</tspan>
      </text>
    </g>
    <g
       id="g210"
       transform="matrix(1.25,0,0,-1.25,-187.08472,1161.1)">
      <text
         transform="matrix(1,0,0,-1,318.6,475.7)"
         id="text212">
        <tspan
           style="font-size:12px;font-variant:normal;font-weight:normal;writing-mode:lr-tb;fill:#000000;fill-opacity:1;fill-rule:nonzero;stroke:none;font-family:Cmsy10;-inkscape-font-specification:Cmsy10"
           x="0"
           y="0"
           id="tspan214">D</tspan>
      </text>
    </g>
    <g
       id="g216"
       transform="matrix(1.25,0,0,-1.25,-187.08472,1161.1)">
      <text
         transform="matrix(1,0,0,-1,327.3,475.7)"
         id="text218">
        <tspan
           style="font-size:12px;font-variant:normal;font-weight:normal;writing-mode:lr-tb;fill:#000000;fill-opacity:1;fill-rule:nonzero;stroke:none;font-family:OpenSymbol;-inkscape-font-specification:OpenSymbol"
           x="0"
           y="0"
           id="tspan220">∣</tspan>
      </text>
    </g>
    <g
       id="g222"
       transform="matrix(1.25,0,0,-1.25,-187.08472,1161.1)">
      <text
         transform="matrix(1,0,0,-1,331.9,475.7)"
         id="text224">
        <tspan
           style="font-size:12px;font-style:italic;font-variant:normal;writing-mode:lr-tb;fill:#000000;fill-opacity:1;fill-rule:nonzero;stroke:none;font-family:Liberation Serif;-inkscape-font-specification:LiberationSerif-Italic"
           x="0"
           y="0"
           id="tspan226">M</tspan>
      </text>
    </g>
    <g
       id="g228"
       transform="matrix(1.25,0,0,-1.25,-187.08472,1161.1)">
      <text
         transform="matrix(1,0,0,-1,343.4,475.7)"
         id="text230">
        <tspan
           style="font-size:12px;font-variant:normal;font-weight:normal;writing-mode:lr-tb;fill:#000000;fill-opacity:1;fill-rule:nonzero;stroke:none;font-family:OpenSymbol;-inkscape-font-specification:OpenSymbol"
           x="0"
           y="0"
           id="tspan232">)</tspan>
      </text>
    </g>
  </g>
</svg>
