<?xml version="1.0" encoding="UTF-8" standalone="no"?>
<!-- Created with Inkscape (http://www.inkscape.org/) -->

<svg
   xmlns:dc="http://purl.org/dc/elements/1.1/"
   xmlns:cc="http://creativecommons.org/ns#"
   xmlns:rdf="http://www.w3.org/1999/02/22-rdf-syntax-ns#"
   xmlns:svg="http://www.w3.org/2000/svg"
   xmlns="http://www.w3.org/2000/svg"
   version="1.1"
   width="43.429207"
   height="21.340233"
   id="svg3092">
  <defs
     id="defs3094">
    <clipPath
       id="clipPath42">
      <path
         d="m 55.7,138.1 476,0 0,639 -476,0 0,-639 z"
         id="path44" />
    </clipPath>
  </defs>
  <metadata
     id="metadata3097">
    <rdf:RDF>
      <cc:Work
         rdf:about="">
        <dc:format>image/svg+xml</dc:format>
        <dc:type
           rdf:resource="http://purl.org/dc/dcmitype/StillImage" />
        <dc:title></dc:title>
      </cc:Work>
    </rdf:RDF>
  </metadata>
  <g
     transform="translate(-189.71397,-527.12067)"
     id="layer1">
    <g
       transform="matrix(1.25,0,0,-1.25,-155.76882,1123.4599)"
       id="g46">
      <text
         transform="matrix(0.705,0,0,-1,276.4,463)"
         id="text48">
        <tspan
           x="0"
           y="0"
           id="tspan50"
           style="font-size:17px;font-variant:normal;font-weight:normal;writing-mode:lr-tb;fill:#000000;fill-opacity:1;fill-rule:nonzero;stroke:none;font-family:OpenSymbol;-inkscape-font-specification:OpenSymbol">√</tspan>
      </text>
    </g>
    <path
       d="m 197.73118,528.2099 13.5,0 0,-0.5 -13.5,0 0,0.5 z"
       id="path52"
       style="fill:#000000;fill-opacity:1;fill-rule:evenodd;stroke:none" />
    <g
       transform="matrix(1.25,0,0,-1.25,-155.76882,1123.4599)"
       id="g54">
      <text
         transform="matrix(1,0,0,-1,283.7,463.7)"
         id="text56">
        <tspan
           x="0"
           y="0"
           id="tspan58"
           style="font-size:12px;font-style:italic;font-variant:normal;writing-mode:lr-tb;fill:#000000;fill-opacity:1;fill-rule:nonzero;stroke:none;font-family:Liberation Serif;-inkscape-font-specification:LiberationSerif-Italic">q</tspan>
      </text>
    </g>
    <g
       transform="matrix(1.25,0,0,-1.25,-155.76882,1123.4599)"
       id="g60">
      <text
         transform="matrix(1,0,0,-1,290.1,469.7)"
         id="text62">
        <tspan
           x="0"
           y="0"
           id="tspan64"
           style="font-size:7.19999981px;font-variant:normal;font-weight:normal;writing-mode:lr-tb;fill:#000000;fill-opacity:1;fill-rule:nonzero;stroke:none;font-family:Liberation Serif;-inkscape-font-specification:LiberationSerif">2</tspan>
      </text>
    </g>
    <g
       transform="matrix(1.25,0,0,-1.25,-155.76882,1123.4599)"
       id="g66">
      <text
         transform="matrix(1,0,0,-1,294.6,463.7)"
         id="text68">
        <tspan
           x="0"
           y="0"
           id="tspan70"
           style="font-size:12px;font-variant:normal;font-weight:normal;writing-mode:lr-tb;fill:#000000;fill-opacity:1;fill-rule:nonzero;stroke:none;font-family:OpenSymbol;-inkscape-font-specification:OpenSymbol">/</tspan>
      </text>
    </g>
    <g
       transform="matrix(1.25,0,0,-1.25,-155.76882,1123.4599)"
       id="g72">
      <text
         transform="matrix(1,0,0,-1,299.1,463.7)"
         id="text74">
        <tspan
           x="0"
           y="0"
           id="tspan76"
           style="font-size:12px;font-style:italic;font-variant:normal;writing-mode:lr-tb;fill:#000000;fill-opacity:1;fill-rule:nonzero;stroke:none;font-family:Liberation Serif;-inkscape-font-specification:LiberationSerif-Italic">m</tspan>
      </text>
    </g>
    <g
       transform="matrix(1.25,0,0,-1.25,-155.76882,1111.4599)"
       id="g78">
      <text
         transform="matrix(1,0,0,-1,307.9,450.9)"
         id="text80">
        <tspan
           x="0"
           y="0"
           id="tspan82"
           style="font-size:7.19999981px;font-variant:normal;font-weight:normal;writing-mode:lr-tb;fill:#000000;fill-opacity:1;fill-rule:nonzero;stroke:none;font-family:TG Termes Math;-inkscape-font-specification:TGTermesMath-Regular">ℓ</tspan>
      </text>
    </g>
  </g>
</svg>
