<?xml version="1.0" encoding="utf-8" standalone="no"?>
<!DOCTYPE svg PUBLIC "-//W3C//DTD SVG 1.1//EN"
  "http://www.w3.org/Graphics/SVG/1.1/DTD/svg11.dtd">
<!-- Created with matplotlib (http://matplotlib.org/) -->
<svg height="432pt" version="1.1" viewBox="0 0 576 432" width="576pt" xmlns="http://www.w3.org/2000/svg" xmlns:xlink="http://www.w3.org/1999/xlink">
 <defs>
  <style type="text/css">
*{stroke-linecap:butt;stroke-linejoin:round;}
  </style>
 </defs>
 <g id="figure_1">
  <g id="patch_1">
   <path d="
M0 432
L576 432
L576 0
L0 0
z
" style="fill:#ffffff;"/>
  </g>
  <g id="axes_1">
   <g id="patch_2">
    <path d="
M72 388.8
L518.4 388.8
L518.4 43.2
L72 43.2
z
" style="fill:#ffffff;"/>
   </g>
   <g id="line2d_1">
    <path clip-path="url(#p7ff5b81e1d)" d="
M73.0051 -1
L73.409 101.052
L73.8777 166.967
L74.4134 212.547
L75.0115 245.36
L75.6722 269.941
L76.3998 289.035
L77.19 304.132
L78.0426 316.32
L78.9622 326.374
L79.9443 334.739
L80.9889 341.784
L82.1004 347.798
L83.2744 352.953
L84.511 357.402
L85.8145 361.277
L87.1849 364.664
L88.6223 367.634
L90.1356 370.259
L91.7337 372.591
L93.4256 374.671
L95.2291 376.536
L97.1575 378.211
L99.2333 379.719
L101.488 381.081
L103.961 382.313
L106.693 383.423
L109.751 384.421
L113.21 385.312
L117.174 386.098
L121.799 386.782
L127.307 387.366
L134.062 387.849
L142.673 388.231
L154.351 388.513
L171.992 388.696
L205.642 388.784
L350.459 388.8
L518.4 388.8
L518.4 388.8" style="fill:none;stroke:#0000ff;stroke-linecap:square;"/>
   </g>
   <g id="line2d_2">
    <path clip-path="url(#p7ff5b81e1d)" d="
M72.0028 273.6
L74.5651 283.709
L77.1364 292.961
L79.7166 301.427
L82.3057 309.17
L84.9083 316.262
L87.5242 322.754
L90.1579 328.704
L92.814 334.161
L95.4969 339.17
L98.2066 343.764
L100.952 347.984
L103.737 351.863
L106.572 355.431
L109.465 358.717
L112.424 361.745
L115.464 364.538
L118.594 367.112
L121.835 369.491
L125.2 371.685
L128.718 373.713
L132.41 375.582
L136.302 377.304
L140.436 378.887
L144.851 380.338
L149.605 381.664
L154.761 382.868
L160.404 383.954
L166.649 384.926
L173.644 385.785
L181.603 386.533
L190.835 387.172
L201.83 387.702
L215.405 388.125
L233.109 388.442
L258.407 388.655
L301.891 388.77
L431.477 388.8
L518.4 388.8
L518.4 388.8" style="fill:none;stroke:#008000;stroke-linecap:square;"/>
   </g>
   <g id="line2d_3">
    <path clip-path="url(#p7ff5b81e1d)" d="
M72.0028 388.791
L73.1411 385.477
L74.5071 382.167
L75.9936 379.14
L77.5694 376.429
L79.23 374.009
L80.9665 371.867
L82.7834 369.976
L84.6851 368.315
L86.6849 366.862
L88.792 365.606
L91.024 364.535
L93.4033 363.641
L95.9567 362.921
L98.7199 362.374
L101.733 362.008
L105.054 361.832
L108.755 361.863
L112.942 362.125
L117.777 362.656
L123.535 363.521
L130.789 364.846
L141.342 367.023
L169.644 372.945
L181.853 375.218
L193.513 377.163
L205.182 378.883
L217.159 380.423
L229.667 381.805
L242.926 383.044
L257.17 384.149
L272.692 385.127
L289.865 385.982
L309.216 386.717
L331.523 387.337
L358.012 387.843
L390.814 388.238
L434.137 388.524
L498.223 388.705
L518.4 388.732
L518.4 388.732" style="fill:none;stroke:#ff0000;stroke-linecap:square;"/>
   </g>
   <g id="line2d_4">
    <path clip-path="url(#p7ff5b81e1d)" d="
M72.0028 388.8
L78.4444 388.689
L79.7568 388.424
L80.7612 387.997
L81.6495 387.377
L82.4932 386.51
L83.3414 385.307
L84.2163 383.664
L85.1449 381.424
L86.1448 378.401
L87.2429 374.337
L88.475 368.883
L89.9169 361.435
L91.7605 350.651
L97.8986 313.77
L99.4119 306.531
L100.706 301.369
L101.849 297.679
L102.863 295.117
L103.769 293.396
L104.577 292.312
L105.295 291.696
L105.952 291.413
L106.572 291.381
L107.202 291.575
L107.88 292.027
L108.639 292.814
L109.505 294.051
L110.509 295.896
L111.683 298.545
L113.081 302.278
L114.808 307.566
L117.152 315.519
L125.397 344.096
L127.799 351.302
L129.986 357.182
L132.048 362.103
L134.03 366.269
L135.959 369.816
L137.856 372.849
L139.744 375.456
L141.637 377.696
L143.557 379.627
L145.521 381.29
L147.561 382.728
L149.703 383.966
L151.994 385.03
L154.48 385.939
L157.239 386.706
L160.377 387.344
L164.06 387.858
L168.573 388.255
L174.488 388.539
L183.201 388.715
L200.031 388.791
L297.913 388.8
L518.4 388.8
L518.4 388.8" style="fill:none;stroke:#00bfbf;stroke-linecap:square;"/>
   </g>
   <g id="line2d_5">
    <path clip-path="url(#p7ff5b81e1d)" d="
M72.0028 388.8
L92.7069 388.689
L93.5818 388.439
L94.1979 388.033
L94.7202 387.413
L95.2112 386.465
L95.7023 385.002
L96.2067 382.746
L96.729 379.323
L97.2781 374.156
L97.8628 366.408
L98.4923 354.903
L99.1797 337.971
L99.9475 313.211
L100.858 276.134
L102.166 212.566
L103.938 128.142
L104.755 99.4211
L105.371 84.768
L105.84 78.2123
L106.175 76.0613
L106.367 75.7827
L106.376 75.7866
L106.492 75.9722
L106.679 76.7975
L106.956 79.1768
L107.335 84.5924
L107.84 95.3368
L108.501 114.63
L109.425 148.837
L113.29 299.837
L114.29 326.687
L115.201 345.476
L116.054 358.711
L116.862 367.991
L117.638 374.498
L118.393 379.047
L119.129 382.202
L119.853 384.375
L120.576 385.877
L121.312 386.912
L122.089 387.629
L122.955 388.125
L124.004 388.462
L125.442 388.675
L127.883 388.779
L136.204 388.8
L518.4 388.8
L518.4 388.8" style="fill:none;stroke:#bf00bf;stroke-linecap:square;"/>
   </g>
   <g id="line2d_6">
    <path clip-path="url(#p7ff5b81e1d)" d="
M72.0028 388.8
L143.829 388.689
L147.623 388.437
L150.253 388.048
L152.364 387.517
L154.185 386.832
L155.833 385.976
L157.373 384.924
L158.855 383.64
L160.314 382.076
L161.779 380.174
L163.27 377.863
L164.81 375.056
L166.43 371.626
L168.167 367.414
L170.082 362.162
L172.296 355.41
L175.26 345.591
L180.648 327.67
L182.733 321.579
L184.434 317.263
L185.902 314.117
L187.197 311.845
L188.353 310.244
L189.398 309.161
L190.348 308.481
L191.232 308.113
L192.076 307.998
L192.911 308.111
L193.768 308.455
L194.678 309.067
L195.669 310.012
L196.768 311.378
L198 313.282
L199.401 315.877
L201.026 319.376
L202.982 324.141
L205.566 331.073
L214.454 355.395
L216.914 361.215
L219.137 365.919
L221.217 369.813
L223.208 373.08
L225.145 375.839
L227.051 378.174
L228.953 380.158
L230.873 381.842
L232.841 383.277
L234.89 384.495
L237.06 385.524
L239.403 386.388
L241.993 387.102
L244.943 387.679
L248.439 388.129
L252.818 388.457
L258.849 388.671
L268.978 388.778
L302.324 388.8
L518.4 388.8
L518.4 388.8" style="fill:none;stroke:#bfbf00;stroke-linecap:square;"/>
   </g>
   <g id="line2d_7">
    <path clip-path="url(#p7ff5b81e1d)" d="
M72.0028 388.8
L247.14 388.689
L257.755 388.435
L265.272 388.04
L271.406 387.5
L276.767 386.809
L281.66 385.957
L286.262 384.931
L290.699 383.714
L295.088 382.279
L299.529 380.591
L304.167 378.588
L309.234 376.152
L315.332 372.96
L333.322 363.374
L337.848 361.322
L341.839 359.752
L345.518 358.54
L348.995 357.627
L352.348 356.975
L355.629 356.562
L358.883 356.376
L362.15 356.412
L365.476 356.673
L368.905 357.165
L372.494 357.909
L376.315 358.93
L380.484 360.279
L385.198 362.045
L390.917 364.435
L399.715 368.388
L411.121 373.463
L417.826 376.195
L423.803 378.393
L429.495 380.25
L435.106 381.847
L440.775 383.23
L446.619 384.425
L452.761 385.452
L459.341 386.325
L466.555 387.053
L474.684 387.644
L484.192 388.106
L495.937 388.445
L511.842 388.665
L518.4 388.711
L518.4 388.711" style="fill:none;stroke:#000000;stroke-linecap:square;"/>
   </g>
   <g id="matplotlib.axis_1">
    <g id="xtick_1">
     <g id="line2d_8">
      <defs>
       <path d="
M0 0
L0 -4" id="m93b0483c22" style="stroke:#000000;stroke-width:0.5;"/>
      </defs>
      <g>
       <use style="stroke:#000000;stroke-width:0.5;" x="72.0" xlink:href="#m93b0483c22" y="388.8"/>
      </g>
     </g>
     <g id="line2d_9">
      <defs>
       <path d="
M0 0
L0 4" id="m741efc42ff" style="stroke:#000000;stroke-width:0.5;"/>
      </defs>
      <g>
       <use style="stroke:#000000;stroke-width:0.5;" x="72.0" xlink:href="#m741efc42ff" y="43.2"/>
      </g>
     </g>
     <g id="text_1">
      <!-- 0 -->
      <defs>
       <path d="
M31.7812 66.4062
Q24.1719 66.4062 20.3281 58.9062
Q16.5 51.4219 16.5 36.375
Q16.5 21.3906 20.3281 13.8906
Q24.1719 6.39062 31.7812 6.39062
Q39.4531 6.39062 43.2812 13.8906
Q47.125 21.3906 47.125 36.375
Q47.125 51.4219 43.2812 58.9062
Q39.4531 66.4062 31.7812 66.4062
M31.7812 74.2188
Q44.0469 74.2188 50.5156 64.5156
Q56.9844 54.8281 56.9844 36.375
Q56.9844 17.9688 50.5156 8.26562
Q44.0469 -1.42188 31.7812 -1.42188
Q19.5312 -1.42188 13.0625 8.26562
Q6.59375 17.9688 6.59375 36.375
Q6.59375 54.8281 13.0625 64.5156
Q19.5312 74.2188 31.7812 74.2188" id="DejaVuSans-30"/>
      </defs>
      <g transform="translate(68.9765625 401.918125)scale(0.12 -0.12)">
       <use xlink:href="#DejaVuSans-30"/>
      </g>
     </g>
    </g>
    <g id="xtick_2">
     <g id="line2d_10">
      <g>
       <use style="stroke:#000000;stroke-width:0.5;" x="127.8" xlink:href="#m93b0483c22" y="388.8"/>
      </g>
     </g>
     <g id="line2d_11">
      <g>
       <use style="stroke:#000000;stroke-width:0.5;" x="127.8" xlink:href="#m741efc42ff" y="43.2"/>
      </g>
     </g>
     <g id="text_2">
      <!-- 2 -->
      <defs>
       <path d="
M19.1875 8.29688
L53.6094 8.29688
L53.6094 0
L7.32812 0
L7.32812 8.29688
Q12.9375 14.1094 22.625 23.8906
Q32.3281 33.6875 34.8125 36.5312
Q39.5469 41.8438 41.4219 45.5312
Q43.3125 49.2188 43.3125 52.7812
Q43.3125 58.5938 39.2344 62.25
Q35.1562 65.9219 28.6094 65.9219
Q23.9688 65.9219 18.8125 64.3125
Q13.6719 62.7031 7.8125 59.4219
L7.8125 69.3906
Q13.7656 71.7812 18.9375 73
Q24.125 74.2188 28.4219 74.2188
Q39.75 74.2188 46.4844 68.5469
Q53.2188 62.8906 53.2188 53.4219
Q53.2188 48.9219 51.5312 44.8906
Q49.8594 40.875 45.4062 35.4062
Q44.1875 33.9844 37.6406 27.2188
Q31.1094 20.4531 19.1875 8.29688" id="DejaVuSans-32"/>
      </defs>
      <g transform="translate(125.023125 401.918125)scale(0.12 -0.12)">
       <use xlink:href="#DejaVuSans-32"/>
      </g>
     </g>
    </g>
    <g id="xtick_3">
     <g id="line2d_12">
      <g>
       <use style="stroke:#000000;stroke-width:0.5;" x="183.6" xlink:href="#m93b0483c22" y="388.8"/>
      </g>
     </g>
     <g id="line2d_13">
      <g>
       <use style="stroke:#000000;stroke-width:0.5;" x="183.6" xlink:href="#m741efc42ff" y="43.2"/>
      </g>
     </g>
     <g id="text_3">
      <!-- 4 -->
      <defs>
       <path d="
M37.7969 64.3125
L12.8906 25.3906
L37.7969 25.3906
z

M35.2031 72.9062
L47.6094 72.9062
L47.6094 25.3906
L58.0156 25.3906
L58.0156 17.1875
L47.6094 17.1875
L47.6094 0
L37.7969 0
L37.7969 17.1875
L4.89062 17.1875
L4.89062 26.7031
z
" id="DejaVuSans-34"/>
      </defs>
      <g transform="translate(180.4125 401.918125)scale(0.12 -0.12)">
       <use xlink:href="#DejaVuSans-34"/>
      </g>
     </g>
    </g>
    <g id="xtick_4">
     <g id="line2d_14">
      <g>
       <use style="stroke:#000000;stroke-width:0.5;" x="239.4" xlink:href="#m93b0483c22" y="388.8"/>
      </g>
     </g>
     <g id="line2d_15">
      <g>
       <use style="stroke:#000000;stroke-width:0.5;" x="239.4" xlink:href="#m741efc42ff" y="43.2"/>
      </g>
     </g>
     <g id="text_4">
      <!-- 6 -->
      <defs>
       <path d="
M33.0156 40.375
Q26.375 40.375 22.4844 35.8281
Q18.6094 31.2969 18.6094 23.3906
Q18.6094 15.5312 22.4844 10.9531
Q26.375 6.39062 33.0156 6.39062
Q39.6562 6.39062 43.5312 10.9531
Q47.4062 15.5312 47.4062 23.3906
Q47.4062 31.2969 43.5312 35.8281
Q39.6562 40.375 33.0156 40.375
M52.5938 71.2969
L52.5938 62.3125
Q48.875 64.0625 45.0938 64.9844
Q41.3125 65.9219 37.5938 65.9219
Q27.8281 65.9219 22.6719 59.3281
Q17.5312 52.7344 16.7969 39.4062
Q19.6719 43.6562 24.0156 45.9219
Q28.375 48.1875 33.5938 48.1875
Q44.5781 48.1875 50.9531 41.5156
Q57.3281 34.8594 57.3281 23.3906
Q57.3281 12.1562 50.6875 5.35938
Q44.0469 -1.42188 33.0156 -1.42188
Q20.3594 -1.42188 13.6719 8.26562
Q6.98438 17.9688 6.98438 36.375
Q6.98438 53.6562 15.1875 63.9375
Q23.3906 74.2188 37.2031 74.2188
Q40.9219 74.2188 44.7031 73.4844
Q48.4844 72.75 52.5938 71.2969" id="DejaVuSans-36"/>
      </defs>
      <g transform="translate(236.379375 401.918125)scale(0.12 -0.12)">
       <use xlink:href="#DejaVuSans-36"/>
      </g>
     </g>
    </g>
    <g id="xtick_5">
     <g id="line2d_16">
      <g>
       <use style="stroke:#000000;stroke-width:0.5;" x="295.2" xlink:href="#m93b0483c22" y="388.8"/>
      </g>
     </g>
     <g id="line2d_17">
      <g>
       <use style="stroke:#000000;stroke-width:0.5;" x="295.2" xlink:href="#m741efc42ff" y="43.2"/>
      </g>
     </g>
     <g id="text_5">
      <!-- 8 -->
      <defs>
       <path d="
M31.7812 34.625
Q24.75 34.625 20.7188 30.8594
Q16.7031 27.0938 16.7031 20.5156
Q16.7031 13.9219 20.7188 10.1562
Q24.75 6.39062 31.7812 6.39062
Q38.8125 6.39062 42.8594 10.1719
Q46.9219 13.9688 46.9219 20.5156
Q46.9219 27.0938 42.8906 30.8594
Q38.875 34.625 31.7812 34.625
M21.9219 38.8125
Q15.5781 40.375 12.0312 44.7188
Q8.5 49.0781 8.5 55.3281
Q8.5 64.0625 14.7188 69.1406
Q20.9531 74.2188 31.7812 74.2188
Q42.6719 74.2188 48.875 69.1406
Q55.0781 64.0625 55.0781 55.3281
Q55.0781 49.0781 51.5312 44.7188
Q48 40.375 41.7031 38.8125
Q48.8281 37.1562 52.7969 32.3125
Q56.7812 27.4844 56.7812 20.5156
Q56.7812 9.90625 50.3125 4.23438
Q43.8438 -1.42188 31.7812 -1.42188
Q19.7344 -1.42188 13.25 4.23438
Q6.78125 9.90625 6.78125 20.5156
Q6.78125 27.4844 10.7812 32.3125
Q14.7969 37.1562 21.9219 38.8125
M18.3125 54.3906
Q18.3125 48.7344 21.8438 45.5625
Q25.3906 42.3906 31.7812 42.3906
Q38.1406 42.3906 41.7188 45.5625
Q45.3125 48.7344 45.3125 54.3906
Q45.3125 60.0625 41.7188 63.2344
Q38.1406 66.4062 31.7812 66.4062
Q25.3906 66.4062 21.8438 63.2344
Q18.3125 60.0625 18.3125 54.3906" id="DejaVuSans-38"/>
      </defs>
      <g transform="translate(292.2 401.918125)scale(0.12 -0.12)">
       <use xlink:href="#DejaVuSans-38"/>
      </g>
     </g>
    </g>
    <g id="xtick_6">
     <g id="line2d_18">
      <g>
       <use style="stroke:#000000;stroke-width:0.5;" x="351.0" xlink:href="#m93b0483c22" y="388.8"/>
      </g>
     </g>
     <g id="line2d_19">
      <g>
       <use style="stroke:#000000;stroke-width:0.5;" x="351.0" xlink:href="#m741efc42ff" y="43.2"/>
      </g>
     </g>
     <g id="text_6">
      <!-- 10 -->
      <defs>
       <path d="
M12.4062 8.29688
L28.5156 8.29688
L28.5156 63.9219
L10.9844 60.4062
L10.9844 69.3906
L28.4219 72.9062
L38.2812 72.9062
L38.2812 8.29688
L54.3906 8.29688
L54.3906 0
L12.4062 0
z
" id="DejaVuSans-31"/>
      </defs>
      <g transform="translate(344.4225 401.918125)scale(0.12 -0.12)">
       <use xlink:href="#DejaVuSans-31"/>
       <use x="63.623046875" xlink:href="#DejaVuSans-30"/>
      </g>
     </g>
    </g>
    <g id="xtick_7">
     <g id="line2d_20">
      <g>
       <use style="stroke:#000000;stroke-width:0.5;" x="406.8" xlink:href="#m93b0483c22" y="388.8"/>
      </g>
     </g>
     <g id="line2d_21">
      <g>
       <use style="stroke:#000000;stroke-width:0.5;" x="406.8" xlink:href="#m741efc42ff" y="43.2"/>
      </g>
     </g>
     <g id="text_7">
      <!-- 12 -->
      <g transform="translate(400.425 401.918125)scale(0.12 -0.12)">
       <use xlink:href="#DejaVuSans-31"/>
       <use x="63.623046875" xlink:href="#DejaVuSans-32"/>
      </g>
     </g>
    </g>
    <g id="xtick_8">
     <g id="line2d_22">
      <g>
       <use style="stroke:#000000;stroke-width:0.5;" x="462.6" xlink:href="#m93b0483c22" y="388.8"/>
      </g>
     </g>
     <g id="line2d_23">
      <g>
       <use style="stroke:#000000;stroke-width:0.5;" x="462.6" xlink:href="#m741efc42ff" y="43.2"/>
      </g>
     </g>
     <g id="text_8">
      <!-- 14 -->
      <g transform="translate(455.960625 401.918125)scale(0.12 -0.12)">
       <use xlink:href="#DejaVuSans-31"/>
       <use x="63.623046875" xlink:href="#DejaVuSans-34"/>
      </g>
     </g>
    </g>
    <g id="xtick_9">
     <g id="line2d_24">
      <g>
       <use style="stroke:#000000;stroke-width:0.5;" x="518.4" xlink:href="#m93b0483c22" y="388.8"/>
      </g>
     </g>
     <g id="line2d_25">
      <g>
       <use style="stroke:#000000;stroke-width:0.5;" x="518.4" xlink:href="#m741efc42ff" y="43.2"/>
      </g>
     </g>
     <g id="text_9">
      <!-- 16 -->
      <g transform="translate(511.801875 401.918125)scale(0.12 -0.12)">
       <use xlink:href="#DejaVuSans-31"/>
       <use x="63.623046875" xlink:href="#DejaVuSans-36"/>
      </g>
     </g>
    </g>
    <g id="text_10">
     <!-- $\tau$ -->
     <defs>
      <path d="
M15.5781 1.51562
Q15.5781 2.20312 15.7188 2.59375
L26.2188 36.9219
L17.1875 36.9219
Q13.5312 36.9219 10.3438 34.625
Q7.17188 32.3281 5.07812 28.8125
Q4.89062 28.4219 4.5 28.4219
L3.32812 28.4219
Q2.39062 28.4219 2.39062 29.3906
Q2.39062 29.5938 2.59375 29.9844
Q5.85938 35.5469 9.59375 39.3281
Q13.3281 43.1094 18.0156 43.1094
L48.6875 43.1094
Q49.75 43.1094 50.4844 42.375
Q51.2188 41.6562 51.2188 40.5781
Q51.2188 39.1094 50.1719 38.0156
Q49.125 36.9219 47.6094 36.9219
L29.5 36.9219
L22.7969 2.39062
Q22.4062 0.78125 21.3281 -0.265625
Q20.2656 -1.3125 18.6094 -1.3125
Q17.3281 -1.3125 16.4531 -0.5
Q15.5781 0.296875 15.5781 1.51562" id="Cmmi10-bf"/>
     </defs>
     <g transform="translate(291.24 423.0909375)scale(0.18 -0.18)">
      <use transform="translate(0.0 0.890625)" xlink:href="#Cmmi10-bf"/>
     </g>
    </g>
   </g>
   <g id="matplotlib.axis_2">
    <g id="ytick_1">
     <g id="line2d_26">
      <defs>
       <path d="
M0 0
L4 0" id="m728421d6d4" style="stroke:#000000;stroke-width:0.5;"/>
      </defs>
      <g>
       <use style="stroke:#000000;stroke-width:0.5;" x="72.0" xlink:href="#m728421d6d4" y="388.8"/>
      </g>
     </g>
     <g id="line2d_27">
      <defs>
       <path d="
M0 0
L-4 0" id="mcb0005524f" style="stroke:#000000;stroke-width:0.5;"/>
      </defs>
      <g>
       <use style="stroke:#000000;stroke-width:0.5;" x="518.4" xlink:href="#mcb0005524f" y="388.8"/>
      </g>
     </g>
     <g id="text_11">
      <!-- 0.0 -->
      <defs>
       <path d="
M10.6875 12.4062
L21 12.4062
L21 0
L10.6875 0
z
" id="DejaVuSans-2e"/>
      </defs>
      <g transform="translate(50.504375 392.11125)scale(0.12 -0.12)">
       <use xlink:href="#DejaVuSans-30"/>
       <use x="63.623046875" xlink:href="#DejaVuSans-2e"/>
       <use x="95.41015625" xlink:href="#DejaVuSans-30"/>
      </g>
     </g>
    </g>
    <g id="ytick_2">
     <g id="line2d_28">
      <g>
       <use style="stroke:#000000;stroke-width:0.5;" x="72.0" xlink:href="#m728421d6d4" y="331.2"/>
      </g>
     </g>
     <g id="line2d_29">
      <g>
       <use style="stroke:#000000;stroke-width:0.5;" x="518.4" xlink:href="#mcb0005524f" y="331.2"/>
      </g>
     </g>
     <g id="text_12">
      <!-- 0.5 -->
      <defs>
       <path d="
M10.7969 72.9062
L49.5156 72.9062
L49.5156 64.5938
L19.8281 64.5938
L19.8281 46.7344
Q21.9688 47.4688 24.1094 47.8281
Q26.2656 48.1875 28.4219 48.1875
Q40.625 48.1875 47.75 41.5
Q54.8906 34.8125 54.8906 23.3906
Q54.8906 11.625 47.5625 5.09375
Q40.2344 -1.42188 26.9062 -1.42188
Q22.3125 -1.42188 17.5469 -0.640625
Q12.7969 0.140625 7.71875 1.70312
L7.71875 11.625
Q12.1094 9.23438 16.7969 8.0625
Q21.4844 6.89062 26.7031 6.89062
Q35.1562 6.89062 40.0781 11.3281
Q45.0156 15.7656 45.0156 23.3906
Q45.0156 31 40.0781 35.4375
Q35.1562 39.8906 26.7031 39.8906
Q22.75 39.8906 18.8125 39.0156
Q14.8906 38.1406 10.7969 36.2812
z
" id="DejaVuSans-35"/>
      </defs>
      <g transform="translate(50.755625 334.51125)scale(0.12 -0.12)">
       <use xlink:href="#DejaVuSans-30"/>
       <use x="63.623046875" xlink:href="#DejaVuSans-2e"/>
       <use x="95.41015625" xlink:href="#DejaVuSans-35"/>
      </g>
     </g>
    </g>
    <g id="ytick_3">
     <g id="line2d_30">
      <g>
       <use style="stroke:#000000;stroke-width:0.5;" x="72.0" xlink:href="#m728421d6d4" y="273.6"/>
      </g>
     </g>
     <g id="line2d_31">
      <g>
       <use style="stroke:#000000;stroke-width:0.5;" x="518.4" xlink:href="#mcb0005524f" y="273.6"/>
      </g>
     </g>
     <g id="text_13">
      <!-- 1.0 -->
      <g transform="translate(51.03125 276.91125)scale(0.12 -0.12)">
       <use xlink:href="#DejaVuSans-31"/>
       <use x="63.623046875" xlink:href="#DejaVuSans-2e"/>
       <use x="95.41015625" xlink:href="#DejaVuSans-30"/>
      </g>
     </g>
    </g>
    <g id="ytick_4">
     <g id="line2d_32">
      <g>
       <use style="stroke:#000000;stroke-width:0.5;" x="72.0" xlink:href="#m728421d6d4" y="216.0"/>
      </g>
     </g>
     <g id="line2d_33">
      <g>
       <use style="stroke:#000000;stroke-width:0.5;" x="518.4" xlink:href="#mcb0005524f" y="216.0"/>
      </g>
     </g>
     <g id="text_14">
      <!-- 1.5 -->
      <g transform="translate(51.2825 219.31125)scale(0.12 -0.12)">
       <use xlink:href="#DejaVuSans-31"/>
       <use x="63.623046875" xlink:href="#DejaVuSans-2e"/>
       <use x="95.41015625" xlink:href="#DejaVuSans-35"/>
      </g>
     </g>
    </g>
    <g id="ytick_5">
     <g id="line2d_34">
      <g>
       <use style="stroke:#000000;stroke-width:0.5;" x="72.0" xlink:href="#m728421d6d4" y="158.4"/>
      </g>
     </g>
     <g id="line2d_35">
      <g>
       <use style="stroke:#000000;stroke-width:0.5;" x="518.4" xlink:href="#mcb0005524f" y="158.4"/>
      </g>
     </g>
     <g id="text_15">
      <!-- 2.0 -->
      <g transform="translate(50.5925 161.71125)scale(0.12 -0.12)">
       <use xlink:href="#DejaVuSans-32"/>
       <use x="63.623046875" xlink:href="#DejaVuSans-2e"/>
       <use x="95.41015625" xlink:href="#DejaVuSans-30"/>
      </g>
     </g>
    </g>
    <g id="ytick_6">
     <g id="line2d_36">
      <g>
       <use style="stroke:#000000;stroke-width:0.5;" x="72.0" xlink:href="#m728421d6d4" y="100.8"/>
      </g>
     </g>
     <g id="line2d_37">
      <g>
       <use style="stroke:#000000;stroke-width:0.5;" x="518.4" xlink:href="#mcb0005524f" y="100.8"/>
      </g>
     </g>
     <g id="text_16">
      <!-- 2.5 -->
      <g transform="translate(50.84375 104.11125)scale(0.12 -0.12)">
       <use xlink:href="#DejaVuSans-32"/>
       <use x="63.623046875" xlink:href="#DejaVuSans-2e"/>
       <use x="95.41015625" xlink:href="#DejaVuSans-35"/>
      </g>
     </g>
    </g>
    <g id="ytick_7">
     <g id="line2d_38">
      <g>
       <use style="stroke:#000000;stroke-width:0.5;" x="72.0" xlink:href="#m728421d6d4" y="43.2"/>
      </g>
     </g>
     <g id="line2d_39">
      <g>
       <use style="stroke:#000000;stroke-width:0.5;" x="518.4" xlink:href="#mcb0005524f" y="43.2"/>
      </g>
     </g>
     <g id="text_17">
      <!-- 3.0 -->
      <defs>
       <path d="
M40.5781 39.3125
Q47.6562 37.7969 51.625 33
Q55.6094 28.2188 55.6094 21.1875
Q55.6094 10.4062 48.1875 4.48438
Q40.7656 -1.42188 27.0938 -1.42188
Q22.5156 -1.42188 17.6562 -0.515625
Q12.7969 0.390625 7.625 2.20312
L7.625 11.7188
Q11.7188 9.32812 16.5938 8.10938
Q21.4844 6.89062 26.8125 6.89062
Q36.0781 6.89062 40.9375 10.5469
Q45.7969 14.2031 45.7969 21.1875
Q45.7969 27.6406 41.2812 31.2656
Q36.7656 34.9062 28.7188 34.9062
L20.2188 34.9062
L20.2188 43.0156
L29.1094 43.0156
Q36.375 43.0156 40.2344 45.9219
Q44.0938 48.8281 44.0938 54.2969
Q44.0938 59.9062 40.1094 62.9062
Q36.1406 65.9219 28.7188 65.9219
Q24.6562 65.9219 20.0156 65.0312
Q15.375 64.1562 9.8125 62.3125
L9.8125 71.0938
Q15.4375 72.6562 20.3438 73.4375
Q25.25 74.2188 29.5938 74.2188
Q40.8281 74.2188 47.3594 69.1094
Q53.9062 64.0156 53.9062 55.3281
Q53.9062 49.2656 50.4375 45.0938
Q46.9688 40.9219 40.5781 39.3125" id="DejaVuSans-33"/>
      </defs>
      <g transform="translate(50.628125 46.51125)scale(0.12 -0.12)">
       <use xlink:href="#DejaVuSans-33"/>
       <use x="63.623046875" xlink:href="#DejaVuSans-2e"/>
       <use x="95.41015625" xlink:href="#DejaVuSans-30"/>
      </g>
     </g>
    </g>
    <g id="text_18">
     <!-- $\mathrm{T}\left(\tau \vert \xi, \sigma\right)$ -->
     <defs>
      <path d="
M18.7031 -1.125
Q14.2656 -1.125 10.8125 1
Q7.375 3.125 5.48438 6.73438
Q3.60938 10.3594 3.60938 14.7031
Q3.60938 19.3438 5.70312 24.4688
Q7.8125 29.5938 11.4531 33.8438
Q15.0938 38.0938 19.6719 40.5938
Q24.2656 43.1094 29.1094 43.1094
L54.2969 43.1094
Q55.3281 43.1094 56.0469 42.4219
Q56.7812 41.75 56.7812 40.5781
Q56.7812 39.1094 55.7344 38.0156
Q54.6875 36.9219 53.2188 36.9219
L41.0156 36.9219
Q43.8906 32.625 43.8906 26.5156
Q43.8906 21.4844 41.9375 16.5938
Q39.9844 11.7188 36.5156 7.6875
Q33.0625 3.65625 28.4375 1.26562
Q23.8281 -1.125 18.7031 -1.125
M18.7969 1.51562
Q24.2656 1.51562 28.4844 5.78125
Q32.7188 10.0625 34.9531 16.2344
Q37.2031 22.4062 37.2031 27.6875
Q37.2031 31.9844 34.8281 34.4531
Q32.4688 36.9219 28.2188 36.9219
Q22.4062 36.9219 18.3281 33.0156
Q14.2656 29.1094 12.2344 23.1875
Q10.2031 17.2812 10.2031 11.8125
Q10.2031 7.51562 12.4688 4.51562
Q14.75 1.51562 18.7969 1.51562" id="Cmmi10-be"/>
      <path d="
M31 -24.8125
Q25.4375 -20.4062 21.4062 -14.7188
Q17.3906 -9.03125 14.8125 -2.57812
Q12.25 3.85938 10.9844 10.8906
Q9.71875 17.9219 9.71875 25
Q9.71875 32.1719 10.9844 39.2031
Q12.25 46.2344 14.8594 52.7344
Q17.4844 59.2344 21.5312 64.8906
Q25.5938 70.5625 31 74.8125
Q31 75 31.5 75
L32.4219 75
Q32.7188 75 32.9531 74.7344
Q33.2031 74.4688 33.2031 74.125
Q33.2031 73.6875 33.0156 73.4844
Q28.125 68.7031 24.875 63.2344
Q21.625 57.7656 19.6406 51.5781
Q17.6719 45.4062 16.7969 38.7812
Q15.9219 32.1719 15.9219 25
Q15.9219 -6.78125 32.9062 -23.2969
Q33.2031 -23.5781 33.2031 -24.125
Q33.2031 -24.3594 32.9375 -24.6719
Q32.6719 -25 32.4219 -25
L31.5 -25
Q31 -25 31 -24.8125" id="Cmr10-28"/>
      <path d="
M6.5 -25
Q5.60938 -25 5.60938 -24.125
Q5.60938 -23.6875 5.8125 -23.4844
Q22.9062 -6.78125 22.9062 25
Q22.9062 56.7812 6 73.2969
Q5.60938 73.5312 5.60938 74.125
Q5.60938 74.4688 5.875 74.7344
Q6.15625 75 6.5 75
L7.42188 75
Q7.71875 75 7.90625 74.8125
Q15.0938 69.1406 19.875 61.0312
Q24.6562 52.9375 26.875 43.75
Q29.1094 34.5781 29.1094 25
Q29.1094 17.9219 27.9062 11.0625
Q26.7031 4.20312 24.0938 -2.45312
Q21.4844 -9.125 17.4844 -14.7656
Q13.4844 -20.4062 7.90625 -24.8125
Q7.71875 -25 7.42188 -25
z
" id="Cmr10-29"/>
      <path d="
M16.3125 -15.5781
Q16.4531 -14.4062 17.6719 -14.4062
Q17.7812 -14.4062 19.5625 -15.375
Q21.3438 -16.3594 23.4844 -17.1406
Q25.6406 -17.9219 27.7812 -17.9219
Q29.6406 -17.9219 30.9062 -16.3281
Q32.1719 -14.75 32.1719 -12.8906
Q32.1719 -10.25 29.3906 -9.1875
L12.4062 -2.59375
Q8.01562 -0.875 5.15625 2.51562
Q2.29688 5.90625 2.29688 10.2031
Q2.29688 14.0625 4.34375 18.2344
Q6.39062 22.4062 9.60938 25.7969
Q12.8438 29.2031 16.5 31.2969
Q13.5781 33.0625 11.9375 35.8125
Q10.2969 38.5781 10.2969 41.8906
Q10.2969 45.4062 11.7344 48.4375
Q13.1875 51.4688 15.6719 53.9531
Q18.1719 56.4531 21.2344 58.1719
Q24.3125 59.9062 27.4844 60.7969
Q27 62.8438 27 64.5
Q27 69.9219 29.1094 69.9219
Q29.6406 69.9219 30.0312 69.5312
Q30.4219 69.1406 30.4219 68.6094
Q30.4219 68.1094 30.1562 66.4531
Q29.8906 64.7969 29.8906 64.4062
Q29.8906 62.7031 30.3281 61.375
Q32.9062 61.9219 35.2969 61.9219
Q44.4844 61.9219 44.4844 59.0781
Q44.4844 55.7188 34.2812 55.7188
Q31.1562 55.7188 29.2031 57.8125
Q26.3125 56.3438 23.875 53.6562
Q21.4375 50.9844 20.0625 47.6875
Q18.7031 44.3906 18.7031 41.0156
Q18.7031 36.3281 21.3906 33.5
Q24.9531 34.7188 28.5156 34.7188
Q37.7031 34.7188 37.7031 31.8906
Q37.7031 28.5156 27.4844 28.5156
Q23.3438 28.5156 19.6719 29.7812
Q15.2344 27.3906 11.5156 22.5
Q7.8125 17.625 7.8125 13.0938
Q7.8125 10.1562 9.9375 7.9375
Q12.0625 5.71875 15.1875 4.39062
L32.9062 -2.48438
Q35.2031 -3.375 36.6406 -5.29688
Q38.0938 -7.23438 38.0938 -9.71875
Q38.0938 -13.8125 34.9375 -17.1562
Q31.7812 -20.5156 27.6875 -20.5156
Q26.4219 -20.5156 23.5312 -19.8281
Q20.6562 -19.1406 18.4844 -18.0156
Q16.3125 -16.8906 16.3125 -15.5781
M24.4219 31.5938
Q25.7344 31.1094 27.6875 31.1094
Q32.5156 31.1094 34.625 31.6875
Q32.7188 32.0781 28.4219 32.0781
Q26.7031 32.0781 24.4219 31.5938
M32.0781 58.8906
Q32.9531 58.2969 34.5156 58.2969
Q39.3125 58.2969 41.4062 58.8906
z
" id="Cmmi10-bb"/>
      <path d="
M16.8906 0
L16.8906 3.51562
Q21.9219 3.51562 26.6562 4.07812
Q31.3906 4.64062 31.3906 6.6875
L31.3906 61.625
Q31.3906 63.7656 30.1875 64.2812
Q29 64.7969 26.3125 64.7969
L22.125 64.7969
Q13.875 64.7969 10.4062 61.1875
Q8.59375 59.375 7.8125 55.3906
Q7.03125 51.4219 6.5 45.4062
L3.60938 45.4062
L5.51562 68.3125
L66.6094 68.3125
L68.5 45.4062
L65.5781 45.4062
Q64.9844 51.8594 64.2812 55.6406
Q63.5781 59.4219 61.7188 61.1875
Q58.2031 64.7969 50 64.7969
L45.7969 64.7969
Q44 64.7969 43 64.6406
Q42 64.5 41.3594 63.7969
Q40.7188 63.0938 40.7188 61.625
L40.7188 6.6875
Q40.7188 4.64062 45.4531 4.07812
Q50.2031 3.51562 55.1719 3.51562
L55.1719 0
z
" id="Cmr10-54"/>
      <path d="
M11.9219 -23.1875
L11.9219 73.1875
Q11.9219 73.9688 12.5 74.4844
Q13.0938 75 13.9219 75
Q14.6562 75 15.2812 74.4844
Q15.9219 73.9688 15.9219 73.1875
L15.9219 -23.1875
Q15.9219 -23.9688 15.2812 -24.4844
Q14.6562 -25 13.9219 -25
Q13.0938 -25 12.5 -24.4844
Q11.9219 -23.9688 11.9219 -23.1875" id="Cmsy10-6a"/>
      <path d="
M9.90625 -18.0156
Q9.90625 -17.5781 10.2969 -17.1875
Q13.9219 -13.7188 15.9219 -9.17188
Q17.9219 -4.64062 17.9219 0.390625
L17.9219 1.60938
Q16.3125 0 13.9219 0
Q11.625 0 10.0156 1.60938
Q8.40625 3.21875 8.40625 5.51562
Q8.40625 7.85938 10.0156 9.42188
Q11.625 10.9844 13.9219 10.9844
Q17.4844 10.9844 19 7.6875
Q20.5156 4.39062 20.5156 0.390625
Q20.5156 -5.17188 18.2812 -10.1719
Q16.0625 -15.1875 12.0156 -19.1875
Q11.625 -19.3906 11.375 -19.3906
Q10.8906 -19.3906 10.3906 -18.9375
Q9.90625 -18.5 9.90625 -18.0156" id="Cmmi10-3b"/>
     </defs>
     <g transform="translate(41.754375 242.4)rotate(-90.0)scale(0.15 -0.15)">
      <use xlink:href="#Cmr10-54"/>
      <use transform="translate(72.216796875 0.0)" xlink:href="#Cmr10-28"/>
      <use transform="translate(111.03515625 0.0)" xlink:href="#Cmmi10-bf"/>
      <use transform="translate(154.736328125 0.0)" xlink:href="#Cmsy10-6a"/>
      <use transform="translate(182.421875 0.0)" xlink:href="#Cmmi10-bb"/>
      <use transform="translate(226.123046875 0.0)" xlink:href="#Cmmi10-3b"/>
      <use transform="translate(255.791015625 0.0)" xlink:href="#Cmmi10-be"/>
      <use transform="translate(312.87109375 0.0)" xlink:href="#Cmr10-29"/>
     </g>
    </g>
   </g>
   <g id="patch_3">
    <path d="
M72 43.2
L518.4 43.2" style="fill:none;stroke:#000000;"/>
   </g>
   <g id="patch_4">
    <path d="
M518.4 388.8
L518.4 43.2" style="fill:none;stroke:#000000;"/>
   </g>
   <g id="patch_5">
    <path d="
M72 388.8
L518.4 388.8" style="fill:none;stroke:#000000;"/>
   </g>
   <g id="patch_6">
    <path d="
M72 388.8
L72 43.2" style="fill:none;stroke:#000000;"/>
   </g>
   <g id="legend_1">
    <g id="patch_7">
     <path d="
M359.136 202.88
L511.2 202.88
L511.2 50.4
L359.136 50.4
L359.136 202.88
z
" style="fill:#ffffff;stroke:#000000;"/>
    </g>
    <g id="line2d_40">
     <path d="
M369.216 62.0617
L389.376 62.0617" style="fill:none;stroke:#0000ff;stroke-linecap:square;"/>
    </g>
    <g id="line2d_41"/>
    <g id="text_19">
     <!-- $\xi=\,\,2,\,\sigma=-0.9$ -->
     <defs>
      <path d="
M4.98438 0
L4.98438 2.6875
Q4.98438 2.9375 5.17188 3.21875
L20.7031 20.4062
Q24.2188 24.2188 26.4062 26.7969
Q28.6094 29.3906 30.75 32.7656
Q32.9062 36.1406 34.1562 39.625
Q35.4062 43.1094 35.4062 47.0156
Q35.4062 51.125 33.8906 54.8594
Q32.375 58.5938 29.375 60.8438
Q26.375 63.0938 22.125 63.0938
Q17.7812 63.0938 14.3125 60.4688
Q10.8438 57.8594 9.42188 53.7188
Q9.8125 53.8125 10.5 53.8125
Q12.75 53.8125 14.3281 52.2969
Q15.9219 50.7812 15.9219 48.3906
Q15.9219 46.0938 14.3281 44.5
Q12.75 42.9219 10.5 42.9219
Q8.15625 42.9219 6.5625 44.5469
Q4.98438 46.1875 4.98438 48.3906
Q4.98438 52.1562 6.39062 55.4375
Q7.8125 58.7344 10.4688 61.2969
Q13.1406 63.875 16.4844 65.2344
Q19.8281 66.6094 23.5781 66.6094
Q29.2969 66.6094 34.2188 64.1875
Q39.1562 61.7656 42.0312 57.3438
Q44.9219 52.9375 44.9219 47.0156
Q44.9219 42.6719 43.0156 38.7656
Q41.1094 34.8594 38.125 31.6562
Q35.1562 28.4688 30.5156 24.4062
Q25.875 20.3594 24.4219 19
L13.0938 8.10938
L22.7031 8.10938
Q29.7812 8.10938 34.5469 8.21875
Q39.3125 8.34375 39.5938 8.59375
Q40.7656 9.85938 42 17.8281
L44.9219 17.8281
L42.0938 0
z
" id="Cmr10-32"/>
      <path d="
M10.2031 23
Q9.375 23 8.82812 23.625
Q8.29688 24.2656 8.29688 25
Q8.29688 25.7344 8.82812 26.3594
Q9.375 27 10.2031 27
L67.5781 27
Q68.3594 27 68.875 26.3594
Q69.3906 25.7344 69.3906 25
Q69.3906 24.2656 68.875 23.625
Q68.3594 23 67.5781 23
z
" id="Cmsy10-a1"/>
      <path d="
M11.2812 4.20312
Q14.0156 0.984375 20.7969 0.984375
Q24.6094 0.984375 27.9062 3.5625
Q31.2031 6.15625 33.0156 9.90625
Q35.1094 14.1562 35.6875 18.9688
Q36.2812 23.7812 36.2812 30.9062
Q34.5781 26.8594 31.375 24.2656
Q28.1719 21.6875 24.0312 21.6875
Q18.2188 21.6875 13.6406 24.8281
Q9.07812 27.9844 6.64062 33.125
Q4.20312 38.2812 4.20312 44.0938
Q4.20312 50.0938 6.9375 55.2969
Q9.67188 60.5 14.5 63.5469
Q19.3438 66.6094 25.4844 66.6094
Q31.5469 66.6094 35.625 63.3125
Q39.7031 60.0156 41.8438 54.8125
Q44 49.6094 44.8438 43.7969
Q45.7031 37.9844 45.7031 32.3281
Q45.7031 24.6094 42.875 16.5781
Q40.0469 8.54688 34.4062 3.17188
Q28.7656 -2.20312 20.7969 -2.20312
Q14.8906 -2.20312 10.7812 0.578125
Q6.6875 3.375 6.6875 8.98438
Q6.6875 11.0312 8.07812 12.4219
Q9.46875 13.8125 11.5312 13.8125
Q13.5312 13.8125 14.9219 12.4219
Q16.3125 11.0312 16.3125 8.98438
Q16.3125 7.03125 14.8906 5.60938
Q13.4844 4.20312 11.5312 4.20312
z

M24.4219 24.3125
Q28.5156 24.3125 31.125 27.0625
Q33.7344 29.8281 34.9062 33.9219
Q36.0781 38.0312 36.0781 42.0938
L36.0781 44
L36.0781 44.3906
Q36.0781 51.9062 33.875 57.8125
Q31.6875 63.7188 25.4844 63.7188
Q21.5312 63.7188 19.0625 61.9844
Q16.6094 60.25 15.4375 57.375
Q14.2656 54.5 13.9375 51.2188
Q13.625 47.9531 13.625 44.0938
Q13.625 38.4219 14.1562 34.4219
Q14.7031 30.4219 17.0938 27.3594
Q19.4844 24.3125 24.4219 24.3125" id="Cmr10-39"/>
      <path d="
M25 -2.20312
Q12.75 -2.20312 8.32812 7.875
Q3.90625 17.9688 3.90625 31.8906
Q3.90625 40.5781 5.48438 48.2344
Q7.07812 55.9062 11.7812 61.25
Q16.5 66.6094 25 66.6094
Q31.5938 66.6094 35.7812 63.375
Q39.9844 60.1562 42.1875 55.0469
Q44.3906 49.9531 45.1875 44.1094
Q46 38.2812 46 31.8906
Q46 23.2969 44.4062 15.7969
Q42.8281 8.29688 38.1875 3.04688
Q33.5469 -2.20312 25 -2.20312
M25 0.390625
Q30.5625 0.390625 33.2969 6.09375
Q36.0312 11.8125 36.6719 18.75
Q37.3125 25.6875 37.3125 33.5
Q37.3125 41.0156 36.6719 47.3594
Q36.0312 53.7188 33.3125 58.8594
Q30.6094 64.0156 25 64.0156
Q19.3438 64.0156 16.6094 58.8281
Q13.875 53.6562 13.2344 47.3281
Q12.5938 41.0156 12.5938 33.5
Q12.5938 27.9375 12.8594 23
Q13.1406 18.0625 14.3125 12.8125
Q15.4844 7.5625 18.0938 3.96875
Q20.7031 0.390625 25 0.390625" id="Cmr10-30"/>
      <path d="
M7.51562 13.2812
Q6.6875 13.2812 6.14062 13.9062
Q5.60938 14.5469 5.60938 15.2812
Q5.60938 16.1094 6.14062 16.6875
Q6.6875 17.2812 7.51562 17.2812
L70.3125 17.2812
Q71.0469 17.2812 71.5781 16.6875
Q72.125 16.1094 72.125 15.2812
Q72.125 14.5469 71.5781 13.9062
Q71.0469 13.2812 70.3125 13.2812
z

M7.51562 32.7188
Q6.6875 32.7188 6.14062 33.2969
Q5.60938 33.8906 5.60938 34.7188
Q5.60938 35.4531 6.14062 36.0781
Q6.6875 36.7188 7.51562 36.7188
L70.3125 36.7188
Q71.0469 36.7188 71.5781 36.0781
Q72.125 35.4531 72.125 34.7188
Q72.125 33.8906 71.5781 33.2969
Q71.0469 32.7188 70.3125 32.7188
z
" id="Cmr10-3d"/>
      <path d="
M8.40625 5.51562
Q8.40625 7.76562 10.0625 9.375
Q11.7188 10.9844 13.9219 10.9844
Q15.2812 10.9844 16.5938 10.25
Q17.9219 9.51562 18.6562 8.20312
Q19.3906 6.89062 19.3906 5.51562
Q19.3906 3.32812 17.7656 1.65625
Q16.1562 0 13.9219 0
Q11.7188 0 10.0625 1.65625
Q8.40625 3.32812 8.40625 5.51562" id="Cmmi10-3a"/>
     </defs>
     <g transform="translate(405.216 67.10175)scale(0.144 -0.144)">
      <use transform="translate(0.0 0.078125)" xlink:href="#Cmmi10-bb"/>
      <use transform="translate(61.259765625 0.078125)" xlink:href="#Cmr10-3d"/>
      <use transform="translate(215.552734375 0.078125)" xlink:href="#Cmr10-32"/>
      <use transform="translate(265.552734375 0.078125)" xlink:href="#Cmmi10-3b"/>
      <use transform="translate(330.337890625 0.078125)" xlink:href="#Cmmi10-be"/>
      <use transform="translate(404.9765625 0.078125)" xlink:href="#Cmr10-3d"/>
      <use transform="translate(489.03515625 0.078125)" xlink:href="#Cmsy10-a1"/>
      <use transform="translate(566.720703125 0.078125)" xlink:href="#Cmr10-30"/>
      <use transform="translate(616.720703125 0.078125)" xlink:href="#Cmmi10-3a"/>
      <use transform="translate(645.263671875 0.078125)" xlink:href="#Cmr10-39"/>
     </g>
    </g>
    <g id="line2d_42">
     <path d="
M369.216 83.2275
L389.376 83.2275" style="fill:none;stroke:#008000;stroke-linecap:square;"/>
    </g>
    <g id="line2d_43"/>
    <g id="text_20">
     <!-- $\xi=\,\,2,\,\sigma=\,\,0$ -->
     <g transform="translate(405.216 88.2675)scale(0.144 -0.144)">
      <use transform="translate(0.0 0.078125)" xlink:href="#Cmmi10-bb"/>
      <use transform="translate(61.259765625 0.078125)" xlink:href="#Cmr10-3d"/>
      <use transform="translate(215.552734375 0.078125)" xlink:href="#Cmr10-32"/>
      <use transform="translate(265.552734375 0.078125)" xlink:href="#Cmmi10-3b"/>
      <use transform="translate(330.337890625 0.078125)" xlink:href="#Cmmi10-be"/>
      <use transform="translate(404.9765625 0.078125)" xlink:href="#Cmr10-3d"/>
      <use transform="translate(559.26953125 0.078125)" xlink:href="#Cmr10-30"/>
     </g>
    </g>
    <g id="line2d_44">
     <path d="
M369.216 104.393
L389.376 104.393" style="fill:none;stroke:#ff0000;stroke-linecap:square;"/>
    </g>
    <g id="line2d_45"/>
    <g id="text_21">
     <!-- $\xi=\,\,2,\,\sigma=\,\,1$ -->
     <defs>
      <path d="
M9.28125 0
L9.28125 3.51562
Q21.7812 3.51562 21.7812 6.6875
L21.7812 59.1875
Q16.6094 56.6875 8.6875 56.6875
L8.6875 60.2031
Q20.9531 60.2031 27.2031 66.6094
L28.6094 66.6094
Q28.9531 66.6094 29.2656 66.3281
Q29.5938 66.0625 29.5938 65.7188
L29.5938 6.6875
Q29.5938 3.51562 42.0938 3.51562
L42.0938 0
z
" id="Cmr10-31"/>
     </defs>
     <g transform="translate(405.216 109.43325)scale(0.144 -0.144)">
      <use transform="translate(0.0 0.078125)" xlink:href="#Cmmi10-bb"/>
      <use transform="translate(61.259765625 0.078125)" xlink:href="#Cmr10-3d"/>
      <use transform="translate(215.552734375 0.078125)" xlink:href="#Cmr10-32"/>
      <use transform="translate(265.552734375 0.078125)" xlink:href="#Cmmi10-3b"/>
      <use transform="translate(330.337890625 0.078125)" xlink:href="#Cmmi10-be"/>
      <use transform="translate(404.9765625 0.078125)" xlink:href="#Cmr10-3d"/>
      <use transform="translate(559.26953125 0.078125)" xlink:href="#Cmr10-31"/>
     </g>
    </g>
    <g id="line2d_46">
     <path d="
M369.216 125.559
L389.376 125.559" style="fill:none;stroke:#00bfbf;stroke-linecap:square;"/>
    </g>
    <g id="line2d_47"/>
    <g id="text_22">
     <!-- $\xi=\,20,\,\sigma=\,10$ -->
     <g transform="translate(405.216 130.599)scale(0.144 -0.144)">
      <use transform="translate(0.0 0.078125)" xlink:href="#Cmmi10-bb"/>
      <use transform="translate(61.259765625 0.078125)" xlink:href="#Cmr10-3d"/>
      <use transform="translate(180.435546875 0.078125)" xlink:href="#Cmr10-32"/>
      <use transform="translate(230.435546875 0.078125)" xlink:href="#Cmr10-30"/>
      <use transform="translate(280.435546875 0.078125)" xlink:href="#Cmmi10-3b"/>
      <use transform="translate(345.220703125 0.078125)" xlink:href="#Cmmi10-be"/>
      <use transform="translate(419.859375 0.078125)" xlink:href="#Cmr10-3d"/>
      <use transform="translate(539.03515625 0.078125)" xlink:href="#Cmr10-31"/>
      <use transform="translate(589.03515625 0.078125)" xlink:href="#Cmr10-30"/>
     </g>
    </g>
    <g id="line2d_48">
     <path d="
M369.216 146.725
L389.376 146.725" style="fill:none;stroke:#bf00bf;stroke-linecap:square;"/>
    </g>
    <g id="line2d_49"/>
    <g id="text_23">
     <!-- $\xi=200,\,\sigma=100$ -->
     <g transform="translate(405.216 151.76475)scale(0.144 -0.144)">
      <use transform="translate(0.0 0.078125)" xlink:href="#Cmmi10-bb"/>
      <use transform="translate(61.259765625 0.078125)" xlink:href="#Cmr10-3d"/>
      <use transform="translate(145.318359375 0.078125)" xlink:href="#Cmr10-32"/>
      <use transform="translate(195.318359375 0.078125)" xlink:href="#Cmr10-30"/>
      <use transform="translate(245.318359375 0.078125)" xlink:href="#Cmr10-30"/>
      <use transform="translate(295.318359375 0.078125)" xlink:href="#Cmmi10-3b"/>
      <use transform="translate(360.103515625 0.078125)" xlink:href="#Cmmi10-be"/>
      <use transform="translate(434.7421875 0.078125)" xlink:href="#Cmr10-3d"/>
      <use transform="translate(518.80078125 0.078125)" xlink:href="#Cmr10-31"/>
      <use transform="translate(568.80078125 0.078125)" xlink:href="#Cmr10-30"/>
      <use transform="translate(618.80078125 0.078125)" xlink:href="#Cmr10-30"/>
     </g>
    </g>
    <g id="line2d_50">
     <path d="
M369.216 167.891
L389.376 167.891" style="fill:none;stroke:#bfbf00;stroke-linecap:square;"/>
    </g>
    <g id="line2d_51"/>
    <g id="text_24">
     <!-- $\xi=125,\,\sigma=100$ -->
     <defs>
      <path d="
M8.6875 11.375
Q9.71875 8.45312 11.8438 6.04688
Q13.9688 3.65625 16.875 2.3125
Q19.7812 0.984375 22.9062 0.984375
Q30.125 0.984375 32.8594 6.59375
Q35.5938 12.2031 35.5938 20.2188
Q35.5938 23.6875 35.4688 26.0469
Q35.3594 28.4219 34.8125 30.6094
Q33.8906 34.125 31.5625 36.7656
Q29.25 39.4062 25.875 39.4062
Q22.5156 39.4062 20.0938 38.375
Q17.6719 37.3594 16.1562 35.9844
Q14.6562 34.625 13.4844 33.1094
Q12.3125 31.5938 12.0156 31.5
L10.8906 31.5
Q10.6406 31.5 10.2656 31.8125
Q9.90625 32.125 9.90625 32.4219
L9.90625 65.8281
Q9.90625 66.0625 10.2188 66.3281
Q10.5469 66.6094 10.8906 66.6094
L11.1875 66.6094
Q17.9219 63.375 25.4844 63.375
Q32.9062 63.375 39.7969 66.6094
L40.0938 66.6094
Q40.4375 66.6094 40.7188 66.3594
Q41.0156 66.1094 41.0156 65.8281
L41.0156 64.8906
Q41.0156 64.4062 40.8281 64.4062
Q37.4062 59.8594 32.25 57.3125
Q27.0938 54.7812 21.5781 54.7812
Q17.5781 54.7812 13.375 55.9062
L13.375 37.0156
Q16.7031 39.7031 19.3125 40.8438
Q21.9219 42 25.9844 42
Q31.5 42 35.8594 38.8125
Q40.2344 35.6406 42.5781 30.5312
Q44.9219 25.4375 44.9219 20.125
Q44.9219 14.1094 41.9688 8.98438
Q39.0156 3.85938 33.9375 0.828125
Q28.8594 -2.20312 22.9062 -2.20312
Q17.9688 -2.20312 13.8438 0.328125
Q9.71875 2.875 7.34375 7.17188
Q4.98438 11.4688 4.98438 16.3125
Q4.98438 18.5625 6.4375 19.9688
Q7.90625 21.3906 10.1094 21.3906
Q12.3125 21.3906 13.7969 19.9375
Q15.2812 18.5 15.2812 16.3125
Q15.2812 14.1562 13.7969 12.6719
Q12.3125 11.1875 10.1094 11.1875
Q9.76562 11.1875 9.32812 11.25
Q8.89062 11.3281 8.6875 11.375" id="Cmr10-35"/>
     </defs>
     <g transform="translate(405.216 172.9305)scale(0.144 -0.144)">
      <use transform="translate(0.0 0.078125)" xlink:href="#Cmmi10-bb"/>
      <use transform="translate(61.259765625 0.078125)" xlink:href="#Cmr10-3d"/>
      <use transform="translate(145.318359375 0.078125)" xlink:href="#Cmr10-31"/>
      <use transform="translate(195.318359375 0.078125)" xlink:href="#Cmr10-32"/>
      <use transform="translate(245.318359375 0.078125)" xlink:href="#Cmr10-35"/>
      <use transform="translate(295.318359375 0.078125)" xlink:href="#Cmmi10-3b"/>
      <use transform="translate(360.103515625 0.078125)" xlink:href="#Cmmi10-be"/>
      <use transform="translate(434.7421875 0.078125)" xlink:href="#Cmr10-3d"/>
      <use transform="translate(518.80078125 0.078125)" xlink:href="#Cmr10-31"/>
      <use transform="translate(568.80078125 0.078125)" xlink:href="#Cmr10-30"/>
      <use transform="translate(618.80078125 0.078125)" xlink:href="#Cmr10-30"/>
     </g>
    </g>
    <g id="line2d_52">
     <path d="
M369.216 189.056
L389.376 189.056" style="fill:none;stroke:#000000;stroke-linecap:square;"/>
    </g>
    <g id="line2d_53"/>
    <g id="text_25">
     <!-- $\xi=110,\,\sigma=100$ -->
     <g transform="translate(405.216 194.09625)scale(0.144 -0.144)">
      <use transform="translate(0.0 0.078125)" xlink:href="#Cmmi10-bb"/>
      <use transform="translate(61.259765625 0.078125)" xlink:href="#Cmr10-3d"/>
      <use transform="translate(145.318359375 0.078125)" xlink:href="#Cmr10-31"/>
      <use transform="translate(195.318359375 0.078125)" xlink:href="#Cmr10-31"/>
      <use transform="translate(245.318359375 0.078125)" xlink:href="#Cmr10-30"/>
      <use transform="translate(295.318359375 0.078125)" xlink:href="#Cmmi10-3b"/>
      <use transform="translate(360.103515625 0.078125)" xlink:href="#Cmmi10-be"/>
      <use transform="translate(434.7421875 0.078125)" xlink:href="#Cmr10-3d"/>
      <use transform="translate(518.80078125 0.078125)" xlink:href="#Cmr10-31"/>
      <use transform="translate(568.80078125 0.078125)" xlink:href="#Cmr10-30"/>
      <use transform="translate(618.80078125 0.078125)" xlink:href="#Cmr10-30"/>
     </g>
    </g>
   </g>
  </g>
 </g>
 <defs>
  <clipPath id="p7ff5b81e1d">
   <rect height="345.6" width="446.4" x="72.0" y="43.2"/>
  </clipPath>
 </defs>
</svg>
