<?xml version="1.0" encoding="UTF-8"?>
<svg xmlns="http://www.w3.org/2000/svg" xmlns:xlink="http://www.w3.org/1999/xlink" width="576pt" height="592pt" viewBox="0 0 576 592" version="1.2">
<defs>
<clipPath id="clip1">
  <path d="M 72 123.199219 L 518.398438 123.199219 L 518.398438 468.800781 L 72 468.800781 Z M 72 123.199219 "/>
</clipPath>
<clipPath id="clip2">
  <rect width="576" height="592"/>
</clipPath>
<g id="surface6860" clip-path="url(#clip2)">
<path style="fill-rule:nonzero;fill:rgb(0%,0%,0%);fill-opacity:1;stroke-width:1;stroke-linecap:butt;stroke-linejoin:round;stroke:rgb(0%,0%,0%);stroke-opacity:1;stroke-miterlimit:4;" d="M 396.277344 388.800781 L 399.964844 388.800781 L 399.964844 388.613281 L 396.277344 388.613281 Z M 396.277344 388.800781 " transform="matrix(1,0,0,1,0,80)"/>
</g>
<clipPath id="clip3">
  <rect width="576" height="592"/>
</clipPath>
<g id="surface6863" clip-path="url(#clip3)">
<path style="fill-rule:nonzero;fill:rgb(0%,0%,0%);fill-opacity:1;stroke-width:1;stroke-linecap:butt;stroke-linejoin:round;stroke:rgb(0%,0%,0%);stroke-opacity:1;stroke-miterlimit:4;" d="M 399.964844 388.800781 L 403.652344 388.800781 L 403.652344 388.445312 L 399.964844 388.445312 Z M 399.964844 388.800781 " transform="matrix(1,0,0,1,0,80)"/>
</g>
<clipPath id="clip4">
  <rect width="576" height="592"/>
</clipPath>
<g id="surface6866" clip-path="url(#clip4)">
<path style="fill-rule:nonzero;fill:rgb(0%,0%,0%);fill-opacity:1;stroke-width:1;stroke-linecap:butt;stroke-linejoin:round;stroke:rgb(0%,0%,0%);stroke-opacity:1;stroke-miterlimit:4;" d="M 403.652344 388.800781 L 407.335938 388.800781 L 407.335938 387.546875 L 403.652344 387.546875 Z M 403.652344 388.800781 " transform="matrix(1,0,0,1,0,80)"/>
</g>
<clipPath id="clip5">
  <rect width="576" height="592"/>
</clipPath>
<g id="surface6869" clip-path="url(#clip5)">
<path style="fill-rule:nonzero;fill:rgb(0%,0%,0%);fill-opacity:1;stroke-width:1;stroke-linecap:butt;stroke-linejoin:round;stroke:rgb(0%,0%,0%);stroke-opacity:1;stroke-miterlimit:4;" d="M 407.335938 388.800781 L 411.023438 388.800781 L 411.023438 384.222656 L 407.335938 384.222656 Z M 407.335938 388.800781 " transform="matrix(1,0,0,1,0,80)"/>
</g>
<clipPath id="clip6">
  <rect width="576" height="592"/>
</clipPath>
<g id="surface6872" clip-path="url(#clip6)">
<path style="fill-rule:nonzero;fill:rgb(0%,0%,0%);fill-opacity:1;stroke-width:1;stroke-linecap:butt;stroke-linejoin:round;stroke:rgb(0%,0%,0%);stroke-opacity:1;stroke-miterlimit:4;" d="M 411.023438 388.800781 L 414.710938 388.800781 L 414.710938 374.917969 L 411.023438 374.917969 Z M 411.023438 388.800781 " transform="matrix(1,0,0,1,0,80)"/>
</g>
<clipPath id="clip7">
  <rect width="576" height="592"/>
</clipPath>
<g id="surface6875" clip-path="url(#clip7)">
<path style="fill-rule:nonzero;fill:rgb(0%,0%,0%);fill-opacity:1;stroke-width:1;stroke-linecap:butt;stroke-linejoin:round;stroke:rgb(0%,0%,0%);stroke-opacity:1;stroke-miterlimit:4;" d="M 414.710938 388.800781 L 418.394531 388.800781 L 418.394531 349.597656 L 414.710938 349.597656 Z M 414.710938 388.800781 " transform="matrix(1,0,0,1,0,80)"/>
</g>
<clipPath id="clip8">
  <rect width="576" height="592"/>
</clipPath>
<g id="surface6878" clip-path="url(#clip8)">
<path style="fill-rule:nonzero;fill:rgb(0%,0%,0%);fill-opacity:1;stroke-width:1;stroke-linecap:butt;stroke-linejoin:round;stroke:rgb(0%,0%,0%);stroke-opacity:1;stroke-miterlimit:4;" d="M 418.394531 388.800781 L 422.082031 388.800781 L 422.082031 307.613281 L 418.394531 307.613281 Z M 418.394531 388.800781 " transform="matrix(1,0,0,1,0,80)"/>
</g>
<clipPath id="clip9">
  <rect width="576" height="592"/>
</clipPath>
<g id="surface6881" clip-path="url(#clip9)">
<path style="fill-rule:nonzero;fill:rgb(0%,0%,0%);fill-opacity:1;stroke-width:1;stroke-linecap:butt;stroke-linejoin:round;stroke:rgb(0%,0%,0%);stroke-opacity:1;stroke-miterlimit:4;" d="M 422.082031 388.800781 L 425.765625 388.800781 L 425.765625 239.675781 L 422.082031 239.675781 Z M 422.082031 388.800781 " transform="matrix(1,0,0,1,0,80)"/>
</g>
<clipPath id="clip10">
  <rect width="576" height="592"/>
</clipPath>
<g id="surface6884" clip-path="url(#clip10)">
<path style="fill-rule:nonzero;fill:rgb(0%,0%,0%);fill-opacity:1;stroke-width:1;stroke-linecap:butt;stroke-linejoin:round;stroke:rgb(0%,0%,0%);stroke-opacity:1;stroke-miterlimit:4;" d="M 425.765625 388.800781 L 429.453125 388.800781 L 429.453125 160.507812 L 425.765625 160.507812 Z M 425.765625 388.800781 " transform="matrix(1,0,0,1,0,80)"/>
</g>
<clipPath id="clip11">
  <rect width="576" height="592"/>
</clipPath>
<g id="surface6887" clip-path="url(#clip11)">
<path style="fill-rule:nonzero;fill:rgb(0%,0%,0%);fill-opacity:1;stroke-width:1;stroke-linecap:butt;stroke-linejoin:round;stroke:rgb(0%,0%,0%);stroke-opacity:1;stroke-miterlimit:4;" d="M 429.453125 388.800781 L 433.140625 388.800781 L 433.140625 101.144531 L 429.453125 101.144531 Z M 429.453125 388.800781 " transform="matrix(1,0,0,1,0,80)"/>
</g>
<clipPath id="clip12">
  <rect width="576" height="592"/>
</clipPath>
<g id="surface6890" clip-path="url(#clip12)">
<path style="fill-rule:nonzero;fill:rgb(0%,0%,0%);fill-opacity:1;stroke-width:1;stroke-linecap:butt;stroke-linejoin:round;stroke:rgb(0%,0%,0%);stroke-opacity:1;stroke-miterlimit:4;" d="M 433.140625 388.800781 L 436.824219 388.800781 L 436.824219 85.675781 L 433.140625 85.675781 Z M 433.140625 388.800781 " transform="matrix(1,0,0,1,0,80)"/>
</g>
<clipPath id="clip13">
  <rect width="576" height="592"/>
</clipPath>
<g id="surface6893" clip-path="url(#clip13)">
<path style="fill-rule:nonzero;fill:rgb(0%,0%,0%);fill-opacity:1;stroke-width:1;stroke-linecap:butt;stroke-linejoin:round;stroke:rgb(0%,0%,0%);stroke-opacity:1;stroke-miterlimit:4;" d="M 436.824219 388.800781 L 440.511719 388.800781 L 440.511719 108.488281 L 436.824219 108.488281 Z M 436.824219 388.800781 " transform="matrix(1,0,0,1,0,80)"/>
</g>
<clipPath id="clip14">
  <rect width="576" height="592"/>
</clipPath>
<g id="surface6896" clip-path="url(#clip14)">
<path style="fill-rule:nonzero;fill:rgb(0%,0%,0%);fill-opacity:1;stroke-width:1;stroke-linecap:butt;stroke-linejoin:round;stroke:rgb(0%,0%,0%);stroke-opacity:1;stroke-miterlimit:4;" d="M 440.511719 388.800781 L 444.195312 388.800781 L 444.195312 176.164062 L 440.511719 176.164062 Z M 440.511719 388.800781 " transform="matrix(1,0,0,1,0,80)"/>
</g>
<clipPath id="clip15">
  <rect width="576" height="592"/>
</clipPath>
<g id="surface6899" clip-path="url(#clip15)">
<path style="fill-rule:nonzero;fill:rgb(0%,0%,0%);fill-opacity:1;stroke-width:1;stroke-linecap:butt;stroke-linejoin:round;stroke:rgb(0%,0%,0%);stroke-opacity:1;stroke-miterlimit:4;" d="M 444.195312 388.800781 L 447.882812 388.800781 L 447.882812 250.269531 L 444.195312 250.269531 Z M 444.195312 388.800781 " transform="matrix(1,0,0,1,0,80)"/>
</g>
<clipPath id="clip16">
  <rect width="576" height="592"/>
</clipPath>
<g id="surface6902" clip-path="url(#clip16)">
<path style="fill-rule:nonzero;fill:rgb(0%,0%,0%);fill-opacity:1;stroke-width:1;stroke-linecap:butt;stroke-linejoin:round;stroke:rgb(0%,0%,0%);stroke-opacity:1;stroke-miterlimit:4;" d="M 447.882812 388.800781 L 451.570312 388.800781 L 451.570312 314.882812 L 447.882812 314.882812 Z M 447.882812 388.800781 " transform="matrix(1,0,0,1,0,80)"/>
</g>
<clipPath id="clip17">
  <rect width="576" height="592"/>
</clipPath>
<g id="surface6905" clip-path="url(#clip17)">
<path style="fill-rule:nonzero;fill:rgb(0%,0%,0%);fill-opacity:1;stroke-width:1;stroke-linecap:butt;stroke-linejoin:round;stroke:rgb(0%,0%,0%);stroke-opacity:1;stroke-miterlimit:4;" d="M 451.570312 388.800781 L 455.253906 388.800781 L 455.253906 353.671875 L 451.570312 353.671875 Z M 451.570312 388.800781 " transform="matrix(1,0,0,1,0,80)"/>
</g>
<clipPath id="clip18">
  <rect width="576" height="592"/>
</clipPath>
<g id="surface6908" clip-path="url(#clip18)">
<path style="fill-rule:nonzero;fill:rgb(0%,0%,0%);fill-opacity:1;stroke-width:1;stroke-linecap:butt;stroke-linejoin:round;stroke:rgb(0%,0%,0%);stroke-opacity:1;stroke-miterlimit:4;" d="M 455.253906 388.800781 L 458.941406 388.800781 L 458.941406 375.382812 L 455.253906 375.382812 Z M 455.253906 388.800781 " transform="matrix(1,0,0,1,0,80)"/>
</g>
<clipPath id="clip19">
  <rect width="576" height="592"/>
</clipPath>
<g id="surface6911" clip-path="url(#clip19)">
<path style="fill-rule:nonzero;fill:rgb(0%,0%,0%);fill-opacity:1;stroke-width:1;stroke-linecap:butt;stroke-linejoin:round;stroke:rgb(0%,0%,0%);stroke-opacity:1;stroke-miterlimit:4;" d="M 458.941406 388.800781 L 462.628906 388.800781 L 462.628906 384.914062 L 458.941406 384.914062 Z M 458.941406 388.800781 " transform="matrix(1,0,0,1,0,80)"/>
</g>
<clipPath id="clip20">
  <rect width="576" height="592"/>
</clipPath>
<g id="surface6914" clip-path="url(#clip20)">
<path style="fill-rule:nonzero;fill:rgb(0%,0%,0%);fill-opacity:1;stroke-width:1;stroke-linecap:butt;stroke-linejoin:round;stroke:rgb(0%,0%,0%);stroke-opacity:1;stroke-miterlimit:4;" d="M 462.628906 388.800781 L 466.3125 388.800781 L 466.3125 387.699219 L 462.628906 387.699219 Z M 462.628906 388.800781 " transform="matrix(1,0,0,1,0,80)"/>
</g>
<clipPath id="clip21">
  <rect width="576" height="592"/>
</clipPath>
<g id="surface6917" clip-path="url(#clip21)">
<path style="fill-rule:nonzero;fill:rgb(0%,0%,0%);fill-opacity:1;stroke-width:1;stroke-linecap:butt;stroke-linejoin:round;stroke:rgb(0%,0%,0%);stroke-opacity:1;stroke-miterlimit:4;" d="M 466.3125 388.800781 L 470 388.800781 L 470 388.070312 L 466.3125 388.070312 Z M 466.3125 388.800781 " transform="matrix(1,0,0,1,0,80)"/>
</g>
<clipPath id="clip22">
  <rect width="576" height="592"/>
</clipPath>
<g id="surface6920" clip-path="url(#clip22)">
<path style="fill:none;stroke-width:1;stroke-linecap:square;stroke-linejoin:round;stroke:rgb(0%,0%,100%);stroke-opacity:1;stroke-miterlimit:4;" d="M 99.898438 388.800781 L 120.542969 388.6875 L 123.230469 388.441406 L 125.007812 388.066406 L 126.386719 387.550781 L 127.550781 386.882812 L 128.589844 386.027344 L 129.558594 384.9375 L 130.492188 383.542969 L 131.410156 381.761719 L 132.328125 379.476562 L 133.257812 376.546875 L 134.203125 372.796875 L 135.171875 368.015625 L 136.171875 361.914062 L 137.210938 354.152344 L 138.296875 344.292969 L 139.441406 331.796875 L 140.664062 315.917969 L 141.996094 295.601562 L 143.5 269.101562 L 145.355469 232.199219 L 150.613281 125.082031 L 151.851562 105.652344 L 152.851562 93.203125 L 153.679688 85.441406 L 154.363281 80.933594 L 154.917969 78.597656 L 155.347656 77.625 L 155.65625 77.378906 L 155.894531 77.449219 L 156.160156 77.792969 L 156.503906 78.660156 L 156.941406 80.433594 L 157.480469 83.640625 L 158.132812 88.976562 L 158.910156 97.300781 L 159.839844 109.8125 L 160.96875 128.203125 L 162.421875 155.789062 L 164.851562 206.90625 L 167.628906 263.90625 L 169.328125 294.367188 L 170.785156 316.621094 L 172.109375 333.585938 L 173.339844 346.613281 L 174.503906 356.675781 L 175.617188 364.445312 L 176.6875 370.414062 L 177.726562 375.003906 L 178.738281 378.507812 L 179.730469 381.175781 L 180.714844 383.207031 L 181.703125 384.753906 L 182.710938 385.929688 L 183.765625 386.824219 L 184.910156 387.503906 L 186.210938 388.011719 L 187.785156 388.382812 L 189.863281 388.628906 L 193.097656 388.761719 L 201.078125 388.800781 L 397.703125 388.753906 L 401.28125 388.5625 L 403.332031 388.238281 L 404.84375 387.785156 L 406.082031 387.183594 L 407.167969 386.40625 L 408.164062 385.417969 L 409.109375 384.160156 L 410.03125 382.550781 L 410.949219 380.488281 L 411.871094 377.847656 L 412.808594 374.460938 L 413.769531 370.125 L 414.757812 364.59375 L 415.78125 357.546875 L 416.847656 348.59375 L 417.96875 337.222656 L 419.160156 322.777344 L 420.445312 304.367188 L 421.871094 280.601562 L 423.546875 248.734375 L 426.015625 196.957031 L 428.78125 140.136719 L 430.214844 115.132812 L 431.332031 99.265625 L 432.25 89.160156 L 433.011719 83.027344 L 433.636719 79.628906 L 434.132812 78.019531 L 434.503906 77.449219 L 434.769531 77.382812 L 435.011719 77.566406 L 435.308594 78.109375 L 435.691406 79.328125 L 436.171875 81.671875 L 436.761719 85.753906 L 437.46875 92.324219 L 438.3125 102.398438 L 439.324219 117.324219 L 440.578125 139.335938 L 442.292969 173.730469 L 447.308594 276.601562 L 448.898438 303.46875 L 450.296875 323.503906 L 451.578125 338.855469 L 452.78125 350.683594 L 453.929688 359.824219 L 455.023438 366.878906 L 456.085938 372.289062 L 457.109375 376.433594 L 458.113281 379.597656 L 459.101562 382.007812 L 460.089844 383.839844 L 461.078125 385.234375 L 462.101562 386.296875 L 463.183594 387.101562 L 464.378906 387.714844 L 465.765625 388.167969 L 467.492188 388.488281 L 469.886719 388.691406 L 474.046875 388.785156 L 490.5 388.800781 " transform="matrix(1,0,0,1,0,80)"/>
</g>
</defs>
<g id="surface6851">
<path style=" stroke:none;fill-rule:nonzero;fill:rgb(100%,100%,100%);fill-opacity:1;" d="M 0 512 L 576 512 L 576 80 L 0 80 Z M 0 512 "/>
<path style=" stroke:none;fill-rule:nonzero;fill:rgb(100%,100%,100%);fill-opacity:1;" d="M 72 468.800781 L 518.398438 468.800781 L 518.398438 123.199219 L 72 123.199219 Z M 72 468.800781 "/>
<g clip-path="url(#clip1)" clip-rule="nonzero">
<use xlink:href="#surface6860"/>
<use xlink:href="#surface6863"/>
<use xlink:href="#surface6866"/>
<use xlink:href="#surface6869"/>
<use xlink:href="#surface6872"/>
<use xlink:href="#surface6875"/>
<use xlink:href="#surface6878"/>
<use xlink:href="#surface6881"/>
<use xlink:href="#surface6884"/>
<use xlink:href="#surface6887"/>
<use xlink:href="#surface6890"/>
<use xlink:href="#surface6893"/>
<use xlink:href="#surface6896"/>
<use xlink:href="#surface6899"/>
<use xlink:href="#surface6902"/>
<use xlink:href="#surface6905"/>
<use xlink:href="#surface6908"/>
<use xlink:href="#surface6911"/>
<use xlink:href="#surface6914"/>
<use xlink:href="#surface6917"/>
<use xlink:href="#surface6920"/>
</g>
<path style="fill:none;stroke-width:0.5;stroke-linecap:butt;stroke-linejoin:round;stroke:rgb(0%,0%,0%);stroke-opacity:1;stroke-miterlimit:4;" d="M 0 0.000793457 L 0 -3.999207 " transform="matrix(1,0,0,1,72,468.799988)"/>
<path style="fill:none;stroke-width:0.5;stroke-linecap:butt;stroke-linejoin:round;stroke:rgb(0%,0%,0%);stroke-opacity:1;stroke-miterlimit:4;" d="M 0 -0.000782013 L 0 3.999218 " transform="matrix(1,0,0,1,72,123.200001)"/>
<path style=" stroke:none;fill-rule:nonzero;fill:rgb(0%,0%,0%);fill-opacity:1;" d="M 65.472656 477.65625 L 72.984375 477.65625 L 72.984375 478.652344 L 65.472656 478.652344 Z M 65.472656 477.65625 "/>
<path style=" stroke:none;fill-rule:nonzero;fill:rgb(0%,0%,0%);fill-opacity:1;" d="M 78.070312 477.761719 C 77.507812 477.761719 77.0625 477.914062 76.742188 478.214844 C 76.421875 478.515625 76.261719 478.929688 76.261719 479.457031 C 76.261719 479.984375 76.421875 480.398438 76.742188 480.699219 C 77.0625 481 77.507812 481.152344 78.070312 481.152344 C 78.632812 481.152344 79.074219 481 79.398438 480.699219 C 79.722656 480.394531 79.886719 479.980469 79.886719 479.457031 C 79.886719 478.929688 79.726562 478.515625 79.402344 478.214844 C 79.082031 477.914062 78.636719 477.761719 78.070312 477.761719 M 76.886719 477.261719 C 76.378906 477.136719 75.984375 476.898438 75.699219 476.550781 C 75.417969 476.203125 75.277344 475.777344 75.277344 475.277344 C 75.277344 474.578125 75.523438 474.027344 76.023438 473.621094 C 76.519531 473.214844 77.203125 473.011719 78.070312 473.011719 C 78.941406 473.011719 79.625 473.214844 80.121094 473.621094 C 80.617188 474.027344 80.863281 474.578125 80.863281 475.277344 C 80.863281 475.777344 80.722656 476.203125 80.4375 476.550781 C 80.15625 476.898438 79.765625 477.136719 79.261719 477.261719 C 79.828125 477.394531 80.273438 477.652344 80.589844 478.039062 C 80.910156 478.425781 81.070312 478.898438 81.070312 479.457031 C 81.070312 480.304688 80.8125 480.957031 80.292969 481.410156 C 79.777344 481.863281 79.035156 482.089844 78.070312 482.089844 C 77.105469 482.089844 76.363281 481.863281 75.84375 481.410156 C 75.328125 480.957031 75.070312 480.304688 75.070312 479.457031 C 75.070312 478.898438 75.230469 478.425781 75.550781 478.039062 C 75.871094 477.652344 76.316406 477.394531 76.886719 477.261719 M 76.453125 475.390625 C 76.453125 475.84375 76.59375 476.195312 76.875 476.449219 C 77.160156 476.703125 77.558594 476.832031 78.070312 476.832031 C 78.578125 476.832031 78.976562 476.703125 79.261719 476.449219 C 79.550781 476.195312 79.691406 475.84375 79.691406 475.390625 C 79.691406 474.9375 79.550781 474.582031 79.261719 474.328125 C 78.976562 474.078125 78.578125 473.949219 78.070312 473.949219 C 77.558594 473.949219 77.160156 474.078125 76.875 474.328125 C 76.59375 474.582031 76.453125 474.9375 76.453125 475.390625 "/>
<path style="fill:none;stroke-width:0.5;stroke-linecap:butt;stroke-linejoin:round;stroke:rgb(0%,0%,0%);stroke-opacity:1;stroke-miterlimit:4;" d="M 0.000778198 0.000793457 L 0.000778198 -3.999207 " transform="matrix(1,0,0,1,127.800003,468.799988)"/>
<path style="fill:none;stroke-width:0.5;stroke-linecap:butt;stroke-linejoin:round;stroke:rgb(0%,0%,0%);stroke-opacity:1;stroke-miterlimit:4;" d="M 0.000778198 -0.000782013 L 0.000778198 3.999218 " transform="matrix(1,0,0,1,127.800003,123.200001)"/>
<path style=" stroke:none;fill-rule:nonzero;fill:rgb(0%,0%,0%);fill-opacity:1;" d="M 121.238281 477.65625 L 128.75 477.65625 L 128.75 478.652344 L 121.238281 478.652344 Z M 121.238281 477.65625 "/>
<path style=" stroke:none;fill-rule:nonzero;fill:rgb(0%,0%,0%);fill-opacity:1;" d="M 133.984375 477.074219 C 133.453125 477.074219 133.03125 477.253906 132.722656 477.617188 C 132.410156 477.980469 132.257812 478.480469 132.257812 479.109375 C 132.257812 479.738281 132.410156 480.238281 132.722656 480.605469 C 133.03125 480.96875 133.453125 481.152344 133.984375 481.152344 C 134.515625 481.152344 134.9375 480.96875 135.246094 480.605469 C 135.554688 480.238281 135.710938 479.738281 135.710938 479.109375 C 135.710938 478.480469 135.554688 477.980469 135.246094 477.617188 C 134.9375 477.253906 134.515625 477.074219 133.984375 477.074219 M 136.335938 473.363281 L 136.335938 474.441406 C 136.035156 474.300781 135.738281 474.195312 135.433594 474.121094 C 135.132812 474.046875 134.832031 474.007812 134.535156 474.007812 C 133.753906 474.007812 133.15625 474.269531 132.742188 474.796875 C 132.332031 475.328125 132.097656 476.125 132.039062 477.1875 C 132.269531 476.847656 132.558594 476.589844 132.90625 476.40625 C 133.253906 476.226562 133.636719 476.136719 134.054688 476.136719 C 134.933594 476.136719 135.628906 476.402344 136.136719 476.9375 C 136.648438 477.46875 136.902344 478.195312 136.902344 479.109375 C 136.902344 480.011719 136.636719 480.730469 136.105469 481.273438 C 135.574219 481.816406 134.867188 482.089844 133.984375 482.089844 C 132.972656 482.089844 132.199219 481.703125 131.664062 480.925781 C 131.128906 480.148438 130.859375 479.027344 130.859375 477.554688 C 130.859375 476.171875 131.1875 475.066406 131.84375 474.246094 C 132.5 473.421875 133.382812 473.011719 134.488281 473.011719 C 134.785156 473.011719 135.085938 473.042969 135.386719 473.101562 C 135.691406 473.160156 136.003906 473.246094 136.335938 473.363281 "/>
<path style="fill:none;stroke-width:0.5;stroke-linecap:butt;stroke-linejoin:round;stroke:rgb(0%,0%,0%);stroke-opacity:1;stroke-miterlimit:4;" d="M 0.0015564 0.000793457 L 0.0015564 -3.999207 " transform="matrix(1,0,0,1,183.600006,468.799988)"/>
<path style="fill:none;stroke-width:0.5;stroke-linecap:butt;stroke-linejoin:round;stroke:rgb(0%,0%,0%);stroke-opacity:1;stroke-miterlimit:4;" d="M 0.0015564 -0.000782013 L 0.0015564 3.999218 " transform="matrix(1,0,0,1,183.600006,123.200001)"/>
<path style=" stroke:none;fill-rule:nonzero;fill:rgb(0%,0%,0%);fill-opacity:1;" d="M 177 477.65625 L 184.507812 477.65625 L 184.507812 478.652344 L 177 478.652344 Z M 177 477.65625 "/>
<path style=" stroke:none;fill-rule:nonzero;fill:rgb(0%,0%,0%);fill-opacity:1;" d="M 190.316406 474.199219 L 187.328125 478.871094 L 190.316406 478.871094 Z M 190.007812 473.167969 L 191.496094 473.167969 L 191.496094 478.871094 L 192.742188 478.871094 L 192.742188 479.855469 L 191.496094 479.855469 L 191.496094 481.917969 L 190.316406 481.917969 L 190.316406 479.855469 L 186.367188 479.855469 L 186.367188 478.714844 Z M 190.007812 473.167969 "/>
<path style="fill:none;stroke-width:0.5;stroke-linecap:butt;stroke-linejoin:round;stroke:rgb(0%,0%,0%);stroke-opacity:1;stroke-miterlimit:4;" d="M -0.0015564 0.000793457 L -0.0015564 -3.999207 " transform="matrix(1,0,0,1,239.399994,468.799988)"/>
<path style="fill:none;stroke-width:0.5;stroke-linecap:butt;stroke-linejoin:round;stroke:rgb(0%,0%,0%);stroke-opacity:1;stroke-miterlimit:4;" d="M -0.0015564 -0.000782013 L -0.0015564 3.999218 " transform="matrix(1,0,0,1,239.399994,123.200001)"/>
<path style=" stroke:none;fill-rule:nonzero;fill:rgb(0%,0%,0%);fill-opacity:1;" d="M 233.0625 477.65625 L 240.574219 477.65625 L 240.574219 478.652344 L 233.0625 478.652344 Z M 233.0625 477.65625 "/>
<path style=" stroke:none;fill-rule:nonzero;fill:rgb(0%,0%,0%);fill-opacity:1;" d="M 244.148438 480.921875 L 248.277344 480.921875 L 248.277344 481.917969 L 242.726562 481.917969 L 242.726562 480.921875 C 243.175781 480.457031 243.785156 479.832031 244.5625 479.050781 C 245.335938 478.265625 245.824219 477.761719 246.023438 477.535156 C 246.402344 477.109375 246.667969 476.75 246.816406 476.453125 C 246.96875 476.160156 247.042969 475.871094 247.042969 475.585938 C 247.042969 475.121094 246.878906 474.742188 246.554688 474.449219 C 246.226562 474.15625 245.804688 474.007812 245.277344 474.007812 C 244.90625 474.007812 244.515625 474.070312 244.101562 474.199219 C 243.691406 474.328125 243.253906 474.523438 242.785156 474.789062 L 242.785156 473.589844 C 243.257812 473.398438 243.703125 473.253906 244.117188 473.15625 C 244.535156 473.0625 244.914062 473.011719 245.257812 473.011719 C 246.164062 473.011719 246.886719 473.238281 247.425781 473.691406 C 247.960938 474.144531 248.230469 474.75 248.230469 475.507812 C 248.230469 475.867188 248.164062 476.207031 248.03125 476.53125 C 247.894531 476.851562 247.652344 477.230469 247.292969 477.667969 C 247.195312 477.78125 246.886719 478.109375 246.363281 478.652344 C 245.839844 479.191406 245.101562 479.949219 244.148438 480.921875 "/>
<path style="fill:none;stroke-width:0.5;stroke-linecap:butt;stroke-linejoin:round;stroke:rgb(0%,0%,0%);stroke-opacity:1;stroke-miterlimit:4;" d="M -0.000793457 0.000793457 L -0.000793457 -3.999207 " transform="matrix(1,0,0,1,295.200012,468.799988)"/>
<path style="fill:none;stroke-width:0.5;stroke-linecap:butt;stroke-linejoin:round;stroke:rgb(0%,0%,0%);stroke-opacity:1;stroke-miterlimit:4;" d="M -0.000793457 -0.000782013 L -0.000793457 3.999218 " transform="matrix(1,0,0,1,295.200012,123.200001)"/>
<path style=" stroke:none;fill-rule:nonzero;fill:rgb(0%,0%,0%);fill-opacity:1;" d="M 295.992188 473.949219 C 295.382812 473.949219 294.921875 474.25 294.617188 474.847656 C 294.308594 475.449219 294.15625 476.347656 294.15625 477.554688 C 294.15625 478.75 294.308594 479.652344 294.617188 480.25 C 294.921875 480.851562 295.382812 481.152344 295.992188 481.152344 C 296.605469 481.152344 297.0625 480.851562 297.371094 480.25 C 297.679688 479.652344 297.832031 478.75 297.832031 477.554688 C 297.832031 476.347656 297.679688 475.449219 297.371094 474.847656 C 297.0625 474.25 296.605469 473.949219 295.992188 473.949219 M 295.992188 473.011719 C 296.972656 473.011719 297.722656 473.398438 298.238281 474.175781 C 298.757812 474.953125 299.015625 476.078125 299.015625 477.554688 C 299.015625 479.027344 298.757812 480.148438 298.238281 480.925781 C 297.722656 481.703125 296.972656 482.089844 295.992188 482.089844 C 295.011719 482.089844 294.261719 481.703125 293.742188 480.925781 C 293.226562 480.148438 292.96875 479.027344 292.96875 477.554688 C 292.96875 476.078125 293.226562 474.953125 293.742188 474.175781 C 294.261719 473.398438 295.011719 473.011719 295.992188 473.011719 "/>
<path style="fill:none;stroke-width:0.5;stroke-linecap:butt;stroke-linejoin:round;stroke:rgb(0%,0%,0%);stroke-opacity:1;stroke-miterlimit:4;" d="M 0 0.000793457 L 0 -3.999207 " transform="matrix(1,0,0,1,351,468.799988)"/>
<path style="fill:none;stroke-width:0.5;stroke-linecap:butt;stroke-linejoin:round;stroke:rgb(0%,0%,0%);stroke-opacity:1;stroke-miterlimit:4;" d="M 0 -0.000782013 L 0 3.999218 " transform="matrix(1,0,0,1,351,123.200001)"/>
<path style=" stroke:none;fill-rule:nonzero;fill:rgb(0%,0%,0%);fill-opacity:1;" d="M 350.527344 480.921875 L 354.65625 480.921875 L 354.65625 481.917969 L 349.101562 481.917969 L 349.101562 480.921875 C 349.550781 480.457031 350.164062 479.832031 350.9375 479.050781 C 351.714844 478.265625 352.203125 477.761719 352.402344 477.535156 C 352.78125 477.109375 353.042969 476.75 353.195312 476.453125 C 353.34375 476.160156 353.421875 475.871094 353.421875 475.585938 C 353.421875 475.121094 353.257812 474.742188 352.929688 474.449219 C 352.605469 474.15625 352.179688 474.007812 351.65625 474.007812 C 351.285156 474.007812 350.894531 474.070312 350.480469 474.199219 C 350.070312 474.328125 349.628906 474.523438 349.160156 474.789062 L 349.160156 473.589844 C 349.636719 473.398438 350.082031 473.253906 350.496094 473.15625 C 350.910156 473.0625 351.289062 473.011719 351.632812 473.011719 C 352.539062 473.011719 353.261719 473.238281 353.800781 473.691406 C 354.339844 474.144531 354.609375 474.75 354.609375 475.507812 C 354.609375 475.867188 354.542969 476.207031 354.40625 476.53125 C 354.273438 476.851562 354.027344 477.230469 353.671875 477.667969 C 353.574219 477.78125 353.265625 478.109375 352.738281 478.652344 C 352.21875 479.191406 351.480469 479.949219 350.527344 480.921875 "/>
<path style="fill:none;stroke-width:0.5;stroke-linecap:butt;stroke-linejoin:round;stroke:rgb(0%,0%,0%);stroke-opacity:1;stroke-miterlimit:4;" d="M 0.000793457 0.000793457 L 0.000793457 -3.999207 " transform="matrix(1,0,0,1,406.799988,468.799988)"/>
<path style="fill:none;stroke-width:0.5;stroke-linecap:butt;stroke-linejoin:round;stroke:rgb(0%,0%,0%);stroke-opacity:1;stroke-miterlimit:4;" d="M 0.000793457 -0.000782013 L 0.000793457 3.999218 " transform="matrix(1,0,0,1,406.799988,123.200001)"/>
<path style=" stroke:none;fill-rule:nonzero;fill:rgb(0%,0%,0%);fill-opacity:1;" d="M 408.148438 474.199219 L 405.160156 478.871094 L 408.148438 478.871094 Z M 407.835938 473.167969 L 409.324219 473.167969 L 409.324219 478.871094 L 410.574219 478.871094 L 410.574219 479.855469 L 409.324219 479.855469 L 409.324219 481.917969 L 408.148438 481.917969 L 408.148438 479.855469 L 404.199219 479.855469 L 404.199219 478.714844 Z M 407.835938 473.167969 "/>
<path style="fill:none;stroke-width:0.5;stroke-linecap:butt;stroke-linejoin:round;stroke:rgb(0%,0%,0%);stroke-opacity:1;stroke-miterlimit:4;" d="M 0.0015564 0.000793457 L 0.0015564 -3.999207 " transform="matrix(1,0,0,1,462.600006,468.799988)"/>
<path style="fill:none;stroke-width:0.5;stroke-linecap:butt;stroke-linejoin:round;stroke:rgb(0%,0%,0%);stroke-opacity:1;stroke-miterlimit:4;" d="M 0.0015564 -0.000782013 L 0.0015564 3.999218 " transform="matrix(1,0,0,1,462.600006,123.200001)"/>
<path style=" stroke:none;fill-rule:nonzero;fill:rgb(0%,0%,0%);fill-opacity:1;" d="M 463.542969 477.074219 C 463.011719 477.074219 462.589844 477.253906 462.277344 477.617188 C 461.96875 477.980469 461.8125 478.480469 461.8125 479.109375 C 461.8125 479.738281 461.96875 480.238281 462.277344 480.605469 C 462.589844 480.96875 463.011719 481.152344 463.542969 481.152344 C 464.074219 481.152344 464.492188 480.96875 464.804688 480.605469 C 465.113281 480.238281 465.269531 479.738281 465.269531 479.109375 C 465.269531 478.480469 465.113281 477.980469 464.804688 477.617188 C 464.492188 477.253906 464.074219 477.074219 463.542969 477.074219 M 465.890625 473.363281 L 465.890625 474.441406 C 465.59375 474.300781 465.292969 474.195312 464.992188 474.121094 C 464.6875 474.046875 464.386719 474.007812 464.089844 474.007812 C 463.308594 474.007812 462.710938 474.269531 462.300781 474.796875 C 461.890625 475.328125 461.652344 476.125 461.59375 477.1875 C 461.824219 476.847656 462.113281 476.589844 462.460938 476.40625 C 462.808594 476.226562 463.191406 476.136719 463.609375 476.136719 C 464.488281 476.136719 465.183594 476.402344 465.695312 476.9375 C 466.203125 477.46875 466.457031 478.195312 466.457031 479.109375 C 466.457031 480.011719 466.191406 480.730469 465.660156 481.273438 C 465.128906 481.816406 464.421875 482.089844 463.542969 482.089844 C 462.527344 482.089844 461.753906 481.703125 461.21875 480.925781 C 460.683594 480.148438 460.417969 479.027344 460.417969 477.554688 C 460.417969 476.171875 460.746094 475.066406 461.402344 474.246094 C 462.058594 473.421875 462.9375 473.011719 464.042969 473.011719 C 464.339844 473.011719 464.640625 473.042969 464.945312 473.101562 C 465.246094 473.160156 465.5625 473.246094 465.890625 473.363281 "/>
<path style="fill:none;stroke-width:0.5;stroke-linecap:butt;stroke-linejoin:round;stroke:rgb(0%,0%,0%);stroke-opacity:1;stroke-miterlimit:4;" d="M -0.00158691 0.000793457 L -0.00158691 -3.999207 " transform="matrix(1,0,0,1,518.400024,468.799988)"/>
<path style="fill:none;stroke-width:0.5;stroke-linecap:butt;stroke-linejoin:round;stroke:rgb(0%,0%,0%);stroke-opacity:1;stroke-miterlimit:4;" d="M -0.00158691 -0.000782013 L -0.00158691 3.999218 " transform="matrix(1,0,0,1,518.400024,123.200001)"/>
<path style=" stroke:none;fill-rule:nonzero;fill:rgb(0%,0%,0%);fill-opacity:1;" d="M 519.214844 477.761719 C 518.652344 477.761719 518.207031 477.914062 517.886719 478.214844 C 517.566406 478.515625 517.40625 478.929688 517.40625 479.457031 C 517.40625 479.984375 517.566406 480.398438 517.886719 480.699219 C 518.207031 481 518.652344 481.152344 519.214844 481.152344 C 519.777344 481.152344 520.21875 481 520.542969 480.699219 C 520.867188 480.394531 521.03125 479.980469 521.03125 479.457031 C 521.03125 478.929688 520.871094 478.515625 520.546875 478.214844 C 520.226562 477.914062 519.78125 477.761719 519.214844 477.761719 M 518.03125 477.261719 C 517.523438 477.136719 517.128906 476.898438 516.84375 476.550781 C 516.5625 476.203125 516.421875 475.777344 516.421875 475.277344 C 516.421875 474.578125 516.667969 474.027344 517.167969 473.621094 C 517.664062 473.214844 518.347656 473.011719 519.214844 473.011719 C 520.085938 473.011719 520.769531 473.214844 521.265625 473.621094 C 521.761719 474.027344 522.007812 474.578125 522.007812 475.277344 C 522.007812 475.777344 521.867188 476.203125 521.582031 476.550781 C 521.300781 476.898438 520.90625 477.136719 520.40625 477.261719 C 520.972656 477.394531 521.417969 477.652344 521.734375 478.039062 C 522.054688 478.425781 522.214844 478.898438 522.214844 479.457031 C 522.214844 480.304688 521.953125 480.957031 521.4375 481.410156 C 520.921875 481.863281 520.179688 482.089844 519.214844 482.089844 C 518.25 482.089844 517.507812 481.863281 516.988281 481.410156 C 516.472656 480.957031 516.214844 480.304688 516.214844 479.457031 C 516.214844 478.898438 516.375 478.425781 516.695312 478.039062 C 517.015625 477.652344 517.460938 477.394531 518.03125 477.261719 M 517.597656 475.390625 C 517.597656 475.84375 517.738281 476.195312 518.019531 476.449219 C 518.304688 476.703125 518.703125 476.832031 519.214844 476.832031 C 519.722656 476.832031 520.121094 476.703125 520.40625 476.449219 C 520.695312 476.195312 520.835938 475.84375 520.835938 475.390625 C 520.835938 474.9375 520.695312 474.582031 520.40625 474.328125 C 520.121094 474.078125 519.722656 473.949219 519.214844 473.949219 C 518.703125 473.949219 518.304688 474.078125 518.019531 474.328125 C 517.738281 474.582031 517.597656 474.9375 517.597656 475.390625 "/>
<path style="fill:none;stroke-width:0.5;stroke-linecap:butt;stroke-linejoin:round;stroke:rgb(0%,0%,0%);stroke-opacity:1;stroke-miterlimit:4;" d="M 0 0.000793457 L 4 0.000793457 " transform="matrix(1,0,0,1,72,468.799988)"/>
<path style="fill:none;stroke-width:0.5;stroke-linecap:butt;stroke-linejoin:round;stroke:rgb(0%,0%,0%);stroke-opacity:1;stroke-miterlimit:4;" d="M -0.00158691 0.000793457 L -4.001587 0.000793457 " transform="matrix(1,0,0,1,518.400024,468.799988)"/>
<path style=" stroke:none;fill-rule:nonzero;fill:rgb(0%,0%,0%);fill-opacity:1;" d="M 54.316406 464.140625 C 53.710938 464.140625 53.25 464.441406 52.945312 465.042969 C 52.636719 465.640625 52.484375 466.542969 52.484375 467.746094 C 52.484375 468.945312 52.636719 469.84375 52.945312 470.445312 C 53.25 471.042969 53.710938 471.34375 54.316406 471.34375 C 54.933594 471.34375 55.390625 471.042969 55.699219 470.445312 C 56.003906 469.84375 56.160156 468.945312 56.160156 467.746094 C 56.160156 466.542969 56.003906 465.640625 55.699219 465.042969 C 55.390625 464.441406 54.933594 464.140625 54.316406 464.140625 M 54.316406 463.203125 C 55.300781 463.203125 56.046875 463.59375 56.566406 464.371094 C 57.082031 465.144531 57.34375 466.269531 57.34375 467.746094 C 57.34375 469.21875 57.082031 470.34375 56.566406 471.121094 C 56.046875 471.894531 55.300781 472.28125 54.316406 472.28125 C 53.339844 472.28125 52.589844 471.894531 52.070312 471.121094 C 51.554688 470.34375 51.296875 469.21875 51.296875 467.746094 C 51.296875 466.269531 51.554688 465.144531 52.070312 464.371094 C 52.589844 463.59375 53.339844 463.203125 54.316406 463.203125 "/>
<path style=" stroke:none;fill-rule:nonzero;fill:rgb(0%,0%,0%);fill-opacity:1;" d="M 59.421875 470.621094 L 60.660156 470.621094 L 60.660156 472.109375 L 59.421875 472.109375 Z M 59.421875 470.621094 "/>
<path style=" stroke:none;fill-rule:nonzero;fill:rgb(0%,0%,0%);fill-opacity:1;" d="M 65.765625 464.140625 C 65.160156 464.140625 64.699219 464.441406 64.394531 465.042969 C 64.085938 465.640625 63.933594 466.542969 63.933594 467.746094 C 63.933594 468.945312 64.085938 469.84375 64.394531 470.445312 C 64.699219 471.042969 65.160156 471.34375 65.765625 471.34375 C 66.382812 471.34375 66.839844 471.042969 67.148438 470.445312 C 67.453125 469.84375 67.609375 468.945312 67.609375 467.746094 C 67.609375 466.542969 67.453125 465.640625 67.148438 465.042969 C 66.839844 464.441406 66.382812 464.140625 65.765625 464.140625 M 65.765625 463.203125 C 66.75 463.203125 67.496094 463.59375 68.015625 464.371094 C 68.53125 465.144531 68.792969 466.269531 68.792969 467.746094 C 68.792969 469.21875 68.53125 470.34375 68.015625 471.121094 C 67.496094 471.894531 66.75 472.28125 65.765625 472.28125 C 64.789062 472.28125 64.039062 471.894531 63.519531 471.121094 C 63.003906 470.34375 62.746094 469.21875 62.746094 467.746094 C 62.746094 466.269531 63.003906 465.144531 63.519531 464.371094 C 64.039062 463.59375 64.789062 463.203125 65.765625 463.203125 "/>
<path style="fill:none;stroke-width:0.5;stroke-linecap:butt;stroke-linejoin:round;stroke:rgb(0%,0%,0%);stroke-opacity:1;stroke-miterlimit:4;" d="M 0 0.00112915 L 4 0.00112915 " transform="matrix(1,0,0,1,72,419.428558)"/>
<path style="fill:none;stroke-width:0.5;stroke-linecap:butt;stroke-linejoin:round;stroke:rgb(0%,0%,0%);stroke-opacity:1;stroke-miterlimit:4;" d="M -0.00158691 0.00112915 L -4.001587 0.00112915 " transform="matrix(1,0,0,1,518.400024,419.428558)"/>
<path style=" stroke:none;fill-rule:nonzero;fill:rgb(0%,0%,0%);fill-opacity:1;" d="M 54.722656 414.769531 C 54.113281 414.769531 53.65625 415.070312 53.347656 415.671875 C 53.042969 416.269531 52.890625 417.171875 52.890625 418.375 C 52.890625 419.574219 53.042969 420.472656 53.347656 421.074219 C 53.65625 421.671875 54.113281 421.972656 54.722656 421.972656 C 55.335938 421.972656 55.796875 421.671875 56.101562 421.074219 C 56.410156 420.472656 56.5625 419.574219 56.5625 418.375 C 56.5625 417.171875 56.410156 416.269531 56.101562 415.671875 C 55.796875 415.070312 55.335938 414.769531 54.722656 414.769531 M 54.722656 413.832031 C 55.703125 413.832031 56.453125 414.222656 56.972656 414.996094 C 57.488281 415.773438 57.746094 416.898438 57.746094 418.375 C 57.746094 419.847656 57.488281 420.972656 56.972656 421.746094 C 56.453125 422.523438 55.703125 422.910156 54.722656 422.910156 C 53.742188 422.910156 52.996094 422.523438 52.476562 421.746094 C 51.960938 420.972656 51.699219 419.847656 51.699219 418.375 C 51.699219 416.898438 51.960938 415.773438 52.476562 414.996094 C 52.996094 414.222656 53.742188 413.832031 54.722656 413.832031 "/>
<path style=" stroke:none;fill-rule:nonzero;fill:rgb(0%,0%,0%);fill-opacity:1;" d="M 59.828125 421.25 L 61.0625 421.25 L 61.0625 422.738281 L 59.828125 422.738281 Z M 59.828125 421.25 "/>
<path style=" stroke:none;fill-rule:nonzero;fill:rgb(0%,0%,0%);fill-opacity:1;" d="M 64.660156 421.746094 L 68.792969 421.746094 L 68.792969 422.738281 L 63.238281 422.738281 L 63.238281 421.746094 C 63.6875 421.277344 64.296875 420.65625 65.074219 419.871094 C 65.851562 419.089844 66.335938 418.582031 66.535156 418.355469 C 66.914062 417.929688 67.179688 417.570312 67.328125 417.277344 C 67.480469 416.980469 67.554688 416.691406 67.554688 416.40625 C 67.554688 415.941406 67.394531 415.5625 67.066406 415.269531 C 66.742188 414.976562 66.316406 414.828125 65.792969 414.828125 C 65.421875 414.828125 65.027344 414.894531 64.617188 415.023438 C 64.203125 415.152344 63.765625 415.347656 63.296875 415.609375 L 63.296875 414.414062 C 63.773438 414.222656 64.21875 414.078125 64.632812 413.980469 C 65.046875 413.882812 65.425781 413.832031 65.769531 413.832031 C 66.675781 413.832031 67.398438 414.058594 67.9375 414.515625 C 68.476562 414.964844 68.746094 415.570312 68.746094 416.328125 C 68.746094 416.6875 68.675781 417.03125 68.542969 417.351562 C 68.410156 417.675781 68.164062 418.054688 67.808594 418.492188 C 67.710938 418.605469 67.398438 418.933594 66.875 419.472656 C 66.351562 420.015625 65.613281 420.773438 64.660156 421.746094 "/>
<path style="fill:none;stroke-width:0.5;stroke-linecap:butt;stroke-linejoin:round;stroke:rgb(0%,0%,0%);stroke-opacity:1;stroke-miterlimit:4;" d="M 0 0.00146484 L 4 0.00146484 " transform="matrix(1,0,0,1,72,370.057129)"/>
<path style="fill:none;stroke-width:0.5;stroke-linecap:butt;stroke-linejoin:round;stroke:rgb(0%,0%,0%);stroke-opacity:1;stroke-miterlimit:4;" d="M -0.00158691 0.00146484 L -4.001587 0.00146484 " transform="matrix(1,0,0,1,518.400024,370.057129)"/>
<path style=" stroke:none;fill-rule:nonzero;fill:rgb(0%,0%,0%);fill-opacity:1;" d="M 54.195312 365.398438 C 53.585938 365.398438 53.128906 365.699219 52.820312 366.300781 C 52.515625 366.898438 52.359375 367.800781 52.359375 369.003906 C 52.359375 370.203125 52.515625 371.101562 52.820312 371.703125 C 53.128906 372.300781 53.585938 372.601562 54.195312 372.601562 C 54.808594 372.601562 55.269531 372.300781 55.574219 371.703125 C 55.882812 371.101562 56.035156 370.203125 56.035156 369.003906 C 56.035156 367.800781 55.882812 366.898438 55.574219 366.300781 C 55.269531 365.699219 54.808594 365.398438 54.195312 365.398438 M 54.195312 364.460938 C 55.175781 364.460938 55.925781 364.851562 56.441406 365.625 C 56.960938 366.402344 57.21875 367.527344 57.21875 369.003906 C 57.21875 370.476562 56.960938 371.601562 56.441406 372.375 C 55.925781 373.152344 55.175781 373.539062 54.195312 373.539062 C 53.214844 373.539062 52.464844 373.152344 51.949219 372.375 C 51.429688 371.601562 51.171875 370.476562 51.171875 369.003906 C 51.171875 367.527344 51.429688 366.402344 51.949219 365.625 C 52.464844 364.851562 53.214844 364.460938 54.195312 364.460938 "/>
<path style=" stroke:none;fill-rule:nonzero;fill:rgb(0%,0%,0%);fill-opacity:1;" d="M 59.296875 371.878906 L 60.535156 371.878906 L 60.535156 373.367188 L 59.296875 373.367188 Z M 59.296875 371.878906 "/>
<path style=" stroke:none;fill-rule:nonzero;fill:rgb(0%,0%,0%);fill-opacity:1;" d="M 66.367188 365.652344 L 63.375 370.320312 L 66.367188 370.320312 Z M 66.054688 364.621094 L 67.542969 364.621094 L 67.542969 370.320312 L 68.792969 370.320312 L 68.792969 371.304688 L 67.542969 371.304688 L 67.542969 373.367188 L 66.367188 373.367188 L 66.367188 371.304688 L 62.417969 371.304688 L 62.417969 370.164062 Z M 66.054688 364.621094 "/>
<path style="fill:none;stroke-width:0.5;stroke-linecap:butt;stroke-linejoin:round;stroke:rgb(0%,0%,0%);stroke-opacity:1;stroke-miterlimit:4;" d="M 0 0.00178528 L 4 0.00178528 " transform="matrix(1,0,0,1,72,320.685715)"/>
<path style="fill:none;stroke-width:0.5;stroke-linecap:butt;stroke-linejoin:round;stroke:rgb(0%,0%,0%);stroke-opacity:1;stroke-miterlimit:4;" d="M -0.00158691 0.00178528 L -4.001587 0.00178528 " transform="matrix(1,0,0,1,518.400024,320.685715)"/>
<path style=" stroke:none;fill-rule:nonzero;fill:rgb(0%,0%,0%);fill-opacity:1;" d="M 54.277344 316.027344 C 53.667969 316.027344 53.210938 316.328125 52.902344 316.929688 C 52.597656 317.527344 52.441406 318.429688 52.441406 319.632812 C 52.441406 320.832031 52.597656 321.730469 52.902344 322.332031 C 53.210938 322.929688 53.667969 323.230469 54.277344 323.230469 C 54.890625 323.230469 55.351562 322.929688 55.65625 322.332031 C 55.964844 321.730469 56.117188 320.832031 56.117188 319.632812 C 56.117188 318.429688 55.964844 317.527344 55.65625 316.929688 C 55.351562 316.328125 54.890625 316.027344 54.277344 316.027344 M 54.277344 315.089844 C 55.257812 315.089844 56.007812 315.480469 56.523438 316.253906 C 57.042969 317.03125 57.300781 318.15625 57.300781 319.632812 C 57.300781 321.105469 57.042969 322.230469 56.523438 323.003906 C 56.007812 323.78125 55.257812 324.167969 54.277344 324.167969 C 53.296875 324.167969 52.546875 323.78125 52.03125 323.003906 C 51.511719 322.230469 51.253906 321.105469 51.253906 319.632812 C 51.253906 318.15625 51.511719 317.03125 52.03125 316.253906 C 52.546875 315.480469 53.296875 315.089844 54.277344 315.089844 "/>
<path style=" stroke:none;fill-rule:nonzero;fill:rgb(0%,0%,0%);fill-opacity:1;" d="M 59.378906 322.507812 L 60.617188 322.507812 L 60.617188 323.996094 L 59.378906 323.996094 Z M 59.378906 322.507812 "/>
<path style=" stroke:none;fill-rule:nonzero;fill:rgb(0%,0%,0%);fill-opacity:1;" d="M 65.875 319.152344 C 65.34375 319.152344 64.921875 319.332031 64.609375 319.699219 C 64.300781 320.058594 64.144531 320.558594 64.144531 321.191406 C 64.144531 321.820312 64.300781 322.316406 64.609375 322.683594 C 64.921875 323.046875 65.34375 323.230469 65.875 323.230469 C 66.40625 323.230469 66.824219 323.046875 67.136719 322.683594 C 67.445312 322.316406 67.601562 321.820312 67.601562 321.191406 C 67.601562 320.558594 67.445312 320.058594 67.136719 319.699219 C 66.824219 319.332031 66.40625 319.152344 65.875 319.152344 M 68.222656 315.441406 L 68.222656 316.519531 C 67.925781 316.378906 67.625 316.273438 67.324219 316.199219 C 67.019531 316.125 66.722656 316.085938 66.421875 316.085938 C 65.640625 316.085938 65.046875 316.351562 64.632812 316.878906 C 64.222656 317.40625 63.988281 318.203125 63.929688 319.269531 C 64.15625 318.929688 64.445312 318.667969 64.792969 318.488281 C 65.144531 318.304688 65.527344 318.214844 65.945312 318.214844 C 66.824219 318.214844 67.515625 318.480469 68.027344 319.015625 C 68.535156 319.546875 68.792969 320.273438 68.792969 321.191406 C 68.792969 322.089844 68.527344 322.808594 67.996094 323.355469 C 67.464844 323.894531 66.757812 324.167969 65.875 324.167969 C 64.863281 324.167969 64.089844 323.78125 63.554688 323.003906 C 63.019531 322.230469 62.75 321.105469 62.75 319.632812 C 62.75 318.25 63.078125 317.148438 63.734375 316.324219 C 64.390625 315.503906 65.273438 315.089844 66.375 315.089844 C 66.675781 315.089844 66.972656 315.121094 67.277344 315.179688 C 67.578125 315.238281 67.894531 315.324219 68.222656 315.441406 "/>
<path style="fill:none;stroke-width:0.5;stroke-linecap:butt;stroke-linejoin:round;stroke:rgb(0%,0%,0%);stroke-opacity:1;stroke-miterlimit:4;" d="M 0 -0.00178528 L 4 -0.00178528 " transform="matrix(1,0,0,1,72,271.314285)"/>
<path style="fill:none;stroke-width:0.5;stroke-linecap:butt;stroke-linejoin:round;stroke:rgb(0%,0%,0%);stroke-opacity:1;stroke-miterlimit:4;" d="M -0.00158691 -0.00178528 L -4.001587 -0.00178528 " transform="matrix(1,0,0,1,518.400024,271.314285)"/>
<path style=" stroke:none;fill-rule:nonzero;fill:rgb(0%,0%,0%);fill-opacity:1;" d="M 54.34375 266.65625 C 53.734375 266.65625 53.277344 266.957031 52.96875 267.558594 C 52.660156 268.15625 52.507812 269.058594 52.507812 270.261719 C 52.507812 271.460938 52.660156 272.359375 52.96875 272.957031 C 53.277344 273.558594 53.734375 273.859375 54.34375 273.859375 C 54.957031 273.859375 55.417969 273.558594 55.722656 272.957031 C 56.03125 272.359375 56.183594 271.460938 56.183594 270.261719 C 56.183594 269.058594 56.03125 268.15625 55.722656 267.558594 C 55.417969 266.957031 54.957031 266.65625 54.34375 266.65625 M 54.34375 265.71875 C 55.324219 265.71875 56.074219 266.105469 56.589844 266.882812 C 57.109375 267.660156 57.367188 268.785156 57.367188 270.261719 C 57.367188 271.734375 57.109375 272.855469 56.589844 273.632812 C 56.074219 274.410156 55.324219 274.796875 54.34375 274.796875 C 53.363281 274.796875 52.613281 274.410156 52.097656 273.632812 C 51.578125 272.855469 51.320312 271.734375 51.320312 270.261719 C 51.320312 268.785156 51.578125 267.660156 52.097656 266.882812 C 52.613281 266.105469 53.363281 265.71875 54.34375 265.71875 "/>
<path style=" stroke:none;fill-rule:nonzero;fill:rgb(0%,0%,0%);fill-opacity:1;" d="M 59.445312 273.136719 L 60.683594 273.136719 L 60.683594 274.625 L 59.445312 274.625 Z M 59.445312 273.136719 "/>
<path style=" stroke:none;fill-rule:nonzero;fill:rgb(0%,0%,0%);fill-opacity:1;" d="M 65.792969 270.46875 C 65.230469 270.46875 64.785156 270.621094 64.464844 270.921875 C 64.144531 271.222656 63.980469 271.636719 63.980469 272.164062 C 63.980469 272.691406 64.144531 273.105469 64.464844 273.40625 C 64.785156 273.707031 65.230469 273.859375 65.792969 273.859375 C 66.355469 273.859375 66.796875 273.707031 67.121094 273.40625 C 67.445312 273.101562 67.609375 272.6875 67.609375 272.164062 C 67.609375 271.636719 67.449219 271.222656 67.125 270.921875 C 66.804688 270.621094 66.359375 270.46875 65.792969 270.46875 M 64.609375 269.96875 C 64.101562 269.84375 63.707031 269.605469 63.421875 269.257812 C 63.140625 268.910156 62.996094 268.484375 62.996094 267.984375 C 62.996094 267.289062 63.246094 266.734375 63.746094 266.328125 C 64.242188 265.921875 64.925781 265.71875 65.792969 265.71875 C 66.664062 265.71875 67.347656 265.921875 67.84375 266.328125 C 68.339844 266.734375 68.585938 267.289062 68.585938 267.984375 C 68.585938 268.484375 68.445312 268.910156 68.160156 269.257812 C 67.878906 269.605469 67.484375 269.84375 66.980469 269.96875 C 67.550781 270.101562 67.996094 270.359375 68.3125 270.746094 C 68.632812 271.132812 68.792969 271.605469 68.792969 272.164062 C 68.792969 273.011719 68.53125 273.664062 68.015625 274.117188 C 67.496094 274.570312 66.757812 274.796875 65.792969 274.796875 C 64.828125 274.796875 64.085938 274.570312 63.566406 274.117188 C 63.050781 273.664062 62.792969 273.011719 62.792969 272.164062 C 62.792969 271.605469 62.953125 271.132812 63.273438 270.746094 C 63.59375 270.359375 64.039062 270.101562 64.609375 269.96875 M 64.175781 268.097656 C 64.175781 268.550781 64.316406 268.902344 64.597656 269.15625 C 64.882812 269.410156 65.28125 269.539062 65.792969 269.539062 C 66.300781 269.539062 66.699219 269.410156 66.984375 269.15625 C 67.273438 268.902344 67.414062 268.550781 67.414062 268.097656 C 67.414062 267.644531 67.273438 267.292969 66.984375 267.039062 C 66.699219 266.785156 66.300781 266.65625 65.792969 266.65625 C 65.28125 266.65625 64.882812 266.785156 64.597656 267.039062 C 64.316406 267.292969 64.175781 267.644531 64.175781 268.097656 "/>
<path style="fill:none;stroke-width:0.5;stroke-linecap:butt;stroke-linejoin:round;stroke:rgb(0%,0%,0%);stroke-opacity:1;stroke-miterlimit:4;" d="M 0 -0.00144958 L 4 -0.00144958 " transform="matrix(1,0,0,1,72,221.942856)"/>
<path style="fill:none;stroke-width:0.5;stroke-linecap:butt;stroke-linejoin:round;stroke:rgb(0%,0%,0%);stroke-opacity:1;stroke-miterlimit:4;" d="M -0.00158691 -0.00144958 L -4.001587 -0.00144958 " transform="matrix(1,0,0,1,518.400024,221.942856)"/>
<path style=" stroke:none;fill-rule:nonzero;fill:rgb(0%,0%,0%);fill-opacity:1;" d="M 52.519531 224.257812 L 54.453125 224.257812 L 54.453125 217.582031 L 52.347656 218.003906 L 52.347656 216.925781 L 54.441406 216.503906 L 55.625 216.503906 L 55.625 224.257812 L 57.558594 224.257812 L 57.558594 225.253906 L 52.519531 225.253906 Z M 52.519531 224.257812 "/>
<path style=" stroke:none;fill-rule:nonzero;fill:rgb(0%,0%,0%);fill-opacity:1;" d="M 59.949219 223.765625 L 61.1875 223.765625 L 61.1875 225.253906 L 59.949219 225.253906 Z M 59.949219 223.765625 "/>
<path style=" stroke:none;fill-rule:nonzero;fill:rgb(0%,0%,0%);fill-opacity:1;" d="M 66.292969 217.285156 C 65.683594 217.285156 65.226562 217.585938 64.917969 218.183594 C 64.613281 218.785156 64.460938 219.683594 64.460938 220.890625 C 64.460938 222.085938 64.613281 222.988281 64.917969 223.585938 C 65.226562 224.1875 65.683594 224.488281 66.292969 224.488281 C 66.90625 224.488281 67.367188 224.1875 67.675781 223.585938 C 67.980469 222.988281 68.136719 222.085938 68.136719 220.890625 C 68.136719 219.683594 67.980469 218.785156 67.675781 218.183594 C 67.367188 217.585938 66.90625 217.285156 66.292969 217.285156 M 66.292969 216.347656 C 67.277344 216.347656 68.023438 216.734375 68.542969 217.511719 C 69.058594 218.289062 69.320312 219.414062 69.320312 220.890625 C 69.320312 222.363281 69.058594 223.484375 68.542969 224.261719 C 68.023438 225.039062 67.277344 225.425781 66.292969 225.425781 C 65.3125 225.425781 64.566406 225.039062 64.046875 224.261719 C 63.53125 223.484375 63.273438 222.363281 63.273438 220.890625 C 63.273438 219.414062 63.53125 218.289062 64.046875 217.511719 C 64.566406 216.734375 65.3125 216.347656 66.292969 216.347656 "/>
<path style="fill:none;stroke-width:0.5;stroke-linecap:butt;stroke-linejoin:round;stroke:rgb(0%,0%,0%);stroke-opacity:1;stroke-miterlimit:4;" d="M 0 -0.00111389 L 4 -0.00111389 " transform="matrix(1,0,0,1,72,172.571426)"/>
<path style="fill:none;stroke-width:0.5;stroke-linecap:butt;stroke-linejoin:round;stroke:rgb(0%,0%,0%);stroke-opacity:1;stroke-miterlimit:4;" d="M -0.00158691 -0.00111389 L -4.001587 -0.00111389 " transform="matrix(1,0,0,1,518.400024,172.571426)"/>
<path style=" stroke:none;fill-rule:nonzero;fill:rgb(0%,0%,0%);fill-opacity:1;" d="M 52.925781 174.886719 L 54.859375 174.886719 L 54.859375 168.210938 L 52.753906 168.632812 L 52.753906 167.554688 L 54.847656 167.132812 L 56.03125 167.132812 L 56.03125 174.886719 L 57.964844 174.886719 L 57.964844 175.882812 L 52.925781 175.882812 Z M 52.925781 174.886719 "/>
<path style=" stroke:none;fill-rule:nonzero;fill:rgb(0%,0%,0%);fill-opacity:1;" d="M 60.351562 174.394531 L 61.589844 174.394531 L 61.589844 175.882812 L 60.351562 175.882812 Z M 60.351562 174.394531 "/>
<path style=" stroke:none;fill-rule:nonzero;fill:rgb(0%,0%,0%);fill-opacity:1;" d="M 65.1875 174.886719 L 69.320312 174.886719 L 69.320312 175.882812 L 63.765625 175.882812 L 63.765625 174.886719 C 64.214844 174.421875 64.824219 173.796875 65.601562 173.015625 C 66.375 172.230469 66.863281 171.726562 67.0625 171.5 C 67.441406 171.074219 67.707031 170.714844 67.855469 170.417969 C 68.007812 170.125 68.082031 169.832031 68.082031 169.550781 C 68.082031 169.082031 67.917969 168.707031 67.59375 168.414062 C 67.265625 168.117188 66.84375 167.972656 66.320312 167.972656 C 65.949219 167.972656 65.554688 168.035156 65.144531 168.164062 C 64.730469 168.292969 64.292969 168.488281 63.824219 168.753906 L 63.824219 167.554688 C 64.300781 167.363281 64.746094 167.21875 65.15625 167.121094 C 65.574219 167.023438 65.953125 166.976562 66.296875 166.976562 C 67.203125 166.976562 67.925781 167.203125 68.464844 167.65625 C 69.003906 168.109375 69.273438 168.714844 69.273438 169.472656 C 69.273438 169.832031 69.203125 170.171875 69.070312 170.496094 C 68.933594 170.816406 68.691406 171.195312 68.335938 171.632812 C 68.238281 171.746094 67.925781 172.074219 67.402344 172.617188 C 66.878906 173.15625 66.140625 173.914062 65.1875 174.886719 "/>
<path style="fill:none;stroke-width:0.5;stroke-linecap:butt;stroke-linejoin:round;stroke:rgb(0%,0%,0%);stroke-opacity:1;stroke-miterlimit:4;" d="M 0 -0.000782013 L 4 -0.000782013 " transform="matrix(1,0,0,1,72,123.200001)"/>
<path style="fill:none;stroke-width:0.5;stroke-linecap:butt;stroke-linejoin:round;stroke:rgb(0%,0%,0%);stroke-opacity:1;stroke-miterlimit:4;" d="M -0.00158691 -0.000782013 L -4.001587 -0.000782013 " transform="matrix(1,0,0,1,518.400024,123.200001)"/>
<path style=" stroke:none;fill-rule:nonzero;fill:rgb(0%,0%,0%);fill-opacity:1;" d="M 52.394531 125.515625 L 54.328125 125.515625 L 54.328125 118.839844 L 52.226562 119.261719 L 52.226562 118.183594 L 54.316406 117.761719 L 55.5 117.761719 L 55.5 125.515625 L 57.433594 125.515625 L 57.433594 126.511719 L 52.394531 126.511719 Z M 52.394531 125.515625 "/>
<path style=" stroke:none;fill-rule:nonzero;fill:rgb(0%,0%,0%);fill-opacity:1;" d="M 59.824219 125.023438 L 61.0625 125.023438 L 61.0625 126.511719 L 59.824219 126.511719 Z M 59.824219 125.023438 "/>
<path style=" stroke:none;fill-rule:nonzero;fill:rgb(0%,0%,0%);fill-opacity:1;" d="M 66.890625 118.792969 L 63.902344 123.464844 L 66.890625 123.464844 Z M 66.582031 117.761719 L 68.070312 117.761719 L 68.070312 123.464844 L 69.320312 123.464844 L 69.320312 124.449219 L 68.070312 124.449219 L 68.070312 126.511719 L 66.890625 126.511719 L 66.890625 124.449219 L 62.945312 124.449219 L 62.945312 123.308594 Z M 66.582031 117.761719 "/>
<path style="fill:none;stroke-width:1;stroke-linecap:butt;stroke-linejoin:round;stroke:rgb(0%,0%,0%);stroke-opacity:1;stroke-miterlimit:4;" d="M 72 43.199219 L 518.398438 43.199219 " transform="matrix(1,0,0,1,0,80)"/>
<path style="fill:none;stroke-width:1;stroke-linecap:butt;stroke-linejoin:round;stroke:rgb(0%,0%,0%);stroke-opacity:1;stroke-miterlimit:4;" d="M 518.398438 388.800781 L 518.398438 43.199219 " transform="matrix(1,0,0,1,0,80)"/>
<path style="fill:none;stroke-width:1;stroke-linecap:butt;stroke-linejoin:round;stroke:rgb(0%,0%,0%);stroke-opacity:1;stroke-miterlimit:4;" d="M 72 388.800781 L 518.398438 388.800781 " transform="matrix(1,0,0,1,0,80)"/>
<path style="fill:none;stroke-width:1;stroke-linecap:butt;stroke-linejoin:round;stroke:rgb(0%,0%,0%);stroke-opacity:1;stroke-miterlimit:4;" d="M 72 388.800781 L 72 43.199219 " transform="matrix(1,0,0,1,0,80)"/>
</g>
</svg>
